<svg width="1509" height="970" viewBox="0 0 1509 970" fill="none" xmlns="http://www.w3.org/2000/svg">
<path d="M723.843 1.22559H754.005C745.989 2.99184 739.332 8.69818 733.897 18.0729L719.088 44.9742C717.322 48.3708 716.371 53.262 716.371 59.9194V81.2503C716.371 87.3642 718.952 92.1195 722.349 93.8857C726.017 95.652 727.919 96.1954 729.957 96.3313H681.453C683.22 96.3313 685.529 95.7878 688.79 94.0216C692.187 92.2553 694.768 87.7718 694.768 81.7937L694.904 63.7236C694.904 57.0662 693.545 51.4958 690.964 47.2839L672.079 16.3066C665.557 5.84501 657.405 1.22559 653.193 1.22559L701.561 1.36145C693.817 1.49732 689.741 8.69818 693.953 16.4425L709.442 42.9362C712.567 48.5067 715.691 48.235 718.952 42.121L732.131 18.4805C737.158 9.3775 734.169 2.44837 723.843 1.22559Z" fill="#55142E" fill-opacity="0.3"/>
<path d="M639.929 18.6163V78.6688C639.929 86.1414 643.054 91.4402 646.994 93.614C650.934 95.652 653.515 96.3313 655.145 96.3313H601.75C603.381 96.3313 605.962 95.652 609.902 93.614C613.842 91.4402 616.967 86.1414 616.967 78.6688V32.2029C616.967 25.4096 616.56 21.8771 615.745 21.7412C614.522 21.6054 613.435 23.0999 611.261 28.6704L582.186 99.9997L542.785 27.9911C538.845 20.2467 536.671 19.2957 536.399 25.1379V26.7683L536.127 73.7777C536.127 82.3372 539.796 88.7228 543.6 91.576C545.502 92.9347 547.676 94.0216 550.257 94.8368C555.284 96.4672 556.779 96.3313 558.002 96.3313H512.895C514.117 96.3313 515.748 96.4672 520.503 94.8368C527.296 92.6629 533.954 86.9566 534.361 73.5059V23.2358C534.361 5.98088 520.095 2.04078 516.699 1.36145L516.155 1.22559H553.79L584.496 57.2021C587.62 62.7726 589.387 65.8975 590.066 66.4409C591.289 67.6637 592.783 66.7127 594.278 63.5878C594.821 62.6367 595.365 61.2781 596.044 59.6477L620.364 1.22559H655.825C655.01 1.22559 640.064 2.17665 639.929 18.6163Z" fill="#55142E" fill-opacity="0.3"/>
<path d="M460.593 0.00299782C476.218 0.00299782 488.581 6.11694 495.51 15.4916C502.575 24.8664 505.972 36.4149 505.836 48.9145C505.429 73.642 489.261 97.9619 456.381 97.5543C440.757 97.4184 427.85 90.4893 420.649 80.707C413.448 70.9247 409.644 59.2403 410.051 47.8276C410.187 33.5617 415.078 22.0132 424.453 13.1819C433.963 4.35069 446.055 -0.132866 460.593 0.00299782ZM480.429 45.6537C478.799 33.0183 475.131 22.4208 469.56 13.5895C463.99 4.75828 457.332 1.08992 449.86 2.31271C443.746 3.26376 439.398 8.01905 436.545 16.3068C433.828 24.5946 433.284 35.0562 435.05 47.8276C436.817 60.4631 440.485 71.3323 445.784 80.4353C451.218 89.5382 457.468 94.4294 464.669 94.9729C471.87 95.6522 476.897 91.4404 479.478 82.6091C482.196 73.642 482.467 61.2783 480.429 45.6537Z" fill="#55142E" fill-opacity="0.3"/>
<path d="M382.689 65.3541L390.026 79.0764C396.14 90.625 403.884 94.8368 407.009 95.9237L408.096 96.3313H377.39C373.993 91.4402 370.869 86.2773 368.015 80.9786L357.554 61.414C352.527 51.4958 346.956 50.6806 344.782 50.6806H343.695L343.424 87.9077C343.424 90.3533 344.239 92.2554 345.733 93.7499C348.994 96.4672 351.168 96.3313 353.478 96.3313H307.963C309.729 96.3313 311.631 96.0596 315.3 94.5651C319.104 93.0706 321.821 88.7229 321.821 82.6089V14.948C321.821 9.92101 319.511 5.98092 316.93 4.35054C312.854 1.49737 308.235 1.08977 307.963 1.22563C311.631 1.22563 318.153 1.08977 327.799 0.682172C337.446 0.274582 344.782 0.138718 349.809 0.274582C367.744 0.682172 377.662 2.44842 383.64 8.83409C387.716 12.9101 389.618 18.6164 389.482 25.8173C389.482 33.0181 387.037 38.9962 382.01 43.4797C376.439 48.3709 370.325 50.273 370.461 50.0013C370.733 50.0013 371.276 50.273 371.955 50.6806C373.586 51.6317 378.341 56.7945 382.689 65.3541ZM355.108 47.284C364.483 44.0232 369.238 36.5506 369.238 24.8662C369.238 7.47544 360.679 0.546309 343.424 1.63323L343.695 49.0502C347.907 49.0502 351.712 48.5068 355.108 47.284Z" fill="#55142E" fill-opacity="0.3"/>
<path d="M288.884 65.3541L296.221 79.0764C302.335 90.625 310.079 94.8368 313.204 95.9237L314.291 96.3313H283.585C280.189 91.4402 277.064 86.2773 274.211 80.9786L263.749 61.414C258.722 51.4958 253.152 50.6806 250.978 50.6806H249.891L249.619 87.9077C249.619 90.3533 250.434 92.2554 251.929 93.7499C255.19 96.4672 257.363 96.3313 259.673 96.3313H214.158C215.924 96.3313 217.827 96.0596 221.495 94.5651C225.299 93.0706 228.016 88.7229 228.016 82.6089V14.948C228.016 9.92101 225.707 5.98092 223.125 4.35054C219.049 1.49737 214.43 1.08977 214.158 1.22563C217.827 1.22563 224.348 1.08977 233.995 0.682172C243.641 0.274582 250.978 0.138718 256.005 0.274582C273.939 0.682172 283.857 2.44842 289.835 8.83409C293.911 12.9101 295.813 18.6164 295.677 25.8173C295.677 33.0181 293.232 38.9962 288.205 43.4797C282.634 48.3709 276.52 50.273 276.656 50.0013C276.928 50.0013 277.471 50.273 278.151 50.6806C279.781 51.6317 284.536 56.7945 288.884 65.3541ZM261.303 47.284C270.678 44.0232 275.433 36.5506 275.433 24.8662C275.433 7.47544 266.874 0.546309 249.619 1.63323L249.891 49.0502C254.103 49.0502 257.907 48.5068 261.303 47.284Z" fill="#55142E" fill-opacity="0.3"/>
<path d="M159.277 0.00299782C174.901 0.00299782 187.265 6.11694 194.194 15.4916C201.259 24.8664 204.656 36.4149 204.52 48.9145C204.112 73.642 187.944 97.9619 155.065 97.5543C139.44 97.4184 126.533 90.4893 119.332 80.707C112.131 70.9247 108.327 59.2403 108.735 47.8276C108.871 33.5617 113.762 22.0132 123.136 13.1819C132.647 4.35069 144.739 -0.132866 159.277 0.00299782ZM179.113 45.6537C177.483 33.0183 173.814 22.4208 168.244 13.5895C162.673 4.75828 156.016 1.08992 148.543 2.31271C142.429 3.26376 138.082 8.01905 135.228 16.3068C132.511 24.5946 131.968 35.0562 133.734 47.8276C135.5 60.4631 139.169 71.3323 144.467 80.4353C149.902 89.5382 156.152 94.4294 163.353 94.9729C170.553 95.6522 175.58 91.4404 178.162 82.6091C180.879 73.642 181.151 61.2783 179.113 45.6537Z" fill="#55142E" fill-opacity="0.3"/>
<path d="M55.7048 56.6596H97.0078C97.0078 56.6596 87.0897 57.0672 87.0897 70.1103V98.7778C86.1386 95.9247 84.2365 92.9356 81.2474 89.6749C78.3943 86.4141 76.2204 84.6479 74.9976 84.3761C66.4381 93.7508 56.52 98.5061 45.5149 98.5061C31.6566 98.5061 20.6515 93.7508 12.3637 84.2403C4.07596 74.5938 0 62.6377 0 48.236C0 33.5625 5.43461 21.6063 13.0431 14.5413C16.9832 11.0089 21.3309 8.15568 26.3579 5.84598C36.5478 1.36241 45.9225 0.00376162 55.5689 0.41136C67.525 0.954823 77.1715 3.26453 84.3723 7.47635V36.0081C82.3344 31.5245 79.3453 26.4975 75.4052 21.1987C71.4651 15.9 67.1175 11.5523 62.3622 8.29155C54.2102 2.44934 46.0583 1.09068 37.9064 4.21559C31.5207 6.5253 27.0372 11.6882 24.3199 19.7042C21.7384 27.7203 21.195 37.3667 22.6895 48.6435C24.4558 61.8225 28.3958 72.42 34.7815 80.5719C41.1672 88.7238 47.9604 92.9356 55.0254 93.3432C58.4221 93.4791 61.1394 92.7998 63.4491 91.577C65.4871 90.3542 67.1175 88.5879 68.2044 87.0934C69.2913 85.463 69.9706 82.7457 70.3782 81.2512C70.7858 79.6208 70.9217 76.6318 70.9217 75.5449V70.7896V70.1103C70.9217 59.7845 61.1394 57.2031 57.3352 56.7955L55.7048 56.6596Z" fill="#55142E" fill-opacity="0.3"/>
<path d="M1477.86 146.226H1508.02C1500 147.992 1493.34 153.698 1487.91 163.073L1473.1 189.974C1471.33 193.371 1470.38 198.262 1470.38 204.919V226.25C1470.38 232.364 1472.96 237.119 1476.36 238.886C1480.03 240.652 1481.93 241.195 1483.97 241.331H1435.47C1437.23 241.331 1439.54 240.788 1442.8 239.022C1446.2 237.255 1448.78 232.772 1448.78 226.794L1448.92 208.724C1448.92 202.066 1447.56 196.496 1444.98 192.284L1426.09 161.307C1419.57 150.845 1411.42 146.226 1407.21 146.226L1455.57 146.361C1447.83 146.497 1443.75 153.698 1447.96 161.443L1463.45 187.936C1466.58 193.507 1469.7 193.235 1472.96 187.121L1486.14 163.48C1491.17 154.378 1488.18 147.448 1477.86 146.226Z" fill="#55142E" fill-opacity="0.3"/>
<path d="M1393.94 163.616V223.669C1393.94 231.141 1397.07 236.44 1401.01 238.614C1404.95 240.652 1407.53 241.331 1409.16 241.331H1355.76C1357.39 241.331 1359.97 240.652 1363.91 238.614C1367.85 236.44 1370.98 231.141 1370.98 223.669V177.203C1370.98 170.41 1370.57 166.877 1369.76 166.741C1368.53 166.605 1367.45 168.1 1365.27 173.67L1336.2 245L1296.8 172.991C1292.86 165.247 1290.68 164.296 1290.41 170.138V171.768L1290.14 218.778C1290.14 227.337 1293.81 233.723 1297.61 236.576C1299.51 237.935 1301.69 239.022 1304.27 239.837C1309.3 241.467 1310.79 241.331 1312.01 241.331H1266.91C1268.13 241.331 1269.76 241.467 1274.51 239.837C1281.31 237.663 1287.97 231.957 1288.37 218.506V168.236C1288.37 150.981 1274.11 147.041 1270.71 146.361L1270.17 146.226H1307.8L1338.51 202.202C1341.63 207.773 1343.4 210.897 1344.08 211.441C1345.3 212.664 1346.8 211.713 1348.29 208.588C1348.83 207.637 1349.38 206.278 1350.06 204.648L1374.38 146.226H1409.84C1409.02 146.226 1394.08 147.177 1393.94 163.616Z" fill="#55142E" fill-opacity="0.3"/>
<path d="M1214.6 145.003C1230.23 145.003 1242.59 151.117 1249.52 160.492C1256.59 169.866 1259.98 181.415 1259.85 193.915C1259.44 218.642 1243.27 242.962 1210.39 242.554C1194.77 242.418 1181.86 235.489 1174.66 225.707C1167.46 215.925 1163.66 204.24 1164.06 192.828C1164.2 178.562 1169.09 167.013 1178.46 158.182C1187.98 149.351 1200.07 144.867 1214.6 145.003ZM1234.44 190.654C1232.81 178.018 1229.14 167.421 1223.57 158.59C1218 149.758 1211.34 146.09 1203.87 147.313C1197.76 148.264 1193.41 153.019 1190.56 161.307C1187.84 169.595 1187.3 180.056 1189.06 192.828C1190.83 205.463 1194.5 216.332 1199.8 225.435C1205.23 234.538 1211.48 239.429 1218.68 239.973C1225.88 240.652 1230.91 236.44 1233.49 227.609C1236.21 218.642 1236.48 206.278 1234.44 190.654Z" fill="#55142E" fill-opacity="0.3"/>
<path d="M1136.7 210.354L1144.04 224.076C1150.15 235.625 1157.9 239.837 1161.02 240.924L1162.11 241.331H1131.4C1128.01 236.44 1124.88 231.277 1122.03 225.979L1111.57 206.414C1106.54 196.496 1100.97 195.681 1098.79 195.681H1097.71L1097.44 232.908C1097.44 235.353 1098.25 237.255 1099.75 238.75C1103.01 241.467 1105.18 241.331 1107.49 241.331H1061.97C1063.74 241.331 1065.64 241.06 1069.31 239.565C1073.12 238.071 1075.83 233.723 1075.83 227.609V159.948C1075.83 154.921 1073.52 150.981 1070.94 149.351C1066.87 146.497 1062.25 146.09 1061.97 146.226C1065.64 146.226 1072.16 146.09 1081.81 145.682C1091.46 145.275 1098.79 145.139 1103.82 145.275C1121.76 145.682 1131.67 147.448 1137.65 153.834C1141.73 157.91 1143.63 163.616 1143.49 170.817C1143.49 178.018 1141.05 183.996 1136.02 188.48C1130.45 193.371 1124.34 195.273 1124.47 195.001C1124.74 195.001 1125.29 195.273 1125.97 195.681C1127.6 196.632 1132.35 201.795 1136.7 210.354ZM1109.12 192.284C1118.49 189.023 1123.25 181.551 1123.25 169.866C1123.25 152.475 1114.69 145.546 1097.44 146.633L1097.71 194.05C1101.92 194.05 1105.72 193.507 1109.12 192.284Z" fill="#55142E" fill-opacity="0.3"/>
<path d="M1042.9 210.354L1050.23 224.076C1056.35 235.625 1064.09 239.837 1067.22 240.924L1068.3 241.331H1037.6C1034.2 236.44 1031.08 231.277 1028.22 225.979L1017.76 206.414C1012.73 196.496 1007.16 195.681 1004.99 195.681H1003.9L1003.63 232.908C1003.63 235.353 1004.45 237.255 1005.94 238.75C1009.2 241.467 1011.38 241.331 1013.68 241.331H968.17C969.936 241.331 971.838 241.06 975.507 239.565C979.311 238.071 982.028 233.723 982.028 227.609V159.948C982.028 154.921 979.718 150.981 977.137 149.351C973.061 146.497 968.442 146.09 968.17 146.226C971.838 146.226 978.36 146.09 988.006 145.682C997.653 145.275 1004.99 145.139 1010.02 145.275C1027.95 145.682 1037.87 147.448 1043.85 153.834C1047.92 157.91 1049.82 163.616 1049.69 170.817C1049.69 178.018 1047.24 183.996 1042.22 188.48C1036.65 193.371 1030.53 195.273 1030.67 195.001C1030.94 195.001 1031.48 195.273 1032.16 195.681C1033.79 196.632 1038.55 201.795 1042.9 210.354ZM1015.32 192.284C1024.69 189.023 1029.45 181.551 1029.45 169.866C1029.45 152.475 1020.89 145.546 1003.63 146.633L1003.9 194.05C1008.11 194.05 1011.92 193.507 1015.32 192.284Z" fill="#55142E" fill-opacity="0.3"/>
<path d="M913.288 145.003C928.913 145.003 941.277 151.117 948.206 160.492C955.271 169.866 958.667 181.415 958.532 193.915C958.124 218.642 941.956 242.962 909.077 242.554C893.452 242.418 880.545 235.489 873.344 225.707C866.143 215.925 862.339 204.24 862.746 192.828C862.882 178.562 867.773 167.013 877.148 158.182C886.659 149.351 898.751 144.867 913.288 145.003ZM933.125 190.654C931.494 178.018 927.826 167.421 922.255 158.59C916.685 149.758 910.028 146.09 902.555 147.313C896.441 148.264 892.093 153.019 889.24 161.307C886.523 169.595 885.979 180.056 887.746 192.828C889.512 205.463 893.18 216.332 898.479 225.435C903.914 234.538 910.163 239.429 917.364 239.973C924.565 240.652 929.592 236.44 932.174 227.609C934.891 218.642 935.163 206.278 933.125 190.654Z" fill="#55142E" fill-opacity="0.3"/>
<path d="M809.716 201.66H851.02C851.02 201.66 841.101 202.067 841.101 215.11V243.778C840.15 240.925 838.248 237.936 835.259 234.675C832.406 231.414 830.232 229.648 829.009 229.376C820.45 238.751 810.532 243.506 799.527 243.506C785.668 243.506 774.663 238.751 766.375 229.24C758.088 219.594 754.012 207.638 754.012 193.236C754.012 178.562 759.446 166.606 767.055 159.541C770.995 156.009 775.343 153.156 780.37 150.846C790.559 146.362 799.934 145.004 809.581 145.411C821.537 145.955 831.183 148.265 838.384 152.476V181.008C836.346 176.525 833.357 171.497 829.417 166.199C825.477 160.9 821.129 156.552 816.374 153.292C808.222 147.449 800.07 146.091 791.918 149.216C785.532 151.525 781.049 156.688 778.332 164.704C775.75 172.72 775.207 182.367 776.701 193.644C778.467 206.822 782.408 217.42 788.793 225.572C795.179 233.724 801.972 237.936 809.037 238.343C812.434 238.479 815.151 237.8 817.461 236.577C819.499 235.354 821.129 233.588 822.216 232.093C823.303 230.463 823.982 227.746 824.39 226.251C824.798 224.621 824.933 221.632 824.933 220.545V215.79V215.11C824.933 204.784 815.151 202.203 811.347 201.795L809.716 201.66Z" fill="#55142E" fill-opacity="0.3"/>
<path d="M723.843 291.226H754.005C745.989 292.992 739.332 298.698 733.897 308.073L719.088 334.974C717.322 338.371 716.371 343.262 716.371 349.919V371.25C716.371 377.364 718.952 382.119 722.349 383.886C726.017 385.652 727.919 386.195 729.957 386.331H681.453C683.22 386.331 685.529 385.788 688.79 384.022C692.187 382.255 694.768 377.772 694.768 371.794L694.904 353.724C694.904 347.066 693.545 341.496 690.964 337.284L672.079 306.307C665.557 295.845 657.405 291.226 653.193 291.226L701.561 291.361C693.817 291.497 689.741 298.698 693.953 306.443L709.442 332.936C712.567 338.507 715.691 338.235 718.952 332.121L732.131 308.48C737.158 299.378 734.169 292.448 723.843 291.226Z" fill="#55142E" fill-opacity="0.3"/>
<path d="M639.929 308.616V368.669C639.929 376.141 643.054 381.44 646.994 383.614C650.934 385.652 653.515 386.331 655.145 386.331H601.75C603.381 386.331 605.962 385.652 609.902 383.614C613.842 381.44 616.967 376.141 616.967 368.669V322.203C616.967 315.41 616.56 311.877 615.745 311.741C614.522 311.605 613.435 313.1 611.261 318.67L582.186 390L542.785 317.991C538.845 310.247 536.671 309.296 536.399 315.138V316.768L536.127 363.778C536.127 372.337 539.796 378.723 543.6 381.576C545.502 382.935 547.676 384.022 550.257 384.837C555.284 386.467 556.779 386.331 558.002 386.331H512.895C514.117 386.331 515.748 386.467 520.503 384.837C527.296 382.663 533.954 376.957 534.361 363.506V313.236C534.361 295.981 520.095 292.041 516.699 291.361L516.155 291.226H553.79L584.496 347.202C587.62 352.773 589.387 355.897 590.066 356.441C591.289 357.664 592.783 356.713 594.278 353.588C594.821 352.637 595.365 351.278 596.044 349.648L620.364 291.226H655.825C655.01 291.226 640.064 292.177 639.929 308.616Z" fill="#55142E" fill-opacity="0.3"/>
<path d="M460.593 290.003C476.218 290.003 488.581 296.117 495.51 305.492C502.575 314.866 505.972 326.415 505.836 338.915C505.429 363.642 489.261 387.962 456.381 387.554C440.757 387.418 427.85 380.489 420.649 370.707C413.448 360.925 409.644 349.24 410.051 337.828C410.187 323.562 415.078 312.013 424.453 303.182C433.963 294.351 446.055 289.867 460.593 290.003ZM480.429 335.654C478.799 323.018 475.131 312.421 469.56 303.59C463.99 294.758 457.332 291.09 449.86 292.313C443.746 293.264 439.398 298.019 436.545 306.307C433.828 314.595 433.284 325.056 435.05 337.828C436.817 350.463 440.485 361.332 445.784 370.435C451.218 379.538 457.468 384.429 464.669 384.973C471.87 385.652 476.897 381.44 479.478 372.609C482.196 363.642 482.467 351.278 480.429 335.654Z" fill="#55142E" fill-opacity="0.3"/>
<path d="M382.689 355.354L390.026 369.076C396.14 380.625 403.884 384.837 407.009 385.924L408.096 386.331H377.39C373.993 381.44 370.869 376.277 368.015 370.979L357.554 351.414C352.527 341.496 346.956 340.681 344.782 340.681H343.695L343.424 377.908C343.424 380.353 344.239 382.255 345.733 383.75C348.994 386.467 351.168 386.331 353.478 386.331H307.963C309.729 386.331 311.631 386.06 315.3 384.565C319.104 383.071 321.821 378.723 321.821 372.609V304.948C321.821 299.921 319.511 295.981 316.93 294.351C312.854 291.497 308.235 291.09 307.963 291.226C311.631 291.226 318.153 291.09 327.799 290.682C337.446 290.275 344.782 290.139 349.809 290.275C367.744 290.682 377.662 292.448 383.64 298.834C387.716 302.91 389.618 308.616 389.482 315.817C389.482 323.018 387.037 328.996 382.01 333.48C376.439 338.371 370.325 340.273 370.461 340.001C370.733 340.001 371.276 340.273 371.955 340.681C373.586 341.632 378.341 346.795 382.689 355.354ZM355.108 337.284C364.483 334.023 369.238 326.551 369.238 314.866C369.238 297.475 360.679 290.546 343.424 291.633L343.695 339.05C347.907 339.05 351.712 338.507 355.108 337.284Z" fill="#55142E" fill-opacity="0.3"/>
<path d="M288.884 355.354L296.221 369.076C302.335 380.625 310.079 384.837 313.204 385.924L314.291 386.331H283.585C280.189 381.44 277.064 376.277 274.211 370.979L263.749 351.414C258.722 341.496 253.152 340.681 250.978 340.681H249.891L249.619 377.908C249.619 380.353 250.434 382.255 251.929 383.75C255.19 386.467 257.363 386.331 259.673 386.331H214.158C215.924 386.331 217.827 386.06 221.495 384.565C225.299 383.071 228.016 378.723 228.016 372.609V304.948C228.016 299.921 225.707 295.981 223.125 294.351C219.049 291.497 214.43 291.09 214.158 291.226C217.827 291.226 224.348 291.09 233.995 290.682C243.641 290.275 250.978 290.139 256.005 290.275C273.939 290.682 283.857 292.448 289.835 298.834C293.911 302.91 295.813 308.616 295.677 315.817C295.677 323.018 293.232 328.996 288.205 333.48C282.634 338.371 276.52 340.273 276.656 340.001C276.928 340.001 277.471 340.273 278.151 340.681C279.781 341.632 284.536 346.795 288.884 355.354ZM261.303 337.284C270.678 334.023 275.433 326.551 275.433 314.866C275.433 297.475 266.874 290.546 249.619 291.633L249.891 339.05C254.103 339.05 257.907 338.507 261.303 337.284Z" fill="#55142E" fill-opacity="0.3"/>
<path d="M159.277 290.003C174.901 290.003 187.265 296.117 194.194 305.492C201.259 314.866 204.656 326.415 204.52 338.915C204.112 363.642 187.944 387.962 155.065 387.554C139.44 387.418 126.533 380.489 119.332 370.707C112.131 360.925 108.327 349.24 108.735 337.828C108.871 323.562 113.762 312.013 123.136 303.182C132.647 294.351 144.739 289.867 159.277 290.003ZM179.113 335.654C177.483 323.018 173.814 312.421 168.244 303.59C162.673 294.758 156.016 291.09 148.543 292.313C142.429 293.264 138.082 298.019 135.228 306.307C132.511 314.595 131.968 325.056 133.734 337.828C135.5 350.463 139.169 361.332 144.467 370.435C149.902 379.538 156.152 384.429 163.353 384.973C170.553 385.652 175.58 381.44 178.162 372.609C180.879 363.642 181.151 351.278 179.113 335.654Z" fill="#55142E" fill-opacity="0.3"/>
<path d="M55.7048 346.66H97.0078C97.0078 346.66 87.0897 347.067 87.0897 360.11V388.778C86.1386 385.925 84.2365 382.936 81.2474 379.675C78.3943 376.414 76.2204 374.648 74.9976 374.376C66.4381 383.751 56.52 388.506 45.5149 388.506C31.6566 388.506 20.6515 383.751 12.3637 374.24C4.07596 364.594 0 352.638 0 338.236C0 323.562 5.43461 311.606 13.0431 304.541C16.9832 301.009 21.3309 298.156 26.3579 295.846C36.5478 291.362 45.9225 290.004 55.5689 290.411C67.525 290.955 77.1715 293.265 84.3723 297.476V326.008C82.3344 321.525 79.3453 316.497 75.4052 311.199C71.4651 305.9 67.1175 301.552 62.3622 298.292C54.2102 292.449 46.0583 291.091 37.9064 294.216C31.5207 296.525 27.0372 301.688 24.3199 309.704C21.7384 317.72 21.195 327.367 22.6895 338.644C24.4558 351.822 28.3958 362.42 34.7815 370.572C41.1672 378.724 47.9604 382.936 55.0254 383.343C58.4221 383.479 61.1394 382.8 63.4491 381.577C65.4871 380.354 67.1175 378.588 68.2044 377.093C69.2913 375.463 69.9706 372.746 70.3782 371.251C70.7858 369.621 70.9217 366.632 70.9217 365.545V360.79V360.11C70.9217 349.784 61.1394 347.203 57.3352 346.795L55.7048 346.66Z" fill="#55142E" fill-opacity="0.3"/>
<path d="M1477.86 436.226H1508.02C1500 437.992 1493.34 443.698 1487.91 453.073L1473.1 479.974C1471.33 483.371 1470.38 488.262 1470.38 494.919V516.25C1470.38 522.364 1472.96 527.119 1476.36 528.886C1480.03 530.652 1481.93 531.195 1483.97 531.331H1435.47C1437.23 531.331 1439.54 530.788 1442.8 529.022C1446.2 527.255 1448.78 522.772 1448.78 516.794L1448.92 498.724C1448.92 492.066 1447.56 486.496 1444.98 482.284L1426.09 451.307C1419.57 440.845 1411.42 436.226 1407.21 436.226L1455.57 436.361C1447.83 436.497 1443.75 443.698 1447.96 451.443L1463.45 477.936C1466.58 483.507 1469.7 483.235 1472.96 477.121L1486.14 453.48C1491.17 444.378 1488.18 437.448 1477.86 436.226Z" fill="#55142E" fill-opacity="0.3"/>
<path d="M1393.94 453.616V513.669C1393.94 521.141 1397.07 526.44 1401.01 528.614C1404.95 530.652 1407.53 531.331 1409.16 531.331H1355.76C1357.39 531.331 1359.97 530.652 1363.91 528.614C1367.85 526.44 1370.98 521.141 1370.98 513.669V467.203C1370.98 460.41 1370.57 456.877 1369.76 456.741C1368.53 456.605 1367.45 458.1 1365.27 463.67L1336.2 535L1296.8 462.991C1292.86 455.247 1290.68 454.296 1290.41 460.138V461.768L1290.14 508.778C1290.14 517.337 1293.81 523.723 1297.61 526.576C1299.51 527.935 1301.69 529.022 1304.27 529.837C1309.3 531.467 1310.79 531.331 1312.01 531.331H1266.91C1268.13 531.331 1269.76 531.467 1274.51 529.837C1281.31 527.663 1287.97 521.957 1288.37 508.506V458.236C1288.37 440.981 1274.11 437.041 1270.71 436.361L1270.17 436.226H1307.8L1338.51 492.202C1341.63 497.773 1343.4 500.897 1344.08 501.441C1345.3 502.664 1346.8 501.713 1348.29 498.588C1348.83 497.637 1349.38 496.278 1350.06 494.648L1374.38 436.226H1409.84C1409.02 436.226 1394.08 437.177 1393.94 453.616Z" fill="#55142E" fill-opacity="0.3"/>
<path d="M1214.6 435.003C1230.23 435.003 1242.59 441.117 1249.52 450.492C1256.59 459.866 1259.98 471.415 1259.85 483.915C1259.44 508.642 1243.27 532.962 1210.39 532.554C1194.77 532.418 1181.86 525.489 1174.66 515.707C1167.46 505.925 1163.66 494.24 1164.06 482.828C1164.2 468.562 1169.09 457.013 1178.46 448.182C1187.98 439.351 1200.07 434.867 1214.6 435.003ZM1234.44 480.654C1232.81 468.018 1229.14 457.421 1223.57 448.59C1218 439.758 1211.34 436.09 1203.87 437.313C1197.76 438.264 1193.41 443.019 1190.56 451.307C1187.84 459.595 1187.3 470.056 1189.06 482.828C1190.83 495.463 1194.5 506.332 1199.8 515.435C1205.23 524.538 1211.48 529.429 1218.68 529.973C1225.88 530.652 1230.91 526.44 1233.49 517.609C1236.21 508.642 1236.48 496.278 1234.44 480.654Z" fill="#55142E" fill-opacity="0.3"/>
<path d="M1136.7 500.354L1144.04 514.076C1150.15 525.625 1157.9 529.837 1161.02 530.924L1162.11 531.331H1131.4C1128.01 526.44 1124.88 521.277 1122.03 515.979L1111.57 496.414C1106.54 486.496 1100.97 485.681 1098.79 485.681H1097.71L1097.44 522.908C1097.44 525.353 1098.25 527.255 1099.75 528.75C1103.01 531.467 1105.18 531.331 1107.49 531.331H1061.97C1063.74 531.331 1065.64 531.06 1069.31 529.565C1073.12 528.071 1075.83 523.723 1075.83 517.609V449.948C1075.83 444.921 1073.52 440.981 1070.94 439.351C1066.87 436.497 1062.25 436.09 1061.97 436.226C1065.64 436.226 1072.16 436.09 1081.81 435.682C1091.46 435.275 1098.79 435.139 1103.82 435.275C1121.76 435.682 1131.67 437.448 1137.65 443.834C1141.73 447.91 1143.63 453.616 1143.49 460.817C1143.49 468.018 1141.05 473.996 1136.02 478.48C1130.45 483.371 1124.34 485.273 1124.47 485.001C1124.74 485.001 1125.29 485.273 1125.97 485.681C1127.6 486.632 1132.35 491.795 1136.7 500.354ZM1109.12 482.284C1118.49 479.023 1123.25 471.551 1123.25 459.866C1123.25 442.475 1114.69 435.546 1097.44 436.633L1097.71 484.05C1101.92 484.05 1105.72 483.507 1109.12 482.284Z" fill="#55142E" fill-opacity="0.3"/>
<path d="M1042.9 500.354L1050.23 514.076C1056.35 525.625 1064.09 529.837 1067.22 530.924L1068.3 531.331H1037.6C1034.2 526.44 1031.08 521.277 1028.22 515.979L1017.76 496.414C1012.73 486.496 1007.16 485.681 1004.99 485.681H1003.9L1003.63 522.908C1003.63 525.353 1004.45 527.255 1005.94 528.75C1009.2 531.467 1011.38 531.331 1013.68 531.331H968.17C969.936 531.331 971.838 531.06 975.507 529.565C979.311 528.071 982.028 523.723 982.028 517.609V449.948C982.028 444.921 979.718 440.981 977.137 439.351C973.061 436.497 968.442 436.09 968.17 436.226C971.838 436.226 978.36 436.09 988.006 435.682C997.653 435.275 1004.99 435.139 1010.02 435.275C1027.95 435.682 1037.87 437.448 1043.85 443.834C1047.92 447.91 1049.82 453.616 1049.69 460.817C1049.69 468.018 1047.24 473.996 1042.22 478.48C1036.65 483.371 1030.53 485.273 1030.67 485.001C1030.94 485.001 1031.48 485.273 1032.16 485.681C1033.79 486.632 1038.55 491.795 1042.9 500.354ZM1015.32 482.284C1024.69 479.023 1029.45 471.551 1029.45 459.866C1029.45 442.475 1020.89 435.546 1003.63 436.633L1003.9 484.05C1008.11 484.05 1011.92 483.507 1015.32 482.284Z" fill="#55142E" fill-opacity="0.3"/>
<path d="M913.288 435.003C928.913 435.003 941.277 441.117 948.206 450.492C955.271 459.866 958.667 471.415 958.532 483.915C958.124 508.642 941.956 532.962 909.077 532.554C893.452 532.418 880.545 525.489 873.344 515.707C866.143 505.925 862.339 494.24 862.746 482.828C862.882 468.562 867.773 457.013 877.148 448.182C886.659 439.351 898.751 434.867 913.288 435.003ZM933.125 480.654C931.494 468.018 927.826 457.421 922.255 448.59C916.685 439.758 910.028 436.09 902.555 437.313C896.441 438.264 892.093 443.019 889.24 451.307C886.523 459.595 885.979 470.056 887.746 482.828C889.512 495.463 893.18 506.332 898.479 515.435C903.914 524.538 910.163 529.429 917.364 529.973C924.565 530.652 929.592 526.44 932.174 517.609C934.891 508.642 935.163 496.278 933.125 480.654Z" fill="#55142E" fill-opacity="0.3"/>
<path d="M809.716 491.66H851.02C851.02 491.66 841.101 492.067 841.101 505.11V533.778C840.15 530.925 838.248 527.936 835.259 524.675C832.406 521.414 830.232 519.648 829.009 519.376C820.45 528.751 810.532 533.506 799.527 533.506C785.668 533.506 774.663 528.751 766.375 519.24C758.088 509.594 754.012 497.638 754.012 483.236C754.012 468.562 759.446 456.606 767.055 449.541C770.995 446.009 775.343 443.156 780.37 440.846C790.559 436.362 799.934 435.004 809.581 435.411C821.537 435.955 831.183 438.265 838.384 442.476V471.008C836.346 466.525 833.357 461.497 829.417 456.199C825.477 450.9 821.129 446.552 816.374 443.292C808.222 437.449 800.07 436.091 791.918 439.216C785.532 441.525 781.049 446.688 778.332 454.704C775.75 462.72 775.207 472.367 776.701 483.644C778.467 496.822 782.408 507.42 788.793 515.572C795.179 523.724 801.972 527.936 809.037 528.343C812.434 528.479 815.151 527.8 817.461 526.577C819.499 525.354 821.129 523.588 822.216 522.093C823.303 520.463 823.982 517.746 824.39 516.251C824.798 514.621 824.933 511.632 824.933 510.545V505.79V505.11C824.933 494.784 815.151 492.203 811.347 491.795L809.716 491.66Z" fill="#55142E" fill-opacity="0.3"/>
<path d="M723.843 581.226H754.005C745.989 582.992 739.332 588.698 733.897 598.073L719.088 624.974C717.322 628.371 716.371 633.262 716.371 639.919V661.25C716.371 667.364 718.952 672.119 722.349 673.886C726.017 675.652 727.919 676.195 729.957 676.331H681.453C683.22 676.331 685.529 675.788 688.79 674.022C692.187 672.255 694.768 667.772 694.768 661.794L694.904 643.724C694.904 637.066 693.545 631.496 690.964 627.284L672.079 596.307C665.557 585.845 657.405 581.226 653.193 581.226L701.561 581.361C693.817 581.497 689.741 588.698 693.953 596.443L709.442 622.936C712.567 628.507 715.691 628.235 718.952 622.121L732.131 598.48C737.158 589.378 734.169 582.448 723.843 581.226Z" fill="#55142E" fill-opacity="0.3"/>
<path d="M639.929 598.616V658.669C639.929 666.141 643.054 671.44 646.994 673.614C650.934 675.652 653.515 676.331 655.145 676.331H601.75C603.381 676.331 605.962 675.652 609.902 673.614C613.842 671.44 616.967 666.141 616.967 658.669V612.203C616.967 605.41 616.56 601.877 615.745 601.741C614.522 601.605 613.435 603.1 611.261 608.67L582.186 680L542.785 607.991C538.845 600.247 536.671 599.296 536.399 605.138V606.768L536.127 653.778C536.127 662.337 539.796 668.723 543.6 671.576C545.502 672.935 547.676 674.022 550.257 674.837C555.284 676.467 556.779 676.331 558.002 676.331H512.895C514.117 676.331 515.748 676.467 520.503 674.837C527.296 672.663 533.954 666.957 534.361 653.506V603.236C534.361 585.981 520.095 582.041 516.699 581.361L516.155 581.226H553.79L584.496 637.202C587.62 642.773 589.387 645.897 590.066 646.441C591.289 647.664 592.783 646.713 594.278 643.588C594.821 642.637 595.365 641.278 596.044 639.648L620.364 581.226H655.825C655.01 581.226 640.064 582.177 639.929 598.616Z" fill="#55142E" fill-opacity="0.3"/>
<path d="M460.593 580.003C476.218 580.003 488.581 586.117 495.51 595.492C502.575 604.866 505.972 616.415 505.836 628.915C505.429 653.642 489.261 677.962 456.381 677.554C440.757 677.418 427.85 670.489 420.649 660.707C413.448 650.925 409.644 639.24 410.051 627.828C410.187 613.562 415.078 602.013 424.453 593.182C433.963 584.351 446.055 579.867 460.593 580.003ZM480.429 625.654C478.799 613.018 475.131 602.421 469.56 593.59C463.99 584.758 457.332 581.09 449.86 582.313C443.746 583.264 439.398 588.019 436.545 596.307C433.828 604.595 433.284 615.056 435.05 627.828C436.817 640.463 440.485 651.332 445.784 660.435C451.218 669.538 457.468 674.429 464.669 674.973C471.87 675.652 476.897 671.44 479.478 662.609C482.196 653.642 482.467 641.278 480.429 625.654Z" fill="#55142E" fill-opacity="0.3"/>
<path d="M382.689 645.354L390.026 659.076C396.14 670.625 403.884 674.837 407.009 675.924L408.096 676.331H377.39C373.993 671.44 370.869 666.277 368.015 660.979L357.554 641.414C352.527 631.496 346.956 630.681 344.782 630.681H343.695L343.424 667.908C343.424 670.353 344.239 672.255 345.733 673.75C348.994 676.467 351.168 676.331 353.478 676.331H307.963C309.729 676.331 311.631 676.06 315.3 674.565C319.104 673.071 321.821 668.723 321.821 662.609V594.948C321.821 589.921 319.511 585.981 316.93 584.351C312.854 581.497 308.235 581.09 307.963 581.226C311.631 581.226 318.153 581.09 327.799 580.682C337.446 580.275 344.782 580.139 349.809 580.275C367.744 580.682 377.662 582.448 383.64 588.834C387.716 592.91 389.618 598.616 389.482 605.817C389.482 613.018 387.037 618.996 382.01 623.48C376.439 628.371 370.325 630.273 370.461 630.001C370.733 630.001 371.276 630.273 371.955 630.681C373.586 631.632 378.341 636.795 382.689 645.354ZM355.108 627.284C364.483 624.023 369.238 616.551 369.238 604.866C369.238 587.475 360.679 580.546 343.424 581.633L343.695 629.05C347.907 629.05 351.712 628.507 355.108 627.284Z" fill="#55142E" fill-opacity="0.3"/>
<path d="M288.884 645.354L296.221 659.076C302.335 670.625 310.079 674.837 313.204 675.924L314.291 676.331H283.585C280.189 671.44 277.064 666.277 274.211 660.979L263.749 641.414C258.722 631.496 253.152 630.681 250.978 630.681H249.891L249.619 667.908C249.619 670.353 250.434 672.255 251.929 673.75C255.19 676.467 257.363 676.331 259.673 676.331H214.158C215.924 676.331 217.827 676.06 221.495 674.565C225.299 673.071 228.016 668.723 228.016 662.609V594.948C228.016 589.921 225.707 585.981 223.125 584.351C219.049 581.497 214.43 581.09 214.158 581.226C217.827 581.226 224.348 581.09 233.995 580.682C243.641 580.275 250.978 580.139 256.005 580.275C273.939 580.682 283.857 582.448 289.835 588.834C293.911 592.91 295.813 598.616 295.677 605.817C295.677 613.018 293.232 618.996 288.205 623.48C282.634 628.371 276.52 630.273 276.656 630.001C276.928 630.001 277.471 630.273 278.151 630.681C279.781 631.632 284.536 636.795 288.884 645.354ZM261.303 627.284C270.678 624.023 275.433 616.551 275.433 604.866C275.433 587.475 266.874 580.546 249.619 581.633L249.891 629.05C254.103 629.05 257.907 628.507 261.303 627.284Z" fill="#55142E" fill-opacity="0.3"/>
<path d="M159.277 580.003C174.901 580.003 187.265 586.117 194.194 595.492C201.259 604.866 204.656 616.415 204.52 628.915C204.112 653.642 187.944 677.962 155.065 677.554C139.44 677.418 126.533 670.489 119.332 660.707C112.131 650.925 108.327 639.24 108.735 627.828C108.871 613.562 113.762 602.013 123.136 593.182C132.647 584.351 144.739 579.867 159.277 580.003ZM179.113 625.654C177.483 613.018 173.814 602.421 168.244 593.59C162.673 584.758 156.016 581.09 148.543 582.313C142.429 583.264 138.082 588.019 135.228 596.307C132.511 604.595 131.968 615.056 133.734 627.828C135.5 640.463 139.169 651.332 144.467 660.435C149.902 669.538 156.152 674.429 163.353 674.973C170.553 675.652 175.58 671.44 178.162 662.609C180.879 653.642 181.151 641.278 179.113 625.654Z" fill="#55142E" fill-opacity="0.3"/>
<path d="M55.7048 636.66H97.0078C97.0078 636.66 87.0897 637.067 87.0897 650.11V678.778C86.1386 675.925 84.2365 672.936 81.2474 669.675C78.3943 666.414 76.2204 664.648 74.9976 664.376C66.4381 673.751 56.52 678.506 45.5149 678.506C31.6566 678.506 20.6515 673.751 12.3637 664.24C4.07596 654.594 0 642.638 0 628.236C0 613.562 5.43461 601.606 13.0431 594.541C16.9832 591.009 21.3309 588.156 26.3579 585.846C36.5478 581.362 45.9225 580.004 55.5689 580.411C67.525 580.955 77.1715 583.265 84.3723 587.476V616.008C82.3344 611.525 79.3453 606.497 75.4052 601.199C71.4651 595.9 67.1175 591.552 62.3622 588.292C54.2102 582.449 46.0583 581.091 37.9064 584.216C31.5207 586.525 27.0372 591.688 24.3199 599.704C21.7384 607.72 21.195 617.367 22.6895 628.644C24.4558 641.822 28.3958 652.42 34.7815 660.572C41.1672 668.724 47.9604 672.936 55.0254 673.343C58.4221 673.479 61.1394 672.8 63.4491 671.577C65.4871 670.354 67.1175 668.588 68.2044 667.093C69.2913 665.463 69.9706 662.746 70.3782 661.251C70.7858 659.621 70.9217 656.632 70.9217 655.545V650.79V650.11C70.9217 639.784 61.1394 637.203 57.3352 636.795L55.7048 636.66Z" fill="#55142E" fill-opacity="0.3"/>
<path d="M1477.86 726.226H1508.02C1500 727.992 1493.34 733.698 1487.91 743.073L1473.1 769.974C1471.33 773.371 1470.38 778.262 1470.38 784.919V806.25C1470.38 812.364 1472.96 817.119 1476.36 818.886C1480.03 820.652 1481.93 821.195 1483.97 821.331H1435.47C1437.23 821.331 1439.54 820.788 1442.8 819.022C1446.2 817.255 1448.78 812.772 1448.78 806.794L1448.92 788.724C1448.92 782.066 1447.56 776.496 1444.98 772.284L1426.09 741.307C1419.57 730.845 1411.42 726.226 1407.21 726.226L1455.57 726.361C1447.83 726.497 1443.75 733.698 1447.96 741.443L1463.45 767.936C1466.58 773.507 1469.7 773.235 1472.96 767.121L1486.14 743.48C1491.17 734.378 1488.18 727.448 1477.86 726.226Z" fill="#55142E" fill-opacity="0.3"/>
<path d="M1393.94 743.616V803.669C1393.94 811.141 1397.07 816.44 1401.01 818.614C1404.95 820.652 1407.53 821.331 1409.16 821.331H1355.76C1357.39 821.331 1359.97 820.652 1363.91 818.614C1367.85 816.44 1370.98 811.141 1370.98 803.669V757.203C1370.98 750.41 1370.57 746.877 1369.76 746.741C1368.53 746.605 1367.45 748.1 1365.27 753.67L1336.2 825L1296.8 752.991C1292.86 745.247 1290.68 744.296 1290.41 750.138V751.768L1290.14 798.778C1290.14 807.337 1293.81 813.723 1297.61 816.576C1299.51 817.935 1301.69 819.022 1304.27 819.837C1309.3 821.467 1310.79 821.331 1312.01 821.331H1266.91C1268.13 821.331 1269.76 821.467 1274.51 819.837C1281.31 817.663 1287.97 811.957 1288.37 798.506V748.236C1288.37 730.981 1274.11 727.041 1270.71 726.361L1270.17 726.226H1307.8L1338.51 782.202C1341.63 787.773 1343.4 790.897 1344.08 791.441C1345.3 792.664 1346.8 791.713 1348.29 788.588C1348.83 787.637 1349.38 786.278 1350.06 784.648L1374.38 726.226H1409.84C1409.02 726.226 1394.08 727.177 1393.94 743.616Z" fill="#55142E" fill-opacity="0.3"/>
<path d="M1214.6 725.003C1230.23 725.003 1242.59 731.117 1249.52 740.492C1256.59 749.866 1259.98 761.415 1259.85 773.915C1259.44 798.642 1243.27 822.962 1210.39 822.554C1194.77 822.418 1181.86 815.489 1174.66 805.707C1167.46 795.925 1163.66 784.24 1164.06 772.828C1164.2 758.562 1169.09 747.013 1178.46 738.182C1187.98 729.351 1200.07 724.867 1214.6 725.003ZM1234.44 770.654C1232.81 758.018 1229.14 747.421 1223.57 738.59C1218 729.758 1211.34 726.09 1203.87 727.313C1197.76 728.264 1193.41 733.019 1190.56 741.307C1187.84 749.595 1187.3 760.056 1189.06 772.828C1190.83 785.463 1194.5 796.332 1199.8 805.435C1205.23 814.538 1211.48 819.429 1218.68 819.973C1225.88 820.652 1230.91 816.44 1233.49 807.609C1236.21 798.642 1236.48 786.278 1234.44 770.654Z" fill="#55142E" fill-opacity="0.3"/>
<path d="M1136.7 790.354L1144.04 804.076C1150.15 815.625 1157.9 819.837 1161.02 820.924L1162.11 821.331H1131.4C1128.01 816.44 1124.88 811.277 1122.03 805.979L1111.57 786.414C1106.54 776.496 1100.97 775.681 1098.79 775.681H1097.71L1097.44 812.908C1097.44 815.353 1098.25 817.255 1099.75 818.75C1103.01 821.467 1105.18 821.331 1107.49 821.331H1061.97C1063.74 821.331 1065.64 821.06 1069.31 819.565C1073.12 818.071 1075.83 813.723 1075.83 807.609V739.948C1075.83 734.921 1073.52 730.981 1070.94 729.351C1066.87 726.497 1062.25 726.09 1061.97 726.226C1065.64 726.226 1072.16 726.09 1081.81 725.682C1091.46 725.275 1098.79 725.139 1103.82 725.275C1121.76 725.682 1131.67 727.448 1137.65 733.834C1141.73 737.91 1143.63 743.616 1143.49 750.817C1143.49 758.018 1141.05 763.996 1136.02 768.48C1130.45 773.371 1124.34 775.273 1124.47 775.001C1124.74 775.001 1125.29 775.273 1125.97 775.681C1127.6 776.632 1132.35 781.795 1136.7 790.354ZM1109.12 772.284C1118.49 769.023 1123.25 761.551 1123.25 749.866C1123.25 732.475 1114.69 725.546 1097.44 726.633L1097.71 774.05C1101.92 774.05 1105.72 773.507 1109.12 772.284Z" fill="#55142E" fill-opacity="0.3"/>
<path d="M1042.9 790.354L1050.23 804.076C1056.35 815.625 1064.09 819.837 1067.22 820.924L1068.3 821.331H1037.6C1034.2 816.44 1031.08 811.277 1028.22 805.979L1017.76 786.414C1012.73 776.496 1007.16 775.681 1004.99 775.681H1003.9L1003.63 812.908C1003.63 815.353 1004.45 817.255 1005.94 818.75C1009.2 821.467 1011.38 821.331 1013.68 821.331H968.17C969.936 821.331 971.838 821.06 975.507 819.565C979.311 818.071 982.028 813.723 982.028 807.609V739.948C982.028 734.921 979.718 730.981 977.137 729.351C973.061 726.497 968.442 726.09 968.17 726.226C971.838 726.226 978.36 726.09 988.006 725.682C997.653 725.275 1004.99 725.139 1010.02 725.275C1027.95 725.682 1037.87 727.448 1043.85 733.834C1047.92 737.91 1049.82 743.616 1049.69 750.817C1049.69 758.018 1047.24 763.996 1042.22 768.48C1036.65 773.371 1030.53 775.273 1030.67 775.001C1030.94 775.001 1031.48 775.273 1032.16 775.681C1033.79 776.632 1038.55 781.795 1042.9 790.354ZM1015.32 772.284C1024.69 769.023 1029.45 761.551 1029.45 749.866C1029.45 732.475 1020.89 725.546 1003.63 726.633L1003.9 774.05C1008.11 774.05 1011.92 773.507 1015.32 772.284Z" fill="#55142E" fill-opacity="0.3"/>
<path d="M913.288 725.003C928.913 725.003 941.277 731.117 948.206 740.492C955.271 749.866 958.667 761.415 958.532 773.915C958.124 798.642 941.956 822.962 909.077 822.554C893.452 822.418 880.545 815.489 873.344 805.707C866.143 795.925 862.339 784.24 862.746 772.828C862.882 758.562 867.773 747.013 877.148 738.182C886.659 729.351 898.751 724.867 913.288 725.003ZM933.125 770.654C931.494 758.018 927.826 747.421 922.255 738.59C916.685 729.758 910.028 726.09 902.555 727.313C896.441 728.264 892.093 733.019 889.24 741.307C886.523 749.595 885.979 760.056 887.746 772.828C889.512 785.463 893.18 796.332 898.479 805.435C903.914 814.538 910.163 819.429 917.364 819.973C924.565 820.652 929.592 816.44 932.174 807.609C934.891 798.642 935.163 786.278 933.125 770.654Z" fill="#55142E" fill-opacity="0.3"/>
<path d="M809.716 781.66H851.02C851.02 781.66 841.101 782.067 841.101 795.11V823.778C840.15 820.925 838.248 817.936 835.259 814.675C832.406 811.414 830.232 809.648 829.009 809.376C820.45 818.751 810.532 823.506 799.527 823.506C785.668 823.506 774.663 818.751 766.375 809.24C758.088 799.594 754.012 787.638 754.012 773.236C754.012 758.562 759.446 746.606 767.055 739.541C770.995 736.009 775.343 733.156 780.37 730.846C790.559 726.362 799.934 725.004 809.581 725.411C821.537 725.955 831.183 728.265 838.384 732.476V761.008C836.346 756.525 833.357 751.497 829.417 746.199C825.477 740.9 821.129 736.552 816.374 733.292C808.222 727.449 800.07 726.091 791.918 729.216C785.532 731.525 781.049 736.688 778.332 744.704C775.75 752.72 775.207 762.367 776.701 773.644C778.467 786.822 782.408 797.42 788.793 805.572C795.179 813.724 801.972 817.936 809.037 818.343C812.434 818.479 815.151 817.8 817.461 816.577C819.499 815.354 821.129 813.588 822.216 812.093C823.303 810.463 823.982 807.746 824.39 806.251C824.798 804.621 824.933 801.632 824.933 800.545V795.79V795.11C824.933 784.784 815.151 782.203 811.347 781.795L809.716 781.66Z" fill="#55142E" fill-opacity="0.3"/>
<path d="M723.843 871.226H754.005C745.989 872.992 739.332 878.698 733.897 888.073L719.088 914.974C717.322 918.371 716.371 923.262 716.371 929.919V951.25C716.371 957.364 718.952 962.119 722.349 963.886C726.017 965.652 727.919 966.195 729.957 966.331H681.453C683.22 966.331 685.529 965.788 688.79 964.022C692.187 962.255 694.768 957.772 694.768 951.794L694.904 933.724C694.904 927.066 693.545 921.496 690.964 917.284L672.079 886.307C665.557 875.845 657.405 871.226 653.193 871.226L701.561 871.361C693.817 871.497 689.741 878.698 693.953 886.443L709.442 912.936C712.567 918.507 715.691 918.235 718.952 912.121L732.131 888.48C737.158 879.378 734.169 872.448 723.843 871.226Z" fill="#55142E" fill-opacity="0.3"/>
<path d="M639.929 888.616V948.669C639.929 956.141 643.054 961.44 646.994 963.614C650.934 965.652 653.515 966.331 655.145 966.331H601.75C603.381 966.331 605.962 965.652 609.902 963.614C613.842 961.44 616.967 956.141 616.967 948.669V902.203C616.967 895.41 616.56 891.877 615.745 891.741C614.522 891.605 613.435 893.1 611.261 898.67L582.186 970L542.785 897.991C538.845 890.247 536.671 889.296 536.399 895.138V896.768L536.127 943.778C536.127 952.337 539.796 958.723 543.6 961.576C545.502 962.935 547.676 964.022 550.257 964.837C555.284 966.467 556.779 966.331 558.002 966.331H512.895C514.117 966.331 515.748 966.467 520.503 964.837C527.296 962.663 533.954 956.957 534.361 943.506V893.236C534.361 875.981 520.095 872.041 516.699 871.361L516.155 871.226H553.79L584.496 927.202C587.62 932.773 589.387 935.897 590.066 936.441C591.289 937.664 592.783 936.713 594.278 933.588C594.821 932.637 595.365 931.278 596.044 929.648L620.364 871.226H655.825C655.01 871.226 640.064 872.177 639.929 888.616Z" fill="#55142E" fill-opacity="0.3"/>
<path d="M460.593 870.003C476.218 870.003 488.581 876.117 495.51 885.492C502.575 894.866 505.972 906.415 505.836 918.915C505.429 943.642 489.261 967.962 456.381 967.554C440.757 967.418 427.85 960.489 420.649 950.707C413.448 940.925 409.644 929.24 410.051 917.828C410.187 903.562 415.078 892.013 424.453 883.182C433.963 874.351 446.055 869.867 460.593 870.003ZM480.429 915.654C478.799 903.018 475.131 892.421 469.56 883.59C463.99 874.758 457.332 871.09 449.86 872.313C443.746 873.264 439.398 878.019 436.545 886.307C433.828 894.595 433.284 905.056 435.05 917.828C436.817 930.463 440.485 941.332 445.784 950.435C451.218 959.538 457.468 964.429 464.669 964.973C471.87 965.652 476.897 961.44 479.478 952.609C482.196 943.642 482.467 931.278 480.429 915.654Z" fill="#55142E" fill-opacity="0.3"/>
<path d="M382.689 935.354L390.026 949.076C396.14 960.625 403.884 964.837 407.009 965.924L408.096 966.331H377.39C373.993 961.44 370.869 956.277 368.015 950.979L357.554 931.414C352.527 921.496 346.956 920.681 344.782 920.681H343.695L343.424 957.908C343.424 960.353 344.239 962.255 345.733 963.75C348.994 966.467 351.168 966.331 353.478 966.331H307.963C309.729 966.331 311.631 966.06 315.3 964.565C319.104 963.071 321.821 958.723 321.821 952.609V884.948C321.821 879.921 319.511 875.981 316.93 874.351C312.854 871.497 308.235 871.09 307.963 871.226C311.631 871.226 318.153 871.09 327.799 870.682C337.446 870.275 344.782 870.139 349.809 870.275C367.744 870.682 377.662 872.448 383.64 878.834C387.716 882.91 389.618 888.616 389.482 895.817C389.482 903.018 387.037 908.996 382.01 913.48C376.439 918.371 370.325 920.273 370.461 920.001C370.733 920.001 371.276 920.273 371.955 920.681C373.586 921.632 378.341 926.795 382.689 935.354ZM355.108 917.284C364.483 914.023 369.238 906.551 369.238 894.866C369.238 877.475 360.679 870.546 343.424 871.633L343.695 919.05C347.907 919.05 351.712 918.507 355.108 917.284Z" fill="#55142E" fill-opacity="0.3"/>
<path d="M288.884 935.354L296.221 949.076C302.335 960.625 310.079 964.837 313.204 965.924L314.291 966.331H283.585C280.189 961.44 277.064 956.277 274.211 950.979L263.749 931.414C258.722 921.496 253.152 920.681 250.978 920.681H249.891L249.619 957.908C249.619 960.353 250.434 962.255 251.929 963.75C255.19 966.467 257.363 966.331 259.673 966.331H214.158C215.924 966.331 217.827 966.06 221.495 964.565C225.299 963.071 228.016 958.723 228.016 952.609V884.948C228.016 879.921 225.707 875.981 223.125 874.351C219.049 871.497 214.43 871.09 214.158 871.226C217.827 871.226 224.348 871.09 233.995 870.682C243.641 870.275 250.978 870.139 256.005 870.275C273.939 870.682 283.857 872.448 289.835 878.834C293.911 882.91 295.813 888.616 295.677 895.817C295.677 903.018 293.232 908.996 288.205 913.48C282.634 918.371 276.52 920.273 276.656 920.001C276.928 920.001 277.471 920.273 278.151 920.681C279.781 921.632 284.536 926.795 288.884 935.354ZM261.303 917.284C270.678 914.023 275.433 906.551 275.433 894.866C275.433 877.475 266.874 870.546 249.619 871.633L249.891 919.05C254.103 919.05 257.907 918.507 261.303 917.284Z" fill="#55142E" fill-opacity="0.3"/>
<path d="M159.277 870.003C174.901 870.003 187.265 876.117 194.194 885.492C201.259 894.866 204.656 906.415 204.52 918.915C204.112 943.642 187.944 967.962 155.065 967.554C139.44 967.418 126.533 960.489 119.332 950.707C112.131 940.925 108.327 929.24 108.735 917.828C108.871 903.562 113.762 892.013 123.136 883.182C132.647 874.351 144.739 869.867 159.277 870.003ZM179.113 915.654C177.483 903.018 173.814 892.421 168.244 883.59C162.673 874.758 156.016 871.09 148.543 872.313C142.429 873.264 138.082 878.019 135.228 886.307C132.511 894.595 131.968 905.056 133.734 917.828C135.5 930.463 139.169 941.332 144.467 950.435C149.902 959.538 156.152 964.429 163.353 964.973C170.553 965.652 175.58 961.44 178.162 952.609C180.879 943.642 181.151 931.278 179.113 915.654Z" fill="#55142E" fill-opacity="0.3"/>
<path d="M55.7048 926.66H97.0078C97.0078 926.66 87.0897 927.067 87.0897 940.11V968.778C86.1386 965.925 84.2365 962.936 81.2474 959.675C78.3943 956.414 76.2204 954.648 74.9976 954.376C66.4381 963.751 56.52 968.506 45.5149 968.506C31.6566 968.506 20.6515 963.751 12.3637 954.24C4.07596 944.594 0 932.638 0 918.236C0 903.562 5.43461 891.606 13.0431 884.541C16.9832 881.009 21.3309 878.156 26.3579 875.846C36.5478 871.362 45.9225 870.004 55.5689 870.411C67.525 870.955 77.1715 873.265 84.3723 877.476V906.008C82.3344 901.525 79.3453 896.497 75.4052 891.199C71.4651 885.9 67.1175 881.552 62.3622 878.292C54.2102 872.449 46.0583 871.091 37.9064 874.216C31.5207 876.525 27.0372 881.688 24.3199 889.704C21.7384 897.72 21.195 907.367 22.6895 918.644C24.4558 931.822 28.3958 942.42 34.7815 950.572C41.1672 958.724 47.9604 962.936 55.0254 963.343C58.4221 963.479 61.1394 962.8 63.4491 961.577C65.4871 960.354 67.1175 958.588 68.2044 957.093C69.2913 955.463 69.9706 952.746 70.3782 951.251C70.7858 949.621 70.9217 946.632 70.9217 945.545V940.79V940.11C70.9217 929.784 61.1394 927.203 57.3352 926.795L55.7048 926.66Z" fill="#55142E" fill-opacity="0.3"/>
<path d="M1477.85 1.22559H1508.01C1500 2.99184 1493.34 8.69818 1487.9 18.0729L1473.09 44.9742C1471.33 48.3708 1470.38 53.262 1470.38 59.9194V81.2503C1470.38 87.3642 1472.96 92.1195 1476.35 93.8857C1480.02 95.652 1481.93 96.1954 1483.96 96.3313H1435.46C1437.23 96.3313 1439.54 95.7878 1442.8 94.0216C1446.19 92.2553 1448.77 87.7718 1448.77 81.7937L1448.91 63.7236C1448.91 57.0662 1447.55 51.4958 1444.97 47.2839L1426.08 16.3066C1419.56 5.84501 1411.41 1.22559 1407.2 1.22559L1455.57 1.36145C1447.82 1.49732 1443.75 8.69818 1447.96 16.4425L1463.45 42.9362C1466.57 48.5067 1469.7 48.235 1472.96 42.121L1486.14 18.4805C1491.16 9.3775 1488.17 2.44837 1477.85 1.22559Z" fill="#A12256" fill-opacity="0.2"/>
<path d="M1393.93 18.6163V78.6688C1393.93 86.1414 1397.06 91.4402 1401 93.614C1404.94 95.652 1407.52 96.3313 1409.15 96.3313H1355.76C1357.39 96.3313 1359.97 95.652 1363.91 93.614C1367.85 91.4402 1370.97 86.1414 1370.97 78.6688V32.2029C1370.97 25.4096 1370.57 21.8771 1369.75 21.7412C1368.53 21.6054 1367.44 23.0999 1365.27 28.6704L1336.19 99.9997L1296.79 27.9911C1292.85 20.2467 1290.68 19.2957 1290.41 25.1379V26.7683L1290.13 73.7777C1290.13 82.3372 1293.8 88.7228 1297.61 91.576C1299.51 92.9347 1301.68 94.0216 1304.26 94.8368C1309.29 96.4672 1310.78 96.3313 1312.01 96.3313H1266.9C1268.12 96.3313 1269.75 96.4672 1274.51 94.8368C1281.3 92.6629 1287.96 86.9566 1288.37 73.5059V23.2358C1288.37 5.98088 1274.1 2.04078 1270.7 1.36145L1270.16 1.22559H1307.8L1338.5 57.2021C1341.63 62.7726 1343.39 65.8975 1344.07 66.4409C1345.29 67.6637 1346.79 66.7127 1348.28 63.5878C1348.83 62.6367 1349.37 61.2781 1350.05 59.6477L1374.37 1.22559H1409.83C1409.02 1.22559 1394.07 2.17665 1393.93 18.6163Z" fill="#A12256" fill-opacity="0.2"/>
<path d="M1214.6 0.00299782C1230.22 0.00299782 1242.59 6.11694 1249.52 15.4916C1256.58 24.8664 1259.98 36.4149 1259.84 48.9145C1259.43 73.642 1243.27 97.9619 1210.39 97.5543C1194.76 97.4184 1181.86 90.4893 1174.65 80.707C1167.45 70.9247 1163.65 59.2403 1164.06 47.8276C1164.19 33.5617 1169.08 22.0132 1178.46 13.1819C1187.97 4.35069 1200.06 -0.132866 1214.6 0.00299782ZM1234.44 45.6537C1232.8 33.0183 1229.14 22.4208 1223.57 13.5895C1218 4.75828 1211.34 1.08992 1203.87 2.31271C1197.75 3.26376 1193.4 8.01905 1190.55 16.3068C1187.83 24.5946 1187.29 35.0562 1189.06 47.8276C1190.82 60.4631 1194.49 71.3323 1199.79 80.4353C1205.22 89.5382 1211.47 94.4294 1218.67 94.9729C1225.88 95.6522 1230.9 91.4404 1233.48 82.6091C1236.2 73.642 1236.47 61.2783 1234.44 45.6537Z" fill="#A12256" fill-opacity="0.2"/>
<path d="M1136.69 65.3541L1144.03 79.0764C1150.15 90.625 1157.89 94.8368 1161.01 95.9237L1162.1 96.3313H1131.4C1128 91.4402 1124.87 86.2773 1122.02 80.9786L1111.56 61.414C1106.53 51.4958 1100.96 50.6806 1098.79 50.6806H1097.7L1097.43 87.9077C1097.43 90.3533 1098.24 92.2554 1099.74 93.7499C1103 96.4672 1105.17 96.3313 1107.48 96.3313H1061.97C1063.73 96.3313 1065.64 96.0596 1069.31 94.5651C1073.11 93.0706 1075.83 88.7229 1075.83 82.6089V14.948C1075.83 9.92101 1073.52 5.98092 1070.94 4.35054C1066.86 1.49737 1062.24 1.08977 1061.97 1.22563C1065.64 1.22563 1072.16 1.08977 1081.81 0.682172C1091.45 0.274582 1098.79 0.138718 1103.82 0.274582C1121.75 0.682172 1131.67 2.44842 1137.65 8.83409C1141.72 12.9101 1143.62 18.6164 1143.49 25.8173C1143.49 33.0181 1141.04 38.9962 1136.02 43.4797C1130.44 48.3709 1124.33 50.273 1124.47 50.0013C1124.74 50.0013 1125.28 50.273 1125.96 50.6806C1127.59 51.6317 1132.35 56.7945 1136.69 65.3541ZM1109.11 47.284C1118.49 44.0232 1123.24 36.5506 1123.24 24.8662C1123.24 7.47544 1114.68 0.546309 1097.43 1.63323L1097.7 49.0502C1101.91 49.0502 1105.72 48.5068 1109.11 47.284Z" fill="#A12256" fill-opacity="0.2"/>
<path d="M1042.89 65.3541L1050.23 79.0764C1056.34 90.625 1064.08 94.8368 1067.21 95.9237L1068.3 96.3313H1037.59C1034.19 91.4402 1031.07 86.2773 1028.22 80.9786L1017.75 61.414C1012.73 51.4958 1007.16 50.6806 1004.98 50.6806H1003.9L1003.62 87.9077C1003.62 90.3533 1004.44 92.2554 1005.93 93.7499C1009.2 96.4672 1011.37 96.3313 1013.68 96.3313H968.164C969.93 96.3313 971.832 96.0596 975.501 94.5651C979.305 93.0706 982.022 88.7229 982.022 82.6089V14.948C982.022 9.92101 979.713 5.98092 977.131 4.35054C973.055 1.49737 968.436 1.08977 968.164 1.22563C971.832 1.22563 978.354 1.08977 988 0.682172C997.647 0.274582 1004.98 0.138718 1010.01 0.274582C1027.94 0.682172 1037.86 2.44842 1043.84 8.83409C1047.92 12.9101 1049.82 18.6164 1049.68 25.8173C1049.68 33.0181 1047.24 38.9962 1042.21 43.4797C1036.64 48.3709 1030.53 50.273 1030.66 50.0013C1030.93 50.0013 1031.48 50.273 1032.16 50.6806C1033.79 51.6317 1038.54 56.7945 1042.89 65.3541ZM1015.31 47.284C1024.68 44.0232 1029.44 36.5506 1029.44 24.8662C1029.44 7.47544 1020.88 0.546309 1003.62 1.63323L1003.9 49.0502C1008.11 49.0502 1011.91 48.5068 1015.31 47.284Z" fill="#A12256" fill-opacity="0.2"/>
<path d="M913.283 0.00299782C928.907 0.00299782 941.271 6.11694 948.2 15.4916C955.265 24.8664 958.662 36.4149 958.526 48.9145C958.118 73.642 941.95 97.9619 909.071 97.5543C893.446 97.4184 880.539 90.4893 873.338 80.707C866.137 70.9247 862.333 59.2403 862.741 47.8276C862.876 33.5617 867.768 22.0132 877.142 13.1819C886.653 4.35069 898.745 -0.132866 913.283 0.00299782ZM933.119 45.6537C931.488 33.0183 927.82 22.4208 922.25 13.5895C916.679 4.75828 910.022 1.08992 902.549 2.31271C896.435 3.26376 892.088 8.01905 889.234 16.3068C886.517 24.5946 885.974 35.0562 887.74 47.8276C889.506 60.4631 893.174 71.3323 898.473 80.4353C903.908 89.5382 910.158 94.4294 917.358 94.9729C924.559 95.6522 929.586 91.4404 932.168 82.6091C934.885 73.642 935.157 61.2783 933.119 45.6537Z" fill="#A12256" fill-opacity="0.2"/>
<path d="M809.711 56.6596H851.014C851.014 56.6596 841.096 57.0672 841.096 70.1103V98.7778C840.144 95.9247 838.242 92.9356 835.253 89.6749C832.4 86.4141 830.226 84.6479 829.003 84.3761C820.444 93.7508 810.526 98.5061 799.521 98.5061C785.662 98.5061 774.657 93.7508 766.37 84.2403C758.082 74.5938 754.006 62.6377 754.006 48.236C754.006 33.5625 759.44 21.6063 767.049 14.5413C770.989 11.0089 775.337 8.15568 780.364 5.84598C790.554 1.36241 799.928 0.00376162 809.575 0.41136C821.531 0.954823 831.177 3.26453 838.378 7.47635V36.0081C836.34 31.5245 833.351 26.4975 829.411 21.1987C825.471 15.9 821.123 11.5523 816.368 8.29155C808.216 2.44934 800.064 1.09068 791.912 4.21559C785.527 6.5253 781.043 11.6882 778.326 19.7042C775.744 27.7203 775.201 37.3667 776.695 48.6435C778.462 61.8225 782.402 72.42 788.787 80.5719C795.173 88.7238 801.966 92.9356 809.031 93.3432C812.428 93.4791 815.145 92.7998 817.455 91.577C819.493 90.3542 821.123 88.5879 822.21 87.0934C823.297 85.463 823.976 82.7457 824.384 81.2512C824.792 79.6208 824.928 76.6318 824.928 75.5449V70.7896V70.1103C824.928 59.7845 815.145 57.2031 811.341 56.7955L809.711 56.6596Z" fill="#A12256" fill-opacity="0.2"/>
<path d="M723.843 146.226H754.005C745.989 147.992 739.332 153.698 733.897 163.073L719.088 189.974C717.322 193.371 716.371 198.262 716.371 204.919V226.25C716.371 232.364 718.952 237.119 722.349 238.886C726.017 240.652 727.919 241.195 729.957 241.331H681.453C683.22 241.331 685.529 240.788 688.79 239.022C692.187 237.255 694.768 232.772 694.768 226.794L694.904 208.724C694.904 202.066 693.545 196.496 690.964 192.284L672.079 161.307C665.557 150.845 657.405 146.226 653.193 146.226L701.561 146.361C693.817 146.497 689.741 153.698 693.953 161.443L709.442 187.936C712.567 193.507 715.691 193.235 718.952 187.121L732.131 163.48C737.158 154.378 734.169 147.448 723.843 146.226Z" fill="#A12256" fill-opacity="0.2"/>
<path d="M639.929 163.616V223.669C639.929 231.141 643.054 236.44 646.994 238.614C650.934 240.652 653.515 241.331 655.145 241.331H601.75C603.381 241.331 605.962 240.652 609.902 238.614C613.842 236.44 616.967 231.141 616.967 223.669V177.203C616.967 170.41 616.56 166.877 615.745 166.741C614.522 166.605 613.435 168.1 611.261 173.67L582.186 245L542.785 172.991C538.845 165.247 536.671 164.296 536.399 170.138V171.768L536.127 218.778C536.127 227.337 539.796 233.723 543.6 236.576C545.502 237.935 547.676 239.022 550.257 239.837C555.284 241.467 556.779 241.331 558.002 241.331H512.895C514.117 241.331 515.748 241.467 520.503 239.837C527.296 237.663 533.954 231.957 534.361 218.506V168.236C534.361 150.981 520.095 147.041 516.699 146.361L516.155 146.226H553.79L584.496 202.202C587.62 207.773 589.387 210.897 590.066 211.441C591.289 212.664 592.783 211.713 594.278 208.588C594.821 207.637 595.365 206.278 596.044 204.648L620.364 146.226H655.825C655.01 146.226 640.064 147.177 639.929 163.616Z" fill="#A12256" fill-opacity="0.2"/>
<path d="M460.593 145.003C476.218 145.003 488.581 151.117 495.51 160.492C502.575 169.866 505.972 181.415 505.836 193.915C505.429 218.642 489.261 242.962 456.381 242.554C440.757 242.418 427.85 235.489 420.649 225.707C413.448 215.925 409.644 204.24 410.051 192.828C410.187 178.562 415.078 167.013 424.453 158.182C433.963 149.351 446.055 144.867 460.593 145.003ZM480.429 190.654C478.799 178.018 475.131 167.421 469.56 158.59C463.99 149.758 457.332 146.09 449.86 147.313C443.746 148.264 439.398 153.019 436.545 161.307C433.828 169.595 433.284 180.056 435.05 192.828C436.817 205.463 440.485 216.332 445.784 225.435C451.218 234.538 457.468 239.429 464.669 239.973C471.87 240.652 476.897 236.44 479.478 227.609C482.196 218.642 482.467 206.278 480.429 190.654Z" fill="#A12256" fill-opacity="0.2"/>
<path d="M382.689 210.354L390.026 224.076C396.14 235.625 403.884 239.837 407.009 240.924L408.096 241.331H377.39C373.993 236.44 370.869 231.277 368.015 225.979L357.554 206.414C352.527 196.496 346.956 195.681 344.782 195.681H343.695L343.424 232.908C343.424 235.353 344.239 237.255 345.733 238.75C348.994 241.467 351.168 241.331 353.478 241.331H307.963C309.729 241.331 311.631 241.06 315.3 239.565C319.104 238.071 321.821 233.723 321.821 227.609V159.948C321.821 154.921 319.511 150.981 316.93 149.351C312.854 146.497 308.235 146.09 307.963 146.226C311.631 146.226 318.153 146.09 327.799 145.682C337.446 145.275 344.782 145.139 349.809 145.275C367.744 145.682 377.662 147.448 383.64 153.834C387.716 157.91 389.618 163.616 389.482 170.817C389.482 178.018 387.037 183.996 382.01 188.48C376.439 193.371 370.325 195.273 370.461 195.001C370.733 195.001 371.276 195.273 371.955 195.681C373.586 196.632 378.341 201.795 382.689 210.354ZM355.108 192.284C364.483 189.023 369.238 181.551 369.238 169.866C369.238 152.475 360.679 145.546 343.424 146.633L343.695 194.05C347.907 194.05 351.712 193.507 355.108 192.284Z" fill="#A12256" fill-opacity="0.2"/>
<path d="M288.884 210.354L296.221 224.076C302.335 235.625 310.079 239.837 313.204 240.924L314.291 241.331H283.585C280.189 236.44 277.064 231.277 274.211 225.979L263.749 206.414C258.722 196.496 253.152 195.681 250.978 195.681H249.891L249.619 232.908C249.619 235.353 250.434 237.255 251.929 238.75C255.19 241.467 257.363 241.331 259.673 241.331H214.158C215.924 241.331 217.827 241.06 221.495 239.565C225.299 238.071 228.016 233.723 228.016 227.609V159.948C228.016 154.921 225.707 150.981 223.125 149.351C219.049 146.497 214.43 146.09 214.158 146.226C217.827 146.226 224.348 146.09 233.995 145.682C243.641 145.275 250.978 145.139 256.005 145.275C273.939 145.682 283.857 147.448 289.835 153.834C293.911 157.91 295.813 163.616 295.677 170.817C295.677 178.018 293.232 183.996 288.205 188.48C282.634 193.371 276.52 195.273 276.656 195.001C276.928 195.001 277.471 195.273 278.151 195.681C279.781 196.632 284.536 201.795 288.884 210.354ZM261.303 192.284C270.678 189.023 275.433 181.551 275.433 169.866C275.433 152.475 266.874 145.546 249.619 146.633L249.891 194.05C254.103 194.05 257.907 193.507 261.303 192.284Z" fill="#A12256" fill-opacity="0.2"/>
<path d="M159.277 145.003C174.901 145.003 187.265 151.117 194.194 160.492C201.259 169.866 204.656 181.415 204.52 193.915C204.112 218.642 187.944 242.962 155.065 242.554C139.44 242.418 126.533 235.489 119.332 225.707C112.131 215.925 108.327 204.24 108.735 192.828C108.871 178.562 113.762 167.013 123.136 158.182C132.647 149.351 144.739 144.867 159.277 145.003ZM179.113 190.654C177.483 178.018 173.814 167.421 168.244 158.59C162.673 149.758 156.016 146.09 148.543 147.313C142.429 148.264 138.082 153.019 135.228 161.307C132.511 169.595 131.968 180.056 133.734 192.828C135.5 205.463 139.169 216.332 144.467 225.435C149.902 234.538 156.152 239.429 163.353 239.973C170.553 240.652 175.58 236.44 178.162 227.609C180.879 218.642 181.151 206.278 179.113 190.654Z" fill="#A12256" fill-opacity="0.2"/>
<path d="M55.7048 201.66H97.0078C97.0078 201.66 87.0897 202.067 87.0897 215.11V243.778C86.1386 240.925 84.2365 237.936 81.2474 234.675C78.3943 231.414 76.2204 229.648 74.9976 229.376C66.4381 238.751 56.52 243.506 45.5149 243.506C31.6566 243.506 20.6515 238.751 12.3637 229.24C4.07596 219.594 0 207.638 0 193.236C0 178.562 5.43461 166.606 13.0431 159.541C16.9832 156.009 21.3309 153.156 26.3579 150.846C36.5478 146.362 45.9225 145.004 55.5689 145.411C67.525 145.955 77.1715 148.265 84.3723 152.476V181.008C82.3344 176.525 79.3453 171.497 75.4052 166.199C71.4651 160.9 67.1175 156.552 62.3622 153.292C54.2102 147.449 46.0583 146.091 37.9064 149.216C31.5207 151.525 27.0372 156.688 24.3199 164.704C21.7384 172.72 21.195 182.367 22.6895 193.644C24.4558 206.822 28.3958 217.42 34.7815 225.572C41.1672 233.724 47.9604 237.936 55.0254 238.343C58.4221 238.479 61.1394 237.8 63.4491 236.577C65.4871 235.354 67.1175 233.588 68.2044 232.093C69.2913 230.463 69.9706 227.746 70.3782 226.251C70.7858 224.621 70.9217 221.632 70.9217 220.545V215.79V215.11C70.9217 204.784 61.1394 202.203 57.3352 201.795L55.7048 201.66Z" fill="#A12256" fill-opacity="0.2"/>
<path d="M1477.85 291.226H1508.01C1500 292.992 1493.34 298.698 1487.9 308.073L1473.09 334.974C1471.33 338.371 1470.38 343.262 1470.38 349.919V371.25C1470.38 377.364 1472.96 382.119 1476.35 383.886C1480.02 385.652 1481.93 386.195 1483.96 386.331H1435.46C1437.23 386.331 1439.54 385.788 1442.8 384.022C1446.19 382.255 1448.77 377.772 1448.77 371.794L1448.91 353.724C1448.91 347.066 1447.55 341.496 1444.97 337.284L1426.08 306.307C1419.56 295.845 1411.41 291.226 1407.2 291.226L1455.57 291.361C1447.82 291.497 1443.75 298.698 1447.96 306.443L1463.45 332.936C1466.57 338.507 1469.7 338.235 1472.96 332.121L1486.14 308.48C1491.16 299.378 1488.17 292.448 1477.85 291.226Z" fill="#A12256" fill-opacity="0.2"/>
<path d="M1393.93 308.616V368.669C1393.93 376.141 1397.06 381.44 1401 383.614C1404.94 385.652 1407.52 386.331 1409.15 386.331H1355.76C1357.39 386.331 1359.97 385.652 1363.91 383.614C1367.85 381.44 1370.97 376.141 1370.97 368.669V322.203C1370.97 315.41 1370.57 311.877 1369.75 311.741C1368.53 311.605 1367.44 313.1 1365.27 318.67L1336.19 390L1296.79 317.991C1292.85 310.247 1290.68 309.296 1290.41 315.138V316.768L1290.13 363.778C1290.13 372.337 1293.8 378.723 1297.61 381.576C1299.51 382.935 1301.68 384.022 1304.26 384.837C1309.29 386.467 1310.78 386.331 1312.01 386.331H1266.9C1268.12 386.331 1269.75 386.467 1274.51 384.837C1281.3 382.663 1287.96 376.957 1288.37 363.506V313.236C1288.37 295.981 1274.1 292.041 1270.7 291.361L1270.16 291.226H1307.8L1338.5 347.202C1341.63 352.773 1343.39 355.897 1344.07 356.441C1345.29 357.664 1346.79 356.713 1348.28 353.588C1348.83 352.637 1349.37 351.278 1350.05 349.648L1374.37 291.226H1409.83C1409.02 291.226 1394.07 292.177 1393.93 308.616Z" fill="#A12256" fill-opacity="0.2"/>
<path d="M1214.6 290.003C1230.22 290.003 1242.59 296.117 1249.52 305.492C1256.58 314.866 1259.98 326.415 1259.84 338.915C1259.43 363.642 1243.27 387.962 1210.39 387.554C1194.76 387.418 1181.86 380.489 1174.65 370.707C1167.45 360.925 1163.65 349.24 1164.06 337.828C1164.19 323.562 1169.08 312.013 1178.46 303.182C1187.97 294.351 1200.06 289.867 1214.6 290.003ZM1234.44 335.654C1232.8 323.018 1229.14 312.421 1223.57 303.59C1218 294.758 1211.34 291.09 1203.87 292.313C1197.75 293.264 1193.4 298.019 1190.55 306.307C1187.83 314.595 1187.29 325.056 1189.06 337.828C1190.82 350.463 1194.49 361.332 1199.79 370.435C1205.22 379.538 1211.47 384.429 1218.67 384.973C1225.88 385.652 1230.9 381.44 1233.48 372.609C1236.2 363.642 1236.47 351.278 1234.44 335.654Z" fill="#A12256" fill-opacity="0.2"/>
<path d="M1136.69 355.354L1144.03 369.076C1150.15 380.625 1157.89 384.837 1161.01 385.924L1162.1 386.331H1131.4C1128 381.44 1124.87 376.277 1122.02 370.979L1111.56 351.414C1106.53 341.496 1100.96 340.681 1098.79 340.681H1097.7L1097.43 377.908C1097.43 380.353 1098.24 382.255 1099.74 383.75C1103 386.467 1105.17 386.331 1107.48 386.331H1061.97C1063.73 386.331 1065.64 386.06 1069.31 384.565C1073.11 383.071 1075.83 378.723 1075.83 372.609V304.948C1075.83 299.921 1073.52 295.981 1070.94 294.351C1066.86 291.497 1062.24 291.09 1061.97 291.226C1065.64 291.226 1072.16 291.09 1081.81 290.682C1091.45 290.275 1098.79 290.139 1103.82 290.275C1121.75 290.682 1131.67 292.448 1137.65 298.834C1141.72 302.91 1143.62 308.616 1143.49 315.817C1143.49 323.018 1141.04 328.996 1136.02 333.48C1130.44 338.371 1124.33 340.273 1124.47 340.001C1124.74 340.001 1125.28 340.273 1125.96 340.681C1127.59 341.632 1132.35 346.795 1136.69 355.354ZM1109.11 337.284C1118.49 334.023 1123.24 326.551 1123.24 314.866C1123.24 297.475 1114.68 290.546 1097.43 291.633L1097.7 339.05C1101.91 339.05 1105.72 338.507 1109.11 337.284Z" fill="#A12256" fill-opacity="0.2"/>
<path d="M1042.89 355.354L1050.23 369.076C1056.34 380.625 1064.08 384.837 1067.21 385.924L1068.3 386.331H1037.59C1034.19 381.44 1031.07 376.277 1028.22 370.979L1017.75 351.414C1012.73 341.496 1007.16 340.681 1004.98 340.681H1003.9L1003.62 377.908C1003.62 380.353 1004.44 382.255 1005.93 383.75C1009.2 386.467 1011.37 386.331 1013.68 386.331H968.164C969.93 386.331 971.832 386.06 975.501 384.565C979.305 383.071 982.022 378.723 982.022 372.609V304.948C982.022 299.921 979.713 295.981 977.131 294.351C973.055 291.497 968.436 291.09 968.164 291.226C971.832 291.226 978.354 291.09 988 290.682C997.647 290.275 1004.98 290.139 1010.01 290.275C1027.94 290.682 1037.86 292.448 1043.84 298.834C1047.92 302.91 1049.82 308.616 1049.68 315.817C1049.68 323.018 1047.24 328.996 1042.21 333.48C1036.64 338.371 1030.53 340.273 1030.66 340.001C1030.93 340.001 1031.48 340.273 1032.16 340.681C1033.79 341.632 1038.54 346.795 1042.89 355.354ZM1015.31 337.284C1024.68 334.023 1029.44 326.551 1029.44 314.866C1029.44 297.475 1020.88 290.546 1003.62 291.633L1003.9 339.05C1008.11 339.05 1011.91 338.507 1015.31 337.284Z" fill="#A12256" fill-opacity="0.2"/>
<path d="M913.283 290.003C928.907 290.003 941.271 296.117 948.2 305.492C955.265 314.866 958.662 326.415 958.526 338.915C958.118 363.642 941.95 387.962 909.071 387.554C893.446 387.418 880.539 380.489 873.338 370.707C866.137 360.925 862.333 349.24 862.741 337.828C862.876 323.562 867.768 312.013 877.142 303.182C886.653 294.351 898.745 289.867 913.283 290.003ZM933.119 335.654C931.488 323.018 927.82 312.421 922.25 303.59C916.679 294.758 910.022 291.09 902.549 292.313C896.435 293.264 892.088 298.019 889.234 306.307C886.517 314.595 885.974 325.056 887.74 337.828C889.506 350.463 893.174 361.332 898.473 370.435C903.908 379.538 910.158 384.429 917.358 384.973C924.559 385.652 929.586 381.44 932.168 372.609C934.885 363.642 935.157 351.278 933.119 335.654Z" fill="#A12256" fill-opacity="0.2"/>
<path d="M809.711 346.66H851.014C851.014 346.66 841.096 347.067 841.096 360.11V388.778C840.144 385.925 838.242 382.936 835.253 379.675C832.4 376.414 830.226 374.648 829.003 374.376C820.444 383.751 810.526 388.506 799.521 388.506C785.662 388.506 774.657 383.751 766.37 374.24C758.082 364.594 754.006 352.638 754.006 338.236C754.006 323.562 759.44 311.606 767.049 304.541C770.989 301.009 775.337 298.156 780.364 295.846C790.554 291.362 799.928 290.004 809.575 290.411C821.531 290.955 831.177 293.265 838.378 297.476V326.008C836.34 321.525 833.351 316.497 829.411 311.199C825.471 305.9 821.123 301.552 816.368 298.292C808.216 292.449 800.064 291.091 791.912 294.216C785.527 296.525 781.043 301.688 778.326 309.704C775.744 317.72 775.201 327.367 776.695 338.644C778.462 351.822 782.402 362.42 788.787 370.572C795.173 378.724 801.966 382.936 809.031 383.343C812.428 383.479 815.145 382.8 817.455 381.577C819.493 380.354 821.123 378.588 822.21 377.093C823.297 375.463 823.976 372.746 824.384 371.251C824.792 369.621 824.928 366.632 824.928 365.545V360.79V360.11C824.928 349.784 815.145 347.203 811.341 346.795L809.711 346.66Z" fill="#A12256" fill-opacity="0.2"/>
<path d="M723.843 436.226H754.005C745.989 437.992 739.332 443.698 733.897 453.073L719.088 479.974C717.322 483.371 716.371 488.262 716.371 494.919V516.25C716.371 522.364 718.952 527.119 722.349 528.886C726.017 530.652 727.919 531.195 729.957 531.331H681.453C683.22 531.331 685.529 530.788 688.79 529.022C692.187 527.255 694.768 522.772 694.768 516.794L694.904 498.724C694.904 492.066 693.545 486.496 690.964 482.284L672.079 451.307C665.557 440.845 657.405 436.226 653.193 436.226L701.561 436.361C693.817 436.497 689.741 443.698 693.953 451.443L709.442 477.936C712.567 483.507 715.691 483.235 718.952 477.121L732.131 453.48C737.158 444.378 734.169 437.448 723.843 436.226Z" fill="#A12256" fill-opacity="0.2"/>
<path d="M639.929 453.616V513.669C639.929 521.141 643.054 526.44 646.994 528.614C650.934 530.652 653.515 531.331 655.145 531.331H601.75C603.381 531.331 605.962 530.652 609.902 528.614C613.842 526.44 616.967 521.141 616.967 513.669V467.203C616.967 460.41 616.56 456.877 615.745 456.741C614.522 456.605 613.435 458.1 611.261 463.67L582.186 535L542.785 462.991C538.845 455.247 536.671 454.296 536.399 460.138V461.768L536.127 508.778C536.127 517.337 539.796 523.723 543.6 526.576C545.502 527.935 547.676 529.022 550.257 529.837C555.284 531.467 556.779 531.331 558.002 531.331H512.895C514.117 531.331 515.748 531.467 520.503 529.837C527.296 527.663 533.954 521.957 534.361 508.506V458.236C534.361 440.981 520.095 437.041 516.699 436.361L516.155 436.226H553.79L584.496 492.202C587.62 497.773 589.387 500.897 590.066 501.441C591.289 502.664 592.783 501.713 594.278 498.588C594.821 497.637 595.365 496.278 596.044 494.648L620.364 436.226H655.825C655.01 436.226 640.064 437.177 639.929 453.616Z" fill="#A12256" fill-opacity="0.2"/>
<path d="M460.593 435.003C476.218 435.003 488.581 441.117 495.51 450.492C502.575 459.866 505.972 471.415 505.836 483.915C505.429 508.642 489.261 532.962 456.381 532.554C440.757 532.418 427.85 525.489 420.649 515.707C413.448 505.925 409.644 494.24 410.051 482.828C410.187 468.562 415.078 457.013 424.453 448.182C433.963 439.351 446.055 434.867 460.593 435.003ZM480.429 480.654C478.799 468.018 475.131 457.421 469.56 448.59C463.99 439.758 457.332 436.09 449.86 437.313C443.746 438.264 439.398 443.019 436.545 451.307C433.828 459.595 433.284 470.056 435.05 482.828C436.817 495.463 440.485 506.332 445.784 515.435C451.218 524.538 457.468 529.429 464.669 529.973C471.87 530.652 476.897 526.44 479.478 517.609C482.196 508.642 482.467 496.278 480.429 480.654Z" fill="#A12256" fill-opacity="0.2"/>
<path d="M382.689 500.354L390.026 514.076C396.14 525.625 403.884 529.837 407.009 530.924L408.096 531.331H377.39C373.993 526.44 370.869 521.277 368.015 515.979L357.554 496.414C352.527 486.496 346.956 485.681 344.782 485.681H343.695L343.424 522.908C343.424 525.353 344.239 527.255 345.733 528.75C348.994 531.467 351.168 531.331 353.478 531.331H307.963C309.729 531.331 311.631 531.06 315.3 529.565C319.104 528.071 321.821 523.723 321.821 517.609V449.948C321.821 444.921 319.511 440.981 316.93 439.351C312.854 436.497 308.235 436.09 307.963 436.226C311.631 436.226 318.153 436.09 327.799 435.682C337.446 435.275 344.782 435.139 349.809 435.275C367.744 435.682 377.662 437.448 383.64 443.834C387.716 447.91 389.618 453.616 389.482 460.817C389.482 468.018 387.037 473.996 382.01 478.48C376.439 483.371 370.325 485.273 370.461 485.001C370.733 485.001 371.276 485.273 371.955 485.681C373.586 486.632 378.341 491.795 382.689 500.354ZM355.108 482.284C364.483 479.023 369.238 471.551 369.238 459.866C369.238 442.475 360.679 435.546 343.424 436.633L343.695 484.05C347.907 484.05 351.712 483.507 355.108 482.284Z" fill="#A12256" fill-opacity="0.2"/>
<path d="M288.884 500.354L296.221 514.076C302.335 525.625 310.079 529.837 313.204 530.924L314.291 531.331H283.585C280.189 526.44 277.064 521.277 274.211 515.979L263.749 496.414C258.722 486.496 253.152 485.681 250.978 485.681H249.891L249.619 522.908C249.619 525.353 250.434 527.255 251.929 528.75C255.19 531.467 257.363 531.331 259.673 531.331H214.158C215.924 531.331 217.827 531.06 221.495 529.565C225.299 528.071 228.016 523.723 228.016 517.609V449.948C228.016 444.921 225.707 440.981 223.125 439.351C219.049 436.497 214.43 436.09 214.158 436.226C217.827 436.226 224.348 436.09 233.995 435.682C243.641 435.275 250.978 435.139 256.005 435.275C273.939 435.682 283.857 437.448 289.835 443.834C293.911 447.91 295.813 453.616 295.677 460.817C295.677 468.018 293.232 473.996 288.205 478.48C282.634 483.371 276.52 485.273 276.656 485.001C276.928 485.001 277.471 485.273 278.151 485.681C279.781 486.632 284.536 491.795 288.884 500.354ZM261.303 482.284C270.678 479.023 275.433 471.551 275.433 459.866C275.433 442.475 266.874 435.546 249.619 436.633L249.891 484.05C254.103 484.05 257.907 483.507 261.303 482.284Z" fill="#A12256" fill-opacity="0.2"/>
<path d="M159.277 435.003C174.901 435.003 187.265 441.117 194.194 450.492C201.259 459.866 204.656 471.415 204.52 483.915C204.112 508.642 187.944 532.962 155.065 532.554C139.44 532.418 126.533 525.489 119.332 515.707C112.131 505.925 108.327 494.24 108.735 482.828C108.871 468.562 113.762 457.013 123.136 448.182C132.647 439.351 144.739 434.867 159.277 435.003ZM179.113 480.654C177.483 468.018 173.814 457.421 168.244 448.59C162.673 439.758 156.016 436.09 148.543 437.313C142.429 438.264 138.082 443.019 135.228 451.307C132.511 459.595 131.968 470.056 133.734 482.828C135.5 495.463 139.169 506.332 144.467 515.435C149.902 524.538 156.152 529.429 163.353 529.973C170.553 530.652 175.58 526.44 178.162 517.609C180.879 508.642 181.151 496.278 179.113 480.654Z" fill="#A12256" fill-opacity="0.2"/>
<path d="M55.7048 491.66H97.0078C97.0078 491.66 87.0897 492.067 87.0897 505.11V533.778C86.1386 530.925 84.2365 527.936 81.2474 524.675C78.3943 521.414 76.2204 519.648 74.9976 519.376C66.4381 528.751 56.52 533.506 45.5149 533.506C31.6566 533.506 20.6515 528.751 12.3637 519.24C4.07596 509.594 0 497.638 0 483.236C0 468.562 5.43461 456.606 13.0431 449.541C16.9832 446.009 21.3309 443.156 26.3579 440.846C36.5478 436.362 45.9225 435.004 55.5689 435.411C67.525 435.955 77.1715 438.265 84.3723 442.476V471.008C82.3344 466.525 79.3453 461.497 75.4052 456.199C71.4651 450.9 67.1175 446.552 62.3622 443.292C54.2102 437.449 46.0583 436.091 37.9064 439.216C31.5207 441.525 27.0372 446.688 24.3199 454.704C21.7384 462.72 21.195 472.367 22.6895 483.644C24.4558 496.822 28.3958 507.42 34.7815 515.572C41.1672 523.724 47.9604 527.936 55.0254 528.343C58.4221 528.479 61.1394 527.8 63.4491 526.577C65.4871 525.354 67.1175 523.588 68.2044 522.093C69.2913 520.463 69.9706 517.746 70.3782 516.251C70.7858 514.621 70.9217 511.632 70.9217 510.545V505.79V505.11C70.9217 494.784 61.1394 492.203 57.3352 491.795L55.7048 491.66Z" fill="#A12256" fill-opacity="0.2"/>
<path d="M1477.85 581.226H1508.01C1500 582.992 1493.34 588.698 1487.9 598.073L1473.09 624.974C1471.33 628.371 1470.38 633.262 1470.38 639.919V661.25C1470.38 667.364 1472.96 672.119 1476.35 673.886C1480.02 675.652 1481.93 676.195 1483.96 676.331H1435.46C1437.23 676.331 1439.54 675.788 1442.8 674.022C1446.19 672.255 1448.77 667.772 1448.77 661.794L1448.91 643.724C1448.91 637.066 1447.55 631.496 1444.97 627.284L1426.08 596.307C1419.56 585.845 1411.41 581.226 1407.2 581.226L1455.57 581.361C1447.82 581.497 1443.75 588.698 1447.96 596.443L1463.45 622.936C1466.57 628.507 1469.7 628.235 1472.96 622.121L1486.14 598.48C1491.16 589.378 1488.17 582.448 1477.85 581.226Z" fill="#A12256" fill-opacity="0.2"/>
<path d="M1393.93 598.616V658.669C1393.93 666.141 1397.06 671.44 1401 673.614C1404.94 675.652 1407.52 676.331 1409.15 676.331H1355.76C1357.39 676.331 1359.97 675.652 1363.91 673.614C1367.85 671.44 1370.97 666.141 1370.97 658.669V612.203C1370.97 605.41 1370.57 601.877 1369.75 601.741C1368.53 601.605 1367.44 603.1 1365.27 608.67L1336.19 680L1296.79 607.991C1292.85 600.247 1290.68 599.296 1290.41 605.138V606.768L1290.13 653.778C1290.13 662.337 1293.8 668.723 1297.61 671.576C1299.51 672.935 1301.68 674.022 1304.26 674.837C1309.29 676.467 1310.78 676.331 1312.01 676.331H1266.9C1268.12 676.331 1269.75 676.467 1274.51 674.837C1281.3 672.663 1287.96 666.957 1288.37 653.506V603.236C1288.37 585.981 1274.1 582.041 1270.7 581.361L1270.16 581.226H1307.8L1338.5 637.202C1341.63 642.773 1343.39 645.897 1344.07 646.441C1345.29 647.664 1346.79 646.713 1348.28 643.588C1348.83 642.637 1349.37 641.278 1350.05 639.648L1374.37 581.226H1409.83C1409.02 581.226 1394.07 582.177 1393.93 598.616Z" fill="#A12256" fill-opacity="0.2"/>
<path d="M1214.6 580.003C1230.22 580.003 1242.59 586.117 1249.52 595.492C1256.58 604.866 1259.98 616.415 1259.84 628.915C1259.43 653.642 1243.27 677.962 1210.39 677.554C1194.76 677.418 1181.86 670.489 1174.65 660.707C1167.45 650.925 1163.65 639.24 1164.06 627.828C1164.19 613.562 1169.08 602.013 1178.46 593.182C1187.97 584.351 1200.06 579.867 1214.6 580.003ZM1234.44 625.654C1232.8 613.018 1229.14 602.421 1223.57 593.59C1218 584.758 1211.34 581.09 1203.87 582.313C1197.75 583.264 1193.4 588.019 1190.55 596.307C1187.83 604.595 1187.29 615.056 1189.06 627.828C1190.82 640.463 1194.49 651.332 1199.79 660.435C1205.22 669.538 1211.47 674.429 1218.67 674.973C1225.88 675.652 1230.9 671.44 1233.48 662.609C1236.2 653.642 1236.47 641.278 1234.44 625.654Z" fill="#A12256" fill-opacity="0.2"/>
<path d="M1136.69 645.354L1144.03 659.076C1150.15 670.625 1157.89 674.837 1161.01 675.924L1162.1 676.331H1131.4C1128 671.44 1124.87 666.277 1122.02 660.979L1111.56 641.414C1106.53 631.496 1100.96 630.681 1098.79 630.681H1097.7L1097.43 667.908C1097.43 670.353 1098.24 672.255 1099.74 673.75C1103 676.467 1105.17 676.331 1107.48 676.331H1061.97C1063.73 676.331 1065.64 676.06 1069.31 674.565C1073.11 673.071 1075.83 668.723 1075.83 662.609V594.948C1075.83 589.921 1073.52 585.981 1070.94 584.351C1066.86 581.497 1062.24 581.09 1061.97 581.226C1065.64 581.226 1072.16 581.09 1081.81 580.682C1091.45 580.275 1098.79 580.139 1103.82 580.275C1121.75 580.682 1131.67 582.448 1137.65 588.834C1141.72 592.91 1143.62 598.616 1143.49 605.817C1143.49 613.018 1141.04 618.996 1136.02 623.48C1130.44 628.371 1124.33 630.273 1124.47 630.001C1124.74 630.001 1125.28 630.273 1125.96 630.681C1127.59 631.632 1132.35 636.795 1136.69 645.354ZM1109.11 627.284C1118.49 624.023 1123.24 616.551 1123.24 604.866C1123.24 587.475 1114.68 580.546 1097.43 581.633L1097.7 629.05C1101.91 629.05 1105.72 628.507 1109.11 627.284Z" fill="#A12256" fill-opacity="0.2"/>
<path d="M1042.89 645.354L1050.23 659.076C1056.34 670.625 1064.08 674.837 1067.21 675.924L1068.3 676.331H1037.59C1034.19 671.44 1031.07 666.277 1028.22 660.979L1017.75 641.414C1012.73 631.496 1007.16 630.681 1004.98 630.681H1003.9L1003.62 667.908C1003.62 670.353 1004.44 672.255 1005.93 673.75C1009.2 676.467 1011.37 676.331 1013.68 676.331H968.164C969.93 676.331 971.832 676.06 975.501 674.565C979.305 673.071 982.022 668.723 982.022 662.609V594.948C982.022 589.921 979.713 585.981 977.131 584.351C973.055 581.497 968.436 581.09 968.164 581.226C971.832 581.226 978.354 581.09 988 580.682C997.647 580.275 1004.98 580.139 1010.01 580.275C1027.94 580.682 1037.86 582.448 1043.84 588.834C1047.92 592.91 1049.82 598.616 1049.68 605.817C1049.68 613.018 1047.24 618.996 1042.21 623.48C1036.64 628.371 1030.53 630.273 1030.66 630.001C1030.93 630.001 1031.48 630.273 1032.16 630.681C1033.79 631.632 1038.54 636.795 1042.89 645.354ZM1015.31 627.284C1024.68 624.023 1029.44 616.551 1029.44 604.866C1029.44 587.475 1020.88 580.546 1003.62 581.633L1003.9 629.05C1008.11 629.05 1011.91 628.507 1015.31 627.284Z" fill="#A12256" fill-opacity="0.2"/>
<path d="M913.283 580.003C928.907 580.003 941.271 586.117 948.2 595.492C955.265 604.866 958.662 616.415 958.526 628.915C958.118 653.642 941.95 677.962 909.071 677.554C893.446 677.418 880.539 670.489 873.338 660.707C866.137 650.925 862.333 639.24 862.741 627.828C862.876 613.562 867.768 602.013 877.142 593.182C886.653 584.351 898.745 579.867 913.283 580.003ZM933.119 625.654C931.488 613.018 927.82 602.421 922.25 593.59C916.679 584.758 910.022 581.09 902.549 582.313C896.435 583.264 892.088 588.019 889.234 596.307C886.517 604.595 885.974 615.056 887.74 627.828C889.506 640.463 893.174 651.332 898.473 660.435C903.908 669.538 910.158 674.429 917.358 674.973C924.559 675.652 929.586 671.44 932.168 662.609C934.885 653.642 935.157 641.278 933.119 625.654Z" fill="#A12256" fill-opacity="0.2"/>
<path d="M809.711 636.66H851.014C851.014 636.66 841.096 637.067 841.096 650.11V678.778C840.144 675.925 838.242 672.936 835.253 669.675C832.4 666.414 830.226 664.648 829.003 664.376C820.444 673.751 810.526 678.506 799.521 678.506C785.662 678.506 774.657 673.751 766.37 664.24C758.082 654.594 754.006 642.638 754.006 628.236C754.006 613.562 759.44 601.606 767.049 594.541C770.989 591.009 775.337 588.156 780.364 585.846C790.554 581.362 799.928 580.004 809.575 580.411C821.531 580.955 831.177 583.265 838.378 587.476V616.008C836.34 611.525 833.351 606.497 829.411 601.199C825.471 595.9 821.123 591.552 816.368 588.292C808.216 582.449 800.064 581.091 791.912 584.216C785.527 586.525 781.043 591.688 778.326 599.704C775.744 607.72 775.201 617.367 776.695 628.644C778.462 641.822 782.402 652.42 788.787 660.572C795.173 668.724 801.966 672.936 809.031 673.343C812.428 673.479 815.145 672.8 817.455 671.577C819.493 670.354 821.123 668.588 822.21 667.093C823.297 665.463 823.976 662.746 824.384 661.251C824.792 659.621 824.928 656.632 824.928 655.545V650.79V650.11C824.928 639.784 815.145 637.203 811.341 636.795L809.711 636.66Z" fill="#A12256" fill-opacity="0.2"/>
<path d="M723.843 726.226H754.005C745.989 727.992 739.332 733.698 733.897 743.073L719.088 769.974C717.322 773.371 716.371 778.262 716.371 784.919V806.25C716.371 812.364 718.952 817.119 722.349 818.886C726.017 820.652 727.919 821.195 729.957 821.331H681.453C683.22 821.331 685.529 820.788 688.79 819.022C692.187 817.255 694.768 812.772 694.768 806.794L694.904 788.724C694.904 782.066 693.545 776.496 690.964 772.284L672.079 741.307C665.557 730.845 657.405 726.226 653.193 726.226L701.561 726.361C693.817 726.497 689.741 733.698 693.953 741.443L709.442 767.936C712.567 773.507 715.691 773.235 718.952 767.121L732.131 743.48C737.158 734.378 734.169 727.448 723.843 726.226Z" fill="#A12256" fill-opacity="0.2"/>
<path d="M639.929 743.616V803.669C639.929 811.141 643.054 816.44 646.994 818.614C650.934 820.652 653.515 821.331 655.145 821.331H601.75C603.381 821.331 605.962 820.652 609.902 818.614C613.842 816.44 616.967 811.141 616.967 803.669V757.203C616.967 750.41 616.56 746.877 615.745 746.741C614.522 746.605 613.435 748.1 611.261 753.67L582.186 825L542.785 752.991C538.845 745.247 536.671 744.296 536.399 750.138V751.768L536.127 798.778C536.127 807.337 539.796 813.723 543.6 816.576C545.502 817.935 547.676 819.022 550.257 819.837C555.284 821.467 556.779 821.331 558.002 821.331H512.895C514.117 821.331 515.748 821.467 520.503 819.837C527.296 817.663 533.954 811.957 534.361 798.506V748.236C534.361 730.981 520.095 727.041 516.699 726.361L516.155 726.226H553.79L584.496 782.202C587.62 787.773 589.387 790.897 590.066 791.441C591.289 792.664 592.783 791.713 594.278 788.588C594.821 787.637 595.365 786.278 596.044 784.648L620.364 726.226H655.825C655.01 726.226 640.064 727.177 639.929 743.616Z" fill="#A12256" fill-opacity="0.2"/>
<path d="M460.593 725.003C476.218 725.003 488.581 731.117 495.51 740.492C502.575 749.866 505.972 761.415 505.836 773.915C505.429 798.642 489.261 822.962 456.381 822.554C440.757 822.418 427.85 815.489 420.649 805.707C413.448 795.925 409.644 784.24 410.051 772.828C410.187 758.562 415.078 747.013 424.453 738.182C433.963 729.351 446.055 724.867 460.593 725.003ZM480.429 770.654C478.799 758.018 475.131 747.421 469.56 738.59C463.99 729.758 457.332 726.09 449.86 727.313C443.746 728.264 439.398 733.019 436.545 741.307C433.828 749.595 433.284 760.056 435.05 772.828C436.817 785.463 440.485 796.332 445.784 805.435C451.218 814.538 457.468 819.429 464.669 819.973C471.87 820.652 476.897 816.44 479.478 807.609C482.196 798.642 482.467 786.278 480.429 770.654Z" fill="#A12256" fill-opacity="0.2"/>
<path d="M382.689 790.354L390.026 804.076C396.14 815.625 403.884 819.837 407.009 820.924L408.096 821.331H377.39C373.993 816.44 370.869 811.277 368.015 805.979L357.554 786.414C352.527 776.496 346.956 775.681 344.782 775.681H343.695L343.424 812.908C343.424 815.353 344.239 817.255 345.733 818.75C348.994 821.467 351.168 821.331 353.478 821.331H307.963C309.729 821.331 311.631 821.06 315.3 819.565C319.104 818.071 321.821 813.723 321.821 807.609V739.948C321.821 734.921 319.511 730.981 316.93 729.351C312.854 726.497 308.235 726.09 307.963 726.226C311.631 726.226 318.153 726.09 327.799 725.682C337.446 725.275 344.782 725.139 349.809 725.275C367.744 725.682 377.662 727.448 383.64 733.834C387.716 737.91 389.618 743.616 389.482 750.817C389.482 758.018 387.037 763.996 382.01 768.48C376.439 773.371 370.325 775.273 370.461 775.001C370.733 775.001 371.276 775.273 371.955 775.681C373.586 776.632 378.341 781.795 382.689 790.354ZM355.108 772.284C364.483 769.023 369.238 761.551 369.238 749.866C369.238 732.475 360.679 725.546 343.424 726.633L343.695 774.05C347.907 774.05 351.712 773.507 355.108 772.284Z" fill="#A12256" fill-opacity="0.2"/>
<path d="M288.884 790.354L296.221 804.076C302.335 815.625 310.079 819.837 313.204 820.924L314.291 821.331H283.585C280.189 816.44 277.064 811.277 274.211 805.979L263.749 786.414C258.722 776.496 253.152 775.681 250.978 775.681H249.891L249.619 812.908C249.619 815.353 250.434 817.255 251.929 818.75C255.19 821.467 257.363 821.331 259.673 821.331H214.158C215.924 821.331 217.827 821.06 221.495 819.565C225.299 818.071 228.016 813.723 228.016 807.609V739.948C228.016 734.921 225.707 730.981 223.125 729.351C219.049 726.497 214.43 726.09 214.158 726.226C217.827 726.226 224.348 726.09 233.995 725.682C243.641 725.275 250.978 725.139 256.005 725.275C273.939 725.682 283.857 727.448 289.835 733.834C293.911 737.91 295.813 743.616 295.677 750.817C295.677 758.018 293.232 763.996 288.205 768.48C282.634 773.371 276.52 775.273 276.656 775.001C276.928 775.001 277.471 775.273 278.151 775.681C279.781 776.632 284.536 781.795 288.884 790.354ZM261.303 772.284C270.678 769.023 275.433 761.551 275.433 749.866C275.433 732.475 266.874 725.546 249.619 726.633L249.891 774.05C254.103 774.05 257.907 773.507 261.303 772.284Z" fill="#A12256" fill-opacity="0.2"/>
<path d="M159.277 725.003C174.901 725.003 187.265 731.117 194.194 740.492C201.259 749.866 204.656 761.415 204.52 773.915C204.112 798.642 187.944 822.962 155.065 822.554C139.44 822.418 126.533 815.489 119.332 805.707C112.131 795.925 108.327 784.24 108.735 772.828C108.871 758.562 113.762 747.013 123.136 738.182C132.647 729.351 144.739 724.867 159.277 725.003ZM179.113 770.654C177.483 758.018 173.814 747.421 168.244 738.59C162.673 729.758 156.016 726.09 148.543 727.313C142.429 728.264 138.082 733.019 135.228 741.307C132.511 749.595 131.968 760.056 133.734 772.828C135.5 785.463 139.169 796.332 144.467 805.435C149.902 814.538 156.152 819.429 163.353 819.973C170.553 820.652 175.58 816.44 178.162 807.609C180.879 798.642 181.151 786.278 179.113 770.654Z" fill="#A12256" fill-opacity="0.2"/>
<path d="M55.7048 781.66H97.0078C97.0078 781.66 87.0897 782.067 87.0897 795.11V823.778C86.1386 820.925 84.2365 817.936 81.2474 814.675C78.3943 811.414 76.2204 809.648 74.9976 809.376C66.4381 818.751 56.52 823.506 45.5149 823.506C31.6566 823.506 20.6515 818.751 12.3637 809.24C4.07596 799.594 0 787.638 0 773.236C0 758.562 5.43461 746.606 13.0431 739.541C16.9832 736.009 21.3309 733.156 26.3579 730.846C36.5478 726.362 45.9225 725.004 55.5689 725.411C67.525 725.955 77.1715 728.265 84.3723 732.476V761.008C82.3344 756.525 79.3453 751.497 75.4052 746.199C71.4651 740.9 67.1175 736.552 62.3622 733.292C54.2102 727.449 46.0583 726.091 37.9064 729.216C31.5207 731.525 27.0372 736.688 24.3199 744.704C21.7384 752.72 21.195 762.367 22.6895 773.644C24.4558 786.822 28.3958 797.42 34.7815 805.572C41.1672 813.724 47.9604 817.936 55.0254 818.343C58.4221 818.479 61.1394 817.8 63.4491 816.577C65.4871 815.354 67.1175 813.588 68.2044 812.093C69.2913 810.463 69.9706 807.746 70.3782 806.251C70.7858 804.621 70.9217 801.632 70.9217 800.545V795.79V795.11C70.9217 784.784 61.1394 782.203 57.3352 781.795L55.7048 781.66Z" fill="#A12256" fill-opacity="0.2"/>
<path d="M1477.85 871.226H1508.01C1500 872.992 1493.34 878.698 1487.9 888.073L1473.09 914.974C1471.33 918.371 1470.38 923.262 1470.38 929.919V951.25C1470.38 957.364 1472.96 962.119 1476.35 963.886C1480.02 965.652 1481.93 966.195 1483.96 966.331H1435.46C1437.23 966.331 1439.54 965.788 1442.8 964.022C1446.19 962.255 1448.77 957.772 1448.77 951.794L1448.91 933.724C1448.91 927.066 1447.55 921.496 1444.97 917.284L1426.08 886.307C1419.56 875.845 1411.41 871.226 1407.2 871.226L1455.57 871.361C1447.82 871.497 1443.75 878.698 1447.96 886.443L1463.45 912.936C1466.57 918.507 1469.7 918.235 1472.96 912.121L1486.14 888.48C1491.16 879.378 1488.17 872.448 1477.85 871.226Z" fill="#A12256" fill-opacity="0.2"/>
<path d="M1393.93 888.616V948.669C1393.93 956.141 1397.06 961.44 1401 963.614C1404.94 965.652 1407.52 966.331 1409.15 966.331H1355.76C1357.39 966.331 1359.97 965.652 1363.91 963.614C1367.85 961.44 1370.97 956.141 1370.97 948.669V902.203C1370.97 895.41 1370.57 891.877 1369.75 891.741C1368.53 891.605 1367.44 893.1 1365.27 898.67L1336.19 970L1296.79 897.991C1292.85 890.247 1290.68 889.296 1290.41 895.138V896.768L1290.13 943.778C1290.13 952.337 1293.8 958.723 1297.61 961.576C1299.51 962.935 1301.68 964.022 1304.26 964.837C1309.29 966.467 1310.78 966.331 1312.01 966.331H1266.9C1268.12 966.331 1269.75 966.467 1274.51 964.837C1281.3 962.663 1287.96 956.957 1288.37 943.506V893.236C1288.37 875.981 1274.1 872.041 1270.7 871.361L1270.16 871.226H1307.8L1338.5 927.202C1341.63 932.773 1343.39 935.897 1344.07 936.441C1345.29 937.664 1346.79 936.713 1348.28 933.588C1348.83 932.637 1349.37 931.278 1350.05 929.648L1374.37 871.226H1409.83C1409.02 871.226 1394.07 872.177 1393.93 888.616Z" fill="#A12256" fill-opacity="0.2"/>
<path d="M1214.6 870.003C1230.22 870.003 1242.59 876.117 1249.52 885.492C1256.58 894.866 1259.98 906.415 1259.84 918.915C1259.43 943.642 1243.27 967.962 1210.39 967.554C1194.76 967.418 1181.86 960.489 1174.65 950.707C1167.45 940.925 1163.65 929.24 1164.06 917.828C1164.19 903.562 1169.08 892.013 1178.46 883.182C1187.97 874.351 1200.06 869.867 1214.6 870.003ZM1234.44 915.654C1232.8 903.018 1229.14 892.421 1223.57 883.59C1218 874.758 1211.34 871.09 1203.87 872.313C1197.75 873.264 1193.4 878.019 1190.55 886.307C1187.83 894.595 1187.29 905.056 1189.06 917.828C1190.82 930.463 1194.49 941.332 1199.79 950.435C1205.22 959.538 1211.47 964.429 1218.67 964.973C1225.88 965.652 1230.9 961.44 1233.48 952.609C1236.2 943.642 1236.47 931.278 1234.44 915.654Z" fill="#A12256" fill-opacity="0.2"/>
<path d="M1136.69 935.354L1144.03 949.076C1150.15 960.625 1157.89 964.837 1161.01 965.924L1162.1 966.331H1131.4C1128 961.44 1124.87 956.277 1122.02 950.979L1111.56 931.414C1106.53 921.496 1100.96 920.681 1098.79 920.681H1097.7L1097.43 957.908C1097.43 960.353 1098.24 962.255 1099.74 963.75C1103 966.467 1105.17 966.331 1107.48 966.331H1061.97C1063.73 966.331 1065.64 966.06 1069.31 964.565C1073.11 963.071 1075.83 958.723 1075.83 952.609V884.948C1075.83 879.921 1073.52 875.981 1070.94 874.351C1066.86 871.497 1062.24 871.09 1061.97 871.226C1065.64 871.226 1072.16 871.09 1081.81 870.682C1091.45 870.275 1098.79 870.139 1103.82 870.275C1121.75 870.682 1131.67 872.448 1137.65 878.834C1141.72 882.91 1143.62 888.616 1143.49 895.817C1143.49 903.018 1141.04 908.996 1136.02 913.48C1130.44 918.371 1124.33 920.273 1124.47 920.001C1124.74 920.001 1125.28 920.273 1125.96 920.681C1127.59 921.632 1132.35 926.795 1136.69 935.354ZM1109.11 917.284C1118.49 914.023 1123.24 906.551 1123.24 894.866C1123.24 877.475 1114.68 870.546 1097.43 871.633L1097.7 919.05C1101.91 919.05 1105.72 918.507 1109.11 917.284Z" fill="#A12256" fill-opacity="0.2"/>
<path d="M1042.89 935.354L1050.23 949.076C1056.34 960.625 1064.08 964.837 1067.21 965.924L1068.3 966.331H1037.59C1034.19 961.44 1031.07 956.277 1028.22 950.979L1017.75 931.414C1012.73 921.496 1007.16 920.681 1004.98 920.681H1003.9L1003.62 957.908C1003.62 960.353 1004.44 962.255 1005.93 963.75C1009.2 966.467 1011.37 966.331 1013.68 966.331H968.164C969.93 966.331 971.832 966.06 975.501 964.565C979.305 963.071 982.022 958.723 982.022 952.609V884.948C982.022 879.921 979.713 875.981 977.131 874.351C973.055 871.497 968.436 871.09 968.164 871.226C971.832 871.226 978.354 871.09 988 870.682C997.647 870.275 1004.98 870.139 1010.01 870.275C1027.94 870.682 1037.86 872.448 1043.84 878.834C1047.92 882.91 1049.82 888.616 1049.68 895.817C1049.68 903.018 1047.24 908.996 1042.21 913.48C1036.64 918.371 1030.53 920.273 1030.66 920.001C1030.93 920.001 1031.48 920.273 1032.16 920.681C1033.79 921.632 1038.54 926.795 1042.89 935.354ZM1015.31 917.284C1024.68 914.023 1029.44 906.551 1029.44 894.866C1029.44 877.475 1020.88 870.546 1003.62 871.633L1003.9 919.05C1008.11 919.05 1011.91 918.507 1015.31 917.284Z" fill="#A12256" fill-opacity="0.2"/>
<path d="M913.283 870.003C928.907 870.003 941.271 876.117 948.2 885.492C955.265 894.866 958.662 906.415 958.526 918.915C958.118 943.642 941.95 967.962 909.071 967.554C893.446 967.418 880.539 960.489 873.338 950.707C866.137 940.925 862.333 929.24 862.741 917.828C862.876 903.562 867.768 892.013 877.142 883.182C886.653 874.351 898.745 869.867 913.283 870.003ZM933.119 915.654C931.488 903.018 927.82 892.421 922.25 883.59C916.679 874.758 910.022 871.09 902.549 872.313C896.435 873.264 892.088 878.019 889.234 886.307C886.517 894.595 885.974 905.056 887.74 917.828C889.506 930.463 893.174 941.332 898.473 950.435C903.908 959.538 910.158 964.429 917.358 964.973C924.559 965.652 929.586 961.44 932.168 952.609C934.885 943.642 935.157 931.278 933.119 915.654Z" fill="#A12256" fill-opacity="0.2"/>
<path d="M809.711 926.66H851.014C851.014 926.66 841.096 927.067 841.096 940.11V968.778C840.144 965.925 838.242 962.936 835.253 959.675C832.4 956.414 830.226 954.648 829.003 954.376C820.444 963.751 810.526 968.506 799.521 968.506C785.662 968.506 774.657 963.751 766.37 954.24C758.082 944.594 754.006 932.638 754.006 918.236C754.006 903.562 759.44 891.606 767.049 884.541C770.989 881.009 775.337 878.156 780.364 875.846C790.554 871.362 799.928 870.004 809.575 870.411C821.531 870.955 831.177 873.265 838.378 877.476V906.008C836.34 901.525 833.351 896.497 829.411 891.199C825.471 885.9 821.123 881.552 816.368 878.292C808.216 872.449 800.064 871.091 791.912 874.216C785.527 876.525 781.043 881.688 778.326 889.704C775.744 897.72 775.201 907.367 776.695 918.644C778.462 931.822 782.402 942.42 788.787 950.572C795.173 958.724 801.966 962.936 809.031 963.343C812.428 963.479 815.145 962.8 817.455 961.577C819.493 960.354 821.123 958.588 822.21 957.093C823.297 955.463 823.976 952.746 824.384 951.251C824.792 949.621 824.928 946.632 824.928 945.545V940.79V940.11C824.928 929.784 815.145 927.203 811.341 926.795L809.711 926.66Z" fill="#A12256" fill-opacity="0.2"/>
</svg>
