<svg width="755" height="1260" viewBox="0 0 755 1260" fill="none" xmlns="http://www.w3.org/2000/svg">
<path d="M723.849 146.226H754.011C745.995 147.992 739.338 153.698 733.903 163.073L719.094 189.974C717.328 193.371 716.377 198.262 716.377 204.919V226.25C716.377 232.364 718.958 237.119 722.355 238.886C726.023 240.652 727.925 241.195 729.963 241.331H681.459C683.225 241.331 685.535 240.788 688.796 239.022C692.193 237.255 694.774 232.772 694.774 226.794L694.91 208.724C694.91 202.066 693.551 196.496 690.97 192.284L672.085 161.307C665.563 150.845 657.411 146.226 653.199 146.226L701.567 146.361C693.823 146.497 689.747 153.698 693.959 161.443L709.447 187.936C712.572 193.507 715.697 193.235 718.958 187.121L732.137 163.48C737.164 154.378 734.175 147.448 723.849 146.226Z" fill="#55142E" fill-opacity="0.3"/>
<path d="M639.934 163.616V223.669C639.934 231.141 643.059 236.44 646.999 238.614C650.94 240.652 653.521 241.331 655.151 241.331H601.756C603.387 241.331 605.968 240.652 609.908 238.614C613.848 236.44 616.973 231.141 616.973 223.669V177.203C616.973 170.41 616.566 166.877 615.75 166.741C614.528 166.605 613.441 168.1 611.267 173.67L582.192 245L542.791 172.991C538.851 165.247 536.677 164.296 536.405 170.138V171.768L536.133 218.778C536.133 227.337 539.802 233.723 543.606 236.576C545.508 237.935 547.682 239.022 550.263 239.837C555.29 241.467 556.785 241.331 558.008 241.331H512.9C514.123 241.331 515.754 241.467 520.509 239.837C527.302 237.663 533.96 231.957 534.367 218.506V168.236C534.367 150.981 520.101 147.041 516.705 146.361L516.161 146.226H553.796L584.501 202.202C587.626 207.773 589.393 210.897 590.072 211.441C591.295 212.664 592.789 211.713 594.284 208.588C594.827 207.637 595.371 206.278 596.05 204.648L620.37 146.226H655.831C655.015 146.226 640.07 147.177 639.934 163.616Z" fill="#55142E" fill-opacity="0.3"/>
<path d="M460.599 145.003C476.223 145.003 488.587 151.117 495.516 160.492C502.581 169.866 505.978 181.415 505.842 193.915C505.434 218.642 489.266 242.962 456.387 242.554C440.763 242.418 427.855 235.489 420.655 225.707C413.454 215.925 409.649 204.24 410.057 192.828C410.193 178.562 415.084 167.013 424.459 158.182C433.969 149.351 446.061 144.867 460.599 145.003ZM480.435 190.654C478.805 178.018 475.137 167.421 469.566 158.59C463.996 149.758 457.338 146.09 449.866 147.313C443.752 148.264 439.404 153.019 436.551 161.307C433.833 169.595 433.29 180.056 435.056 192.828C436.822 205.463 440.491 216.332 445.79 225.435C451.224 234.538 457.474 239.429 464.675 239.973C471.876 240.652 476.903 236.44 479.484 227.609C482.201 218.642 482.473 206.278 480.435 190.654Z" fill="#55142E" fill-opacity="0.3"/>
<path d="M382.695 210.354L390.031 224.076C396.145 235.625 403.89 239.837 407.015 240.924L408.101 241.331H377.396C373.999 236.44 370.874 231.277 368.021 225.979L357.56 206.414C352.533 196.496 346.962 195.681 344.788 195.681H343.701L343.43 232.908C343.43 235.353 344.245 237.255 345.739 238.75C349 241.467 351.174 241.331 353.484 241.331H307.969C309.735 241.331 311.637 241.06 315.305 239.565C319.11 238.071 321.827 233.723 321.827 227.609V159.948C321.827 154.921 319.517 150.981 316.936 149.351C312.86 146.497 308.24 146.09 307.969 146.226C311.637 146.226 318.159 146.09 327.805 145.682C337.452 145.275 344.788 145.139 349.815 145.275C367.749 145.682 377.668 147.448 383.646 153.834C387.722 157.91 389.624 163.616 389.488 170.817C389.488 178.018 387.042 183.996 382.015 188.48C376.445 193.371 370.331 195.273 370.467 195.001C370.739 195.001 371.282 195.273 371.961 195.681C373.592 196.632 378.347 201.795 382.695 210.354ZM355.114 192.284C364.489 189.023 369.244 181.551 369.244 169.866C369.244 152.475 360.685 145.546 343.43 146.633L343.701 194.05C347.913 194.05 351.717 193.507 355.114 192.284Z" fill="#55142E" fill-opacity="0.3"/>
<path d="M288.89 210.354L296.227 224.076C302.341 235.625 310.085 239.837 313.21 240.924L314.297 241.331H283.591C280.195 236.44 277.07 231.277 274.217 225.979L263.755 206.414C258.728 196.496 253.157 195.681 250.984 195.681H249.897L249.625 232.908C249.625 235.353 250.44 237.255 251.935 238.75C255.195 241.467 257.369 241.331 259.679 241.331H214.164C215.93 241.331 217.832 241.06 221.501 239.565C225.305 238.071 228.022 233.723 228.022 227.609V159.948C228.022 154.921 225.713 150.981 223.131 149.351C219.055 146.497 214.436 146.09 214.164 146.226C217.832 146.226 224.354 146.09 234 145.682C243.647 145.275 250.984 145.139 256.011 145.275C273.945 145.682 283.863 147.448 289.841 153.834C293.917 157.91 295.819 163.616 295.683 170.817C295.683 178.018 293.238 183.996 288.211 188.48C282.64 193.371 276.526 195.273 276.662 195.001C276.934 195.001 277.477 195.273 278.157 195.681C279.787 196.632 284.542 201.795 288.89 210.354ZM261.309 192.284C270.684 189.023 275.439 181.551 275.439 169.866C275.439 152.475 266.88 145.546 249.625 146.633L249.897 194.05C254.108 194.05 257.913 193.507 261.309 192.284Z" fill="#55142E" fill-opacity="0.3"/>
<path d="M159.283 145.003C174.907 145.003 187.271 151.117 194.2 160.492C201.265 169.866 204.662 181.415 204.526 193.915C204.118 218.642 187.95 242.962 155.071 242.554C139.446 242.418 126.539 235.489 119.338 225.707C112.137 215.925 108.333 204.24 108.741 192.828C108.876 178.562 113.768 167.013 123.142 158.182C132.653 149.351 144.745 144.867 159.283 145.003ZM179.119 190.654C177.488 178.018 173.82 167.421 168.25 158.59C162.679 149.758 156.022 146.09 148.549 147.313C142.435 148.264 138.088 153.019 135.234 161.307C132.517 169.595 131.974 180.056 133.74 192.828C135.506 205.463 139.174 216.332 144.473 225.435C149.908 234.538 156.158 239.429 163.358 239.973C170.559 240.652 175.586 236.44 178.168 227.609C180.885 218.642 181.157 206.278 179.119 190.654Z" fill="#55142E" fill-opacity="0.3"/>
<path d="M55.7106 201.66H97.0137C97.0137 201.66 87.0955 202.067 87.0955 215.11V243.778C86.1445 240.925 84.2423 237.936 81.2533 234.675C78.4001 231.414 76.2263 229.648 75.0035 229.376C66.444 238.751 56.5258 243.506 45.5207 243.506C31.6625 243.506 20.6574 238.751 12.3696 229.24C4.08182 219.594 0.00585938 207.638 0.00585938 193.236C0.00585938 178.562 5.44047 166.606 13.0489 159.541C16.989 156.009 21.3367 153.156 26.3637 150.846C36.5536 146.362 45.9283 145.004 55.5748 145.411C67.5309 145.955 77.1773 148.265 84.3782 152.476V181.008C82.3402 176.525 79.3512 171.497 75.4111 166.199C71.471 160.9 67.1233 156.552 62.368 153.292C54.2161 147.449 46.0642 146.091 37.9123 149.216C31.5266 151.525 27.0431 156.688 24.3257 164.704C21.7443 172.72 21.2008 182.367 22.6954 193.644C24.4616 206.822 28.4017 217.42 34.7874 225.572C41.173 233.724 47.9663 237.936 55.0313 238.343C58.4279 238.479 61.1452 237.8 63.455 236.577C65.4929 235.354 67.1233 233.588 68.2102 232.093C69.2972 230.463 69.9765 227.746 70.3841 226.251C70.7917 224.621 70.9275 221.632 70.9275 220.545V215.79V215.11C70.9275 204.784 61.1452 202.203 57.341 201.795L55.7106 201.66Z" fill="#55142E" fill-opacity="0.3"/>
<path d="M723.849 436.226H754.011C745.995 437.992 739.338 443.698 733.903 453.073L719.094 479.974C717.328 483.371 716.377 488.262 716.377 494.919V516.25C716.377 522.364 718.958 527.119 722.355 528.886C726.023 530.652 727.925 531.195 729.963 531.331H681.459C683.225 531.331 685.535 530.788 688.796 529.022C692.193 527.255 694.774 522.772 694.774 516.794L694.91 498.724C694.91 492.066 693.551 486.496 690.97 482.284L672.085 451.307C665.563 440.845 657.411 436.226 653.199 436.226L701.567 436.361C693.823 436.497 689.747 443.698 693.959 451.443L709.447 477.936C712.572 483.507 715.697 483.235 718.958 477.121L732.137 453.48C737.164 444.378 734.175 437.448 723.849 436.226Z" fill="#55142E" fill-opacity="0.3"/>
<path d="M639.934 453.616V513.669C639.934 521.141 643.059 526.44 646.999 528.614C650.94 530.652 653.521 531.331 655.151 531.331H601.756C603.387 531.331 605.968 530.652 609.908 528.614C613.848 526.44 616.973 521.141 616.973 513.669V467.203C616.973 460.41 616.566 456.877 615.75 456.741C614.528 456.605 613.441 458.1 611.267 463.67L582.192 535L542.791 462.991C538.851 455.247 536.677 454.296 536.405 460.138V461.768L536.133 508.778C536.133 517.337 539.802 523.723 543.606 526.576C545.508 527.935 547.682 529.022 550.263 529.837C555.29 531.467 556.785 531.331 558.008 531.331H512.9C514.123 531.331 515.754 531.467 520.509 529.837C527.302 527.663 533.96 521.957 534.367 508.506V458.236C534.367 440.981 520.101 437.041 516.705 436.361L516.161 436.226H553.796L584.501 492.202C587.626 497.773 589.393 500.897 590.072 501.441C591.295 502.664 592.789 501.713 594.284 498.588C594.827 497.637 595.371 496.278 596.05 494.648L620.37 436.226H655.831C655.015 436.226 640.07 437.177 639.934 453.616Z" fill="#55142E" fill-opacity="0.3"/>
<path d="M460.599 435.003C476.223 435.003 488.587 441.117 495.516 450.492C502.581 459.866 505.978 471.415 505.842 483.915C505.434 508.642 489.266 532.962 456.387 532.554C440.763 532.418 427.855 525.489 420.655 515.707C413.454 505.925 409.649 494.24 410.057 482.828C410.193 468.562 415.084 457.013 424.459 448.182C433.969 439.351 446.061 434.867 460.599 435.003ZM480.435 480.654C478.805 468.018 475.137 457.421 469.566 448.59C463.996 439.758 457.338 436.09 449.866 437.313C443.752 438.264 439.404 443.019 436.551 451.307C433.833 459.595 433.29 470.056 435.056 482.828C436.822 495.463 440.491 506.332 445.79 515.435C451.224 524.538 457.474 529.429 464.675 529.973C471.876 530.652 476.903 526.44 479.484 517.609C482.201 508.642 482.473 496.278 480.435 480.654Z" fill="#55142E" fill-opacity="0.3"/>
<path d="M382.695 500.354L390.031 514.076C396.145 525.625 403.89 529.837 407.015 530.924L408.101 531.331H377.396C373.999 526.44 370.874 521.277 368.021 515.979L357.56 496.414C352.533 486.496 346.962 485.681 344.788 485.681H343.701L343.43 522.908C343.43 525.353 344.245 527.255 345.739 528.75C349 531.467 351.174 531.331 353.484 531.331H307.969C309.735 531.331 311.637 531.06 315.305 529.565C319.11 528.071 321.827 523.723 321.827 517.609V449.948C321.827 444.921 319.517 440.981 316.936 439.351C312.86 436.497 308.24 436.09 307.969 436.226C311.637 436.226 318.159 436.09 327.805 435.682C337.452 435.275 344.788 435.139 349.815 435.275C367.749 435.682 377.668 437.448 383.646 443.834C387.722 447.91 389.624 453.616 389.488 460.817C389.488 468.018 387.042 473.996 382.015 478.48C376.445 483.371 370.331 485.273 370.467 485.001C370.739 485.001 371.282 485.273 371.961 485.681C373.592 486.632 378.347 491.795 382.695 500.354ZM355.114 482.284C364.489 479.023 369.244 471.551 369.244 459.866C369.244 442.475 360.685 435.546 343.43 436.633L343.701 484.05C347.913 484.05 351.717 483.507 355.114 482.284Z" fill="#55142E" fill-opacity="0.3"/>
<path d="M288.89 500.354L296.227 514.076C302.341 525.625 310.085 529.837 313.21 530.924L314.297 531.331H283.591C280.195 526.44 277.07 521.277 274.217 515.979L263.755 496.414C258.728 486.496 253.157 485.681 250.984 485.681H249.897L249.625 522.908C249.625 525.353 250.44 527.255 251.935 528.75C255.195 531.467 257.369 531.331 259.679 531.331H214.164C215.93 531.331 217.832 531.06 221.501 529.565C225.305 528.071 228.022 523.723 228.022 517.609V449.948C228.022 444.921 225.713 440.981 223.131 439.351C219.055 436.497 214.436 436.09 214.164 436.226C217.832 436.226 224.354 436.09 234 435.682C243.647 435.275 250.984 435.139 256.011 435.275C273.945 435.682 283.863 437.448 289.841 443.834C293.917 447.91 295.819 453.616 295.683 460.817C295.683 468.018 293.238 473.996 288.211 478.48C282.64 483.371 276.526 485.273 276.662 485.001C276.934 485.001 277.477 485.273 278.157 485.681C279.787 486.632 284.542 491.795 288.89 500.354ZM261.309 482.284C270.684 479.023 275.439 471.551 275.439 459.866C275.439 442.475 266.88 435.546 249.625 436.633L249.897 484.05C254.108 484.05 257.913 483.507 261.309 482.284Z" fill="#55142E" fill-opacity="0.3"/>
<path d="M159.283 435.003C174.907 435.003 187.271 441.117 194.2 450.492C201.265 459.866 204.662 471.415 204.526 483.915C204.118 508.642 187.95 532.962 155.071 532.554C139.446 532.418 126.539 525.489 119.338 515.707C112.137 505.925 108.333 494.24 108.741 482.828C108.876 468.562 113.768 457.013 123.142 448.182C132.653 439.351 144.745 434.867 159.283 435.003ZM179.119 480.654C177.488 468.018 173.82 457.421 168.25 448.59C162.679 439.758 156.022 436.09 148.549 437.313C142.435 438.264 138.088 443.019 135.234 451.307C132.517 459.595 131.974 470.056 133.74 482.828C135.506 495.463 139.174 506.332 144.473 515.435C149.908 524.538 156.158 529.429 163.358 529.973C170.559 530.652 175.586 526.44 178.168 517.609C180.885 508.642 181.157 496.278 179.119 480.654Z" fill="#55142E" fill-opacity="0.3"/>
<path d="M55.7106 491.66H97.0137C97.0137 491.66 87.0955 492.067 87.0955 505.11V533.778C86.1445 530.925 84.2423 527.936 81.2533 524.675C78.4001 521.414 76.2263 519.648 75.0035 519.376C66.444 528.751 56.5258 533.506 45.5207 533.506C31.6625 533.506 20.6574 528.751 12.3696 519.24C4.08182 509.594 0.00585938 497.638 0.00585938 483.236C0.00585938 468.562 5.44047 456.606 13.0489 449.541C16.989 446.009 21.3367 443.156 26.3637 440.846C36.5536 436.362 45.9283 435.004 55.5748 435.411C67.5309 435.955 77.1773 438.265 84.3782 442.476V471.008C82.3402 466.525 79.3512 461.497 75.4111 456.199C71.471 450.9 67.1233 446.552 62.368 443.292C54.2161 437.449 46.0642 436.091 37.9123 439.216C31.5266 441.525 27.0431 446.688 24.3257 454.704C21.7443 462.72 21.2008 472.367 22.6954 483.644C24.4616 496.822 28.4017 507.42 34.7874 515.572C41.173 523.724 47.9663 527.936 55.0313 528.343C58.4279 528.479 61.1452 527.8 63.455 526.577C65.4929 525.354 67.1233 523.588 68.2102 522.093C69.2972 520.463 69.9765 517.746 70.3841 516.251C70.7917 514.621 70.9275 511.632 70.9275 510.545V505.79V505.11C70.9275 494.784 61.1452 492.203 57.341 491.795L55.7106 491.66Z" fill="#55142E" fill-opacity="0.3"/>
<path d="M723.849 726.226H754.011C745.995 727.992 739.338 733.698 733.903 743.073L719.094 769.974C717.328 773.371 716.377 778.262 716.377 784.919V806.25C716.377 812.364 718.958 817.119 722.355 818.886C726.023 820.652 727.925 821.195 729.963 821.331H681.459C683.225 821.331 685.535 820.788 688.796 819.022C692.193 817.255 694.774 812.772 694.774 806.794L694.91 788.724C694.91 782.066 693.551 776.496 690.97 772.284L672.085 741.307C665.563 730.845 657.411 726.226 653.199 726.226L701.567 726.361C693.823 726.497 689.747 733.698 693.959 741.443L709.447 767.936C712.572 773.507 715.697 773.235 718.958 767.121L732.137 743.48C737.164 734.378 734.175 727.448 723.849 726.226Z" fill="#55142E" fill-opacity="0.3"/>
<path d="M639.934 743.616V803.669C639.934 811.141 643.059 816.44 646.999 818.614C650.94 820.652 653.521 821.331 655.151 821.331H601.756C603.387 821.331 605.968 820.652 609.908 818.614C613.848 816.44 616.973 811.141 616.973 803.669V757.203C616.973 750.41 616.566 746.877 615.75 746.741C614.528 746.605 613.441 748.1 611.267 753.67L582.192 825L542.791 752.991C538.851 745.247 536.677 744.296 536.405 750.138V751.768L536.133 798.778C536.133 807.337 539.802 813.723 543.606 816.576C545.508 817.935 547.682 819.022 550.263 819.837C555.29 821.467 556.785 821.331 558.008 821.331H512.9C514.123 821.331 515.754 821.467 520.509 819.837C527.302 817.663 533.96 811.957 534.367 798.506V748.236C534.367 730.981 520.101 727.041 516.705 726.361L516.161 726.226H553.796L584.501 782.202C587.626 787.773 589.393 790.897 590.072 791.441C591.295 792.664 592.789 791.713 594.284 788.588C594.827 787.637 595.371 786.278 596.05 784.648L620.37 726.226H655.831C655.015 726.226 640.07 727.177 639.934 743.616Z" fill="#55142E" fill-opacity="0.3"/>
<path d="M460.599 725.003C476.223 725.003 488.587 731.117 495.516 740.492C502.581 749.866 505.978 761.415 505.842 773.915C505.434 798.642 489.266 822.962 456.387 822.554C440.763 822.418 427.855 815.489 420.655 805.707C413.454 795.925 409.649 784.24 410.057 772.828C410.193 758.562 415.084 747.013 424.459 738.182C433.969 729.351 446.061 724.867 460.599 725.003ZM480.435 770.654C478.805 758.018 475.137 747.421 469.566 738.59C463.996 729.758 457.338 726.09 449.866 727.313C443.752 728.264 439.404 733.019 436.551 741.307C433.833 749.595 433.29 760.056 435.056 772.828C436.822 785.463 440.491 796.332 445.79 805.435C451.224 814.538 457.474 819.429 464.675 819.973C471.876 820.652 476.903 816.44 479.484 807.609C482.201 798.642 482.473 786.278 480.435 770.654Z" fill="#55142E" fill-opacity="0.3"/>
<path d="M382.695 790.354L390.031 804.076C396.145 815.625 403.89 819.837 407.015 820.924L408.101 821.331H377.396C373.999 816.44 370.874 811.277 368.021 805.979L357.56 786.414C352.533 776.496 346.962 775.681 344.788 775.681H343.701L343.43 812.908C343.43 815.353 344.245 817.255 345.739 818.75C349 821.467 351.174 821.331 353.484 821.331H307.969C309.735 821.331 311.637 821.06 315.305 819.565C319.11 818.071 321.827 813.723 321.827 807.609V739.948C321.827 734.921 319.517 730.981 316.936 729.351C312.86 726.497 308.24 726.09 307.969 726.226C311.637 726.226 318.159 726.09 327.805 725.682C337.452 725.275 344.788 725.139 349.815 725.275C367.749 725.682 377.668 727.448 383.646 733.834C387.722 737.91 389.624 743.616 389.488 750.817C389.488 758.018 387.042 763.996 382.015 768.48C376.445 773.371 370.331 775.273 370.467 775.001C370.739 775.001 371.282 775.273 371.961 775.681C373.592 776.632 378.347 781.795 382.695 790.354ZM355.114 772.284C364.489 769.023 369.244 761.551 369.244 749.866C369.244 732.475 360.685 725.546 343.43 726.633L343.701 774.05C347.913 774.05 351.717 773.507 355.114 772.284Z" fill="#55142E" fill-opacity="0.3"/>
<path d="M288.89 790.354L296.227 804.076C302.341 815.625 310.085 819.837 313.21 820.924L314.297 821.331H283.591C280.195 816.44 277.07 811.277 274.217 805.979L263.755 786.414C258.728 776.496 253.157 775.681 250.984 775.681H249.897L249.625 812.908C249.625 815.353 250.44 817.255 251.935 818.75C255.195 821.467 257.369 821.331 259.679 821.331H214.164C215.93 821.331 217.832 821.06 221.501 819.565C225.305 818.071 228.022 813.723 228.022 807.609V739.948C228.022 734.921 225.713 730.981 223.131 729.351C219.055 726.497 214.436 726.09 214.164 726.226C217.832 726.226 224.354 726.09 234 725.682C243.647 725.275 250.984 725.139 256.011 725.275C273.945 725.682 283.863 727.448 289.841 733.834C293.917 737.91 295.819 743.616 295.683 750.817C295.683 758.018 293.238 763.996 288.211 768.48C282.64 773.371 276.526 775.273 276.662 775.001C276.934 775.001 277.477 775.273 278.157 775.681C279.787 776.632 284.542 781.795 288.89 790.354ZM261.309 772.284C270.684 769.023 275.439 761.551 275.439 749.866C275.439 732.475 266.88 725.546 249.625 726.633L249.897 774.05C254.108 774.05 257.913 773.507 261.309 772.284Z" fill="#55142E" fill-opacity="0.3"/>
<path d="M159.283 725.003C174.907 725.003 187.271 731.117 194.2 740.492C201.265 749.866 204.662 761.415 204.526 773.915C204.118 798.642 187.95 822.962 155.071 822.554C139.446 822.418 126.539 815.489 119.338 805.707C112.137 795.925 108.333 784.24 108.741 772.828C108.876 758.562 113.768 747.013 123.142 738.182C132.653 729.351 144.745 724.867 159.283 725.003ZM179.119 770.654C177.488 758.018 173.82 747.421 168.25 738.59C162.679 729.758 156.022 726.09 148.549 727.313C142.435 728.264 138.088 733.019 135.234 741.307C132.517 749.595 131.974 760.056 133.74 772.828C135.506 785.463 139.174 796.332 144.473 805.435C149.908 814.538 156.158 819.429 163.358 819.973C170.559 820.652 175.586 816.44 178.168 807.609C180.885 798.642 181.157 786.278 179.119 770.654Z" fill="#55142E" fill-opacity="0.3"/>
<path d="M55.7106 781.66H97.0137C97.0137 781.66 87.0955 782.067 87.0955 795.11V823.778C86.1445 820.925 84.2423 817.936 81.2533 814.675C78.4001 811.414 76.2263 809.648 75.0035 809.376C66.444 818.751 56.5258 823.506 45.5207 823.506C31.6625 823.506 20.6574 818.751 12.3696 809.24C4.08182 799.594 0.00585938 787.638 0.00585938 773.236C0.00585938 758.562 5.44047 746.606 13.0489 739.541C16.989 736.009 21.3367 733.156 26.3637 730.846C36.5536 726.362 45.9283 725.004 55.5748 725.411C67.5309 725.955 77.1773 728.265 84.3782 732.476V761.008C82.3402 756.525 79.3512 751.497 75.4111 746.199C71.471 740.9 67.1233 736.552 62.368 733.292C54.2161 727.449 46.0642 726.091 37.9123 729.216C31.5266 731.525 27.0431 736.688 24.3257 744.704C21.7443 752.72 21.2008 762.367 22.6954 773.644C24.4616 786.822 28.4017 797.42 34.7874 805.572C41.173 813.724 47.9663 817.936 55.0313 818.343C58.4279 818.479 61.1452 817.8 63.455 816.577C65.4929 815.354 67.1233 813.588 68.2102 812.093C69.2972 810.463 69.9765 807.746 70.3841 806.251C70.7917 804.621 70.9275 801.632 70.9275 800.545V795.79V795.11C70.9275 784.784 61.1452 782.203 57.341 781.795L55.7106 781.66Z" fill="#55142E" fill-opacity="0.3"/>
<path d="M723.849 1016.23H754.011C745.995 1017.99 739.338 1023.7 733.903 1033.07L719.094 1059.97C717.328 1063.37 716.377 1068.26 716.377 1074.92V1096.25C716.377 1102.36 718.958 1107.12 722.355 1108.89C726.023 1110.65 727.925 1111.2 729.963 1111.33H681.459C683.225 1111.33 685.535 1110.79 688.796 1109.02C692.193 1107.26 694.774 1102.77 694.774 1096.79L694.91 1078.72C694.91 1072.07 693.551 1066.5 690.97 1062.28L672.085 1031.31C665.563 1020.85 657.411 1016.23 653.199 1016.23L701.567 1016.36C693.823 1016.5 689.747 1023.7 693.959 1031.44L709.447 1057.94C712.572 1063.51 715.697 1063.23 718.958 1057.12L732.137 1033.48C737.164 1024.38 734.175 1017.45 723.849 1016.23Z" fill="#55142E" fill-opacity="0.3"/>
<path d="M639.934 1033.62V1093.67C639.934 1101.14 643.059 1106.44 646.999 1108.61C650.94 1110.65 653.521 1111.33 655.151 1111.33H601.756C603.387 1111.33 605.968 1110.65 609.908 1108.61C613.848 1106.44 616.973 1101.14 616.973 1093.67V1047.2C616.973 1040.41 616.566 1036.88 615.75 1036.74C614.528 1036.61 613.441 1038.1 611.267 1043.67L582.192 1115L542.791 1042.99C538.851 1035.25 536.677 1034.3 536.405 1040.14V1041.77L536.133 1088.78C536.133 1097.34 539.802 1103.72 543.606 1106.58C545.508 1107.93 547.682 1109.02 550.263 1109.84C555.29 1111.47 556.785 1111.33 558.008 1111.33H512.9C514.123 1111.33 515.754 1111.47 520.509 1109.84C527.302 1107.66 533.96 1101.96 534.367 1088.51V1038.24C534.367 1020.98 520.101 1017.04 516.705 1016.36L516.161 1016.23H553.796L584.501 1072.2C587.626 1077.77 589.393 1080.9 590.072 1081.44C591.295 1082.66 592.789 1081.71 594.284 1078.59C594.827 1077.64 595.371 1076.28 596.05 1074.65L620.37 1016.23H655.831C655.015 1016.23 640.07 1017.18 639.934 1033.62Z" fill="#55142E" fill-opacity="0.3"/>
<path d="M460.599 1015C476.223 1015 488.587 1021.12 495.516 1030.49C502.581 1039.87 505.978 1051.41 505.842 1063.91C505.434 1088.64 489.266 1112.96 456.387 1112.55C440.763 1112.42 427.855 1105.49 420.655 1095.71C413.454 1085.92 409.649 1074.24 410.057 1062.83C410.193 1048.56 415.084 1037.01 424.459 1028.18C433.969 1019.35 446.061 1014.87 460.599 1015ZM480.435 1060.65C478.805 1048.02 475.137 1037.42 469.566 1028.59C463.996 1019.76 457.338 1016.09 449.866 1017.31C443.752 1018.26 439.404 1023.02 436.551 1031.31C433.833 1039.59 433.29 1050.06 435.056 1062.83C436.822 1075.46 440.491 1086.33 445.79 1095.44C451.224 1104.54 457.474 1109.43 464.675 1109.97C471.876 1110.65 476.903 1106.44 479.484 1097.61C482.201 1088.64 482.473 1076.28 480.435 1060.65Z" fill="#55142E" fill-opacity="0.3"/>
<path d="M382.695 1080.35L390.031 1094.08C396.145 1105.62 403.89 1109.84 407.015 1110.92L408.101 1111.33H377.396C373.999 1106.44 370.874 1101.28 368.021 1095.98L357.56 1076.41C352.533 1066.5 346.962 1065.68 344.788 1065.68H343.701L343.43 1102.91C343.43 1105.35 344.245 1107.26 345.739 1108.75C349 1111.47 351.174 1111.33 353.484 1111.33H307.969C309.735 1111.33 311.637 1111.06 315.305 1109.57C319.11 1108.07 321.827 1103.72 321.827 1097.61V1029.95C321.827 1024.92 319.517 1020.98 316.936 1019.35C312.86 1016.5 308.24 1016.09 307.969 1016.23C311.637 1016.23 318.159 1016.09 327.805 1015.68C337.452 1015.27 344.788 1015.14 349.815 1015.27C367.749 1015.68 377.668 1017.45 383.646 1023.83C387.722 1027.91 389.624 1033.62 389.488 1040.82C389.488 1048.02 387.042 1054 382.015 1058.48C376.445 1063.37 370.331 1065.27 370.467 1065C370.739 1065 371.282 1065.27 371.961 1065.68C373.592 1066.63 378.347 1071.79 382.695 1080.35ZM355.114 1062.28C364.489 1059.02 369.244 1051.55 369.244 1039.87C369.244 1022.48 360.685 1015.55 343.43 1016.63L343.701 1064.05C347.913 1064.05 351.717 1063.51 355.114 1062.28Z" fill="#55142E" fill-opacity="0.3"/>
<path d="M288.89 1080.35L296.227 1094.08C302.341 1105.62 310.085 1109.84 313.21 1110.92L314.297 1111.33H283.591C280.195 1106.44 277.07 1101.28 274.217 1095.98L263.755 1076.41C258.728 1066.5 253.157 1065.68 250.984 1065.68H249.897L249.625 1102.91C249.625 1105.35 250.44 1107.26 251.935 1108.75C255.195 1111.47 257.369 1111.33 259.679 1111.33H214.164C215.93 1111.33 217.832 1111.06 221.501 1109.57C225.305 1108.07 228.022 1103.72 228.022 1097.61V1029.95C228.022 1024.92 225.713 1020.98 223.131 1019.35C219.055 1016.5 214.436 1016.09 214.164 1016.23C217.832 1016.23 224.354 1016.09 234 1015.68C243.647 1015.27 250.984 1015.14 256.011 1015.27C273.945 1015.68 283.863 1017.45 289.841 1023.83C293.917 1027.91 295.819 1033.62 295.683 1040.82C295.683 1048.02 293.238 1054 288.211 1058.48C282.64 1063.37 276.526 1065.27 276.662 1065C276.934 1065 277.477 1065.27 278.157 1065.68C279.787 1066.63 284.542 1071.79 288.89 1080.35ZM261.309 1062.28C270.684 1059.02 275.439 1051.55 275.439 1039.87C275.439 1022.48 266.88 1015.55 249.625 1016.63L249.897 1064.05C254.108 1064.05 257.913 1063.51 261.309 1062.28Z" fill="#55142E" fill-opacity="0.3"/>
<path d="M159.283 1015C174.907 1015 187.271 1021.12 194.2 1030.49C201.265 1039.87 204.662 1051.41 204.526 1063.91C204.118 1088.64 187.95 1112.96 155.071 1112.55C139.446 1112.42 126.539 1105.49 119.338 1095.71C112.137 1085.92 108.333 1074.24 108.741 1062.83C108.876 1048.56 113.768 1037.01 123.142 1028.18C132.653 1019.35 144.745 1014.87 159.283 1015ZM179.119 1060.65C177.488 1048.02 173.82 1037.42 168.25 1028.59C162.679 1019.76 156.022 1016.09 148.549 1017.31C142.435 1018.26 138.088 1023.02 135.234 1031.31C132.517 1039.59 131.974 1050.06 133.74 1062.83C135.506 1075.46 139.174 1086.33 144.473 1095.44C149.908 1104.54 156.158 1109.43 163.358 1109.97C170.559 1110.65 175.586 1106.44 178.168 1097.61C180.885 1088.64 181.157 1076.28 179.119 1060.65Z" fill="#55142E" fill-opacity="0.3"/>
<path d="M55.7106 1071.66H97.0137C97.0137 1071.66 87.0955 1072.07 87.0955 1085.11V1113.78C86.1445 1110.92 84.2423 1107.94 81.2533 1104.67C78.4001 1101.41 76.2263 1099.65 75.0035 1099.38C66.444 1108.75 56.5258 1113.51 45.5207 1113.51C31.6625 1113.51 20.6574 1108.75 12.3696 1099.24C4.08182 1089.59 0.00585938 1077.64 0.00585938 1063.24C0.00585938 1048.56 5.44047 1036.61 13.0489 1029.54C16.989 1026.01 21.3367 1023.16 26.3637 1020.85C36.5536 1016.36 45.9283 1015 55.5748 1015.41C67.5309 1015.95 77.1773 1018.26 84.3782 1022.48V1051.01C82.3402 1046.52 79.3512 1041.5 75.4111 1036.2C71.471 1030.9 67.1233 1026.55 62.368 1023.29C54.2161 1017.45 46.0642 1016.09 37.9123 1019.22C31.5266 1021.53 27.0431 1026.69 24.3257 1034.7C21.7443 1042.72 21.2008 1052.37 22.6954 1063.64C24.4616 1076.82 28.4017 1087.42 34.7874 1095.57C41.173 1103.72 47.9663 1107.94 55.0313 1108.34C58.4279 1108.48 61.1452 1107.8 63.455 1106.58C65.4929 1105.35 67.1233 1103.59 68.2102 1102.09C69.2972 1100.46 69.9765 1097.75 70.3841 1096.25C70.7917 1094.62 70.9275 1091.63 70.9275 1090.54V1085.79V1085.11C70.9275 1074.78 61.1452 1072.2 57.341 1071.8L55.7106 1071.66Z" fill="#55142E" fill-opacity="0.3"/>
<path d="M723.843 1.22559H754.005C745.989 2.99184 739.332 8.69818 733.897 18.0729L719.088 44.9742C717.322 48.3708 716.371 53.262 716.371 59.9194V81.2503C716.371 87.3642 718.952 92.1195 722.349 93.8857C726.017 95.652 727.919 96.1954 729.957 96.3313H681.453C683.22 96.3313 685.529 95.7878 688.79 94.0216C692.187 92.2553 694.768 87.7718 694.768 81.7937L694.904 63.7236C694.904 57.0662 693.545 51.4958 690.964 47.2839L672.079 16.3066C665.557 5.84501 657.405 1.22559 653.193 1.22559L701.561 1.36145C693.817 1.49732 689.741 8.69818 693.953 16.4425L709.442 42.9362C712.567 48.5067 715.691 48.235 718.952 42.121L732.131 18.4805C737.158 9.3775 734.169 2.44837 723.843 1.22559Z" fill="#A12256" fill-opacity="0.2"/>
<path d="M639.929 18.6163V78.6688C639.929 86.1414 643.054 91.4402 646.994 93.614C650.934 95.652 653.515 96.3313 655.145 96.3313H601.75C603.381 96.3313 605.962 95.652 609.902 93.614C613.842 91.4402 616.967 86.1414 616.967 78.6688V32.2029C616.967 25.4096 616.56 21.8771 615.745 21.7412C614.522 21.6054 613.435 23.0999 611.261 28.6704L582.186 99.9997L542.785 27.9911C538.845 20.2467 536.671 19.2957 536.399 25.1379V26.7683L536.127 73.7777C536.127 82.3372 539.796 88.7228 543.6 91.576C545.502 92.9347 547.676 94.0216 550.257 94.8368C555.284 96.4672 556.779 96.3313 558.002 96.3313H512.895C514.117 96.3313 515.748 96.4672 520.503 94.8368C527.296 92.6629 533.954 86.9566 534.361 73.5059V23.2358C534.361 5.98088 520.095 2.04078 516.699 1.36145L516.155 1.22559H553.79L584.496 57.2021C587.62 62.7726 589.387 65.8975 590.066 66.4409C591.289 67.6637 592.783 66.7127 594.278 63.5878C594.821 62.6367 595.365 61.2781 596.044 59.6477L620.364 1.22559H655.825C655.01 1.22559 640.064 2.17665 639.929 18.6163Z" fill="#A12256" fill-opacity="0.2"/>
<path d="M460.593 0.00299782C476.218 0.00299782 488.581 6.11694 495.51 15.4916C502.575 24.8664 505.972 36.4149 505.836 48.9145C505.429 73.642 489.261 97.9619 456.381 97.5543C440.757 97.4184 427.85 90.4893 420.649 80.707C413.448 70.9247 409.644 59.2403 410.051 47.8276C410.187 33.5617 415.078 22.0132 424.453 13.1819C433.963 4.35069 446.055 -0.132866 460.593 0.00299782ZM480.429 45.6537C478.799 33.0183 475.131 22.4208 469.56 13.5895C463.99 4.75828 457.332 1.08992 449.86 2.31271C443.746 3.26376 439.398 8.01905 436.545 16.3068C433.828 24.5946 433.284 35.0562 435.05 47.8276C436.817 60.4631 440.485 71.3323 445.784 80.4353C451.218 89.5382 457.468 94.4294 464.669 94.9729C471.87 95.6522 476.897 91.4404 479.478 82.6091C482.196 73.642 482.467 61.2783 480.429 45.6537Z" fill="#A12256" fill-opacity="0.2"/>
<path d="M382.689 65.3541L390.026 79.0764C396.14 90.625 403.884 94.8368 407.009 95.9237L408.096 96.3313H377.39C373.993 91.4402 370.869 86.2773 368.015 80.9786L357.554 61.414C352.527 51.4958 346.956 50.6806 344.782 50.6806H343.695L343.424 87.9077C343.424 90.3533 344.239 92.2554 345.733 93.7499C348.994 96.4672 351.168 96.3313 353.478 96.3313H307.963C309.729 96.3313 311.631 96.0596 315.3 94.5651C319.104 93.0706 321.821 88.7229 321.821 82.6089V14.948C321.821 9.92101 319.511 5.98092 316.93 4.35054C312.854 1.49737 308.235 1.08977 307.963 1.22563C311.631 1.22563 318.153 1.08977 327.799 0.682172C337.446 0.274582 344.782 0.138718 349.809 0.274582C367.744 0.682172 377.662 2.44842 383.64 8.83409C387.716 12.9101 389.618 18.6164 389.482 25.8173C389.482 33.0181 387.037 38.9962 382.01 43.4797C376.439 48.3709 370.325 50.273 370.461 50.0013C370.733 50.0013 371.276 50.273 371.955 50.6806C373.586 51.6317 378.341 56.7945 382.689 65.3541ZM355.108 47.284C364.483 44.0232 369.238 36.5506 369.238 24.8662C369.238 7.47544 360.679 0.546309 343.424 1.63323L343.695 49.0502C347.907 49.0502 351.712 48.5068 355.108 47.284Z" fill="#A12256" fill-opacity="0.2"/>
<path d="M288.884 65.3541L296.221 79.0764C302.335 90.625 310.079 94.8368 313.204 95.9237L314.291 96.3313H283.585C280.189 91.4402 277.064 86.2773 274.211 80.9786L263.749 61.414C258.722 51.4958 253.152 50.6806 250.978 50.6806H249.891L249.619 87.9077C249.619 90.3533 250.434 92.2554 251.929 93.7499C255.19 96.4672 257.363 96.3313 259.673 96.3313H214.158C215.924 96.3313 217.827 96.0596 221.495 94.5651C225.299 93.0706 228.016 88.7229 228.016 82.6089V14.948C228.016 9.92101 225.707 5.98092 223.125 4.35054C219.049 1.49737 214.43 1.08977 214.158 1.22563C217.827 1.22563 224.348 1.08977 233.995 0.682172C243.641 0.274582 250.978 0.138718 256.005 0.274582C273.939 0.682172 283.857 2.44842 289.835 8.83409C293.911 12.9101 295.813 18.6164 295.677 25.8173C295.677 33.0181 293.232 38.9962 288.205 43.4797C282.634 48.3709 276.52 50.273 276.656 50.0013C276.928 50.0013 277.471 50.273 278.151 50.6806C279.781 51.6317 284.536 56.7945 288.884 65.3541ZM261.303 47.284C270.678 44.0232 275.433 36.5506 275.433 24.8662C275.433 7.47544 266.874 0.546309 249.619 1.63323L249.891 49.0502C254.103 49.0502 257.907 48.5068 261.303 47.284Z" fill="#A12256" fill-opacity="0.2"/>
<path d="M159.277 0.00299782C174.901 0.00299782 187.265 6.11694 194.194 15.4916C201.259 24.8664 204.656 36.4149 204.52 48.9145C204.112 73.642 187.944 97.9619 155.065 97.5543C139.44 97.4184 126.533 90.4893 119.332 80.707C112.131 70.9247 108.327 59.2403 108.735 47.8276C108.871 33.5617 113.762 22.0132 123.136 13.1819C132.647 4.35069 144.739 -0.132866 159.277 0.00299782ZM179.113 45.6537C177.483 33.0183 173.814 22.4208 168.244 13.5895C162.673 4.75828 156.016 1.08992 148.543 2.31271C142.429 3.26376 138.082 8.01905 135.228 16.3068C132.511 24.5946 131.968 35.0562 133.734 47.8276C135.5 60.4631 139.169 71.3323 144.467 80.4353C149.902 89.5382 156.152 94.4294 163.353 94.9729C170.553 95.6522 175.58 91.4404 178.162 82.6091C180.879 73.642 181.151 61.2783 179.113 45.6537Z" fill="#A12256" fill-opacity="0.2"/>
<path d="M55.7048 56.6596H97.0078C97.0078 56.6596 87.0897 57.0672 87.0897 70.1103V98.7778C86.1386 95.9247 84.2365 92.9356 81.2474 89.6749C78.3943 86.4141 76.2204 84.6479 74.9976 84.3761C66.4381 93.7508 56.52 98.5061 45.5149 98.5061C31.6566 98.5061 20.6515 93.7508 12.3637 84.2403C4.07596 74.5938 0 62.6377 0 48.236C0 33.5625 5.43461 21.6063 13.0431 14.5413C16.9832 11.0089 21.3309 8.15568 26.3579 5.84598C36.5478 1.36241 45.9225 0.00376162 55.5689 0.41136C67.525 0.954823 77.1715 3.26453 84.3723 7.47635V36.0081C82.3344 31.5245 79.3453 26.4975 75.4052 21.1987C71.4651 15.9 67.1175 11.5523 62.3622 8.29155C54.2102 2.44934 46.0583 1.09068 37.9064 4.21559C31.5207 6.5253 27.0372 11.6882 24.3199 19.7042C21.7384 27.7203 21.195 37.3667 22.6895 48.6435C24.4558 61.8225 28.3958 72.42 34.7815 80.5719C41.1672 88.7238 47.9604 92.9356 55.0254 93.3432C58.4221 93.4791 61.1394 92.7998 63.4491 91.577C65.4871 90.3542 67.1175 88.5879 68.2044 87.0934C69.2913 85.463 69.9706 82.7457 70.3782 81.2512C70.7858 79.6208 70.9217 76.6318 70.9217 75.5449V70.7896V70.1103C70.9217 59.7845 61.1394 57.2031 57.3352 56.7955L55.7048 56.6596Z" fill="#A12256" fill-opacity="0.2"/>
<path d="M723.843 291.226H754.005C745.989 292.992 739.332 298.698 733.897 308.073L719.088 334.974C717.322 338.371 716.371 343.262 716.371 349.919V371.25C716.371 377.364 718.952 382.119 722.349 383.886C726.017 385.652 727.919 386.195 729.957 386.331H681.453C683.22 386.331 685.529 385.788 688.79 384.022C692.187 382.255 694.768 377.772 694.768 371.794L694.904 353.724C694.904 347.066 693.545 341.496 690.964 337.284L672.079 306.307C665.557 295.845 657.405 291.226 653.193 291.226L701.561 291.361C693.817 291.497 689.741 298.698 693.953 306.443L709.442 332.936C712.567 338.507 715.691 338.235 718.952 332.121L732.131 308.48C737.158 299.378 734.169 292.448 723.843 291.226Z" fill="#A12256" fill-opacity="0.2"/>
<path d="M639.929 308.616V368.669C639.929 376.141 643.054 381.44 646.994 383.614C650.934 385.652 653.515 386.331 655.145 386.331H601.75C603.381 386.331 605.962 385.652 609.902 383.614C613.842 381.44 616.967 376.141 616.967 368.669V322.203C616.967 315.41 616.56 311.877 615.745 311.741C614.522 311.605 613.435 313.1 611.261 318.67L582.186 390L542.785 317.991C538.845 310.247 536.671 309.296 536.399 315.138V316.768L536.127 363.778C536.127 372.337 539.796 378.723 543.6 381.576C545.502 382.935 547.676 384.022 550.257 384.837C555.284 386.467 556.779 386.331 558.002 386.331H512.895C514.117 386.331 515.748 386.467 520.503 384.837C527.296 382.663 533.954 376.957 534.361 363.506V313.236C534.361 295.981 520.095 292.041 516.699 291.361L516.155 291.226H553.79L584.496 347.202C587.62 352.773 589.387 355.897 590.066 356.441C591.289 357.664 592.783 356.713 594.278 353.588C594.821 352.637 595.365 351.278 596.044 349.648L620.364 291.226H655.825C655.01 291.226 640.064 292.177 639.929 308.616Z" fill="#A12256" fill-opacity="0.2"/>
<path d="M460.593 290.003C476.218 290.003 488.581 296.117 495.51 305.492C502.575 314.866 505.972 326.415 505.836 338.915C505.429 363.642 489.261 387.962 456.381 387.554C440.757 387.418 427.85 380.489 420.649 370.707C413.448 360.925 409.644 349.24 410.051 337.828C410.187 323.562 415.078 312.013 424.453 303.182C433.963 294.351 446.055 289.867 460.593 290.003ZM480.429 335.654C478.799 323.018 475.131 312.421 469.56 303.59C463.99 294.758 457.332 291.09 449.86 292.313C443.746 293.264 439.398 298.019 436.545 306.307C433.828 314.595 433.284 325.056 435.05 337.828C436.817 350.463 440.485 361.332 445.784 370.435C451.218 379.538 457.468 384.429 464.669 384.973C471.87 385.652 476.897 381.44 479.478 372.609C482.196 363.642 482.467 351.278 480.429 335.654Z" fill="#A12256" fill-opacity="0.2"/>
<path d="M382.689 355.354L390.026 369.076C396.14 380.625 403.884 384.837 407.009 385.924L408.096 386.331H377.39C373.993 381.44 370.869 376.277 368.015 370.979L357.554 351.414C352.527 341.496 346.956 340.681 344.782 340.681H343.695L343.424 377.908C343.424 380.353 344.239 382.255 345.733 383.75C348.994 386.467 351.168 386.331 353.478 386.331H307.963C309.729 386.331 311.631 386.06 315.3 384.565C319.104 383.071 321.821 378.723 321.821 372.609V304.948C321.821 299.921 319.511 295.981 316.93 294.351C312.854 291.497 308.235 291.09 307.963 291.226C311.631 291.226 318.153 291.09 327.799 290.682C337.446 290.275 344.782 290.139 349.809 290.275C367.744 290.682 377.662 292.448 383.64 298.834C387.716 302.91 389.618 308.616 389.482 315.817C389.482 323.018 387.037 328.996 382.01 333.48C376.439 338.371 370.325 340.273 370.461 340.001C370.733 340.001 371.276 340.273 371.955 340.681C373.586 341.632 378.341 346.795 382.689 355.354ZM355.108 337.284C364.483 334.023 369.238 326.551 369.238 314.866C369.238 297.475 360.679 290.546 343.424 291.633L343.695 339.05C347.907 339.05 351.712 338.507 355.108 337.284Z" fill="#A12256" fill-opacity="0.2"/>
<path d="M288.884 355.354L296.221 369.076C302.335 380.625 310.079 384.837 313.204 385.924L314.291 386.331H283.585C280.189 381.44 277.064 376.277 274.211 370.979L263.749 351.414C258.722 341.496 253.152 340.681 250.978 340.681H249.891L249.619 377.908C249.619 380.353 250.434 382.255 251.929 383.75C255.19 386.467 257.363 386.331 259.673 386.331H214.158C215.924 386.331 217.827 386.06 221.495 384.565C225.299 383.071 228.016 378.723 228.016 372.609V304.948C228.016 299.921 225.707 295.981 223.125 294.351C219.049 291.497 214.43 291.09 214.158 291.226C217.827 291.226 224.348 291.09 233.995 290.682C243.641 290.275 250.978 290.139 256.005 290.275C273.939 290.682 283.857 292.448 289.835 298.834C293.911 302.91 295.813 308.616 295.677 315.817C295.677 323.018 293.232 328.996 288.205 333.48C282.634 338.371 276.52 340.273 276.656 340.001C276.928 340.001 277.471 340.273 278.151 340.681C279.781 341.632 284.536 346.795 288.884 355.354ZM261.303 337.284C270.678 334.023 275.433 326.551 275.433 314.866C275.433 297.475 266.874 290.546 249.619 291.633L249.891 339.05C254.103 339.05 257.907 338.507 261.303 337.284Z" fill="#A12256" fill-opacity="0.2"/>
<path d="M159.277 290.003C174.901 290.003 187.265 296.117 194.194 305.492C201.259 314.866 204.656 326.415 204.52 338.915C204.112 363.642 187.944 387.962 155.065 387.554C139.44 387.418 126.533 380.489 119.332 370.707C112.131 360.925 108.327 349.24 108.735 337.828C108.871 323.562 113.762 312.013 123.136 303.182C132.647 294.351 144.739 289.867 159.277 290.003ZM179.113 335.654C177.483 323.018 173.814 312.421 168.244 303.59C162.673 294.758 156.016 291.09 148.543 292.313C142.429 293.264 138.082 298.019 135.228 306.307C132.511 314.595 131.968 325.056 133.734 337.828C135.5 350.463 139.169 361.332 144.467 370.435C149.902 379.538 156.152 384.429 163.353 384.973C170.553 385.652 175.58 381.44 178.162 372.609C180.879 363.642 181.151 351.278 179.113 335.654Z" fill="#A12256" fill-opacity="0.2"/>
<path d="M55.7048 346.66H97.0078C97.0078 346.66 87.0897 347.067 87.0897 360.11V388.778C86.1386 385.925 84.2365 382.936 81.2474 379.675C78.3943 376.414 76.2204 374.648 74.9976 374.376C66.4381 383.751 56.52 388.506 45.5149 388.506C31.6566 388.506 20.6515 383.751 12.3637 374.24C4.07596 364.594 0 352.638 0 338.236C0 323.562 5.43461 311.606 13.0431 304.541C16.9832 301.009 21.3309 298.156 26.3579 295.846C36.5478 291.362 45.9225 290.004 55.5689 290.411C67.525 290.955 77.1715 293.265 84.3723 297.476V326.008C82.3344 321.525 79.3453 316.497 75.4052 311.199C71.4651 305.9 67.1175 301.552 62.3622 298.292C54.2102 292.449 46.0583 291.091 37.9064 294.216C31.5207 296.525 27.0372 301.688 24.3199 309.704C21.7384 317.72 21.195 327.367 22.6895 338.644C24.4558 351.822 28.3958 362.42 34.7815 370.572C41.1672 378.724 47.9604 382.936 55.0254 383.343C58.4221 383.479 61.1394 382.8 63.4491 381.577C65.4871 380.354 67.1175 378.588 68.2044 377.093C69.2913 375.463 69.9706 372.746 70.3782 371.251C70.7858 369.621 70.9217 366.632 70.9217 365.545V360.79V360.11C70.9217 349.784 61.1394 347.203 57.3352 346.795L55.7048 346.66Z" fill="#A12256" fill-opacity="0.2"/>
<path d="M723.843 581.226H754.005C745.989 582.992 739.332 588.698 733.897 598.073L719.088 624.974C717.322 628.371 716.371 633.262 716.371 639.919V661.25C716.371 667.364 718.952 672.119 722.349 673.886C726.017 675.652 727.919 676.195 729.957 676.331H681.453C683.22 676.331 685.529 675.788 688.79 674.022C692.187 672.255 694.768 667.772 694.768 661.794L694.904 643.724C694.904 637.066 693.545 631.496 690.964 627.284L672.079 596.307C665.557 585.845 657.405 581.226 653.193 581.226L701.561 581.361C693.817 581.497 689.741 588.698 693.953 596.443L709.442 622.936C712.567 628.507 715.691 628.235 718.952 622.121L732.131 598.48C737.158 589.378 734.169 582.448 723.843 581.226Z" fill="#A12256" fill-opacity="0.2"/>
<path d="M639.929 598.616V658.669C639.929 666.141 643.054 671.44 646.994 673.614C650.934 675.652 653.515 676.331 655.145 676.331H601.75C603.381 676.331 605.962 675.652 609.902 673.614C613.842 671.44 616.967 666.141 616.967 658.669V612.203C616.967 605.41 616.56 601.877 615.745 601.741C614.522 601.605 613.435 603.1 611.261 608.67L582.186 680L542.785 607.991C538.845 600.247 536.671 599.296 536.399 605.138V606.768L536.127 653.778C536.127 662.337 539.796 668.723 543.6 671.576C545.502 672.935 547.676 674.022 550.257 674.837C555.284 676.467 556.779 676.331 558.002 676.331H512.895C514.117 676.331 515.748 676.467 520.503 674.837C527.296 672.663 533.954 666.957 534.361 653.506V603.236C534.361 585.981 520.095 582.041 516.699 581.361L516.155 581.226H553.79L584.496 637.202C587.62 642.773 589.387 645.897 590.066 646.441C591.289 647.664 592.783 646.713 594.278 643.588C594.821 642.637 595.365 641.278 596.044 639.648L620.364 581.226H655.825C655.01 581.226 640.064 582.177 639.929 598.616Z" fill="#A12256" fill-opacity="0.2"/>
<path d="M460.593 580.003C476.218 580.003 488.581 586.117 495.51 595.492C502.575 604.866 505.972 616.415 505.836 628.915C505.429 653.642 489.261 677.962 456.381 677.554C440.757 677.418 427.85 670.489 420.649 660.707C413.448 650.925 409.644 639.24 410.051 627.828C410.187 613.562 415.078 602.013 424.453 593.182C433.963 584.351 446.055 579.867 460.593 580.003ZM480.429 625.654C478.799 613.018 475.131 602.421 469.56 593.59C463.99 584.758 457.332 581.09 449.86 582.313C443.746 583.264 439.398 588.019 436.545 596.307C433.828 604.595 433.284 615.056 435.05 627.828C436.817 640.463 440.485 651.332 445.784 660.435C451.218 669.538 457.468 674.429 464.669 674.973C471.87 675.652 476.897 671.44 479.478 662.609C482.196 653.642 482.467 641.278 480.429 625.654Z" fill="#A12256" fill-opacity="0.2"/>
<path d="M382.689 645.354L390.026 659.076C396.14 670.625 403.884 674.837 407.009 675.924L408.096 676.331H377.39C373.993 671.44 370.869 666.277 368.015 660.979L357.554 641.414C352.527 631.496 346.956 630.681 344.782 630.681H343.695L343.424 667.908C343.424 670.353 344.239 672.255 345.733 673.75C348.994 676.467 351.168 676.331 353.478 676.331H307.963C309.729 676.331 311.631 676.06 315.3 674.565C319.104 673.071 321.821 668.723 321.821 662.609V594.948C321.821 589.921 319.511 585.981 316.93 584.351C312.854 581.497 308.235 581.09 307.963 581.226C311.631 581.226 318.153 581.09 327.799 580.682C337.446 580.275 344.782 580.139 349.809 580.275C367.744 580.682 377.662 582.448 383.64 588.834C387.716 592.91 389.618 598.616 389.482 605.817C389.482 613.018 387.037 618.996 382.01 623.48C376.439 628.371 370.325 630.273 370.461 630.001C370.733 630.001 371.276 630.273 371.955 630.681C373.586 631.632 378.341 636.795 382.689 645.354ZM355.108 627.284C364.483 624.023 369.238 616.551 369.238 604.866C369.238 587.475 360.679 580.546 343.424 581.633L343.695 629.05C347.907 629.05 351.712 628.507 355.108 627.284Z" fill="#A12256" fill-opacity="0.2"/>
<path d="M288.884 645.354L296.221 659.076C302.335 670.625 310.079 674.837 313.204 675.924L314.291 676.331H283.585C280.189 671.44 277.064 666.277 274.211 660.979L263.749 641.414C258.722 631.496 253.152 630.681 250.978 630.681H249.891L249.619 667.908C249.619 670.353 250.434 672.255 251.929 673.75C255.19 676.467 257.363 676.331 259.673 676.331H214.158C215.924 676.331 217.827 676.06 221.495 674.565C225.299 673.071 228.016 668.723 228.016 662.609V594.948C228.016 589.921 225.707 585.981 223.125 584.351C219.049 581.497 214.43 581.09 214.158 581.226C217.827 581.226 224.348 581.09 233.995 580.682C243.641 580.275 250.978 580.139 256.005 580.275C273.939 580.682 283.857 582.448 289.835 588.834C293.911 592.91 295.813 598.616 295.677 605.817C295.677 613.018 293.232 618.996 288.205 623.48C282.634 628.371 276.52 630.273 276.656 630.001C276.928 630.001 277.471 630.273 278.151 630.681C279.781 631.632 284.536 636.795 288.884 645.354ZM261.303 627.284C270.678 624.023 275.433 616.551 275.433 604.866C275.433 587.475 266.874 580.546 249.619 581.633L249.891 629.05C254.103 629.05 257.907 628.507 261.303 627.284Z" fill="#A12256" fill-opacity="0.2"/>
<path d="M159.277 580.003C174.901 580.003 187.265 586.117 194.194 595.492C201.259 604.866 204.656 616.415 204.52 628.915C204.112 653.642 187.944 677.962 155.065 677.554C139.44 677.418 126.533 670.489 119.332 660.707C112.131 650.925 108.327 639.24 108.735 627.828C108.871 613.562 113.762 602.013 123.136 593.182C132.647 584.351 144.739 579.867 159.277 580.003ZM179.113 625.654C177.483 613.018 173.814 602.421 168.244 593.59C162.673 584.758 156.016 581.09 148.543 582.313C142.429 583.264 138.082 588.019 135.228 596.307C132.511 604.595 131.968 615.056 133.734 627.828C135.5 640.463 139.169 651.332 144.467 660.435C149.902 669.538 156.152 674.429 163.353 674.973C170.553 675.652 175.58 671.44 178.162 662.609C180.879 653.642 181.151 641.278 179.113 625.654Z" fill="#A12256" fill-opacity="0.2"/>
<path d="M55.7048 636.66H97.0078C97.0078 636.66 87.0897 637.067 87.0897 650.11V678.778C86.1386 675.925 84.2365 672.936 81.2474 669.675C78.3943 666.414 76.2204 664.648 74.9976 664.376C66.4381 673.751 56.52 678.506 45.5149 678.506C31.6566 678.506 20.6515 673.751 12.3637 664.24C4.07596 654.594 0 642.638 0 628.236C0 613.562 5.43461 601.606 13.0431 594.541C16.9832 591.009 21.3309 588.156 26.3579 585.846C36.5478 581.362 45.9225 580.004 55.5689 580.411C67.525 580.955 77.1715 583.265 84.3723 587.476V616.008C82.3344 611.525 79.3453 606.497 75.4052 601.199C71.4651 595.9 67.1175 591.552 62.3622 588.292C54.2102 582.449 46.0583 581.091 37.9064 584.216C31.5207 586.525 27.0372 591.688 24.3199 599.704C21.7384 607.72 21.195 617.367 22.6895 628.644C24.4558 641.822 28.3958 652.42 34.7815 660.572C41.1672 668.724 47.9604 672.936 55.0254 673.343C58.4221 673.479 61.1394 672.8 63.4491 671.577C65.4871 670.354 67.1175 668.588 68.2044 667.093C69.2913 665.463 69.9706 662.746 70.3782 661.251C70.7858 659.621 70.9217 656.632 70.9217 655.545V650.79V650.11C70.9217 639.784 61.1394 637.203 57.3352 636.795L55.7048 636.66Z" fill="#A12256" fill-opacity="0.2"/>
<path d="M723.843 871.226H754.005C745.989 872.992 739.332 878.698 733.897 888.073L719.088 914.974C717.322 918.371 716.371 923.262 716.371 929.919V951.25C716.371 957.364 718.952 962.119 722.349 963.886C726.017 965.652 727.919 966.195 729.957 966.331H681.453C683.22 966.331 685.529 965.788 688.79 964.022C692.187 962.255 694.768 957.772 694.768 951.794L694.904 933.724C694.904 927.066 693.545 921.496 690.964 917.284L672.079 886.307C665.557 875.845 657.405 871.226 653.193 871.226L701.561 871.361C693.817 871.497 689.741 878.698 693.953 886.443L709.442 912.936C712.567 918.507 715.691 918.235 718.952 912.121L732.131 888.48C737.158 879.378 734.169 872.448 723.843 871.226Z" fill="#A12256" fill-opacity="0.2"/>
<path d="M639.929 888.616V948.669C639.929 956.141 643.054 961.44 646.994 963.614C650.934 965.652 653.515 966.331 655.145 966.331H601.75C603.381 966.331 605.962 965.652 609.902 963.614C613.842 961.44 616.967 956.141 616.967 948.669V902.203C616.967 895.41 616.56 891.877 615.745 891.741C614.522 891.605 613.435 893.1 611.261 898.67L582.186 970L542.785 897.991C538.845 890.247 536.671 889.296 536.399 895.138V896.768L536.127 943.778C536.127 952.337 539.796 958.723 543.6 961.576C545.502 962.935 547.676 964.022 550.257 964.837C555.284 966.467 556.779 966.331 558.002 966.331H512.895C514.117 966.331 515.748 966.467 520.503 964.837C527.296 962.663 533.954 956.957 534.361 943.506V893.236C534.361 875.981 520.095 872.041 516.699 871.361L516.155 871.226H553.79L584.496 927.202C587.62 932.773 589.387 935.897 590.066 936.441C591.289 937.664 592.783 936.713 594.278 933.588C594.821 932.637 595.365 931.278 596.044 929.648L620.364 871.226H655.825C655.01 871.226 640.064 872.177 639.929 888.616Z" fill="#A12256" fill-opacity="0.2"/>
<path d="M460.593 870.003C476.218 870.003 488.581 876.117 495.51 885.492C502.575 894.866 505.972 906.415 505.836 918.915C505.429 943.642 489.261 967.962 456.381 967.554C440.757 967.418 427.85 960.489 420.649 950.707C413.448 940.925 409.644 929.24 410.051 917.828C410.187 903.562 415.078 892.013 424.453 883.182C433.963 874.351 446.055 869.867 460.593 870.003ZM480.429 915.654C478.799 903.018 475.131 892.421 469.56 883.59C463.99 874.758 457.332 871.09 449.86 872.313C443.746 873.264 439.398 878.019 436.545 886.307C433.828 894.595 433.284 905.056 435.05 917.828C436.817 930.463 440.485 941.332 445.784 950.435C451.218 959.538 457.468 964.429 464.669 964.973C471.87 965.652 476.897 961.44 479.478 952.609C482.196 943.642 482.467 931.278 480.429 915.654Z" fill="#A12256" fill-opacity="0.2"/>
<path d="M382.689 935.354L390.026 949.076C396.14 960.625 403.884 964.837 407.009 965.924L408.096 966.331H377.39C373.993 961.44 370.869 956.277 368.015 950.979L357.554 931.414C352.527 921.496 346.956 920.681 344.782 920.681H343.695L343.424 957.908C343.424 960.353 344.239 962.255 345.733 963.75C348.994 966.467 351.168 966.331 353.478 966.331H307.963C309.729 966.331 311.631 966.06 315.3 964.565C319.104 963.071 321.821 958.723 321.821 952.609V884.948C321.821 879.921 319.511 875.981 316.93 874.351C312.854 871.497 308.235 871.09 307.963 871.226C311.631 871.226 318.153 871.09 327.799 870.682C337.446 870.275 344.782 870.139 349.809 870.275C367.744 870.682 377.662 872.448 383.64 878.834C387.716 882.91 389.618 888.616 389.482 895.817C389.482 903.018 387.037 908.996 382.01 913.48C376.439 918.371 370.325 920.273 370.461 920.001C370.733 920.001 371.276 920.273 371.955 920.681C373.586 921.632 378.341 926.795 382.689 935.354ZM355.108 917.284C364.483 914.023 369.238 906.551 369.238 894.866C369.238 877.475 360.679 870.546 343.424 871.633L343.695 919.05C347.907 919.05 351.712 918.507 355.108 917.284Z" fill="#A12256" fill-opacity="0.2"/>
<path d="M288.884 935.354L296.221 949.076C302.335 960.625 310.079 964.837 313.204 965.924L314.291 966.331H283.585C280.189 961.44 277.064 956.277 274.211 950.979L263.749 931.414C258.722 921.496 253.152 920.681 250.978 920.681H249.891L249.619 957.908C249.619 960.353 250.434 962.255 251.929 963.75C255.19 966.467 257.363 966.331 259.673 966.331H214.158C215.924 966.331 217.827 966.06 221.495 964.565C225.299 963.071 228.016 958.723 228.016 952.609V884.948C228.016 879.921 225.707 875.981 223.125 874.351C219.049 871.497 214.43 871.09 214.158 871.226C217.827 871.226 224.348 871.09 233.995 870.682C243.641 870.275 250.978 870.139 256.005 870.275C273.939 870.682 283.857 872.448 289.835 878.834C293.911 882.91 295.813 888.616 295.677 895.817C295.677 903.018 293.232 908.996 288.205 913.48C282.634 918.371 276.52 920.273 276.656 920.001C276.928 920.001 277.471 920.273 278.151 920.681C279.781 921.632 284.536 926.795 288.884 935.354ZM261.303 917.284C270.678 914.023 275.433 906.551 275.433 894.866C275.433 877.475 266.874 870.546 249.619 871.633L249.891 919.05C254.103 919.05 257.907 918.507 261.303 917.284Z" fill="#A12256" fill-opacity="0.2"/>
<path d="M159.277 870.003C174.901 870.003 187.265 876.117 194.194 885.492C201.259 894.866 204.656 906.415 204.52 918.915C204.112 943.642 187.944 967.962 155.065 967.554C139.44 967.418 126.533 960.489 119.332 950.707C112.131 940.925 108.327 929.24 108.735 917.828C108.871 903.562 113.762 892.013 123.136 883.182C132.647 874.351 144.739 869.867 159.277 870.003ZM179.113 915.654C177.483 903.018 173.814 892.421 168.244 883.59C162.673 874.758 156.016 871.09 148.543 872.313C142.429 873.264 138.082 878.019 135.228 886.307C132.511 894.595 131.968 905.056 133.734 917.828C135.5 930.463 139.169 941.332 144.467 950.435C149.902 959.538 156.152 964.429 163.353 964.973C170.553 965.652 175.58 961.44 178.162 952.609C180.879 943.642 181.151 931.278 179.113 915.654Z" fill="#A12256" fill-opacity="0.2"/>
<path d="M55.7048 926.66H97.0078C97.0078 926.66 87.0897 927.067 87.0897 940.11V968.778C86.1386 965.925 84.2365 962.936 81.2474 959.675C78.3943 956.414 76.2204 954.648 74.9976 954.376C66.4381 963.751 56.52 968.506 45.5149 968.506C31.6566 968.506 20.6515 963.751 12.3637 954.24C4.07596 944.594 0 932.638 0 918.236C0 903.562 5.43461 891.606 13.0431 884.541C16.9832 881.009 21.3309 878.156 26.3579 875.846C36.5478 871.362 45.9225 870.004 55.5689 870.411C67.525 870.955 77.1715 873.265 84.3723 877.476V906.008C82.3344 901.525 79.3453 896.497 75.4052 891.199C71.4651 885.9 67.1175 881.552 62.3622 878.292C54.2102 872.449 46.0583 871.091 37.9064 874.216C31.5207 876.525 27.0372 881.688 24.3199 889.704C21.7384 897.72 21.195 907.367 22.6895 918.644C24.4558 931.822 28.3958 942.42 34.7815 950.572C41.1672 958.724 47.9604 962.936 55.0254 963.343C58.4221 963.479 61.1394 962.8 63.4491 961.577C65.4871 960.354 67.1175 958.588 68.2044 957.093C69.2913 955.463 69.9706 952.746 70.3782 951.251C70.7858 949.621 70.9217 946.632 70.9217 945.545V940.79V940.11C70.9217 929.784 61.1394 927.203 57.3352 926.795L55.7048 926.66Z" fill="#A12256" fill-opacity="0.2"/>
<path d="M723.843 1161.23H754.005C745.989 1162.99 739.332 1168.7 733.897 1178.07L719.088 1204.97C717.322 1208.37 716.371 1213.26 716.371 1219.92V1241.25C716.371 1247.36 718.952 1252.12 722.349 1253.89C726.017 1255.65 727.919 1256.2 729.957 1256.33H681.453C683.22 1256.33 685.529 1255.79 688.79 1254.02C692.187 1252.26 694.768 1247.77 694.768 1241.79L694.904 1223.72C694.904 1217.07 693.545 1211.5 690.964 1207.28L672.079 1176.31C665.557 1165.85 657.405 1161.23 653.193 1161.23L701.561 1161.36C693.817 1161.5 689.741 1168.7 693.953 1176.44L709.442 1202.94C712.567 1208.51 715.691 1208.23 718.952 1202.12L732.131 1178.48C737.158 1169.38 734.169 1162.45 723.843 1161.23Z" fill="#A12256" fill-opacity="0.2"/>
<path d="M639.929 1178.62V1238.67C639.929 1246.14 643.054 1251.44 646.994 1253.61C650.934 1255.65 653.515 1256.33 655.145 1256.33H601.75C603.381 1256.33 605.962 1255.65 609.902 1253.61C613.842 1251.44 616.967 1246.14 616.967 1238.67V1192.2C616.967 1185.41 616.56 1181.88 615.745 1181.74C614.522 1181.61 613.435 1183.1 611.261 1188.67L582.186 1260L542.785 1187.99C538.845 1180.25 536.671 1179.3 536.399 1185.14V1186.77L536.127 1233.78C536.127 1242.34 539.796 1248.72 543.6 1251.58C545.502 1252.93 547.676 1254.02 550.257 1254.84C555.284 1256.47 556.779 1256.33 558.002 1256.33H512.895C514.117 1256.33 515.748 1256.47 520.503 1254.84C527.296 1252.66 533.954 1246.96 534.361 1233.51V1183.24C534.361 1165.98 520.095 1162.04 516.699 1161.36L516.155 1161.23H553.79L584.496 1217.2C587.62 1222.77 589.387 1225.9 590.066 1226.44C591.289 1227.66 592.783 1226.71 594.278 1223.59C594.821 1222.64 595.365 1221.28 596.044 1219.65L620.364 1161.23H655.825C655.01 1161.23 640.064 1162.18 639.929 1178.62Z" fill="#A12256" fill-opacity="0.2"/>
<path d="M460.593 1160C476.218 1160 488.581 1166.12 495.51 1175.49C502.575 1184.87 505.972 1196.41 505.836 1208.91C505.429 1233.64 489.261 1257.96 456.381 1257.55C440.757 1257.42 427.85 1250.49 420.649 1240.71C413.448 1230.92 409.644 1219.24 410.051 1207.83C410.187 1193.56 415.078 1182.01 424.453 1173.18C433.963 1164.35 446.055 1159.87 460.593 1160ZM480.429 1205.65C478.799 1193.02 475.131 1182.42 469.56 1173.59C463.99 1164.76 457.332 1161.09 449.86 1162.31C443.746 1163.26 439.398 1168.02 436.545 1176.31C433.828 1184.59 433.284 1195.06 435.05 1207.83C436.817 1220.46 440.485 1231.33 445.784 1240.44C451.218 1249.54 457.468 1254.43 464.669 1254.97C471.87 1255.65 476.897 1251.44 479.478 1242.61C482.196 1233.64 482.467 1221.28 480.429 1205.65Z" fill="#A12256" fill-opacity="0.2"/>
<path d="M382.689 1225.35L390.026 1239.08C396.14 1250.62 403.884 1254.84 407.009 1255.92L408.096 1256.33H377.39C373.993 1251.44 370.869 1246.28 368.015 1240.98L357.554 1221.41C352.527 1211.5 346.956 1210.68 344.782 1210.68H343.695L343.424 1247.91C343.424 1250.35 344.239 1252.26 345.733 1253.75C348.994 1256.47 351.168 1256.33 353.478 1256.33H307.963C309.729 1256.33 311.631 1256.06 315.3 1254.57C319.104 1253.07 321.821 1248.72 321.821 1242.61V1174.95C321.821 1169.92 319.511 1165.98 316.93 1164.35C312.854 1161.5 308.235 1161.09 307.963 1161.23C311.631 1161.23 318.153 1161.09 327.799 1160.68C337.446 1160.27 344.782 1160.14 349.809 1160.27C367.744 1160.68 377.662 1162.45 383.64 1168.83C387.716 1172.91 389.618 1178.62 389.482 1185.82C389.482 1193.02 387.037 1199 382.01 1203.48C376.439 1208.37 370.325 1210.27 370.461 1210C370.733 1210 371.276 1210.27 371.955 1210.68C373.586 1211.63 378.341 1216.79 382.689 1225.35ZM355.108 1207.28C364.483 1204.02 369.238 1196.55 369.238 1184.87C369.238 1167.48 360.679 1160.55 343.424 1161.63L343.695 1209.05C347.907 1209.05 351.712 1208.51 355.108 1207.28Z" fill="#A12256" fill-opacity="0.2"/>
<path d="M288.884 1225.35L296.221 1239.08C302.335 1250.62 310.079 1254.84 313.204 1255.92L314.291 1256.33H283.585C280.189 1251.44 277.064 1246.28 274.211 1240.98L263.749 1221.41C258.722 1211.5 253.152 1210.68 250.978 1210.68H249.891L249.619 1247.91C249.619 1250.35 250.434 1252.26 251.929 1253.75C255.19 1256.47 257.363 1256.33 259.673 1256.33H214.158C215.924 1256.33 217.827 1256.06 221.495 1254.57C225.299 1253.07 228.016 1248.72 228.016 1242.61V1174.95C228.016 1169.92 225.707 1165.98 223.125 1164.35C219.049 1161.5 214.43 1161.09 214.158 1161.23C217.827 1161.23 224.348 1161.09 233.995 1160.68C243.641 1160.27 250.978 1160.14 256.005 1160.27C273.939 1160.68 283.857 1162.45 289.835 1168.83C293.911 1172.91 295.813 1178.62 295.677 1185.82C295.677 1193.02 293.232 1199 288.205 1203.48C282.634 1208.37 276.52 1210.27 276.656 1210C276.928 1210 277.471 1210.27 278.151 1210.68C279.781 1211.63 284.536 1216.79 288.884 1225.35ZM261.303 1207.28C270.678 1204.02 275.433 1196.55 275.433 1184.87C275.433 1167.48 266.874 1160.55 249.619 1161.63L249.891 1209.05C254.103 1209.05 257.907 1208.51 261.303 1207.28Z" fill="#A12256" fill-opacity="0.2"/>
<path d="M159.277 1160C174.901 1160 187.265 1166.12 194.194 1175.49C201.259 1184.87 204.656 1196.41 204.52 1208.91C204.112 1233.64 187.944 1257.96 155.065 1257.55C139.44 1257.42 126.533 1250.49 119.332 1240.71C112.131 1230.92 108.327 1219.24 108.735 1207.83C108.871 1193.56 113.762 1182.01 123.136 1173.18C132.647 1164.35 144.739 1159.87 159.277 1160ZM179.113 1205.65C177.483 1193.02 173.814 1182.42 168.244 1173.59C162.673 1164.76 156.016 1161.09 148.543 1162.31C142.429 1163.26 138.082 1168.02 135.228 1176.31C132.511 1184.59 131.968 1195.06 133.734 1207.83C135.5 1220.46 139.169 1231.33 144.467 1240.44C149.902 1249.54 156.152 1254.43 163.353 1254.97C170.553 1255.65 175.58 1251.44 178.162 1242.61C180.879 1233.64 181.151 1221.28 179.113 1205.65Z" fill="#A12256" fill-opacity="0.2"/>
<path d="M55.7048 1216.66H97.0078C97.0078 1216.66 87.0897 1217.07 87.0897 1230.11V1258.78C86.1386 1255.92 84.2365 1252.94 81.2474 1249.67C78.3943 1246.41 76.2204 1244.65 74.9976 1244.38C66.4381 1253.75 56.52 1258.51 45.5149 1258.51C31.6566 1258.51 20.6515 1253.75 12.3637 1244.24C4.07596 1234.59 0 1222.64 0 1208.24C0 1193.56 5.43461 1181.61 13.0431 1174.54C16.9832 1171.01 21.3309 1168.16 26.3579 1165.85C36.5478 1161.36 45.9225 1160 55.5689 1160.41C67.525 1160.95 77.1715 1163.26 84.3723 1167.48V1196.01C82.3344 1191.52 79.3453 1186.5 75.4052 1181.2C71.4651 1175.9 67.1175 1171.55 62.3622 1168.29C54.2102 1162.45 46.0583 1161.09 37.9064 1164.22C31.5207 1166.53 27.0372 1171.69 24.3199 1179.7C21.7384 1187.72 21.195 1197.37 22.6895 1208.64C24.4558 1221.82 28.3958 1232.42 34.7815 1240.57C41.1672 1248.72 47.9604 1252.94 55.0254 1253.34C58.4221 1253.48 61.1394 1252.8 63.4491 1251.58C65.4871 1250.35 67.1175 1248.59 68.2044 1247.09C69.2913 1245.46 69.9706 1242.75 70.3782 1241.25C70.7858 1239.62 70.9217 1236.63 70.9217 1235.54V1230.79V1230.11C70.9217 1219.78 61.1394 1217.2 57.3352 1216.8L55.7048 1216.66Z" fill="#A12256" fill-opacity="0.2"/>
</svg>
