<svg width="625" height="1260" viewBox="0 0 625 1260" fill="none" xmlns="http://www.w3.org/2000/svg">
<path d="M594.814 146.226H624.976C616.96 147.992 610.303 153.698 604.868 163.073L590.059 189.974C588.293 193.371 587.341 198.262 587.341 204.919V226.25C587.341 232.364 589.923 237.119 593.32 238.886C596.988 240.652 598.89 241.195 600.928 241.331H552.424C554.19 241.331 556.5 240.788 559.761 239.022C563.157 237.255 565.739 232.772 565.739 226.794L565.875 208.724C565.875 202.066 564.516 196.496 561.935 192.284L543.049 161.307C536.528 150.845 528.376 146.226 524.164 146.226L572.532 146.361C564.788 146.497 560.712 153.698 564.924 161.443L580.412 187.936C583.537 193.507 586.662 193.235 589.923 187.121L603.102 163.48C608.129 154.378 605.14 147.448 594.814 146.226Z" fill="#55142E" fill-opacity="0.3"/>
<path d="M510.899 163.616V223.669C510.899 231.141 514.024 236.44 517.964 238.614C521.904 240.652 524.486 241.331 526.116 241.331H472.721C474.352 241.331 476.933 240.652 480.873 238.614C484.813 236.44 487.938 231.141 487.938 223.669V177.203C487.938 170.41 487.53 166.877 486.715 166.741C485.492 166.605 484.406 168.1 482.232 173.67L453.157 245L413.756 172.991C409.815 165.247 407.642 164.296 407.37 170.138V171.768L407.098 218.778C407.098 227.337 410.767 233.723 414.571 236.576C416.473 237.935 418.647 239.022 421.228 239.837C426.255 241.467 427.75 241.331 428.973 241.331H383.865C385.088 241.331 386.718 241.467 391.474 239.837C398.267 237.663 404.924 231.957 405.332 218.506V168.236C405.332 150.981 391.066 147.041 387.669 146.361L387.126 146.226H424.761L455.466 202.202C458.591 207.773 460.357 210.897 461.037 211.441C462.259 212.664 463.754 211.713 465.249 208.588C465.792 207.637 466.335 206.278 467.015 204.648L491.335 146.226H526.796C525.98 146.226 511.035 147.177 510.899 163.616Z" fill="#55142E" fill-opacity="0.3"/>
<path d="M367.841 197.583V167.285C367.841 158.59 364.852 152.204 360.64 149.623C356.7 147.041 354.118 146.362 351.945 146.226H384.416C382.514 146.498 369.607 148.128 369.607 168.644V199.349C369.607 202.203 369.607 204.512 369.471 206.279C369.471 208.045 369.2 210.626 368.792 214.023C368.384 217.42 367.841 220.273 367.026 222.582C365.531 227.066 362.406 233.723 357.923 237.12C353.575 240.517 346.374 243.37 337.679 243.37C323.141 243.37 312.815 239.701 306.973 232.229C301.131 224.756 298.278 213.344 298.278 198.127V163.889C298.278 157.367 295.968 152.34 293.658 150.166C289.447 146.362 285.099 146.09 283.74 146.226H336.048C334.282 146.226 333.059 146.226 329.663 147.449C325.587 149.079 320.967 153.563 320.967 163.889V203.29C320.967 227.338 330.07 238.75 346.51 237.663C361.727 236.577 367.841 224.349 367.841 197.583Z" fill="#55142E" fill-opacity="0.3"/>
<path d="M224.213 159.948V227.609C224.213 233.451 226.93 237.663 230.598 239.293C234.403 240.924 236.577 241.331 238.207 241.331H188.752C190.382 241.331 192.556 240.924 196.225 239.293C199.893 237.663 202.61 233.451 202.61 227.609V159.948C202.61 153.834 199.893 149.486 196.089 147.992C192.42 146.497 190.518 146.226 188.752 146.226H238.207C236.441 146.226 234.539 146.497 230.734 147.992C226.93 149.486 224.213 153.834 224.213 159.948ZM244.457 146.633H245.408H244.457ZM247.446 191.061L268.912 219.185C277.608 230.462 286.032 238.478 289.292 240.244L291.738 241.603L261.304 241.331L250.163 227.065L231.957 203.017C227.474 197.039 224.756 200.028 224.485 200.436L253.696 165.518C261.576 155.6 253.152 147.177 245.408 146.633H281.956L281.14 146.769C278.287 147.584 270.679 150.437 261.44 159.676L257.5 163.752L255.598 166.062L246.495 176.931C244.864 178.697 244.049 180.6 243.913 182.637C243.913 186.442 244.864 187.665 247.446 191.061Z" fill="#55142E" fill-opacity="0.3"/>
<path d="M133.736 145.003C149.36 145.003 161.724 151.117 168.653 160.492C175.718 169.866 179.115 181.415 178.979 193.915C178.571 218.642 162.403 242.962 129.524 242.554C113.899 242.418 100.992 235.489 93.7912 225.707C86.5904 215.925 82.7861 204.24 83.1937 192.828C83.3296 178.562 88.2208 167.013 97.5955 158.182C107.106 149.351 119.198 144.867 133.736 145.003ZM153.572 190.654C151.942 178.018 148.273 167.421 142.703 158.59C137.132 149.758 130.475 146.09 123.002 147.313C116.888 148.264 112.541 153.019 109.687 161.307C106.97 169.595 106.427 180.056 108.193 192.828C109.959 205.463 113.628 216.332 118.926 225.435C124.361 234.538 130.611 239.429 137.812 239.973C145.012 240.652 150.039 236.44 152.621 227.609C155.338 218.642 155.61 206.278 153.572 190.654Z" fill="#55142E" fill-opacity="0.3"/>
<path d="M38.2622 216.468V159.948C38.2622 153.834 35.8167 149.486 32.42 147.992C29.0234 146.497 27.393 146.226 25.6268 146.226H72.5003C70.7341 146.226 69.1037 146.497 65.707 147.992C62.3104 149.486 59.8648 153.834 59.8648 159.948V217.283C59.8648 225.571 56.3323 232.092 51.9846 235.489C49.8108 237.119 47.2294 238.478 44.1044 239.429C38.1264 241.467 33.9146 241.603 28.6158 241.603C23.8605 241.603 18.6976 240.516 12.0402 237.799C5.5187 234.946 0.627551 228.152 0.491685 219.049C0.35582 213.479 4.29591 207.501 10.6816 207.501C18.9694 207.501 22.6377 214.838 20.0563 223.125C17.339 232.908 21.9584 239.973 29.5669 239.973C34.0504 240.652 36.2243 236.712 37.1753 233.587C37.5829 232.636 37.7188 230.87 37.8546 228.56C37.9905 226.25 38.1264 224.348 38.1264 223.125C38.2622 221.903 38.2622 219.593 38.2622 216.468Z" fill="#55142E" fill-opacity="0.3"/>
<path d="M594.814 436.226H624.976C616.96 437.992 610.303 443.698 604.868 453.073L590.059 479.974C588.293 483.371 587.341 488.262 587.341 494.919V516.25C587.341 522.364 589.923 527.119 593.32 528.886C596.988 530.652 598.89 531.195 600.928 531.331H552.424C554.19 531.331 556.5 530.788 559.761 529.022C563.157 527.255 565.739 522.772 565.739 516.794L565.875 498.724C565.875 492.066 564.516 486.496 561.935 482.284L543.049 451.307C536.528 440.845 528.376 436.226 524.164 436.226L572.532 436.361C564.788 436.497 560.712 443.698 564.924 451.443L580.412 477.936C583.537 483.507 586.662 483.235 589.923 477.121L603.102 453.48C608.129 444.378 605.14 437.448 594.814 436.226Z" fill="#55142E" fill-opacity="0.3"/>
<path d="M510.899 453.616V513.669C510.899 521.141 514.024 526.44 517.964 528.614C521.904 530.652 524.486 531.331 526.116 531.331H472.721C474.352 531.331 476.933 530.652 480.873 528.614C484.813 526.44 487.938 521.141 487.938 513.669V467.203C487.938 460.41 487.53 456.877 486.715 456.741C485.492 456.605 484.406 458.1 482.232 463.67L453.157 535L413.756 462.991C409.815 455.247 407.642 454.296 407.37 460.138V461.768L407.098 508.778C407.098 517.337 410.767 523.723 414.571 526.576C416.473 527.935 418.647 529.022 421.228 529.837C426.255 531.467 427.75 531.331 428.973 531.331H383.865C385.088 531.331 386.718 531.467 391.474 529.837C398.267 527.663 404.924 521.957 405.332 508.506V458.236C405.332 440.981 391.066 437.041 387.669 436.361L387.126 436.226H424.761L455.466 492.202C458.591 497.773 460.357 500.897 461.037 501.441C462.259 502.664 463.754 501.713 465.249 498.588C465.792 497.637 466.335 496.278 467.015 494.648L491.335 436.226H526.796C525.98 436.226 511.035 437.177 510.899 453.616Z" fill="#55142E" fill-opacity="0.3"/>
<path d="M367.841 487.583V457.285C367.841 448.59 364.852 442.204 360.64 439.623C356.7 437.041 354.118 436.362 351.945 436.226H384.416C382.514 436.498 369.607 438.128 369.607 458.644V489.349C369.607 492.203 369.607 494.512 369.471 496.279C369.471 498.045 369.2 500.626 368.792 504.023C368.384 507.42 367.841 510.273 367.026 512.582C365.531 517.066 362.406 523.723 357.923 527.12C353.575 530.517 346.374 533.37 337.679 533.37C323.141 533.37 312.815 529.701 306.973 522.229C301.131 514.756 298.278 503.344 298.278 488.127V453.889C298.278 447.367 295.968 442.34 293.658 440.166C289.447 436.362 285.099 436.09 283.74 436.226H336.048C334.282 436.226 333.059 436.226 329.663 437.449C325.587 439.079 320.967 443.563 320.967 453.889V493.29C320.967 517.338 330.07 528.75 346.51 527.663C361.727 526.577 367.841 514.349 367.841 487.583Z" fill="#55142E" fill-opacity="0.3"/>
<path d="M224.213 449.948V517.609C224.213 523.451 226.93 527.663 230.598 529.293C234.403 530.924 236.577 531.331 238.207 531.331H188.752C190.382 531.331 192.556 530.924 196.225 529.293C199.893 527.663 202.61 523.451 202.61 517.609V449.948C202.61 443.834 199.893 439.486 196.089 437.992C192.42 436.497 190.518 436.226 188.752 436.226H238.207C236.441 436.226 234.539 436.497 230.734 437.992C226.93 439.486 224.213 443.834 224.213 449.948ZM244.457 436.633H245.408H244.457ZM247.446 481.061L268.912 509.185C277.608 520.462 286.032 528.478 289.292 530.244L291.738 531.603L261.304 531.331L250.163 517.065L231.957 493.017C227.474 487.039 224.756 490.028 224.485 490.436L253.696 455.518C261.576 445.6 253.152 437.177 245.408 436.633H281.956L281.14 436.769C278.287 437.584 270.679 440.437 261.44 449.676L257.5 453.752L255.598 456.062L246.495 466.931C244.864 468.697 244.049 470.6 243.913 472.637C243.913 476.442 244.864 477.665 247.446 481.061Z" fill="#55142E" fill-opacity="0.3"/>
<path d="M133.736 435.003C149.36 435.003 161.724 441.117 168.653 450.492C175.718 459.866 179.115 471.415 178.979 483.915C178.571 508.642 162.403 532.962 129.524 532.554C113.899 532.418 100.992 525.489 93.7912 515.707C86.5904 505.925 82.7861 494.24 83.1937 482.828C83.3296 468.562 88.2208 457.013 97.5955 448.182C107.106 439.351 119.198 434.867 133.736 435.003ZM153.572 480.654C151.942 468.018 148.273 457.421 142.703 448.59C137.132 439.758 130.475 436.09 123.002 437.313C116.888 438.264 112.541 443.019 109.687 451.307C106.97 459.595 106.427 470.056 108.193 482.828C109.959 495.463 113.628 506.332 118.926 515.435C124.361 524.538 130.611 529.429 137.812 529.973C145.012 530.652 150.039 526.44 152.621 517.609C155.338 508.642 155.61 496.278 153.572 480.654Z" fill="#55142E" fill-opacity="0.3"/>
<path d="M38.2622 506.468V449.948C38.2622 443.834 35.8167 439.486 32.42 437.992C29.0234 436.497 27.393 436.226 25.6268 436.226H72.5003C70.7341 436.226 69.1037 436.497 65.707 437.992C62.3104 439.486 59.8648 443.834 59.8648 449.948V507.283C59.8648 515.571 56.3323 522.092 51.9846 525.489C49.8108 527.119 47.2294 528.478 44.1044 529.429C38.1264 531.467 33.9146 531.603 28.6158 531.603C23.8605 531.603 18.6976 530.516 12.0402 527.799C5.5187 524.946 0.627551 518.152 0.491685 509.049C0.35582 503.479 4.29591 497.501 10.6816 497.501C18.9694 497.501 22.6377 504.838 20.0563 513.125C17.339 522.908 21.9584 529.973 29.5669 529.973C34.0504 530.652 36.2243 526.712 37.1753 523.587C37.5829 522.636 37.7188 520.87 37.8546 518.56C37.9905 516.25 38.1264 514.348 38.1264 513.125C38.2622 511.903 38.2622 509.593 38.2622 506.468Z" fill="#55142E" fill-opacity="0.3"/>
<path d="M594.814 726.226H624.976C616.96 727.992 610.303 733.698 604.868 743.073L590.059 769.974C588.293 773.371 587.341 778.262 587.341 784.919V806.25C587.341 812.364 589.923 817.119 593.32 818.886C596.988 820.652 598.89 821.195 600.928 821.331H552.424C554.19 821.331 556.5 820.788 559.761 819.022C563.157 817.255 565.739 812.772 565.739 806.794L565.875 788.724C565.875 782.066 564.516 776.496 561.935 772.284L543.049 741.307C536.528 730.845 528.376 726.226 524.164 726.226L572.532 726.361C564.788 726.497 560.712 733.698 564.924 741.443L580.412 767.936C583.537 773.507 586.662 773.235 589.923 767.121L603.102 743.48C608.129 734.378 605.14 727.448 594.814 726.226Z" fill="#55142E" fill-opacity="0.3"/>
<path d="M510.899 743.616V803.669C510.899 811.141 514.024 816.44 517.964 818.614C521.904 820.652 524.486 821.331 526.116 821.331H472.721C474.352 821.331 476.933 820.652 480.873 818.614C484.813 816.44 487.938 811.141 487.938 803.669V757.203C487.938 750.41 487.53 746.877 486.715 746.741C485.492 746.605 484.406 748.1 482.232 753.67L453.157 825L413.756 752.991C409.815 745.247 407.642 744.296 407.37 750.138V751.768L407.098 798.778C407.098 807.337 410.767 813.723 414.571 816.576C416.473 817.935 418.647 819.022 421.228 819.837C426.255 821.467 427.75 821.331 428.973 821.331H383.865C385.088 821.331 386.718 821.467 391.474 819.837C398.267 817.663 404.924 811.957 405.332 798.506V748.236C405.332 730.981 391.066 727.041 387.669 726.361L387.126 726.226H424.761L455.466 782.202C458.591 787.773 460.357 790.897 461.037 791.441C462.259 792.664 463.754 791.713 465.249 788.588C465.792 787.637 466.335 786.278 467.015 784.648L491.335 726.226H526.796C525.98 726.226 511.035 727.177 510.899 743.616Z" fill="#55142E" fill-opacity="0.3"/>
<path d="M367.841 777.583V747.285C367.841 738.59 364.852 732.204 360.64 729.623C356.7 727.041 354.118 726.362 351.945 726.226H384.416C382.514 726.498 369.607 728.128 369.607 748.644V779.349C369.607 782.203 369.607 784.512 369.471 786.279C369.471 788.045 369.2 790.626 368.792 794.023C368.384 797.42 367.841 800.273 367.026 802.582C365.531 807.066 362.406 813.723 357.923 817.12C353.575 820.517 346.374 823.37 337.679 823.37C323.141 823.37 312.815 819.701 306.973 812.229C301.131 804.756 298.278 793.344 298.278 778.127V743.889C298.278 737.367 295.968 732.34 293.658 730.166C289.447 726.362 285.099 726.09 283.74 726.226H336.048C334.282 726.226 333.059 726.226 329.663 727.449C325.587 729.079 320.967 733.563 320.967 743.889V783.29C320.967 807.338 330.07 818.75 346.51 817.663C361.727 816.577 367.841 804.349 367.841 777.583Z" fill="#55142E" fill-opacity="0.3"/>
<path d="M224.213 739.948V807.609C224.213 813.451 226.93 817.663 230.598 819.293C234.403 820.924 236.577 821.331 238.207 821.331H188.752C190.382 821.331 192.556 820.924 196.225 819.293C199.893 817.663 202.61 813.451 202.61 807.609V739.948C202.61 733.834 199.893 729.486 196.089 727.992C192.42 726.497 190.518 726.226 188.752 726.226H238.207C236.441 726.226 234.539 726.497 230.734 727.992C226.93 729.486 224.213 733.834 224.213 739.948ZM244.457 726.633H245.408H244.457ZM247.446 771.061L268.912 799.185C277.608 810.462 286.032 818.478 289.292 820.244L291.738 821.603L261.304 821.331L250.163 807.065L231.957 783.017C227.474 777.039 224.756 780.028 224.485 780.436L253.696 745.518C261.576 735.6 253.152 727.177 245.408 726.633H281.956L281.14 726.769C278.287 727.584 270.679 730.437 261.44 739.676L257.5 743.752L255.598 746.062L246.495 756.931C244.864 758.697 244.049 760.6 243.913 762.637C243.913 766.442 244.864 767.665 247.446 771.061Z" fill="#55142E" fill-opacity="0.3"/>
<path d="M133.736 725.003C149.36 725.003 161.724 731.117 168.653 740.492C175.718 749.866 179.115 761.415 178.979 773.915C178.571 798.642 162.403 822.962 129.524 822.554C113.899 822.418 100.992 815.489 93.7912 805.707C86.5904 795.925 82.7861 784.24 83.1937 772.828C83.3296 758.562 88.2208 747.013 97.5955 738.182C107.106 729.351 119.198 724.867 133.736 725.003ZM153.572 770.654C151.942 758.018 148.273 747.421 142.703 738.59C137.132 729.758 130.475 726.09 123.002 727.313C116.888 728.264 112.541 733.019 109.687 741.307C106.97 749.595 106.427 760.056 108.193 772.828C109.959 785.463 113.628 796.332 118.926 805.435C124.361 814.538 130.611 819.429 137.812 819.973C145.012 820.652 150.039 816.44 152.621 807.609C155.338 798.642 155.61 786.278 153.572 770.654Z" fill="#55142E" fill-opacity="0.3"/>
<path d="M38.2622 796.468V739.948C38.2622 733.834 35.8167 729.486 32.42 727.992C29.0234 726.497 27.393 726.226 25.6268 726.226H72.5003C70.7341 726.226 69.1037 726.497 65.707 727.992C62.3104 729.486 59.8648 733.834 59.8648 739.948V797.283C59.8648 805.571 56.3323 812.092 51.9846 815.489C49.8108 817.119 47.2294 818.478 44.1044 819.429C38.1264 821.467 33.9146 821.603 28.6158 821.603C23.8605 821.603 18.6976 820.516 12.0402 817.799C5.5187 814.946 0.627551 808.152 0.491685 799.049C0.35582 793.479 4.29591 787.501 10.6816 787.501C18.9694 787.501 22.6377 794.838 20.0563 803.125C17.339 812.908 21.9584 819.973 29.5669 819.973C34.0504 820.652 36.2243 816.712 37.1753 813.587C37.5829 812.636 37.7188 810.87 37.8546 808.56C37.9905 806.25 38.1264 804.348 38.1264 803.125C38.2622 801.903 38.2622 799.593 38.2622 796.468Z" fill="#55142E" fill-opacity="0.3"/>
<path d="M594.814 1016.23H624.976C616.96 1017.99 610.303 1023.7 604.868 1033.07L590.059 1059.97C588.293 1063.37 587.341 1068.26 587.341 1074.92V1096.25C587.341 1102.36 589.923 1107.12 593.32 1108.89C596.988 1110.65 598.89 1111.2 600.928 1111.33H552.424C554.19 1111.33 556.5 1110.79 559.761 1109.02C563.157 1107.26 565.739 1102.77 565.739 1096.79L565.875 1078.72C565.875 1072.07 564.516 1066.5 561.935 1062.28L543.049 1031.31C536.528 1020.85 528.376 1016.23 524.164 1016.23L572.532 1016.36C564.788 1016.5 560.712 1023.7 564.924 1031.44L580.412 1057.94C583.537 1063.51 586.662 1063.23 589.923 1057.12L603.102 1033.48C608.129 1024.38 605.14 1017.45 594.814 1016.23Z" fill="#55142E" fill-opacity="0.3"/>
<path d="M510.899 1033.62V1093.67C510.899 1101.14 514.024 1106.44 517.964 1108.61C521.904 1110.65 524.486 1111.33 526.116 1111.33H472.721C474.352 1111.33 476.933 1110.65 480.873 1108.61C484.813 1106.44 487.938 1101.14 487.938 1093.67V1047.2C487.938 1040.41 487.53 1036.88 486.715 1036.74C485.492 1036.61 484.406 1038.1 482.232 1043.67L453.157 1115L413.756 1042.99C409.815 1035.25 407.642 1034.3 407.37 1040.14V1041.77L407.098 1088.78C407.098 1097.34 410.767 1103.72 414.571 1106.58C416.473 1107.93 418.647 1109.02 421.228 1109.84C426.255 1111.47 427.75 1111.33 428.973 1111.33H383.865C385.088 1111.33 386.718 1111.47 391.474 1109.84C398.267 1107.66 404.924 1101.96 405.332 1088.51V1038.24C405.332 1020.98 391.066 1017.04 387.669 1016.36L387.126 1016.23H424.761L455.466 1072.2C458.591 1077.77 460.357 1080.9 461.037 1081.44C462.259 1082.66 463.754 1081.71 465.249 1078.59C465.792 1077.64 466.335 1076.28 467.015 1074.65L491.335 1016.23H526.796C525.98 1016.23 511.035 1017.18 510.899 1033.62Z" fill="#55142E" fill-opacity="0.3"/>
<path d="M367.841 1067.58V1037.29C367.841 1028.59 364.852 1022.2 360.64 1019.62C356.7 1017.04 354.118 1016.36 351.945 1016.23H384.416C382.514 1016.5 369.607 1018.13 369.607 1038.64V1069.35C369.607 1072.2 369.607 1074.51 369.471 1076.28C369.471 1078.04 369.2 1080.63 368.792 1084.02C368.384 1087.42 367.841 1090.27 367.026 1092.58C365.531 1097.07 362.406 1103.72 357.923 1107.12C353.575 1110.52 346.374 1113.37 337.679 1113.37C323.141 1113.37 312.815 1109.7 306.973 1102.23C301.131 1094.76 298.278 1083.34 298.278 1068.13V1033.89C298.278 1027.37 295.968 1022.34 293.658 1020.17C289.447 1016.36 285.099 1016.09 283.74 1016.23H336.048C334.282 1016.23 333.059 1016.23 329.663 1017.45C325.587 1019.08 320.967 1023.56 320.967 1033.89V1073.29C320.967 1097.34 330.07 1108.75 346.51 1107.66C361.727 1106.58 367.841 1094.35 367.841 1067.58Z" fill="#55142E" fill-opacity="0.3"/>
<path d="M224.213 1029.95V1097.61C224.213 1103.45 226.93 1107.66 230.598 1109.29C234.403 1110.92 236.577 1111.33 238.207 1111.33H188.752C190.382 1111.33 192.556 1110.92 196.225 1109.29C199.893 1107.66 202.61 1103.45 202.61 1097.61V1029.95C202.61 1023.83 199.893 1019.49 196.089 1017.99C192.42 1016.5 190.518 1016.23 188.752 1016.23H238.207C236.441 1016.23 234.539 1016.5 230.734 1017.99C226.93 1019.49 224.213 1023.83 224.213 1029.95ZM244.457 1016.63H245.408H244.457ZM247.446 1061.06L268.912 1089.19C277.608 1100.46 286.032 1108.48 289.292 1110.24L291.738 1111.6L261.304 1111.33L250.163 1097.07L231.957 1073.02C227.474 1067.04 224.756 1070.03 224.485 1070.44L253.696 1035.52C261.576 1025.6 253.152 1017.18 245.408 1016.63H281.956L281.14 1016.77C278.287 1017.58 270.679 1020.44 261.44 1029.68L257.5 1033.75L255.598 1036.06L246.495 1046.93C244.864 1048.7 244.049 1050.6 243.913 1052.64C243.913 1056.44 244.864 1057.66 247.446 1061.06Z" fill="#55142E" fill-opacity="0.3"/>
<path d="M133.736 1015C149.36 1015 161.724 1021.12 168.653 1030.49C175.718 1039.87 179.115 1051.41 178.979 1063.91C178.571 1088.64 162.403 1112.96 129.524 1112.55C113.899 1112.42 100.992 1105.49 93.7912 1095.71C86.5904 1085.92 82.7861 1074.24 83.1937 1062.83C83.3296 1048.56 88.2208 1037.01 97.5955 1028.18C107.106 1019.35 119.198 1014.87 133.736 1015ZM153.572 1060.65C151.942 1048.02 148.273 1037.42 142.703 1028.59C137.132 1019.76 130.475 1016.09 123.002 1017.31C116.888 1018.26 112.541 1023.02 109.687 1031.31C106.97 1039.59 106.427 1050.06 108.193 1062.83C109.959 1075.46 113.628 1086.33 118.926 1095.44C124.361 1104.54 130.611 1109.43 137.812 1109.97C145.012 1110.65 150.039 1106.44 152.621 1097.61C155.338 1088.64 155.61 1076.28 153.572 1060.65Z" fill="#55142E" fill-opacity="0.3"/>
<path d="M38.2622 1086.47V1029.95C38.2622 1023.83 35.8167 1019.49 32.42 1017.99C29.0234 1016.5 27.393 1016.23 25.6268 1016.23H72.5003C70.7341 1016.23 69.1037 1016.5 65.707 1017.99C62.3104 1019.49 59.8648 1023.83 59.8648 1029.95V1087.28C59.8648 1095.57 56.3323 1102.09 51.9846 1105.49C49.8108 1107.12 47.2294 1108.48 44.1044 1109.43C38.1264 1111.47 33.9146 1111.6 28.6158 1111.6C23.8605 1111.6 18.6976 1110.52 12.0402 1107.8C5.5187 1104.95 0.627551 1098.15 0.491685 1089.05C0.35582 1083.48 4.29591 1077.5 10.6816 1077.5C18.9694 1077.5 22.6377 1084.84 20.0563 1093.13C17.339 1102.91 21.9584 1109.97 29.5669 1109.97C34.0504 1110.65 36.2243 1106.71 37.1753 1103.59C37.5829 1102.64 37.7188 1100.87 37.8546 1098.56C37.9905 1096.25 38.1264 1094.35 38.1264 1093.13C38.2622 1091.9 38.2622 1089.59 38.2622 1086.47Z" fill="#55142E" fill-opacity="0.3"/>
<path d="M594.326 1.22559H624.488C616.472 2.99184 609.814 8.69818 604.38 18.0729L589.57 44.9742C587.804 48.3708 586.853 53.262 586.853 59.9194V81.2503C586.853 87.3642 589.435 92.1195 592.831 93.8857C596.5 95.652 598.402 96.1954 600.44 96.3313H551.936C553.702 96.3313 556.012 95.7878 559.273 94.0216C562.669 92.2553 565.251 87.7718 565.251 81.7937L565.386 63.7236C565.386 57.0662 564.028 51.4958 561.446 47.2839L542.561 16.3066C536.04 5.84501 527.888 1.22559 523.676 1.22559L572.044 1.36145C564.3 1.49732 560.224 8.69818 564.435 16.4425L579.924 42.9362C583.049 48.5067 586.174 48.235 589.435 42.121L602.614 18.4805C607.641 9.3775 604.652 2.44837 594.326 1.22559Z" fill="#A12256" fill-opacity="0.2"/>
<path d="M510.411 18.6163V78.6688C510.411 86.1414 513.536 91.4402 517.476 93.614C521.416 95.652 523.998 96.3313 525.628 96.3313H472.233C473.863 96.3313 476.445 95.652 480.385 93.614C484.325 91.4402 487.45 86.1414 487.45 78.6688V32.2029C487.45 25.4096 487.042 21.8771 486.227 21.7412C485.004 21.6054 483.917 23.0999 481.743 28.6704L452.668 99.9997L413.267 27.9911C409.327 20.2467 407.153 19.2957 406.882 25.1379V26.7683L406.61 73.7777C406.61 82.3372 410.278 88.7228 414.082 91.576C415.985 92.9347 418.158 94.0216 420.74 94.8368C425.767 96.4672 427.261 96.3313 428.484 96.3313H383.377C384.6 96.3313 386.23 96.4672 390.985 94.8368C397.779 92.6629 404.436 86.9566 404.844 73.5059V23.2358C404.844 5.98088 390.578 2.04078 387.181 1.36145L386.638 1.22559H424.272L454.978 57.2021C458.103 62.7726 459.869 65.8975 460.548 66.4409C461.771 67.6637 463.266 66.7127 464.76 63.5878C465.304 62.6367 465.847 61.2781 466.527 59.6477L490.846 1.22559H526.307C525.492 1.22559 510.547 2.17665 510.411 18.6163Z" fill="#A12256" fill-opacity="0.2"/>
<path d="M367.353 52.5832V22.2853C367.353 13.5899 364.364 7.20422 360.152 4.62278C356.212 2.04134 353.63 1.36201 351.456 1.22615H383.928C382.026 1.49788 369.119 3.12826 369.119 23.6439V54.3495C369.119 57.2027 369.119 59.5124 368.983 61.2786C368.983 63.0449 368.711 65.6263 368.304 69.0229C367.896 72.4196 367.353 75.2727 366.537 77.5824C365.043 82.066 361.918 88.7234 357.434 92.12C353.087 95.5167 345.886 98.3698 337.19 98.3698C322.653 98.3698 312.327 94.7015 306.485 87.2289C300.643 79.7563 297.79 68.3436 297.79 53.1267V18.8886C297.79 12.3671 295.48 7.34009 293.17 5.16624C288.958 1.36201 284.611 1.09028 283.252 1.22615H335.56C333.794 1.22615 332.571 1.22615 329.174 2.44893C325.098 4.07932 320.479 8.56287 320.479 18.8886V58.2896C320.479 82.3377 329.582 93.7504 346.022 92.6635C361.239 91.5766 367.353 79.3487 367.353 52.5832Z" fill="#A12256" fill-opacity="0.2"/>
<path d="M223.725 14.948V82.6089C223.725 88.4511 226.442 92.6629 230.11 94.2933C233.914 95.9237 236.088 96.3313 237.719 96.3313H188.264C189.894 96.3313 192.068 95.9237 195.736 94.2933C199.405 92.6629 202.122 88.4511 202.122 82.6089V14.948C202.122 8.83404 199.405 4.48635 195.6 2.99184C191.932 1.49732 190.03 1.22559 188.264 1.22559H237.719C235.952 1.22559 234.05 1.49732 230.246 2.99184C226.442 4.48635 223.725 8.83404 223.725 14.948ZM243.968 1.63318H244.919H243.968ZM246.957 46.0611L268.424 74.1853C277.12 85.4621 285.543 93.4781 288.804 95.2444L291.25 96.603L260.816 96.3313L249.675 82.0654L231.469 58.0173C226.985 52.0392 224.268 55.0282 223.996 55.4358L253.207 20.5185C261.087 10.6003 252.664 2.17665 244.919 1.63318H281.467L280.652 1.76905C277.799 2.58424 270.19 5.43742 260.952 14.6763L257.012 18.7522L255.109 21.0619L246.006 31.9311C244.376 33.6974 243.561 35.5995 243.425 37.6375C243.425 41.4417 244.376 42.6645 246.957 46.0611Z" fill="#A12256" fill-opacity="0.2"/>
<path d="M133.247 0.00299782C148.872 0.00299782 161.236 6.11694 168.165 15.4916C175.23 24.8664 178.626 36.4149 178.491 48.9145C178.083 73.642 161.915 97.9619 129.036 97.5543C113.411 97.4184 100.504 90.4893 93.303 80.707C86.1021 70.9247 82.2979 59.2403 82.7055 47.8276C82.8413 33.5617 87.7325 22.0132 97.1072 13.1819C106.618 4.35069 118.71 -0.132866 133.247 0.00299782ZM153.084 45.6537C151.453 33.0183 147.785 22.4208 142.214 13.5895C136.644 4.75828 129.987 1.08992 122.514 2.31271C116.4 3.26376 112.052 8.01905 109.199 16.3068C106.482 24.5946 105.938 35.0562 107.705 47.8276C109.471 60.4631 113.139 71.3323 118.438 80.4353C123.873 89.5382 130.122 94.4294 137.323 94.9729C144.524 95.6522 149.551 91.4404 152.133 82.6091C154.85 73.642 155.122 61.2783 153.084 45.6537Z" fill="#A12256" fill-opacity="0.2"/>
<path d="M37.774 71.468V14.948C37.774 8.83404 35.3284 4.48635 31.9318 2.99184C28.5351 1.49732 26.9047 1.22559 25.1385 1.22559H72.012C70.2458 1.22559 68.6154 1.49732 65.2188 2.99184C61.8221 4.48635 59.3765 8.83404 59.3765 14.948V72.2831C59.3765 80.5709 55.844 87.0925 51.4964 90.4891C49.3225 92.1195 46.7411 93.4781 43.6162 94.4292C37.6381 96.4672 33.4263 96.603 28.1275 96.603C23.3722 96.603 18.2094 95.5161 11.552 92.7988C5.03042 89.9456 0.13927 83.1524 0.00340422 74.0494C-0.132461 68.4789 3.80763 62.5008 10.1933 62.5008C18.4811 62.5008 22.1494 69.8376 19.568 78.1254C16.8507 87.9077 21.4701 94.9727 29.0786 94.9727C33.5621 95.652 35.736 91.7119 36.687 88.587C37.0946 87.6359 37.2305 85.8697 37.3664 83.56C37.5022 81.2503 37.6381 79.3481 37.6381 78.1254C37.774 76.9026 37.774 74.5929 37.774 71.468Z" fill="#A12256" fill-opacity="0.2"/>
<path d="M594.326 291.226H624.488C616.472 292.992 609.814 298.698 604.38 308.073L589.57 334.974C587.804 338.371 586.853 343.262 586.853 349.919V371.25C586.853 377.364 589.435 382.119 592.831 383.886C596.5 385.652 598.402 386.195 600.44 386.331H551.936C553.702 386.331 556.012 385.788 559.273 384.022C562.669 382.255 565.251 377.772 565.251 371.794L565.386 353.724C565.386 347.066 564.028 341.496 561.446 337.284L542.561 306.307C536.04 295.845 527.888 291.226 523.676 291.226L572.044 291.361C564.3 291.497 560.224 298.698 564.435 306.443L579.924 332.936C583.049 338.507 586.174 338.235 589.435 332.121L602.614 308.48C607.641 299.378 604.652 292.448 594.326 291.226Z" fill="#A12256" fill-opacity="0.2"/>
<path d="M510.411 308.616V368.669C510.411 376.141 513.536 381.44 517.476 383.614C521.416 385.652 523.998 386.331 525.628 386.331H472.233C473.863 386.331 476.445 385.652 480.385 383.614C484.325 381.44 487.45 376.141 487.45 368.669V322.203C487.45 315.41 487.042 311.877 486.227 311.741C485.004 311.605 483.917 313.1 481.743 318.67L452.668 390L413.267 317.991C409.327 310.247 407.153 309.296 406.882 315.138V316.768L406.61 363.778C406.61 372.337 410.278 378.723 414.082 381.576C415.985 382.935 418.158 384.022 420.74 384.837C425.767 386.467 427.261 386.331 428.484 386.331H383.377C384.6 386.331 386.23 386.467 390.985 384.837C397.779 382.663 404.436 376.957 404.844 363.506V313.236C404.844 295.981 390.578 292.041 387.181 291.361L386.638 291.226H424.272L454.978 347.202C458.103 352.773 459.869 355.897 460.548 356.441C461.771 357.664 463.266 356.713 464.76 353.588C465.304 352.637 465.847 351.278 466.527 349.648L490.846 291.226H526.307C525.492 291.226 510.547 292.177 510.411 308.616Z" fill="#A12256" fill-opacity="0.2"/>
<path d="M367.353 342.583V312.285C367.353 303.59 364.364 297.204 360.152 294.623C356.212 292.041 353.63 291.362 351.456 291.226H383.928C382.026 291.498 369.119 293.128 369.119 313.644V344.349C369.119 347.203 369.119 349.512 368.983 351.279C368.983 353.045 368.711 355.626 368.304 359.023C367.896 362.42 367.353 365.273 366.537 367.582C365.043 372.066 361.918 378.723 357.434 382.12C353.087 385.517 345.886 388.37 337.19 388.37C322.653 388.37 312.327 384.701 306.485 377.229C300.643 369.756 297.79 358.344 297.79 343.127V308.889C297.79 302.367 295.48 297.34 293.17 295.166C288.958 291.362 284.611 291.09 283.252 291.226H335.56C333.794 291.226 332.571 291.226 329.174 292.449C325.098 294.079 320.479 298.563 320.479 308.889V348.29C320.479 372.338 329.582 383.75 346.022 382.663C361.239 381.577 367.353 369.349 367.353 342.583Z" fill="#A12256" fill-opacity="0.2"/>
<path d="M223.725 304.948V372.609C223.725 378.451 226.442 382.663 230.11 384.293C233.914 385.924 236.088 386.331 237.719 386.331H188.264C189.894 386.331 192.068 385.924 195.736 384.293C199.405 382.663 202.122 378.451 202.122 372.609V304.948C202.122 298.834 199.405 294.486 195.6 292.992C191.932 291.497 190.03 291.226 188.264 291.226H237.719C235.952 291.226 234.05 291.497 230.246 292.992C226.442 294.486 223.725 298.834 223.725 304.948ZM243.968 291.633H244.919H243.968ZM246.957 336.061L268.424 364.185C277.12 375.462 285.543 383.478 288.804 385.244L291.25 386.603L260.816 386.331L249.675 372.065L231.469 348.017C226.985 342.039 224.268 345.028 223.996 345.436L253.207 310.518C261.087 300.6 252.664 292.177 244.919 291.633H281.467L280.652 291.769C277.799 292.584 270.19 295.437 260.952 304.676L257.012 308.752L255.109 311.062L246.006 321.931C244.376 323.697 243.561 325.6 243.425 327.637C243.425 331.442 244.376 332.665 246.957 336.061Z" fill="#A12256" fill-opacity="0.2"/>
<path d="M133.247 290.003C148.872 290.003 161.236 296.117 168.165 305.492C175.23 314.866 178.626 326.415 178.491 338.915C178.083 363.642 161.915 387.962 129.036 387.554C113.411 387.418 100.504 380.489 93.303 370.707C86.1021 360.925 82.2979 349.24 82.7055 337.828C82.8413 323.562 87.7325 312.013 97.1072 303.182C106.618 294.351 118.71 289.867 133.247 290.003ZM153.084 335.654C151.453 323.018 147.785 312.421 142.214 303.59C136.644 294.758 129.987 291.09 122.514 292.313C116.4 293.264 112.052 298.019 109.199 306.307C106.482 314.595 105.938 325.056 107.705 337.828C109.471 350.463 113.139 361.332 118.438 370.435C123.873 379.538 130.122 384.429 137.323 384.973C144.524 385.652 149.551 381.44 152.133 372.609C154.85 363.642 155.122 351.278 153.084 335.654Z" fill="#A12256" fill-opacity="0.2"/>
<path d="M37.774 361.468V304.948C37.774 298.834 35.3284 294.486 31.9318 292.992C28.5351 291.497 26.9047 291.226 25.1385 291.226H72.012C70.2458 291.226 68.6154 291.497 65.2188 292.992C61.8221 294.486 59.3765 298.834 59.3765 304.948V362.283C59.3765 370.571 55.844 377.092 51.4964 380.489C49.3225 382.119 46.7411 383.478 43.6162 384.429C37.6381 386.467 33.4263 386.603 28.1275 386.603C23.3722 386.603 18.2094 385.516 11.552 382.799C5.03042 379.946 0.13927 373.152 0.00340422 364.049C-0.132461 358.479 3.80763 352.501 10.1933 352.501C18.4811 352.501 22.1494 359.838 19.568 368.125C16.8507 377.908 21.4701 384.973 29.0786 384.973C33.5621 385.652 35.736 381.712 36.687 378.587C37.0946 377.636 37.2305 375.87 37.3664 373.56C37.5022 371.25 37.6381 369.348 37.6381 368.125C37.774 366.903 37.774 364.593 37.774 361.468Z" fill="#A12256" fill-opacity="0.2"/>
<path d="M594.326 581.226H624.488C616.472 582.992 609.814 588.698 604.38 598.073L589.57 624.974C587.804 628.371 586.853 633.262 586.853 639.919V661.25C586.853 667.364 589.435 672.119 592.831 673.886C596.5 675.652 598.402 676.195 600.44 676.331H551.936C553.702 676.331 556.012 675.788 559.273 674.022C562.669 672.255 565.251 667.772 565.251 661.794L565.386 643.724C565.386 637.066 564.028 631.496 561.446 627.284L542.561 596.307C536.04 585.845 527.888 581.226 523.676 581.226L572.044 581.361C564.3 581.497 560.224 588.698 564.435 596.443L579.924 622.936C583.049 628.507 586.174 628.235 589.435 622.121L602.614 598.48C607.641 589.378 604.652 582.448 594.326 581.226Z" fill="#A12256" fill-opacity="0.2"/>
<path d="M510.411 598.616V658.669C510.411 666.141 513.536 671.44 517.476 673.614C521.416 675.652 523.998 676.331 525.628 676.331H472.233C473.863 676.331 476.445 675.652 480.385 673.614C484.325 671.44 487.45 666.141 487.45 658.669V612.203C487.45 605.41 487.042 601.877 486.227 601.741C485.004 601.605 483.917 603.1 481.743 608.67L452.668 680L413.267 607.991C409.327 600.247 407.153 599.296 406.882 605.138V606.768L406.61 653.778C406.61 662.337 410.278 668.723 414.082 671.576C415.985 672.935 418.158 674.022 420.74 674.837C425.767 676.467 427.261 676.331 428.484 676.331H383.377C384.6 676.331 386.23 676.467 390.985 674.837C397.779 672.663 404.436 666.957 404.844 653.506V603.236C404.844 585.981 390.578 582.041 387.181 581.361L386.638 581.226H424.272L454.978 637.202C458.103 642.773 459.869 645.897 460.548 646.441C461.771 647.664 463.266 646.713 464.76 643.588C465.304 642.637 465.847 641.278 466.527 639.648L490.846 581.226H526.307C525.492 581.226 510.547 582.177 510.411 598.616Z" fill="#A12256" fill-opacity="0.2"/>
<path d="M367.353 632.583V602.285C367.353 593.59 364.364 587.204 360.152 584.623C356.212 582.041 353.63 581.362 351.456 581.226H383.928C382.026 581.498 369.119 583.128 369.119 603.644V634.349C369.119 637.203 369.119 639.512 368.983 641.279C368.983 643.045 368.711 645.626 368.304 649.023C367.896 652.42 367.353 655.273 366.537 657.582C365.043 662.066 361.918 668.723 357.434 672.12C353.087 675.517 345.886 678.37 337.19 678.37C322.653 678.37 312.327 674.701 306.485 667.229C300.643 659.756 297.79 648.344 297.79 633.127V598.889C297.79 592.367 295.48 587.34 293.17 585.166C288.958 581.362 284.611 581.09 283.252 581.226H335.56C333.794 581.226 332.571 581.226 329.174 582.449C325.098 584.079 320.479 588.563 320.479 598.889V638.29C320.479 662.338 329.582 673.75 346.022 672.663C361.239 671.577 367.353 659.349 367.353 632.583Z" fill="#A12256" fill-opacity="0.2"/>
<path d="M223.725 594.948V662.609C223.725 668.451 226.442 672.663 230.11 674.293C233.914 675.924 236.088 676.331 237.719 676.331H188.264C189.894 676.331 192.068 675.924 195.736 674.293C199.405 672.663 202.122 668.451 202.122 662.609V594.948C202.122 588.834 199.405 584.486 195.6 582.992C191.932 581.497 190.03 581.226 188.264 581.226H237.719C235.952 581.226 234.05 581.497 230.246 582.992C226.442 584.486 223.725 588.834 223.725 594.948ZM243.968 581.633H244.919H243.968ZM246.957 626.061L268.424 654.185C277.12 665.462 285.543 673.478 288.804 675.244L291.25 676.603L260.816 676.331L249.675 662.065L231.469 638.017C226.985 632.039 224.268 635.028 223.996 635.436L253.207 600.518C261.087 590.6 252.664 582.177 244.919 581.633H281.467L280.652 581.769C277.799 582.584 270.19 585.437 260.952 594.676L257.012 598.752L255.109 601.062L246.006 611.931C244.376 613.697 243.561 615.6 243.425 617.637C243.425 621.442 244.376 622.665 246.957 626.061Z" fill="#A12256" fill-opacity="0.2"/>
<path d="M133.247 580.003C148.872 580.003 161.236 586.117 168.165 595.492C175.23 604.866 178.626 616.415 178.491 628.915C178.083 653.642 161.915 677.962 129.036 677.554C113.411 677.418 100.504 670.489 93.303 660.707C86.1021 650.925 82.2979 639.24 82.7055 627.828C82.8413 613.562 87.7325 602.013 97.1072 593.182C106.618 584.351 118.71 579.867 133.247 580.003ZM153.084 625.654C151.453 613.018 147.785 602.421 142.214 593.59C136.644 584.758 129.987 581.09 122.514 582.313C116.4 583.264 112.052 588.019 109.199 596.307C106.482 604.595 105.938 615.056 107.705 627.828C109.471 640.463 113.139 651.332 118.438 660.435C123.873 669.538 130.122 674.429 137.323 674.973C144.524 675.652 149.551 671.44 152.133 662.609C154.85 653.642 155.122 641.278 153.084 625.654Z" fill="#A12256" fill-opacity="0.2"/>
<path d="M37.774 651.468V594.948C37.774 588.834 35.3284 584.486 31.9318 582.992C28.5351 581.497 26.9047 581.226 25.1385 581.226H72.012C70.2458 581.226 68.6154 581.497 65.2188 582.992C61.8221 584.486 59.3765 588.834 59.3765 594.948V652.283C59.3765 660.571 55.844 667.092 51.4964 670.489C49.3225 672.119 46.7411 673.478 43.6162 674.429C37.6381 676.467 33.4263 676.603 28.1275 676.603C23.3722 676.603 18.2094 675.516 11.552 672.799C5.03042 669.946 0.13927 663.152 0.00340422 654.049C-0.132461 648.479 3.80763 642.501 10.1933 642.501C18.4811 642.501 22.1494 649.838 19.568 658.125C16.8507 667.908 21.4701 674.973 29.0786 674.973C33.5621 675.652 35.736 671.712 36.687 668.587C37.0946 667.636 37.2305 665.87 37.3664 663.56C37.5022 661.25 37.6381 659.348 37.6381 658.125C37.774 656.903 37.774 654.593 37.774 651.468Z" fill="#A12256" fill-opacity="0.2"/>
<path d="M594.326 871.226H624.488C616.472 872.992 609.814 878.698 604.38 888.073L589.57 914.974C587.804 918.371 586.853 923.262 586.853 929.919V951.25C586.853 957.364 589.435 962.119 592.831 963.886C596.5 965.652 598.402 966.195 600.44 966.331H551.936C553.702 966.331 556.012 965.788 559.273 964.022C562.669 962.255 565.251 957.772 565.251 951.794L565.386 933.724C565.386 927.066 564.028 921.496 561.446 917.284L542.561 886.307C536.04 875.845 527.888 871.226 523.676 871.226L572.044 871.361C564.3 871.497 560.224 878.698 564.435 886.443L579.924 912.936C583.049 918.507 586.174 918.235 589.435 912.121L602.614 888.48C607.641 879.378 604.652 872.448 594.326 871.226Z" fill="#A12256" fill-opacity="0.2"/>
<path d="M510.411 888.616V948.669C510.411 956.141 513.536 961.44 517.476 963.614C521.416 965.652 523.998 966.331 525.628 966.331H472.233C473.863 966.331 476.445 965.652 480.385 963.614C484.325 961.44 487.45 956.141 487.45 948.669V902.203C487.45 895.41 487.042 891.877 486.227 891.741C485.004 891.605 483.917 893.1 481.743 898.67L452.668 970L413.267 897.991C409.327 890.247 407.153 889.296 406.882 895.138V896.768L406.61 943.778C406.61 952.337 410.278 958.723 414.082 961.576C415.985 962.935 418.158 964.022 420.74 964.837C425.767 966.467 427.261 966.331 428.484 966.331H383.377C384.6 966.331 386.23 966.467 390.985 964.837C397.779 962.663 404.436 956.957 404.844 943.506V893.236C404.844 875.981 390.578 872.041 387.181 871.361L386.638 871.226H424.272L454.978 927.202C458.103 932.773 459.869 935.897 460.548 936.441C461.771 937.664 463.266 936.713 464.76 933.588C465.304 932.637 465.847 931.278 466.527 929.648L490.846 871.226H526.307C525.492 871.226 510.547 872.177 510.411 888.616Z" fill="#A12256" fill-opacity="0.2"/>
<path d="M367.353 922.583V892.285C367.353 883.59 364.364 877.204 360.152 874.623C356.212 872.041 353.63 871.362 351.456 871.226H383.928C382.026 871.498 369.119 873.128 369.119 893.644V924.349C369.119 927.203 369.119 929.512 368.983 931.279C368.983 933.045 368.711 935.626 368.304 939.023C367.896 942.42 367.353 945.273 366.537 947.582C365.043 952.066 361.918 958.723 357.434 962.12C353.087 965.517 345.886 968.37 337.19 968.37C322.653 968.37 312.327 964.701 306.485 957.229C300.643 949.756 297.79 938.344 297.79 923.127V888.889C297.79 882.367 295.48 877.34 293.17 875.166C288.958 871.362 284.611 871.09 283.252 871.226H335.56C333.794 871.226 332.571 871.226 329.174 872.449C325.098 874.079 320.479 878.563 320.479 888.889V928.29C320.479 952.338 329.582 963.75 346.022 962.663C361.239 961.577 367.353 949.349 367.353 922.583Z" fill="#A12256" fill-opacity="0.2"/>
<path d="M223.725 884.948V952.609C223.725 958.451 226.442 962.663 230.11 964.293C233.914 965.924 236.088 966.331 237.719 966.331H188.264C189.894 966.331 192.068 965.924 195.736 964.293C199.405 962.663 202.122 958.451 202.122 952.609V884.948C202.122 878.834 199.405 874.486 195.6 872.992C191.932 871.497 190.03 871.226 188.264 871.226H237.719C235.952 871.226 234.05 871.497 230.246 872.992C226.442 874.486 223.725 878.834 223.725 884.948ZM243.968 871.633H244.919H243.968ZM246.957 916.061L268.424 944.185C277.12 955.462 285.543 963.478 288.804 965.244L291.25 966.603L260.816 966.331L249.675 952.065L231.469 928.017C226.985 922.039 224.268 925.028 223.996 925.436L253.207 890.518C261.087 880.6 252.664 872.177 244.919 871.633H281.467L280.652 871.769C277.799 872.584 270.19 875.437 260.952 884.676L257.012 888.752L255.109 891.062L246.006 901.931C244.376 903.697 243.561 905.6 243.425 907.637C243.425 911.442 244.376 912.665 246.957 916.061Z" fill="#A12256" fill-opacity="0.2"/>
<path d="M133.247 870.003C148.872 870.003 161.236 876.117 168.165 885.492C175.23 894.866 178.626 906.415 178.491 918.915C178.083 943.642 161.915 967.962 129.036 967.554C113.411 967.418 100.504 960.489 93.303 950.707C86.1021 940.925 82.2979 929.24 82.7055 917.828C82.8413 903.562 87.7325 892.013 97.1072 883.182C106.618 874.351 118.71 869.867 133.247 870.003ZM153.084 915.654C151.453 903.018 147.785 892.421 142.214 883.59C136.644 874.758 129.987 871.09 122.514 872.313C116.4 873.264 112.052 878.019 109.199 886.307C106.482 894.595 105.938 905.056 107.705 917.828C109.471 930.463 113.139 941.332 118.438 950.435C123.873 959.538 130.122 964.429 137.323 964.973C144.524 965.652 149.551 961.44 152.133 952.609C154.85 943.642 155.122 931.278 153.084 915.654Z" fill="#A12256" fill-opacity="0.2"/>
<path d="M37.774 941.468V884.948C37.774 878.834 35.3284 874.486 31.9318 872.992C28.5351 871.497 26.9047 871.226 25.1385 871.226H72.012C70.2458 871.226 68.6154 871.497 65.2188 872.992C61.8221 874.486 59.3765 878.834 59.3765 884.948V942.283C59.3765 950.571 55.844 957.092 51.4964 960.489C49.3225 962.119 46.7411 963.478 43.6162 964.429C37.6381 966.467 33.4263 966.603 28.1275 966.603C23.3722 966.603 18.2094 965.516 11.552 962.799C5.03042 959.946 0.13927 953.152 0.00340422 944.049C-0.132461 938.479 3.80763 932.501 10.1933 932.501C18.4811 932.501 22.1494 939.838 19.568 948.125C16.8507 957.908 21.4701 964.973 29.0786 964.973C33.5621 965.652 35.736 961.712 36.687 958.587C37.0946 957.636 37.2305 955.87 37.3664 953.56C37.5022 951.25 37.6381 949.348 37.6381 948.125C37.774 946.903 37.774 944.593 37.774 941.468Z" fill="#A12256" fill-opacity="0.2"/>
<path d="M594.326 1161.23H624.488C616.472 1162.99 609.814 1168.7 604.38 1178.07L589.57 1204.97C587.804 1208.37 586.853 1213.26 586.853 1219.92V1241.25C586.853 1247.36 589.435 1252.12 592.831 1253.89C596.5 1255.65 598.402 1256.2 600.44 1256.33H551.936C553.702 1256.33 556.012 1255.79 559.273 1254.02C562.669 1252.26 565.251 1247.77 565.251 1241.79L565.386 1223.72C565.386 1217.07 564.028 1211.5 561.446 1207.28L542.561 1176.31C536.04 1165.85 527.888 1161.23 523.676 1161.23L572.044 1161.36C564.3 1161.5 560.224 1168.7 564.435 1176.44L579.924 1202.94C583.049 1208.51 586.174 1208.23 589.435 1202.12L602.614 1178.48C607.641 1169.38 604.652 1162.45 594.326 1161.23Z" fill="#A12256" fill-opacity="0.2"/>
<path d="M510.411 1178.62V1238.67C510.411 1246.14 513.536 1251.44 517.476 1253.61C521.416 1255.65 523.998 1256.33 525.628 1256.33H472.233C473.863 1256.33 476.445 1255.65 480.385 1253.61C484.325 1251.44 487.45 1246.14 487.45 1238.67V1192.2C487.45 1185.41 487.042 1181.88 486.227 1181.74C485.004 1181.61 483.917 1183.1 481.743 1188.67L452.668 1260L413.267 1187.99C409.327 1180.25 407.153 1179.3 406.882 1185.14V1186.77L406.61 1233.78C406.61 1242.34 410.278 1248.72 414.082 1251.58C415.985 1252.93 418.158 1254.02 420.74 1254.84C425.767 1256.47 427.261 1256.33 428.484 1256.33H383.377C384.6 1256.33 386.23 1256.47 390.985 1254.84C397.779 1252.66 404.436 1246.96 404.844 1233.51V1183.24C404.844 1165.98 390.578 1162.04 387.181 1161.36L386.638 1161.23H424.272L454.978 1217.2C458.103 1222.77 459.869 1225.9 460.548 1226.44C461.771 1227.66 463.266 1226.71 464.76 1223.59C465.304 1222.64 465.847 1221.28 466.527 1219.65L490.846 1161.23H526.307C525.492 1161.23 510.547 1162.18 510.411 1178.62Z" fill="#A12256" fill-opacity="0.2"/>
<path d="M367.353 1212.58V1182.29C367.353 1173.59 364.364 1167.2 360.152 1164.62C356.212 1162.04 353.63 1161.36 351.456 1161.23H383.928C382.026 1161.5 369.119 1163.13 369.119 1183.64V1214.35C369.119 1217.2 369.119 1219.51 368.983 1221.28C368.983 1223.04 368.711 1225.63 368.304 1229.02C367.896 1232.42 367.353 1235.27 366.537 1237.58C365.043 1242.07 361.918 1248.72 357.434 1252.12C353.087 1255.52 345.886 1258.37 337.19 1258.37C322.653 1258.37 312.327 1254.7 306.485 1247.23C300.643 1239.76 297.79 1228.34 297.79 1213.13V1178.89C297.79 1172.37 295.48 1167.34 293.17 1165.17C288.958 1161.36 284.611 1161.09 283.252 1161.23H335.56C333.794 1161.23 332.571 1161.23 329.174 1162.45C325.098 1164.08 320.479 1168.56 320.479 1178.89V1218.29C320.479 1242.34 329.582 1253.75 346.022 1252.66C361.239 1251.58 367.353 1239.35 367.353 1212.58Z" fill="#A12256" fill-opacity="0.2"/>
<path d="M223.725 1174.95V1242.61C223.725 1248.45 226.442 1252.66 230.11 1254.29C233.914 1255.92 236.088 1256.33 237.719 1256.33H188.264C189.894 1256.33 192.068 1255.92 195.736 1254.29C199.405 1252.66 202.122 1248.45 202.122 1242.61V1174.95C202.122 1168.83 199.405 1164.49 195.6 1162.99C191.932 1161.5 190.03 1161.23 188.264 1161.23H237.719C235.952 1161.23 234.05 1161.5 230.246 1162.99C226.442 1164.49 223.725 1168.83 223.725 1174.95ZM243.968 1161.63H244.919H243.968ZM246.957 1206.06L268.424 1234.19C277.12 1245.46 285.543 1253.48 288.804 1255.24L291.25 1256.6L260.816 1256.33L249.675 1242.07L231.469 1218.02C226.985 1212.04 224.268 1215.03 223.996 1215.44L253.207 1180.52C261.087 1170.6 252.664 1162.18 244.919 1161.63H281.467L280.652 1161.77C277.799 1162.58 270.19 1165.44 260.952 1174.68L257.012 1178.75L255.109 1181.06L246.006 1191.93C244.376 1193.7 243.561 1195.6 243.425 1197.64C243.425 1201.44 244.376 1202.66 246.957 1206.06Z" fill="#A12256" fill-opacity="0.2"/>
<path d="M133.247 1160C148.872 1160 161.236 1166.12 168.165 1175.49C175.23 1184.87 178.626 1196.41 178.491 1208.91C178.083 1233.64 161.915 1257.96 129.036 1257.55C113.411 1257.42 100.504 1250.49 93.303 1240.71C86.1021 1230.92 82.2979 1219.24 82.7055 1207.83C82.8413 1193.56 87.7325 1182.01 97.1072 1173.18C106.618 1164.35 118.71 1159.87 133.247 1160ZM153.084 1205.65C151.453 1193.02 147.785 1182.42 142.214 1173.59C136.644 1164.76 129.987 1161.09 122.514 1162.31C116.4 1163.26 112.052 1168.02 109.199 1176.31C106.482 1184.59 105.938 1195.06 107.705 1207.83C109.471 1220.46 113.139 1231.33 118.438 1240.44C123.873 1249.54 130.122 1254.43 137.323 1254.97C144.524 1255.65 149.551 1251.44 152.133 1242.61C154.85 1233.64 155.122 1221.28 153.084 1205.65Z" fill="#A12256" fill-opacity="0.2"/>
<path d="M37.774 1231.47V1174.95C37.774 1168.83 35.3284 1164.49 31.9318 1162.99C28.5351 1161.5 26.9047 1161.23 25.1385 1161.23H72.012C70.2458 1161.23 68.6154 1161.5 65.2188 1162.99C61.8221 1164.49 59.3765 1168.83 59.3765 1174.95V1232.28C59.3765 1240.57 55.844 1247.09 51.4964 1250.49C49.3225 1252.12 46.7411 1253.48 43.6162 1254.43C37.6381 1256.47 33.4263 1256.6 28.1275 1256.6C23.3722 1256.6 18.2094 1255.52 11.552 1252.8C5.03042 1249.95 0.13927 1243.15 0.00340422 1234.05C-0.132461 1228.48 3.80763 1222.5 10.1933 1222.5C18.4811 1222.5 22.1494 1229.84 19.568 1238.13C16.8507 1247.91 21.4701 1254.97 29.0786 1254.97C33.5621 1255.65 35.736 1251.71 36.687 1248.59C37.0946 1247.64 37.2305 1245.87 37.3664 1243.56C37.5022 1241.25 37.6381 1239.35 37.6381 1238.13C37.774 1236.9 37.774 1234.59 37.774 1231.47Z" fill="#A12256" fill-opacity="0.2"/>
</svg>
