<svg width="1249" height="970" viewBox="0 0 1249 970" fill="none" xmlns="http://www.w3.org/2000/svg">
<path d="M594.326 1.22559H624.488C616.472 2.99184 609.814 8.69818 604.38 18.0729L589.57 44.9742C587.804 48.3708 586.853 53.262 586.853 59.9194V81.2503C586.853 87.3642 589.435 92.1195 592.831 93.8857C596.5 95.652 598.402 96.1954 600.44 96.3313H551.936C553.702 96.3313 556.012 95.7878 559.273 94.0216C562.669 92.2553 565.251 87.7718 565.251 81.7937L565.386 63.7236C565.386 57.0662 564.028 51.4958 561.446 47.2839L542.561 16.3066C536.04 5.84501 527.888 1.22559 523.676 1.22559L572.044 1.36145C564.3 1.49732 560.224 8.69818 564.435 16.4425L579.924 42.9362C583.049 48.5067 586.174 48.235 589.435 42.121L602.614 18.4805C607.641 9.3775 604.652 2.44837 594.326 1.22559Z" fill="#55142E" fill-opacity="0.3"/>
<path d="M510.411 18.6163V78.6688C510.411 86.1414 513.536 91.4402 517.476 93.614C521.416 95.652 523.998 96.3313 525.628 96.3313H472.233C473.863 96.3313 476.445 95.652 480.385 93.614C484.325 91.4402 487.45 86.1414 487.45 78.6688V32.2029C487.45 25.4096 487.042 21.8771 486.227 21.7412C485.004 21.6054 483.917 23.0999 481.743 28.6704L452.668 99.9997L413.267 27.9911C409.327 20.2467 407.153 19.2957 406.882 25.1379V26.7683L406.61 73.7777C406.61 82.3372 410.278 88.7228 414.082 91.576C415.985 92.9347 418.158 94.0216 420.74 94.8368C425.767 96.4672 427.261 96.3313 428.484 96.3313H383.377C384.6 96.3313 386.23 96.4672 390.985 94.8368C397.779 92.6629 404.436 86.9566 404.844 73.5059V23.2358C404.844 5.98088 390.578 2.04078 387.181 1.36145L386.638 1.22559H424.272L454.978 57.2021C458.103 62.7726 459.869 65.8975 460.548 66.4409C461.771 67.6637 463.266 66.7127 464.76 63.5878C465.304 62.6367 465.847 61.2781 466.527 59.6477L490.846 1.22559H526.307C525.492 1.22559 510.547 2.17665 510.411 18.6163Z" fill="#55142E" fill-opacity="0.3"/>
<path d="M367.353 52.5832V22.2853C367.353 13.5899 364.364 7.20422 360.152 4.62278C356.212 2.04134 353.63 1.36201 351.456 1.22615H383.928C382.026 1.49788 369.119 3.12826 369.119 23.6439V54.3495C369.119 57.2027 369.119 59.5124 368.983 61.2786C368.983 63.0449 368.711 65.6263 368.304 69.0229C367.896 72.4196 367.353 75.2727 366.537 77.5824C365.043 82.066 361.918 88.7234 357.434 92.12C353.087 95.5167 345.886 98.3698 337.19 98.3698C322.653 98.3698 312.327 94.7015 306.485 87.2289C300.643 79.7563 297.79 68.3436 297.79 53.1267V18.8886C297.79 12.3671 295.48 7.34009 293.17 5.16624C288.958 1.36201 284.611 1.09028 283.252 1.22615H335.56C333.794 1.22615 332.571 1.22615 329.174 2.44893C325.098 4.07932 320.479 8.56287 320.479 18.8886V58.2896C320.479 82.3377 329.582 93.7504 346.022 92.6635C361.239 91.5766 367.353 79.3487 367.353 52.5832Z" fill="#55142E" fill-opacity="0.3"/>
<path d="M223.725 14.948V82.6089C223.725 88.4511 226.442 92.6629 230.11 94.2933C233.914 95.9237 236.088 96.3313 237.719 96.3313H188.264C189.894 96.3313 192.068 95.9237 195.736 94.2933C199.405 92.6629 202.122 88.4511 202.122 82.6089V14.948C202.122 8.83404 199.405 4.48635 195.6 2.99184C191.932 1.49732 190.03 1.22559 188.264 1.22559H237.719C235.952 1.22559 234.05 1.49732 230.246 2.99184C226.442 4.48635 223.725 8.83404 223.725 14.948ZM243.968 1.63318H244.919H243.968ZM246.957 46.0611L268.424 74.1853C277.12 85.4621 285.543 93.4781 288.804 95.2444L291.25 96.603L260.816 96.3313L249.675 82.0654L231.469 58.0173C226.985 52.0392 224.268 55.0282 223.996 55.4358L253.207 20.5185C261.087 10.6003 252.664 2.17665 244.919 1.63318H281.467L280.652 1.76905C277.799 2.58424 270.19 5.43742 260.952 14.6763L257.012 18.7522L255.109 21.0619L246.006 31.9311C244.376 33.6974 243.561 35.5995 243.425 37.6375C243.425 41.4417 244.376 42.6645 246.957 46.0611Z" fill="#55142E" fill-opacity="0.3"/>
<path d="M133.247 0.00299782C148.872 0.00299782 161.236 6.11694 168.165 15.4916C175.23 24.8664 178.626 36.4149 178.491 48.9145C178.083 73.642 161.915 97.9619 129.036 97.5543C113.411 97.4184 100.504 90.4893 93.303 80.707C86.1021 70.9247 82.2979 59.2403 82.7055 47.8276C82.8413 33.5617 87.7325 22.0132 97.1072 13.1819C106.618 4.35069 118.71 -0.132866 133.247 0.00299782ZM153.084 45.6537C151.453 33.0183 147.785 22.4208 142.214 13.5895C136.644 4.75828 129.987 1.08992 122.514 2.31271C116.4 3.26376 112.052 8.01905 109.199 16.3068C106.482 24.5946 105.938 35.0562 107.705 47.8276C109.471 60.4631 113.139 71.3323 118.438 80.4353C123.873 89.5382 130.122 94.4294 137.323 94.9729C144.524 95.6522 149.551 91.4404 152.133 82.6091C154.85 73.642 155.122 61.2783 153.084 45.6537Z" fill="#55142E" fill-opacity="0.3"/>
<path d="M37.774 71.468V14.948C37.774 8.83404 35.3284 4.48635 31.9318 2.99184C28.5351 1.49732 26.9047 1.22559 25.1385 1.22559H72.012C70.2458 1.22559 68.6154 1.49732 65.2188 2.99184C61.8221 4.48635 59.3765 8.83404 59.3765 14.948V72.2831C59.3765 80.5709 55.844 87.0925 51.4964 90.4891C49.3225 92.1195 46.7411 93.4781 43.6162 94.4292C37.6381 96.4672 33.4263 96.603 28.1275 96.603C23.3722 96.603 18.2094 95.5161 11.552 92.7988C5.03042 89.9456 0.13927 83.1524 0.00340422 74.0494C-0.132461 68.4789 3.80763 62.5008 10.1933 62.5008C18.4811 62.5008 22.1494 69.8376 19.568 78.1254C16.8507 87.9077 21.4701 94.9727 29.0786 94.9727C33.5621 95.652 35.736 91.7119 36.687 88.587C37.0946 87.6359 37.2305 85.8697 37.3664 83.56C37.5022 81.2503 37.6381 79.3481 37.6381 78.1254C37.774 76.9026 37.774 74.5929 37.774 71.468Z" fill="#55142E" fill-opacity="0.3"/>
<path d="M1218.81 146.226H1248.98C1240.96 147.992 1234.3 153.698 1228.87 163.073L1214.06 189.974C1212.29 193.371 1211.34 198.262 1211.34 204.919V226.25C1211.34 232.364 1213.92 237.119 1217.32 238.886C1220.99 240.652 1222.89 241.195 1224.93 241.331H1176.42C1178.19 241.331 1180.5 240.788 1183.76 239.022C1187.16 237.255 1189.74 232.772 1189.74 226.794L1189.87 208.724C1189.87 202.066 1188.52 196.496 1185.93 192.284L1167.05 161.307C1160.53 150.845 1152.38 146.226 1148.16 146.226L1196.53 146.361C1188.79 146.497 1184.71 153.698 1188.92 161.443L1204.41 187.936C1207.54 193.507 1210.66 193.235 1213.92 187.121L1227.1 163.48C1232.13 154.378 1229.14 147.448 1218.81 146.226Z" fill="#55142E" fill-opacity="0.3"/>
<path d="M1134.9 163.616V223.669C1134.9 231.141 1138.02 236.44 1141.96 238.614C1145.9 240.652 1148.49 241.331 1150.12 241.331H1096.72C1098.35 241.331 1100.93 240.652 1104.87 238.614C1108.81 236.44 1111.94 231.141 1111.94 223.669V177.203C1111.94 170.41 1111.53 166.877 1110.72 166.741C1109.49 166.605 1108.41 168.1 1106.23 173.67L1077.16 245L1037.76 172.991C1033.82 165.247 1031.64 164.296 1031.37 170.138V171.768L1031.1 218.778C1031.1 227.337 1034.77 233.723 1038.57 236.576C1040.47 237.935 1042.65 239.022 1045.23 239.837C1050.26 241.467 1051.75 241.331 1052.97 241.331H1007.87C1009.09 241.331 1010.72 241.467 1015.47 239.837C1022.27 237.663 1028.92 231.957 1029.33 218.506V168.236C1029.33 150.981 1015.07 147.041 1011.67 146.361L1011.13 146.226H1048.76L1079.47 202.202C1082.59 207.773 1084.36 210.897 1085.04 211.441C1086.26 212.664 1087.75 211.713 1089.25 208.588C1089.79 207.637 1090.34 206.278 1091.01 204.648L1115.33 146.226H1150.8C1149.98 146.226 1135.04 147.177 1134.9 163.616Z" fill="#55142E" fill-opacity="0.3"/>
<path d="M991.841 197.583V167.285C991.841 158.59 988.852 152.204 984.64 149.623C980.7 147.041 978.118 146.362 975.945 146.226H1008.42C1006.51 146.498 993.607 148.128 993.607 168.644V199.349C993.607 202.203 993.607 204.512 993.471 206.279C993.471 208.045 993.2 210.626 992.792 214.023C992.384 217.42 991.841 220.273 991.026 222.582C989.531 227.066 986.406 233.723 981.923 237.12C977.575 240.517 970.374 243.37 961.679 243.37C947.141 243.37 936.815 239.701 930.973 232.229C925.131 224.756 922.278 213.344 922.278 198.127V163.889C922.278 157.367 919.968 152.34 917.658 150.166C913.447 146.362 909.099 146.09 907.74 146.226H960.048C958.282 146.226 957.059 146.226 953.663 147.449C949.587 149.079 944.967 153.563 944.967 163.889V203.29C944.967 227.338 954.07 238.75 970.51 237.663C985.727 236.577 991.841 224.349 991.841 197.583Z" fill="#55142E" fill-opacity="0.3"/>
<path d="M848.213 159.948V227.609C848.213 233.451 850.93 237.663 854.598 239.293C858.403 240.924 860.577 241.331 862.207 241.331H812.752C814.382 241.331 816.556 240.924 820.225 239.293C823.893 237.663 826.61 233.451 826.61 227.609V159.948C826.61 153.834 823.893 149.486 820.089 147.992C816.42 146.497 814.518 146.226 812.752 146.226H862.207C860.441 146.226 858.539 146.497 854.734 147.992C850.93 149.486 848.213 153.834 848.213 159.948ZM868.457 146.633H869.408H868.457ZM871.446 191.061L892.912 219.185C901.608 230.462 910.032 238.478 913.292 240.244L915.738 241.603L885.304 241.331L874.163 227.065L855.957 203.017C851.474 197.039 848.756 200.028 848.485 200.436L877.696 165.518C885.576 155.6 877.152 147.177 869.408 146.633H905.956L905.14 146.769C902.287 147.584 894.679 150.437 885.44 159.676L881.5 163.752L879.598 166.062L870.495 176.931C868.864 178.697 868.049 180.6 867.913 182.637C867.913 186.442 868.864 187.665 871.446 191.061Z" fill="#55142E" fill-opacity="0.3"/>
<path d="M757.736 145.003C773.36 145.003 785.724 151.117 792.653 160.492C799.718 169.866 803.115 181.415 802.979 193.915C802.571 218.642 786.403 242.962 753.524 242.554C737.899 242.418 724.992 235.489 717.791 225.707C710.59 215.925 706.786 204.24 707.194 192.828C707.33 178.562 712.221 167.013 721.595 158.182C731.106 149.351 743.198 144.867 757.736 145.003ZM777.572 190.654C775.942 178.018 772.273 167.421 766.703 158.59C761.132 149.758 754.475 146.09 747.002 147.313C740.888 148.264 736.541 153.019 733.687 161.307C730.97 169.595 730.427 180.056 732.193 192.828C733.959 205.463 737.628 216.332 742.926 225.435C748.361 234.538 754.611 239.429 761.812 239.973C769.012 240.652 774.039 236.44 776.621 227.609C779.338 218.642 779.61 206.278 777.572 190.654Z" fill="#55142E" fill-opacity="0.3"/>
<path d="M662.262 216.468V159.948C662.262 153.834 659.817 149.486 656.42 147.992C653.023 146.497 651.393 146.226 649.627 146.226H696.5C694.734 146.226 693.104 146.497 689.707 147.992C686.31 149.486 683.865 153.834 683.865 159.948V217.283C683.865 225.571 680.332 232.092 675.985 235.489C673.811 237.119 671.229 238.478 668.104 239.429C662.126 241.467 657.915 241.603 652.616 241.603C647.861 241.603 642.698 240.516 636.04 237.799C629.519 234.946 624.628 228.152 624.492 219.049C624.356 213.479 628.296 207.501 634.682 207.501C642.969 207.501 646.638 214.838 644.056 223.125C641.339 232.908 645.958 239.973 653.567 239.973C658.05 240.652 660.224 236.712 661.175 233.587C661.583 232.636 661.719 230.87 661.855 228.56C661.991 226.25 662.126 224.348 662.126 223.125C662.262 221.903 662.262 219.593 662.262 216.468Z" fill="#55142E" fill-opacity="0.3"/>
<path d="M594.326 291.226H624.488C616.472 292.992 609.814 298.698 604.38 308.073L589.57 334.974C587.804 338.371 586.853 343.262 586.853 349.919V371.25C586.853 377.364 589.435 382.119 592.831 383.886C596.5 385.652 598.402 386.195 600.44 386.331H551.936C553.702 386.331 556.012 385.788 559.273 384.022C562.669 382.255 565.251 377.772 565.251 371.794L565.386 353.724C565.386 347.066 564.028 341.496 561.446 337.284L542.561 306.307C536.04 295.845 527.888 291.226 523.676 291.226L572.044 291.361C564.3 291.497 560.224 298.698 564.435 306.443L579.924 332.936C583.049 338.507 586.174 338.235 589.435 332.121L602.614 308.48C607.641 299.378 604.652 292.448 594.326 291.226Z" fill="#55142E" fill-opacity="0.3"/>
<path d="M510.411 308.616V368.669C510.411 376.141 513.536 381.44 517.476 383.614C521.416 385.652 523.998 386.331 525.628 386.331H472.233C473.863 386.331 476.445 385.652 480.385 383.614C484.325 381.44 487.45 376.141 487.45 368.669V322.203C487.45 315.41 487.042 311.877 486.227 311.741C485.004 311.605 483.917 313.1 481.743 318.67L452.668 390L413.267 317.991C409.327 310.247 407.153 309.296 406.882 315.138V316.768L406.61 363.778C406.61 372.337 410.278 378.723 414.082 381.576C415.985 382.935 418.158 384.022 420.74 384.837C425.767 386.467 427.261 386.331 428.484 386.331H383.377C384.6 386.331 386.23 386.467 390.985 384.837C397.779 382.663 404.436 376.957 404.844 363.506V313.236C404.844 295.981 390.578 292.041 387.181 291.361L386.638 291.226H424.272L454.978 347.202C458.103 352.773 459.869 355.897 460.548 356.441C461.771 357.664 463.266 356.713 464.76 353.588C465.304 352.637 465.847 351.278 466.527 349.648L490.846 291.226H526.307C525.492 291.226 510.547 292.177 510.411 308.616Z" fill="#55142E" fill-opacity="0.3"/>
<path d="M367.353 342.583V312.285C367.353 303.59 364.364 297.204 360.152 294.623C356.212 292.041 353.63 291.362 351.456 291.226H383.928C382.026 291.498 369.119 293.128 369.119 313.644V344.349C369.119 347.203 369.119 349.512 368.983 351.279C368.983 353.045 368.711 355.626 368.304 359.023C367.896 362.42 367.353 365.273 366.537 367.582C365.043 372.066 361.918 378.723 357.434 382.12C353.087 385.517 345.886 388.37 337.19 388.37C322.653 388.37 312.327 384.701 306.485 377.229C300.643 369.756 297.79 358.344 297.79 343.127V308.889C297.79 302.367 295.48 297.34 293.17 295.166C288.958 291.362 284.611 291.09 283.252 291.226H335.56C333.794 291.226 332.571 291.226 329.174 292.449C325.098 294.079 320.479 298.563 320.479 308.889V348.29C320.479 372.338 329.582 383.75 346.022 382.663C361.239 381.577 367.353 369.349 367.353 342.583Z" fill="#55142E" fill-opacity="0.3"/>
<path d="M223.725 304.948V372.609C223.725 378.451 226.442 382.663 230.11 384.293C233.914 385.924 236.088 386.331 237.719 386.331H188.264C189.894 386.331 192.068 385.924 195.736 384.293C199.405 382.663 202.122 378.451 202.122 372.609V304.948C202.122 298.834 199.405 294.486 195.6 292.992C191.932 291.497 190.03 291.226 188.264 291.226H237.719C235.952 291.226 234.05 291.497 230.246 292.992C226.442 294.486 223.725 298.834 223.725 304.948ZM243.968 291.633H244.919H243.968ZM246.957 336.061L268.424 364.185C277.12 375.462 285.543 383.478 288.804 385.244L291.25 386.603L260.816 386.331L249.675 372.065L231.469 348.017C226.985 342.039 224.268 345.028 223.996 345.436L253.207 310.518C261.087 300.6 252.664 292.177 244.919 291.633H281.467L280.652 291.769C277.799 292.584 270.19 295.437 260.952 304.676L257.012 308.752L255.109 311.062L246.006 321.931C244.376 323.697 243.561 325.6 243.425 327.637C243.425 331.442 244.376 332.665 246.957 336.061Z" fill="#55142E" fill-opacity="0.3"/>
<path d="M133.247 290.003C148.872 290.003 161.236 296.117 168.165 305.492C175.23 314.866 178.626 326.415 178.491 338.915C178.083 363.642 161.915 387.962 129.036 387.554C113.411 387.418 100.504 380.489 93.303 370.707C86.1021 360.925 82.2979 349.24 82.7055 337.828C82.8413 323.562 87.7325 312.013 97.1072 303.182C106.618 294.351 118.71 289.867 133.247 290.003ZM153.084 335.654C151.453 323.018 147.785 312.421 142.214 303.59C136.644 294.758 129.987 291.09 122.514 292.313C116.4 293.264 112.052 298.019 109.199 306.307C106.482 314.595 105.938 325.056 107.705 337.828C109.471 350.463 113.139 361.332 118.438 370.435C123.873 379.538 130.122 384.429 137.323 384.973C144.524 385.652 149.551 381.44 152.133 372.609C154.85 363.642 155.122 351.278 153.084 335.654Z" fill="#55142E" fill-opacity="0.3"/>
<path d="M37.774 361.468V304.948C37.774 298.834 35.3284 294.486 31.9318 292.992C28.5351 291.497 26.9047 291.226 25.1385 291.226H72.012C70.2458 291.226 68.6154 291.497 65.2188 292.992C61.8221 294.486 59.3765 298.834 59.3765 304.948V362.283C59.3765 370.571 55.844 377.092 51.4964 380.489C49.3225 382.119 46.7411 383.478 43.6162 384.429C37.6381 386.467 33.4263 386.603 28.1275 386.603C23.3722 386.603 18.2094 385.516 11.552 382.799C5.03042 379.946 0.13927 373.152 0.00340422 364.049C-0.132461 358.479 3.80763 352.501 10.1933 352.501C18.4811 352.501 22.1494 359.838 19.568 368.125C16.8507 377.908 21.4701 384.973 29.0786 384.973C33.5621 385.652 35.736 381.712 36.687 378.587C37.0946 377.636 37.2305 375.87 37.3664 373.56C37.5022 371.25 37.6381 369.348 37.6381 368.125C37.774 366.903 37.774 364.593 37.774 361.468Z" fill="#55142E" fill-opacity="0.3"/>
<path d="M1218.81 436.226H1248.98C1240.96 437.992 1234.3 443.698 1228.87 453.073L1214.06 479.974C1212.29 483.371 1211.34 488.262 1211.34 494.919V516.25C1211.34 522.364 1213.92 527.119 1217.32 528.886C1220.99 530.652 1222.89 531.195 1224.93 531.331H1176.42C1178.19 531.331 1180.5 530.788 1183.76 529.022C1187.16 527.255 1189.74 522.772 1189.74 516.794L1189.87 498.724C1189.87 492.066 1188.52 486.496 1185.93 482.284L1167.05 451.307C1160.53 440.845 1152.38 436.226 1148.16 436.226L1196.53 436.361C1188.79 436.497 1184.71 443.698 1188.92 451.443L1204.41 477.936C1207.54 483.507 1210.66 483.235 1213.92 477.121L1227.1 453.48C1232.13 444.378 1229.14 437.448 1218.81 436.226Z" fill="#55142E" fill-opacity="0.3"/>
<path d="M1134.9 453.616V513.669C1134.9 521.141 1138.02 526.44 1141.96 528.614C1145.9 530.652 1148.49 531.331 1150.12 531.331H1096.72C1098.35 531.331 1100.93 530.652 1104.87 528.614C1108.81 526.44 1111.94 521.141 1111.94 513.669V467.203C1111.94 460.41 1111.53 456.877 1110.72 456.741C1109.49 456.605 1108.41 458.1 1106.23 463.67L1077.16 535L1037.76 462.991C1033.82 455.247 1031.64 454.296 1031.37 460.138V461.768L1031.1 508.778C1031.1 517.337 1034.77 523.723 1038.57 526.576C1040.47 527.935 1042.65 529.022 1045.23 529.837C1050.26 531.467 1051.75 531.331 1052.97 531.331H1007.87C1009.09 531.331 1010.72 531.467 1015.47 529.837C1022.27 527.663 1028.92 521.957 1029.33 508.506V458.236C1029.33 440.981 1015.07 437.041 1011.67 436.361L1011.13 436.226H1048.76L1079.47 492.202C1082.59 497.773 1084.36 500.897 1085.04 501.441C1086.26 502.664 1087.75 501.713 1089.25 498.588C1089.79 497.637 1090.34 496.278 1091.01 494.648L1115.33 436.226H1150.8C1149.98 436.226 1135.04 437.177 1134.9 453.616Z" fill="#55142E" fill-opacity="0.3"/>
<path d="M991.841 487.583V457.285C991.841 448.59 988.852 442.204 984.64 439.623C980.7 437.041 978.118 436.362 975.945 436.226H1008.42C1006.51 436.498 993.607 438.128 993.607 458.644V489.349C993.607 492.203 993.607 494.512 993.471 496.279C993.471 498.045 993.2 500.626 992.792 504.023C992.384 507.42 991.841 510.273 991.026 512.582C989.531 517.066 986.406 523.723 981.923 527.12C977.575 530.517 970.374 533.37 961.679 533.37C947.141 533.37 936.815 529.701 930.973 522.229C925.131 514.756 922.278 503.344 922.278 488.127V453.889C922.278 447.367 919.968 442.34 917.658 440.166C913.447 436.362 909.099 436.09 907.74 436.226H960.048C958.282 436.226 957.059 436.226 953.663 437.449C949.587 439.079 944.967 443.563 944.967 453.889V493.29C944.967 517.338 954.07 528.75 970.51 527.663C985.727 526.577 991.841 514.349 991.841 487.583Z" fill="#55142E" fill-opacity="0.3"/>
<path d="M848.213 449.948V517.609C848.213 523.451 850.93 527.663 854.598 529.293C858.403 530.924 860.577 531.331 862.207 531.331H812.752C814.382 531.331 816.556 530.924 820.225 529.293C823.893 527.663 826.61 523.451 826.61 517.609V449.948C826.61 443.834 823.893 439.486 820.089 437.992C816.42 436.497 814.518 436.226 812.752 436.226H862.207C860.441 436.226 858.539 436.497 854.734 437.992C850.93 439.486 848.213 443.834 848.213 449.948ZM868.457 436.633H869.408H868.457ZM871.446 481.061L892.912 509.185C901.608 520.462 910.032 528.478 913.292 530.244L915.738 531.603L885.304 531.331L874.163 517.065L855.957 493.017C851.474 487.039 848.756 490.028 848.485 490.436L877.696 455.518C885.576 445.6 877.152 437.177 869.408 436.633H905.956L905.14 436.769C902.287 437.584 894.679 440.437 885.44 449.676L881.5 453.752L879.598 456.062L870.495 466.931C868.864 468.697 868.049 470.6 867.913 472.637C867.913 476.442 868.864 477.665 871.446 481.061Z" fill="#55142E" fill-opacity="0.3"/>
<path d="M757.736 435.003C773.36 435.003 785.724 441.117 792.653 450.492C799.718 459.866 803.115 471.415 802.979 483.915C802.571 508.642 786.403 532.962 753.524 532.554C737.899 532.418 724.992 525.489 717.791 515.707C710.59 505.925 706.786 494.24 707.194 482.828C707.33 468.562 712.221 457.013 721.595 448.182C731.106 439.351 743.198 434.867 757.736 435.003ZM777.572 480.654C775.942 468.018 772.273 457.421 766.703 448.59C761.132 439.758 754.475 436.09 747.002 437.313C740.888 438.264 736.541 443.019 733.687 451.307C730.97 459.595 730.427 470.056 732.193 482.828C733.959 495.463 737.628 506.332 742.926 515.435C748.361 524.538 754.611 529.429 761.812 529.973C769.012 530.652 774.039 526.44 776.621 517.609C779.338 508.642 779.61 496.278 777.572 480.654Z" fill="#55142E" fill-opacity="0.3"/>
<path d="M662.262 506.468V449.948C662.262 443.834 659.817 439.486 656.42 437.992C653.023 436.497 651.393 436.226 649.627 436.226H696.5C694.734 436.226 693.104 436.497 689.707 437.992C686.31 439.486 683.865 443.834 683.865 449.948V507.283C683.865 515.571 680.332 522.092 675.985 525.489C673.811 527.119 671.229 528.478 668.104 529.429C662.126 531.467 657.915 531.603 652.616 531.603C647.861 531.603 642.698 530.516 636.04 527.799C629.519 524.946 624.628 518.152 624.492 509.049C624.356 503.479 628.296 497.501 634.682 497.501C642.969 497.501 646.638 504.838 644.056 513.125C641.339 522.908 645.958 529.973 653.567 529.973C658.05 530.652 660.224 526.712 661.175 523.587C661.583 522.636 661.719 520.87 661.855 518.56C661.991 516.25 662.126 514.348 662.126 513.125C662.262 511.903 662.262 509.593 662.262 506.468Z" fill="#55142E" fill-opacity="0.3"/>
<path d="M594.326 581.226H624.488C616.472 582.992 609.814 588.698 604.38 598.073L589.57 624.974C587.804 628.371 586.853 633.262 586.853 639.919V661.25C586.853 667.364 589.435 672.119 592.831 673.886C596.5 675.652 598.402 676.195 600.44 676.331H551.936C553.702 676.331 556.012 675.788 559.273 674.022C562.669 672.255 565.251 667.772 565.251 661.794L565.386 643.724C565.386 637.066 564.028 631.496 561.446 627.284L542.561 596.307C536.04 585.845 527.888 581.226 523.676 581.226L572.044 581.361C564.3 581.497 560.224 588.698 564.435 596.443L579.924 622.936C583.049 628.507 586.174 628.235 589.435 622.121L602.614 598.48C607.641 589.378 604.652 582.448 594.326 581.226Z" fill="#55142E" fill-opacity="0.3"/>
<path d="M510.411 598.616V658.669C510.411 666.141 513.536 671.44 517.476 673.614C521.416 675.652 523.998 676.331 525.628 676.331H472.233C473.863 676.331 476.445 675.652 480.385 673.614C484.325 671.44 487.45 666.141 487.45 658.669V612.203C487.45 605.41 487.042 601.877 486.227 601.741C485.004 601.605 483.917 603.1 481.743 608.67L452.668 680L413.267 607.991C409.327 600.247 407.153 599.296 406.882 605.138V606.768L406.61 653.778C406.61 662.337 410.278 668.723 414.082 671.576C415.985 672.935 418.158 674.022 420.74 674.837C425.767 676.467 427.261 676.331 428.484 676.331H383.377C384.6 676.331 386.23 676.467 390.985 674.837C397.779 672.663 404.436 666.957 404.844 653.506V603.236C404.844 585.981 390.578 582.041 387.181 581.361L386.638 581.226H424.272L454.978 637.202C458.103 642.773 459.869 645.897 460.548 646.441C461.771 647.664 463.266 646.713 464.76 643.588C465.304 642.637 465.847 641.278 466.527 639.648L490.846 581.226H526.307C525.492 581.226 510.547 582.177 510.411 598.616Z" fill="#55142E" fill-opacity="0.3"/>
<path d="M367.353 632.583V602.285C367.353 593.59 364.364 587.204 360.152 584.623C356.212 582.041 353.63 581.362 351.456 581.226H383.928C382.026 581.498 369.119 583.128 369.119 603.644V634.349C369.119 637.203 369.119 639.512 368.983 641.279C368.983 643.045 368.711 645.626 368.304 649.023C367.896 652.42 367.353 655.273 366.537 657.582C365.043 662.066 361.918 668.723 357.434 672.12C353.087 675.517 345.886 678.37 337.19 678.37C322.653 678.37 312.327 674.701 306.485 667.229C300.643 659.756 297.79 648.344 297.79 633.127V598.889C297.79 592.367 295.48 587.34 293.17 585.166C288.958 581.362 284.611 581.09 283.252 581.226H335.56C333.794 581.226 332.571 581.226 329.174 582.449C325.098 584.079 320.479 588.563 320.479 598.889V638.29C320.479 662.338 329.582 673.75 346.022 672.663C361.239 671.577 367.353 659.349 367.353 632.583Z" fill="#55142E" fill-opacity="0.3"/>
<path d="M223.725 594.948V662.609C223.725 668.451 226.442 672.663 230.11 674.293C233.914 675.924 236.088 676.331 237.719 676.331H188.264C189.894 676.331 192.068 675.924 195.736 674.293C199.405 672.663 202.122 668.451 202.122 662.609V594.948C202.122 588.834 199.405 584.486 195.6 582.992C191.932 581.497 190.03 581.226 188.264 581.226H237.719C235.952 581.226 234.05 581.497 230.246 582.992C226.442 584.486 223.725 588.834 223.725 594.948ZM243.968 581.633H244.919H243.968ZM246.957 626.061L268.424 654.185C277.12 665.462 285.543 673.478 288.804 675.244L291.25 676.603L260.816 676.331L249.675 662.065L231.469 638.017C226.985 632.039 224.268 635.028 223.996 635.436L253.207 600.518C261.087 590.6 252.664 582.177 244.919 581.633H281.467L280.652 581.769C277.799 582.584 270.19 585.437 260.952 594.676L257.012 598.752L255.109 601.062L246.006 611.931C244.376 613.697 243.561 615.6 243.425 617.637C243.425 621.442 244.376 622.665 246.957 626.061Z" fill="#55142E" fill-opacity="0.3"/>
<path d="M133.247 580.003C148.872 580.003 161.236 586.117 168.165 595.492C175.23 604.866 178.626 616.415 178.491 628.915C178.083 653.642 161.915 677.962 129.036 677.554C113.411 677.418 100.504 670.489 93.303 660.707C86.1021 650.925 82.2979 639.24 82.7055 627.828C82.8413 613.562 87.7325 602.013 97.1072 593.182C106.618 584.351 118.71 579.867 133.247 580.003ZM153.084 625.654C151.453 613.018 147.785 602.421 142.214 593.59C136.644 584.758 129.987 581.09 122.514 582.313C116.4 583.264 112.052 588.019 109.199 596.307C106.482 604.595 105.938 615.056 107.705 627.828C109.471 640.463 113.139 651.332 118.438 660.435C123.873 669.538 130.122 674.429 137.323 674.973C144.524 675.652 149.551 671.44 152.133 662.609C154.85 653.642 155.122 641.278 153.084 625.654Z" fill="#55142E" fill-opacity="0.3"/>
<path d="M37.774 651.468V594.948C37.774 588.834 35.3284 584.486 31.9318 582.992C28.5351 581.497 26.9047 581.226 25.1385 581.226H72.012C70.2458 581.226 68.6154 581.497 65.2188 582.992C61.8221 584.486 59.3765 588.834 59.3765 594.948V652.283C59.3765 660.571 55.844 667.092 51.4964 670.489C49.3225 672.119 46.7411 673.478 43.6162 674.429C37.6381 676.467 33.4263 676.603 28.1275 676.603C23.3722 676.603 18.2094 675.516 11.552 672.799C5.03042 669.946 0.13927 663.152 0.00340422 654.049C-0.132461 648.479 3.80763 642.501 10.1933 642.501C18.4811 642.501 22.1494 649.838 19.568 658.125C16.8507 667.908 21.4701 674.973 29.0786 674.973C33.5621 675.652 35.736 671.712 36.687 668.587C37.0946 667.636 37.2305 665.87 37.3664 663.56C37.5022 661.25 37.6381 659.348 37.6381 658.125C37.774 656.903 37.774 654.593 37.774 651.468Z" fill="#55142E" fill-opacity="0.3"/>
<path d="M1218.81 726.226H1248.98C1240.96 727.992 1234.3 733.698 1228.87 743.073L1214.06 769.974C1212.29 773.371 1211.34 778.262 1211.34 784.919V806.25C1211.34 812.364 1213.92 817.119 1217.32 818.886C1220.99 820.652 1222.89 821.195 1224.93 821.331H1176.42C1178.19 821.331 1180.5 820.788 1183.76 819.022C1187.16 817.255 1189.74 812.772 1189.74 806.794L1189.87 788.724C1189.87 782.066 1188.52 776.496 1185.93 772.284L1167.05 741.307C1160.53 730.845 1152.38 726.226 1148.16 726.226L1196.53 726.361C1188.79 726.497 1184.71 733.698 1188.92 741.443L1204.41 767.936C1207.54 773.507 1210.66 773.235 1213.92 767.121L1227.1 743.48C1232.13 734.378 1229.14 727.448 1218.81 726.226Z" fill="#55142E" fill-opacity="0.3"/>
<path d="M1134.9 743.616V803.669C1134.9 811.141 1138.02 816.44 1141.96 818.614C1145.9 820.652 1148.49 821.331 1150.12 821.331H1096.72C1098.35 821.331 1100.93 820.652 1104.87 818.614C1108.81 816.44 1111.94 811.141 1111.94 803.669V757.203C1111.94 750.41 1111.53 746.877 1110.72 746.741C1109.49 746.605 1108.41 748.1 1106.23 753.67L1077.16 825L1037.76 752.991C1033.82 745.247 1031.64 744.296 1031.37 750.138V751.768L1031.1 798.778C1031.1 807.337 1034.77 813.723 1038.57 816.576C1040.47 817.935 1042.65 819.022 1045.23 819.837C1050.26 821.467 1051.75 821.331 1052.97 821.331H1007.87C1009.09 821.331 1010.72 821.467 1015.47 819.837C1022.27 817.663 1028.92 811.957 1029.33 798.506V748.236C1029.33 730.981 1015.07 727.041 1011.67 726.361L1011.13 726.226H1048.76L1079.47 782.202C1082.59 787.773 1084.36 790.897 1085.04 791.441C1086.26 792.664 1087.75 791.713 1089.25 788.588C1089.79 787.637 1090.34 786.278 1091.01 784.648L1115.33 726.226H1150.8C1149.98 726.226 1135.04 727.177 1134.9 743.616Z" fill="#55142E" fill-opacity="0.3"/>
<path d="M991.841 777.583V747.285C991.841 738.59 988.852 732.204 984.64 729.623C980.7 727.041 978.118 726.362 975.945 726.226H1008.42C1006.51 726.498 993.607 728.128 993.607 748.644V779.349C993.607 782.203 993.607 784.512 993.471 786.279C993.471 788.045 993.2 790.626 992.792 794.023C992.384 797.42 991.841 800.273 991.026 802.582C989.531 807.066 986.406 813.723 981.923 817.12C977.575 820.517 970.374 823.37 961.679 823.37C947.141 823.37 936.815 819.701 930.973 812.229C925.131 804.756 922.278 793.344 922.278 778.127V743.889C922.278 737.367 919.968 732.34 917.658 730.166C913.447 726.362 909.099 726.09 907.74 726.226H960.048C958.282 726.226 957.059 726.226 953.663 727.449C949.587 729.079 944.967 733.563 944.967 743.889V783.29C944.967 807.338 954.07 818.75 970.51 817.663C985.727 816.577 991.841 804.349 991.841 777.583Z" fill="#55142E" fill-opacity="0.3"/>
<path d="M848.213 739.948V807.609C848.213 813.451 850.93 817.663 854.598 819.293C858.403 820.924 860.577 821.331 862.207 821.331H812.752C814.382 821.331 816.556 820.924 820.225 819.293C823.893 817.663 826.61 813.451 826.61 807.609V739.948C826.61 733.834 823.893 729.486 820.089 727.992C816.42 726.497 814.518 726.226 812.752 726.226H862.207C860.441 726.226 858.539 726.497 854.734 727.992C850.93 729.486 848.213 733.834 848.213 739.948ZM868.457 726.633H869.408H868.457ZM871.446 771.061L892.912 799.185C901.608 810.462 910.032 818.478 913.292 820.244L915.738 821.603L885.304 821.331L874.163 807.065L855.957 783.017C851.474 777.039 848.756 780.028 848.485 780.436L877.696 745.518C885.576 735.6 877.152 727.177 869.408 726.633H905.956L905.14 726.769C902.287 727.584 894.679 730.437 885.44 739.676L881.5 743.752L879.598 746.062L870.495 756.931C868.864 758.697 868.049 760.6 867.913 762.637C867.913 766.442 868.864 767.665 871.446 771.061Z" fill="#55142E" fill-opacity="0.3"/>
<path d="M757.736 725.003C773.36 725.003 785.724 731.117 792.653 740.492C799.718 749.866 803.115 761.415 802.979 773.915C802.571 798.642 786.403 822.962 753.524 822.554C737.899 822.418 724.992 815.489 717.791 805.707C710.59 795.925 706.786 784.24 707.194 772.828C707.33 758.562 712.221 747.013 721.595 738.182C731.106 729.351 743.198 724.867 757.736 725.003ZM777.572 770.654C775.942 758.018 772.273 747.421 766.703 738.59C761.132 729.758 754.475 726.09 747.002 727.313C740.888 728.264 736.541 733.019 733.687 741.307C730.97 749.595 730.427 760.056 732.193 772.828C733.959 785.463 737.628 796.332 742.926 805.435C748.361 814.538 754.611 819.429 761.812 819.973C769.012 820.652 774.039 816.44 776.621 807.609C779.338 798.642 779.61 786.278 777.572 770.654Z" fill="#55142E" fill-opacity="0.3"/>
<path d="M662.262 796.468V739.948C662.262 733.834 659.817 729.486 656.42 727.992C653.023 726.497 651.393 726.226 649.627 726.226H696.5C694.734 726.226 693.104 726.497 689.707 727.992C686.31 729.486 683.865 733.834 683.865 739.948V797.283C683.865 805.571 680.332 812.092 675.985 815.489C673.811 817.119 671.229 818.478 668.104 819.429C662.126 821.467 657.915 821.603 652.616 821.603C647.861 821.603 642.698 820.516 636.04 817.799C629.519 814.946 624.628 808.152 624.492 799.049C624.356 793.479 628.296 787.501 634.682 787.501C642.969 787.501 646.638 794.838 644.056 803.125C641.339 812.908 645.958 819.973 653.567 819.973C658.05 820.652 660.224 816.712 661.175 813.587C661.583 812.636 661.719 810.87 661.855 808.56C661.991 806.25 662.126 804.348 662.126 803.125C662.262 801.903 662.262 799.593 662.262 796.468Z" fill="#55142E" fill-opacity="0.3"/>
<path d="M594.326 871.226H624.488C616.472 872.992 609.814 878.698 604.38 888.073L589.57 914.974C587.804 918.371 586.853 923.262 586.853 929.919V951.25C586.853 957.364 589.435 962.119 592.831 963.886C596.5 965.652 598.402 966.195 600.44 966.331H551.936C553.702 966.331 556.012 965.788 559.273 964.022C562.669 962.255 565.251 957.772 565.251 951.794L565.386 933.724C565.386 927.066 564.028 921.496 561.446 917.284L542.561 886.307C536.04 875.845 527.888 871.226 523.676 871.226L572.044 871.361C564.3 871.497 560.224 878.698 564.435 886.443L579.924 912.936C583.049 918.507 586.174 918.235 589.435 912.121L602.614 888.48C607.641 879.378 604.652 872.448 594.326 871.226Z" fill="#55142E" fill-opacity="0.3"/>
<path d="M510.411 888.616V948.669C510.411 956.141 513.536 961.44 517.476 963.614C521.416 965.652 523.998 966.331 525.628 966.331H472.233C473.863 966.331 476.445 965.652 480.385 963.614C484.325 961.44 487.45 956.141 487.45 948.669V902.203C487.45 895.41 487.042 891.877 486.227 891.741C485.004 891.605 483.917 893.1 481.743 898.67L452.668 970L413.267 897.991C409.327 890.247 407.153 889.296 406.882 895.138V896.768L406.61 943.778C406.61 952.337 410.278 958.723 414.082 961.576C415.985 962.935 418.158 964.022 420.74 964.837C425.767 966.467 427.261 966.331 428.484 966.331H383.377C384.6 966.331 386.23 966.467 390.985 964.837C397.779 962.663 404.436 956.957 404.844 943.506V893.236C404.844 875.981 390.578 872.041 387.181 871.361L386.638 871.226H424.272L454.978 927.202C458.103 932.773 459.869 935.897 460.548 936.441C461.771 937.664 463.266 936.713 464.76 933.588C465.304 932.637 465.847 931.278 466.527 929.648L490.846 871.226H526.307C525.492 871.226 510.547 872.177 510.411 888.616Z" fill="#55142E" fill-opacity="0.3"/>
<path d="M367.353 922.583V892.285C367.353 883.59 364.364 877.204 360.152 874.623C356.212 872.041 353.63 871.362 351.456 871.226H383.928C382.026 871.498 369.119 873.128 369.119 893.644V924.349C369.119 927.203 369.119 929.512 368.983 931.279C368.983 933.045 368.711 935.626 368.304 939.023C367.896 942.42 367.353 945.273 366.537 947.582C365.043 952.066 361.918 958.723 357.434 962.12C353.087 965.517 345.886 968.37 337.19 968.37C322.653 968.37 312.327 964.701 306.485 957.229C300.643 949.756 297.79 938.344 297.79 923.127V888.889C297.79 882.367 295.48 877.34 293.17 875.166C288.958 871.362 284.611 871.09 283.252 871.226H335.56C333.794 871.226 332.571 871.226 329.174 872.449C325.098 874.079 320.479 878.563 320.479 888.889V928.29C320.479 952.338 329.582 963.75 346.022 962.663C361.239 961.577 367.353 949.349 367.353 922.583Z" fill="#55142E" fill-opacity="0.3"/>
<path d="M223.725 884.948V952.609C223.725 958.451 226.442 962.663 230.11 964.293C233.914 965.924 236.088 966.331 237.719 966.331H188.264C189.894 966.331 192.068 965.924 195.736 964.293C199.405 962.663 202.122 958.451 202.122 952.609V884.948C202.122 878.834 199.405 874.486 195.6 872.992C191.932 871.497 190.03 871.226 188.264 871.226H237.719C235.952 871.226 234.05 871.497 230.246 872.992C226.442 874.486 223.725 878.834 223.725 884.948ZM243.968 871.633H244.919H243.968ZM246.957 916.061L268.424 944.185C277.12 955.462 285.543 963.478 288.804 965.244L291.25 966.603L260.816 966.331L249.675 952.065L231.469 928.017C226.985 922.039 224.268 925.028 223.996 925.436L253.207 890.518C261.087 880.6 252.664 872.177 244.919 871.633H281.467L280.652 871.769C277.799 872.584 270.19 875.437 260.952 884.676L257.012 888.752L255.109 891.062L246.006 901.931C244.376 903.697 243.561 905.6 243.425 907.637C243.425 911.442 244.376 912.665 246.957 916.061Z" fill="#55142E" fill-opacity="0.3"/>
<path d="M133.247 870.003C148.872 870.003 161.236 876.117 168.165 885.492C175.23 894.866 178.626 906.415 178.491 918.915C178.083 943.642 161.915 967.962 129.036 967.554C113.411 967.418 100.504 960.489 93.303 950.707C86.1021 940.925 82.2979 929.24 82.7055 917.828C82.8413 903.562 87.7325 892.013 97.1072 883.182C106.618 874.351 118.71 869.867 133.247 870.003ZM153.084 915.654C151.453 903.018 147.785 892.421 142.214 883.59C136.644 874.758 129.987 871.09 122.514 872.313C116.4 873.264 112.052 878.019 109.199 886.307C106.482 894.595 105.938 905.056 107.705 917.828C109.471 930.463 113.139 941.332 118.438 950.435C123.873 959.538 130.122 964.429 137.323 964.973C144.524 965.652 149.551 961.44 152.133 952.609C154.85 943.642 155.122 931.278 153.084 915.654Z" fill="#55142E" fill-opacity="0.3"/>
<path d="M37.774 941.468V884.948C37.774 878.834 35.3284 874.486 31.9318 872.992C28.5351 871.497 26.9047 871.226 25.1385 871.226H72.012C70.2458 871.226 68.6154 871.497 65.2188 872.992C61.8221 874.486 59.3765 878.834 59.3765 884.948V942.283C59.3765 950.571 55.844 957.092 51.4964 960.489C49.3225 962.119 46.7411 963.478 43.6162 964.429C37.6381 966.467 33.4263 966.603 28.1275 966.603C23.3722 966.603 18.2094 965.516 11.552 962.799C5.03042 959.946 0.13927 953.152 0.00340422 944.049C-0.132461 938.479 3.80763 932.501 10.1933 932.501C18.4811 932.501 22.1494 939.838 19.568 948.125C16.8507 957.908 21.4701 964.973 29.0786 964.973C33.5621 965.652 35.736 961.712 36.687 958.587C37.0946 957.636 37.2305 955.87 37.3664 953.56C37.5022 951.25 37.6381 949.348 37.6381 948.125C37.774 946.903 37.774 944.593 37.774 941.468Z" fill="#55142E" fill-opacity="0.3"/>
<path d="M1218.33 1.22559H1248.49C1240.47 2.99184 1233.81 8.69818 1228.38 18.0729L1213.57 44.9742C1211.8 48.3708 1210.85 53.262 1210.85 59.9194V81.2503C1210.85 87.3642 1213.43 92.1195 1216.83 93.8857C1220.5 95.652 1222.4 96.1954 1224.44 96.3313H1175.94C1177.7 96.3313 1180.01 95.7878 1183.27 94.0216C1186.67 92.2553 1189.25 87.7718 1189.25 81.7937L1189.39 63.7236C1189.39 57.0662 1188.03 51.4958 1185.45 47.2839L1166.56 16.3066C1160.04 5.84501 1151.89 1.22559 1147.68 1.22559L1196.04 1.36145C1188.3 1.49732 1184.22 8.69818 1188.44 16.4425L1203.92 42.9362C1207.05 48.5067 1210.17 48.235 1213.43 42.121L1226.61 18.4805C1231.64 9.3775 1228.65 2.44837 1218.33 1.22559Z" fill="#A12256" fill-opacity="0.2"/>
<path d="M1134.41 18.6163V78.6688C1134.41 86.1414 1137.54 91.4402 1141.48 93.614C1145.42 95.652 1148 96.3313 1149.63 96.3313H1096.23C1097.86 96.3313 1100.44 95.652 1104.38 93.614C1108.32 91.4402 1111.45 86.1414 1111.45 78.6688V32.2029C1111.45 25.4096 1111.04 21.8771 1110.23 21.7412C1109 21.6054 1107.92 23.0999 1105.74 28.6704L1076.67 99.9997L1037.27 27.9911C1033.33 20.2467 1031.15 19.2957 1030.88 25.1379V26.7683L1030.61 73.7777C1030.61 82.3372 1034.28 88.7228 1038.08 91.576C1039.98 92.9347 1042.16 94.0216 1044.74 94.8368C1049.77 96.4672 1051.26 96.3313 1052.48 96.3313H1007.38C1008.6 96.3313 1010.23 96.4672 1014.99 94.8368C1021.78 92.6629 1028.44 86.9566 1028.84 73.5059V23.2358C1028.84 5.98088 1014.58 2.04078 1011.18 1.36145L1010.64 1.22559H1048.27L1078.98 57.2021C1082.1 62.7726 1083.87 65.8975 1084.55 66.4409C1085.77 67.6637 1087.27 66.7127 1088.76 63.5878C1089.3 62.6367 1089.85 61.2781 1090.53 59.6477L1114.85 1.22559H1150.31C1149.49 1.22559 1134.55 2.17665 1134.41 18.6163Z" fill="#A12256" fill-opacity="0.2"/>
<path d="M991.353 52.5832V22.2853C991.353 13.5899 988.364 7.20422 984.152 4.62278C980.212 2.04134 977.63 1.36201 975.456 1.22615H1007.93C1006.03 1.49788 993.119 3.12826 993.119 23.6439V54.3495C993.119 57.2027 993.119 59.5124 992.983 61.2786C992.983 63.0449 992.711 65.6263 992.304 69.0229C991.896 72.4196 991.353 75.2727 990.537 77.5824C989.043 82.066 985.918 88.7234 981.434 92.12C977.087 95.5167 969.886 98.3698 961.19 98.3698C946.653 98.3698 936.327 94.7015 930.485 87.2289C924.643 79.7563 921.79 68.3436 921.79 53.1267V18.8886C921.79 12.3671 919.48 7.34009 917.17 5.16624C912.958 1.36201 908.611 1.09028 907.252 1.22615H959.56C957.794 1.22615 956.571 1.22615 953.174 2.44893C949.098 4.07932 944.479 8.56287 944.479 18.8886V58.2896C944.479 82.3377 953.582 93.7504 970.022 92.6635C985.239 91.5766 991.353 79.3487 991.353 52.5832Z" fill="#A12256" fill-opacity="0.2"/>
<path d="M847.725 14.948V82.6089C847.725 88.4511 850.442 92.6629 854.11 94.2933C857.914 95.9237 860.088 96.3313 861.719 96.3313H812.264C813.894 96.3313 816.068 95.9237 819.736 94.2933C823.405 92.6629 826.122 88.4511 826.122 82.6089V14.948C826.122 8.83404 823.405 4.48635 819.6 2.99184C815.932 1.49732 814.03 1.22559 812.264 1.22559H861.719C859.952 1.22559 858.05 1.49732 854.246 2.99184C850.442 4.48635 847.725 8.83404 847.725 14.948ZM867.968 1.63318H868.919H867.968ZM870.957 46.0611L892.424 74.1853C901.12 85.4621 909.543 93.4781 912.804 95.2444L915.25 96.603L884.816 96.3313L873.675 82.0654L855.469 58.0173C850.985 52.0392 848.268 55.0282 847.996 55.4358L877.207 20.5185C885.087 10.6003 876.664 2.17665 868.919 1.63318H905.467L904.652 1.76905C901.799 2.58424 894.19 5.43742 884.952 14.6763L881.012 18.7522L879.109 21.0619L870.006 31.9311C868.376 33.6974 867.561 35.5995 867.425 37.6375C867.425 41.4417 868.376 42.6645 870.957 46.0611Z" fill="#A12256" fill-opacity="0.2"/>
<path d="M757.247 0.00299782C772.872 0.00299782 785.236 6.11694 792.165 15.4916C799.23 24.8664 802.626 36.4149 802.491 48.9145C802.083 73.642 785.915 97.9619 753.036 97.5543C737.411 97.4184 724.504 90.4893 717.303 80.707C710.102 70.9247 706.298 59.2403 706.705 47.8276C706.841 33.5617 711.732 22.0132 721.107 13.1819C730.618 4.35069 742.71 -0.132866 757.247 0.00299782ZM777.084 45.6537C775.453 33.0183 771.785 22.4208 766.214 13.5895C760.644 4.75828 753.987 1.08992 746.514 2.31271C740.4 3.26376 736.052 8.01905 733.199 16.3068C730.482 24.5946 729.938 35.0562 731.705 47.8276C733.471 60.4631 737.139 71.3323 742.438 80.4353C747.873 89.5382 754.122 94.4294 761.323 94.9729C768.524 95.6522 773.551 91.4404 776.133 82.6091C778.85 73.642 779.122 61.2783 777.084 45.6537Z" fill="#A12256" fill-opacity="0.2"/>
<path d="M661.774 71.468V14.948C661.774 8.83404 659.328 4.48635 655.932 2.99184C652.535 1.49732 650.905 1.22559 649.138 1.22559H696.012C694.246 1.22559 692.615 1.49732 689.219 2.99184C685.822 4.48635 683.377 8.83404 683.377 14.948V72.2831C683.377 80.5709 679.844 87.0925 675.496 90.4891C673.323 92.1195 670.741 93.4781 667.616 94.4292C661.638 96.4672 657.426 96.603 652.128 96.603C647.372 96.603 642.209 95.5161 635.552 92.7988C629.03 89.9456 624.139 83.1524 624.003 74.0494C623.868 68.4789 627.808 62.5008 634.193 62.5008C642.481 62.5008 646.149 69.8376 643.568 78.1254C640.851 87.9077 645.47 94.9727 653.079 94.9727C657.562 95.652 659.736 91.7119 660.687 88.587C661.095 87.6359 661.23 85.8697 661.366 83.56C661.502 81.2503 661.638 79.3481 661.638 78.1254C661.774 76.9026 661.774 74.5929 661.774 71.468Z" fill="#A12256" fill-opacity="0.2"/>
<path d="M594.326 146.226H624.488C616.472 147.992 609.814 153.698 604.38 163.073L589.57 189.974C587.804 193.371 586.853 198.262 586.853 204.919V226.25C586.853 232.364 589.435 237.119 592.831 238.886C596.5 240.652 598.402 241.195 600.44 241.331H551.936C553.702 241.331 556.012 240.788 559.273 239.022C562.669 237.255 565.251 232.772 565.251 226.794L565.386 208.724C565.386 202.066 564.028 196.496 561.446 192.284L542.561 161.307C536.04 150.845 527.888 146.226 523.676 146.226L572.044 146.361C564.3 146.497 560.224 153.698 564.435 161.443L579.924 187.936C583.049 193.507 586.174 193.235 589.435 187.121L602.614 163.48C607.641 154.378 604.652 147.448 594.326 146.226Z" fill="#A12256" fill-opacity="0.2"/>
<path d="M510.411 163.616V223.669C510.411 231.141 513.536 236.44 517.476 238.614C521.416 240.652 523.998 241.331 525.628 241.331H472.233C473.863 241.331 476.445 240.652 480.385 238.614C484.325 236.44 487.45 231.141 487.45 223.669V177.203C487.45 170.41 487.042 166.877 486.227 166.741C485.004 166.605 483.917 168.1 481.743 173.67L452.668 245L413.267 172.991C409.327 165.247 407.153 164.296 406.882 170.138V171.768L406.61 218.778C406.61 227.337 410.278 233.723 414.082 236.576C415.985 237.935 418.158 239.022 420.74 239.837C425.767 241.467 427.261 241.331 428.484 241.331H383.377C384.6 241.331 386.23 241.467 390.985 239.837C397.779 237.663 404.436 231.957 404.844 218.506V168.236C404.844 150.981 390.578 147.041 387.181 146.361L386.638 146.226H424.272L454.978 202.202C458.103 207.773 459.869 210.897 460.548 211.441C461.771 212.664 463.266 211.713 464.76 208.588C465.304 207.637 465.847 206.278 466.527 204.648L490.846 146.226H526.307C525.492 146.226 510.547 147.177 510.411 163.616Z" fill="#A12256" fill-opacity="0.2"/>
<path d="M367.353 197.583V167.285C367.353 158.59 364.364 152.204 360.152 149.623C356.212 147.041 353.63 146.362 351.456 146.226H383.928C382.026 146.498 369.119 148.128 369.119 168.644V199.349C369.119 202.203 369.119 204.512 368.983 206.279C368.983 208.045 368.711 210.626 368.304 214.023C367.896 217.42 367.353 220.273 366.537 222.582C365.043 227.066 361.918 233.723 357.434 237.12C353.087 240.517 345.886 243.37 337.19 243.37C322.653 243.37 312.327 239.701 306.485 232.229C300.643 224.756 297.79 213.344 297.79 198.127V163.889C297.79 157.367 295.48 152.34 293.17 150.166C288.958 146.362 284.611 146.09 283.252 146.226H335.56C333.794 146.226 332.571 146.226 329.174 147.449C325.098 149.079 320.479 153.563 320.479 163.889V203.29C320.479 227.338 329.582 238.75 346.022 237.663C361.239 236.577 367.353 224.349 367.353 197.583Z" fill="#A12256" fill-opacity="0.2"/>
<path d="M223.725 159.948V227.609C223.725 233.451 226.442 237.663 230.11 239.293C233.914 240.924 236.088 241.331 237.719 241.331H188.264C189.894 241.331 192.068 240.924 195.736 239.293C199.405 237.663 202.122 233.451 202.122 227.609V159.948C202.122 153.834 199.405 149.486 195.6 147.992C191.932 146.497 190.03 146.226 188.264 146.226H237.719C235.952 146.226 234.05 146.497 230.246 147.992C226.442 149.486 223.725 153.834 223.725 159.948ZM243.968 146.633H244.919H243.968ZM246.957 191.061L268.424 219.185C277.12 230.462 285.543 238.478 288.804 240.244L291.25 241.603L260.816 241.331L249.675 227.065L231.469 203.017C226.985 197.039 224.268 200.028 223.996 200.436L253.207 165.518C261.087 155.6 252.664 147.177 244.919 146.633H281.467L280.652 146.769C277.799 147.584 270.19 150.437 260.952 159.676L257.012 163.752L255.109 166.062L246.006 176.931C244.376 178.697 243.561 180.6 243.425 182.637C243.425 186.442 244.376 187.665 246.957 191.061Z" fill="#A12256" fill-opacity="0.2"/>
<path d="M133.247 145.003C148.872 145.003 161.236 151.117 168.165 160.492C175.23 169.866 178.626 181.415 178.491 193.915C178.083 218.642 161.915 242.962 129.036 242.554C113.411 242.418 100.504 235.489 93.303 225.707C86.1021 215.925 82.2979 204.24 82.7055 192.828C82.8413 178.562 87.7325 167.013 97.1072 158.182C106.618 149.351 118.71 144.867 133.247 145.003ZM153.084 190.654C151.453 178.018 147.785 167.421 142.214 158.59C136.644 149.758 129.987 146.09 122.514 147.313C116.4 148.264 112.052 153.019 109.199 161.307C106.482 169.595 105.938 180.056 107.705 192.828C109.471 205.463 113.139 216.332 118.438 225.435C123.873 234.538 130.122 239.429 137.323 239.973C144.524 240.652 149.551 236.44 152.133 227.609C154.85 218.642 155.122 206.278 153.084 190.654Z" fill="#A12256" fill-opacity="0.2"/>
<path d="M37.774 216.468V159.948C37.774 153.834 35.3284 149.486 31.9318 147.992C28.5351 146.497 26.9047 146.226 25.1385 146.226H72.012C70.2458 146.226 68.6154 146.497 65.2188 147.992C61.8221 149.486 59.3765 153.834 59.3765 159.948V217.283C59.3765 225.571 55.844 232.092 51.4964 235.489C49.3225 237.119 46.7411 238.478 43.6162 239.429C37.6381 241.467 33.4263 241.603 28.1275 241.603C23.3722 241.603 18.2094 240.516 11.552 237.799C5.03042 234.946 0.13927 228.152 0.00340422 219.049C-0.132461 213.479 3.80763 207.501 10.1933 207.501C18.4811 207.501 22.1494 214.838 19.568 223.125C16.8507 232.908 21.4701 239.973 29.0786 239.973C33.5621 240.652 35.736 236.712 36.687 233.587C37.0946 232.636 37.2305 230.87 37.3664 228.56C37.5022 226.25 37.6381 224.348 37.6381 223.125C37.774 221.903 37.774 219.593 37.774 216.468Z" fill="#A12256" fill-opacity="0.2"/>
<path d="M1218.33 291.226H1248.49C1240.47 292.992 1233.81 298.698 1228.38 308.073L1213.57 334.974C1211.8 338.371 1210.85 343.262 1210.85 349.919V371.25C1210.85 377.364 1213.43 382.119 1216.83 383.886C1220.5 385.652 1222.4 386.195 1224.44 386.331H1175.94C1177.7 386.331 1180.01 385.788 1183.27 384.022C1186.67 382.255 1189.25 377.772 1189.25 371.794L1189.39 353.724C1189.39 347.066 1188.03 341.496 1185.45 337.284L1166.56 306.307C1160.04 295.845 1151.89 291.226 1147.68 291.226L1196.04 291.361C1188.3 291.497 1184.22 298.698 1188.44 306.443L1203.92 332.936C1207.05 338.507 1210.17 338.235 1213.43 332.121L1226.61 308.48C1231.64 299.378 1228.65 292.448 1218.33 291.226Z" fill="#A12256" fill-opacity="0.2"/>
<path d="M1134.41 308.616V368.669C1134.41 376.141 1137.54 381.44 1141.48 383.614C1145.42 385.652 1148 386.331 1149.63 386.331H1096.23C1097.86 386.331 1100.44 385.652 1104.38 383.614C1108.32 381.44 1111.45 376.141 1111.45 368.669V322.203C1111.45 315.41 1111.04 311.877 1110.23 311.741C1109 311.605 1107.92 313.1 1105.74 318.67L1076.67 390L1037.27 317.991C1033.33 310.247 1031.15 309.296 1030.88 315.138V316.768L1030.61 363.778C1030.61 372.337 1034.28 378.723 1038.08 381.576C1039.98 382.935 1042.16 384.022 1044.74 384.837C1049.77 386.467 1051.26 386.331 1052.48 386.331H1007.38C1008.6 386.331 1010.23 386.467 1014.99 384.837C1021.78 382.663 1028.44 376.957 1028.84 363.506V313.236C1028.84 295.981 1014.58 292.041 1011.18 291.361L1010.64 291.226H1048.27L1078.98 347.202C1082.1 352.773 1083.87 355.897 1084.55 356.441C1085.77 357.664 1087.27 356.713 1088.76 353.588C1089.3 352.637 1089.85 351.278 1090.53 349.648L1114.85 291.226H1150.31C1149.49 291.226 1134.55 292.177 1134.41 308.616Z" fill="#A12256" fill-opacity="0.2"/>
<path d="M991.353 342.583V312.285C991.353 303.59 988.364 297.204 984.152 294.623C980.212 292.041 977.63 291.362 975.456 291.226H1007.93C1006.03 291.498 993.119 293.128 993.119 313.644V344.349C993.119 347.203 993.119 349.512 992.983 351.279C992.983 353.045 992.711 355.626 992.304 359.023C991.896 362.42 991.353 365.273 990.537 367.582C989.043 372.066 985.918 378.723 981.434 382.12C977.087 385.517 969.886 388.37 961.19 388.37C946.653 388.37 936.327 384.701 930.485 377.229C924.643 369.756 921.79 358.344 921.79 343.127V308.889C921.79 302.367 919.48 297.34 917.17 295.166C912.958 291.362 908.611 291.09 907.252 291.226H959.56C957.794 291.226 956.571 291.226 953.174 292.449C949.098 294.079 944.479 298.563 944.479 308.889V348.29C944.479 372.338 953.582 383.75 970.022 382.663C985.239 381.577 991.353 369.349 991.353 342.583Z" fill="#A12256" fill-opacity="0.2"/>
<path d="M847.725 304.948V372.609C847.725 378.451 850.442 382.663 854.11 384.293C857.914 385.924 860.088 386.331 861.719 386.331H812.264C813.894 386.331 816.068 385.924 819.736 384.293C823.405 382.663 826.122 378.451 826.122 372.609V304.948C826.122 298.834 823.405 294.486 819.6 292.992C815.932 291.497 814.03 291.226 812.264 291.226H861.719C859.952 291.226 858.05 291.497 854.246 292.992C850.442 294.486 847.725 298.834 847.725 304.948ZM867.968 291.633H868.919H867.968ZM870.957 336.061L892.424 364.185C901.12 375.462 909.543 383.478 912.804 385.244L915.25 386.603L884.816 386.331L873.675 372.065L855.469 348.017C850.985 342.039 848.268 345.028 847.996 345.436L877.207 310.518C885.087 300.6 876.664 292.177 868.919 291.633H905.467L904.652 291.769C901.799 292.584 894.19 295.437 884.952 304.676L881.012 308.752L879.109 311.062L870.006 321.931C868.376 323.697 867.561 325.6 867.425 327.637C867.425 331.442 868.376 332.665 870.957 336.061Z" fill="#A12256" fill-opacity="0.2"/>
<path d="M757.247 290.003C772.872 290.003 785.236 296.117 792.165 305.492C799.23 314.866 802.626 326.415 802.491 338.915C802.083 363.642 785.915 387.962 753.036 387.554C737.411 387.418 724.504 380.489 717.303 370.707C710.102 360.925 706.298 349.24 706.705 337.828C706.841 323.562 711.732 312.013 721.107 303.182C730.618 294.351 742.71 289.867 757.247 290.003ZM777.084 335.654C775.453 323.018 771.785 312.421 766.214 303.59C760.644 294.758 753.987 291.09 746.514 292.313C740.4 293.264 736.052 298.019 733.199 306.307C730.482 314.595 729.938 325.056 731.705 337.828C733.471 350.463 737.139 361.332 742.438 370.435C747.873 379.538 754.122 384.429 761.323 384.973C768.524 385.652 773.551 381.44 776.133 372.609C778.85 363.642 779.122 351.278 777.084 335.654Z" fill="#A12256" fill-opacity="0.2"/>
<path d="M661.774 361.468V304.948C661.774 298.834 659.328 294.486 655.932 292.992C652.535 291.497 650.905 291.226 649.138 291.226H696.012C694.246 291.226 692.615 291.497 689.219 292.992C685.822 294.486 683.377 298.834 683.377 304.948V362.283C683.377 370.571 679.844 377.092 675.496 380.489C673.323 382.119 670.741 383.478 667.616 384.429C661.638 386.467 657.426 386.603 652.128 386.603C647.372 386.603 642.209 385.516 635.552 382.799C629.03 379.946 624.139 373.152 624.003 364.049C623.868 358.479 627.808 352.501 634.193 352.501C642.481 352.501 646.149 359.838 643.568 368.125C640.851 377.908 645.47 384.973 653.079 384.973C657.562 385.652 659.736 381.712 660.687 378.587C661.095 377.636 661.23 375.87 661.366 373.56C661.502 371.25 661.638 369.348 661.638 368.125C661.774 366.903 661.774 364.593 661.774 361.468Z" fill="#A12256" fill-opacity="0.2"/>
<path d="M594.326 436.226H624.488C616.472 437.992 609.814 443.698 604.38 453.073L589.57 479.974C587.804 483.371 586.853 488.262 586.853 494.919V516.25C586.853 522.364 589.435 527.119 592.831 528.886C596.5 530.652 598.402 531.195 600.44 531.331H551.936C553.702 531.331 556.012 530.788 559.273 529.022C562.669 527.255 565.251 522.772 565.251 516.794L565.386 498.724C565.386 492.066 564.028 486.496 561.446 482.284L542.561 451.307C536.04 440.845 527.888 436.226 523.676 436.226L572.044 436.361C564.3 436.497 560.224 443.698 564.435 451.443L579.924 477.936C583.049 483.507 586.174 483.235 589.435 477.121L602.614 453.48C607.641 444.378 604.652 437.448 594.326 436.226Z" fill="#A12256" fill-opacity="0.2"/>
<path d="M510.411 453.616V513.669C510.411 521.141 513.536 526.44 517.476 528.614C521.416 530.652 523.998 531.331 525.628 531.331H472.233C473.863 531.331 476.445 530.652 480.385 528.614C484.325 526.44 487.45 521.141 487.45 513.669V467.203C487.45 460.41 487.042 456.877 486.227 456.741C485.004 456.605 483.917 458.1 481.743 463.67L452.668 535L413.267 462.991C409.327 455.247 407.153 454.296 406.882 460.138V461.768L406.61 508.778C406.61 517.337 410.278 523.723 414.082 526.576C415.985 527.935 418.158 529.022 420.74 529.837C425.767 531.467 427.261 531.331 428.484 531.331H383.377C384.6 531.331 386.23 531.467 390.985 529.837C397.779 527.663 404.436 521.957 404.844 508.506V458.236C404.844 440.981 390.578 437.041 387.181 436.361L386.638 436.226H424.272L454.978 492.202C458.103 497.773 459.869 500.897 460.548 501.441C461.771 502.664 463.266 501.713 464.76 498.588C465.304 497.637 465.847 496.278 466.527 494.648L490.846 436.226H526.307C525.492 436.226 510.547 437.177 510.411 453.616Z" fill="#A12256" fill-opacity="0.2"/>
<path d="M367.353 487.583V457.285C367.353 448.59 364.364 442.204 360.152 439.623C356.212 437.041 353.63 436.362 351.456 436.226H383.928C382.026 436.498 369.119 438.128 369.119 458.644V489.349C369.119 492.203 369.119 494.512 368.983 496.279C368.983 498.045 368.711 500.626 368.304 504.023C367.896 507.42 367.353 510.273 366.537 512.582C365.043 517.066 361.918 523.723 357.434 527.12C353.087 530.517 345.886 533.37 337.19 533.37C322.653 533.37 312.327 529.701 306.485 522.229C300.643 514.756 297.79 503.344 297.79 488.127V453.889C297.79 447.367 295.48 442.34 293.17 440.166C288.958 436.362 284.611 436.09 283.252 436.226H335.56C333.794 436.226 332.571 436.226 329.174 437.449C325.098 439.079 320.479 443.563 320.479 453.889V493.29C320.479 517.338 329.582 528.75 346.022 527.663C361.239 526.577 367.353 514.349 367.353 487.583Z" fill="#A12256" fill-opacity="0.2"/>
<path d="M223.725 449.948V517.609C223.725 523.451 226.442 527.663 230.11 529.293C233.914 530.924 236.088 531.331 237.719 531.331H188.264C189.894 531.331 192.068 530.924 195.736 529.293C199.405 527.663 202.122 523.451 202.122 517.609V449.948C202.122 443.834 199.405 439.486 195.6 437.992C191.932 436.497 190.03 436.226 188.264 436.226H237.719C235.952 436.226 234.05 436.497 230.246 437.992C226.442 439.486 223.725 443.834 223.725 449.948ZM243.968 436.633H244.919H243.968ZM246.957 481.061L268.424 509.185C277.12 520.462 285.543 528.478 288.804 530.244L291.25 531.603L260.816 531.331L249.675 517.065L231.469 493.017C226.985 487.039 224.268 490.028 223.996 490.436L253.207 455.518C261.087 445.6 252.664 437.177 244.919 436.633H281.467L280.652 436.769C277.799 437.584 270.19 440.437 260.952 449.676L257.012 453.752L255.109 456.062L246.006 466.931C244.376 468.697 243.561 470.6 243.425 472.637C243.425 476.442 244.376 477.665 246.957 481.061Z" fill="#A12256" fill-opacity="0.2"/>
<path d="M133.247 435.003C148.872 435.003 161.236 441.117 168.165 450.492C175.23 459.866 178.626 471.415 178.491 483.915C178.083 508.642 161.915 532.962 129.036 532.554C113.411 532.418 100.504 525.489 93.303 515.707C86.1021 505.925 82.2979 494.24 82.7055 482.828C82.8413 468.562 87.7325 457.013 97.1072 448.182C106.618 439.351 118.71 434.867 133.247 435.003ZM153.084 480.654C151.453 468.018 147.785 457.421 142.214 448.59C136.644 439.758 129.987 436.09 122.514 437.313C116.4 438.264 112.052 443.019 109.199 451.307C106.482 459.595 105.938 470.056 107.705 482.828C109.471 495.463 113.139 506.332 118.438 515.435C123.873 524.538 130.122 529.429 137.323 529.973C144.524 530.652 149.551 526.44 152.133 517.609C154.85 508.642 155.122 496.278 153.084 480.654Z" fill="#A12256" fill-opacity="0.2"/>
<path d="M37.774 506.468V449.948C37.774 443.834 35.3284 439.486 31.9318 437.992C28.5351 436.497 26.9047 436.226 25.1385 436.226H72.012C70.2458 436.226 68.6154 436.497 65.2188 437.992C61.8221 439.486 59.3765 443.834 59.3765 449.948V507.283C59.3765 515.571 55.844 522.092 51.4964 525.489C49.3225 527.119 46.7411 528.478 43.6162 529.429C37.6381 531.467 33.4263 531.603 28.1275 531.603C23.3722 531.603 18.2094 530.516 11.552 527.799C5.03042 524.946 0.13927 518.152 0.00340422 509.049C-0.132461 503.479 3.80763 497.501 10.1933 497.501C18.4811 497.501 22.1494 504.838 19.568 513.125C16.8507 522.908 21.4701 529.973 29.0786 529.973C33.5621 530.652 35.736 526.712 36.687 523.587C37.0946 522.636 37.2305 520.87 37.3664 518.56C37.5022 516.25 37.6381 514.348 37.6381 513.125C37.774 511.903 37.774 509.593 37.774 506.468Z" fill="#A12256" fill-opacity="0.2"/>
<path d="M1218.33 581.226H1248.49C1240.47 582.992 1233.81 588.698 1228.38 598.073L1213.57 624.974C1211.8 628.371 1210.85 633.262 1210.85 639.919V661.25C1210.85 667.364 1213.43 672.119 1216.83 673.886C1220.5 675.652 1222.4 676.195 1224.44 676.331H1175.94C1177.7 676.331 1180.01 675.788 1183.27 674.022C1186.67 672.255 1189.25 667.772 1189.25 661.794L1189.39 643.724C1189.39 637.066 1188.03 631.496 1185.45 627.284L1166.56 596.307C1160.04 585.845 1151.89 581.226 1147.68 581.226L1196.04 581.361C1188.3 581.497 1184.22 588.698 1188.44 596.443L1203.92 622.936C1207.05 628.507 1210.17 628.235 1213.43 622.121L1226.61 598.48C1231.64 589.378 1228.65 582.448 1218.33 581.226Z" fill="#A12256" fill-opacity="0.2"/>
<path d="M1134.41 598.616V658.669C1134.41 666.141 1137.54 671.44 1141.48 673.614C1145.42 675.652 1148 676.331 1149.63 676.331H1096.23C1097.86 676.331 1100.44 675.652 1104.38 673.614C1108.32 671.44 1111.45 666.141 1111.45 658.669V612.203C1111.45 605.41 1111.04 601.877 1110.23 601.741C1109 601.605 1107.92 603.1 1105.74 608.67L1076.67 680L1037.27 607.991C1033.33 600.247 1031.15 599.296 1030.88 605.138V606.768L1030.61 653.778C1030.61 662.337 1034.28 668.723 1038.08 671.576C1039.98 672.935 1042.16 674.022 1044.74 674.837C1049.77 676.467 1051.26 676.331 1052.48 676.331H1007.38C1008.6 676.331 1010.23 676.467 1014.99 674.837C1021.78 672.663 1028.44 666.957 1028.84 653.506V603.236C1028.84 585.981 1014.58 582.041 1011.18 581.361L1010.64 581.226H1048.27L1078.98 637.202C1082.1 642.773 1083.87 645.897 1084.55 646.441C1085.77 647.664 1087.27 646.713 1088.76 643.588C1089.3 642.637 1089.85 641.278 1090.53 639.648L1114.85 581.226H1150.31C1149.49 581.226 1134.55 582.177 1134.41 598.616Z" fill="#A12256" fill-opacity="0.2"/>
<path d="M991.353 632.583V602.285C991.353 593.59 988.364 587.204 984.152 584.623C980.212 582.041 977.63 581.362 975.456 581.226H1007.93C1006.03 581.498 993.119 583.128 993.119 603.644V634.349C993.119 637.203 993.119 639.512 992.983 641.279C992.983 643.045 992.711 645.626 992.304 649.023C991.896 652.42 991.353 655.273 990.537 657.582C989.043 662.066 985.918 668.723 981.434 672.12C977.087 675.517 969.886 678.37 961.19 678.37C946.653 678.37 936.327 674.701 930.485 667.229C924.643 659.756 921.79 648.344 921.79 633.127V598.889C921.79 592.367 919.48 587.34 917.17 585.166C912.958 581.362 908.611 581.09 907.252 581.226H959.56C957.794 581.226 956.571 581.226 953.174 582.449C949.098 584.079 944.479 588.563 944.479 598.889V638.29C944.479 662.338 953.582 673.75 970.022 672.663C985.239 671.577 991.353 659.349 991.353 632.583Z" fill="#A12256" fill-opacity="0.2"/>
<path d="M847.725 594.948V662.609C847.725 668.451 850.442 672.663 854.11 674.293C857.914 675.924 860.088 676.331 861.719 676.331H812.264C813.894 676.331 816.068 675.924 819.736 674.293C823.405 672.663 826.122 668.451 826.122 662.609V594.948C826.122 588.834 823.405 584.486 819.6 582.992C815.932 581.497 814.03 581.226 812.264 581.226H861.719C859.952 581.226 858.05 581.497 854.246 582.992C850.442 584.486 847.725 588.834 847.725 594.948ZM867.968 581.633H868.919H867.968ZM870.957 626.061L892.424 654.185C901.12 665.462 909.543 673.478 912.804 675.244L915.25 676.603L884.816 676.331L873.675 662.065L855.469 638.017C850.985 632.039 848.268 635.028 847.996 635.436L877.207 600.518C885.087 590.6 876.664 582.177 868.919 581.633H905.467L904.652 581.769C901.799 582.584 894.19 585.437 884.952 594.676L881.012 598.752L879.109 601.062L870.006 611.931C868.376 613.697 867.561 615.6 867.425 617.637C867.425 621.442 868.376 622.665 870.957 626.061Z" fill="#A12256" fill-opacity="0.2"/>
<path d="M757.247 580.003C772.872 580.003 785.236 586.117 792.165 595.492C799.23 604.866 802.626 616.415 802.491 628.915C802.083 653.642 785.915 677.962 753.036 677.554C737.411 677.418 724.504 670.489 717.303 660.707C710.102 650.925 706.298 639.24 706.705 627.828C706.841 613.562 711.732 602.013 721.107 593.182C730.618 584.351 742.71 579.867 757.247 580.003ZM777.084 625.654C775.453 613.018 771.785 602.421 766.214 593.59C760.644 584.758 753.987 581.09 746.514 582.313C740.4 583.264 736.052 588.019 733.199 596.307C730.482 604.595 729.938 615.056 731.705 627.828C733.471 640.463 737.139 651.332 742.438 660.435C747.873 669.538 754.122 674.429 761.323 674.973C768.524 675.652 773.551 671.44 776.133 662.609C778.85 653.642 779.122 641.278 777.084 625.654Z" fill="#A12256" fill-opacity="0.2"/>
<path d="M661.774 651.468V594.948C661.774 588.834 659.328 584.486 655.932 582.992C652.535 581.497 650.905 581.226 649.138 581.226H696.012C694.246 581.226 692.615 581.497 689.219 582.992C685.822 584.486 683.377 588.834 683.377 594.948V652.283C683.377 660.571 679.844 667.092 675.496 670.489C673.323 672.119 670.741 673.478 667.616 674.429C661.638 676.467 657.426 676.603 652.128 676.603C647.372 676.603 642.209 675.516 635.552 672.799C629.03 669.946 624.139 663.152 624.003 654.049C623.868 648.479 627.808 642.501 634.193 642.501C642.481 642.501 646.149 649.838 643.568 658.125C640.851 667.908 645.47 674.973 653.079 674.973C657.562 675.652 659.736 671.712 660.687 668.587C661.095 667.636 661.23 665.87 661.366 663.56C661.502 661.25 661.638 659.348 661.638 658.125C661.774 656.903 661.774 654.593 661.774 651.468Z" fill="#A12256" fill-opacity="0.2"/>
<path d="M594.326 726.226H624.488C616.472 727.992 609.814 733.698 604.38 743.073L589.57 769.974C587.804 773.371 586.853 778.262 586.853 784.919V806.25C586.853 812.364 589.435 817.119 592.831 818.886C596.5 820.652 598.402 821.195 600.44 821.331H551.936C553.702 821.331 556.012 820.788 559.273 819.022C562.669 817.255 565.251 812.772 565.251 806.794L565.386 788.724C565.386 782.066 564.028 776.496 561.446 772.284L542.561 741.307C536.04 730.845 527.888 726.226 523.676 726.226L572.044 726.361C564.3 726.497 560.224 733.698 564.435 741.443L579.924 767.936C583.049 773.507 586.174 773.235 589.435 767.121L602.614 743.48C607.641 734.378 604.652 727.448 594.326 726.226Z" fill="#A12256" fill-opacity="0.2"/>
<path d="M510.411 743.616V803.669C510.411 811.141 513.536 816.44 517.476 818.614C521.416 820.652 523.998 821.331 525.628 821.331H472.233C473.863 821.331 476.445 820.652 480.385 818.614C484.325 816.44 487.45 811.141 487.45 803.669V757.203C487.45 750.41 487.042 746.877 486.227 746.741C485.004 746.605 483.917 748.1 481.743 753.67L452.668 825L413.267 752.991C409.327 745.247 407.153 744.296 406.882 750.138V751.768L406.61 798.778C406.61 807.337 410.278 813.723 414.082 816.576C415.985 817.935 418.158 819.022 420.74 819.837C425.767 821.467 427.261 821.331 428.484 821.331H383.377C384.6 821.331 386.23 821.467 390.985 819.837C397.779 817.663 404.436 811.957 404.844 798.506V748.236C404.844 730.981 390.578 727.041 387.181 726.361L386.638 726.226H424.272L454.978 782.202C458.103 787.773 459.869 790.897 460.548 791.441C461.771 792.664 463.266 791.713 464.76 788.588C465.304 787.637 465.847 786.278 466.527 784.648L490.846 726.226H526.307C525.492 726.226 510.547 727.177 510.411 743.616Z" fill="#A12256" fill-opacity="0.2"/>
<path d="M367.353 777.583V747.285C367.353 738.59 364.364 732.204 360.152 729.623C356.212 727.041 353.63 726.362 351.456 726.226H383.928C382.026 726.498 369.119 728.128 369.119 748.644V779.349C369.119 782.203 369.119 784.512 368.983 786.279C368.983 788.045 368.711 790.626 368.304 794.023C367.896 797.42 367.353 800.273 366.537 802.582C365.043 807.066 361.918 813.723 357.434 817.12C353.087 820.517 345.886 823.37 337.19 823.37C322.653 823.37 312.327 819.701 306.485 812.229C300.643 804.756 297.79 793.344 297.79 778.127V743.889C297.79 737.367 295.48 732.34 293.17 730.166C288.958 726.362 284.611 726.09 283.252 726.226H335.56C333.794 726.226 332.571 726.226 329.174 727.449C325.098 729.079 320.479 733.563 320.479 743.889V783.29C320.479 807.338 329.582 818.75 346.022 817.663C361.239 816.577 367.353 804.349 367.353 777.583Z" fill="#A12256" fill-opacity="0.2"/>
<path d="M223.725 739.948V807.609C223.725 813.451 226.442 817.663 230.11 819.293C233.914 820.924 236.088 821.331 237.719 821.331H188.264C189.894 821.331 192.068 820.924 195.736 819.293C199.405 817.663 202.122 813.451 202.122 807.609V739.948C202.122 733.834 199.405 729.486 195.6 727.992C191.932 726.497 190.03 726.226 188.264 726.226H237.719C235.952 726.226 234.05 726.497 230.246 727.992C226.442 729.486 223.725 733.834 223.725 739.948ZM243.968 726.633H244.919H243.968ZM246.957 771.061L268.424 799.185C277.12 810.462 285.543 818.478 288.804 820.244L291.25 821.603L260.816 821.331L249.675 807.065L231.469 783.017C226.985 777.039 224.268 780.028 223.996 780.436L253.207 745.518C261.087 735.6 252.664 727.177 244.919 726.633H281.467L280.652 726.769C277.799 727.584 270.19 730.437 260.952 739.676L257.012 743.752L255.109 746.062L246.006 756.931C244.376 758.697 243.561 760.6 243.425 762.637C243.425 766.442 244.376 767.665 246.957 771.061Z" fill="#A12256" fill-opacity="0.2"/>
<path d="M133.247 725.003C148.872 725.003 161.236 731.117 168.165 740.492C175.23 749.866 178.626 761.415 178.491 773.915C178.083 798.642 161.915 822.962 129.036 822.554C113.411 822.418 100.504 815.489 93.303 805.707C86.1021 795.925 82.2979 784.24 82.7055 772.828C82.8413 758.562 87.7325 747.013 97.1072 738.182C106.618 729.351 118.71 724.867 133.247 725.003ZM153.084 770.654C151.453 758.018 147.785 747.421 142.214 738.59C136.644 729.758 129.987 726.09 122.514 727.313C116.4 728.264 112.052 733.019 109.199 741.307C106.482 749.595 105.938 760.056 107.705 772.828C109.471 785.463 113.139 796.332 118.438 805.435C123.873 814.538 130.122 819.429 137.323 819.973C144.524 820.652 149.551 816.44 152.133 807.609C154.85 798.642 155.122 786.278 153.084 770.654Z" fill="#A12256" fill-opacity="0.2"/>
<path d="M37.774 796.468V739.948C37.774 733.834 35.3284 729.486 31.9318 727.992C28.5351 726.497 26.9047 726.226 25.1385 726.226H72.012C70.2458 726.226 68.6154 726.497 65.2188 727.992C61.8221 729.486 59.3765 733.834 59.3765 739.948V797.283C59.3765 805.571 55.844 812.092 51.4964 815.489C49.3225 817.119 46.7411 818.478 43.6162 819.429C37.6381 821.467 33.4263 821.603 28.1275 821.603C23.3722 821.603 18.2094 820.516 11.552 817.799C5.03042 814.946 0.13927 808.152 0.00340422 799.049C-0.132461 793.479 3.80763 787.501 10.1933 787.501C18.4811 787.501 22.1494 794.838 19.568 803.125C16.8507 812.908 21.4701 819.973 29.0786 819.973C33.5621 820.652 35.736 816.712 36.687 813.587C37.0946 812.636 37.2305 810.87 37.3664 808.56C37.5022 806.25 37.6381 804.348 37.6381 803.125C37.774 801.903 37.774 799.593 37.774 796.468Z" fill="#A12256" fill-opacity="0.2"/>
<path d="M1218.33 871.226H1248.49C1240.47 872.992 1233.81 878.698 1228.38 888.073L1213.57 914.974C1211.8 918.371 1210.85 923.262 1210.85 929.919V951.25C1210.85 957.364 1213.43 962.119 1216.83 963.886C1220.5 965.652 1222.4 966.195 1224.44 966.331H1175.94C1177.7 966.331 1180.01 965.788 1183.27 964.022C1186.67 962.255 1189.25 957.772 1189.25 951.794L1189.39 933.724C1189.39 927.066 1188.03 921.496 1185.45 917.284L1166.56 886.307C1160.04 875.845 1151.89 871.226 1147.68 871.226L1196.04 871.361C1188.3 871.497 1184.22 878.698 1188.44 886.443L1203.92 912.936C1207.05 918.507 1210.17 918.235 1213.43 912.121L1226.61 888.48C1231.64 879.378 1228.65 872.448 1218.33 871.226Z" fill="#A12256" fill-opacity="0.2"/>
<path d="M1134.41 888.616V948.669C1134.41 956.141 1137.54 961.44 1141.48 963.614C1145.42 965.652 1148 966.331 1149.63 966.331H1096.23C1097.86 966.331 1100.44 965.652 1104.38 963.614C1108.32 961.44 1111.45 956.141 1111.45 948.669V902.203C1111.45 895.41 1111.04 891.877 1110.23 891.741C1109 891.605 1107.92 893.1 1105.74 898.67L1076.67 970L1037.27 897.991C1033.33 890.247 1031.15 889.296 1030.88 895.138V896.768L1030.61 943.778C1030.61 952.337 1034.28 958.723 1038.08 961.576C1039.98 962.935 1042.16 964.022 1044.74 964.837C1049.77 966.467 1051.26 966.331 1052.48 966.331H1007.38C1008.6 966.331 1010.23 966.467 1014.99 964.837C1021.78 962.663 1028.44 956.957 1028.84 943.506V893.236C1028.84 875.981 1014.58 872.041 1011.18 871.361L1010.64 871.226H1048.27L1078.98 927.202C1082.1 932.773 1083.87 935.897 1084.55 936.441C1085.77 937.664 1087.27 936.713 1088.76 933.588C1089.3 932.637 1089.85 931.278 1090.53 929.648L1114.85 871.226H1150.31C1149.49 871.226 1134.55 872.177 1134.41 888.616Z" fill="#A12256" fill-opacity="0.2"/>
<path d="M991.353 922.583V892.285C991.353 883.59 988.364 877.204 984.152 874.623C980.212 872.041 977.63 871.362 975.456 871.226H1007.93C1006.03 871.498 993.119 873.128 993.119 893.644V924.349C993.119 927.203 993.119 929.512 992.983 931.279C992.983 933.045 992.711 935.626 992.304 939.023C991.896 942.42 991.353 945.273 990.537 947.582C989.043 952.066 985.918 958.723 981.434 962.12C977.087 965.517 969.886 968.37 961.19 968.37C946.653 968.37 936.327 964.701 930.485 957.229C924.643 949.756 921.79 938.344 921.79 923.127V888.889C921.79 882.367 919.48 877.34 917.17 875.166C912.958 871.362 908.611 871.09 907.252 871.226H959.56C957.794 871.226 956.571 871.226 953.174 872.449C949.098 874.079 944.479 878.563 944.479 888.889V928.29C944.479 952.338 953.582 963.75 970.022 962.663C985.239 961.577 991.353 949.349 991.353 922.583Z" fill="#A12256" fill-opacity="0.2"/>
<path d="M847.725 884.948V952.609C847.725 958.451 850.442 962.663 854.11 964.293C857.914 965.924 860.088 966.331 861.719 966.331H812.264C813.894 966.331 816.068 965.924 819.736 964.293C823.405 962.663 826.122 958.451 826.122 952.609V884.948C826.122 878.834 823.405 874.486 819.6 872.992C815.932 871.497 814.03 871.226 812.264 871.226H861.719C859.952 871.226 858.05 871.497 854.246 872.992C850.442 874.486 847.725 878.834 847.725 884.948ZM867.968 871.633H868.919H867.968ZM870.957 916.061L892.424 944.185C901.12 955.462 909.543 963.478 912.804 965.244L915.25 966.603L884.816 966.331L873.675 952.065L855.469 928.017C850.985 922.039 848.268 925.028 847.996 925.436L877.207 890.518C885.087 880.6 876.664 872.177 868.919 871.633H905.467L904.652 871.769C901.799 872.584 894.19 875.437 884.952 884.676L881.012 888.752L879.109 891.062L870.006 901.931C868.376 903.697 867.561 905.6 867.425 907.637C867.425 911.442 868.376 912.665 870.957 916.061Z" fill="#A12256" fill-opacity="0.2"/>
<path d="M757.247 870.003C772.872 870.003 785.236 876.117 792.165 885.492C799.23 894.866 802.626 906.415 802.491 918.915C802.083 943.642 785.915 967.962 753.036 967.554C737.411 967.418 724.504 960.489 717.303 950.707C710.102 940.925 706.298 929.24 706.705 917.828C706.841 903.562 711.732 892.013 721.107 883.182C730.618 874.351 742.71 869.867 757.247 870.003ZM777.084 915.654C775.453 903.018 771.785 892.421 766.214 883.59C760.644 874.758 753.987 871.09 746.514 872.313C740.4 873.264 736.052 878.019 733.199 886.307C730.482 894.595 729.938 905.056 731.705 917.828C733.471 930.463 737.139 941.332 742.438 950.435C747.873 959.538 754.122 964.429 761.323 964.973C768.524 965.652 773.551 961.44 776.133 952.609C778.85 943.642 779.122 931.278 777.084 915.654Z" fill="#A12256" fill-opacity="0.2"/>
<path d="M661.774 941.468V884.948C661.774 878.834 659.328 874.486 655.932 872.992C652.535 871.497 650.905 871.226 649.138 871.226H696.012C694.246 871.226 692.615 871.497 689.219 872.992C685.822 874.486 683.377 878.834 683.377 884.948V942.283C683.377 950.571 679.844 957.092 675.496 960.489C673.323 962.119 670.741 963.478 667.616 964.429C661.638 966.467 657.426 966.603 652.128 966.603C647.372 966.603 642.209 965.516 635.552 962.799C629.03 959.946 624.139 953.152 624.003 944.049C623.868 938.479 627.808 932.501 634.193 932.501C642.481 932.501 646.149 939.838 643.568 948.125C640.851 957.908 645.47 964.973 653.079 964.973C657.562 965.652 659.736 961.712 660.687 958.587C661.095 957.636 661.23 955.87 661.366 953.56C661.502 951.25 661.638 949.348 661.638 948.125C661.774 946.903 661.774 944.593 661.774 941.468Z" fill="#A12256" fill-opacity="0.2"/>
</svg>
