<svg width="880" height="970" viewBox="0 0 880 970" fill="none" xmlns="http://www.w3.org/2000/svg">
<path d="M409.239 1.42285H439.828C431.699 3.21409 424.947 9.00116 419.436 18.5085L404.417 45.7904C402.626 49.2351 401.661 54.1955 401.661 60.9471V82.5797C401.661 88.7801 404.279 93.6027 407.724 95.3939C411.444 97.1852 413.373 97.7363 415.44 97.8741H366.25C368.041 97.8741 370.383 97.3229 373.69 95.5317C377.135 93.7405 379.753 89.1935 379.753 83.1308L379.891 64.8051C379.891 58.0535 378.513 52.4042 375.895 48.1328L356.742 16.7173C350.128 6.10763 341.861 1.42285 337.59 1.42285L386.642 1.56064C378.788 1.69843 374.655 9.00117 378.926 16.8551L394.634 43.7236C397.803 49.3729 400.972 49.0973 404.279 42.8969L417.644 18.9219C422.743 9.6901 419.711 2.66294 409.239 1.42285Z" fill="#55142E" fill-opacity="0.3"/>
<path d="M267.621 47.03C269.274 58.8797 273.821 68.387 281.261 75.552C288.702 82.5792 297.52 86.2994 307.717 86.4372C325.078 86.8506 332.243 76.5165 334.723 72.2451L335.412 70.5916C335.274 71.8317 334.999 73.3474 332.243 78.9967C331.003 81.7524 329.349 84.3704 327.42 86.7128C323.7 91.2598 316.122 96.6335 307.303 98.7003C290.355 102.421 274.234 97.8736 263.762 88.6418C253.428 79.4101 246.815 66.1825 246.401 52.4037C246.126 41.9319 248.192 32.8379 252.739 24.984C261.971 9.13842 276.852 1.42232 294.351 0.182232C302.205 -0.36892 310.059 0.320025 317.913 2.38684C323.424 3.9025 328.385 6.1071 330.038 7.20939L331.416 8.17391L331.141 35.318C325.491 24.0195 318.051 14.9255 308.819 8.17391C299.587 1.28453 290.218 0.320025 280.71 5.41816C275.199 8.3117 271.341 13.6854 268.998 21.5393C266.656 29.3932 266.243 37.936 267.621 47.03Z" fill="#55142E" fill-opacity="0.3"/>
<path d="M218.767 17.9574V81.3396C218.767 87.2645 221.109 91.9492 223.727 94.1538C228.136 97.5985 233.235 97.8741 234.337 97.8741H181.84C183.493 97.8741 197.134 97.3229 197.134 81.3396V17.9574C197.134 11.8947 194.792 7.20993 192.174 5.14312C190.934 4.04082 189.556 3.21409 187.765 2.66294C184.458 1.42285 183.356 1.42285 181.84 1.42285H234.337C232.27 1.42285 230.341 1.69843 226.07 3.48966C221.798 5.2809 218.767 10.379 218.767 17.9574Z" fill="#55142E" fill-opacity="0.3"/>
<path d="M160.486 53.5065V22.7799C160.486 13.9615 157.454 7.48545 153.183 4.86749C149.187 2.24953 146.569 1.56059 144.365 1.4228H177.296C175.367 1.69838 162.277 3.35183 162.277 24.1577V55.2977C162.277 58.1913 162.277 60.5336 162.139 62.3249C162.139 64.1161 161.864 66.7341 161.45 70.1788C161.037 73.6235 160.486 76.517 159.659 78.8594C158.143 83.4064 154.974 90.158 150.427 93.6026C146.018 97.0473 138.715 99.9409 129.897 99.9409C115.154 99.9409 104.682 96.2206 98.757 88.6423C92.8321 81.064 89.9386 69.4898 89.9386 54.0576V19.3352C89.9386 12.7214 87.5962 7.62324 85.2538 5.41864C80.9824 1.56059 76.5732 1.28502 75.1953 1.4228H128.244C126.452 1.4228 125.212 1.4228 121.767 2.66289C117.634 4.31634 112.949 8.86333 112.949 19.3352V59.2936C112.949 83.6819 122.181 95.2561 138.853 94.1538C154.285 93.0515 160.486 80.6506 160.486 53.5065Z" fill="#55142E" fill-opacity="0.3"/>
<path d="M38.3084 72.659V15.3394C38.3084 9.13895 35.8282 4.72975 32.3835 3.21409C28.9388 1.69843 27.2854 1.42285 25.4941 1.42285H73.0308C71.2396 1.42285 69.5861 1.69843 66.1415 3.21409C62.6968 4.72975 60.2166 9.13895 60.2166 15.3394V73.4857C60.2166 81.8908 56.6341 88.5046 52.2249 91.9492C50.0203 93.6027 47.4024 94.9806 44.2332 95.9451C38.1706 98.0119 33.8992 98.1497 28.5255 98.1497C23.7029 98.1497 18.467 97.0474 11.7154 94.2916C5.10159 91.3981 0.14124 84.5087 0.00345238 75.277C-0.134335 69.6277 3.8615 63.565 10.3375 63.565C18.7426 63.565 22.4628 71.0055 19.8449 79.4106C17.0891 89.3313 21.7739 96.4962 29.49 96.4962C34.037 97.1852 36.2416 93.1893 37.2061 90.0202C37.6194 89.0557 37.7572 87.2645 37.895 84.9221C38.0328 82.5797 38.1706 80.6507 38.1706 79.4106C38.3084 78.1705 38.3084 75.8281 38.3084 72.659Z" fill="#55142E" fill-opacity="0.3"/>
<path d="M849.067 146.423H879.656C871.527 148.214 864.775 154.001 859.264 163.508L844.245 190.79C842.454 194.235 841.489 199.195 841.489 205.947V227.58C841.489 233.78 844.107 238.603 847.552 240.394C851.272 242.185 853.201 242.736 855.268 242.874H806.078C807.869 242.874 810.211 242.323 813.518 240.532C816.963 238.74 819.581 234.193 819.581 228.131L819.719 209.805C819.719 203.054 818.341 197.404 815.723 193.133L796.57 161.717C789.957 151.108 781.689 146.423 777.418 146.423L826.47 146.561C818.616 146.698 814.483 154.001 818.754 161.855L834.462 188.724C837.631 194.373 840.8 194.097 844.107 187.897L857.473 163.922C862.571 154.69 859.539 147.663 849.067 146.423Z" fill="#55142E" fill-opacity="0.3"/>
<path d="M707.449 192.03C709.102 203.88 713.649 213.387 721.09 220.552C728.53 227.579 737.349 231.299 747.545 231.437C764.906 231.851 772.071 221.517 774.551 217.245L775.24 215.592C775.102 216.832 774.827 218.347 772.071 223.997C770.831 226.752 769.177 229.37 767.248 231.713C763.528 236.26 755.95 241.633 747.131 243.7C730.184 247.421 714.062 242.874 703.591 233.642C693.257 224.41 686.643 211.182 686.229 197.404C685.954 186.932 688.021 177.838 692.568 169.984C701.799 154.138 716.68 146.422 734.179 145.182C742.033 144.631 749.887 145.32 757.741 147.387C763.253 148.902 768.213 151.107 769.866 152.209L771.244 153.174L770.969 180.318C765.319 169.019 757.879 159.925 748.647 153.174C739.415 146.285 730.046 145.32 720.538 150.418C715.027 153.312 711.169 158.685 708.827 166.539C706.484 174.393 706.071 182.936 707.449 192.03Z" fill="#55142E" fill-opacity="0.3"/>
<path d="M658.595 162.957V226.34C658.595 232.264 660.937 236.949 663.555 239.154C667.965 242.599 673.063 242.874 674.165 242.874H621.668C623.321 242.874 636.962 242.323 636.962 226.34V162.957C636.962 156.895 634.62 152.21 632.002 150.143C630.762 149.041 629.384 148.214 627.593 147.663C624.286 146.423 623.184 146.423 621.668 146.423H674.165C672.098 146.423 670.169 146.698 665.898 148.49C661.626 150.281 658.595 155.379 658.595 162.957Z" fill="#55142E" fill-opacity="0.3"/>
<path d="M600.314 198.506V167.78C600.314 158.961 597.283 152.485 593.011 149.867C589.015 147.25 586.397 146.561 584.193 146.423H617.124C615.195 146.698 602.105 148.352 602.105 169.158V200.298C602.105 203.191 602.105 205.534 601.967 207.325C601.967 209.116 601.692 211.734 601.278 215.179C600.865 218.623 600.314 221.517 599.487 223.859C597.972 228.406 594.802 235.158 590.255 238.603C585.846 242.047 578.543 244.941 569.725 244.941C554.982 244.941 544.51 241.221 538.585 233.642C532.66 226.064 529.767 214.49 529.767 199.058V164.335C529.767 157.721 527.424 152.623 525.082 150.419C520.811 146.561 516.401 146.285 515.023 146.423H568.072C566.28 146.423 565.04 146.423 561.596 147.663C557.462 149.316 552.777 153.863 552.777 164.335V204.294C552.777 228.682 562.009 240.256 578.681 239.154C594.113 238.051 600.314 225.651 600.314 198.506Z" fill="#55142E" fill-opacity="0.3"/>
<path d="M478.137 217.659V160.339C478.137 154.139 475.656 149.73 472.212 148.214C468.767 146.698 467.114 146.423 465.322 146.423H512.859C511.068 146.423 509.414 146.698 505.97 148.214C502.525 149.73 500.045 154.139 500.045 160.339V218.486C500.045 226.891 496.462 233.505 492.053 236.949C489.848 238.603 487.23 239.981 484.061 240.945C477.999 243.012 473.727 243.15 468.354 243.15C463.531 243.15 458.295 242.047 451.544 239.292C444.93 236.398 439.969 229.509 439.832 220.277C439.694 214.628 443.69 208.565 450.166 208.565C458.571 208.565 462.291 216.006 459.673 224.411C456.917 234.331 461.602 241.496 469.318 241.496C473.865 242.185 476.07 238.189 477.034 235.02C477.448 234.056 477.585 232.264 477.723 229.922C477.861 227.58 477.999 225.651 477.999 224.411C478.137 223.17 478.137 220.828 478.137 217.659Z" fill="#55142E" fill-opacity="0.3"/>
<path d="M409.239 291.423H439.828C431.699 293.214 424.947 299.001 419.436 308.508L404.417 335.79C402.626 339.235 401.661 344.195 401.661 350.947V372.58C401.661 378.78 404.279 383.603 407.724 385.394C411.444 387.185 413.373 387.736 415.44 387.874H366.25C368.041 387.874 370.383 387.323 373.69 385.532C377.135 383.74 379.753 379.193 379.753 373.131L379.891 354.805C379.891 348.054 378.513 342.404 375.895 338.133L356.742 306.717C350.128 296.108 341.861 291.423 337.59 291.423L386.642 291.561C378.788 291.698 374.655 299.001 378.926 306.855L394.634 333.724C397.803 339.373 400.972 339.097 404.279 332.897L417.644 308.922C422.743 299.69 419.711 292.663 409.239 291.423Z" fill="#55142E" fill-opacity="0.3"/>
<path d="M267.621 337.03C269.274 348.88 273.821 358.387 281.261 365.552C288.702 372.579 297.52 376.299 307.717 376.437C325.078 376.851 332.243 366.517 334.723 362.245L335.412 360.592C335.274 361.832 334.999 363.347 332.243 368.997C331.003 371.752 329.349 374.37 327.42 376.713C323.7 381.26 316.122 386.633 307.303 388.7C290.355 392.421 274.234 387.874 263.762 378.642C253.428 369.41 246.815 356.182 246.401 342.404C246.126 331.932 248.192 322.838 252.739 314.984C261.971 299.138 276.852 291.422 294.351 290.182C302.205 289.631 310.059 290.32 317.913 292.387C323.424 293.902 328.385 296.107 330.038 297.209L331.416 298.174L331.141 325.318C325.491 314.019 318.051 304.925 308.819 298.174C299.587 291.285 290.218 290.32 280.71 295.418C275.199 298.312 271.341 303.685 268.998 311.539C266.656 319.393 266.243 327.936 267.621 337.03Z" fill="#55142E" fill-opacity="0.3"/>
<path d="M218.767 307.957V371.34C218.767 377.264 221.109 381.949 223.727 384.154C228.136 387.599 233.235 387.874 234.337 387.874H181.84C183.493 387.874 197.134 387.323 197.134 371.34V307.957C197.134 301.895 194.792 297.21 192.174 295.143C190.934 294.041 189.556 293.214 187.765 292.663C184.458 291.423 183.356 291.423 181.84 291.423H234.337C232.27 291.423 230.341 291.698 226.07 293.49C221.798 295.281 218.767 300.379 218.767 307.957Z" fill="#55142E" fill-opacity="0.3"/>
<path d="M160.486 343.506V312.78C160.486 303.961 157.454 297.485 153.183 294.867C149.187 292.25 146.569 291.561 144.365 291.423H177.296C175.367 291.698 162.277 293.352 162.277 314.158V345.298C162.277 348.191 162.277 350.534 162.139 352.325C162.139 354.116 161.864 356.734 161.45 360.179C161.037 363.623 160.486 366.517 159.659 368.859C158.143 373.406 154.974 380.158 150.427 383.603C146.018 387.047 138.715 389.941 129.897 389.941C115.154 389.941 104.682 386.221 98.757 378.642C92.8321 371.064 89.9386 359.49 89.9386 344.058V309.335C89.9386 302.721 87.5962 297.623 85.2538 295.419C80.9824 291.561 76.5732 291.285 75.1953 291.423H128.244C126.452 291.423 125.212 291.423 121.767 292.663C117.634 294.316 112.949 298.863 112.949 309.335V349.294C112.949 373.682 122.181 385.256 138.853 384.154C154.285 383.051 160.486 370.651 160.486 343.506Z" fill="#55142E" fill-opacity="0.3"/>
<path d="M38.3084 362.659V305.339C38.3084 299.139 35.8282 294.73 32.3835 293.214C28.9388 291.698 27.2854 291.423 25.4941 291.423H73.0308C71.2396 291.423 69.5861 291.698 66.1415 293.214C62.6968 294.73 60.2166 299.139 60.2166 305.339V363.486C60.2166 371.891 56.6341 378.505 52.2249 381.949C50.0203 383.603 47.4024 384.981 44.2332 385.945C38.1706 388.012 33.8992 388.15 28.5255 388.15C23.7029 388.15 18.467 387.047 11.7154 384.292C5.10159 381.398 0.14124 374.509 0.00345238 365.277C-0.134335 359.628 3.8615 353.565 10.3375 353.565C18.7426 353.565 22.4628 361.006 19.8449 369.411C17.0891 379.331 21.7739 386.496 29.49 386.496C34.037 387.185 36.2416 383.189 37.2061 380.02C37.6194 379.056 37.7572 377.264 37.895 374.922C38.0328 372.58 38.1706 370.651 38.1706 369.411C38.3084 368.17 38.3084 365.828 38.3084 362.659Z" fill="#55142E" fill-opacity="0.3"/>
<path d="M849.067 436.423H879.656C871.527 438.214 864.775 444.001 859.264 453.508L844.245 480.79C842.454 484.235 841.489 489.195 841.489 495.947V517.58C841.489 523.78 844.107 528.603 847.552 530.394C851.272 532.185 853.201 532.736 855.268 532.874H806.078C807.869 532.874 810.211 532.323 813.518 530.532C816.963 528.74 819.581 524.193 819.581 518.131L819.719 499.805C819.719 493.054 818.341 487.404 815.723 483.133L796.57 451.717C789.957 441.108 781.689 436.423 777.418 436.423L826.47 436.561C818.616 436.698 814.483 444.001 818.754 451.855L834.462 478.724C837.631 484.373 840.8 484.097 844.107 477.897L857.473 453.922C862.571 444.69 859.539 437.663 849.067 436.423Z" fill="#55142E" fill-opacity="0.3"/>
<path d="M707.449 482.03C709.102 493.88 713.649 503.387 721.09 510.552C728.53 517.579 737.349 521.299 747.545 521.437C764.906 521.851 772.071 511.517 774.551 507.245L775.24 505.592C775.102 506.832 774.827 508.347 772.071 513.997C770.831 516.752 769.177 519.37 767.248 521.713C763.528 526.26 755.95 531.633 747.131 533.7C730.184 537.421 714.062 532.874 703.591 523.642C693.257 514.41 686.643 501.182 686.229 487.404C685.954 476.932 688.021 467.838 692.568 459.984C701.799 444.138 716.68 436.422 734.179 435.182C742.033 434.631 749.887 435.32 757.741 437.387C763.253 438.902 768.213 441.107 769.866 442.209L771.244 443.174L770.969 470.318C765.319 459.019 757.879 449.925 748.647 443.174C739.415 436.285 730.046 435.32 720.538 440.418C715.027 443.312 711.169 448.685 708.827 456.539C706.484 464.393 706.071 472.936 707.449 482.03Z" fill="#55142E" fill-opacity="0.3"/>
<path d="M658.595 452.957V516.34C658.595 522.264 660.937 526.949 663.555 529.154C667.965 532.599 673.063 532.874 674.165 532.874H621.668C623.321 532.874 636.962 532.323 636.962 516.34V452.957C636.962 446.895 634.62 442.21 632.002 440.143C630.762 439.041 629.384 438.214 627.593 437.663C624.286 436.423 623.184 436.423 621.668 436.423H674.165C672.098 436.423 670.169 436.698 665.898 438.49C661.626 440.281 658.595 445.379 658.595 452.957Z" fill="#55142E" fill-opacity="0.3"/>
<path d="M600.314 488.506V457.78C600.314 448.961 597.283 442.485 593.011 439.867C589.015 437.25 586.397 436.561 584.193 436.423H617.124C615.195 436.698 602.105 438.352 602.105 459.158V490.298C602.105 493.191 602.105 495.534 601.967 497.325C601.967 499.116 601.692 501.734 601.278 505.179C600.865 508.623 600.314 511.517 599.487 513.859C597.972 518.406 594.802 525.158 590.255 528.603C585.846 532.047 578.543 534.941 569.725 534.941C554.982 534.941 544.51 531.221 538.585 523.642C532.66 516.064 529.767 504.49 529.767 489.058V454.335C529.767 447.721 527.424 442.623 525.082 440.419C520.811 436.561 516.401 436.285 515.023 436.423H568.072C566.28 436.423 565.04 436.423 561.596 437.663C557.462 439.316 552.777 443.863 552.777 454.335V494.294C552.777 518.682 562.009 530.256 578.681 529.154C594.113 528.051 600.314 515.651 600.314 488.506Z" fill="#55142E" fill-opacity="0.3"/>
<path d="M478.137 507.659V450.339C478.137 444.139 475.656 439.73 472.212 438.214C468.767 436.698 467.114 436.423 465.322 436.423H512.859C511.068 436.423 509.414 436.698 505.97 438.214C502.525 439.73 500.045 444.139 500.045 450.339V508.486C500.045 516.891 496.462 523.505 492.053 526.949C489.848 528.603 487.23 529.981 484.061 530.945C477.999 533.012 473.727 533.15 468.354 533.15C463.531 533.15 458.295 532.047 451.544 529.292C444.93 526.398 439.969 519.509 439.832 510.277C439.694 504.628 443.69 498.565 450.166 498.565C458.571 498.565 462.291 506.006 459.673 514.411C456.917 524.331 461.602 531.496 469.318 531.496C473.865 532.185 476.07 528.189 477.034 525.02C477.448 524.056 477.585 522.264 477.723 519.922C477.861 517.58 477.999 515.651 477.999 514.411C478.137 513.17 478.137 510.828 478.137 507.659Z" fill="#55142E" fill-opacity="0.3"/>
<path d="M409.239 581.423H439.828C431.699 583.214 424.947 589.001 419.436 598.508L404.417 625.79C402.626 629.235 401.661 634.195 401.661 640.947V662.58C401.661 668.78 404.279 673.603 407.724 675.394C411.444 677.185 413.373 677.736 415.44 677.874H366.25C368.041 677.874 370.383 677.323 373.69 675.532C377.135 673.74 379.753 669.193 379.753 663.131L379.891 644.805C379.891 638.054 378.513 632.404 375.895 628.133L356.742 596.717C350.128 586.108 341.861 581.423 337.59 581.423L386.642 581.561C378.788 581.698 374.655 589.001 378.926 596.855L394.634 623.724C397.803 629.373 400.972 629.097 404.279 622.897L417.644 598.922C422.743 589.69 419.711 582.663 409.239 581.423Z" fill="#55142E" fill-opacity="0.3"/>
<path d="M267.621 627.03C269.274 638.88 273.821 648.387 281.261 655.552C288.702 662.579 297.52 666.299 307.717 666.437C325.078 666.851 332.243 656.517 334.723 652.245L335.412 650.592C335.274 651.832 334.999 653.347 332.243 658.997C331.003 661.752 329.349 664.37 327.42 666.713C323.7 671.26 316.122 676.633 307.303 678.7C290.355 682.421 274.234 677.874 263.762 668.642C253.428 659.41 246.815 646.182 246.401 632.404C246.126 621.932 248.192 612.838 252.739 604.984C261.971 589.138 276.852 581.422 294.351 580.182C302.205 579.631 310.059 580.32 317.913 582.387C323.424 583.902 328.385 586.107 330.038 587.209L331.416 588.174L331.141 615.318C325.491 604.019 318.051 594.925 308.819 588.174C299.587 581.285 290.218 580.32 280.71 585.418C275.199 588.312 271.341 593.685 268.998 601.539C266.656 609.393 266.243 617.936 267.621 627.03Z" fill="#55142E" fill-opacity="0.3"/>
<path d="M218.767 597.957V661.34C218.767 667.264 221.109 671.949 223.727 674.154C228.136 677.599 233.235 677.874 234.337 677.874H181.84C183.493 677.874 197.134 677.323 197.134 661.34V597.957C197.134 591.895 194.792 587.21 192.174 585.143C190.934 584.041 189.556 583.214 187.765 582.663C184.458 581.423 183.356 581.423 181.84 581.423H234.337C232.27 581.423 230.341 581.698 226.07 583.49C221.798 585.281 218.767 590.379 218.767 597.957Z" fill="#55142E" fill-opacity="0.3"/>
<path d="M160.486 633.506V602.78C160.486 593.961 157.454 587.485 153.183 584.867C149.187 582.25 146.569 581.561 144.365 581.423H177.296C175.367 581.698 162.277 583.352 162.277 604.158V635.298C162.277 638.191 162.277 640.534 162.139 642.325C162.139 644.116 161.864 646.734 161.45 650.179C161.037 653.623 160.486 656.517 159.659 658.859C158.143 663.406 154.974 670.158 150.427 673.603C146.018 677.047 138.715 679.941 129.897 679.941C115.154 679.941 104.682 676.221 98.757 668.642C92.8321 661.064 89.9386 649.49 89.9386 634.058V599.335C89.9386 592.721 87.5962 587.623 85.2538 585.419C80.9824 581.561 76.5732 581.285 75.1953 581.423H128.244C126.452 581.423 125.212 581.423 121.767 582.663C117.634 584.316 112.949 588.863 112.949 599.335V639.294C112.949 663.682 122.181 675.256 138.853 674.154C154.285 673.051 160.486 660.651 160.486 633.506Z" fill="#55142E" fill-opacity="0.3"/>
<path d="M38.3084 652.659V595.339C38.3084 589.139 35.8282 584.73 32.3835 583.214C28.9388 581.698 27.2854 581.423 25.4941 581.423H73.0308C71.2396 581.423 69.5861 581.698 66.1415 583.214C62.6968 584.73 60.2166 589.139 60.2166 595.339V653.486C60.2166 661.891 56.6341 668.505 52.2249 671.949C50.0203 673.603 47.4024 674.981 44.2332 675.945C38.1706 678.012 33.8992 678.15 28.5255 678.15C23.7029 678.15 18.467 677.047 11.7154 674.292C5.10159 671.398 0.14124 664.509 0.00345238 655.277C-0.134335 649.628 3.8615 643.565 10.3375 643.565C18.7426 643.565 22.4628 651.006 19.8449 659.411C17.0891 669.331 21.7739 676.496 29.49 676.496C34.037 677.185 36.2416 673.189 37.2061 670.02C37.6194 669.056 37.7572 667.264 37.895 664.922C38.0328 662.58 38.1706 660.651 38.1706 659.411C38.3084 658.17 38.3084 655.828 38.3084 652.659Z" fill="#55142E" fill-opacity="0.3"/>
<path d="M849.067 726.423H879.656C871.527 728.214 864.775 734.001 859.264 743.508L844.245 770.79C842.454 774.235 841.489 779.195 841.489 785.947V807.58C841.489 813.78 844.107 818.603 847.552 820.394C851.272 822.185 853.201 822.736 855.268 822.874H806.078C807.869 822.874 810.211 822.323 813.518 820.532C816.963 818.74 819.581 814.193 819.581 808.131L819.719 789.805C819.719 783.054 818.341 777.404 815.723 773.133L796.57 741.717C789.957 731.108 781.689 726.423 777.418 726.423L826.47 726.561C818.616 726.698 814.483 734.001 818.754 741.855L834.462 768.724C837.631 774.373 840.8 774.097 844.107 767.897L857.473 743.922C862.571 734.69 859.539 727.663 849.067 726.423Z" fill="#55142E" fill-opacity="0.3"/>
<path d="M707.449 772.03C709.102 783.88 713.649 793.387 721.09 800.552C728.53 807.579 737.349 811.299 747.545 811.437C764.906 811.851 772.071 801.517 774.551 797.245L775.24 795.592C775.102 796.832 774.827 798.347 772.071 803.997C770.831 806.752 769.177 809.37 767.248 811.713C763.528 816.26 755.95 821.633 747.131 823.7C730.184 827.421 714.062 822.874 703.591 813.642C693.257 804.41 686.643 791.182 686.229 777.404C685.954 766.932 688.021 757.838 692.568 749.984C701.799 734.138 716.68 726.422 734.179 725.182C742.033 724.631 749.887 725.32 757.741 727.387C763.253 728.902 768.213 731.107 769.866 732.209L771.244 733.174L770.969 760.318C765.319 749.019 757.879 739.925 748.647 733.174C739.415 726.285 730.046 725.32 720.538 730.418C715.027 733.312 711.169 738.685 708.827 746.539C706.484 754.393 706.071 762.936 707.449 772.03Z" fill="#55142E" fill-opacity="0.3"/>
<path d="M658.595 742.957V806.34C658.595 812.264 660.937 816.949 663.555 819.154C667.965 822.599 673.063 822.874 674.165 822.874H621.668C623.321 822.874 636.962 822.323 636.962 806.34V742.957C636.962 736.895 634.62 732.21 632.002 730.143C630.762 729.041 629.384 728.214 627.593 727.663C624.286 726.423 623.184 726.423 621.668 726.423H674.165C672.098 726.423 670.169 726.698 665.898 728.49C661.626 730.281 658.595 735.379 658.595 742.957Z" fill="#55142E" fill-opacity="0.3"/>
<path d="M600.314 778.506V747.78C600.314 738.961 597.283 732.485 593.011 729.867C589.015 727.25 586.397 726.561 584.193 726.423H617.124C615.195 726.698 602.105 728.352 602.105 749.158V780.298C602.105 783.191 602.105 785.534 601.967 787.325C601.967 789.116 601.692 791.734 601.278 795.179C600.865 798.623 600.314 801.517 599.487 803.859C597.972 808.406 594.802 815.158 590.255 818.603C585.846 822.047 578.543 824.941 569.725 824.941C554.982 824.941 544.51 821.221 538.585 813.642C532.66 806.064 529.767 794.49 529.767 779.058V744.335C529.767 737.721 527.424 732.623 525.082 730.419C520.811 726.561 516.401 726.285 515.023 726.423H568.072C566.28 726.423 565.04 726.423 561.596 727.663C557.462 729.316 552.777 733.863 552.777 744.335V784.294C552.777 808.682 562.009 820.256 578.681 819.154C594.113 818.051 600.314 805.651 600.314 778.506Z" fill="#55142E" fill-opacity="0.3"/>
<path d="M478.137 797.659V740.339C478.137 734.139 475.656 729.73 472.212 728.214C468.767 726.698 467.114 726.423 465.322 726.423H512.859C511.068 726.423 509.414 726.698 505.97 728.214C502.525 729.73 500.045 734.139 500.045 740.339V798.486C500.045 806.891 496.462 813.505 492.053 816.949C489.848 818.603 487.23 819.981 484.061 820.945C477.999 823.012 473.727 823.15 468.354 823.15C463.531 823.15 458.295 822.047 451.544 819.292C444.93 816.398 439.969 809.509 439.832 800.277C439.694 794.628 443.69 788.565 450.166 788.565C458.571 788.565 462.291 796.006 459.673 804.411C456.917 814.331 461.602 821.496 469.318 821.496C473.865 822.185 476.07 818.189 477.034 815.02C477.448 814.056 477.585 812.264 477.723 809.922C477.861 807.58 477.999 805.651 477.999 804.411C478.137 803.17 478.137 800.828 478.137 797.659Z" fill="#55142E" fill-opacity="0.3"/>
<path d="M409.239 871.423H439.828C431.699 873.214 424.947 879.001 419.436 888.508L404.417 915.79C402.626 919.235 401.661 924.195 401.661 930.947V952.58C401.661 958.78 404.279 963.603 407.724 965.394C411.444 967.185 413.373 967.736 415.44 967.874H366.25C368.041 967.874 370.383 967.323 373.69 965.532C377.135 963.74 379.753 959.193 379.753 953.131L379.891 934.805C379.891 928.054 378.513 922.404 375.895 918.133L356.742 886.717C350.128 876.108 341.861 871.423 337.59 871.423L386.642 871.561C378.788 871.698 374.655 879.001 378.926 886.855L394.634 913.724C397.803 919.373 400.972 919.097 404.279 912.897L417.644 888.922C422.743 879.69 419.711 872.663 409.239 871.423Z" fill="#55142E" fill-opacity="0.3"/>
<path d="M267.621 917.03C269.274 928.88 273.821 938.387 281.261 945.552C288.702 952.579 297.52 956.299 307.717 956.437C325.078 956.851 332.243 946.517 334.723 942.245L335.412 940.592C335.274 941.832 334.999 943.347 332.243 948.997C331.003 951.752 329.349 954.37 327.42 956.713C323.7 961.26 316.122 966.633 307.303 968.7C290.355 972.421 274.234 967.874 263.762 958.642C253.428 949.41 246.815 936.182 246.401 922.404C246.126 911.932 248.192 902.838 252.739 894.984C261.971 879.138 276.852 871.422 294.351 870.182C302.205 869.631 310.059 870.32 317.913 872.387C323.424 873.902 328.385 876.107 330.038 877.209L331.416 878.174L331.141 905.318C325.491 894.019 318.051 884.925 308.819 878.174C299.587 871.285 290.218 870.32 280.71 875.418C275.199 878.312 271.341 883.685 268.998 891.539C266.656 899.393 266.243 907.936 267.621 917.03Z" fill="#55142E" fill-opacity="0.3"/>
<path d="M218.767 887.957V951.34C218.767 957.264 221.109 961.949 223.727 964.154C228.136 967.599 233.235 967.874 234.337 967.874H181.84C183.493 967.874 197.134 967.323 197.134 951.34V887.957C197.134 881.895 194.792 877.21 192.174 875.143C190.934 874.041 189.556 873.214 187.765 872.663C184.458 871.423 183.356 871.423 181.84 871.423H234.337C232.27 871.423 230.341 871.698 226.07 873.49C221.798 875.281 218.767 880.379 218.767 887.957Z" fill="#55142E" fill-opacity="0.3"/>
<path d="M160.486 923.506V892.78C160.486 883.961 157.454 877.485 153.183 874.867C149.187 872.25 146.569 871.561 144.365 871.423H177.296C175.367 871.698 162.277 873.352 162.277 894.158V925.298C162.277 928.191 162.277 930.534 162.139 932.325C162.139 934.116 161.864 936.734 161.45 940.179C161.037 943.623 160.486 946.517 159.659 948.859C158.143 953.406 154.974 960.158 150.427 963.603C146.018 967.047 138.715 969.941 129.897 969.941C115.154 969.941 104.682 966.221 98.757 958.642C92.8321 951.064 89.9386 939.49 89.9386 924.058V889.335C89.9386 882.721 87.5962 877.623 85.2538 875.419C80.9824 871.561 76.5732 871.285 75.1953 871.423H128.244C126.452 871.423 125.212 871.423 121.767 872.663C117.634 874.316 112.949 878.863 112.949 889.335V929.294C112.949 953.682 122.181 965.256 138.853 964.154C154.285 963.051 160.486 950.651 160.486 923.506Z" fill="#55142E" fill-opacity="0.3"/>
<path d="M38.3084 942.659V885.339C38.3084 879.139 35.8282 874.73 32.3835 873.214C28.9388 871.698 27.2854 871.423 25.4941 871.423H73.0308C71.2396 871.423 69.5861 871.698 66.1415 873.214C62.6968 874.73 60.2166 879.139 60.2166 885.339V943.486C60.2166 951.891 56.6341 958.505 52.2249 961.949C50.0203 963.603 47.4024 964.981 44.2332 965.945C38.1706 968.012 33.8992 968.15 28.5255 968.15C23.7029 968.15 18.467 967.047 11.7154 964.292C5.10159 961.398 0.14124 954.509 0.00345238 945.277C-0.134335 939.628 3.8615 933.565 10.3375 933.565C18.7426 933.565 22.4628 941.006 19.8449 949.411C17.0891 959.331 21.7739 966.496 29.49 966.496C34.037 967.185 36.2416 963.189 37.2061 960.02C37.6194 959.056 37.7572 957.264 37.895 954.922C38.0328 952.58 38.1706 950.651 38.1706 949.411C38.3084 948.17 38.3084 945.828 38.3084 942.659Z" fill="#55142E" fill-opacity="0.3"/>
<path d="M849.239 1.42285H879.828C871.699 3.21409 864.947 9.00116 859.436 18.5085L844.417 45.7904C842.626 49.2351 841.661 54.1955 841.661 60.9471V82.5797C841.661 88.7801 844.279 93.6027 847.724 95.3939C851.444 97.1852 853.373 97.7363 855.44 97.8741H806.25C808.041 97.8741 810.383 97.3229 813.69 95.5317C817.135 93.7405 819.753 89.1935 819.753 83.1308L819.891 64.8051C819.891 58.0535 818.513 52.4042 815.895 48.1328L796.742 16.7173C790.128 6.10763 781.861 1.42285 777.59 1.42285L826.642 1.56064C818.788 1.69843 814.655 9.00117 818.926 16.8551L834.634 43.7236C837.803 49.3729 840.972 49.0973 844.279 42.8969L857.644 18.9219C862.743 9.6901 859.711 2.66294 849.239 1.42285Z" fill="#A12256" fill-opacity="0.2"/>
<path d="M707.621 47.03C709.274 58.8797 713.821 68.387 721.261 75.552C728.702 82.5792 737.52 86.2994 747.717 86.4372C765.078 86.8506 772.243 76.5165 774.723 72.2451L775.412 70.5916C775.274 71.8317 774.999 73.3474 772.243 78.9967C771.003 81.7524 769.349 84.3704 767.42 86.7128C763.7 91.2598 756.122 96.6335 747.303 98.7003C730.355 102.421 714.234 97.8736 703.762 88.6418C693.428 79.4101 686.815 66.1825 686.401 52.4037C686.126 41.9319 688.192 32.8379 692.739 24.984C701.971 9.13842 716.852 1.42232 734.351 0.182232C742.205 -0.36892 750.059 0.320025 757.913 2.38684C763.424 3.9025 768.385 6.1071 770.038 7.20939L771.416 8.17391L771.141 35.318C765.491 24.0195 758.051 14.9255 748.819 8.17391C739.587 1.28453 730.218 0.320025 720.71 5.41816C715.199 8.3117 711.341 13.6854 708.998 21.5393C706.656 29.3932 706.243 37.936 707.621 47.03Z" fill="#A12256" fill-opacity="0.2"/>
<path d="M658.767 17.9574V81.3396C658.767 87.2645 661.109 91.9492 663.727 94.1538C668.136 97.5985 673.235 97.8741 674.337 97.8741H621.84C623.493 97.8741 637.134 97.3229 637.134 81.3396V17.9574C637.134 11.8947 634.792 7.20993 632.174 5.14312C630.934 4.04082 629.556 3.21409 627.765 2.66294C624.458 1.42285 623.356 1.42285 621.84 1.42285H674.337C672.27 1.42285 670.341 1.69843 666.07 3.48966C661.798 5.2809 658.767 10.379 658.767 17.9574Z" fill="#A12256" fill-opacity="0.2"/>
<path d="M600.486 53.5065V22.7799C600.486 13.9615 597.454 7.48545 593.183 4.86749C589.187 2.24953 586.569 1.56059 584.365 1.4228H617.296C615.367 1.69838 602.277 3.35183 602.277 24.1577V55.2977C602.277 58.1913 602.277 60.5336 602.139 62.3249C602.139 64.1161 601.864 66.7341 601.45 70.1788C601.037 73.6235 600.486 76.517 599.659 78.8594C598.143 83.4064 594.974 90.158 590.427 93.6026C586.018 97.0473 578.715 99.9409 569.897 99.9409C555.154 99.9409 544.682 96.2206 538.757 88.6423C532.832 81.064 529.939 69.4898 529.939 54.0576V19.3352C529.939 12.7214 527.596 7.62324 525.254 5.41864C520.982 1.56059 516.573 1.28502 515.195 1.4228H568.244C566.452 1.4228 565.212 1.4228 561.767 2.66289C557.634 4.31634 552.949 8.86333 552.949 19.3352V59.2936C552.949 83.6819 562.181 95.2561 578.853 94.1538C594.285 93.0515 600.486 80.6506 600.486 53.5065Z" fill="#A12256" fill-opacity="0.2"/>
<path d="M478.308 72.659V15.3394C478.308 9.13895 475.828 4.72975 472.384 3.21409C468.939 1.69843 467.285 1.42285 465.494 1.42285H513.031C511.24 1.42285 509.586 1.69843 506.141 3.21409C502.697 4.72975 500.217 9.13895 500.217 15.3394V73.4857C500.217 81.8908 496.634 88.5046 492.225 91.9492C490.02 93.6027 487.402 94.9806 484.233 95.9451C478.171 98.0119 473.899 98.1497 468.525 98.1497C463.703 98.1497 458.467 97.0474 451.715 94.2916C445.102 91.3981 440.141 84.5087 440.003 75.277C439.866 69.6277 443.862 63.565 450.338 63.565C458.743 63.565 462.463 71.0055 459.845 79.4106C457.089 89.3313 461.774 96.4962 469.49 96.4962C474.037 97.1852 476.242 93.1893 477.206 90.0202C477.619 89.0557 477.757 87.2645 477.895 84.9221C478.033 82.5797 478.171 80.6507 478.171 79.4106C478.308 78.1705 478.308 75.8281 478.308 72.659Z" fill="#A12256" fill-opacity="0.2"/>
<path d="M409.239 146.423H439.828C431.699 148.214 424.947 154.001 419.436 163.508L404.417 190.79C402.626 194.235 401.661 199.195 401.661 205.947V227.58C401.661 233.78 404.279 238.603 407.724 240.394C411.444 242.185 413.373 242.736 415.44 242.874H366.25C368.041 242.874 370.383 242.323 373.69 240.532C377.135 238.74 379.753 234.193 379.753 228.131L379.891 209.805C379.891 203.054 378.513 197.404 375.895 193.133L356.742 161.717C350.128 151.108 341.861 146.423 337.59 146.423L386.642 146.561C378.788 146.698 374.655 154.001 378.926 161.855L394.634 188.724C397.803 194.373 400.972 194.097 404.279 187.897L417.644 163.922C422.743 154.69 419.711 147.663 409.239 146.423Z" fill="#A12256" fill-opacity="0.2"/>
<path d="M267.621 192.03C269.274 203.88 273.821 213.387 281.261 220.552C288.702 227.579 297.52 231.299 307.717 231.437C325.078 231.851 332.243 221.517 334.723 217.245L335.412 215.592C335.274 216.832 334.999 218.347 332.243 223.997C331.003 226.752 329.349 229.37 327.42 231.713C323.7 236.26 316.122 241.633 307.303 243.7C290.355 247.421 274.234 242.874 263.762 233.642C253.428 224.41 246.815 211.182 246.401 197.404C246.126 186.932 248.192 177.838 252.739 169.984C261.971 154.138 276.852 146.422 294.351 145.182C302.205 144.631 310.059 145.32 317.913 147.387C323.424 148.902 328.385 151.107 330.038 152.209L331.416 153.174L331.141 180.318C325.491 169.019 318.051 159.925 308.819 153.174C299.587 146.285 290.218 145.32 280.71 150.418C275.199 153.312 271.341 158.685 268.998 166.539C266.656 174.393 266.243 182.936 267.621 192.03Z" fill="#A12256" fill-opacity="0.2"/>
<path d="M218.767 162.957V226.34C218.767 232.264 221.109 236.949 223.727 239.154C228.136 242.599 233.235 242.874 234.337 242.874H181.84C183.493 242.874 197.134 242.323 197.134 226.34V162.957C197.134 156.895 194.792 152.21 192.174 150.143C190.934 149.041 189.556 148.214 187.765 147.663C184.458 146.423 183.356 146.423 181.84 146.423H234.337C232.27 146.423 230.341 146.698 226.07 148.49C221.798 150.281 218.767 155.379 218.767 162.957Z" fill="#A12256" fill-opacity="0.2"/>
<path d="M160.486 198.506V167.78C160.486 158.961 157.454 152.485 153.183 149.867C149.187 147.25 146.569 146.561 144.365 146.423H177.296C175.367 146.698 162.277 148.352 162.277 169.158V200.298C162.277 203.191 162.277 205.534 162.139 207.325C162.139 209.116 161.864 211.734 161.45 215.179C161.037 218.623 160.486 221.517 159.659 223.859C158.143 228.406 154.974 235.158 150.427 238.603C146.018 242.047 138.715 244.941 129.897 244.941C115.154 244.941 104.682 241.221 98.757 233.642C92.8321 226.064 89.9386 214.49 89.9386 199.058V164.335C89.9386 157.721 87.5962 152.623 85.2538 150.419C80.9824 146.561 76.5732 146.285 75.1953 146.423H128.244C126.452 146.423 125.212 146.423 121.767 147.663C117.634 149.316 112.949 153.863 112.949 164.335V204.294C112.949 228.682 122.181 240.256 138.853 239.154C154.285 238.051 160.486 225.651 160.486 198.506Z" fill="#A12256" fill-opacity="0.2"/>
<path d="M38.3084 217.659V160.339C38.3084 154.139 35.8282 149.73 32.3835 148.214C28.9388 146.698 27.2854 146.423 25.4941 146.423H73.0308C71.2396 146.423 69.5861 146.698 66.1415 148.214C62.6968 149.73 60.2166 154.139 60.2166 160.339V218.486C60.2166 226.891 56.6341 233.505 52.2249 236.949C50.0203 238.603 47.4024 239.981 44.2332 240.945C38.1706 243.012 33.8992 243.15 28.5255 243.15C23.7029 243.15 18.467 242.047 11.7154 239.292C5.10159 236.398 0.14124 229.509 0.00345238 220.277C-0.134335 214.628 3.8615 208.565 10.3375 208.565C18.7426 208.565 22.4628 216.006 19.8449 224.411C17.0891 234.331 21.7739 241.496 29.49 241.496C34.037 242.185 36.2416 238.189 37.2061 235.02C37.6194 234.056 37.7572 232.264 37.895 229.922C38.0328 227.58 38.1706 225.651 38.1706 224.411C38.3084 223.17 38.3084 220.828 38.3084 217.659Z" fill="#A12256" fill-opacity="0.2"/>
<path d="M849.239 291.423H879.828C871.699 293.214 864.947 299.001 859.436 308.508L844.417 335.79C842.626 339.235 841.661 344.195 841.661 350.947V372.58C841.661 378.78 844.279 383.603 847.724 385.394C851.444 387.185 853.373 387.736 855.44 387.874H806.25C808.041 387.874 810.383 387.323 813.69 385.532C817.135 383.74 819.753 379.193 819.753 373.131L819.891 354.805C819.891 348.054 818.513 342.404 815.895 338.133L796.742 306.717C790.128 296.108 781.861 291.423 777.59 291.423L826.642 291.561C818.788 291.698 814.655 299.001 818.926 306.855L834.634 333.724C837.803 339.373 840.972 339.097 844.279 332.897L857.644 308.922C862.743 299.69 859.711 292.663 849.239 291.423Z" fill="#A12256" fill-opacity="0.2"/>
<path d="M707.621 337.03C709.274 348.88 713.821 358.387 721.261 365.552C728.702 372.579 737.52 376.299 747.717 376.437C765.078 376.851 772.243 366.517 774.723 362.245L775.412 360.592C775.274 361.832 774.999 363.347 772.243 368.997C771.003 371.752 769.349 374.37 767.42 376.713C763.7 381.26 756.122 386.633 747.303 388.7C730.355 392.421 714.234 387.874 703.762 378.642C693.428 369.41 686.815 356.182 686.401 342.404C686.126 331.932 688.192 322.838 692.739 314.984C701.971 299.138 716.852 291.422 734.351 290.182C742.205 289.631 750.059 290.32 757.913 292.387C763.424 293.902 768.385 296.107 770.038 297.209L771.416 298.174L771.141 325.318C765.491 314.019 758.051 304.925 748.819 298.174C739.587 291.285 730.218 290.32 720.71 295.418C715.199 298.312 711.341 303.685 708.998 311.539C706.656 319.393 706.243 327.936 707.621 337.03Z" fill="#A12256" fill-opacity="0.2"/>
<path d="M658.767 307.957V371.34C658.767 377.264 661.109 381.949 663.727 384.154C668.136 387.599 673.235 387.874 674.337 387.874H621.84C623.493 387.874 637.134 387.323 637.134 371.34V307.957C637.134 301.895 634.792 297.21 632.174 295.143C630.934 294.041 629.556 293.214 627.765 292.663C624.458 291.423 623.356 291.423 621.84 291.423H674.337C672.27 291.423 670.341 291.698 666.07 293.49C661.798 295.281 658.767 300.379 658.767 307.957Z" fill="#A12256" fill-opacity="0.2"/>
<path d="M600.486 343.506V312.78C600.486 303.961 597.454 297.485 593.183 294.867C589.187 292.25 586.569 291.561 584.365 291.423H617.296C615.367 291.698 602.277 293.352 602.277 314.158V345.298C602.277 348.191 602.277 350.534 602.139 352.325C602.139 354.116 601.864 356.734 601.45 360.179C601.037 363.623 600.486 366.517 599.659 368.859C598.143 373.406 594.974 380.158 590.427 383.603C586.018 387.047 578.715 389.941 569.897 389.941C555.154 389.941 544.682 386.221 538.757 378.642C532.832 371.064 529.939 359.49 529.939 344.058V309.335C529.939 302.721 527.596 297.623 525.254 295.419C520.982 291.561 516.573 291.285 515.195 291.423H568.244C566.452 291.423 565.212 291.423 561.767 292.663C557.634 294.316 552.949 298.863 552.949 309.335V349.294C552.949 373.682 562.181 385.256 578.853 384.154C594.285 383.051 600.486 370.651 600.486 343.506Z" fill="#A12256" fill-opacity="0.2"/>
<path d="M478.308 362.659V305.339C478.308 299.139 475.828 294.73 472.384 293.214C468.939 291.698 467.285 291.423 465.494 291.423H513.031C511.24 291.423 509.586 291.698 506.141 293.214C502.697 294.73 500.217 299.139 500.217 305.339V363.486C500.217 371.891 496.634 378.505 492.225 381.949C490.02 383.603 487.402 384.981 484.233 385.945C478.171 388.012 473.899 388.15 468.525 388.15C463.703 388.15 458.467 387.047 451.715 384.292C445.102 381.398 440.141 374.509 440.003 365.277C439.866 359.628 443.862 353.565 450.338 353.565C458.743 353.565 462.463 361.006 459.845 369.411C457.089 379.331 461.774 386.496 469.49 386.496C474.037 387.185 476.242 383.189 477.206 380.02C477.619 379.056 477.757 377.264 477.895 374.922C478.033 372.58 478.171 370.651 478.171 369.411C478.308 368.17 478.308 365.828 478.308 362.659Z" fill="#A12256" fill-opacity="0.2"/>
<path d="M409.239 436.423H439.828C431.699 438.214 424.947 444.001 419.436 453.508L404.417 480.79C402.626 484.235 401.661 489.195 401.661 495.947V517.58C401.661 523.78 404.279 528.603 407.724 530.394C411.444 532.185 413.373 532.736 415.44 532.874H366.25C368.041 532.874 370.383 532.323 373.69 530.532C377.135 528.74 379.753 524.193 379.753 518.131L379.891 499.805C379.891 493.054 378.513 487.404 375.895 483.133L356.742 451.717C350.128 441.108 341.861 436.423 337.59 436.423L386.642 436.561C378.788 436.698 374.655 444.001 378.926 451.855L394.634 478.724C397.803 484.373 400.972 484.097 404.279 477.897L417.644 453.922C422.743 444.69 419.711 437.663 409.239 436.423Z" fill="#A12256" fill-opacity="0.2"/>
<path d="M267.621 482.03C269.274 493.88 273.821 503.387 281.261 510.552C288.702 517.579 297.52 521.299 307.717 521.437C325.078 521.851 332.243 511.517 334.723 507.245L335.412 505.592C335.274 506.832 334.999 508.347 332.243 513.997C331.003 516.752 329.349 519.37 327.42 521.713C323.7 526.26 316.122 531.633 307.303 533.7C290.355 537.421 274.234 532.874 263.762 523.642C253.428 514.41 246.815 501.182 246.401 487.404C246.126 476.932 248.192 467.838 252.739 459.984C261.971 444.138 276.852 436.422 294.351 435.182C302.205 434.631 310.059 435.32 317.913 437.387C323.424 438.902 328.385 441.107 330.038 442.209L331.416 443.174L331.141 470.318C325.491 459.019 318.051 449.925 308.819 443.174C299.587 436.285 290.218 435.32 280.71 440.418C275.199 443.312 271.341 448.685 268.998 456.539C266.656 464.393 266.243 472.936 267.621 482.03Z" fill="#A12256" fill-opacity="0.2"/>
<path d="M218.767 452.957V516.34C218.767 522.264 221.109 526.949 223.727 529.154C228.136 532.599 233.235 532.874 234.337 532.874H181.84C183.493 532.874 197.134 532.323 197.134 516.34V452.957C197.134 446.895 194.792 442.21 192.174 440.143C190.934 439.041 189.556 438.214 187.765 437.663C184.458 436.423 183.356 436.423 181.84 436.423H234.337C232.27 436.423 230.341 436.698 226.07 438.49C221.798 440.281 218.767 445.379 218.767 452.957Z" fill="#A12256" fill-opacity="0.2"/>
<path d="M160.486 488.506V457.78C160.486 448.961 157.454 442.485 153.183 439.867C149.187 437.25 146.569 436.561 144.365 436.423H177.296C175.367 436.698 162.277 438.352 162.277 459.158V490.298C162.277 493.191 162.277 495.534 162.139 497.325C162.139 499.116 161.864 501.734 161.45 505.179C161.037 508.623 160.486 511.517 159.659 513.859C158.143 518.406 154.974 525.158 150.427 528.603C146.018 532.047 138.715 534.941 129.897 534.941C115.154 534.941 104.682 531.221 98.757 523.642C92.8321 516.064 89.9386 504.49 89.9386 489.058V454.335C89.9386 447.721 87.5962 442.623 85.2538 440.419C80.9824 436.561 76.5732 436.285 75.1953 436.423H128.244C126.452 436.423 125.212 436.423 121.767 437.663C117.634 439.316 112.949 443.863 112.949 454.335V494.294C112.949 518.682 122.181 530.256 138.853 529.154C154.285 528.051 160.486 515.651 160.486 488.506Z" fill="#A12256" fill-opacity="0.2"/>
<path d="M38.3084 507.659V450.339C38.3084 444.139 35.8282 439.73 32.3835 438.214C28.9388 436.698 27.2854 436.423 25.4941 436.423H73.0308C71.2396 436.423 69.5861 436.698 66.1415 438.214C62.6968 439.73 60.2166 444.139 60.2166 450.339V508.486C60.2166 516.891 56.6341 523.505 52.2249 526.949C50.0203 528.603 47.4024 529.981 44.2332 530.945C38.1706 533.012 33.8992 533.15 28.5255 533.15C23.7029 533.15 18.467 532.047 11.7154 529.292C5.10159 526.398 0.14124 519.509 0.00345238 510.277C-0.134335 504.628 3.8615 498.565 10.3375 498.565C18.7426 498.565 22.4628 506.006 19.8449 514.411C17.0891 524.331 21.7739 531.496 29.49 531.496C34.037 532.185 36.2416 528.189 37.2061 525.02C37.6194 524.056 37.7572 522.264 37.895 519.922C38.0328 517.58 38.1706 515.651 38.1706 514.411C38.3084 513.17 38.3084 510.828 38.3084 507.659Z" fill="#A12256" fill-opacity="0.2"/>
<path d="M849.239 581.423H879.828C871.699 583.214 864.947 589.001 859.436 598.508L844.417 625.79C842.626 629.235 841.661 634.195 841.661 640.947V662.58C841.661 668.78 844.279 673.603 847.724 675.394C851.444 677.185 853.373 677.736 855.44 677.874H806.25C808.041 677.874 810.383 677.323 813.69 675.532C817.135 673.74 819.753 669.193 819.753 663.131L819.891 644.805C819.891 638.054 818.513 632.404 815.895 628.133L796.742 596.717C790.128 586.108 781.861 581.423 777.59 581.423L826.642 581.561C818.788 581.698 814.655 589.001 818.926 596.855L834.634 623.724C837.803 629.373 840.972 629.097 844.279 622.897L857.644 598.922C862.743 589.69 859.711 582.663 849.239 581.423Z" fill="#A12256" fill-opacity="0.2"/>
<path d="M707.621 627.03C709.274 638.88 713.821 648.387 721.261 655.552C728.702 662.579 737.52 666.299 747.717 666.437C765.078 666.851 772.243 656.517 774.723 652.245L775.412 650.592C775.274 651.832 774.999 653.347 772.243 658.997C771.003 661.752 769.349 664.37 767.42 666.713C763.7 671.26 756.122 676.633 747.303 678.7C730.355 682.421 714.234 677.874 703.762 668.642C693.428 659.41 686.815 646.182 686.401 632.404C686.126 621.932 688.192 612.838 692.739 604.984C701.971 589.138 716.852 581.422 734.351 580.182C742.205 579.631 750.059 580.32 757.913 582.387C763.424 583.902 768.385 586.107 770.038 587.209L771.416 588.174L771.141 615.318C765.491 604.019 758.051 594.925 748.819 588.174C739.587 581.285 730.218 580.32 720.71 585.418C715.199 588.312 711.341 593.685 708.998 601.539C706.656 609.393 706.243 617.936 707.621 627.03Z" fill="#A12256" fill-opacity="0.2"/>
<path d="M658.767 597.957V661.34C658.767 667.264 661.109 671.949 663.727 674.154C668.136 677.599 673.235 677.874 674.337 677.874H621.84C623.493 677.874 637.134 677.323 637.134 661.34V597.957C637.134 591.895 634.792 587.21 632.174 585.143C630.934 584.041 629.556 583.214 627.765 582.663C624.458 581.423 623.356 581.423 621.84 581.423H674.337C672.27 581.423 670.341 581.698 666.07 583.49C661.798 585.281 658.767 590.379 658.767 597.957Z" fill="#A12256" fill-opacity="0.2"/>
<path d="M600.486 633.506V602.78C600.486 593.961 597.454 587.485 593.183 584.867C589.187 582.25 586.569 581.561 584.365 581.423H617.296C615.367 581.698 602.277 583.352 602.277 604.158V635.298C602.277 638.191 602.277 640.534 602.139 642.325C602.139 644.116 601.864 646.734 601.45 650.179C601.037 653.623 600.486 656.517 599.659 658.859C598.143 663.406 594.974 670.158 590.427 673.603C586.018 677.047 578.715 679.941 569.897 679.941C555.154 679.941 544.682 676.221 538.757 668.642C532.832 661.064 529.939 649.49 529.939 634.058V599.335C529.939 592.721 527.596 587.623 525.254 585.419C520.982 581.561 516.573 581.285 515.195 581.423H568.244C566.452 581.423 565.212 581.423 561.767 582.663C557.634 584.316 552.949 588.863 552.949 599.335V639.294C552.949 663.682 562.181 675.256 578.853 674.154C594.285 673.051 600.486 660.651 600.486 633.506Z" fill="#A12256" fill-opacity="0.2"/>
<path d="M478.308 652.659V595.339C478.308 589.139 475.828 584.73 472.384 583.214C468.939 581.698 467.285 581.423 465.494 581.423H513.031C511.24 581.423 509.586 581.698 506.141 583.214C502.697 584.73 500.217 589.139 500.217 595.339V653.486C500.217 661.891 496.634 668.505 492.225 671.949C490.02 673.603 487.402 674.981 484.233 675.945C478.171 678.012 473.899 678.15 468.525 678.15C463.703 678.15 458.467 677.047 451.715 674.292C445.102 671.398 440.141 664.509 440.003 655.277C439.866 649.628 443.862 643.565 450.338 643.565C458.743 643.565 462.463 651.006 459.845 659.411C457.089 669.331 461.774 676.496 469.49 676.496C474.037 677.185 476.242 673.189 477.206 670.02C477.619 669.056 477.757 667.264 477.895 664.922C478.033 662.58 478.171 660.651 478.171 659.411C478.308 658.17 478.308 655.828 478.308 652.659Z" fill="#A12256" fill-opacity="0.2"/>
<path d="M409.239 726.423H439.828C431.699 728.214 424.947 734.001 419.436 743.508L404.417 770.79C402.626 774.235 401.661 779.195 401.661 785.947V807.58C401.661 813.78 404.279 818.603 407.724 820.394C411.444 822.185 413.373 822.736 415.44 822.874H366.25C368.041 822.874 370.383 822.323 373.69 820.532C377.135 818.74 379.753 814.193 379.753 808.131L379.891 789.805C379.891 783.054 378.513 777.404 375.895 773.133L356.742 741.717C350.128 731.108 341.861 726.423 337.59 726.423L386.642 726.561C378.788 726.698 374.655 734.001 378.926 741.855L394.634 768.724C397.803 774.373 400.972 774.097 404.279 767.897L417.644 743.922C422.743 734.69 419.711 727.663 409.239 726.423Z" fill="#A12256" fill-opacity="0.2"/>
<path d="M267.621 772.03C269.274 783.88 273.821 793.387 281.261 800.552C288.702 807.579 297.52 811.299 307.717 811.437C325.078 811.851 332.243 801.517 334.723 797.245L335.412 795.592C335.274 796.832 334.999 798.347 332.243 803.997C331.003 806.752 329.349 809.37 327.42 811.713C323.7 816.26 316.122 821.633 307.303 823.7C290.355 827.421 274.234 822.874 263.762 813.642C253.428 804.41 246.815 791.182 246.401 777.404C246.126 766.932 248.192 757.838 252.739 749.984C261.971 734.138 276.852 726.422 294.351 725.182C302.205 724.631 310.059 725.32 317.913 727.387C323.424 728.902 328.385 731.107 330.038 732.209L331.416 733.174L331.141 760.318C325.491 749.019 318.051 739.925 308.819 733.174C299.587 726.285 290.218 725.32 280.71 730.418C275.199 733.312 271.341 738.685 268.998 746.539C266.656 754.393 266.243 762.936 267.621 772.03Z" fill="#A12256" fill-opacity="0.2"/>
<path d="M218.767 742.957V806.34C218.767 812.264 221.109 816.949 223.727 819.154C228.136 822.599 233.235 822.874 234.337 822.874H181.84C183.493 822.874 197.134 822.323 197.134 806.34V742.957C197.134 736.895 194.792 732.21 192.174 730.143C190.934 729.041 189.556 728.214 187.765 727.663C184.458 726.423 183.356 726.423 181.84 726.423H234.337C232.27 726.423 230.341 726.698 226.07 728.49C221.798 730.281 218.767 735.379 218.767 742.957Z" fill="#A12256" fill-opacity="0.2"/>
<path d="M160.486 778.506V747.78C160.486 738.961 157.454 732.485 153.183 729.867C149.187 727.25 146.569 726.561 144.365 726.423H177.296C175.367 726.698 162.277 728.352 162.277 749.158V780.298C162.277 783.191 162.277 785.534 162.139 787.325C162.139 789.116 161.864 791.734 161.45 795.179C161.037 798.623 160.486 801.517 159.659 803.859C158.143 808.406 154.974 815.158 150.427 818.603C146.018 822.047 138.715 824.941 129.897 824.941C115.154 824.941 104.682 821.221 98.757 813.642C92.8321 806.064 89.9386 794.49 89.9386 779.058V744.335C89.9386 737.721 87.5962 732.623 85.2538 730.419C80.9824 726.561 76.5732 726.285 75.1953 726.423H128.244C126.452 726.423 125.212 726.423 121.767 727.663C117.634 729.316 112.949 733.863 112.949 744.335V784.294C112.949 808.682 122.181 820.256 138.853 819.154C154.285 818.051 160.486 805.651 160.486 778.506Z" fill="#A12256" fill-opacity="0.2"/>
<path d="M38.3084 797.659V740.339C38.3084 734.139 35.8282 729.73 32.3835 728.214C28.9388 726.698 27.2854 726.423 25.4941 726.423H73.0308C71.2396 726.423 69.5861 726.698 66.1415 728.214C62.6968 729.73 60.2166 734.139 60.2166 740.339V798.486C60.2166 806.891 56.6341 813.505 52.2249 816.949C50.0203 818.603 47.4024 819.981 44.2332 820.945C38.1706 823.012 33.8992 823.15 28.5255 823.15C23.7029 823.15 18.467 822.047 11.7154 819.292C5.10159 816.398 0.14124 809.509 0.00345238 800.277C-0.134335 794.628 3.8615 788.565 10.3375 788.565C18.7426 788.565 22.4628 796.006 19.8449 804.411C17.0891 814.331 21.7739 821.496 29.49 821.496C34.037 822.185 36.2416 818.189 37.2061 815.02C37.6194 814.056 37.7572 812.264 37.895 809.922C38.0328 807.58 38.1706 805.651 38.1706 804.411C38.3084 803.17 38.3084 800.828 38.3084 797.659Z" fill="#A12256" fill-opacity="0.2"/>
<path d="M849.239 871.423H879.828C871.699 873.214 864.947 879.001 859.436 888.508L844.417 915.79C842.626 919.235 841.661 924.195 841.661 930.947V952.58C841.661 958.78 844.279 963.603 847.724 965.394C851.444 967.185 853.373 967.736 855.44 967.874H806.25C808.041 967.874 810.383 967.323 813.69 965.532C817.135 963.74 819.753 959.193 819.753 953.131L819.891 934.805C819.891 928.054 818.513 922.404 815.895 918.133L796.742 886.717C790.128 876.108 781.861 871.423 777.59 871.423L826.642 871.561C818.788 871.698 814.655 879.001 818.926 886.855L834.634 913.724C837.803 919.373 840.972 919.097 844.279 912.897L857.644 888.922C862.743 879.69 859.711 872.663 849.239 871.423Z" fill="#A12256" fill-opacity="0.2"/>
<path d="M707.621 917.03C709.274 928.88 713.821 938.387 721.261 945.552C728.702 952.579 737.52 956.299 747.717 956.437C765.078 956.851 772.243 946.517 774.723 942.245L775.412 940.592C775.274 941.832 774.999 943.347 772.243 948.997C771.003 951.752 769.349 954.37 767.42 956.713C763.7 961.26 756.122 966.633 747.303 968.7C730.355 972.421 714.234 967.874 703.762 958.642C693.428 949.41 686.815 936.182 686.401 922.404C686.126 911.932 688.192 902.838 692.739 894.984C701.971 879.138 716.852 871.422 734.351 870.182C742.205 869.631 750.059 870.32 757.913 872.387C763.424 873.902 768.385 876.107 770.038 877.209L771.416 878.174L771.141 905.318C765.491 894.019 758.051 884.925 748.819 878.174C739.587 871.285 730.218 870.32 720.71 875.418C715.199 878.312 711.341 883.685 708.998 891.539C706.656 899.393 706.243 907.936 707.621 917.03Z" fill="#A12256" fill-opacity="0.2"/>
<path d="M658.767 887.957V951.34C658.767 957.264 661.109 961.949 663.727 964.154C668.136 967.599 673.235 967.874 674.337 967.874H621.84C623.493 967.874 637.134 967.323 637.134 951.34V887.957C637.134 881.895 634.792 877.21 632.174 875.143C630.934 874.041 629.556 873.214 627.765 872.663C624.458 871.423 623.356 871.423 621.84 871.423H674.337C672.27 871.423 670.341 871.698 666.07 873.49C661.798 875.281 658.767 880.379 658.767 887.957Z" fill="#A12256" fill-opacity="0.2"/>
<path d="M600.486 923.506V892.78C600.486 883.961 597.454 877.485 593.183 874.867C589.187 872.25 586.569 871.561 584.365 871.423H617.296C615.367 871.698 602.277 873.352 602.277 894.158V925.298C602.277 928.191 602.277 930.534 602.139 932.325C602.139 934.116 601.864 936.734 601.45 940.179C601.037 943.623 600.486 946.517 599.659 948.859C598.143 953.406 594.974 960.158 590.427 963.603C586.018 967.047 578.715 969.941 569.897 969.941C555.154 969.941 544.682 966.221 538.757 958.642C532.832 951.064 529.939 939.49 529.939 924.058V889.335C529.939 882.721 527.596 877.623 525.254 875.419C520.982 871.561 516.573 871.285 515.195 871.423H568.244C566.452 871.423 565.212 871.423 561.767 872.663C557.634 874.316 552.949 878.863 552.949 889.335V929.294C552.949 953.682 562.181 965.256 578.853 964.154C594.285 963.051 600.486 950.651 600.486 923.506Z" fill="#A12256" fill-opacity="0.2"/>
<path d="M478.308 942.659V885.339C478.308 879.139 475.828 874.73 472.384 873.214C468.939 871.698 467.285 871.423 465.494 871.423H513.031C511.24 871.423 509.586 871.698 506.141 873.214C502.697 874.73 500.217 879.139 500.217 885.339V943.486C500.217 951.891 496.634 958.505 492.225 961.949C490.02 963.603 487.402 964.981 484.233 965.945C478.171 968.012 473.899 968.15 468.525 968.15C463.703 968.15 458.467 967.047 451.715 964.292C445.102 961.398 440.141 954.509 440.003 945.277C439.866 939.628 443.862 933.565 450.338 933.565C458.743 933.565 462.463 941.006 459.845 949.411C457.089 959.331 461.774 966.496 469.49 966.496C474.037 967.185 476.242 963.189 477.206 960.02C477.619 959.056 477.757 957.264 477.895 954.922C478.033 952.58 478.171 950.651 478.171 949.411C478.308 948.17 478.308 945.828 478.308 942.659Z" fill="#A12256" fill-opacity="0.2"/>
</svg>
