<svg width="440" height="1260" viewBox="0 0 440 1260" fill="none" xmlns="http://www.w3.org/2000/svg">
<path d="M409.239 146.423H439.828C431.699 148.214 424.947 154.001 419.436 163.508L404.417 190.79C402.626 194.235 401.661 199.195 401.661 205.947V227.58C401.661 233.78 404.279 238.603 407.724 240.394C411.444 242.185 413.373 242.736 415.44 242.874H366.25C368.041 242.874 370.383 242.323 373.69 240.532C377.135 238.74 379.753 234.193 379.753 228.131L379.891 209.805C379.891 203.054 378.513 197.404 375.895 193.133L356.742 161.717C350.128 151.108 341.861 146.423 337.59 146.423L386.642 146.561C378.788 146.698 374.655 154.001 378.926 161.855L394.634 188.724C397.803 194.373 400.972 194.097 404.279 187.897L417.644 163.922C422.743 154.69 419.711 147.663 409.239 146.423Z" fill="#55142E" fill-opacity="0.3"/>
<path d="M267.621 192.03C269.274 203.88 273.821 213.387 281.261 220.552C288.702 227.579 297.52 231.299 307.717 231.437C325.078 231.851 332.243 221.517 334.723 217.245L335.412 215.592C335.274 216.832 334.999 218.347 332.243 223.997C331.003 226.752 329.349 229.37 327.42 231.713C323.7 236.26 316.122 241.633 307.303 243.7C290.355 247.421 274.234 242.874 263.762 233.642C253.428 224.41 246.815 211.182 246.401 197.404C246.126 186.932 248.192 177.838 252.739 169.984C261.971 154.138 276.852 146.422 294.351 145.182C302.205 144.631 310.059 145.32 317.913 147.387C323.424 148.902 328.385 151.107 330.038 152.209L331.416 153.174L331.141 180.318C325.491 169.019 318.051 159.925 308.819 153.174C299.587 146.285 290.218 145.32 280.71 150.418C275.199 153.312 271.341 158.685 268.998 166.539C266.656 174.393 266.243 182.936 267.621 192.03Z" fill="#55142E" fill-opacity="0.3"/>
<path d="M218.767 162.957V226.34C218.767 232.264 221.109 236.949 223.727 239.154C228.136 242.599 233.235 242.874 234.337 242.874H181.84C183.493 242.874 197.134 242.323 197.134 226.34V162.957C197.134 156.895 194.792 152.21 192.174 150.143C190.934 149.041 189.556 148.214 187.765 147.663C184.458 146.423 183.356 146.423 181.84 146.423H234.337C232.27 146.423 230.341 146.698 226.07 148.49C221.798 150.281 218.767 155.379 218.767 162.957Z" fill="#55142E" fill-opacity="0.3"/>
<path d="M160.486 198.506V167.78C160.486 158.961 157.454 152.485 153.183 149.867C149.187 147.25 146.569 146.561 144.365 146.423H177.296C175.367 146.698 162.277 148.352 162.277 169.158V200.298C162.277 203.191 162.277 205.534 162.139 207.325C162.139 209.116 161.864 211.734 161.45 215.179C161.037 218.623 160.486 221.517 159.659 223.859C158.143 228.406 154.974 235.158 150.427 238.603C146.018 242.047 138.715 244.941 129.897 244.941C115.154 244.941 104.682 241.221 98.757 233.642C92.8321 226.064 89.9386 214.49 89.9386 199.058V164.335C89.9386 157.721 87.5962 152.623 85.2538 150.419C80.9824 146.561 76.5732 146.285 75.1953 146.423H128.244C126.452 146.423 125.212 146.423 121.767 147.663C117.634 149.316 112.949 153.863 112.949 164.335V204.294C112.949 228.682 122.181 240.256 138.853 239.154C154.285 238.051 160.486 225.651 160.486 198.506Z" fill="#55142E" fill-opacity="0.3"/>
<path d="M38.3084 217.659V160.339C38.3084 154.139 35.8282 149.73 32.3835 148.214C28.9388 146.698 27.2854 146.423 25.4941 146.423H73.0308C71.2396 146.423 69.5861 146.698 66.1415 148.214C62.6968 149.73 60.2166 154.139 60.2166 160.339V218.486C60.2166 226.891 56.6341 233.505 52.2249 236.949C50.0203 238.603 47.4024 239.981 44.2332 240.945C38.1706 243.012 33.8992 243.15 28.5255 243.15C23.7029 243.15 18.467 242.047 11.7154 239.292C5.10159 236.398 0.14124 229.509 0.00345238 220.277C-0.134335 214.628 3.8615 208.565 10.3375 208.565C18.7426 208.565 22.4628 216.006 19.8449 224.411C17.0891 234.331 21.7739 241.496 29.49 241.496C34.037 242.185 36.2416 238.189 37.2061 235.02C37.6194 234.056 37.7572 232.264 37.895 229.922C38.0328 227.58 38.1706 225.651 38.1706 224.411C38.3084 223.17 38.3084 220.828 38.3084 217.659Z" fill="#55142E" fill-opacity="0.3"/>
<path d="M409.239 436.423H439.828C431.699 438.214 424.947 444.001 419.436 453.508L404.417 480.79C402.626 484.235 401.661 489.195 401.661 495.947V517.58C401.661 523.78 404.279 528.603 407.724 530.394C411.444 532.185 413.373 532.736 415.44 532.874H366.25C368.041 532.874 370.383 532.323 373.69 530.532C377.135 528.74 379.753 524.193 379.753 518.131L379.891 499.805C379.891 493.054 378.513 487.404 375.895 483.133L356.742 451.717C350.128 441.108 341.861 436.423 337.59 436.423L386.642 436.561C378.788 436.698 374.655 444.001 378.926 451.855L394.634 478.724C397.803 484.373 400.972 484.097 404.279 477.897L417.644 453.922C422.743 444.69 419.711 437.663 409.239 436.423Z" fill="#55142E" fill-opacity="0.3"/>
<path d="M267.621 482.03C269.274 493.88 273.821 503.387 281.261 510.552C288.702 517.579 297.52 521.299 307.717 521.437C325.078 521.851 332.243 511.517 334.723 507.245L335.412 505.592C335.274 506.832 334.999 508.347 332.243 513.997C331.003 516.752 329.349 519.37 327.42 521.713C323.7 526.26 316.122 531.633 307.303 533.7C290.355 537.421 274.234 532.874 263.762 523.642C253.428 514.41 246.815 501.182 246.401 487.404C246.126 476.932 248.192 467.838 252.739 459.984C261.971 444.138 276.852 436.422 294.351 435.182C302.205 434.631 310.059 435.32 317.913 437.387C323.424 438.902 328.385 441.107 330.038 442.209L331.416 443.174L331.141 470.318C325.491 459.019 318.051 449.925 308.819 443.174C299.587 436.285 290.218 435.32 280.71 440.418C275.199 443.312 271.341 448.685 268.998 456.539C266.656 464.393 266.243 472.936 267.621 482.03Z" fill="#55142E" fill-opacity="0.3"/>
<path d="M218.767 452.957V516.34C218.767 522.264 221.109 526.949 223.727 529.154C228.136 532.599 233.235 532.874 234.337 532.874H181.84C183.493 532.874 197.134 532.323 197.134 516.34V452.957C197.134 446.895 194.792 442.21 192.174 440.143C190.934 439.041 189.556 438.214 187.765 437.663C184.458 436.423 183.356 436.423 181.84 436.423H234.337C232.27 436.423 230.341 436.698 226.07 438.49C221.798 440.281 218.767 445.379 218.767 452.957Z" fill="#55142E" fill-opacity="0.3"/>
<path d="M160.486 488.506V457.78C160.486 448.961 157.454 442.485 153.183 439.867C149.187 437.25 146.569 436.561 144.365 436.423H177.296C175.367 436.698 162.277 438.352 162.277 459.158V490.298C162.277 493.191 162.277 495.534 162.139 497.325C162.139 499.116 161.864 501.734 161.45 505.179C161.037 508.623 160.486 511.517 159.659 513.859C158.143 518.406 154.974 525.158 150.427 528.603C146.018 532.047 138.715 534.941 129.897 534.941C115.154 534.941 104.682 531.221 98.757 523.642C92.8321 516.064 89.9386 504.49 89.9386 489.058V454.335C89.9386 447.721 87.5962 442.623 85.2538 440.419C80.9824 436.561 76.5732 436.285 75.1953 436.423H128.244C126.452 436.423 125.212 436.423 121.767 437.663C117.634 439.316 112.949 443.863 112.949 454.335V494.294C112.949 518.682 122.181 530.256 138.853 529.154C154.285 528.051 160.486 515.651 160.486 488.506Z" fill="#55142E" fill-opacity="0.3"/>
<path d="M38.3084 507.659V450.339C38.3084 444.139 35.8282 439.73 32.3835 438.214C28.9388 436.698 27.2854 436.423 25.4941 436.423H73.0308C71.2396 436.423 69.5861 436.698 66.1415 438.214C62.6968 439.73 60.2166 444.139 60.2166 450.339V508.486C60.2166 516.891 56.6341 523.505 52.2249 526.949C50.0203 528.603 47.4024 529.981 44.2332 530.945C38.1706 533.012 33.8992 533.15 28.5255 533.15C23.7029 533.15 18.467 532.047 11.7154 529.292C5.10159 526.398 0.14124 519.509 0.00345238 510.277C-0.134335 504.628 3.8615 498.565 10.3375 498.565C18.7426 498.565 22.4628 506.006 19.8449 514.411C17.0891 524.331 21.7739 531.496 29.49 531.496C34.037 532.185 36.2416 528.189 37.2061 525.02C37.6194 524.056 37.7572 522.264 37.895 519.922C38.0328 517.58 38.1706 515.651 38.1706 514.411C38.3084 513.17 38.3084 510.828 38.3084 507.659Z" fill="#55142E" fill-opacity="0.3"/>
<path d="M409.239 726.423H439.828C431.699 728.214 424.947 734.001 419.436 743.508L404.417 770.79C402.626 774.235 401.661 779.195 401.661 785.947V807.58C401.661 813.78 404.279 818.603 407.724 820.394C411.444 822.185 413.373 822.736 415.44 822.874H366.25C368.041 822.874 370.383 822.323 373.69 820.532C377.135 818.74 379.753 814.193 379.753 808.131L379.891 789.805C379.891 783.054 378.513 777.404 375.895 773.133L356.742 741.717C350.128 731.108 341.861 726.423 337.59 726.423L386.642 726.561C378.788 726.698 374.655 734.001 378.926 741.855L394.634 768.724C397.803 774.373 400.972 774.097 404.279 767.897L417.644 743.922C422.743 734.69 419.711 727.663 409.239 726.423Z" fill="#55142E" fill-opacity="0.3"/>
<path d="M267.621 772.03C269.274 783.88 273.821 793.387 281.261 800.552C288.702 807.579 297.52 811.299 307.717 811.437C325.078 811.851 332.243 801.517 334.723 797.245L335.412 795.592C335.274 796.832 334.999 798.347 332.243 803.997C331.003 806.752 329.349 809.37 327.42 811.713C323.7 816.26 316.122 821.633 307.303 823.7C290.355 827.421 274.234 822.874 263.762 813.642C253.428 804.41 246.815 791.182 246.401 777.404C246.126 766.932 248.192 757.838 252.739 749.984C261.971 734.138 276.852 726.422 294.351 725.182C302.205 724.631 310.059 725.32 317.913 727.387C323.424 728.902 328.385 731.107 330.038 732.209L331.416 733.174L331.141 760.318C325.491 749.019 318.051 739.925 308.819 733.174C299.587 726.285 290.218 725.32 280.71 730.418C275.199 733.312 271.341 738.685 268.998 746.539C266.656 754.393 266.243 762.936 267.621 772.03Z" fill="#55142E" fill-opacity="0.3"/>
<path d="M218.767 742.957V806.34C218.767 812.264 221.109 816.949 223.727 819.154C228.136 822.599 233.235 822.874 234.337 822.874H181.84C183.493 822.874 197.134 822.323 197.134 806.34V742.957C197.134 736.895 194.792 732.21 192.174 730.143C190.934 729.041 189.556 728.214 187.765 727.663C184.458 726.423 183.356 726.423 181.84 726.423H234.337C232.27 726.423 230.341 726.698 226.07 728.49C221.798 730.281 218.767 735.379 218.767 742.957Z" fill="#55142E" fill-opacity="0.3"/>
<path d="M160.486 778.506V747.78C160.486 738.961 157.454 732.485 153.183 729.867C149.187 727.25 146.569 726.561 144.365 726.423H177.296C175.367 726.698 162.277 728.352 162.277 749.158V780.298C162.277 783.191 162.277 785.534 162.139 787.325C162.139 789.116 161.864 791.734 161.45 795.179C161.037 798.623 160.486 801.517 159.659 803.859C158.143 808.406 154.974 815.158 150.427 818.603C146.018 822.047 138.715 824.941 129.897 824.941C115.154 824.941 104.682 821.221 98.757 813.642C92.8321 806.064 89.9386 794.49 89.9386 779.058V744.335C89.9386 737.721 87.5962 732.623 85.2538 730.419C80.9824 726.561 76.5732 726.285 75.1953 726.423H128.244C126.452 726.423 125.212 726.423 121.767 727.663C117.634 729.316 112.949 733.863 112.949 744.335V784.294C112.949 808.682 122.181 820.256 138.853 819.154C154.285 818.051 160.486 805.651 160.486 778.506Z" fill="#55142E" fill-opacity="0.3"/>
<path d="M38.3084 797.659V740.339C38.3084 734.139 35.8282 729.73 32.3835 728.214C28.9388 726.698 27.2854 726.423 25.4941 726.423H73.0308C71.2396 726.423 69.5861 726.698 66.1415 728.214C62.6968 729.73 60.2166 734.139 60.2166 740.339V798.486C60.2166 806.891 56.6341 813.505 52.2249 816.949C50.0203 818.603 47.4024 819.981 44.2332 820.945C38.1706 823.012 33.8992 823.15 28.5255 823.15C23.7029 823.15 18.467 822.047 11.7154 819.292C5.10159 816.398 0.14124 809.509 0.00345238 800.277C-0.134335 794.628 3.8615 788.565 10.3375 788.565C18.7426 788.565 22.4628 796.006 19.8449 804.411C17.0891 814.331 21.7739 821.496 29.49 821.496C34.037 822.185 36.2416 818.189 37.2061 815.02C37.6194 814.056 37.7572 812.264 37.895 809.922C38.0328 807.58 38.1706 805.651 38.1706 804.411C38.3084 803.17 38.3084 800.828 38.3084 797.659Z" fill="#55142E" fill-opacity="0.3"/>
<path d="M409.239 1016.42H439.828C431.699 1018.21 424.947 1024 419.436 1033.51L404.417 1060.79C402.626 1064.24 401.661 1069.2 401.661 1075.95V1097.58C401.661 1103.78 404.279 1108.6 407.724 1110.39C411.444 1112.19 413.373 1112.74 415.44 1112.87H366.25C368.041 1112.87 370.383 1112.32 373.69 1110.53C377.135 1108.74 379.753 1104.19 379.753 1098.13L379.891 1079.81C379.891 1073.05 378.513 1067.4 375.895 1063.13L356.742 1031.72C350.128 1021.11 341.861 1016.42 337.59 1016.42L386.642 1016.56C378.788 1016.7 374.655 1024 378.926 1031.86L394.634 1058.72C397.803 1064.37 400.972 1064.1 404.279 1057.9L417.644 1033.92C422.743 1024.69 419.711 1017.66 409.239 1016.42Z" fill="#55142E" fill-opacity="0.3"/>
<path d="M267.621 1062.03C269.274 1073.88 273.821 1083.39 281.261 1090.55C288.702 1097.58 297.52 1101.3 307.717 1101.44C325.078 1101.85 332.243 1091.52 334.723 1087.25L335.412 1085.59C335.274 1086.83 334.999 1088.35 332.243 1094C331.003 1096.75 329.349 1099.37 327.42 1101.71C323.7 1106.26 316.122 1111.63 307.303 1113.7C290.355 1117.42 274.234 1112.87 263.762 1103.64C253.428 1094.41 246.815 1081.18 246.401 1067.4C246.126 1056.93 248.192 1047.84 252.739 1039.98C261.971 1024.14 276.852 1016.42 294.351 1015.18C302.205 1014.63 310.059 1015.32 317.913 1017.39C323.424 1018.9 328.385 1021.11 330.038 1022.21L331.416 1023.17L331.141 1050.32C325.491 1039.02 318.051 1029.93 308.819 1023.17C299.587 1016.28 290.218 1015.32 280.71 1020.42C275.199 1023.31 271.341 1028.69 268.998 1036.54C266.656 1044.39 266.243 1052.94 267.621 1062.03Z" fill="#55142E" fill-opacity="0.3"/>
<path d="M218.767 1032.96V1096.34C218.767 1102.26 221.109 1106.95 223.727 1109.15C228.136 1112.6 233.235 1112.87 234.337 1112.87H181.84C183.493 1112.87 197.134 1112.32 197.134 1096.34V1032.96C197.134 1026.89 194.792 1022.21 192.174 1020.14C190.934 1019.04 189.556 1018.21 187.765 1017.66C184.458 1016.42 183.356 1016.42 181.84 1016.42H234.337C232.27 1016.42 230.341 1016.7 226.07 1018.49C221.798 1020.28 218.767 1025.38 218.767 1032.96Z" fill="#55142E" fill-opacity="0.3"/>
<path d="M160.486 1068.51V1037.78C160.486 1028.96 157.454 1022.49 153.183 1019.87C149.187 1017.25 146.569 1016.56 144.365 1016.42H177.296C175.367 1016.7 162.277 1018.35 162.277 1039.16V1070.3C162.277 1073.19 162.277 1075.53 162.139 1077.32C162.139 1079.12 161.864 1081.73 161.45 1085.18C161.037 1088.62 160.486 1091.52 159.659 1093.86C158.143 1098.41 154.974 1105.16 150.427 1108.6C146.018 1112.05 138.715 1114.94 129.897 1114.94C115.154 1114.94 104.682 1111.22 98.757 1103.64C92.8321 1096.06 89.9386 1084.49 89.9386 1069.06V1034.34C89.9386 1027.72 87.5962 1022.62 85.2538 1020.42C80.9824 1016.56 76.5732 1016.29 75.1953 1016.42H128.244C126.452 1016.42 125.212 1016.42 121.767 1017.66C117.634 1019.32 112.949 1023.86 112.949 1034.34V1074.29C112.949 1098.68 122.181 1110.26 138.853 1109.15C154.285 1108.05 160.486 1095.65 160.486 1068.51Z" fill="#55142E" fill-opacity="0.3"/>
<path d="M38.3084 1087.66V1030.34C38.3084 1024.14 35.8282 1019.73 32.3835 1018.21C28.9388 1016.7 27.2854 1016.42 25.4941 1016.42H73.0308C71.2396 1016.42 69.5861 1016.7 66.1415 1018.21C62.6968 1019.73 60.2166 1024.14 60.2166 1030.34V1088.49C60.2166 1096.89 56.6341 1103.5 52.2249 1106.95C50.0203 1108.6 47.4024 1109.98 44.2332 1110.95C38.1706 1113.01 33.8992 1113.15 28.5255 1113.15C23.7029 1113.15 18.467 1112.05 11.7154 1109.29C5.10159 1106.4 0.14124 1099.51 0.00345238 1090.28C-0.134335 1084.63 3.8615 1078.57 10.3375 1078.57C18.7426 1078.57 22.4628 1086.01 19.8449 1094.41C17.0891 1104.33 21.7739 1111.5 29.49 1111.5C34.037 1112.19 36.2416 1108.19 37.2061 1105.02C37.6194 1104.06 37.7572 1102.26 37.895 1099.92C38.0328 1097.58 38.1706 1095.65 38.1706 1094.41C38.3084 1093.17 38.3084 1090.83 38.3084 1087.66Z" fill="#55142E" fill-opacity="0.3"/>
<path d="M409.411 1.42285H440C431.871 3.21409 425.119 9.00116 419.607 18.5085L404.589 45.7904C402.797 49.2351 401.833 54.1955 401.833 60.9471V82.5797C401.833 88.7801 404.451 93.6027 407.896 95.3939C411.616 97.1852 413.545 97.7363 415.612 97.8741H366.422C368.213 97.8741 370.555 97.3229 373.862 95.5317C377.307 93.7405 379.925 89.1935 379.925 83.1308L380.062 64.8051C380.062 58.0535 378.685 52.4042 376.067 48.1328L356.914 16.7173C350.3 6.10763 342.033 1.42285 337.762 1.42285L386.814 1.56064C378.96 1.69843 374.827 9.00117 379.098 16.8551L394.806 43.7236C397.975 49.3729 401.144 49.0973 404.451 42.8969L417.816 18.9219C422.914 9.6901 419.883 2.66294 409.411 1.42285Z" fill="#A12256" fill-opacity="0.2"/>
<path d="M267.792 47.03C269.446 58.8797 273.993 68.387 281.433 75.552C288.874 82.5792 297.692 86.2994 307.889 86.4372C325.25 86.8506 332.415 76.5165 334.895 72.2451L335.584 70.5916C335.446 71.8317 335.17 73.3474 332.415 78.9967C331.175 81.7524 329.521 84.3704 327.592 86.7128C323.872 91.2598 316.294 96.6335 307.475 98.7003C290.527 102.421 274.406 97.8736 263.934 88.6418C253.6 79.4101 246.986 66.1825 246.573 52.4037C246.298 41.9319 248.364 32.8379 252.911 24.984C262.143 9.13842 277.024 1.42232 294.523 0.182232C302.377 -0.36892 310.231 0.320025 318.085 2.38684C323.596 3.9025 328.557 6.1071 330.21 7.20939L331.588 8.17391L331.312 35.318C325.663 24.0195 318.223 14.9255 308.991 8.17391C299.759 1.28453 290.39 0.320025 280.882 5.41816C275.371 8.3117 271.513 13.6854 269.17 21.5393C266.828 29.3932 266.415 37.936 267.792 47.03Z" fill="#A12256" fill-opacity="0.2"/>
<path d="M218.939 17.9574V81.3396C218.939 87.2645 221.281 91.9492 223.899 94.1538C228.308 97.5985 233.406 97.8741 234.509 97.8741H182.012C183.665 97.8741 197.306 97.3229 197.306 81.3396V17.9574C197.306 11.8947 194.964 7.20993 192.346 5.14312C191.106 4.04082 189.728 3.21409 187.937 2.66294C184.63 1.42285 183.527 1.42285 182.012 1.42285H234.509C232.442 1.42285 230.513 1.69843 226.242 3.48966C221.97 5.2809 218.939 10.379 218.939 17.9574Z" fill="#A12256" fill-opacity="0.2"/>
<path d="M160.658 53.5065V22.7799C160.658 13.9615 157.626 7.48545 153.355 4.86749C149.359 2.24953 146.741 1.56059 144.537 1.4228H177.468C175.539 1.69838 162.449 3.35183 162.449 24.1577V55.2977C162.449 58.1913 162.449 60.5336 162.311 62.3249C162.311 64.1161 162.036 66.7341 161.622 70.1788C161.209 73.6235 160.658 76.517 159.831 78.8594C158.315 83.4064 155.146 90.158 150.599 93.6026C146.19 97.0473 138.887 99.9409 130.069 99.9409C115.326 99.9409 104.854 96.2206 98.9289 88.6423C93.004 81.064 90.1105 69.4898 90.1105 54.0576V19.3352C90.1105 12.7214 87.7681 7.62324 85.4257 5.41864C81.1543 1.56059 76.7451 1.28502 75.3672 1.4228H128.415C126.624 1.4228 125.384 1.4228 121.939 2.66289C117.806 4.31634 113.121 8.86333 113.121 19.3352V59.2936C113.121 83.6819 122.353 95.2561 139.025 94.1538C154.457 93.0515 160.658 80.6506 160.658 53.5065Z" fill="#A12256" fill-opacity="0.2"/>
<path d="M38.4803 72.659V15.3394C38.4803 9.13895 36.0001 4.72975 32.5554 3.21409C29.1107 1.69843 27.4573 1.42285 25.666 1.42285H73.2027C71.4115 1.42285 69.758 1.69843 66.3133 3.21409C62.8686 4.72975 60.3885 9.13895 60.3885 15.3394V73.4857C60.3885 81.8908 56.806 88.5046 52.3968 91.9492C50.1922 93.6027 47.5742 94.9806 44.4051 95.9451C38.3425 98.0119 34.0711 98.1497 28.6973 98.1497C23.8748 98.1497 18.6389 97.0474 11.8873 94.2916C5.27347 91.3981 0.313115 84.5087 0.175327 75.277C0.0375399 69.6277 4.03338 63.565 10.5094 63.565C18.9144 63.565 22.6347 71.0055 20.0167 79.4106C17.261 89.3313 21.9458 96.4962 29.6619 96.4962C34.2088 97.1852 36.4134 93.1893 37.378 90.0202C37.7913 89.0557 37.9291 87.2645 38.0669 84.9221C38.2047 82.5797 38.3425 80.6507 38.3425 79.4106C38.4803 78.1705 38.4803 75.8281 38.4803 72.659Z" fill="#A12256" fill-opacity="0.2"/>
<path d="M409.411 291.423H440C431.871 293.214 425.119 299.001 419.607 308.508L404.589 335.79C402.797 339.235 401.833 344.195 401.833 350.947V372.58C401.833 378.78 404.451 383.603 407.896 385.394C411.616 387.185 413.545 387.736 415.612 387.874H366.422C368.213 387.874 370.555 387.323 373.862 385.532C377.307 383.74 379.925 379.193 379.925 373.131L380.062 354.805C380.062 348.054 378.685 342.404 376.067 338.133L356.914 306.717C350.3 296.108 342.033 291.423 337.762 291.423L386.814 291.561C378.96 291.698 374.827 299.001 379.098 306.855L394.806 333.724C397.975 339.373 401.144 339.097 404.451 332.897L417.816 308.922C422.914 299.69 419.883 292.663 409.411 291.423Z" fill="#A12256" fill-opacity="0.2"/>
<path d="M267.792 337.03C269.446 348.88 273.993 358.387 281.433 365.552C288.874 372.579 297.692 376.299 307.889 376.437C325.25 376.851 332.415 366.517 334.895 362.245L335.584 360.592C335.446 361.832 335.17 363.347 332.415 368.997C331.175 371.752 329.521 374.37 327.592 376.713C323.872 381.26 316.294 386.633 307.475 388.7C290.527 392.421 274.406 387.874 263.934 378.642C253.6 369.41 246.986 356.182 246.573 342.404C246.298 331.932 248.364 322.838 252.911 314.984C262.143 299.138 277.024 291.422 294.523 290.182C302.377 289.631 310.231 290.32 318.085 292.387C323.596 293.902 328.557 296.107 330.21 297.209L331.588 298.174L331.312 325.318C325.663 314.019 318.223 304.925 308.991 298.174C299.759 291.285 290.39 290.32 280.882 295.418C275.371 298.312 271.513 303.685 269.17 311.539C266.828 319.393 266.415 327.936 267.792 337.03Z" fill="#A12256" fill-opacity="0.2"/>
<path d="M218.939 307.957V371.34C218.939 377.264 221.281 381.949 223.899 384.154C228.308 387.599 233.406 387.874 234.509 387.874H182.012C183.665 387.874 197.306 387.323 197.306 371.34V307.957C197.306 301.895 194.964 297.21 192.346 295.143C191.106 294.041 189.728 293.214 187.937 292.663C184.63 291.423 183.527 291.423 182.012 291.423H234.509C232.442 291.423 230.513 291.698 226.242 293.49C221.97 295.281 218.939 300.379 218.939 307.957Z" fill="#A12256" fill-opacity="0.2"/>
<path d="M160.658 343.506V312.78C160.658 303.961 157.626 297.485 153.355 294.867C149.359 292.25 146.741 291.561 144.537 291.423H177.468C175.539 291.698 162.449 293.352 162.449 314.158V345.298C162.449 348.191 162.449 350.534 162.311 352.325C162.311 354.116 162.036 356.734 161.622 360.179C161.209 363.623 160.658 366.517 159.831 368.859C158.315 373.406 155.146 380.158 150.599 383.603C146.19 387.047 138.887 389.941 130.069 389.941C115.326 389.941 104.854 386.221 98.9289 378.642C93.004 371.064 90.1105 359.49 90.1105 344.058V309.335C90.1105 302.721 87.7681 297.623 85.4257 295.419C81.1543 291.561 76.7451 291.285 75.3672 291.423H128.415C126.624 291.423 125.384 291.423 121.939 292.663C117.806 294.316 113.121 298.863 113.121 309.335V349.294C113.121 373.682 122.353 385.256 139.025 384.154C154.457 383.051 160.658 370.651 160.658 343.506Z" fill="#A12256" fill-opacity="0.2"/>
<path d="M38.4803 362.659V305.339C38.4803 299.139 36.0001 294.73 32.5554 293.214C29.1107 291.698 27.4573 291.423 25.666 291.423H73.2027C71.4115 291.423 69.758 291.698 66.3133 293.214C62.8686 294.73 60.3885 299.139 60.3885 305.339V363.486C60.3885 371.891 56.806 378.505 52.3968 381.949C50.1922 383.603 47.5742 384.981 44.4051 385.945C38.3425 388.012 34.0711 388.15 28.6973 388.15C23.8748 388.15 18.6389 387.047 11.8873 384.292C5.27347 381.398 0.313115 374.509 0.175327 365.277C0.0375399 359.628 4.03338 353.565 10.5094 353.565C18.9144 353.565 22.6347 361.006 20.0167 369.411C17.261 379.331 21.9458 386.496 29.6619 386.496C34.2088 387.185 36.4134 383.189 37.378 380.02C37.7913 379.056 37.9291 377.264 38.0669 374.922C38.2047 372.58 38.3425 370.651 38.3425 369.411C38.4803 368.17 38.4803 365.828 38.4803 362.659Z" fill="#A12256" fill-opacity="0.2"/>
<path d="M409.411 581.423H440C431.871 583.214 425.119 589.001 419.607 598.508L404.589 625.79C402.797 629.235 401.833 634.195 401.833 640.947V662.58C401.833 668.78 404.451 673.603 407.896 675.394C411.616 677.185 413.545 677.736 415.612 677.874H366.422C368.213 677.874 370.555 677.323 373.862 675.532C377.307 673.74 379.925 669.193 379.925 663.131L380.062 644.805C380.062 638.054 378.685 632.404 376.067 628.133L356.914 596.717C350.3 586.108 342.033 581.423 337.762 581.423L386.814 581.561C378.96 581.698 374.827 589.001 379.098 596.855L394.806 623.724C397.975 629.373 401.144 629.097 404.451 622.897L417.816 598.922C422.914 589.69 419.883 582.663 409.411 581.423Z" fill="#A12256" fill-opacity="0.2"/>
<path d="M267.792 627.03C269.446 638.88 273.993 648.387 281.433 655.552C288.874 662.579 297.692 666.299 307.889 666.437C325.25 666.851 332.415 656.517 334.895 652.245L335.584 650.592C335.446 651.832 335.17 653.347 332.415 658.997C331.175 661.752 329.521 664.37 327.592 666.713C323.872 671.26 316.294 676.633 307.475 678.7C290.527 682.421 274.406 677.874 263.934 668.642C253.6 659.41 246.986 646.182 246.573 632.404C246.298 621.932 248.364 612.838 252.911 604.984C262.143 589.138 277.024 581.422 294.523 580.182C302.377 579.631 310.231 580.32 318.085 582.387C323.596 583.902 328.557 586.107 330.21 587.209L331.588 588.174L331.312 615.318C325.663 604.019 318.223 594.925 308.991 588.174C299.759 581.285 290.39 580.32 280.882 585.418C275.371 588.312 271.513 593.685 269.17 601.539C266.828 609.393 266.415 617.936 267.792 627.03Z" fill="#A12256" fill-opacity="0.2"/>
<path d="M218.939 597.957V661.34C218.939 667.264 221.281 671.949 223.899 674.154C228.308 677.599 233.406 677.874 234.509 677.874H182.012C183.665 677.874 197.306 677.323 197.306 661.34V597.957C197.306 591.895 194.964 587.21 192.346 585.143C191.106 584.041 189.728 583.214 187.937 582.663C184.63 581.423 183.527 581.423 182.012 581.423H234.509C232.442 581.423 230.513 581.698 226.242 583.49C221.97 585.281 218.939 590.379 218.939 597.957Z" fill="#A12256" fill-opacity="0.2"/>
<path d="M160.658 633.506V602.78C160.658 593.961 157.626 587.485 153.355 584.867C149.359 582.25 146.741 581.561 144.537 581.423H177.468C175.539 581.698 162.449 583.352 162.449 604.158V635.298C162.449 638.191 162.449 640.534 162.311 642.325C162.311 644.116 162.036 646.734 161.622 650.179C161.209 653.623 160.658 656.517 159.831 658.859C158.315 663.406 155.146 670.158 150.599 673.603C146.19 677.047 138.887 679.941 130.069 679.941C115.326 679.941 104.854 676.221 98.9289 668.642C93.004 661.064 90.1105 649.49 90.1105 634.058V599.335C90.1105 592.721 87.7681 587.623 85.4257 585.419C81.1543 581.561 76.7451 581.285 75.3672 581.423H128.415C126.624 581.423 125.384 581.423 121.939 582.663C117.806 584.316 113.121 588.863 113.121 599.335V639.294C113.121 663.682 122.353 675.256 139.025 674.154C154.457 673.051 160.658 660.651 160.658 633.506Z" fill="#A12256" fill-opacity="0.2"/>
<path d="M38.4803 652.659V595.339C38.4803 589.139 36.0001 584.73 32.5554 583.214C29.1107 581.698 27.4573 581.423 25.666 581.423H73.2027C71.4115 581.423 69.758 581.698 66.3133 583.214C62.8686 584.73 60.3885 589.139 60.3885 595.339V653.486C60.3885 661.891 56.806 668.505 52.3968 671.949C50.1922 673.603 47.5742 674.981 44.4051 675.945C38.3425 678.012 34.0711 678.15 28.6973 678.15C23.8748 678.15 18.6389 677.047 11.8873 674.292C5.27347 671.398 0.313115 664.509 0.175327 655.277C0.0375399 649.628 4.03338 643.565 10.5094 643.565C18.9144 643.565 22.6347 651.006 20.0167 659.411C17.261 669.331 21.9458 676.496 29.6619 676.496C34.2088 677.185 36.4134 673.189 37.378 670.02C37.7913 669.056 37.9291 667.264 38.0669 664.922C38.2047 662.58 38.3425 660.651 38.3425 659.411C38.4803 658.17 38.4803 655.828 38.4803 652.659Z" fill="#A12256" fill-opacity="0.2"/>
<path d="M409.411 871.423H440C431.871 873.214 425.119 879.001 419.607 888.508L404.589 915.79C402.797 919.235 401.833 924.195 401.833 930.947V952.58C401.833 958.78 404.451 963.603 407.896 965.394C411.616 967.185 413.545 967.736 415.612 967.874H366.422C368.213 967.874 370.555 967.323 373.862 965.532C377.307 963.74 379.925 959.193 379.925 953.131L380.062 934.805C380.062 928.054 378.685 922.404 376.067 918.133L356.914 886.717C350.3 876.108 342.033 871.423 337.762 871.423L386.814 871.561C378.96 871.698 374.827 879.001 379.098 886.855L394.806 913.724C397.975 919.373 401.144 919.097 404.451 912.897L417.816 888.922C422.914 879.69 419.883 872.663 409.411 871.423Z" fill="#A12256" fill-opacity="0.2"/>
<path d="M267.792 917.03C269.446 928.88 273.993 938.387 281.433 945.552C288.874 952.579 297.692 956.299 307.889 956.437C325.25 956.851 332.415 946.517 334.895 942.245L335.584 940.592C335.446 941.832 335.17 943.347 332.415 948.997C331.175 951.752 329.521 954.37 327.592 956.713C323.872 961.26 316.294 966.633 307.475 968.7C290.527 972.421 274.406 967.874 263.934 958.642C253.6 949.41 246.986 936.182 246.573 922.404C246.298 911.932 248.364 902.838 252.911 894.984C262.143 879.138 277.024 871.422 294.523 870.182C302.377 869.631 310.231 870.32 318.085 872.387C323.596 873.902 328.557 876.107 330.21 877.209L331.588 878.174L331.312 905.318C325.663 894.019 318.223 884.925 308.991 878.174C299.759 871.285 290.39 870.32 280.882 875.418C275.371 878.312 271.513 883.685 269.17 891.539C266.828 899.393 266.415 907.936 267.792 917.03Z" fill="#A12256" fill-opacity="0.2"/>
<path d="M218.939 887.957V951.34C218.939 957.264 221.281 961.949 223.899 964.154C228.308 967.599 233.406 967.874 234.509 967.874H182.012C183.665 967.874 197.306 967.323 197.306 951.34V887.957C197.306 881.895 194.964 877.21 192.346 875.143C191.106 874.041 189.728 873.214 187.937 872.663C184.63 871.423 183.527 871.423 182.012 871.423H234.509C232.442 871.423 230.513 871.698 226.242 873.49C221.97 875.281 218.939 880.379 218.939 887.957Z" fill="#A12256" fill-opacity="0.2"/>
<path d="M160.658 923.506V892.78C160.658 883.961 157.626 877.485 153.355 874.867C149.359 872.25 146.741 871.561 144.537 871.423H177.468C175.539 871.698 162.449 873.352 162.449 894.158V925.298C162.449 928.191 162.449 930.534 162.311 932.325C162.311 934.116 162.036 936.734 161.622 940.179C161.209 943.623 160.658 946.517 159.831 948.859C158.315 953.406 155.146 960.158 150.599 963.603C146.19 967.047 138.887 969.941 130.069 969.941C115.326 969.941 104.854 966.221 98.9289 958.642C93.004 951.064 90.1105 939.49 90.1105 924.058V889.335C90.1105 882.721 87.7681 877.623 85.4257 875.419C81.1543 871.561 76.7451 871.285 75.3672 871.423H128.415C126.624 871.423 125.384 871.423 121.939 872.663C117.806 874.316 113.121 878.863 113.121 889.335V929.294C113.121 953.682 122.353 965.256 139.025 964.154C154.457 963.051 160.658 950.651 160.658 923.506Z" fill="#A12256" fill-opacity="0.2"/>
<path d="M38.4803 942.659V885.339C38.4803 879.139 36.0001 874.73 32.5554 873.214C29.1107 871.698 27.4573 871.423 25.666 871.423H73.2027C71.4115 871.423 69.758 871.698 66.3133 873.214C62.8686 874.73 60.3885 879.139 60.3885 885.339V943.486C60.3885 951.891 56.806 958.505 52.3968 961.949C50.1922 963.603 47.5742 964.981 44.4051 965.945C38.3425 968.012 34.0711 968.15 28.6973 968.15C23.8748 968.15 18.6389 967.047 11.8873 964.292C5.27347 961.398 0.313115 954.509 0.175327 945.277C0.0375399 939.628 4.03338 933.565 10.5094 933.565C18.9144 933.565 22.6347 941.006 20.0167 949.411C17.261 959.331 21.9458 966.496 29.6619 966.496C34.2088 967.185 36.4134 963.189 37.378 960.02C37.7913 959.056 37.9291 957.264 38.0669 954.922C38.2047 952.58 38.3425 950.651 38.3425 949.411C38.4803 948.17 38.4803 945.828 38.4803 942.659Z" fill="#A12256" fill-opacity="0.2"/>
<path d="M409.411 1161.42H440C431.871 1163.21 425.119 1169 419.607 1178.51L404.589 1205.79C402.797 1209.24 401.833 1214.2 401.833 1220.95V1242.58C401.833 1248.78 404.451 1253.6 407.896 1255.39C411.616 1257.19 413.545 1257.74 415.612 1257.87H366.422C368.213 1257.87 370.555 1257.32 373.862 1255.53C377.307 1253.74 379.925 1249.19 379.925 1243.13L380.062 1224.81C380.062 1218.05 378.685 1212.4 376.067 1208.13L356.914 1176.72C350.3 1166.11 342.033 1161.42 337.762 1161.42L386.814 1161.56C378.96 1161.7 374.827 1169 379.098 1176.86L394.806 1203.72C397.975 1209.37 401.144 1209.1 404.451 1202.9L417.816 1178.92C422.914 1169.69 419.883 1162.66 409.411 1161.42Z" fill="#A12256" fill-opacity="0.2"/>
<path d="M267.792 1207.03C269.446 1218.88 273.993 1228.39 281.433 1235.55C288.874 1242.58 297.692 1246.3 307.889 1246.44C325.25 1246.85 332.415 1236.52 334.895 1232.25L335.584 1230.59C335.446 1231.83 335.17 1233.35 332.415 1239C331.175 1241.75 329.521 1244.37 327.592 1246.71C323.872 1251.26 316.294 1256.63 307.475 1258.7C290.527 1262.42 274.406 1257.87 263.934 1248.64C253.6 1239.41 246.986 1226.18 246.573 1212.4C246.298 1201.93 248.364 1192.84 252.911 1184.98C262.143 1169.14 277.024 1161.42 294.523 1160.18C302.377 1159.63 310.231 1160.32 318.085 1162.39C323.596 1163.9 328.557 1166.11 330.21 1167.21L331.588 1168.17L331.312 1195.32C325.663 1184.02 318.223 1174.93 308.991 1168.17C299.759 1161.28 290.39 1160.32 280.882 1165.42C275.371 1168.31 271.513 1173.69 269.17 1181.54C266.828 1189.39 266.415 1197.94 267.792 1207.03Z" fill="#A12256" fill-opacity="0.2"/>
<path d="M218.939 1177.96V1241.34C218.939 1247.26 221.281 1251.95 223.899 1254.15C228.308 1257.6 233.406 1257.87 234.509 1257.87H182.012C183.665 1257.87 197.306 1257.32 197.306 1241.34V1177.96C197.306 1171.89 194.964 1167.21 192.346 1165.14C191.106 1164.04 189.728 1163.21 187.937 1162.66C184.63 1161.42 183.527 1161.42 182.012 1161.42H234.509C232.442 1161.42 230.513 1161.7 226.242 1163.49C221.97 1165.28 218.939 1170.38 218.939 1177.96Z" fill="#A12256" fill-opacity="0.2"/>
<path d="M160.658 1213.51V1182.78C160.658 1173.96 157.626 1167.49 153.355 1164.87C149.359 1162.25 146.741 1161.56 144.537 1161.42H177.468C175.539 1161.7 162.449 1163.35 162.449 1184.16V1215.3C162.449 1218.19 162.449 1220.53 162.311 1222.32C162.311 1224.12 162.036 1226.73 161.622 1230.18C161.209 1233.62 160.658 1236.52 159.831 1238.86C158.315 1243.41 155.146 1250.16 150.599 1253.6C146.19 1257.05 138.887 1259.94 130.069 1259.94C115.326 1259.94 104.854 1256.22 98.9289 1248.64C93.004 1241.06 90.1105 1229.49 90.1105 1214.06V1179.34C90.1105 1172.72 87.7681 1167.62 85.4257 1165.42C81.1543 1161.56 76.7451 1161.29 75.3672 1161.42H128.415C126.624 1161.42 125.384 1161.42 121.939 1162.66C117.806 1164.32 113.121 1168.86 113.121 1179.34V1219.29C113.121 1243.68 122.353 1255.26 139.025 1254.15C154.457 1253.05 160.658 1240.65 160.658 1213.51Z" fill="#A12256" fill-opacity="0.2"/>
<path d="M38.4803 1232.66V1175.34C38.4803 1169.14 36.0001 1164.73 32.5554 1163.21C29.1107 1161.7 27.4573 1161.42 25.666 1161.42H73.2027C71.4115 1161.42 69.758 1161.7 66.3133 1163.21C62.8686 1164.73 60.3885 1169.14 60.3885 1175.34V1233.49C60.3885 1241.89 56.806 1248.5 52.3968 1251.95C50.1922 1253.6 47.5742 1254.98 44.4051 1255.95C38.3425 1258.01 34.0711 1258.15 28.6973 1258.15C23.8748 1258.15 18.6389 1257.05 11.8873 1254.29C5.27347 1251.4 0.313115 1244.51 0.175327 1235.28C0.0375399 1229.63 4.03338 1223.57 10.5094 1223.57C18.9144 1223.57 22.6347 1231.01 20.0167 1239.41C17.261 1249.33 21.9458 1256.5 29.6619 1256.5C34.2088 1257.19 36.4134 1253.19 37.378 1250.02C37.7913 1249.06 37.9291 1247.26 38.0669 1244.92C38.2047 1242.58 38.3425 1240.65 38.3425 1239.41C38.4803 1238.17 38.4803 1235.83 38.4803 1232.66Z" fill="#A12256" fill-opacity="0.2"/>
</svg>
