<svg width="1205" height="979" viewBox="0 0 1205 979" fill="none" xmlns="http://www.w3.org/2000/svg">
<path d="M573.484 7.35742H602.141C594.525 9.0355 588.2 14.457 583.036 23.3637L568.966 48.922C567.288 52.1491 566.385 56.7961 566.385 63.1211V83.3871C566.385 89.1958 568.837 93.7137 572.064 95.3918C575.55 97.0698 577.357 97.5862 579.293 97.7153H533.211C534.889 97.7153 537.083 97.1989 540.181 95.5208C543.408 93.8428 545.861 89.583 545.861 83.9034L545.99 66.7354C545.99 60.4104 544.699 55.118 542.246 51.1164L524.304 21.6856C518.108 11.7462 510.363 7.35742 506.361 7.35742L552.315 7.4865C544.957 7.61559 541.085 14.457 545.086 21.8147L559.802 46.9858C562.77 52.2782 565.739 52.02 568.837 46.2113L581.358 23.7509C586.134 15.1024 583.295 8.51917 573.484 7.35742Z" fill="#55142E" fill-opacity="0.3"/>
<path d="M467.471 100.942L425.519 18.9749C421.776 11.2299 415.193 7.35742 405.77 7.35742H464.631L462.695 7.61559C457.79 8.261 447.721 11.7462 451.852 22.2019C454.821 29.0433 460.501 40.4026 468.633 56.5379C471.86 62.8629 474.441 66.09 476.507 66.09C479.476 66.09 480.637 65.1864 483.348 58.4741L496.773 26.0744C498.967 20.782 498.58 16.3932 495.869 12.908C493.158 9.29366 488.641 7.4865 482.315 7.35742H516.393C512.908 8.39008 510.972 9.16458 507.874 11.6171C504.776 14.0697 501.936 18.2004 499.483 24.0091L467.471 100.942Z" fill="#55142E" fill-opacity="0.3"/>
<path d="M397.692 22.8473V82.2253C397.692 87.7759 399.886 92.1647 402.339 94.23C406.469 97.4571 411.245 97.7153 412.278 97.7153H363.098C364.647 97.7153 377.426 97.1989 377.426 82.2253V22.8473C377.426 17.1677 375.231 12.7789 372.779 10.8427C371.617 9.80999 370.326 9.0355 368.648 8.51917C365.55 7.35742 364.518 7.35742 363.098 7.35742H412.278C410.342 7.35742 408.535 7.61559 404.533 9.29366C400.532 10.9717 397.692 15.7478 397.692 22.8473Z" fill="#55142E" fill-opacity="0.3"/>
<path d="M289.55 50.0842C291.099 61.1853 295.359 70.092 302.329 76.8043C309.3 83.3875 317.561 86.8727 327.113 87.0018C343.377 87.3891 350.09 77.7079 352.413 73.7063L353.059 72.1573C352.929 73.3191 352.671 74.739 350.09 80.0314C348.928 82.613 347.379 85.0656 345.572 87.26C342.087 91.5197 334.987 96.5539 326.726 98.4902C310.849 101.975 295.746 97.7157 285.936 89.0671C276.254 80.4186 270.058 68.0267 269.671 55.1184C269.413 45.3081 271.349 36.7887 275.609 29.431C284.258 14.5865 298.198 7.35785 314.592 6.19611C321.95 5.67978 329.307 6.3252 336.665 8.26144C341.828 9.68134 346.475 11.7467 348.024 12.7793L349.315 13.6829L349.057 39.1122C343.765 28.5274 336.794 20.0079 328.146 13.6829C319.497 7.22877 310.719 6.3252 301.813 11.1013C296.649 13.812 293.035 18.8462 290.841 26.2039C288.646 33.5616 288.259 41.5647 289.55 50.0842Z" fill="#55142E" fill-opacity="0.3"/>
<path d="M248.366 11.4886L248.495 35.8852C246.301 30.5928 241.912 25.0423 235.587 19.2336C230.94 15.1029 226.68 12.0049 220.613 9.55236C214.546 6.97071 209.641 7.22887 203.962 9.81052C198.927 12.7794 197.378 18.33 198.927 24.5259C200.993 32.2709 207.447 36.6597 220.871 39.7577C248.753 46.3409 258.305 57.7002 254.562 77.8371C251.335 95.1341 235.458 100.427 220.355 100.168C205.252 99.9102 192.861 96.8122 183.438 90.7453V60.2818C186.923 67.6395 191.957 74.7391 198.282 81.3223C204.736 87.9055 211.577 92.4234 218.935 94.6178C230.294 97.974 243.203 97.7158 244.623 87.131C245.268 82.0968 243.461 77.708 239.201 73.7064C235.071 69.7049 227.067 66.0906 215.192 62.8635C191.957 56.6675 184.083 46.2118 185.632 29.5602C186.406 21.428 190.021 15.4902 196.604 11.4886C203.187 7.48703 211.319 5.5508 221.13 5.67988C226.164 5.80897 230.811 6.3253 235.329 7.22887C239.847 8.13246 243.203 9.16511 245.268 10.0687L248.366 11.4886Z" fill="#55142E" fill-opacity="0.3"/>
<path d="M132.943 1.16174L169.989 86.3563C171.409 89.5833 173.346 92.0359 175.798 93.9722C180.961 97.5865 183.672 97.7155 186.254 97.7155H135.524C135.395 97.7155 150.111 95.6502 145.076 82.871L137.202 62.8632L108.159 62.7341L100.672 81.0639C97.1868 89.3252 101.059 97.0701 110.482 97.7155H80.5352C86.7311 97.3283 93.8307 91.6487 97.5741 82.4838L132.555 0L132.943 1.16174ZM123.391 30.9798C121.842 30.9798 119.389 35.3686 115.904 44.0172L108.933 61.0561H136.428L128.812 41.0483L127.65 38.0794C125.585 33.5615 124.165 31.238 123.391 30.9798ZM186.77 97.7155H186.254H186.77Z" fill="#55142E" fill-opacity="0.3"/>
<path d="M46.5988 96.5535H47.7606C54.4729 96.5535 62.2178 92.9392 70.8663 85.5815C79.5149 78.2238 85.1945 71.5115 87.6471 65.5737L81.193 97.7153H0C1.41991 97.7153 2.45257 97.7153 5.55055 96.5535C9.81028 95.0045 14.3282 90.7448 14.3282 80.9345V22.8473C14.3282 15.7478 11.7465 10.9717 8.1322 9.29366C4.64697 7.61559 2.83982 7.35742 1.16174 7.35742H48.0187C46.857 7.35742 45.6952 7.35742 42.7263 8.51917C38.9829 9.80999 34.7232 13.8116 34.7232 22.8473V81.3218C34.7232 91.5193 38.7248 96.5535 46.5988 96.5535Z" fill="#55142E" fill-opacity="0.3"/>
<path d="M1175.62 153.591H1204.28C1196.67 155.269 1190.34 160.69 1185.18 169.597L1171.11 195.155C1169.43 198.382 1168.53 203.029 1168.53 209.355V229.62C1168.53 235.429 1170.98 239.947 1174.21 241.625C1177.69 243.303 1179.5 243.82 1181.43 243.949H1135.35C1137.03 243.949 1139.22 243.432 1142.32 241.754C1145.55 240.076 1148 235.816 1148 230.137L1148.13 212.969C1148.13 206.644 1146.84 201.351 1144.39 197.35L1126.44 167.919C1120.25 157.98 1112.5 153.591 1108.5 153.591L1154.46 153.72C1147.1 153.849 1143.23 160.69 1147.23 168.048L1161.94 193.219C1164.91 198.512 1167.88 198.253 1170.98 192.445L1183.5 169.984C1188.28 161.336 1185.44 154.753 1175.62 153.591Z" fill="#55142E" fill-opacity="0.3"/>
<path d="M1069.61 247.176L1027.66 165.208C1023.92 157.463 1017.33 153.591 1007.91 153.591H1066.77L1064.84 153.849C1059.93 154.494 1049.86 157.98 1053.99 168.435C1056.96 175.277 1062.64 186.636 1070.77 202.771C1074 209.096 1076.58 212.323 1078.65 212.323C1081.62 212.323 1082.78 211.42 1085.49 204.708L1098.91 172.308C1101.11 167.015 1100.72 162.627 1098.01 159.141C1095.3 155.527 1090.78 153.72 1084.46 153.591H1118.53C1115.05 154.623 1113.11 155.398 1110.01 157.851C1106.92 160.303 1104.08 164.434 1101.62 170.242L1069.61 247.176Z" fill="#55142E" fill-opacity="0.3"/>
<path d="M999.832 169.081V228.459C999.832 234.009 1002.03 238.398 1004.48 240.463C1008.61 243.69 1013.39 243.949 1014.42 243.949H965.238C966.787 243.949 979.566 243.432 979.566 228.459V169.081C979.566 163.401 977.372 159.012 974.919 157.076C973.758 156.043 972.467 155.269 970.789 154.753C967.691 153.591 966.658 153.591 965.238 153.591H1014.42C1012.48 153.591 1010.68 153.849 1006.67 155.527C1002.67 157.205 999.832 161.981 999.832 169.081Z" fill="#55142E" fill-opacity="0.3"/>
<path d="M891.691 196.318C893.24 207.419 897.499 216.325 904.47 223.038C911.44 229.621 919.701 233.106 929.254 233.235C945.518 233.622 952.23 223.941 954.554 219.94L955.199 218.391C955.07 219.552 954.812 220.972 952.23 226.265C951.069 228.846 949.52 231.299 947.712 233.493C944.227 237.753 937.128 242.787 928.866 244.724C912.989 248.209 897.887 243.949 888.076 235.301C878.395 226.652 872.199 214.26 871.812 201.352C871.554 191.542 873.49 183.022 877.75 175.664C886.398 160.82 900.339 153.591 916.733 152.43C924.09 151.913 931.448 152.559 938.806 154.495C943.969 155.915 948.616 157.98 950.165 159.013L951.456 159.916L951.198 185.346C945.905 174.761 938.935 166.241 930.286 159.916C921.638 153.462 912.86 152.559 903.953 157.335C898.79 160.045 895.176 165.08 892.981 172.437C890.787 179.795 890.4 187.798 891.691 196.318Z" fill="#55142E" fill-opacity="0.3"/>
<path d="M850.507 157.722L850.636 182.119C848.441 176.826 844.053 171.276 837.727 165.467C833.081 161.336 828.821 158.238 822.754 155.786C816.687 153.204 811.782 153.462 806.102 156.044C801.068 159.013 799.519 164.563 801.068 170.759C803.133 178.504 809.587 182.893 823.012 185.991C850.894 192.574 860.446 203.934 856.703 224.07C853.476 241.368 837.598 246.66 822.496 246.402C807.393 246.144 795.001 243.046 785.578 236.979V206.515C789.063 213.873 794.098 220.972 800.423 227.556C806.877 234.139 813.718 238.657 821.076 240.851C832.435 244.207 845.343 243.949 846.763 233.364C847.409 228.33 845.602 223.941 841.342 219.94C837.211 215.938 829.208 212.324 817.332 209.097C794.098 202.901 786.224 192.445 787.773 175.794C788.547 167.661 792.161 161.724 798.745 157.722C805.328 153.72 813.46 151.784 823.27 151.913C828.304 152.042 832.951 152.559 837.469 153.462C841.987 154.366 845.343 155.399 847.409 156.302L850.507 157.722Z" fill="#55142E" fill-opacity="0.3"/>
<path d="M735.083 147.395L772.13 232.59C773.55 235.817 775.486 238.269 777.939 240.206C783.102 243.82 785.813 243.949 788.394 243.949H737.665C737.536 243.949 752.251 241.884 747.217 229.104L739.343 209.097L710.299 208.968L702.813 227.297C699.327 235.559 703.2 243.304 712.623 243.949H682.676C688.872 243.562 695.971 237.882 699.715 228.717L734.696 146.233L735.083 147.395ZM725.531 177.213C723.982 177.213 721.53 181.602 718.044 190.251L711.074 207.289H738.569L730.953 187.282L729.791 184.313C727.726 179.795 726.306 177.471 725.531 177.213ZM788.911 243.949H788.394H788.911Z" fill="#55142E" fill-opacity="0.3"/>
<path d="M648.739 242.787H649.901C656.613 242.787 664.358 239.173 673.007 231.815C681.656 224.457 687.335 217.745 689.788 211.807L683.334 243.949H602.141C603.561 243.949 604.593 243.949 607.691 242.787C611.951 241.238 616.469 236.978 616.469 227.168V169.081C616.469 161.981 613.887 157.205 610.273 155.527C606.788 153.849 604.98 153.591 603.302 153.591H650.159C648.998 153.591 647.836 153.591 644.867 154.753C641.124 156.043 636.864 160.045 636.864 169.081V227.555C636.864 237.753 640.865 242.787 648.739 242.787Z" fill="#55142E" fill-opacity="0.3"/>
<path d="M573.484 153.3H602.141C594.525 154.978 588.2 160.399 583.036 169.306L568.966 194.864C567.288 198.091 566.385 202.738 566.385 209.063V229.329C566.385 235.138 568.837 239.656 572.064 241.334C575.55 243.012 577.357 243.529 579.293 243.658H533.211C534.889 243.658 537.083 243.141 540.181 241.463C543.408 239.785 545.861 235.525 545.861 229.846L545.99 212.678C545.99 206.353 544.699 201.06 542.246 197.059L524.304 167.628C518.108 157.689 510.363 153.3 506.361 153.3L552.315 153.429C544.957 153.558 541.085 160.399 545.086 167.757L559.802 192.928C562.77 198.221 565.739 197.962 568.837 192.154L581.358 169.693C586.134 161.045 583.295 154.462 573.484 153.3Z" fill="#A12256" fill-opacity="0.2"/>
<path d="M467.471 246.885L425.519 164.917C421.776 157.172 415.193 153.3 405.77 153.3H464.631L462.695 153.558C457.79 154.203 447.721 157.689 451.852 168.144C454.821 174.986 460.501 186.345 468.633 202.48C471.86 208.805 474.441 212.032 476.507 212.032C479.476 212.032 480.637 211.129 483.348 204.417L496.773 172.017C498.967 166.724 498.58 162.336 495.869 158.85C493.158 155.236 488.641 153.429 482.315 153.3H516.393C512.908 154.332 510.972 155.107 507.874 157.56C504.776 160.012 501.936 164.143 499.483 169.951L467.471 246.885Z" fill="#A12256" fill-opacity="0.2"/>
<path d="M397.692 168.79V228.168C397.692 233.718 399.886 238.107 402.339 240.172C406.469 243.399 411.245 243.658 412.278 243.658H363.098C364.647 243.658 377.426 243.141 377.426 228.168V168.79C377.426 163.11 375.231 158.721 372.779 156.785C371.617 155.752 370.326 154.978 368.648 154.462C365.55 153.3 364.518 153.3 363.098 153.3H412.278C410.342 153.3 408.535 153.558 404.533 155.236C400.532 156.914 397.692 161.69 397.692 168.79Z" fill="#A12256" fill-opacity="0.2"/>
<path d="M289.55 196.027C291.099 207.128 295.359 216.034 302.329 222.747C309.3 229.33 317.561 232.815 327.113 232.944C343.377 233.331 350.09 223.65 352.413 219.649L353.059 218.1C352.929 219.261 352.671 220.681 350.09 225.974C348.928 228.555 347.379 231.008 345.572 233.202C342.087 237.462 334.987 242.496 326.726 244.433C310.849 247.918 295.746 243.658 285.936 235.01C276.254 226.361 270.058 213.969 269.671 201.061C269.413 191.251 271.349 182.731 275.609 175.373C284.258 160.529 298.198 153.3 314.592 152.138C321.95 151.622 329.307 152.268 336.665 154.204C341.828 155.624 346.475 157.689 348.024 158.722L349.315 159.625L349.057 185.055C343.765 174.47 336.794 165.95 328.146 159.625C319.497 153.171 310.719 152.268 301.813 157.044C296.649 159.754 293.035 164.789 290.841 172.146C288.646 179.504 288.259 187.507 289.55 196.027Z" fill="#A12256" fill-opacity="0.2"/>
<path d="M248.366 157.431L248.495 181.828C246.301 176.535 241.912 170.985 235.587 165.176C230.94 161.045 226.68 157.947 220.613 155.495C214.546 152.913 209.641 153.171 203.962 155.753C198.927 158.722 197.378 164.272 198.927 170.468C200.993 178.213 207.447 182.602 220.871 185.7C248.753 192.283 258.305 203.643 254.562 223.779C251.335 241.077 235.458 246.369 220.355 246.111C205.252 245.853 192.861 242.755 183.438 236.688V206.224C186.923 213.582 191.957 220.681 198.282 227.265C204.736 233.848 211.577 238.366 218.935 240.56C230.294 243.916 243.203 243.658 244.623 233.073C245.268 228.039 243.461 223.65 239.201 219.649C235.071 215.647 227.067 212.033 215.192 208.806C191.957 202.61 184.083 192.154 185.632 175.503C186.406 167.37 190.021 161.433 196.604 157.431C203.187 153.429 211.319 151.493 221.13 151.622C226.164 151.751 230.811 152.268 235.329 153.171C239.847 154.075 243.203 155.107 245.268 156.011L248.366 157.431Z" fill="#A12256" fill-opacity="0.2"/>
<path d="M132.943 147.104L169.989 232.299C171.409 235.526 173.346 237.978 175.798 239.915C180.961 243.529 183.672 243.658 186.254 243.658H135.524C135.395 243.658 150.111 241.593 145.076 228.813L137.202 208.806L108.159 208.677L100.672 227.006C97.1868 235.268 101.059 243.013 110.482 243.658H80.5352C86.7311 243.271 93.8307 237.591 97.5741 228.426L132.555 145.942L132.943 147.104ZM123.391 176.922C121.842 176.922 119.389 181.311 115.904 189.96L108.933 206.998H136.428L128.812 186.991L127.65 184.022C125.585 179.504 124.165 177.18 123.391 176.922ZM186.77 243.658H186.254H186.77Z" fill="#A12256" fill-opacity="0.2"/>
<path d="M46.5988 242.497H47.7606C54.4729 242.497 62.2178 238.883 70.8663 231.525C79.5149 224.167 85.1945 217.455 87.6471 211.517L81.193 243.659H0C1.41991 243.659 2.45257 243.659 5.55055 242.497C9.81028 240.948 14.3282 236.688 14.3282 226.878V168.791C14.3282 161.691 11.7465 156.915 8.1322 155.237C4.64697 153.559 2.83982 153.301 1.16174 153.301H48.0187C46.857 153.301 45.6952 153.301 42.7263 154.463C38.9829 155.753 34.7232 159.755 34.7232 168.791V227.265C34.7232 237.463 38.7248 242.497 46.5988 242.497Z" fill="#A12256" fill-opacity="0.2"/>
<path d="M1175.62 7.35742H1204.28C1196.67 9.0355 1190.34 14.457 1185.18 23.3637L1171.11 48.922C1169.43 52.1491 1168.53 56.7961 1168.53 63.1211V83.3871C1168.53 89.1958 1170.98 93.7137 1174.21 95.3918C1177.69 97.0698 1179.5 97.5862 1181.43 97.7153H1135.35C1137.03 97.7153 1139.22 97.1989 1142.32 95.5208C1145.55 93.8428 1148 89.583 1148 83.9034L1148.13 66.7354C1148.13 60.4104 1146.84 55.118 1144.39 51.1164L1126.44 21.6856C1120.25 11.7462 1112.5 7.35742 1108.5 7.35742L1154.46 7.4865C1147.1 7.61559 1143.23 14.457 1147.23 21.8147L1161.94 46.9858C1164.91 52.2782 1167.88 52.02 1170.98 46.2113L1183.5 23.7509C1188.28 15.1024 1185.44 8.51917 1175.62 7.35742Z" fill="#A12256" fill-opacity="0.2"/>
<path d="M1069.61 100.942L1027.66 18.9749C1023.92 11.2299 1017.33 7.35742 1007.91 7.35742H1066.77L1064.84 7.61559C1059.93 8.261 1049.86 11.7462 1053.99 22.2019C1056.96 29.0433 1062.64 40.4026 1070.77 56.5379C1074 62.8629 1076.58 66.09 1078.65 66.09C1081.62 66.09 1082.78 65.1864 1085.49 58.4741L1098.91 26.0744C1101.11 20.782 1100.72 16.3932 1098.01 12.908C1095.3 9.29366 1090.78 7.4865 1084.46 7.35742H1118.53C1115.05 8.39008 1113.11 9.16458 1110.01 11.6171C1106.92 14.0697 1104.08 18.2004 1101.62 24.0091L1069.61 100.942Z" fill="#A12256" fill-opacity="0.2"/>
<path d="M999.832 22.8473V82.2253C999.832 87.7759 1002.03 92.1647 1004.48 94.23C1008.61 97.4571 1013.39 97.7153 1014.42 97.7153H965.238C966.787 97.7153 979.566 97.1989 979.566 82.2253V22.8473C979.566 17.1677 977.372 12.7789 974.919 10.8427C973.758 9.80999 972.467 9.0355 970.789 8.51917C967.691 7.35742 966.658 7.35742 965.238 7.35742H1014.42C1012.48 7.35742 1010.68 7.61559 1006.67 9.29366C1002.67 10.9717 999.832 15.7478 999.832 22.8473Z" fill="#A12256" fill-opacity="0.2"/>
<path d="M891.691 50.0842C893.24 61.1853 897.499 70.092 904.47 76.8043C911.44 83.3875 919.701 86.8727 929.254 87.0018C945.518 87.3891 952.23 77.7079 954.554 73.7063L955.199 72.1573C955.07 73.3191 954.812 74.739 952.23 80.0314C951.069 82.613 949.52 85.0656 947.712 87.26C944.227 91.5197 937.128 96.5539 928.866 98.4902C912.989 101.975 897.887 97.7157 888.076 89.0671C878.395 80.4186 872.199 68.0267 871.812 55.1184C871.554 45.3081 873.49 36.7887 877.75 29.431C886.398 14.5865 900.339 7.35785 916.733 6.19611C924.09 5.67978 931.448 6.3252 938.806 8.26144C943.969 9.68134 948.616 11.7467 950.165 12.7793L951.456 13.6829L951.198 39.1122C945.905 28.5274 938.935 20.0079 930.286 13.6829C921.638 7.22877 912.86 6.3252 903.953 11.1013C898.79 13.812 895.176 18.8462 892.981 26.2039C890.787 33.5616 890.4 41.5647 891.691 50.0842Z" fill="#A12256" fill-opacity="0.2"/>
<path d="M850.507 11.4886L850.636 35.8852C848.441 30.5928 844.053 25.0423 837.727 19.2336C833.081 15.1029 828.821 12.0049 822.754 9.55236C816.687 6.97071 811.782 7.22887 806.102 9.81052C801.068 12.7794 799.519 18.33 801.068 24.5259C803.133 32.2709 809.587 36.6597 823.012 39.7577C850.894 46.3409 860.446 57.7002 856.703 77.8371C853.476 95.1341 837.598 100.427 822.496 100.168C807.393 99.9102 795.001 96.8122 785.578 90.7453V60.2818C789.063 67.6395 794.098 74.7391 800.423 81.3223C806.877 87.9055 813.718 92.4234 821.076 94.6178C832.435 97.974 845.343 97.7158 846.763 87.131C847.409 82.0968 845.602 77.708 841.342 73.7064C837.211 69.7049 829.208 66.0906 817.332 62.8635C794.098 56.6675 786.224 46.2118 787.773 29.5602C788.547 21.428 792.161 15.4902 798.745 11.4886C805.328 7.48703 813.46 5.5508 823.27 5.67988C828.304 5.80897 832.951 6.3253 837.469 7.22887C841.987 8.13246 845.343 9.16511 847.409 10.0687L850.507 11.4886Z" fill="#A12256" fill-opacity="0.2"/>
<path d="M735.083 1.16174L772.13 86.3563C773.55 89.5833 775.486 92.0359 777.939 93.9722C783.102 97.5865 785.813 97.7155 788.394 97.7155H737.665C737.536 97.7155 752.251 95.6502 747.217 82.871L739.343 62.8632L710.299 62.7341L702.813 81.0639C699.327 89.3252 703.2 97.0701 712.623 97.7155H682.676C688.872 97.3283 695.971 91.6487 699.715 82.4838L734.696 0L735.083 1.16174ZM725.531 30.9798C723.982 30.9798 721.53 35.3686 718.044 44.0172L711.074 61.0561H738.569L730.953 41.0483L729.791 38.0794C727.726 33.5615 726.306 31.238 725.531 30.9798ZM788.911 97.7155H788.394H788.911Z" fill="#A12256" fill-opacity="0.2"/>
<path d="M648.739 96.5535H649.901C656.613 96.5535 664.358 92.9392 673.007 85.5815C681.656 78.2238 687.335 71.5115 689.788 65.5737L683.334 97.7153H602.141C603.561 97.7153 604.593 97.7153 607.691 96.5535C611.951 95.0045 616.469 90.7448 616.469 80.9345V22.8473C616.469 15.7478 613.887 10.9717 610.273 9.29366C606.788 7.61559 604.98 7.35742 603.302 7.35742H650.159C648.998 7.35742 647.836 7.35742 644.867 8.51917C641.124 9.80999 636.864 13.8116 636.864 22.8473V81.3218C636.864 91.5193 640.865 96.5535 648.739 96.5535Z" fill="#A12256" fill-opacity="0.2"/>
<path d="M573.484 299.534H602.141C594.525 301.212 588.2 306.634 583.036 315.54L568.966 341.099C567.288 344.326 566.385 348.973 566.385 355.298V375.564C566.385 381.373 568.837 385.89 572.064 387.569C575.55 389.247 577.357 389.763 579.293 389.892H533.211C534.889 389.892 537.083 389.376 540.181 387.698C543.408 386.02 545.861 381.76 545.861 376.08L545.99 358.912C545.99 352.587 544.699 347.295 542.246 343.293L524.304 313.862C518.108 303.923 510.363 299.534 506.361 299.534L552.315 299.663C544.957 299.792 541.085 306.634 545.086 313.991L559.802 339.163C562.77 344.455 565.739 344.197 568.837 338.388L581.358 315.928C586.134 307.279 583.295 300.696 573.484 299.534Z" fill="#55142E" fill-opacity="0.3"/>
<path d="M467.471 393.119L425.519 311.152C421.776 303.407 415.193 299.534 405.77 299.534H464.631L462.695 299.792C457.79 300.438 447.721 303.923 451.852 314.379C454.821 321.22 460.501 332.579 468.633 348.715C471.86 355.04 474.441 358.267 476.507 358.267C479.476 358.267 480.637 357.363 483.348 350.651L496.773 318.251C498.967 312.959 498.58 308.57 495.869 305.085C493.158 301.47 488.641 299.663 482.315 299.534H516.393C512.908 300.567 510.972 301.341 507.874 303.794C504.776 306.246 501.936 310.377 499.483 316.186L467.471 393.119Z" fill="#55142E" fill-opacity="0.3"/>
<path d="M397.692 315.024V374.402C397.692 379.953 399.886 384.341 402.339 386.407C406.469 389.634 411.245 389.892 412.278 389.892H363.098C364.647 389.892 377.426 389.376 377.426 374.402V315.024C377.426 309.344 375.231 304.956 372.779 303.019C371.617 301.987 370.326 301.212 368.648 300.696C365.55 299.534 364.518 299.534 363.098 299.534H412.278C410.342 299.534 408.535 299.792 404.533 301.47C400.532 303.148 397.692 307.925 397.692 315.024Z" fill="#55142E" fill-opacity="0.3"/>
<path d="M289.55 342.261C291.099 353.362 295.359 362.269 302.329 368.981C309.3 375.564 317.561 379.049 327.113 379.179C343.377 379.566 350.09 369.885 352.413 365.883L353.059 364.334C352.929 365.496 352.671 366.916 350.09 372.208C348.928 374.79 347.379 377.242 345.572 379.437C342.087 383.696 334.987 388.731 326.726 390.667C310.849 394.152 295.746 389.892 285.936 381.244C276.254 372.595 270.058 360.203 269.671 347.295C269.413 337.485 271.349 328.965 275.609 321.608C284.258 306.763 298.198 299.535 314.592 298.373C321.95 297.857 329.307 298.502 336.665 300.438C341.828 301.858 346.475 303.923 348.024 304.956L349.315 305.86L349.057 331.289C343.765 320.704 336.794 312.185 328.146 305.86C319.497 299.406 310.719 298.502 301.813 303.278C296.649 305.989 293.035 311.023 290.841 318.381C288.646 325.738 288.259 333.741 289.55 342.261Z" fill="#55142E" fill-opacity="0.3"/>
<path d="M248.366 303.664L248.495 328.061C246.301 322.769 241.912 317.218 235.587 311.409C230.94 307.279 226.68 304.181 220.613 301.728C214.546 299.146 209.641 299.405 203.962 301.986C198.927 304.955 197.378 310.506 198.927 316.702C200.993 324.447 207.447 328.835 220.871 331.933C248.753 338.517 258.305 349.876 254.562 370.013C251.335 387.31 235.458 392.602 220.355 392.344C205.252 392.086 192.861 388.988 183.438 382.921V352.458C186.923 359.815 191.957 366.915 198.282 373.498C204.736 380.081 211.577 384.599 218.935 386.794C230.294 390.15 243.203 389.892 244.623 379.307C245.268 374.273 243.461 369.884 239.201 365.882C235.071 361.881 227.067 358.266 215.192 355.039C191.957 348.843 184.083 338.388 185.632 321.736C186.406 313.604 190.021 307.666 196.604 303.664C203.187 299.663 211.319 297.727 221.13 297.856C226.164 297.985 230.811 298.501 235.329 299.405C239.847 300.308 243.203 301.341 245.268 302.244L248.366 303.664Z" fill="#55142E" fill-opacity="0.3"/>
<path d="M132.943 293.338L169.989 378.532C171.409 381.759 173.346 384.212 175.798 386.148C180.961 389.762 183.672 389.891 186.254 389.891H135.524C135.395 389.891 150.111 387.826 145.076 375.047L137.202 355.039L108.159 354.91L100.672 373.24C97.1868 381.501 101.059 389.246 110.482 389.891H80.5352C86.7311 389.504 93.8307 383.824 97.5741 374.66L132.555 292.176L132.943 293.338ZM123.391 323.156C121.842 323.156 119.389 327.544 115.904 336.193L108.933 353.232H136.428L128.812 333.224L127.65 330.255C125.585 325.737 124.165 323.414 123.391 323.156ZM186.77 389.891H186.254H186.77Z" fill="#55142E" fill-opacity="0.3"/>
<path d="M46.5988 388.73H47.7606C54.4729 388.73 62.2178 385.116 70.8663 377.758C79.5149 370.401 85.1945 363.688 87.6471 357.75L81.193 389.892H0C1.41991 389.892 2.45257 389.892 5.55055 388.73C9.81028 387.181 14.3282 382.922 14.3282 373.111V315.024C14.3282 307.925 11.7465 303.148 8.1322 301.47C4.64697 299.792 2.83982 299.534 1.16174 299.534H48.0187C46.857 299.534 45.6952 299.534 42.7263 300.696C38.9829 301.987 34.7232 305.988 34.7232 315.024V373.499C34.7232 383.696 38.7248 388.73 46.5988 388.73Z" fill="#55142E" fill-opacity="0.3"/>
<path d="M1175.62 445.885H1204.28C1196.67 447.563 1190.34 452.984 1185.18 461.891L1171.11 487.449C1169.43 490.676 1168.53 495.323 1168.53 501.648V521.914C1168.53 527.723 1170.98 532.241 1174.21 533.919C1177.69 535.597 1179.5 536.114 1181.43 536.243H1135.35C1137.03 536.243 1139.22 535.726 1142.32 534.048C1145.55 532.37 1148 528.11 1148 522.431L1148.13 505.263C1148.13 498.938 1146.84 493.645 1144.39 489.644L1126.44 460.213C1120.25 450.274 1112.5 445.885 1108.5 445.885L1154.46 446.014C1147.1 446.143 1143.23 452.984 1147.23 460.342L1161.94 485.513C1164.91 490.806 1167.88 490.547 1170.98 484.739L1183.5 462.278C1188.28 453.63 1185.44 447.047 1175.62 445.885Z" fill="#55142E" fill-opacity="0.3"/>
<path d="M1069.61 539.47L1027.66 457.502C1023.92 449.757 1017.33 445.885 1007.91 445.885H1066.77L1064.84 446.143C1059.93 446.788 1049.86 450.274 1053.99 460.729C1056.96 467.571 1062.64 478.93 1070.77 495.065C1074 501.39 1076.58 504.617 1078.65 504.617C1081.62 504.617 1082.78 503.714 1085.49 497.001L1098.91 464.602C1101.11 459.309 1100.72 454.921 1098.01 451.435C1095.3 447.821 1090.78 446.014 1084.46 445.885H1118.53C1115.05 446.917 1113.11 447.692 1110.01 450.144C1106.92 452.597 1104.08 456.728 1101.62 462.536L1069.61 539.47Z" fill="#55142E" fill-opacity="0.3"/>
<path d="M999.832 461.375V520.753C999.832 526.303 1002.03 530.692 1004.48 532.757C1008.61 535.984 1013.39 536.243 1014.42 536.243H965.238C966.787 536.243 979.566 535.726 979.566 520.753V461.375C979.566 455.695 977.372 451.306 974.919 449.37C973.758 448.337 972.467 447.563 970.789 447.047C967.691 445.885 966.658 445.885 965.238 445.885H1014.42C1012.48 445.885 1010.68 446.143 1006.67 447.821C1002.67 449.499 999.832 454.275 999.832 461.375Z" fill="#55142E" fill-opacity="0.3"/>
<path d="M891.691 488.612C893.24 499.713 897.499 508.619 904.47 515.332C911.44 521.915 919.701 525.4 929.254 525.529C945.518 525.916 952.23 516.235 954.554 512.234L955.199 510.685C955.07 511.846 954.812 513.266 952.23 518.559C951.069 521.14 949.52 523.593 947.712 525.787C944.227 530.047 937.128 535.081 928.866 537.018C912.989 540.503 897.887 536.243 888.076 527.594C878.395 518.946 872.199 506.554 871.812 493.646C871.554 483.835 873.49 475.316 877.75 467.958C886.398 453.114 900.339 445.885 916.733 444.723C924.09 444.207 931.448 444.853 938.806 446.789C943.969 448.209 948.616 450.274 950.165 451.307L951.456 452.21L951.198 477.64C945.905 467.055 938.935 458.535 930.286 452.21C921.638 445.756 912.86 444.853 903.953 449.629C898.79 452.339 895.176 457.374 892.981 464.731C890.787 472.089 890.4 480.092 891.691 488.612Z" fill="#55142E" fill-opacity="0.3"/>
<path d="M850.507 450.016L850.636 474.413C848.441 469.12 844.053 463.57 837.727 457.761C833.081 453.63 828.821 450.532 822.754 448.08C816.687 445.498 811.782 445.756 806.102 448.338C801.068 451.307 799.519 456.857 801.068 463.053C803.133 470.798 809.587 475.187 823.012 478.285C850.894 484.868 860.446 496.228 856.703 516.364C853.476 533.661 837.598 538.954 822.496 538.696C807.393 538.438 795.001 535.34 785.578 529.273V498.809C789.063 506.167 794.098 513.266 800.423 519.85C806.877 526.433 813.718 530.951 821.076 533.145C832.435 536.501 845.343 536.243 846.763 525.658C847.409 520.624 845.602 516.235 841.342 512.234C837.211 508.232 829.208 504.618 817.332 501.391C794.098 495.195 786.224 484.739 787.773 468.088C788.547 459.955 792.161 454.018 798.745 450.016C805.328 446.014 813.46 444.078 823.27 444.207C828.304 444.336 832.951 444.853 837.469 445.756C841.987 446.66 845.343 447.692 847.409 448.596L850.507 450.016Z" fill="#55142E" fill-opacity="0.3"/>
<path d="M735.083 439.689L772.13 524.884C773.55 528.111 775.486 530.563 777.939 532.499C783.102 536.114 785.813 536.243 788.394 536.243H737.665C737.536 536.243 752.251 534.178 747.217 521.398L739.343 501.391L710.299 501.261L702.813 519.591C699.327 527.853 703.2 535.597 712.623 536.243H682.676C688.872 535.856 695.971 530.176 699.715 521.011L734.696 438.527L735.083 439.689ZM725.531 469.507C723.982 469.507 721.53 473.896 718.044 482.545L711.074 499.583H738.569L730.953 479.576L729.791 476.607C727.726 472.089 726.306 469.765 725.531 469.507ZM788.911 536.243H788.394H788.911Z" fill="#55142E" fill-opacity="0.3"/>
<path d="M648.739 535.081H649.901C656.613 535.081 664.358 531.467 673.007 524.109C681.656 516.751 687.335 510.039 689.788 504.101L683.334 536.243H602.141C603.561 536.243 604.593 536.243 607.691 535.081C611.951 533.532 616.469 529.272 616.469 519.462V461.375C616.469 454.275 613.887 449.499 610.273 447.821C606.788 446.143 604.98 445.885 603.302 445.885H650.159C648.998 445.885 647.836 445.885 644.867 447.047C641.124 448.337 636.864 452.339 636.864 461.375V519.849C636.864 530.047 640.865 535.081 648.739 535.081Z" fill="#55142E" fill-opacity="0.3"/>
<path d="M573.484 445.477H602.141C594.525 447.155 588.2 452.576 583.036 461.483L568.966 487.041C567.288 490.268 566.385 494.915 566.385 501.24V521.506C566.385 527.315 568.837 531.833 572.064 533.511C575.55 535.189 577.357 535.705 579.293 535.834H533.211C534.889 535.834 537.083 535.318 540.181 533.64C543.408 531.962 545.861 527.702 545.861 522.023L545.99 504.855C545.99 498.53 544.699 493.237 542.246 489.236L524.304 459.805C518.108 449.865 510.363 445.477 506.361 445.477L552.315 445.606C544.957 445.735 541.085 452.576 545.086 459.934L559.802 485.105C562.77 490.397 565.739 490.139 568.837 484.33L581.358 461.87C586.134 453.222 583.295 446.638 573.484 445.477Z" fill="#A12256" fill-opacity="0.2"/>
<path d="M467.471 539.061L425.519 457.094C421.776 449.349 415.193 445.477 405.77 445.477H464.631L462.695 445.735C457.79 446.38 447.721 449.865 451.852 460.321C454.821 467.162 460.501 478.522 468.633 494.657C471.86 500.982 474.441 504.209 476.507 504.209C479.476 504.209 480.637 503.306 483.348 496.593L496.773 464.194C498.967 458.901 498.58 454.512 495.869 451.027C493.158 447.413 488.641 445.606 482.315 445.477H516.393C512.908 446.509 510.972 447.284 507.874 449.736C504.776 452.189 501.936 456.32 499.483 462.128L467.471 539.061Z" fill="#A12256" fill-opacity="0.2"/>
<path d="M397.692 460.966V520.344C397.692 525.895 399.886 530.284 402.339 532.349C406.469 535.576 411.245 535.834 412.278 535.834H363.098C364.647 535.834 377.426 535.318 377.426 520.344V460.966C377.426 455.287 375.231 450.898 372.779 448.962C371.617 447.929 370.326 447.155 368.648 446.638C365.55 445.477 364.518 445.477 363.098 445.477H412.278C410.342 445.477 408.535 445.735 404.533 447.413C400.532 449.091 397.692 453.867 397.692 460.966Z" fill="#A12256" fill-opacity="0.2"/>
<path d="M289.55 488.203C291.099 499.304 295.359 508.211 302.329 514.923C309.3 521.507 317.561 524.992 327.113 525.121C343.377 525.508 350.09 515.827 352.413 511.825L353.059 510.276C352.929 511.438 352.671 512.858 350.09 518.151C348.928 520.732 347.379 523.185 345.572 525.379C342.087 529.639 334.987 534.673 326.726 536.609C310.849 540.095 295.746 535.835 285.936 527.186C276.254 518.538 270.058 506.146 269.671 493.238C269.413 483.427 271.349 474.908 275.609 467.55C284.258 452.706 298.198 445.477 314.592 444.315C321.95 443.799 329.307 444.444 336.665 446.381C341.828 447.8 346.475 449.866 348.024 450.898L349.315 451.802L349.057 477.231C343.765 466.647 336.794 458.127 328.146 451.802C319.497 445.348 310.719 444.444 301.813 449.22C296.649 451.931 293.035 456.965 290.841 464.323C288.646 471.681 288.259 479.684 289.55 488.203Z" fill="#A12256" fill-opacity="0.2"/>
<path d="M248.366 449.606L248.495 474.002C246.301 468.71 241.912 463.159 235.587 457.351C230.94 453.22 226.68 450.122 220.613 447.67C214.546 445.088 209.641 445.346 203.962 447.928C198.927 450.897 197.378 456.447 198.927 462.643C200.993 470.388 207.447 474.777 220.871 477.875C248.753 484.458 258.305 495.817 254.562 515.954C251.335 533.251 235.458 538.544 220.355 538.286C205.252 538.027 192.861 534.929 183.438 528.863V498.399C186.923 505.757 191.957 512.856 198.282 519.439C204.736 526.023 211.577 530.541 218.935 532.735C230.294 536.091 243.203 535.833 244.623 525.248C245.268 520.214 243.461 515.825 239.201 511.824C235.071 507.822 227.067 504.208 215.192 500.981C191.957 494.785 184.083 484.329 185.632 467.677C186.406 459.545 190.021 453.607 196.604 449.606C203.187 445.604 211.319 443.668 221.13 443.797C226.164 443.926 230.811 444.442 235.329 445.346C239.847 446.25 243.203 447.282 245.268 448.186L248.366 449.606Z" fill="#A12256" fill-opacity="0.2"/>
<path d="M132.943 439.28L169.989 524.474C171.409 527.702 173.346 530.154 175.798 532.09C180.961 535.705 183.672 535.834 186.254 535.834H135.524C135.395 535.834 150.111 533.768 145.076 520.989L137.202 500.981L108.159 500.852L100.672 519.182C97.1868 527.443 101.059 535.188 110.482 535.834H80.5352C86.7311 535.446 93.8307 529.767 97.5741 520.602L132.555 438.118L132.943 439.28ZM123.391 469.098C121.842 469.098 119.389 473.487 115.904 482.135L108.933 499.174H136.428L128.812 479.166L127.65 476.198C125.585 471.68 124.165 469.356 123.391 469.098ZM186.77 535.834H186.254H186.77Z" fill="#A12256" fill-opacity="0.2"/>
<path d="M46.5988 534.673H47.7606C54.4729 534.673 62.2178 531.058 70.8663 523.701C79.5149 516.343 85.1945 509.631 87.6471 503.693L81.193 535.834H0C1.41991 535.834 2.45257 535.834 5.55055 534.673C9.81028 533.124 14.3282 528.864 14.3282 519.054V460.966C14.3282 453.867 11.7465 449.091 8.1322 447.413C4.64697 445.735 2.83982 445.477 1.16174 445.477H48.0187C46.857 445.477 45.6952 445.477 42.7263 446.638C38.9829 447.929 34.7232 451.931 34.7232 460.966V519.441C34.7232 529.638 38.7248 534.673 46.5988 534.673Z" fill="#A12256" fill-opacity="0.2"/>
<path d="M1175.62 299.534H1204.28C1196.67 301.212 1190.34 306.634 1185.18 315.54L1171.11 341.099C1169.43 344.326 1168.53 348.973 1168.53 355.298V375.564C1168.53 381.373 1170.98 385.89 1174.21 387.569C1177.69 389.247 1179.5 389.763 1181.43 389.892H1135.35C1137.03 389.892 1139.22 389.376 1142.32 387.698C1145.55 386.02 1148 381.76 1148 376.08L1148.13 358.912C1148.13 352.587 1146.84 347.295 1144.39 343.293L1126.44 313.862C1120.25 303.923 1112.5 299.534 1108.5 299.534L1154.46 299.663C1147.1 299.792 1143.23 306.634 1147.23 313.991L1161.94 339.163C1164.91 344.455 1167.88 344.197 1170.98 338.388L1183.5 315.928C1188.28 307.279 1185.44 300.696 1175.62 299.534Z" fill="#A12256" fill-opacity="0.2"/>
<path d="M1069.61 393.119L1027.66 311.152C1023.92 303.407 1017.33 299.534 1007.91 299.534H1066.77L1064.84 299.792C1059.93 300.438 1049.86 303.923 1053.99 314.379C1056.96 321.22 1062.64 332.579 1070.77 348.715C1074 355.04 1076.58 358.267 1078.65 358.267C1081.62 358.267 1082.78 357.363 1085.49 350.651L1098.91 318.251C1101.11 312.959 1100.72 308.57 1098.01 305.085C1095.3 301.47 1090.78 299.663 1084.46 299.534H1118.53C1115.05 300.567 1113.11 301.341 1110.01 303.794C1106.92 306.246 1104.08 310.377 1101.62 316.186L1069.61 393.119Z" fill="#A12256" fill-opacity="0.2"/>
<path d="M999.832 315.024V374.402C999.832 379.953 1002.03 384.341 1004.48 386.407C1008.61 389.634 1013.39 389.892 1014.42 389.892H965.238C966.787 389.892 979.566 389.376 979.566 374.402V315.024C979.566 309.344 977.372 304.956 974.919 303.019C973.758 301.987 972.467 301.212 970.789 300.696C967.691 299.534 966.658 299.534 965.238 299.534H1014.42C1012.48 299.534 1010.68 299.792 1006.67 301.47C1002.67 303.148 999.832 307.925 999.832 315.024Z" fill="#A12256" fill-opacity="0.2"/>
<path d="M891.691 342.261C893.24 353.362 897.499 362.269 904.47 368.981C911.44 375.564 919.701 379.049 929.254 379.179C945.518 379.566 952.23 369.885 954.554 365.883L955.199 364.334C955.07 365.496 954.812 366.916 952.23 372.208C951.069 374.79 949.52 377.242 947.712 379.437C944.227 383.696 937.128 388.731 928.866 390.667C912.989 394.152 897.887 389.892 888.076 381.244C878.395 372.595 872.199 360.203 871.812 347.295C871.554 337.485 873.49 328.965 877.75 321.608C886.398 306.763 900.339 299.535 916.733 298.373C924.09 297.857 931.448 298.502 938.806 300.438C943.969 301.858 948.616 303.923 950.165 304.956L951.456 305.86L951.198 331.289C945.905 320.704 938.935 312.185 930.286 305.86C921.638 299.406 912.86 298.502 903.953 303.278C898.79 305.989 895.176 311.023 892.981 318.381C890.787 325.738 890.4 333.741 891.691 342.261Z" fill="#A12256" fill-opacity="0.2"/>
<path d="M850.507 303.663L850.636 328.06C848.441 322.768 844.053 317.217 837.727 311.408C833.081 307.278 828.821 304.18 822.754 301.727C816.687 299.146 811.782 299.404 806.102 301.985C801.068 304.954 799.519 310.505 801.068 316.701C803.133 324.446 809.587 328.835 823.012 331.932C850.894 338.516 860.446 349.875 856.703 370.012C853.476 387.309 837.598 392.601 822.496 392.343C807.393 392.085 795.001 388.987 785.578 382.92V352.457C789.063 359.814 794.098 366.914 800.423 373.497C806.877 380.08 813.718 384.598 821.076 386.793C832.435 390.149 845.343 389.891 846.763 379.306C847.409 374.272 845.602 369.883 841.342 365.881C837.211 361.88 829.208 358.265 817.332 355.038C794.098 348.842 786.224 338.387 787.773 321.735C788.547 313.603 792.161 307.665 798.745 303.663C805.328 299.662 813.46 297.726 823.27 297.855C828.304 297.984 832.951 298.5 837.469 299.404C841.987 300.307 845.343 301.34 847.409 302.243L850.507 303.663Z" fill="#A12256" fill-opacity="0.2"/>
<path d="M735.083 293.338L772.13 378.532C773.55 381.759 775.486 384.212 777.939 386.148C783.102 389.762 785.813 389.891 788.394 389.891H737.665C737.536 389.891 752.251 387.826 747.217 375.047L739.343 355.039L710.299 354.91L702.813 373.24C699.327 381.501 703.2 389.246 712.623 389.891H682.676C688.872 389.504 695.971 383.824 699.715 374.66L734.696 292.176L735.083 293.338ZM725.531 323.156C723.982 323.156 721.53 327.544 718.044 336.193L711.074 353.232H738.569L730.953 333.224L729.791 330.255C727.726 325.737 726.306 323.414 725.531 323.156ZM788.911 389.891H788.394H788.911Z" fill="#A12256" fill-opacity="0.2"/>
<path d="M648.739 388.73H649.901C656.613 388.73 664.358 385.116 673.007 377.758C681.656 370.401 687.335 363.688 689.788 357.75L683.334 389.892H602.141C603.561 389.892 604.593 389.892 607.691 388.73C611.951 387.181 616.469 382.922 616.469 373.111V315.024C616.469 307.925 613.887 303.148 610.273 301.47C606.788 299.792 604.98 299.534 603.302 299.534H650.159C648.998 299.534 647.836 299.534 644.867 300.696C641.124 301.987 636.864 305.988 636.864 315.024V373.499C636.864 383.696 640.865 388.73 648.739 388.73Z" fill="#A12256" fill-opacity="0.2"/>
<path d="M573.486 737.943H602.143C594.527 739.621 588.202 745.043 583.038 753.95L568.968 779.508C567.29 782.735 566.387 787.382 566.387 793.707V813.973C566.387 819.782 568.839 824.3 572.066 825.978C575.552 827.656 577.359 828.172 579.295 828.301H533.212C534.891 828.301 537.085 827.785 540.183 826.107C543.41 824.429 545.863 820.169 545.863 814.489L545.992 797.321C545.992 790.996 544.701 785.704 542.248 781.702L524.306 752.272C518.11 742.332 510.365 737.943 506.363 737.943L552.317 738.072C544.959 738.202 541.087 745.043 545.088 752.401L559.803 777.572C562.772 782.864 565.741 782.606 568.839 776.797L581.36 754.337C586.136 745.688 583.297 739.105 573.486 737.943Z" fill="#A12256" fill-opacity="0.2"/>
<path d="M467.471 831.528L425.519 749.561C421.776 741.816 415.193 737.943 405.77 737.943H464.631L462.695 738.202C457.79 738.847 447.721 742.332 451.852 752.788C454.821 759.629 460.501 770.989 468.633 787.124C471.86 793.449 474.441 796.676 476.507 796.676C479.476 796.676 480.637 795.772 483.348 789.06L496.773 756.66C498.967 751.368 498.58 746.979 495.869 743.494C493.158 739.88 488.641 738.072 482.315 737.943H516.393C512.908 738.976 510.972 739.751 507.874 742.203C504.776 744.656 501.936 748.786 499.483 754.595L467.471 831.528Z" fill="#A12256" fill-opacity="0.2"/>
<path d="M397.692 753.433V812.811C397.692 818.362 399.886 822.751 402.339 824.816C406.469 828.043 411.245 828.301 412.278 828.301H363.098C364.647 828.301 377.426 827.785 377.426 812.811V753.433C377.426 747.754 375.231 743.365 372.779 741.429C371.617 740.396 370.326 739.621 368.648 739.105C365.55 737.943 364.518 737.943 363.098 737.943H412.278C410.342 737.943 408.535 738.202 404.533 739.88C400.532 741.558 397.692 746.334 397.692 753.433Z" fill="#A12256" fill-opacity="0.2"/>
<path d="M289.55 780.669C291.099 791.77 295.359 800.677 302.329 807.389C309.3 813.972 317.561 817.458 327.113 817.587C343.377 817.974 350.09 808.293 352.413 804.291L353.059 802.742C352.929 803.904 352.671 805.324 350.09 810.616C348.928 813.198 347.379 815.651 345.572 817.845C342.087 822.105 334.987 827.139 326.726 829.075C310.849 832.56 295.746 828.301 285.936 819.652C276.254 811.004 270.058 798.612 269.671 785.703C269.413 775.893 271.349 767.374 275.609 760.016C284.258 745.171 298.198 737.943 314.592 736.781C321.95 736.265 329.307 736.91 336.665 738.846C341.828 740.266 346.475 742.332 348.024 743.364L349.315 744.268L349.057 769.697C343.765 759.112 336.794 750.593 328.146 744.268C319.497 737.814 310.719 736.91 301.813 741.686C296.649 744.397 293.035 749.431 290.841 756.789C288.646 764.147 288.259 772.15 289.55 780.669Z" fill="#A12256" fill-opacity="0.2"/>
<path d="M248.366 742.075L248.495 766.471C246.301 761.179 241.912 755.628 235.587 749.819C230.94 745.689 226.68 742.591 220.613 740.138C214.546 737.557 209.641 737.815 203.962 740.396C198.927 743.365 197.378 748.916 198.927 755.112C200.993 762.857 207.447 767.246 220.871 770.344C248.753 776.927 258.305 788.286 254.562 808.423C251.335 825.72 235.458 831.012 220.355 830.754C205.252 830.496 192.861 827.398 183.438 821.331V790.868C186.923 798.225 191.957 805.325 198.282 811.908C204.736 818.491 211.577 823.009 218.935 825.204C230.294 828.56 243.203 828.302 244.623 817.717C245.268 812.683 243.461 808.294 239.201 804.292C235.071 800.291 227.067 796.676 215.192 793.449C191.957 787.253 184.083 776.798 185.632 760.146C186.406 752.014 190.021 746.076 196.604 742.075C203.187 738.073 211.319 736.137 221.13 736.266C226.164 736.395 230.811 736.911 235.329 737.815C239.847 738.718 243.203 739.751 245.268 740.655L248.366 742.075Z" fill="#A12256" fill-opacity="0.2"/>
<path d="M132.943 731.747L169.989 816.941C171.409 820.168 173.346 822.621 175.798 824.557C180.961 828.171 183.672 828.301 186.254 828.301H135.524C135.395 828.301 150.111 826.235 145.076 813.456L137.202 793.448L108.159 793.319L100.672 811.649C97.1868 819.91 101.059 827.655 110.482 828.301H80.5352C86.7311 827.913 93.8307 822.234 97.5741 813.069L132.555 730.585L132.943 731.747ZM123.391 761.565C121.842 761.565 119.389 765.954 115.904 774.602L108.933 791.641H136.428L128.812 771.633L127.65 768.664C125.585 764.146 124.165 761.823 123.391 761.565ZM186.77 828.301H186.254H186.77Z" fill="#A12256" fill-opacity="0.2"/>
<path d="M46.5988 827.139H47.7606C54.4729 827.139 62.2178 823.525 70.8663 816.167C79.5149 808.81 85.1945 802.097 87.6471 796.16L81.193 828.301H0C1.41991 828.301 2.45257 828.301 5.55055 827.139C9.81028 825.59 14.3282 821.331 14.3282 811.52V753.433C14.3282 746.334 11.7465 741.558 8.1322 739.88C4.64697 738.202 2.83982 737.943 1.16174 737.943H48.0187C46.857 737.943 45.6952 737.943 42.7263 739.105C38.9829 740.396 34.7232 744.397 34.7232 753.433V811.908C34.7232 822.105 38.7248 827.139 46.5988 827.139Z" fill="#A12256" fill-opacity="0.2"/>
<path d="M1175.63 591.828H1204.29C1196.67 593.506 1190.34 598.928 1185.18 607.834L1171.11 633.393C1169.43 636.62 1168.53 641.267 1168.53 647.592V667.858C1168.53 673.667 1170.98 678.184 1174.21 679.862C1177.69 681.541 1179.5 682.057 1181.44 682.186H1135.36C1137.03 682.186 1139.23 681.67 1142.33 679.992C1145.55 678.313 1148.01 674.054 1148.01 668.374L1148.13 651.206C1148.13 644.881 1146.84 639.589 1144.39 635.587L1126.45 606.156C1120.25 596.217 1112.51 591.828 1108.51 591.828L1154.46 591.957C1147.1 592.086 1143.23 598.928 1147.23 606.285L1161.95 631.456C1164.91 636.749 1167.88 636.491 1170.98 630.682L1183.5 608.222C1188.28 599.573 1185.44 592.99 1175.63 591.828Z" fill="#A12256" fill-opacity="0.2"/>
<path d="M1069.61 685.413L1027.66 603.446C1023.92 595.701 1017.34 591.828 1007.91 591.828H1066.77L1064.84 592.086C1059.93 592.732 1049.86 596.217 1053.99 606.673C1056.96 613.514 1062.64 624.873 1070.78 641.009C1074 647.334 1076.58 650.561 1078.65 650.561C1081.62 650.561 1082.78 649.657 1085.49 642.945L1098.92 610.545C1101.11 605.253 1100.72 600.864 1098.01 597.379C1095.3 593.764 1090.78 591.957 1084.46 591.828H1118.54C1115.05 592.861 1113.11 593.635 1110.02 596.088C1106.92 598.54 1104.08 602.671 1101.63 608.48L1069.61 685.413Z" fill="#A12256" fill-opacity="0.2"/>
<path d="M999.834 607.318V666.696C999.834 672.247 1002.03 676.635 1004.48 678.701C1008.61 681.928 1013.39 682.186 1014.42 682.186H965.24C966.789 682.186 979.568 681.67 979.568 666.696V607.318C979.568 601.638 977.374 597.25 974.921 595.313C973.76 594.281 972.469 593.506 970.791 592.99C967.693 591.828 966.66 591.828 965.24 591.828H1014.42C1012.48 591.828 1010.68 592.086 1006.68 593.764C1002.67 595.442 999.834 600.218 999.834 607.318Z" fill="#A12256" fill-opacity="0.2"/>
<path d="M891.692 634.554C893.241 645.655 897.501 654.562 904.472 661.274C911.442 667.857 919.703 671.342 929.256 671.472C945.52 671.859 952.232 662.178 954.556 658.176L955.201 656.627C955.072 657.789 954.814 659.209 952.232 664.501C951.071 667.083 949.521 669.535 947.714 671.73C944.229 675.989 937.13 681.024 928.868 682.96C912.991 686.445 897.888 682.185 888.078 673.537C878.397 664.888 872.201 652.496 871.814 639.588C871.556 629.778 873.492 621.258 877.752 613.901C886.4 599.056 900.341 591.828 916.735 590.666C924.092 590.15 931.45 590.795 938.808 592.731C943.971 594.151 948.618 596.216 950.167 597.249L951.458 598.153L951.2 623.582C945.907 612.997 938.937 604.478 930.288 598.153C921.64 591.698 912.862 590.795 903.955 595.571C898.792 598.282 895.178 603.316 892.983 610.674C890.789 618.031 890.402 626.034 891.692 634.554Z" fill="#A12256" fill-opacity="0.2"/>
<path d="M850.509 595.959L850.638 620.356C848.443 615.064 844.054 609.513 837.729 603.704C833.082 599.574 828.823 596.476 822.756 594.023C816.689 591.441 811.784 591.7 806.104 594.281C801.07 597.25 799.521 602.801 801.07 608.997C803.135 616.742 809.589 621.13 823.014 624.228C850.896 630.812 860.448 642.171 856.705 662.308C853.478 679.605 837.6 684.897 822.498 684.639C807.395 684.381 795.003 681.283 785.58 675.216V644.753C789.065 652.11 794.1 659.21 800.425 665.793C806.879 672.376 813.72 676.894 821.078 679.089C832.437 682.445 845.345 682.186 846.765 671.602C847.411 666.567 845.603 662.179 841.344 658.177C837.213 654.176 829.21 650.561 817.334 647.334C794.1 641.138 786.225 630.683 787.774 614.031C788.549 605.899 792.163 599.961 798.746 595.959C805.33 591.958 813.462 590.022 823.272 590.151C828.306 590.28 832.953 590.796 837.471 591.7C841.989 592.603 845.345 593.636 847.411 594.539L850.509 595.959Z" fill="#A12256" fill-opacity="0.2"/>
<path d="M735.085 585.631L772.132 670.826C773.552 674.053 775.488 676.506 777.941 678.442C783.104 682.056 785.815 682.185 788.396 682.185H737.667C737.538 682.185 752.253 680.12 747.219 667.341L739.345 647.333L710.301 647.204L702.815 665.534C699.329 673.795 703.202 681.54 712.625 682.185H682.678C688.874 681.798 695.973 676.118 699.717 666.954L734.698 584.47L735.085 585.631ZM725.533 615.45C723.984 615.45 721.532 619.838 718.046 628.487L711.076 645.526H738.571L730.955 625.518L729.793 622.549C727.728 618.031 726.308 615.708 725.533 615.45ZM788.913 682.185H788.396H788.913Z" fill="#A12256" fill-opacity="0.2"/>
<path d="M648.741 681.024H649.903C656.615 681.024 664.36 677.41 673.009 670.052C681.657 662.694 687.337 655.982 689.79 650.044L683.336 682.186H602.143C603.562 682.186 604.595 682.186 607.693 681.024C611.953 679.475 616.471 675.215 616.471 665.405V607.318C616.471 600.218 613.889 595.442 610.275 593.764C606.79 592.086 604.982 591.828 603.304 591.828H650.161C649 591.828 647.838 591.828 644.869 592.99C641.126 594.281 636.866 598.282 636.866 607.318V665.792C636.866 675.99 640.867 681.024 648.741 681.024Z" fill="#A12256" fill-opacity="0.2"/>
<path d="M1175.63 883.887H1204.29C1196.67 885.565 1190.34 890.986 1185.18 899.893L1171.11 925.451C1169.43 928.678 1168.53 933.325 1168.53 939.65V959.916C1168.53 965.725 1170.98 970.243 1174.21 971.921C1177.69 973.599 1179.5 974.115 1181.44 974.245H1135.36C1137.03 974.245 1139.23 973.728 1142.33 972.05C1145.55 970.372 1148.01 966.112 1148.01 960.433L1148.13 943.265C1148.13 936.94 1146.84 931.647 1144.39 927.646L1126.45 898.215C1120.25 888.276 1112.51 883.887 1108.51 883.887L1154.46 884.016C1147.1 884.145 1143.23 890.986 1147.23 898.344L1161.95 923.515C1164.91 928.807 1167.88 928.549 1170.98 922.741L1183.5 900.28C1188.28 891.632 1185.44 885.048 1175.63 883.887Z" fill="#A12256" fill-opacity="0.2"/>
<path d="M1069.61 977.472L1027.66 895.504C1023.92 887.759 1017.34 883.887 1007.91 883.887H1066.77L1064.84 884.145C1059.93 884.79 1049.86 888.276 1053.99 898.731C1056.96 905.573 1062.64 916.932 1070.78 933.067C1074 939.392 1076.58 942.619 1078.65 942.619C1081.62 942.619 1082.78 941.716 1085.49 935.003L1098.92 902.604C1101.11 897.311 1100.72 892.923 1098.01 889.437C1095.3 885.823 1090.78 884.016 1084.46 883.887H1118.54C1115.05 884.919 1113.11 885.694 1110.02 888.146C1106.92 890.599 1104.08 894.73 1101.63 900.538L1069.61 977.472Z" fill="#A12256" fill-opacity="0.2"/>
<path d="M999.834 899.377V958.755C999.834 964.305 1002.03 968.694 1004.48 970.759C1008.61 973.986 1013.39 974.245 1014.42 974.245H965.24C966.789 974.245 979.568 973.728 979.568 958.755V899.377C979.568 893.697 977.374 889.308 974.921 887.372C973.76 886.339 972.469 885.565 970.791 885.048C967.693 883.887 966.66 883.887 965.24 883.887H1014.42C1012.48 883.887 1010.68 884.145 1006.68 885.823C1002.67 887.501 999.834 892.277 999.834 899.377Z" fill="#A12256" fill-opacity="0.2"/>
<path d="M891.692 926.613C893.241 937.714 897.501 946.62 904.472 953.333C911.442 959.916 919.703 963.401 929.256 963.53C945.52 963.917 952.232 954.236 954.556 950.235L955.201 948.686C955.072 949.847 954.814 951.267 952.232 956.56C951.071 959.141 949.521 961.594 947.714 963.788C944.229 968.048 937.13 973.082 928.868 975.018C912.991 978.504 897.888 974.244 888.078 965.595C878.397 956.947 872.201 944.555 871.814 931.647C871.556 921.836 873.492 913.317 877.752 905.959C886.4 891.115 900.341 883.886 916.735 882.724C924.092 882.208 931.45 882.854 938.808 884.79C943.971 886.21 948.618 888.275 950.167 889.308L951.458 890.211L951.2 915.64C945.907 905.056 938.937 896.536 930.288 890.211C921.64 883.757 912.862 882.854 903.955 887.63C898.792 890.34 895.178 895.375 892.983 902.732C890.789 910.09 890.402 918.093 891.692 926.613Z" fill="#A12256" fill-opacity="0.2"/>
<path d="M850.509 888.018L850.638 912.415C848.443 907.122 844.054 901.572 837.729 895.763C833.082 891.632 828.823 888.534 822.756 886.082C816.689 883.5 811.784 883.758 806.104 886.34C801.07 889.309 799.521 894.859 801.07 901.055C803.135 908.8 809.589 913.189 823.014 916.287C850.896 922.87 860.448 934.229 856.705 954.366C853.478 971.663 837.6 976.956 822.498 976.698C807.395 976.439 795.003 973.342 785.58 967.275V936.811C789.065 944.169 794.1 951.268 800.425 957.852C806.879 964.435 813.72 968.953 821.078 971.147C832.437 974.503 845.345 974.245 846.765 963.66C847.411 958.626 845.603 954.237 841.344 950.236C837.213 946.234 829.21 942.62 817.334 939.393C794.1 933.197 786.225 922.741 787.774 906.089C788.549 897.957 792.163 892.019 798.746 888.018C805.33 884.016 813.462 882.08 823.272 882.209C828.306 882.338 832.953 882.855 837.471 883.758C841.989 884.662 845.345 885.694 847.411 886.598L850.509 888.018Z" fill="#A12256" fill-opacity="0.2"/>
<path d="M735.085 877.69L772.132 962.885C773.552 966.112 775.488 968.564 777.941 970.5C783.104 974.115 785.815 974.244 788.396 974.244H737.667C737.538 974.244 752.253 972.179 747.219 959.399L739.345 939.392L710.301 939.262L702.815 957.592C699.329 965.853 703.202 973.598 712.625 974.244H682.678C688.874 973.857 695.973 968.177 699.717 959.012L734.698 876.528L735.085 877.69ZM725.533 907.508C723.984 907.508 721.532 911.897 718.046 920.545L711.076 937.584H738.571L730.955 917.577L729.793 914.608C727.728 910.09 726.308 907.766 725.533 907.508ZM788.913 974.244H788.396H788.913Z" fill="#A12256" fill-opacity="0.2"/>
<path d="M648.741 973.083H649.903C656.615 973.083 664.36 969.468 673.009 962.111C681.657 954.753 687.337 948.041 689.79 942.103L683.336 974.245H602.143C603.562 974.245 604.595 974.245 607.693 973.083C611.953 971.534 616.471 967.274 616.471 957.464V899.377C616.471 892.277 613.889 887.501 610.275 885.823C606.79 884.145 604.982 883.887 603.304 883.887H650.161C649 883.887 647.838 883.887 644.869 885.048C641.126 886.339 636.866 890.341 636.866 899.377V957.851C636.866 968.049 640.867 973.083 648.741 973.083Z" fill="#A12256" fill-opacity="0.2"/>
<path d="M573.486 591.828H602.143C594.527 593.506 588.202 598.928 583.038 607.834L568.968 633.393C567.29 636.62 566.387 641.267 566.387 647.592V667.858C566.387 673.667 568.839 678.184 572.066 679.862C575.552 681.541 577.359 682.057 579.295 682.186H533.212C534.891 682.186 537.085 681.67 540.183 679.992C543.41 678.313 545.863 674.054 545.863 668.374L545.992 651.206C545.992 644.881 544.701 639.589 542.248 635.587L524.306 606.156C518.11 596.217 510.365 591.828 506.363 591.828L552.317 591.957C544.959 592.086 541.087 598.928 545.088 606.285L559.803 631.456C562.772 636.749 565.741 636.491 568.839 630.682L581.36 608.222C586.136 599.573 583.297 592.99 573.486 591.828Z" fill="#55142E" fill-opacity="0.3"/>
<path d="M467.471 685.413L425.519 603.446C421.776 595.701 415.193 591.828 405.77 591.828H464.631L462.695 592.086C457.79 592.732 447.721 596.217 451.852 606.673C454.821 613.514 460.501 624.873 468.633 641.009C471.86 647.334 474.441 650.561 476.507 650.561C479.476 650.561 480.637 649.657 483.348 642.945L496.773 610.545C498.967 605.253 498.58 600.864 495.869 597.379C493.158 593.764 488.641 591.957 482.315 591.828H516.393C512.908 592.861 510.972 593.635 507.874 596.088C504.776 598.54 501.936 602.671 499.483 608.48L467.471 685.413Z" fill="#55142E" fill-opacity="0.3"/>
<path d="M397.692 607.318V666.696C397.692 672.247 399.886 676.635 402.339 678.701C406.469 681.928 411.245 682.186 412.278 682.186H363.098C364.647 682.186 377.426 681.67 377.426 666.696V607.318C377.426 601.638 375.231 597.25 372.779 595.313C371.617 594.281 370.326 593.506 368.648 592.99C365.55 591.828 364.518 591.828 363.098 591.828H412.278C410.342 591.828 408.535 592.086 404.533 593.764C400.532 595.442 397.692 600.218 397.692 607.318Z" fill="#55142E" fill-opacity="0.3"/>
<path d="M289.55 634.554C291.099 645.655 295.359 654.562 302.329 661.274C309.3 667.857 317.561 671.342 327.113 671.472C343.377 671.859 350.09 662.178 352.413 658.176L353.059 656.627C352.929 657.789 352.671 659.209 350.09 664.501C348.928 667.083 347.379 669.535 345.572 671.73C342.087 675.989 334.987 681.024 326.726 682.96C310.849 686.445 295.746 682.185 285.936 673.537C276.254 664.888 270.058 652.496 269.671 639.588C269.413 629.778 271.349 621.258 275.609 613.901C284.258 599.056 298.198 591.828 314.592 590.666C321.95 590.15 329.307 590.795 336.665 592.731C341.828 594.151 346.475 596.216 348.024 597.249L349.315 598.153L349.057 623.582C343.765 612.997 336.794 604.478 328.146 598.153C319.497 591.698 310.719 590.795 301.813 595.571C296.649 598.282 293.035 603.316 290.841 610.674C288.646 618.031 288.259 626.034 289.55 634.554Z" fill="#55142E" fill-opacity="0.3"/>
<path d="M248.366 595.959L248.495 620.356C246.301 615.064 241.912 609.513 235.587 603.704C230.94 599.574 226.68 596.476 220.613 594.023C214.546 591.441 209.641 591.7 203.962 594.281C198.927 597.25 197.378 602.801 198.927 608.997C200.993 616.742 207.447 621.13 220.871 624.228C248.753 630.812 258.305 642.171 254.562 662.308C251.335 679.605 235.458 684.897 220.355 684.639C205.252 684.381 192.861 681.283 183.438 675.216V644.753C186.923 652.11 191.957 659.21 198.282 665.793C204.736 672.376 211.577 676.894 218.935 679.089C230.294 682.445 243.203 682.186 244.623 671.602C245.268 666.567 243.461 662.179 239.201 658.177C235.071 654.176 227.067 650.561 215.192 647.334C191.957 641.138 184.083 630.683 185.632 614.031C186.406 605.899 190.021 599.961 196.604 595.959C203.187 591.958 211.319 590.022 221.13 590.151C226.164 590.28 230.811 590.796 235.329 591.7C239.847 592.603 243.203 593.636 245.268 594.539L248.366 595.959Z" fill="#55142E" fill-opacity="0.3"/>
<path d="M132.943 585.631L169.989 670.826C171.409 674.053 173.346 676.506 175.798 678.442C180.961 682.056 183.672 682.185 186.254 682.185H135.524C135.395 682.185 150.111 680.12 145.076 667.341L137.202 647.333L108.159 647.204L100.672 665.534C97.1868 673.795 101.059 681.54 110.482 682.185H80.5352C86.7311 681.798 93.8307 676.118 97.5741 666.954L132.555 584.47L132.943 585.631ZM123.391 615.45C121.842 615.45 119.389 619.838 115.904 628.487L108.933 645.526H136.428L128.812 625.518L127.65 622.549C125.585 618.031 124.165 615.708 123.391 615.45ZM186.77 682.185H186.254H186.77Z" fill="#55142E" fill-opacity="0.3"/>
<path d="M46.5988 681.024H47.7606C54.4729 681.024 62.2178 677.41 70.8663 670.052C79.5149 662.694 85.1945 655.982 87.6471 650.044L81.193 682.186H0C1.41991 682.186 2.45257 682.186 5.55055 681.024C9.81028 679.475 14.3282 675.215 14.3282 665.405V607.318C14.3282 600.218 11.7465 595.442 8.1322 593.764C4.64697 592.086 2.83982 591.828 1.16174 591.828H48.0187C46.857 591.828 45.6952 591.828 42.7263 592.99C38.9829 594.281 34.7232 598.282 34.7232 607.318V665.792C34.7232 675.99 38.7248 681.024 46.5988 681.024Z" fill="#55142E" fill-opacity="0.3"/>
<path d="M1175.63 737.771H1204.29C1196.67 739.45 1190.34 744.871 1185.18 753.778L1171.11 779.336C1169.43 782.563 1168.53 787.21 1168.53 793.535V813.801C1168.53 819.61 1170.98 824.128 1174.21 825.806C1177.69 827.484 1179.5 828 1181.44 828.129H1135.36C1137.03 828.129 1139.23 827.613 1142.33 825.935C1145.55 824.257 1148.01 819.997 1148.01 814.317L1148.13 797.149C1148.13 790.824 1146.84 785.532 1144.39 781.53L1126.45 752.1C1120.25 742.16 1112.51 737.771 1108.51 737.771L1154.46 737.901C1147.1 738.03 1143.23 744.871 1147.23 752.229L1161.95 777.4C1164.91 782.692 1167.88 782.434 1170.98 776.625L1183.5 754.165C1188.28 745.516 1185.44 738.933 1175.63 737.771Z" fill="#55142E" fill-opacity="0.3"/>
<path d="M1069.61 831.356L1027.66 749.389C1023.92 741.644 1017.34 737.771 1007.91 737.771H1066.77L1064.84 738.03C1059.93 738.675 1049.86 742.16 1053.99 752.616C1056.96 759.457 1062.64 770.817 1070.78 786.952C1074 793.277 1076.58 796.504 1078.65 796.504C1081.62 796.504 1082.78 795.6 1085.49 788.888L1098.92 756.488C1101.11 751.196 1100.72 746.807 1098.01 743.322C1095.3 739.708 1090.78 737.901 1084.46 737.771H1118.54C1115.05 738.804 1113.11 739.579 1110.02 742.031C1106.92 744.484 1104.08 748.614 1101.63 754.423L1069.61 831.356Z" fill="#55142E" fill-opacity="0.3"/>
<path d="M999.834 753.261V812.639C999.834 818.19 1002.03 822.579 1004.48 824.644C1008.61 827.871 1013.39 828.129 1014.42 828.129H965.24C966.789 828.129 979.568 827.613 979.568 812.639V753.261C979.568 747.582 977.374 743.193 974.921 741.257C973.76 740.224 972.469 739.45 970.791 738.933C967.693 737.771 966.66 737.771 965.24 737.771H1014.42C1012.48 737.771 1010.68 738.03 1006.68 739.708C1002.67 741.386 999.834 746.162 999.834 753.261Z" fill="#55142E" fill-opacity="0.3"/>
<path d="M891.692 780.497C893.241 791.598 897.501 800.505 904.472 807.217C911.442 813.801 919.703 817.286 929.256 817.415C945.52 817.802 952.232 808.121 954.556 804.119L955.201 802.57C955.072 803.732 954.814 805.152 952.232 810.444C951.071 813.026 949.521 815.479 947.714 817.673C944.229 821.933 937.13 826.967 928.868 828.903C912.991 832.388 897.888 828.129 888.078 819.48C878.397 810.832 872.201 798.44 871.814 785.532C871.556 775.721 873.492 767.202 877.752 759.844C886.4 745 900.341 737.771 916.735 736.609C924.092 736.093 931.45 736.738 938.808 738.675C943.971 740.094 948.618 742.16 950.167 743.192L951.458 744.096L951.2 769.525C945.907 758.94 938.937 750.421 930.288 744.096C921.64 737.642 912.862 736.738 903.955 741.514C898.792 744.225 895.178 749.259 892.983 756.617C890.789 763.975 890.402 771.978 891.692 780.497Z" fill="#55142E" fill-opacity="0.3"/>
<path d="M850.509 741.903L850.638 766.299C848.443 761.007 844.054 755.456 837.729 749.648C833.082 745.517 828.823 742.419 822.756 739.966C816.689 737.385 811.784 737.643 806.104 740.225C801.07 743.193 799.521 748.744 801.07 754.94C803.135 762.685 809.589 767.074 823.014 770.172C850.896 776.755 860.448 788.114 856.705 808.251C853.478 825.548 837.6 830.841 822.498 830.582C807.395 830.324 795.003 827.226 785.58 821.159V790.696C789.065 798.054 794.1 805.153 800.425 811.736C806.879 818.32 813.72 822.837 821.078 825.032C832.437 828.388 845.345 828.13 846.765 817.545C847.411 812.511 845.603 808.122 841.344 804.12C837.213 800.119 829.21 796.505 817.334 793.278C794.1 787.082 786.225 776.626 787.774 759.974C788.549 751.842 792.163 745.904 798.746 741.903C805.33 737.901 813.462 735.965 823.272 736.094C828.306 736.223 832.953 736.739 837.471 737.643C841.989 738.547 845.345 739.579 847.411 740.483L850.509 741.903Z" fill="#55142E" fill-opacity="0.3"/>
<path d="M735.085 731.575L772.132 816.769C773.552 819.996 775.488 822.449 777.941 824.385C783.104 828 785.815 828.129 788.396 828.129H737.667C737.538 828.129 752.253 826.063 747.219 813.284L739.345 793.276L710.301 793.147L702.815 811.477C699.329 819.738 703.202 827.483 712.625 828.129H682.678C688.874 827.741 695.973 822.062 699.717 812.897L734.698 730.413L735.085 731.575ZM725.533 761.393C723.984 761.393 721.532 765.782 718.046 774.43L711.076 791.469H738.571L730.955 771.461L729.793 768.492C727.728 763.975 726.308 761.651 725.533 761.393ZM788.913 828.129H788.396H788.913Z" fill="#55142E" fill-opacity="0.3"/>
<path d="M648.741 826.968H649.903C656.615 826.968 664.36 823.353 673.009 815.996C681.657 808.638 687.337 801.926 689.79 795.988L683.336 828.129H602.143C603.562 828.129 604.595 828.129 607.693 826.968C611.953 825.419 616.471 821.159 616.471 811.349V753.261C616.471 746.162 613.889 741.386 610.275 739.708C606.79 738.03 604.982 737.771 603.304 737.771H650.161C649 737.771 647.838 737.771 644.869 738.933C641.126 740.224 636.866 744.226 636.866 753.261V811.736C636.866 821.933 640.867 826.968 648.741 826.968Z" fill="#55142E" fill-opacity="0.3"/>
<path d="M573.486 884.691H602.143C594.527 886.369 588.202 891.791 583.038 900.698L568.968 926.256C567.29 929.483 566.387 934.13 566.387 940.455V960.721C566.387 966.53 568.839 971.048 572.066 972.726C575.552 974.404 577.359 974.92 579.295 975.049H533.212C534.891 975.049 537.085 974.533 540.183 972.855C543.41 971.177 545.863 966.917 545.863 961.237L545.992 944.069C545.992 937.744 544.701 932.452 542.248 928.45L524.306 899.02C518.11 889.08 510.365 884.691 506.363 884.691L552.317 884.82C544.959 884.95 541.087 891.791 545.088 899.149L559.803 924.32C562.772 929.612 565.741 929.354 568.839 923.545L581.36 901.085C586.136 892.436 583.297 885.853 573.486 884.691Z" fill="#55142E" fill-opacity="0.3"/>
<path d="M467.471 978.276L425.519 896.309C421.776 888.564 415.193 884.691 405.77 884.691H464.631L462.695 884.95C457.79 885.595 447.721 889.08 451.852 899.536C454.821 906.377 460.501 917.737 468.633 933.872C471.86 940.197 474.441 943.424 476.507 943.424C479.476 943.424 480.637 942.52 483.348 935.808L496.773 903.408C498.967 898.116 498.58 893.727 495.869 890.242C493.158 886.628 488.641 884.82 482.315 884.691H516.393C512.908 885.724 510.972 886.499 507.874 888.951C504.776 891.404 501.936 895.534 499.483 901.343L467.471 978.276Z" fill="#55142E" fill-opacity="0.3"/>
<path d="M397.692 900.181V959.559C397.692 965.11 399.886 969.499 402.339 971.564C406.469 974.791 411.245 975.049 412.278 975.049H363.098C364.647 975.049 377.426 974.533 377.426 959.559V900.181C377.426 894.502 375.231 890.113 372.779 888.177C371.617 887.144 370.326 886.369 368.648 885.853C365.55 884.691 364.518 884.691 363.098 884.691H412.278C410.342 884.691 408.535 884.95 404.533 886.628C400.532 888.306 397.692 893.082 397.692 900.181Z" fill="#55142E" fill-opacity="0.3"/>
<path d="M289.55 927.417C291.099 938.518 295.359 947.425 302.329 954.137C309.3 960.721 317.561 964.206 327.113 964.335C343.377 964.722 350.09 955.041 352.413 951.039L353.059 949.49C352.929 950.652 352.671 952.072 350.09 957.364C348.928 959.946 347.379 962.399 345.572 964.593C342.087 968.853 334.987 973.887 326.726 975.823C310.849 979.308 295.746 975.049 285.936 966.4C276.254 957.752 270.058 945.36 269.671 932.451C269.413 922.641 271.349 914.122 275.609 906.764C284.258 891.919 298.198 884.691 314.592 883.529C321.95 883.013 329.307 883.658 336.665 885.594C341.828 887.014 346.475 889.08 348.024 890.112L349.315 891.016L349.057 916.445C343.765 905.86 336.794 897.341 328.146 891.016C319.497 884.562 310.719 883.658 301.813 888.434C296.649 891.145 293.035 896.179 290.841 903.537C288.646 910.895 288.259 918.898 289.55 927.417Z" fill="#55142E" fill-opacity="0.3"/>
<path d="M248.366 888.823L248.495 913.219C246.301 907.927 241.912 902.376 235.587 896.568C230.94 892.437 226.68 889.339 220.613 886.886C214.546 884.305 209.641 884.563 203.962 887.145C198.927 890.113 197.378 895.664 198.927 901.86C200.993 909.605 207.447 913.994 220.871 917.092C248.753 923.675 258.305 935.034 254.562 955.171C251.335 972.468 235.458 977.761 220.355 977.502C205.252 977.244 192.861 974.146 183.438 968.079V937.616C186.923 944.974 191.957 952.073 198.282 958.656C204.736 965.239 211.577 969.757 218.935 971.952C230.294 975.308 243.203 975.05 244.623 964.465C245.268 959.431 243.461 955.042 239.201 951.04C235.071 947.039 227.067 943.425 215.192 940.197C191.957 934.002 184.083 923.546 185.632 906.894C186.406 898.762 190.021 892.824 196.604 888.823C203.187 884.821 211.319 882.885 221.13 883.014C226.164 883.143 230.811 883.659 235.329 884.563C239.847 885.466 243.203 886.499 245.268 887.403L248.366 888.823Z" fill="#55142E" fill-opacity="0.3"/>
<path d="M132.943 878.495L169.989 963.689C171.409 966.916 173.346 969.369 175.798 971.305C180.961 974.919 183.672 975.049 186.254 975.049H135.524C135.395 975.049 150.111 972.983 145.076 960.204L137.202 940.196L108.159 940.067L100.672 958.397C97.1868 966.658 101.059 974.403 110.482 975.049H80.5352C86.7311 974.661 93.8307 968.982 97.5741 959.817L132.555 877.333L132.943 878.495ZM123.391 908.313C121.842 908.313 119.389 912.702 115.904 921.35L108.933 938.389H136.428L128.812 918.381L127.65 915.412C125.585 910.894 124.165 908.571 123.391 908.313ZM186.77 975.049H186.254H186.77Z" fill="#55142E" fill-opacity="0.3"/>
<path d="M46.5988 973.887H47.7606C54.4729 973.887 62.2178 970.273 70.8663 962.915C79.5149 955.558 85.1945 948.845 87.6471 942.908L81.193 975.049H0C1.41991 975.049 2.45257 975.049 5.55055 973.887C9.81028 972.339 14.3282 968.079 14.3282 958.268V900.181C14.3282 893.082 11.7465 888.306 8.1322 886.628C4.64697 884.95 2.83982 884.691 1.16174 884.691H48.0187C46.857 884.691 45.6952 884.691 42.7263 885.853C38.9829 887.144 34.7232 891.146 34.7232 900.181V958.656C34.7232 968.853 38.7248 973.887 46.5988 973.887Z" fill="#55142E" fill-opacity="0.3"/>
</svg>
