<svg width="603" height="1269" viewBox="0 0 603 1269" fill="none" xmlns="http://www.w3.org/2000/svg">
<path d="M573.484 153.357H602.141C594.525 155.035 588.2 160.457 583.036 169.364L568.966 194.922C567.288 198.149 566.385 202.796 566.385 209.121V229.387C566.385 235.196 568.837 239.714 572.064 241.392C575.55 243.07 577.357 243.586 579.293 243.715H533.211C534.889 243.715 537.083 243.199 540.181 241.521C543.408 239.843 545.861 235.583 545.861 229.903L545.99 212.735C545.99 206.41 544.699 201.118 542.246 197.116L524.304 167.686C518.108 157.746 510.363 153.357 506.361 153.357L552.315 153.487C544.957 153.616 541.085 160.457 545.086 167.815L559.802 192.986C562.77 198.278 565.739 198.02 568.837 192.211L581.358 169.751C586.134 161.102 583.295 154.519 573.484 153.357Z" fill="#55142E" fill-opacity="0.3"/>
<path d="M467.471 246.942L425.519 164.975C421.776 157.23 415.193 153.357 405.77 153.357H464.631L462.695 153.616C457.79 154.261 447.721 157.746 451.852 168.202C454.821 175.043 460.501 186.403 468.633 202.538C471.86 208.863 474.441 212.09 476.507 212.09C479.476 212.09 480.637 211.186 483.348 204.474L496.773 172.074C498.967 166.782 498.58 162.393 495.869 158.908C493.158 155.294 488.641 153.487 482.315 153.357H516.393C512.908 154.39 510.972 155.165 507.874 157.617C504.776 160.07 501.936 164.2 499.483 170.009L467.471 246.942Z" fill="#55142E" fill-opacity="0.3"/>
<path d="M397.692 168.847V228.225C397.692 233.776 399.886 238.165 402.339 240.23C406.469 243.457 411.245 243.715 412.278 243.715H363.098C364.647 243.715 377.426 243.199 377.426 228.225V168.847C377.426 163.168 375.231 158.779 372.779 156.843C371.617 155.81 370.326 155.035 368.648 154.519C365.55 153.357 364.518 153.357 363.098 153.357H412.278C410.342 153.357 408.535 153.616 404.533 155.294C400.532 156.972 397.692 161.748 397.692 168.847Z" fill="#55142E" fill-opacity="0.3"/>
<path d="M289.55 196.084C291.099 207.185 295.359 216.092 302.329 222.804C309.3 229.388 317.561 232.873 327.113 233.002C343.377 233.389 350.09 223.708 352.413 219.706L353.059 218.157C352.929 219.319 352.671 220.739 350.09 226.031C348.928 228.613 347.379 231.066 345.572 233.26C342.087 237.52 334.987 242.554 326.726 244.49C310.849 247.975 295.746 243.716 285.936 235.067C276.254 226.419 270.058 214.027 269.671 201.118C269.413 191.308 271.349 182.789 275.609 175.431C284.258 160.586 298.198 153.358 314.592 152.196C321.95 151.68 329.307 152.325 336.665 154.261C341.828 155.681 346.475 157.747 348.024 158.779L349.315 159.683L349.057 185.112C343.765 174.527 336.794 166.008 328.146 159.683C319.497 153.229 310.719 152.325 301.813 157.101C296.649 159.812 293.035 164.846 290.841 172.204C288.646 179.562 288.259 187.565 289.55 196.084Z" fill="#55142E" fill-opacity="0.3"/>
<path d="M248.366 157.489L248.495 181.885C246.301 176.593 241.912 171.042 235.587 165.234C230.94 161.103 226.68 158.005 220.613 155.552C214.546 152.971 209.641 153.229 203.962 155.811C198.927 158.779 197.378 164.33 198.927 170.526C200.993 178.271 207.447 182.66 220.871 185.758C248.753 192.341 258.305 203.7 254.562 223.837C251.335 241.134 235.458 246.427 220.355 246.168C205.252 245.91 192.861 242.812 183.438 236.745V206.282C186.923 213.64 191.957 220.739 198.282 227.322C204.736 233.906 211.577 238.423 218.935 240.618C230.294 243.974 243.203 243.716 244.623 233.131C245.268 228.097 243.461 223.708 239.201 219.706C235.071 215.705 227.067 212.091 215.192 208.863C191.957 202.668 184.083 192.212 185.632 175.56C186.406 167.428 190.021 161.49 196.604 157.489C203.187 153.487 211.319 151.551 221.13 151.68C226.164 151.809 230.811 152.325 235.329 153.229C239.847 154.132 243.203 155.165 245.268 156.069L248.366 157.489Z" fill="#55142E" fill-opacity="0.3"/>
<path d="M132.943 147.162L169.989 232.356C171.409 235.583 173.346 238.036 175.798 239.972C180.961 243.586 183.672 243.716 186.254 243.716H135.524C135.395 243.716 150.111 241.65 145.076 228.871L137.202 208.863L108.159 208.734L100.672 227.064C97.1868 235.325 101.059 243.07 110.482 243.716H80.5352C86.7311 243.328 93.8307 237.649 97.5741 228.484L132.555 146L132.943 147.162ZM123.391 176.98C121.842 176.98 119.389 181.369 115.904 190.017L108.933 207.056H136.428L128.812 187.048L127.65 184.079C125.585 179.561 124.165 177.238 123.391 176.98ZM186.77 243.716H186.254H186.77Z" fill="#55142E" fill-opacity="0.3"/>
<path d="M46.5988 242.554H47.7606C54.4729 242.554 62.2178 238.939 70.8663 231.581C79.5149 224.224 85.1945 217.511 87.6471 211.574L81.193 243.715H0C1.41991 243.715 2.45257 243.715 5.55055 242.554C9.81028 241.005 14.3282 236.745 14.3282 226.935V168.847C14.3282 161.748 11.7465 156.972 8.1322 155.294C4.64697 153.616 2.83982 153.357 1.16174 153.357H48.0187C46.857 153.357 45.6952 153.357 42.7263 154.519C38.9829 155.81 34.7232 159.812 34.7232 168.847V227.322C34.7232 237.519 38.7248 242.554 46.5988 242.554Z" fill="#55142E" fill-opacity="0.3"/>
<path d="M573.484 7.35742H602.141C594.525 9.0355 588.2 14.457 583.036 23.3637L568.966 48.922C567.288 52.1491 566.385 56.7961 566.385 63.1211V83.3871C566.385 89.1958 568.837 93.7137 572.064 95.3918C575.55 97.0698 577.357 97.5862 579.293 97.7153H533.211C534.889 97.7153 537.083 97.1989 540.181 95.5208C543.408 93.8428 545.861 89.583 545.861 83.9034L545.99 66.7354C545.99 60.4104 544.699 55.118 542.246 51.1164L524.304 21.6856C518.108 11.7462 510.363 7.35742 506.361 7.35742L552.315 7.4865C544.957 7.61559 541.085 14.457 545.086 21.8147L559.802 46.9858C562.77 52.2782 565.739 52.02 568.837 46.2113L581.358 23.7509C586.134 15.1024 583.295 8.51917 573.484 7.35742Z" fill="#A12256" fill-opacity="0.2"/>
<path d="M467.471 100.942L425.519 18.9749C421.776 11.2299 415.193 7.35742 405.77 7.35742H464.631L462.695 7.61559C457.79 8.261 447.721 11.7462 451.852 22.2019C454.821 29.0433 460.501 40.4026 468.633 56.5379C471.86 62.8629 474.441 66.09 476.507 66.09C479.476 66.09 480.637 65.1864 483.348 58.4741L496.773 26.0744C498.967 20.782 498.58 16.3932 495.869 12.908C493.158 9.29366 488.641 7.4865 482.315 7.35742H516.393C512.908 8.39008 510.972 9.16458 507.874 11.6171C504.776 14.0697 501.936 18.2004 499.483 24.0091L467.471 100.942Z" fill="#A12256" fill-opacity="0.2"/>
<path d="M397.692 22.8473V82.2253C397.692 87.7759 399.886 92.1647 402.339 94.23C406.469 97.4571 411.245 97.7153 412.278 97.7153H363.098C364.647 97.7153 377.426 97.1989 377.426 82.2253V22.8473C377.426 17.1677 375.231 12.7789 372.779 10.8427C371.617 9.80999 370.326 9.0355 368.648 8.51917C365.55 7.35742 364.518 7.35742 363.098 7.35742H412.278C410.342 7.35742 408.535 7.61559 404.533 9.29366C400.532 10.9717 397.692 15.7478 397.692 22.8473Z" fill="#A12256" fill-opacity="0.2"/>
<path d="M289.55 50.0842C291.099 61.1853 295.359 70.092 302.329 76.8043C309.3 83.3875 317.561 86.8727 327.113 87.0018C343.377 87.3891 350.09 77.7079 352.413 73.7063L353.059 72.1573C352.929 73.3191 352.671 74.739 350.09 80.0314C348.928 82.613 347.379 85.0656 345.572 87.26C342.087 91.5197 334.987 96.5539 326.726 98.4902C310.849 101.975 295.746 97.7157 285.936 89.0671C276.254 80.4186 270.058 68.0267 269.671 55.1184C269.413 45.3081 271.349 36.7887 275.609 29.431C284.258 14.5865 298.198 7.35785 314.592 6.19611C321.95 5.67978 329.307 6.3252 336.665 8.26144C341.828 9.68134 346.475 11.7467 348.024 12.7793L349.315 13.6829L349.057 39.1122C343.765 28.5274 336.794 20.0079 328.146 13.6829C319.497 7.22877 310.719 6.3252 301.813 11.1013C296.649 13.812 293.035 18.8462 290.841 26.2039C288.646 33.5616 288.259 41.5647 289.55 50.0842Z" fill="#A12256" fill-opacity="0.2"/>
<path d="M248.366 11.4886L248.495 35.8852C246.301 30.5928 241.912 25.0423 235.587 19.2336C230.94 15.1029 226.68 12.0049 220.613 9.55236C214.546 6.97071 209.641 7.22887 203.962 9.81052C198.927 12.7794 197.378 18.33 198.927 24.5259C200.993 32.2709 207.447 36.6597 220.871 39.7577C248.753 46.3409 258.305 57.7002 254.562 77.8371C251.335 95.1341 235.458 100.427 220.355 100.168C205.252 99.9102 192.861 96.8122 183.438 90.7453V60.2818C186.923 67.6395 191.957 74.7391 198.282 81.3223C204.736 87.9055 211.577 92.4234 218.935 94.6178C230.294 97.974 243.203 97.7158 244.623 87.131C245.268 82.0968 243.461 77.708 239.201 73.7064C235.071 69.7049 227.067 66.0906 215.192 62.8635C191.957 56.6675 184.083 46.2118 185.632 29.5602C186.406 21.428 190.021 15.4902 196.604 11.4886C203.187 7.48703 211.319 5.5508 221.13 5.67988C226.164 5.80897 230.811 6.3253 235.329 7.22887C239.847 8.13246 243.203 9.16511 245.268 10.0687L248.366 11.4886Z" fill="#A12256" fill-opacity="0.2"/>
<path d="M132.943 1.16174L169.989 86.3563C171.409 89.5833 173.346 92.0359 175.798 93.9722C180.961 97.5865 183.672 97.7155 186.254 97.7155H135.524C135.395 97.7155 150.111 95.6502 145.076 82.871L137.202 62.8632L108.159 62.7341L100.672 81.0639C97.1868 89.3252 101.059 97.0701 110.482 97.7155H80.5352C86.7311 97.3283 93.8307 91.6487 97.5741 82.4838L132.555 0L132.943 1.16174ZM123.391 30.9798C121.842 30.9798 119.389 35.3686 115.904 44.0172L108.933 61.0561H136.428L128.812 41.0483L127.65 38.0794C125.585 33.5615 124.165 31.238 123.391 30.9798ZM186.77 97.7155H186.254H186.77Z" fill="#A12256" fill-opacity="0.2"/>
<path d="M46.5988 96.5535H47.7606C54.4729 96.5535 62.2178 92.9392 70.8663 85.5815C79.5149 78.2238 85.1945 71.5115 87.6471 65.5737L81.193 97.7153H0C1.41991 97.7153 2.45257 97.7153 5.55055 96.5535C9.81028 95.0045 14.3282 90.7448 14.3282 80.9345V22.8473C14.3282 15.7478 11.7465 10.9717 8.1322 9.29366C4.64697 7.61559 2.83982 7.35742 1.16174 7.35742H48.0187C46.857 7.35742 45.6952 7.35742 42.7263 8.51917C38.9829 9.80999 34.7232 13.8116 34.7232 22.8473V81.3218C34.7232 91.5193 38.7248 96.5535 46.5988 96.5535Z" fill="#A12256" fill-opacity="0.2"/>
<path d="M573.484 445.357H602.141C594.525 447.035 588.2 452.457 583.036 461.364L568.966 486.922C567.288 490.149 566.385 494.796 566.385 501.121V521.387C566.385 527.196 568.837 531.714 572.064 533.392C575.55 535.07 577.357 535.586 579.293 535.715H533.211C534.889 535.715 537.083 535.199 540.181 533.521C543.408 531.843 545.861 527.583 545.861 521.903L545.99 504.735C545.99 498.41 544.699 493.118 542.246 489.116L524.304 459.686C518.108 449.746 510.363 445.357 506.361 445.357L552.315 445.487C544.957 445.616 541.085 452.457 545.086 459.815L559.802 484.986C562.77 490.278 565.739 490.02 568.837 484.211L581.358 461.751C586.134 453.102 583.295 446.519 573.484 445.357Z" fill="#55142E" fill-opacity="0.3"/>
<path d="M467.471 538.942L425.519 456.975C421.776 449.23 415.193 445.357 405.77 445.357H464.631L462.695 445.616C457.79 446.261 447.721 449.746 451.852 460.202C454.821 467.043 460.501 478.403 468.633 494.538C471.86 500.863 474.441 504.09 476.507 504.09C479.476 504.09 480.637 503.186 483.348 496.474L496.773 464.074C498.967 458.782 498.58 454.393 495.869 450.908C493.158 447.294 488.641 445.487 482.315 445.357H516.393C512.908 446.39 510.972 447.165 507.874 449.617C504.776 452.07 501.936 456.2 499.483 462.009L467.471 538.942Z" fill="#55142E" fill-opacity="0.3"/>
<path d="M397.692 460.847V520.225C397.692 525.776 399.886 530.165 402.339 532.23C406.469 535.457 411.245 535.715 412.278 535.715H363.098C364.647 535.715 377.426 535.199 377.426 520.225V460.847C377.426 455.168 375.231 450.779 372.779 448.843C371.617 447.81 370.326 447.035 368.648 446.519C365.55 445.357 364.518 445.357 363.098 445.357H412.278C410.342 445.357 408.535 445.616 404.533 447.294C400.532 448.972 397.692 453.748 397.692 460.847Z" fill="#55142E" fill-opacity="0.3"/>
<path d="M289.55 488.084C291.099 499.185 295.359 508.092 302.329 514.804C309.3 521.388 317.561 524.873 327.113 525.002C343.377 525.389 350.09 515.708 352.413 511.706L353.059 510.157C352.929 511.319 352.671 512.739 350.09 518.031C348.928 520.613 347.379 523.066 345.572 525.26C342.087 529.52 334.987 534.554 326.726 536.49C310.849 539.975 295.746 535.716 285.936 527.067C276.254 518.419 270.058 506.027 269.671 493.118C269.413 483.308 271.349 474.789 275.609 467.431C284.258 452.586 298.198 445.358 314.592 444.196C321.95 443.68 329.307 444.325 336.665 446.261C341.828 447.681 346.475 449.747 348.024 450.779L349.315 451.683L349.057 477.112C343.765 466.527 336.794 458.008 328.146 451.683C319.497 445.229 310.719 444.325 301.813 449.101C296.649 451.812 293.035 456.846 290.841 464.204C288.646 471.562 288.259 479.565 289.55 488.084Z" fill="#55142E" fill-opacity="0.3"/>
<path d="M248.366 449.489L248.495 473.885C246.301 468.593 241.912 463.042 235.587 457.234C230.94 453.103 226.68 450.005 220.613 447.552C214.546 444.971 209.641 445.229 203.962 447.811C198.927 450.779 197.378 456.33 198.927 462.526C200.993 470.271 207.447 474.66 220.871 477.758C248.753 484.341 258.305 495.7 254.562 515.837C251.335 533.134 235.458 538.427 220.355 538.168C205.252 537.91 192.861 534.812 183.438 528.745V498.282C186.923 505.64 191.957 512.739 198.282 519.322C204.736 525.906 211.577 530.423 218.935 532.618C230.294 535.974 243.203 535.716 244.623 525.131C245.268 520.097 243.461 515.708 239.201 511.706C235.071 507.705 227.067 504.091 215.192 500.863C191.957 494.668 184.083 484.212 185.632 467.56C186.406 459.428 190.021 453.49 196.604 449.489C203.187 445.487 211.319 443.551 221.13 443.68C226.164 443.809 230.811 444.325 235.329 445.229C239.847 446.132 243.203 447.165 245.268 448.069L248.366 449.489Z" fill="#55142E" fill-opacity="0.3"/>
<path d="M132.943 439.162L169.989 524.356C171.409 527.583 173.346 530.036 175.798 531.972C180.961 535.586 183.672 535.716 186.254 535.716H135.524C135.395 535.716 150.111 533.65 145.076 520.871L137.202 500.863L108.159 500.734L100.672 519.064C97.1868 527.325 101.059 535.07 110.482 535.716H80.5352C86.7311 535.328 93.8307 529.649 97.5741 520.484L132.555 438L132.943 439.162ZM123.391 468.98C121.842 468.98 119.389 473.369 115.904 482.017L108.933 499.056H136.428L128.812 479.048L127.65 476.079C125.585 471.561 124.165 469.238 123.391 468.98ZM186.77 535.716H186.254H186.77Z" fill="#55142E" fill-opacity="0.3"/>
<path d="M46.5988 534.554H47.7606C54.4729 534.554 62.2178 530.939 70.8663 523.581C79.5149 516.224 85.1945 509.511 87.6471 503.574L81.193 535.715H0C1.41991 535.715 2.45257 535.715 5.55055 534.554C9.81028 533.005 14.3282 528.745 14.3282 518.935V460.847C14.3282 453.748 11.7465 448.972 8.1322 447.294C4.64697 445.616 2.83982 445.357 1.16174 445.357H48.0187C46.857 445.357 45.6952 445.357 42.7263 446.519C38.9829 447.81 34.7232 451.812 34.7232 460.847V519.322C34.7232 529.519 38.7248 534.554 46.5988 534.554Z" fill="#55142E" fill-opacity="0.3"/>
<path d="M573.484 299.357H602.141C594.525 301.035 588.2 306.457 583.036 315.364L568.966 340.922C567.288 344.149 566.385 348.796 566.385 355.121V375.387C566.385 381.196 568.837 385.714 572.064 387.392C575.55 389.07 577.357 389.586 579.293 389.715H533.211C534.889 389.715 537.083 389.199 540.181 387.521C543.408 385.843 545.861 381.583 545.861 375.903L545.99 358.735C545.99 352.41 544.699 347.118 542.246 343.116L524.304 313.686C518.108 303.746 510.363 299.357 506.361 299.357L552.315 299.487C544.957 299.616 541.085 306.457 545.086 313.815L559.802 338.986C562.77 344.278 565.739 344.02 568.837 338.211L581.358 315.751C586.134 307.102 583.295 300.519 573.484 299.357Z" fill="#A12256" fill-opacity="0.2"/>
<path d="M467.471 392.942L425.519 310.975C421.776 303.23 415.193 299.357 405.77 299.357H464.631L462.695 299.616C457.79 300.261 447.721 303.746 451.852 314.202C454.821 321.043 460.501 332.403 468.633 348.538C471.86 354.863 474.441 358.09 476.507 358.09C479.476 358.09 480.637 357.186 483.348 350.474L496.773 318.074C498.967 312.782 498.58 308.393 495.869 304.908C493.158 301.294 488.641 299.487 482.315 299.357H516.393C512.908 300.39 510.972 301.165 507.874 303.617C504.776 306.07 501.936 310.2 499.483 316.009L467.471 392.942Z" fill="#A12256" fill-opacity="0.2"/>
<path d="M397.692 314.847V374.225C397.692 379.776 399.886 384.165 402.339 386.23C406.469 389.457 411.245 389.715 412.278 389.715H363.098C364.647 389.715 377.426 389.199 377.426 374.225V314.847C377.426 309.168 375.231 304.779 372.779 302.843C371.617 301.81 370.326 301.035 368.648 300.519C365.55 299.357 364.518 299.357 363.098 299.357H412.278C410.342 299.357 408.535 299.616 404.533 301.294C400.532 302.972 397.692 307.748 397.692 314.847Z" fill="#A12256" fill-opacity="0.2"/>
<path d="M289.55 342.084C291.099 353.185 295.359 362.092 302.329 368.804C309.3 375.388 317.561 378.873 327.113 379.002C343.377 379.389 350.09 369.708 352.413 365.706L353.059 364.157C352.929 365.319 352.671 366.739 350.09 372.031C348.928 374.613 347.379 377.066 345.572 379.26C342.087 383.52 334.987 388.554 326.726 390.49C310.849 393.975 295.746 389.716 285.936 381.067C276.254 372.419 270.058 360.027 269.671 347.118C269.413 337.308 271.349 328.789 275.609 321.431C284.258 306.586 298.198 299.358 314.592 298.196C321.95 297.68 329.307 298.325 336.665 300.261C341.828 301.681 346.475 303.747 348.024 304.779L349.315 305.683L349.057 331.112C343.765 320.527 336.794 312.008 328.146 305.683C319.497 299.229 310.719 298.325 301.813 303.101C296.649 305.812 293.035 310.846 290.841 318.204C288.646 325.562 288.259 333.565 289.55 342.084Z" fill="#A12256" fill-opacity="0.2"/>
<path d="M248.366 303.489L248.495 327.885C246.301 322.593 241.912 317.042 235.587 311.234C230.94 307.103 226.68 304.005 220.613 301.552C214.546 298.971 209.641 299.229 203.962 301.811C198.927 304.779 197.378 310.33 198.927 316.526C200.993 324.271 207.447 328.66 220.871 331.758C248.753 338.341 258.305 349.7 254.562 369.837C251.335 387.134 235.458 392.427 220.355 392.168C205.252 391.91 192.861 388.812 183.438 382.745V352.282C186.923 359.64 191.957 366.739 198.282 373.322C204.736 379.906 211.577 384.423 218.935 386.618C230.294 389.974 243.203 389.716 244.623 379.131C245.268 374.097 243.461 369.708 239.201 365.706C235.071 361.705 227.067 358.091 215.192 354.863C191.957 348.668 184.083 338.212 185.632 321.56C186.406 313.428 190.021 307.49 196.604 303.489C203.187 299.487 211.319 297.551 221.13 297.68C226.164 297.809 230.811 298.325 235.329 299.229C239.847 300.132 243.203 301.165 245.268 302.069L248.366 303.489Z" fill="#A12256" fill-opacity="0.2"/>
<path d="M132.943 293.162L169.989 378.356C171.409 381.583 173.346 384.036 175.798 385.972C180.961 389.586 183.672 389.716 186.254 389.716H135.524C135.395 389.716 150.111 387.65 145.076 374.871L137.202 354.863L108.159 354.734L100.672 373.064C97.1868 381.325 101.059 389.07 110.482 389.716H80.5352C86.7311 389.328 93.8307 383.649 97.5741 374.484L132.555 292L132.943 293.162ZM123.391 322.98C121.842 322.98 119.389 327.369 115.904 336.017L108.933 353.056H136.428L128.812 333.048L127.65 330.079C125.585 325.561 124.165 323.238 123.391 322.98ZM186.77 389.716H186.254H186.77Z" fill="#A12256" fill-opacity="0.2"/>
<path d="M46.5988 388.554H47.7606C54.4729 388.554 62.2178 384.939 70.8663 377.581C79.5149 370.224 85.1945 363.511 87.6471 357.574L81.193 389.715H0C1.41991 389.715 2.45257 389.715 5.55055 388.554C9.81028 387.005 14.3282 382.745 14.3282 372.935V314.847C14.3282 307.748 11.7465 302.972 8.1322 301.294C4.64697 299.616 2.83982 299.357 1.16174 299.357H48.0187C46.857 299.357 45.6952 299.357 42.7263 300.519C38.9829 301.81 34.7232 305.812 34.7232 314.847V373.322C34.7232 383.519 38.7248 388.554 46.5988 388.554Z" fill="#A12256" fill-opacity="0.2"/>
<path d="M573.486 591.358H602.143C594.527 593.036 588.202 598.458 583.038 607.365L568.968 632.923C567.29 636.15 566.387 640.797 566.387 647.122V667.388C566.387 673.197 568.839 677.715 572.066 679.393C575.552 681.071 577.359 681.587 579.295 681.716H533.212C534.891 681.716 537.085 681.2 540.183 679.522C543.41 677.844 545.863 673.584 545.863 667.904L545.992 650.736C545.992 644.411 544.701 639.119 542.248 635.117L524.306 605.687C518.11 595.747 510.365 591.358 506.363 591.358L552.317 591.487C544.959 591.617 541.087 598.458 545.088 605.816L559.803 630.987C562.772 636.279 565.741 636.021 568.839 630.212L581.36 607.752C586.136 599.103 583.297 592.52 573.486 591.358Z" fill="#A12256" fill-opacity="0.2"/>
<path d="M467.471 684.943L425.519 602.976C421.776 595.231 415.193 591.358 405.77 591.358H464.631L462.695 591.617C457.79 592.262 447.721 595.747 451.852 606.203C454.821 613.044 460.501 624.404 468.633 640.539C471.86 646.864 474.441 650.091 476.507 650.091C479.476 650.091 480.637 649.187 483.348 642.475L496.773 610.075C498.967 604.783 498.58 600.394 495.869 596.909C493.158 593.295 488.641 591.487 482.315 591.358H516.393C512.908 592.391 510.972 593.166 507.874 595.618C504.776 598.071 501.936 602.201 499.483 608.01L467.471 684.943Z" fill="#A12256" fill-opacity="0.2"/>
<path d="M397.692 606.848V666.226C397.692 671.777 399.886 676.166 402.339 678.231C406.469 681.458 411.245 681.716 412.278 681.716H363.098C364.647 681.716 377.426 681.2 377.426 666.226V606.848C377.426 601.169 375.231 596.78 372.779 594.844C371.617 593.811 370.326 593.036 368.648 592.52C365.55 591.358 364.518 591.358 363.098 591.358H412.278C410.342 591.358 408.535 591.617 404.533 593.295C400.532 594.973 397.692 599.749 397.692 606.848Z" fill="#A12256" fill-opacity="0.2"/>
<path d="M289.55 634.084C291.099 645.185 295.359 654.092 302.329 660.804C309.3 667.388 317.561 670.873 327.113 671.002C343.377 671.389 350.09 661.708 352.413 657.706L353.059 656.157C352.929 657.319 352.671 658.739 350.09 664.031C348.928 666.613 347.379 669.066 345.572 671.26C342.087 675.52 334.987 680.554 326.726 682.49C310.849 685.975 295.746 681.716 285.936 673.067C276.254 664.419 270.058 652.027 269.671 639.118C269.413 629.308 271.349 620.789 275.609 613.431C284.258 598.586 298.198 591.358 314.592 590.196C321.95 589.68 329.307 590.325 336.665 592.261C341.828 593.681 346.475 595.747 348.024 596.779L349.315 597.683L349.057 623.112C343.765 612.527 336.794 604.008 328.146 597.683C319.497 591.229 310.719 590.325 301.813 595.101C296.649 597.812 293.035 602.846 290.841 610.204C288.646 617.562 288.259 625.565 289.55 634.084Z" fill="#A12256" fill-opacity="0.2"/>
<path d="M248.366 595.49L248.495 619.886C246.301 614.594 241.912 609.043 235.587 603.235C230.94 599.104 226.68 596.006 220.613 593.553C214.546 590.972 209.641 591.23 203.962 593.811C198.927 596.78 197.378 602.331 198.927 608.527C200.993 616.272 207.447 620.661 220.871 623.759C248.753 630.342 258.305 641.701 254.562 661.838C251.335 679.135 235.458 684.428 220.355 684.169C205.252 683.911 192.861 680.813 183.438 674.746V644.283C186.923 651.641 191.957 658.74 198.282 665.323C204.736 671.906 211.577 676.424 218.935 678.619C230.294 681.975 243.203 681.717 244.623 671.132C245.268 666.098 243.461 661.709 239.201 657.707C235.071 653.706 227.067 650.092 215.192 646.864C191.957 640.668 184.083 630.213 185.632 613.561C186.406 605.429 190.021 599.491 196.604 595.49C203.187 591.488 211.319 589.552 221.13 589.681C226.164 589.81 230.811 590.326 235.329 591.23C239.847 592.133 243.203 593.166 245.268 594.07L248.366 595.49Z" fill="#A12256" fill-opacity="0.2"/>
<path d="M132.943 585.162L169.989 670.356C171.409 673.583 173.346 676.036 175.798 677.972C180.961 681.586 183.672 681.716 186.254 681.716H135.524C135.395 681.716 150.111 679.65 145.076 666.871L137.202 646.863L108.159 646.734L100.672 665.064C97.1868 673.325 101.059 681.07 110.482 681.716H80.5352C86.7311 681.328 93.8307 675.649 97.5741 666.484L132.555 584L132.943 585.162ZM123.391 614.98C121.842 614.98 119.389 619.369 115.904 628.017L108.933 645.056H136.428L128.812 625.048L127.65 622.079C125.585 617.561 124.165 615.238 123.391 614.98ZM186.77 681.716H186.254H186.77Z" fill="#A12256" fill-opacity="0.2"/>
<path d="M46.5988 680.554H47.7606C54.4729 680.554 62.2178 676.94 70.8663 669.582C79.5149 662.225 85.1945 655.512 87.6471 649.575L81.193 681.716H0C1.41991 681.716 2.45257 681.716 5.55055 680.554C9.81028 679.005 14.3282 674.746 14.3282 664.935V606.848C14.3282 599.749 11.7465 594.973 8.1322 593.295C4.64697 591.617 2.83982 591.358 1.16174 591.358H48.0187C46.857 591.358 45.6952 591.358 42.7263 592.52C38.9829 593.811 34.7232 597.813 34.7232 606.848V665.323C34.7232 675.52 38.7248 680.554 46.5988 680.554Z" fill="#A12256" fill-opacity="0.2"/>
<path d="M573.486 883.358H602.143C594.527 885.036 588.202 890.458 583.038 899.365L568.968 924.923C567.29 928.15 566.387 932.797 566.387 939.122V959.388C566.387 965.197 568.839 969.715 572.066 971.393C575.552 973.071 577.359 973.587 579.295 973.716H533.212C534.891 973.716 537.085 973.2 540.183 971.522C543.41 969.844 545.863 965.584 545.863 959.904L545.992 942.736C545.992 936.411 544.701 931.119 542.248 927.117L524.306 897.687C518.11 887.747 510.365 883.358 506.363 883.358L552.317 883.487C544.959 883.617 541.087 890.458 545.088 897.816L559.803 922.987C562.772 928.279 565.741 928.021 568.839 922.212L581.36 899.752C586.136 891.103 583.297 884.52 573.486 883.358Z" fill="#A12256" fill-opacity="0.2"/>
<path d="M467.471 976.943L425.519 894.976C421.776 887.231 415.193 883.358 405.77 883.358H464.631L462.695 883.617C457.79 884.262 447.721 887.747 451.852 898.203C454.821 905.044 460.501 916.404 468.633 932.539C471.86 938.864 474.441 942.091 476.507 942.091C479.476 942.091 480.637 941.187 483.348 934.475L496.773 902.075C498.967 896.783 498.58 892.394 495.869 888.909C493.158 885.295 488.641 883.487 482.315 883.358H516.393C512.908 884.391 510.972 885.166 507.874 887.618C504.776 890.071 501.936 894.201 499.483 900.01L467.471 976.943Z" fill="#A12256" fill-opacity="0.2"/>
<path d="M397.692 898.848V958.226C397.692 963.777 399.886 968.166 402.339 970.231C406.469 973.458 411.245 973.716 412.278 973.716H363.098C364.647 973.716 377.426 973.2 377.426 958.226V898.848C377.426 893.169 375.231 888.78 372.779 886.844C371.617 885.811 370.326 885.036 368.648 884.52C365.55 883.358 364.518 883.358 363.098 883.358H412.278C410.342 883.358 408.535 883.617 404.533 885.295C400.532 886.973 397.692 891.749 397.692 898.848Z" fill="#A12256" fill-opacity="0.2"/>
<path d="M289.55 926.084C291.099 937.185 295.359 946.092 302.329 952.804C309.3 959.388 317.561 962.873 327.113 963.002C343.377 963.389 350.09 953.708 352.413 949.706L353.059 948.157C352.929 949.319 352.671 950.739 350.09 956.031C348.928 958.613 347.379 961.066 345.572 963.26C342.087 967.52 334.987 972.554 326.726 974.49C310.849 977.975 295.746 973.716 285.936 965.067C276.254 956.419 270.058 944.027 269.671 931.118C269.413 921.308 271.349 912.789 275.609 905.431C284.258 890.586 298.198 883.358 314.592 882.196C321.95 881.68 329.307 882.325 336.665 884.261C341.828 885.681 346.475 887.747 348.024 888.779L349.315 889.683L349.057 915.112C343.765 904.527 336.794 896.008 328.146 889.683C319.497 883.229 310.719 882.325 301.813 887.101C296.649 889.812 293.035 894.846 290.841 902.204C288.646 909.562 288.259 917.565 289.55 926.084Z" fill="#A12256" fill-opacity="0.2"/>
<path d="M248.366 887.49L248.495 911.886C246.301 906.594 241.912 901.043 235.587 895.235C230.94 891.104 226.68 888.006 220.613 885.553C214.546 882.972 209.641 883.23 203.962 885.811C198.927 888.78 197.378 894.331 198.927 900.527C200.993 908.272 207.447 912.661 220.871 915.759C248.753 922.342 258.305 933.701 254.562 953.838C251.335 971.135 235.458 976.428 220.355 976.169C205.252 975.911 192.861 972.813 183.438 966.746V936.283C186.923 943.641 191.957 950.74 198.282 957.323C204.736 963.906 211.577 968.424 218.935 970.619C230.294 973.975 243.203 973.717 244.623 963.132C245.268 958.098 243.461 953.709 239.201 949.707C235.071 945.706 227.067 942.092 215.192 938.864C191.957 932.668 184.083 922.213 185.632 905.561C186.406 897.429 190.021 891.491 196.604 887.49C203.187 883.488 211.319 881.552 221.13 881.681C226.164 881.81 230.811 882.326 235.329 883.23C239.847 884.133 243.203 885.166 245.268 886.07L248.366 887.49Z" fill="#A12256" fill-opacity="0.2"/>
<path d="M132.943 877.162L169.989 962.356C171.409 965.583 173.346 968.036 175.798 969.972C180.961 973.586 183.672 973.716 186.254 973.716H135.524C135.395 973.716 150.111 971.65 145.076 958.871L137.202 938.863L108.159 938.734L100.672 957.064C97.1868 965.325 101.059 973.07 110.482 973.716H80.5352C86.7311 973.328 93.8307 967.649 97.5741 958.484L132.555 876L132.943 877.162ZM123.391 906.98C121.842 906.98 119.389 911.369 115.904 920.017L108.933 937.056H136.428L128.812 917.048L127.65 914.079C125.585 909.561 124.165 907.238 123.391 906.98ZM186.77 973.716H186.254H186.77Z" fill="#A12256" fill-opacity="0.2"/>
<path d="M46.5988 972.554H47.7606C54.4729 972.554 62.2178 968.94 70.8663 961.582C79.5149 954.225 85.1945 947.512 87.6471 941.575L81.193 973.716H0C1.41991 973.716 2.45257 973.716 5.55055 972.554C9.81028 971.005 14.3282 966.746 14.3282 956.935V898.848C14.3282 891.749 11.7465 886.973 8.1322 885.295C4.64697 883.617 2.83982 883.358 1.16174 883.358H48.0187C46.857 883.358 45.6952 883.358 42.7263 884.52C38.9829 885.811 34.7232 889.813 34.7232 898.848V957.323C34.7232 967.52 38.7248 972.554 46.5988 972.554Z" fill="#A12256" fill-opacity="0.2"/>
<path d="M573.486 1175.36H602.143C594.527 1177.04 588.202 1182.46 583.038 1191.36L568.968 1216.92C567.29 1220.15 566.387 1224.8 566.387 1231.12V1251.39C566.387 1257.2 568.839 1261.71 572.066 1263.39C575.552 1265.07 577.359 1265.59 579.295 1265.72H533.212C534.891 1265.72 537.085 1265.2 540.183 1263.52C543.41 1261.84 545.863 1257.58 545.863 1251.9L545.992 1234.74C545.992 1228.41 544.701 1223.12 542.248 1219.12L524.306 1189.69C518.11 1179.75 510.365 1175.36 506.363 1175.36L552.317 1175.49C544.959 1175.62 541.087 1182.46 545.088 1189.82L559.803 1214.99C562.772 1220.28 565.741 1220.02 568.839 1214.21L581.36 1191.75C586.136 1183.1 583.297 1176.52 573.486 1175.36Z" fill="#A12256" fill-opacity="0.2"/>
<path d="M467.471 1268.94L425.519 1186.98C421.776 1179.23 415.193 1175.36 405.77 1175.36H464.631L462.695 1175.62C457.79 1176.26 447.721 1179.75 451.852 1190.2C454.821 1197.04 460.501 1208.4 468.633 1224.54C471.86 1230.86 474.441 1234.09 476.507 1234.09C479.476 1234.09 480.637 1233.19 483.348 1226.48L496.773 1194.08C498.967 1188.78 498.58 1184.39 495.869 1180.91C493.158 1177.29 488.641 1175.49 482.315 1175.36H516.393C512.908 1176.39 510.972 1177.17 507.874 1179.62C504.776 1182.07 501.936 1186.2 499.483 1192.01L467.471 1268.94Z" fill="#A12256" fill-opacity="0.2"/>
<path d="M397.692 1190.85V1250.23C397.692 1255.78 399.886 1260.17 402.339 1262.23C406.469 1265.46 411.245 1265.72 412.278 1265.72H363.098C364.647 1265.72 377.426 1265.2 377.426 1250.23V1190.85C377.426 1185.17 375.231 1180.78 372.779 1178.84C371.617 1177.81 370.326 1177.04 368.648 1176.52C365.55 1175.36 364.518 1175.36 363.098 1175.36H412.278C410.342 1175.36 408.535 1175.62 404.533 1177.29C400.532 1178.97 397.692 1183.75 397.692 1190.85Z" fill="#A12256" fill-opacity="0.2"/>
<path d="M289.55 1218.08C291.099 1229.19 295.359 1238.09 302.329 1244.8C309.3 1251.39 317.561 1254.87 327.113 1255C343.377 1255.39 350.09 1245.71 352.413 1241.71L353.059 1240.16C352.929 1241.32 352.671 1242.74 350.09 1248.03C348.928 1250.61 347.379 1253.07 345.572 1255.26C342.087 1259.52 334.987 1264.55 326.726 1266.49C310.849 1269.98 295.746 1265.72 285.936 1257.07C276.254 1248.42 270.058 1236.03 269.671 1223.12C269.413 1213.31 271.349 1204.79 275.609 1197.43C284.258 1182.59 298.198 1175.36 314.592 1174.2C321.95 1173.68 329.307 1174.33 336.665 1176.26C341.828 1177.68 346.475 1179.75 348.024 1180.78L349.315 1181.68L349.057 1207.11C343.765 1196.53 336.794 1188.01 328.146 1181.68C319.497 1175.23 310.719 1174.33 301.813 1179.1C296.649 1181.81 293.035 1186.85 290.841 1194.2C288.646 1201.56 288.259 1209.56 289.55 1218.08Z" fill="#A12256" fill-opacity="0.2"/>
<path d="M248.366 1179.49L248.495 1203.89C246.301 1198.59 241.912 1193.04 235.587 1187.23C230.94 1183.1 226.68 1180.01 220.613 1177.55C214.546 1174.97 209.641 1175.23 203.962 1177.81C198.927 1180.78 197.378 1186.33 198.927 1192.53C200.993 1200.27 207.447 1204.66 220.871 1207.76C248.753 1214.34 258.305 1225.7 254.562 1245.84C251.335 1263.14 235.458 1268.43 220.355 1268.17C205.252 1267.91 192.861 1264.81 183.438 1258.75V1228.28C186.923 1235.64 191.957 1242.74 198.282 1249.32C204.736 1255.91 211.577 1260.42 218.935 1262.62C230.294 1265.97 243.203 1265.72 244.623 1255.13C245.268 1250.1 243.461 1245.71 239.201 1241.71C235.071 1237.71 227.067 1234.09 215.192 1230.86C191.957 1224.67 184.083 1214.21 185.632 1197.56C186.406 1189.43 190.021 1183.49 196.604 1179.49C203.187 1175.49 211.319 1173.55 221.13 1173.68C226.164 1173.81 230.811 1174.33 235.329 1175.23C239.847 1176.13 243.203 1177.17 245.268 1178.07L248.366 1179.49Z" fill="#A12256" fill-opacity="0.2"/>
<path d="M132.943 1169.16L169.989 1254.36C171.409 1257.58 173.346 1260.04 175.798 1261.97C180.961 1265.59 183.672 1265.72 186.254 1265.72H135.524C135.395 1265.72 150.111 1263.65 145.076 1250.87L137.202 1230.86L108.159 1230.73L100.672 1249.06C97.1868 1257.33 101.059 1265.07 110.482 1265.72H80.5352C86.7311 1265.33 93.8307 1259.65 97.5741 1250.48L132.555 1168L132.943 1169.16ZM123.391 1198.98C121.842 1198.98 119.389 1203.37 115.904 1212.02L108.933 1229.06H136.428L128.812 1209.05L127.65 1206.08C125.585 1201.56 124.165 1199.24 123.391 1198.98ZM186.77 1265.72H186.254H186.77Z" fill="#A12256" fill-opacity="0.2"/>
<path d="M46.5988 1264.55H47.7606C54.4729 1264.55 62.2178 1260.94 70.8663 1253.58C79.5149 1246.22 85.1945 1239.51 87.6471 1233.57L81.193 1265.72H0C1.41991 1265.72 2.45257 1265.72 5.55055 1264.55C9.81028 1263.01 14.3282 1258.75 14.3282 1248.94V1190.85C14.3282 1183.75 11.7465 1178.97 8.1322 1177.29C4.64697 1175.62 2.83982 1175.36 1.16174 1175.36H48.0187C46.857 1175.36 45.6952 1175.36 42.7263 1176.52C38.9829 1177.81 34.7232 1181.81 34.7232 1190.85V1249.32C34.7232 1259.52 38.7248 1264.55 46.5988 1264.55Z" fill="#A12256" fill-opacity="0.2"/>
<path d="M573.486 737.358H602.143C594.527 739.036 588.202 744.458 583.038 753.365L568.968 778.923C567.29 782.15 566.387 786.797 566.387 793.122V813.388C566.387 819.197 568.839 823.715 572.066 825.393C575.552 827.071 577.359 827.587 579.295 827.716H533.212C534.891 827.716 537.085 827.2 540.183 825.522C543.41 823.844 545.863 819.584 545.863 813.904L545.992 796.736C545.992 790.411 544.701 785.119 542.248 781.117L524.306 751.687C518.11 741.747 510.365 737.358 506.363 737.358L552.317 737.487C544.959 737.617 541.087 744.458 545.088 751.816L559.803 776.987C562.772 782.279 565.741 782.021 568.839 776.212L581.36 753.752C586.136 745.103 583.297 738.52 573.486 737.358Z" fill="#55142E" fill-opacity="0.3"/>
<path d="M467.471 830.943L425.519 748.976C421.776 741.231 415.193 737.358 405.77 737.358H464.631L462.695 737.617C457.79 738.262 447.721 741.747 451.852 752.203C454.821 759.044 460.501 770.404 468.633 786.539C471.86 792.864 474.441 796.091 476.507 796.091C479.476 796.091 480.637 795.187 483.348 788.475L496.773 756.075C498.967 750.783 498.58 746.394 495.869 742.909C493.158 739.295 488.641 737.487 482.315 737.358H516.393C512.908 738.391 510.972 739.166 507.874 741.618C504.776 744.071 501.936 748.201 499.483 754.01L467.471 830.943Z" fill="#55142E" fill-opacity="0.3"/>
<path d="M397.692 752.848V812.226C397.692 817.777 399.886 822.166 402.339 824.231C406.469 827.458 411.245 827.716 412.278 827.716H363.098C364.647 827.716 377.426 827.2 377.426 812.226V752.848C377.426 747.169 375.231 742.78 372.779 740.844C371.617 739.811 370.326 739.036 368.648 738.52C365.55 737.358 364.518 737.358 363.098 737.358H412.278C410.342 737.358 408.535 737.617 404.533 739.295C400.532 740.973 397.692 745.749 397.692 752.848Z" fill="#55142E" fill-opacity="0.3"/>
<path d="M289.55 780.084C291.099 791.185 295.359 800.092 302.329 806.804C309.3 813.388 317.561 816.873 327.113 817.002C343.377 817.389 350.09 807.708 352.413 803.706L353.059 802.157C352.929 803.319 352.671 804.739 350.09 810.031C348.928 812.613 347.379 815.066 345.572 817.26C342.087 821.52 334.987 826.554 326.726 828.49C310.849 831.975 295.746 827.716 285.936 819.067C276.254 810.419 270.058 798.027 269.671 785.118C269.413 775.308 271.349 766.789 275.609 759.431C284.258 744.586 298.198 737.358 314.592 736.196C321.95 735.68 329.307 736.325 336.665 738.261C341.828 739.681 346.475 741.747 348.024 742.779L349.315 743.683L349.057 769.112C343.765 758.527 336.794 750.008 328.146 743.683C319.497 737.229 310.719 736.325 301.813 741.101C296.649 743.812 293.035 748.846 290.841 756.204C288.646 763.562 288.259 771.565 289.55 780.084Z" fill="#55142E" fill-opacity="0.3"/>
<path d="M248.366 741.49L248.495 765.886C246.301 760.594 241.912 755.043 235.587 749.235C230.94 745.104 226.68 742.006 220.613 739.553C214.546 736.972 209.641 737.23 203.962 739.811C198.927 742.78 197.378 748.331 198.927 754.527C200.993 762.272 207.447 766.661 220.871 769.759C248.753 776.342 258.305 787.701 254.562 807.838C251.335 825.135 235.458 830.428 220.355 830.169C205.252 829.911 192.861 826.813 183.438 820.746V790.283C186.923 797.641 191.957 804.74 198.282 811.323C204.736 817.906 211.577 822.424 218.935 824.619C230.294 827.975 243.203 827.717 244.623 817.132C245.268 812.098 243.461 807.709 239.201 803.707C235.071 799.706 227.067 796.092 215.192 792.864C191.957 786.668 184.083 776.213 185.632 759.561C186.406 751.429 190.021 745.491 196.604 741.49C203.187 737.488 211.319 735.552 221.13 735.681C226.164 735.81 230.811 736.326 235.329 737.23C239.847 738.133 243.203 739.166 245.268 740.07L248.366 741.49Z" fill="#55142E" fill-opacity="0.3"/>
<path d="M132.943 731.162L169.989 816.356C171.409 819.583 173.346 822.036 175.798 823.972C180.961 827.586 183.672 827.716 186.254 827.716H135.524C135.395 827.716 150.111 825.65 145.076 812.871L137.202 792.863L108.159 792.734L100.672 811.064C97.1868 819.325 101.059 827.07 110.482 827.716H80.5352C86.7311 827.328 93.8307 821.649 97.5741 812.484L132.555 730L132.943 731.162ZM123.391 760.98C121.842 760.98 119.389 765.369 115.904 774.017L108.933 791.056H136.428L128.812 771.048L127.65 768.079C125.585 763.561 124.165 761.238 123.391 760.98ZM186.77 827.716H186.254H186.77Z" fill="#55142E" fill-opacity="0.3"/>
<path d="M46.5988 826.554H47.7606C54.4729 826.554 62.2178 822.94 70.8663 815.582C79.5149 808.225 85.1945 801.512 87.6471 795.575L81.193 827.716H0C1.41991 827.716 2.45257 827.716 5.55055 826.554C9.81028 825.005 14.3282 820.746 14.3282 810.935V752.848C14.3282 745.749 11.7465 740.973 8.1322 739.295C4.64697 737.617 2.83982 737.358 1.16174 737.358H48.0187C46.857 737.358 45.6952 737.358 42.7263 738.52C38.9829 739.811 34.7232 743.813 34.7232 752.848V811.323C34.7232 821.52 38.7248 826.554 46.5988 826.554Z" fill="#55142E" fill-opacity="0.3"/>
<path d="M573.486 1029.36H602.143C594.527 1031.04 588.202 1036.46 583.038 1045.36L568.968 1070.92C567.29 1074.15 566.387 1078.8 566.387 1085.12V1105.39C566.387 1111.2 568.839 1115.71 572.066 1117.39C575.552 1119.07 577.359 1119.59 579.295 1119.72H533.212C534.891 1119.72 537.085 1119.2 540.183 1117.52C543.41 1115.84 545.863 1111.58 545.863 1105.9L545.992 1088.74C545.992 1082.41 544.701 1077.12 542.248 1073.12L524.306 1043.69C518.11 1033.75 510.365 1029.36 506.363 1029.36L552.317 1029.49C544.959 1029.62 541.087 1036.46 545.088 1043.82L559.803 1068.99C562.772 1074.28 565.741 1074.02 568.839 1068.21L581.36 1045.75C586.136 1037.1 583.297 1030.52 573.486 1029.36Z" fill="#55142E" fill-opacity="0.3"/>
<path d="M467.471 1122.94L425.519 1040.98C421.776 1033.23 415.193 1029.36 405.77 1029.36H464.631L462.695 1029.62C457.79 1030.26 447.721 1033.75 451.852 1044.2C454.821 1051.04 460.501 1062.4 468.633 1078.54C471.86 1084.86 474.441 1088.09 476.507 1088.09C479.476 1088.09 480.637 1087.19 483.348 1080.48L496.773 1048.08C498.967 1042.78 498.58 1038.39 495.869 1034.91C493.158 1031.29 488.641 1029.49 482.315 1029.36H516.393C512.908 1030.39 510.972 1031.17 507.874 1033.62C504.776 1036.07 501.936 1040.2 499.483 1046.01L467.471 1122.94Z" fill="#55142E" fill-opacity="0.3"/>
<path d="M397.692 1044.85V1104.23C397.692 1109.78 399.886 1114.17 402.339 1116.23C406.469 1119.46 411.245 1119.72 412.278 1119.72H363.098C364.647 1119.72 377.426 1119.2 377.426 1104.23V1044.85C377.426 1039.17 375.231 1034.78 372.779 1032.84C371.617 1031.81 370.326 1031.04 368.648 1030.52C365.55 1029.36 364.518 1029.36 363.098 1029.36H412.278C410.342 1029.36 408.535 1029.62 404.533 1031.29C400.532 1032.97 397.692 1037.75 397.692 1044.85Z" fill="#55142E" fill-opacity="0.3"/>
<path d="M289.55 1072.08C291.099 1083.19 295.359 1092.09 302.329 1098.8C309.3 1105.39 317.561 1108.87 327.113 1109C343.377 1109.39 350.09 1099.71 352.413 1095.71L353.059 1094.16C352.929 1095.32 352.671 1096.74 350.09 1102.03C348.928 1104.61 347.379 1107.07 345.572 1109.26C342.087 1113.52 334.987 1118.55 326.726 1120.49C310.849 1123.98 295.746 1119.72 285.936 1111.07C276.254 1102.42 270.058 1090.03 269.671 1077.12C269.413 1067.31 271.349 1058.79 275.609 1051.43C284.258 1036.59 298.198 1029.36 314.592 1028.2C321.95 1027.68 329.307 1028.33 336.665 1030.26C341.828 1031.68 346.475 1033.75 348.024 1034.78L349.315 1035.68L349.057 1061.11C343.765 1050.53 336.794 1042.01 328.146 1035.68C319.497 1029.23 310.719 1028.33 301.813 1033.1C296.649 1035.81 293.035 1040.85 290.841 1048.2C288.646 1055.56 288.259 1063.56 289.55 1072.08Z" fill="#55142E" fill-opacity="0.3"/>
<path d="M248.366 1033.49L248.495 1057.89C246.301 1052.59 241.912 1047.04 235.587 1041.23C230.94 1037.1 226.68 1034.01 220.613 1031.55C214.546 1028.97 209.641 1029.23 203.962 1031.81C198.927 1034.78 197.378 1040.33 198.927 1046.53C200.993 1054.27 207.447 1058.66 220.871 1061.76C248.753 1068.34 258.305 1079.7 254.562 1099.84C251.335 1117.14 235.458 1122.43 220.355 1122.17C205.252 1121.91 192.861 1118.81 183.438 1112.75V1082.28C186.923 1089.64 191.957 1096.74 198.282 1103.32C204.736 1109.91 211.577 1114.42 218.935 1116.62C230.294 1119.97 243.203 1119.72 244.623 1109.13C245.268 1104.1 243.461 1099.71 239.201 1095.71C235.071 1091.71 227.067 1088.09 215.192 1084.86C191.957 1078.67 184.083 1068.21 185.632 1051.56C186.406 1043.43 190.021 1037.49 196.604 1033.49C203.187 1029.49 211.319 1027.55 221.13 1027.68C226.164 1027.81 230.811 1028.33 235.329 1029.23C239.847 1030.13 243.203 1031.17 245.268 1032.07L248.366 1033.49Z" fill="#55142E" fill-opacity="0.3"/>
<path d="M132.943 1023.16L169.989 1108.36C171.409 1111.58 173.346 1114.04 175.798 1115.97C180.961 1119.59 183.672 1119.72 186.254 1119.72H135.524C135.395 1119.72 150.111 1117.65 145.076 1104.87L137.202 1084.86L108.159 1084.73L100.672 1103.06C97.1868 1111.33 101.059 1119.07 110.482 1119.72H80.5352C86.7311 1119.33 93.8307 1113.65 97.5741 1104.48L132.555 1022L132.943 1023.16ZM123.391 1052.98C121.842 1052.98 119.389 1057.37 115.904 1066.02L108.933 1083.06H136.428L128.812 1063.05L127.65 1060.08C125.585 1055.56 124.165 1053.24 123.391 1052.98ZM186.77 1119.72H186.254H186.77Z" fill="#55142E" fill-opacity="0.3"/>
<path d="M46.5988 1118.55H47.7606C54.4729 1118.55 62.2178 1114.94 70.8663 1107.58C79.5149 1100.22 85.1945 1093.51 87.6471 1087.57L81.193 1119.72H0C1.41991 1119.72 2.45257 1119.72 5.55055 1118.55C9.81028 1117.01 14.3282 1112.75 14.3282 1102.94V1044.85C14.3282 1037.75 11.7465 1032.97 8.1322 1031.29C4.64697 1029.62 2.83982 1029.36 1.16174 1029.36H48.0187C46.857 1029.36 45.6952 1029.36 42.7263 1030.52C38.9829 1031.81 34.7232 1035.81 34.7232 1044.85V1103.32C34.7232 1113.52 38.7248 1118.55 46.5988 1118.55Z" fill="#55142E" fill-opacity="0.3"/>
</svg>
