<svg width="1149" height="970" viewBox="0 0 1149 970" fill="none" xmlns="http://www.w3.org/2000/svg">
<path d="M544.152 1.78125H574.475C566.416 3.55693 559.723 9.29372 554.26 18.7185L539.371 45.7634C537.596 49.1781 536.64 54.0954 536.64 60.7883V82.233C536.64 88.3796 539.235 93.1602 542.65 94.9359C546.337 96.7116 548.25 97.2579 550.299 97.3945H501.536C503.311 97.3945 505.634 96.8482 508.912 95.0725C512.326 93.2968 514.922 88.7893 514.922 82.7793L515.058 64.6128C515.058 57.9199 513.692 52.3197 511.097 48.0854L492.111 16.9428C485.555 6.42533 477.359 1.78125 473.125 1.78125L521.751 1.91784C513.966 2.05444 509.868 9.29372 514.102 17.0794L529.673 43.7145C532.815 49.3147 535.957 49.0415 539.235 42.895L552.484 19.1282C557.538 9.97667 554.533 3.01056 544.152 1.78125Z" fill="#55142E" fill-opacity="0.3"/>
<path d="M466.365 6.15297L466.502 31.9686C464.18 26.3683 459.536 20.495 452.843 14.3484C447.925 9.9775 443.418 6.69934 436.998 4.10412C430.578 1.37232 425.388 1.64549 419.378 4.37729C414.051 7.51887 412.412 13.3923 414.051 19.9486C416.236 28.144 423.066 32.7881 437.271 36.0663C466.775 43.0324 476.883 55.0523 472.921 76.3604C469.507 94.6635 452.706 100.264 436.725 99.9906C420.744 99.7174 407.631 96.4392 397.66 90.0195V57.7841C401.348 65.5698 406.675 73.0823 413.368 80.0484C420.198 87.0145 427.437 91.7951 435.222 94.1172C447.242 97.6685 460.901 97.3953 462.404 86.1949C463.087 80.8679 461.175 76.2238 456.667 71.9895C452.296 67.7552 443.828 63.9307 431.261 60.5159C406.675 53.9596 398.343 42.8958 399.982 25.2756C400.802 16.6704 404.626 10.3873 411.592 6.15297C418.558 1.91866 427.164 -0.130186 437.545 0.00640253C442.872 0.142999 447.789 0.689362 452.569 1.64549C457.35 2.60163 460.902 3.69434 463.087 4.65048L466.365 6.15297Z" fill="#55142E" fill-opacity="0.3"/>
<path d="M298.167 1.78125H381.214L385.585 29.0993C380.804 21.86 376.433 16.533 372.472 13.1183C364.96 6.8351 358.13 3.69352 351.847 3.69352H351.027V79.6378C351.027 86.1941 353.623 91.2479 356.354 93.57C357.72 94.6627 359.359 95.4823 361.135 96.1652C364.96 97.3945 366.189 97.3945 367.691 97.3945H312.645C314.148 97.3945 315.377 97.3945 319.065 96.1652C323.846 94.5261 329.173 90.0186 329.173 79.6378V3.69352H327.944C322.207 3.69352 315.241 7.10828 307.045 13.8012C304.996 15.4403 302.811 17.6257 300.489 20.221C298.167 22.8162 296.255 25.1382 294.889 26.9139L292.84 29.6457L298.167 1.78125Z" fill="#55142E" fill-opacity="0.3"/>
<path d="M275.486 6.15297L275.623 31.9686C273.301 26.3683 268.657 20.495 261.964 14.3484C257.046 9.9775 252.539 6.69934 246.119 4.10412C239.7 1.37232 234.509 1.64549 228.499 4.37729C223.172 7.51887 221.533 13.3923 223.172 19.9486C225.358 28.144 232.187 32.7881 246.392 36.0663C275.896 43.0324 286.004 55.0523 282.043 76.3604C278.628 94.6635 261.827 100.264 245.846 99.9906C229.865 99.7174 216.752 96.4392 206.781 90.0195V57.7841C210.469 65.5698 215.796 73.0823 222.489 80.0484C229.319 87.0145 236.558 91.7951 244.344 94.1172C256.364 97.6685 270.023 97.3953 271.525 86.1949C272.208 80.8679 270.296 76.2238 265.788 71.9895C261.417 67.7552 252.949 63.9307 240.382 60.5159C215.796 53.9596 207.464 42.8958 209.103 25.2756C209.923 16.6704 213.747 10.3873 220.713 6.15297C227.68 1.91866 236.285 -0.130186 246.666 0.00640253C251.993 0.142999 256.91 0.689362 261.691 1.64549C266.471 2.60163 270.023 3.69434 272.208 4.65048L275.486 6.15297Z" fill="#55142E" fill-opacity="0.3"/>
<path d="M181.247 53.4121V22.9525C181.247 14.2107 178.242 7.79095 174.007 5.19573C170.046 2.60052 167.451 1.91756 165.266 1.78097H197.911C195.998 2.05416 183.022 3.69324 183.022 24.3184V55.1878C183.022 58.0562 183.022 60.3782 182.886 62.1539C182.886 63.9296 182.613 66.5248 182.203 69.9396C181.793 73.3543 181.247 76.2227 180.427 78.5448C178.925 83.0523 175.783 89.7452 171.276 93.1599C166.905 96.5747 159.665 99.4431 150.924 99.4431C136.308 99.4431 125.928 95.7552 120.054 88.2427C114.181 80.7302 111.312 69.2566 111.312 53.9585V19.5377C111.312 12.9814 108.99 7.92754 106.668 5.7421C102.434 1.91756 98.0632 1.64438 96.6973 1.78097H149.285C147.509 1.78097 146.28 1.78097 142.865 3.01028C138.767 4.64937 134.123 9.15685 134.123 19.5377V59.1489C134.123 83.3254 143.275 94.799 159.802 93.7063C175.1 92.6136 181.247 80.3204 181.247 53.4121Z" fill="#55142E" fill-opacity="0.3"/>
<path d="M49.3091 96.1652H50.5384C57.6411 96.1652 65.8366 92.3407 74.9881 84.555C84.1397 76.7694 90.1496 69.6667 92.7449 63.3835L85.9153 97.3945H0C1.50249 97.3945 2.59522 97.3945 5.87339 96.1652C10.3809 94.5261 15.1615 90.0186 15.1615 79.6378V18.1721C15.1615 10.6596 12.4297 5.60578 8.60519 3.8301C4.91725 2.05444 3.00499 1.78125 1.22931 1.78125H50.8116C49.5823 1.78125 48.353 1.78125 45.2114 3.01056C41.2503 4.37647 36.7428 8.61077 36.7428 18.1721V80.0475C36.7428 90.8382 40.9771 96.1652 49.3091 96.1652Z" fill="#55142E" fill-opacity="0.3"/>
<path d="M1118.63 146.781H1148.95C1140.89 148.557 1134.2 154.294 1128.73 163.718L1113.85 190.763C1112.07 194.178 1111.11 199.095 1111.11 205.788V227.233C1111.11 233.38 1113.71 238.16 1117.12 239.936C1120.81 241.712 1122.72 242.258 1124.77 242.395H1076.01C1077.79 242.395 1080.11 241.848 1083.39 240.072C1086.8 238.297 1089.4 233.789 1089.4 227.779L1089.53 209.613C1089.53 202.92 1088.17 197.32 1085.57 193.085L1066.59 161.943C1060.03 151.425 1051.83 146.781 1047.6 146.781L1096.23 146.918C1088.44 147.054 1084.34 154.294 1088.58 162.079L1104.15 188.715C1107.29 194.315 1110.43 194.042 1113.71 187.895L1126.96 164.128C1132.01 154.977 1129.01 148.011 1118.63 146.781Z" fill="#55142E" fill-opacity="0.3"/>
<path d="M1040.84 151.153L1040.98 176.969C1038.65 171.368 1034.01 165.495 1027.32 159.348C1022.4 154.978 1017.89 151.699 1011.47 149.104C1005.05 146.372 999.863 146.645 993.853 149.377C988.526 152.519 986.887 158.392 988.526 164.949C990.711 173.144 997.541 177.788 1011.75 181.066C1041.25 188.032 1051.36 200.052 1047.4 221.36C1043.98 239.664 1027.18 245.264 1011.2 244.991C995.219 244.717 982.106 241.439 972.135 235.019V202.784C975.823 210.57 981.15 218.082 987.843 225.048C994.672 232.014 1001.91 236.795 1009.7 239.117C1021.72 242.669 1035.38 242.395 1036.88 231.195C1037.56 225.868 1035.65 221.224 1031.14 216.99C1026.77 212.755 1018.3 208.931 1005.74 205.516C981.15 198.96 972.818 187.896 974.457 170.276C975.276 161.67 979.101 155.387 986.067 151.153C993.033 146.919 1001.64 144.87 1012.02 145.006C1017.35 145.143 1022.26 145.689 1027.04 146.645C1031.82 147.602 1035.38 148.694 1037.56 149.65L1040.84 151.153Z" fill="#55142E" fill-opacity="0.3"/>
<path d="M872.641 146.781H955.688L960.059 174.099C955.279 166.86 950.908 161.533 946.947 158.118C939.434 151.835 932.605 148.694 926.321 148.694H925.502V224.638C925.502 231.194 928.097 236.248 930.829 238.57C932.195 239.663 933.834 240.482 935.61 241.165C939.434 242.395 940.663 242.395 942.166 242.395H887.12C888.623 242.395 889.852 242.395 893.54 241.165C898.32 239.526 903.647 235.019 903.647 224.638V148.694H902.418C896.681 148.694 889.715 152.108 881.52 158.801C879.471 160.44 877.286 162.626 874.964 165.221C872.641 167.816 870.729 170.138 869.363 171.914L867.314 174.646L872.641 146.781Z" fill="#55142E" fill-opacity="0.3"/>
<path d="M849.961 151.153L850.097 176.969C847.775 171.368 843.131 165.495 836.438 159.348C831.521 154.978 827.014 151.699 820.594 149.104C814.174 146.372 808.984 146.645 802.974 149.377C797.647 152.519 796.008 158.392 797.647 164.949C799.832 173.144 806.662 177.788 820.867 181.066C850.371 188.032 860.478 200.052 856.517 221.36C853.102 239.664 836.302 245.264 820.321 244.991C804.34 244.717 791.227 241.439 781.256 235.019V202.784C784.944 210.57 790.271 218.082 796.964 225.048C803.793 232.014 811.033 236.795 818.818 239.117C830.838 242.669 844.497 242.395 846 231.195C846.683 225.868 844.77 221.224 840.263 216.99C835.892 212.755 827.423 208.931 814.857 205.516C790.271 198.96 781.939 187.896 783.578 170.276C784.397 161.67 788.222 155.387 795.188 151.153C802.154 146.919 810.759 144.87 821.14 145.006C826.467 145.143 831.385 145.689 836.165 146.645C840.946 147.602 844.497 148.694 846.683 149.65L849.961 151.153Z" fill="#55142E" fill-opacity="0.3"/>
<path d="M755.721 198.412V167.952C755.721 159.211 752.716 152.791 748.482 150.196C744.521 147.601 741.926 146.918 739.74 146.781H772.385C770.473 147.054 757.497 148.693 757.497 169.318V200.188C757.497 203.056 757.497 205.378 757.36 207.154C757.36 208.93 757.087 211.525 756.677 214.94C756.268 218.354 755.721 221.223 754.902 223.545C753.399 228.052 750.258 234.745 745.75 238.16C741.379 241.575 734.14 244.443 725.398 244.443C710.783 244.443 700.402 240.755 694.529 233.243C688.655 225.73 685.787 214.257 685.787 198.959V164.538C685.787 157.981 683.465 152.928 681.143 150.742C676.909 146.918 672.538 146.644 671.172 146.781H723.759C721.983 146.781 720.754 146.781 717.339 148.01C713.242 149.649 708.598 154.157 708.598 164.538V204.149C708.598 228.325 717.749 239.799 734.277 238.706C749.575 237.614 755.721 225.32 755.721 198.412Z" fill="#55142E" fill-opacity="0.3"/>
<path d="M623.784 241.165H625.013C632.116 241.165 640.311 237.341 649.463 229.555C658.614 221.769 664.624 214.667 667.219 208.384L660.39 242.395H574.475C575.977 242.395 577.07 242.395 580.348 241.165C584.855 239.526 589.636 235.019 589.636 224.638V163.172C589.636 155.66 586.904 150.606 583.08 148.83C579.392 147.054 577.48 146.781 575.704 146.781H625.286C624.057 146.781 622.828 146.781 619.686 148.011C615.725 149.376 611.217 153.611 611.217 163.172V225.048C611.217 235.838 615.452 241.165 623.784 241.165Z" fill="#55142E" fill-opacity="0.3"/>
<path d="M544.152 291.781H574.475C566.416 293.557 559.723 299.294 554.26 308.718L539.371 335.763C537.596 339.178 536.64 344.095 536.64 350.788V372.233C536.64 378.38 539.235 383.16 542.65 384.936C546.337 386.712 548.25 387.258 550.299 387.395H501.536C503.311 387.395 505.634 386.848 508.912 385.072C512.326 383.297 514.922 378.789 514.922 372.779L515.058 354.613C515.058 347.92 513.692 342.32 511.097 338.085L492.111 306.943C485.555 296.425 477.359 291.781 473.125 291.781L521.751 291.918C513.966 292.054 509.868 299.294 514.102 307.079L529.673 333.715C532.815 339.315 535.957 339.042 539.235 332.895L552.484 309.128C557.538 299.977 554.533 293.011 544.152 291.781Z" fill="#55142E" fill-opacity="0.3"/>
<path d="M466.365 296.153L466.502 321.969C464.18 316.368 459.536 310.495 452.843 304.348C447.925 299.978 443.418 296.699 436.998 294.104C430.578 291.372 425.388 291.645 419.378 294.377C414.051 297.519 412.412 303.392 414.051 309.949C416.236 318.144 423.066 322.788 437.271 326.066C466.775 333.032 476.883 345.052 472.921 366.36C469.507 384.664 452.706 390.264 436.725 389.991C420.744 389.717 407.631 386.439 397.66 380.019V347.784C401.348 355.57 406.675 363.082 413.368 370.048C420.198 377.014 427.437 381.795 435.222 384.117C447.242 387.669 460.901 387.395 462.404 376.195C463.087 370.868 461.175 366.224 456.667 361.99C452.296 357.755 443.828 353.931 431.261 350.516C406.675 343.96 398.343 332.896 399.982 315.276C400.802 306.67 404.626 300.387 411.592 296.153C418.558 291.919 427.164 289.87 437.545 290.006C442.872 290.143 447.789 290.689 452.569 291.645C457.35 292.602 460.902 293.694 463.087 294.65L466.365 296.153Z" fill="#55142E" fill-opacity="0.3"/>
<path d="M298.167 291.781H381.214L385.585 319.099C380.804 311.86 376.433 306.533 372.472 303.118C364.96 296.835 358.13 293.694 351.847 293.694H351.027V369.638C351.027 376.194 353.623 381.248 356.354 383.57C357.72 384.663 359.359 385.482 361.135 386.165C364.96 387.395 366.189 387.395 367.691 387.395H312.645C314.148 387.395 315.377 387.395 319.065 386.165C323.846 384.526 329.173 380.019 329.173 369.638V293.694H327.944C322.207 293.694 315.241 297.108 307.045 303.801C304.996 305.44 302.811 307.626 300.489 310.221C298.167 312.816 296.255 315.138 294.889 316.914L292.84 319.646L298.167 291.781Z" fill="#55142E" fill-opacity="0.3"/>
<path d="M275.486 296.153L275.623 321.969C273.301 316.368 268.657 310.495 261.964 304.348C257.046 299.978 252.539 296.699 246.119 294.104C239.7 291.372 234.509 291.645 228.499 294.377C223.172 297.519 221.533 303.392 223.172 309.949C225.358 318.144 232.187 322.788 246.392 326.066C275.896 333.032 286.004 345.052 282.043 366.36C278.628 384.664 261.827 390.264 245.846 389.991C229.865 389.717 216.752 386.439 206.781 380.019V347.784C210.469 355.57 215.796 363.082 222.489 370.048C229.319 377.014 236.558 381.795 244.344 384.117C256.364 387.669 270.023 387.395 271.525 376.195C272.208 370.868 270.296 366.224 265.788 361.99C261.417 357.755 252.949 353.931 240.382 350.516C215.796 343.96 207.464 332.896 209.103 315.276C209.923 306.67 213.747 300.387 220.713 296.153C227.68 291.919 236.285 289.87 246.666 290.006C251.993 290.143 256.91 290.689 261.691 291.645C266.471 292.602 270.023 293.694 272.208 294.65L275.486 296.153Z" fill="#55142E" fill-opacity="0.3"/>
<path d="M181.247 343.412V312.952C181.247 304.211 178.242 297.791 174.007 295.196C170.046 292.601 167.451 291.918 165.266 291.781H197.911C195.998 292.054 183.022 293.693 183.022 314.318V345.188C183.022 348.056 183.022 350.378 182.886 352.154C182.886 353.93 182.613 356.525 182.203 359.94C181.793 363.354 181.247 366.223 180.427 368.545C178.925 373.052 175.783 379.745 171.276 383.16C166.905 386.575 159.665 389.443 150.924 389.443C136.308 389.443 125.928 385.755 120.054 378.243C114.181 370.73 111.312 359.257 111.312 343.959V309.538C111.312 302.981 108.99 297.928 106.668 295.742C102.434 291.918 98.0632 291.644 96.6973 291.781H149.285C147.509 291.781 146.28 291.781 142.865 293.01C138.767 294.649 134.123 299.157 134.123 309.538V349.149C134.123 373.325 143.275 384.799 159.802 383.706C175.1 382.614 181.247 370.32 181.247 343.412Z" fill="#55142E" fill-opacity="0.3"/>
<path d="M49.3091 386.165H50.5384C57.6411 386.165 65.8366 382.341 74.9881 374.555C84.1397 366.769 90.1496 359.667 92.7449 353.384L85.9153 387.395H0C1.50249 387.395 2.59522 387.395 5.87339 386.165C10.3809 384.526 15.1615 380.019 15.1615 369.638V308.172C15.1615 300.66 12.4297 295.606 8.60519 293.83C4.91725 292.054 3.00499 291.781 1.22931 291.781H50.8116C49.5823 291.781 48.353 291.781 45.2114 293.011C41.2503 294.376 36.7428 298.611 36.7428 308.172V370.048C36.7428 380.838 40.9771 386.165 49.3091 386.165Z" fill="#55142E" fill-opacity="0.3"/>
<path d="M1118.63 436.781H1148.95C1140.89 438.557 1134.2 444.294 1128.73 453.718L1113.85 480.763C1112.07 484.178 1111.11 489.095 1111.11 495.788V517.233C1111.11 523.38 1113.71 528.16 1117.12 529.936C1120.81 531.712 1122.72 532.258 1124.77 532.395H1076.01C1077.79 532.395 1080.11 531.848 1083.39 530.072C1086.8 528.297 1089.4 523.789 1089.4 517.779L1089.53 499.613C1089.53 492.92 1088.17 487.32 1085.57 483.085L1066.59 451.943C1060.03 441.425 1051.83 436.781 1047.6 436.781L1096.23 436.918C1088.44 437.054 1084.34 444.294 1088.58 452.079L1104.15 478.715C1107.29 484.315 1110.43 484.042 1113.71 477.895L1126.96 454.128C1132.01 444.977 1129.01 438.011 1118.63 436.781Z" fill="#55142E" fill-opacity="0.3"/>
<path d="M1040.84 441.153L1040.98 466.969C1038.65 461.368 1034.01 455.495 1027.32 449.348C1022.4 444.978 1017.89 441.699 1011.47 439.104C1005.05 436.372 999.863 436.645 993.853 439.377C988.526 442.519 986.887 448.392 988.526 454.949C990.711 463.144 997.541 467.788 1011.75 471.066C1041.25 478.032 1051.36 490.052 1047.4 511.36C1043.98 529.664 1027.18 535.264 1011.2 534.991C995.219 534.717 982.106 531.439 972.135 525.019V492.784C975.823 500.57 981.15 508.082 987.843 515.048C994.672 522.014 1001.91 526.795 1009.7 529.117C1021.72 532.669 1035.38 532.395 1036.88 521.195C1037.56 515.868 1035.65 511.224 1031.14 506.99C1026.77 502.755 1018.3 498.931 1005.74 495.516C981.15 488.96 972.818 477.896 974.457 460.276C975.276 451.67 979.101 445.387 986.067 441.153C993.033 436.919 1001.64 434.87 1012.02 435.006C1017.35 435.143 1022.26 435.689 1027.04 436.645C1031.82 437.602 1035.38 438.694 1037.56 439.65L1040.84 441.153Z" fill="#55142E" fill-opacity="0.3"/>
<path d="M872.641 436.781H955.688L960.059 464.099C955.279 456.86 950.908 451.533 946.947 448.118C939.434 441.835 932.605 438.694 926.321 438.694H925.502V514.638C925.502 521.194 928.097 526.248 930.829 528.57C932.195 529.663 933.834 530.482 935.61 531.165C939.434 532.395 940.663 532.395 942.166 532.395H887.12C888.623 532.395 889.852 532.395 893.54 531.165C898.32 529.526 903.647 525.019 903.647 514.638V438.694H902.418C896.681 438.694 889.715 442.108 881.52 448.801C879.471 450.44 877.286 452.626 874.964 455.221C872.641 457.816 870.729 460.138 869.363 461.914L867.314 464.646L872.641 436.781Z" fill="#55142E" fill-opacity="0.3"/>
<path d="M849.961 441.153L850.097 466.969C847.775 461.368 843.131 455.495 836.438 449.348C831.521 444.978 827.014 441.699 820.594 439.104C814.174 436.372 808.984 436.645 802.974 439.377C797.647 442.519 796.008 448.392 797.647 454.949C799.832 463.144 806.662 467.788 820.867 471.066C850.371 478.032 860.478 490.052 856.517 511.36C853.102 529.664 836.302 535.264 820.321 534.991C804.34 534.717 791.227 531.439 781.256 525.019V492.784C784.944 500.57 790.271 508.082 796.964 515.048C803.793 522.014 811.033 526.795 818.818 529.117C830.838 532.669 844.497 532.395 846 521.195C846.683 515.868 844.77 511.224 840.263 506.99C835.892 502.755 827.423 498.931 814.857 495.516C790.271 488.96 781.939 477.896 783.578 460.276C784.397 451.67 788.222 445.387 795.188 441.153C802.154 436.919 810.759 434.87 821.14 435.006C826.467 435.143 831.385 435.689 836.165 436.645C840.946 437.602 844.497 438.694 846.683 439.65L849.961 441.153Z" fill="#55142E" fill-opacity="0.3"/>
<path d="M755.721 488.412V457.952C755.721 449.211 752.716 442.791 748.482 440.196C744.521 437.601 741.926 436.918 739.74 436.781H772.385C770.473 437.054 757.497 438.693 757.497 459.318V490.188C757.497 493.056 757.497 495.378 757.36 497.154C757.36 498.93 757.087 501.525 756.677 504.94C756.268 508.354 755.721 511.223 754.902 513.545C753.399 518.052 750.258 524.745 745.75 528.16C741.379 531.575 734.14 534.443 725.398 534.443C710.783 534.443 700.402 530.755 694.529 523.243C688.655 515.73 685.787 504.257 685.787 488.959V454.538C685.787 447.981 683.465 442.928 681.143 440.742C676.909 436.918 672.538 436.644 671.172 436.781H723.759C721.983 436.781 720.754 436.781 717.339 438.01C713.242 439.649 708.598 444.157 708.598 454.538V494.149C708.598 518.325 717.749 529.799 734.277 528.706C749.575 527.614 755.721 515.32 755.721 488.412Z" fill="#55142E" fill-opacity="0.3"/>
<path d="M623.784 531.165H625.013C632.116 531.165 640.311 527.341 649.463 519.555C658.614 511.769 664.624 504.667 667.219 498.384L660.39 532.395H574.475C575.977 532.395 577.07 532.395 580.348 531.165C584.855 529.526 589.636 525.019 589.636 514.638V453.172C589.636 445.66 586.904 440.606 583.08 438.83C579.392 437.054 577.48 436.781 575.704 436.781H625.286C624.057 436.781 622.828 436.781 619.686 438.011C615.725 439.376 611.217 443.611 611.217 453.172V515.048C611.217 525.838 615.452 531.165 623.784 531.165Z" fill="#55142E" fill-opacity="0.3"/>
<path d="M544.152 581.781H574.475C566.416 583.557 559.723 589.294 554.26 598.718L539.371 625.763C537.596 629.178 536.64 634.095 536.64 640.788V662.233C536.64 668.38 539.235 673.16 542.65 674.936C546.337 676.712 548.25 677.258 550.299 677.395H501.536C503.311 677.395 505.634 676.848 508.912 675.072C512.326 673.297 514.922 668.789 514.922 662.779L515.058 644.613C515.058 637.92 513.692 632.32 511.097 628.085L492.111 596.943C485.555 586.425 477.359 581.781 473.125 581.781L521.751 581.918C513.966 582.054 509.868 589.294 514.102 597.079L529.673 623.715C532.815 629.315 535.957 629.042 539.235 622.895L552.484 599.128C557.538 589.977 554.533 583.011 544.152 581.781Z" fill="#55142E" fill-opacity="0.3"/>
<path d="M466.365 586.153L466.502 611.969C464.18 606.368 459.536 600.495 452.843 594.348C447.925 589.978 443.418 586.699 436.998 584.104C430.578 581.372 425.388 581.645 419.378 584.377C414.051 587.519 412.412 593.392 414.051 599.949C416.236 608.144 423.066 612.788 437.271 616.066C466.775 623.032 476.883 635.052 472.921 656.36C469.507 674.664 452.706 680.264 436.725 679.991C420.744 679.717 407.631 676.439 397.66 670.019V637.784C401.348 645.57 406.675 653.082 413.368 660.048C420.198 667.014 427.437 671.795 435.222 674.117C447.242 677.669 460.901 677.395 462.404 666.195C463.087 660.868 461.175 656.224 456.667 651.99C452.296 647.755 443.828 643.931 431.261 640.516C406.675 633.96 398.343 622.896 399.982 605.276C400.802 596.67 404.626 590.387 411.592 586.153C418.558 581.919 427.164 579.87 437.545 580.006C442.872 580.143 447.789 580.689 452.569 581.645C457.35 582.602 460.902 583.694 463.087 584.65L466.365 586.153Z" fill="#55142E" fill-opacity="0.3"/>
<path d="M298.167 581.781H381.214L385.585 609.099C380.804 601.86 376.433 596.533 372.472 593.118C364.96 586.835 358.13 583.694 351.847 583.694H351.027V659.638C351.027 666.194 353.623 671.248 356.354 673.57C357.72 674.663 359.359 675.482 361.135 676.165C364.96 677.395 366.189 677.395 367.691 677.395H312.645C314.148 677.395 315.377 677.395 319.065 676.165C323.846 674.526 329.173 670.019 329.173 659.638V583.694H327.944C322.207 583.694 315.241 587.108 307.045 593.801C304.996 595.44 302.811 597.626 300.489 600.221C298.167 602.816 296.255 605.138 294.889 606.914L292.84 609.646L298.167 581.781Z" fill="#55142E" fill-opacity="0.3"/>
<path d="M275.486 586.153L275.623 611.969C273.301 606.368 268.657 600.495 261.964 594.348C257.046 589.978 252.539 586.699 246.119 584.104C239.7 581.372 234.509 581.645 228.499 584.377C223.172 587.519 221.533 593.392 223.172 599.949C225.358 608.144 232.187 612.788 246.392 616.066C275.896 623.032 286.004 635.052 282.043 656.36C278.628 674.664 261.827 680.264 245.846 679.991C229.865 679.717 216.752 676.439 206.781 670.019V637.784C210.469 645.57 215.796 653.082 222.489 660.048C229.319 667.014 236.558 671.795 244.344 674.117C256.364 677.669 270.023 677.395 271.525 666.195C272.208 660.868 270.296 656.224 265.788 651.99C261.417 647.755 252.949 643.931 240.382 640.516C215.796 633.96 207.464 622.896 209.103 605.276C209.923 596.67 213.747 590.387 220.713 586.153C227.68 581.919 236.285 579.87 246.666 580.006C251.993 580.143 256.91 580.689 261.691 581.645C266.471 582.602 270.023 583.694 272.208 584.65L275.486 586.153Z" fill="#55142E" fill-opacity="0.3"/>
<path d="M181.247 633.412V602.952C181.247 594.211 178.242 587.791 174.007 585.196C170.046 582.601 167.451 581.918 165.266 581.781H197.911C195.998 582.054 183.022 583.693 183.022 604.318V635.188C183.022 638.056 183.022 640.378 182.886 642.154C182.886 643.93 182.613 646.525 182.203 649.94C181.793 653.354 181.247 656.223 180.427 658.545C178.925 663.052 175.783 669.745 171.276 673.16C166.905 676.575 159.665 679.443 150.924 679.443C136.308 679.443 125.928 675.755 120.054 668.243C114.181 660.73 111.312 649.257 111.312 633.959V599.538C111.312 592.981 108.99 587.928 106.668 585.742C102.434 581.918 98.0632 581.644 96.6973 581.781H149.285C147.509 581.781 146.28 581.781 142.865 583.01C138.767 584.649 134.123 589.157 134.123 599.538V639.149C134.123 663.325 143.275 674.799 159.802 673.706C175.1 672.614 181.247 660.32 181.247 633.412Z" fill="#55142E" fill-opacity="0.3"/>
<path d="M49.3091 676.165H50.5384C57.6411 676.165 65.8366 672.341 74.9881 664.555C84.1397 656.769 90.1496 649.667 92.7449 643.384L85.9153 677.395H0C1.50249 677.395 2.59522 677.395 5.87339 676.165C10.3809 674.526 15.1615 670.019 15.1615 659.638V598.172C15.1615 590.66 12.4297 585.606 8.60519 583.83C4.91725 582.054 3.00499 581.781 1.22931 581.781H50.8116C49.5823 581.781 48.353 581.781 45.2114 583.011C41.2503 584.376 36.7428 588.611 36.7428 598.172V660.048C36.7428 670.838 40.9771 676.165 49.3091 676.165Z" fill="#55142E" fill-opacity="0.3"/>
<path d="M1118.63 726.781H1148.95C1140.89 728.557 1134.2 734.294 1128.73 743.718L1113.85 770.763C1112.07 774.178 1111.11 779.095 1111.11 785.788V807.233C1111.11 813.38 1113.71 818.16 1117.12 819.936C1120.81 821.712 1122.72 822.258 1124.77 822.395H1076.01C1077.79 822.395 1080.11 821.848 1083.39 820.072C1086.8 818.297 1089.4 813.789 1089.4 807.779L1089.53 789.613C1089.53 782.92 1088.17 777.32 1085.57 773.085L1066.59 741.943C1060.03 731.425 1051.83 726.781 1047.6 726.781L1096.23 726.918C1088.44 727.054 1084.34 734.294 1088.58 742.079L1104.15 768.715C1107.29 774.315 1110.43 774.042 1113.71 767.895L1126.96 744.128C1132.01 734.977 1129.01 728.011 1118.63 726.781Z" fill="#55142E" fill-opacity="0.3"/>
<path d="M1040.84 731.153L1040.98 756.969C1038.65 751.368 1034.01 745.495 1027.32 739.348C1022.4 734.978 1017.89 731.699 1011.47 729.104C1005.05 726.372 999.863 726.645 993.853 729.377C988.526 732.519 986.887 738.392 988.526 744.949C990.711 753.144 997.541 757.788 1011.75 761.066C1041.25 768.032 1051.36 780.052 1047.4 801.36C1043.98 819.664 1027.18 825.264 1011.2 824.991C995.219 824.717 982.106 821.439 972.135 815.019V782.784C975.823 790.57 981.15 798.082 987.843 805.048C994.672 812.014 1001.91 816.795 1009.7 819.117C1021.72 822.669 1035.38 822.395 1036.88 811.195C1037.56 805.868 1035.65 801.224 1031.14 796.99C1026.77 792.755 1018.3 788.931 1005.74 785.516C981.15 778.96 972.818 767.896 974.457 750.276C975.276 741.67 979.101 735.387 986.067 731.153C993.033 726.919 1001.64 724.87 1012.02 725.006C1017.35 725.143 1022.26 725.689 1027.04 726.645C1031.82 727.602 1035.38 728.694 1037.56 729.65L1040.84 731.153Z" fill="#55142E" fill-opacity="0.3"/>
<path d="M872.641 726.781H955.688L960.059 754.099C955.279 746.86 950.908 741.533 946.947 738.118C939.434 731.835 932.605 728.694 926.321 728.694H925.502V804.638C925.502 811.194 928.097 816.248 930.829 818.57C932.195 819.663 933.834 820.482 935.61 821.165C939.434 822.395 940.663 822.395 942.166 822.395H887.12C888.623 822.395 889.852 822.395 893.54 821.165C898.32 819.526 903.647 815.019 903.647 804.638V728.694H902.418C896.681 728.694 889.715 732.108 881.52 738.801C879.471 740.44 877.286 742.626 874.964 745.221C872.641 747.816 870.729 750.138 869.363 751.914L867.314 754.646L872.641 726.781Z" fill="#55142E" fill-opacity="0.3"/>
<path d="M849.961 731.153L850.097 756.969C847.775 751.368 843.131 745.495 836.438 739.348C831.521 734.978 827.014 731.699 820.594 729.104C814.174 726.372 808.984 726.645 802.974 729.377C797.647 732.519 796.008 738.392 797.647 744.949C799.832 753.144 806.662 757.788 820.867 761.066C850.371 768.032 860.478 780.052 856.517 801.36C853.102 819.664 836.302 825.264 820.321 824.991C804.34 824.717 791.227 821.439 781.256 815.019V782.784C784.944 790.57 790.271 798.082 796.964 805.048C803.793 812.014 811.033 816.795 818.818 819.117C830.838 822.669 844.497 822.395 846 811.195C846.683 805.868 844.77 801.224 840.263 796.99C835.892 792.755 827.423 788.931 814.857 785.516C790.271 778.96 781.939 767.896 783.578 750.276C784.397 741.67 788.222 735.387 795.188 731.153C802.154 726.919 810.759 724.87 821.14 725.006C826.467 725.143 831.385 725.689 836.165 726.645C840.946 727.602 844.497 728.694 846.683 729.65L849.961 731.153Z" fill="#55142E" fill-opacity="0.3"/>
<path d="M755.721 778.412V747.952C755.721 739.211 752.716 732.791 748.482 730.196C744.521 727.601 741.926 726.918 739.74 726.781H772.385C770.473 727.054 757.497 728.693 757.497 749.318V780.188C757.497 783.056 757.497 785.378 757.36 787.154C757.36 788.93 757.087 791.525 756.677 794.94C756.268 798.354 755.721 801.223 754.902 803.545C753.399 808.052 750.258 814.745 745.75 818.16C741.379 821.575 734.14 824.443 725.398 824.443C710.783 824.443 700.402 820.755 694.529 813.243C688.655 805.73 685.787 794.257 685.787 778.959V744.538C685.787 737.981 683.465 732.928 681.143 730.742C676.909 726.918 672.538 726.644 671.172 726.781H723.759C721.983 726.781 720.754 726.781 717.339 728.01C713.242 729.649 708.598 734.157 708.598 744.538V784.149C708.598 808.325 717.749 819.799 734.277 818.706C749.575 817.614 755.721 805.32 755.721 778.412Z" fill="#55142E" fill-opacity="0.3"/>
<path d="M623.784 821.165H625.013C632.116 821.165 640.311 817.341 649.463 809.555C658.614 801.769 664.624 794.667 667.219 788.384L660.39 822.395H574.475C575.977 822.395 577.07 822.395 580.348 821.165C584.855 819.526 589.636 815.019 589.636 804.638V743.172C589.636 735.66 586.904 730.606 583.08 728.83C579.392 727.054 577.48 726.781 575.704 726.781H625.286C624.057 726.781 622.828 726.781 619.686 728.011C615.725 729.376 611.217 733.611 611.217 743.172V805.048C611.217 815.838 615.452 821.165 623.784 821.165Z" fill="#55142E" fill-opacity="0.3"/>
<path d="M544.152 871.781H574.475C566.416 873.557 559.723 879.294 554.26 888.718L539.371 915.763C537.596 919.178 536.64 924.095 536.64 930.788V952.233C536.64 958.38 539.235 963.16 542.65 964.936C546.337 966.712 548.25 967.258 550.299 967.395H501.536C503.311 967.395 505.634 966.848 508.912 965.072C512.326 963.297 514.922 958.789 514.922 952.779L515.058 934.613C515.058 927.92 513.692 922.32 511.097 918.085L492.111 886.943C485.555 876.425 477.359 871.781 473.125 871.781L521.751 871.918C513.966 872.054 509.868 879.294 514.102 887.079L529.673 913.715C532.815 919.315 535.957 919.042 539.235 912.895L552.484 889.128C557.538 879.977 554.533 873.011 544.152 871.781Z" fill="#55142E" fill-opacity="0.3"/>
<path d="M466.365 876.153L466.502 901.969C464.18 896.368 459.536 890.495 452.843 884.348C447.925 879.978 443.418 876.699 436.998 874.104C430.578 871.372 425.388 871.645 419.378 874.377C414.051 877.519 412.412 883.392 414.051 889.949C416.236 898.144 423.066 902.788 437.271 906.066C466.775 913.032 476.883 925.052 472.921 946.36C469.507 964.664 452.706 970.264 436.725 969.991C420.744 969.717 407.631 966.439 397.66 960.019V927.784C401.348 935.57 406.675 943.082 413.368 950.048C420.198 957.014 427.437 961.795 435.222 964.117C447.242 967.669 460.901 967.395 462.404 956.195C463.087 950.868 461.175 946.224 456.667 941.99C452.296 937.755 443.828 933.931 431.261 930.516C406.675 923.96 398.343 912.896 399.982 895.276C400.802 886.67 404.626 880.387 411.592 876.153C418.558 871.919 427.164 869.87 437.545 870.006C442.872 870.143 447.789 870.689 452.569 871.645C457.35 872.602 460.902 873.694 463.087 874.65L466.365 876.153Z" fill="#55142E" fill-opacity="0.3"/>
<path d="M298.167 871.781H381.214L385.585 899.099C380.804 891.86 376.433 886.533 372.472 883.118C364.96 876.835 358.13 873.694 351.847 873.694H351.027V949.638C351.027 956.194 353.623 961.248 356.354 963.57C357.72 964.663 359.359 965.482 361.135 966.165C364.96 967.395 366.189 967.395 367.691 967.395H312.645C314.148 967.395 315.377 967.395 319.065 966.165C323.846 964.526 329.173 960.019 329.173 949.638V873.694H327.944C322.207 873.694 315.241 877.108 307.045 883.801C304.996 885.44 302.811 887.626 300.489 890.221C298.167 892.816 296.255 895.138 294.889 896.914L292.84 899.646L298.167 871.781Z" fill="#55142E" fill-opacity="0.3"/>
<path d="M275.486 876.153L275.623 901.969C273.301 896.368 268.657 890.495 261.964 884.348C257.046 879.978 252.539 876.699 246.119 874.104C239.7 871.372 234.509 871.645 228.499 874.377C223.172 877.519 221.533 883.392 223.172 889.949C225.358 898.144 232.187 902.788 246.392 906.066C275.896 913.032 286.004 925.052 282.043 946.36C278.628 964.664 261.827 970.264 245.846 969.991C229.865 969.717 216.752 966.439 206.781 960.019V927.784C210.469 935.57 215.796 943.082 222.489 950.048C229.319 957.014 236.558 961.795 244.344 964.117C256.364 967.669 270.023 967.395 271.525 956.195C272.208 950.868 270.296 946.224 265.788 941.99C261.417 937.755 252.949 933.931 240.382 930.516C215.796 923.96 207.464 912.896 209.103 895.276C209.923 886.67 213.747 880.387 220.713 876.153C227.68 871.919 236.285 869.87 246.666 870.006C251.993 870.143 256.91 870.689 261.691 871.645C266.471 872.602 270.023 873.694 272.208 874.65L275.486 876.153Z" fill="#55142E" fill-opacity="0.3"/>
<path d="M181.247 923.412V892.952C181.247 884.211 178.242 877.791 174.007 875.196C170.046 872.601 167.451 871.918 165.266 871.781H197.911C195.998 872.054 183.022 873.693 183.022 894.318V925.188C183.022 928.056 183.022 930.378 182.886 932.154C182.886 933.93 182.613 936.525 182.203 939.94C181.793 943.354 181.247 946.223 180.427 948.545C178.925 953.052 175.783 959.745 171.276 963.16C166.905 966.575 159.665 969.443 150.924 969.443C136.308 969.443 125.928 965.755 120.054 958.243C114.181 950.73 111.312 939.257 111.312 923.959V889.538C111.312 882.981 108.99 877.928 106.668 875.742C102.434 871.918 98.0632 871.644 96.6973 871.781H149.285C147.509 871.781 146.28 871.781 142.865 873.01C138.767 874.649 134.123 879.157 134.123 889.538V929.149C134.123 953.325 143.275 964.799 159.802 963.706C175.1 962.614 181.247 950.32 181.247 923.412Z" fill="#55142E" fill-opacity="0.3"/>
<path d="M49.3091 966.165H50.5384C57.6411 966.165 65.8366 962.341 74.9881 954.555C84.1397 946.769 90.1496 939.667 92.7449 933.384L85.9153 967.395H0C1.50249 967.395 2.59522 967.395 5.87339 966.165C10.3809 964.526 15.1615 960.019 15.1615 949.638V888.172C15.1615 880.66 12.4297 875.606 8.60519 873.83C4.91725 872.054 3.00499 871.781 1.22931 871.781H50.8116C49.5823 871.781 48.353 871.781 45.2114 873.011C41.2503 874.376 36.7428 878.611 36.7428 888.172V950.048C36.7428 960.838 40.9771 966.165 49.3091 966.165Z" fill="#55142E" fill-opacity="0.3"/>
<path d="M1118.15 1.78125H1148.48C1140.42 3.55693 1133.72 9.29372 1128.26 18.7185L1113.37 45.7634C1111.6 49.1781 1110.64 54.0954 1110.64 60.7883V82.233C1110.64 88.3796 1113.23 93.1602 1116.65 94.9359C1120.34 96.7116 1122.25 97.2579 1124.3 97.3945H1075.54C1077.31 97.3945 1079.63 96.8482 1082.91 95.0725C1086.33 93.2968 1088.92 88.7893 1088.92 82.7793L1089.06 64.6128C1089.06 57.9199 1087.69 52.3197 1085.1 48.0854L1066.11 16.9428C1059.55 6.42533 1051.36 1.78125 1047.12 1.78125L1095.75 1.91784C1087.97 2.05444 1083.87 9.29372 1088.1 17.0794L1103.67 43.7145C1106.82 49.3147 1109.96 49.0415 1113.23 42.895L1126.48 19.1282C1131.54 9.97667 1128.53 3.01056 1118.15 1.78125Z" fill="#A12256" fill-opacity="0.2"/>
<path d="M1040.37 6.15297L1040.5 31.9686C1038.18 26.3683 1033.54 20.495 1026.84 14.3484C1021.93 9.9775 1017.42 6.69934 1011 4.10412C1004.58 1.37232 999.388 1.64549 993.378 4.37729C988.051 7.51887 986.412 13.3923 988.051 19.9486C990.236 28.144 997.066 32.7881 1011.27 36.0663C1040.77 43.0324 1050.88 55.0523 1046.92 76.3604C1043.51 94.6635 1026.71 100.264 1010.72 99.9906C994.744 99.7174 981.631 96.4392 971.66 90.0195V57.7841C975.348 65.5698 980.675 73.0823 987.368 80.0484C994.198 87.0145 1001.44 91.7951 1009.22 94.1172C1021.24 97.6685 1034.9 97.3953 1036.4 86.1949C1037.09 80.8679 1035.17 76.2238 1030.67 71.9895C1026.3 67.7552 1017.83 63.9307 1005.26 60.5159C980.675 53.9596 972.343 42.8958 973.982 25.2756C974.802 16.6704 978.626 10.3873 985.592 6.15297C992.558 1.91866 1001.16 -0.130186 1011.54 0.00640253C1016.87 0.142999 1021.79 0.689362 1026.57 1.64549C1031.35 2.60163 1034.9 3.69434 1037.09 4.65048L1040.37 6.15297Z" fill="#A12256" fill-opacity="0.2"/>
<path d="M872.167 1.78125H955.214L959.585 29.0993C954.804 21.86 950.433 16.533 946.472 13.1183C938.96 6.8351 932.13 3.69352 925.847 3.69352H925.027V79.6378C925.027 86.1941 927.623 91.2479 930.354 93.57C931.72 94.6627 933.359 95.4823 935.135 96.1652C938.96 97.3945 940.189 97.3945 941.691 97.3945H886.645C888.148 97.3945 889.377 97.3945 893.065 96.1652C897.846 94.5261 903.173 90.0186 903.173 79.6378V3.69352H901.944C896.207 3.69352 889.241 7.10828 881.045 13.8012C878.996 15.4403 876.811 17.6257 874.489 20.221C872.167 22.8162 870.255 25.1382 868.889 26.9139L866.84 29.6457L872.167 1.78125Z" fill="#A12256" fill-opacity="0.2"/>
<path d="M849.486 6.15297L849.623 31.9686C847.301 26.3683 842.657 20.495 835.964 14.3484C831.046 9.9775 826.539 6.69934 820.119 4.10412C813.7 1.37232 808.509 1.64549 802.499 4.37729C797.172 7.51887 795.533 13.3923 797.172 19.9486C799.358 28.144 806.187 32.7881 820.392 36.0663C849.896 43.0324 860.004 55.0523 856.043 76.3604C852.628 94.6635 835.827 100.264 819.846 99.9906C803.865 99.7174 790.752 96.4392 780.781 90.0195V57.7841C784.469 65.5698 789.796 73.0823 796.489 80.0484C803.319 87.0145 810.558 91.7951 818.344 94.1172C830.364 97.6685 844.023 97.3953 845.525 86.1949C846.208 80.8679 844.296 76.2238 839.788 71.9895C835.417 67.7552 826.949 63.9307 814.382 60.5159C789.796 53.9596 781.464 42.8958 783.103 25.2756C783.923 16.6704 787.747 10.3873 794.713 6.15297C801.68 1.91866 810.285 -0.130186 820.666 0.00640253C825.993 0.142999 830.91 0.689362 835.691 1.64549C840.471 2.60163 844.023 3.69434 846.208 4.65048L849.486 6.15297Z" fill="#A12256" fill-opacity="0.2"/>
<path d="M755.247 53.4121V22.9525C755.247 14.2107 752.242 7.79095 748.007 5.19573C744.046 2.60052 741.451 1.91756 739.266 1.78097H771.911C769.998 2.05416 757.022 3.69324 757.022 24.3184V55.1878C757.022 58.0562 757.022 60.3782 756.886 62.1539C756.886 63.9296 756.613 66.5248 756.203 69.9396C755.793 73.3543 755.247 76.2227 754.427 78.5448C752.925 83.0523 749.783 89.7452 745.276 93.1599C740.905 96.5747 733.665 99.4431 724.924 99.4431C710.308 99.4431 699.928 95.7552 694.054 88.2427C688.181 80.7302 685.312 69.2566 685.312 53.9585V19.5377C685.312 12.9814 682.99 7.92754 680.668 5.7421C676.434 1.91756 672.063 1.64438 670.697 1.78097H723.285C721.509 1.78097 720.28 1.78097 716.865 3.01028C712.767 4.64937 708.123 9.15685 708.123 19.5377V59.1489C708.123 83.3254 717.275 94.799 733.802 93.7063C749.1 92.6136 755.247 80.3204 755.247 53.4121Z" fill="#A12256" fill-opacity="0.2"/>
<path d="M623.309 96.1652H624.538C631.641 96.1652 639.837 92.3407 648.988 84.555C658.14 76.7694 664.15 69.6667 666.745 63.3835L659.915 97.3945H574C575.502 97.3945 576.595 97.3945 579.873 96.1652C584.381 94.5261 589.162 90.0186 589.162 79.6378V18.1721C589.162 10.6596 586.43 5.60578 582.605 3.8301C578.917 2.05444 577.005 1.78125 575.229 1.78125H624.812C623.582 1.78125 622.353 1.78125 619.211 3.01056C615.25 4.37647 610.743 8.61077 610.743 18.1721V80.0475C610.743 90.8382 614.977 96.1652 623.309 96.1652Z" fill="#A12256" fill-opacity="0.2"/>
<path d="M544.152 146.781H574.475C566.416 148.557 559.723 154.294 554.26 163.718L539.371 190.763C537.596 194.178 536.64 199.095 536.64 205.788V227.233C536.64 233.38 539.235 238.16 542.65 239.936C546.337 241.712 548.25 242.258 550.299 242.395H501.536C503.311 242.395 505.634 241.848 508.912 240.072C512.326 238.297 514.922 233.789 514.922 227.779L515.058 209.613C515.058 202.92 513.692 197.32 511.097 193.085L492.111 161.943C485.555 151.425 477.359 146.781 473.125 146.781L521.751 146.918C513.966 147.054 509.868 154.294 514.102 162.079L529.673 188.715C532.815 194.315 535.957 194.042 539.235 187.895L552.484 164.128C557.538 154.977 554.533 148.011 544.152 146.781Z" fill="#A12256" fill-opacity="0.2"/>
<path d="M466.365 151.153L466.502 176.969C464.18 171.368 459.536 165.495 452.843 159.348C447.925 154.978 443.418 151.699 436.998 149.104C430.578 146.372 425.388 146.645 419.378 149.377C414.051 152.519 412.412 158.392 414.051 164.949C416.236 173.144 423.066 177.788 437.271 181.066C466.775 188.032 476.883 200.052 472.921 221.36C469.507 239.664 452.706 245.264 436.725 244.991C420.744 244.717 407.631 241.439 397.66 235.019V202.784C401.348 210.57 406.675 218.082 413.368 225.048C420.198 232.014 427.437 236.795 435.222 239.117C447.242 242.669 460.901 242.395 462.404 231.195C463.087 225.868 461.175 221.224 456.667 216.99C452.296 212.755 443.828 208.931 431.261 205.516C406.675 198.96 398.343 187.896 399.982 170.276C400.802 161.67 404.626 155.387 411.592 151.153C418.558 146.919 427.164 144.87 437.545 145.006C442.872 145.143 447.789 145.689 452.569 146.645C457.35 147.602 460.902 148.694 463.087 149.65L466.365 151.153Z" fill="#A12256" fill-opacity="0.2"/>
<path d="M298.167 146.781H381.214L385.585 174.099C380.804 166.86 376.433 161.533 372.472 158.118C364.96 151.835 358.13 148.694 351.847 148.694H351.027V224.638C351.027 231.194 353.623 236.248 356.354 238.57C357.72 239.663 359.359 240.482 361.135 241.165C364.96 242.395 366.189 242.395 367.691 242.395H312.645C314.148 242.395 315.377 242.395 319.065 241.165C323.846 239.526 329.173 235.019 329.173 224.638V148.694H327.944C322.207 148.694 315.241 152.108 307.045 158.801C304.996 160.44 302.811 162.626 300.489 165.221C298.167 167.816 296.255 170.138 294.889 171.914L292.84 174.646L298.167 146.781Z" fill="#A12256" fill-opacity="0.2"/>
<path d="M275.486 151.153L275.623 176.969C273.301 171.368 268.657 165.495 261.964 159.348C257.046 154.978 252.539 151.699 246.119 149.104C239.7 146.372 234.509 146.645 228.499 149.377C223.172 152.519 221.533 158.392 223.172 164.949C225.358 173.144 232.187 177.788 246.392 181.066C275.896 188.032 286.004 200.052 282.043 221.36C278.628 239.664 261.827 245.264 245.846 244.991C229.865 244.717 216.752 241.439 206.781 235.019V202.784C210.469 210.57 215.796 218.082 222.489 225.048C229.319 232.014 236.558 236.795 244.344 239.117C256.364 242.669 270.023 242.395 271.525 231.195C272.208 225.868 270.296 221.224 265.788 216.99C261.417 212.755 252.949 208.931 240.382 205.516C215.796 198.96 207.464 187.896 209.103 170.276C209.923 161.67 213.747 155.387 220.713 151.153C227.68 146.919 236.285 144.87 246.666 145.006C251.993 145.143 256.91 145.689 261.691 146.645C266.471 147.602 270.023 148.694 272.208 149.65L275.486 151.153Z" fill="#A12256" fill-opacity="0.2"/>
<path d="M181.247 198.412V167.952C181.247 159.211 178.242 152.791 174.007 150.196C170.046 147.601 167.451 146.918 165.266 146.781H197.911C195.998 147.054 183.022 148.693 183.022 169.318V200.188C183.022 203.056 183.022 205.378 182.886 207.154C182.886 208.93 182.613 211.525 182.203 214.94C181.793 218.354 181.247 221.223 180.427 223.545C178.925 228.052 175.783 234.745 171.276 238.16C166.905 241.575 159.665 244.443 150.924 244.443C136.308 244.443 125.928 240.755 120.054 233.243C114.181 225.73 111.312 214.257 111.312 198.959V164.538C111.312 157.981 108.99 152.928 106.668 150.742C102.434 146.918 98.0632 146.644 96.6973 146.781H149.285C147.509 146.781 146.28 146.781 142.865 148.01C138.767 149.649 134.123 154.157 134.123 164.538V204.149C134.123 228.325 143.275 239.799 159.802 238.706C175.1 237.614 181.247 225.32 181.247 198.412Z" fill="#A12256" fill-opacity="0.2"/>
<path d="M49.3091 241.165H50.5384C57.6411 241.165 65.8366 237.341 74.9881 229.555C84.1397 221.769 90.1496 214.667 92.7449 208.384L85.9153 242.395H0C1.50249 242.395 2.59522 242.395 5.87339 241.165C10.3809 239.526 15.1615 235.019 15.1615 224.638V163.172C15.1615 155.66 12.4297 150.606 8.60519 148.83C4.91725 147.054 3.00499 146.781 1.22931 146.781H50.8116C49.5823 146.781 48.353 146.781 45.2114 148.011C41.2503 149.376 36.7428 153.611 36.7428 163.172V225.048C36.7428 235.838 40.9771 241.165 49.3091 241.165Z" fill="#A12256" fill-opacity="0.2"/>
<path d="M1118.15 291.781H1148.48C1140.42 293.557 1133.72 299.294 1128.26 308.718L1113.37 335.763C1111.6 339.178 1110.64 344.095 1110.64 350.788V372.233C1110.64 378.38 1113.23 383.16 1116.65 384.936C1120.34 386.712 1122.25 387.258 1124.3 387.395H1075.54C1077.31 387.395 1079.63 386.848 1082.91 385.072C1086.33 383.297 1088.92 378.789 1088.92 372.779L1089.06 354.613C1089.06 347.92 1087.69 342.32 1085.1 338.085L1066.11 306.943C1059.55 296.425 1051.36 291.781 1047.12 291.781L1095.75 291.918C1087.97 292.054 1083.87 299.294 1088.1 307.079L1103.67 333.715C1106.82 339.315 1109.96 339.042 1113.23 332.895L1126.48 309.128C1131.54 299.977 1128.53 293.011 1118.15 291.781Z" fill="#A12256" fill-opacity="0.2"/>
<path d="M1040.37 296.153L1040.5 321.969C1038.18 316.368 1033.54 310.495 1026.84 304.348C1021.93 299.978 1017.42 296.699 1011 294.104C1004.58 291.372 999.388 291.645 993.378 294.377C988.051 297.519 986.412 303.392 988.051 309.949C990.236 318.144 997.066 322.788 1011.27 326.066C1040.77 333.032 1050.88 345.052 1046.92 366.36C1043.51 384.664 1026.71 390.264 1010.72 389.991C994.744 389.717 981.631 386.439 971.66 380.019V347.784C975.348 355.57 980.675 363.082 987.368 370.048C994.198 377.014 1001.44 381.795 1009.22 384.117C1021.24 387.669 1034.9 387.395 1036.4 376.195C1037.09 370.868 1035.17 366.224 1030.67 361.99C1026.3 357.755 1017.83 353.931 1005.26 350.516C980.675 343.96 972.343 332.896 973.982 315.276C974.802 306.67 978.626 300.387 985.592 296.153C992.558 291.919 1001.16 289.87 1011.54 290.006C1016.87 290.143 1021.79 290.689 1026.57 291.645C1031.35 292.602 1034.9 293.694 1037.09 294.65L1040.37 296.153Z" fill="#A12256" fill-opacity="0.2"/>
<path d="M872.167 291.781H955.214L959.585 319.099C954.804 311.86 950.433 306.533 946.472 303.118C938.96 296.835 932.13 293.694 925.847 293.694H925.027V369.638C925.027 376.194 927.623 381.248 930.354 383.57C931.72 384.663 933.359 385.482 935.135 386.165C938.96 387.395 940.189 387.395 941.691 387.395H886.645C888.148 387.395 889.377 387.395 893.065 386.165C897.846 384.526 903.173 380.019 903.173 369.638V293.694H901.944C896.207 293.694 889.241 297.108 881.045 303.801C878.996 305.44 876.811 307.626 874.489 310.221C872.167 312.816 870.255 315.138 868.889 316.914L866.84 319.646L872.167 291.781Z" fill="#A12256" fill-opacity="0.2"/>
<path d="M849.486 296.153L849.623 321.969C847.301 316.368 842.657 310.495 835.964 304.348C831.046 299.978 826.539 296.699 820.119 294.104C813.7 291.372 808.509 291.645 802.499 294.377C797.172 297.519 795.533 303.392 797.172 309.949C799.358 318.144 806.187 322.788 820.392 326.066C849.896 333.032 860.004 345.052 856.043 366.36C852.628 384.664 835.827 390.264 819.846 389.991C803.865 389.717 790.752 386.439 780.781 380.019V347.784C784.469 355.57 789.796 363.082 796.489 370.048C803.319 377.014 810.558 381.795 818.344 384.117C830.364 387.669 844.023 387.395 845.525 376.195C846.208 370.868 844.296 366.224 839.788 361.99C835.417 357.755 826.949 353.931 814.382 350.516C789.796 343.96 781.464 332.896 783.103 315.276C783.923 306.67 787.747 300.387 794.713 296.153C801.68 291.919 810.285 289.87 820.666 290.006C825.993 290.143 830.91 290.689 835.691 291.645C840.471 292.602 844.023 293.694 846.208 294.65L849.486 296.153Z" fill="#A12256" fill-opacity="0.2"/>
<path d="M755.247 343.412V312.952C755.247 304.211 752.242 297.791 748.007 295.196C744.046 292.601 741.451 291.918 739.266 291.781H771.911C769.998 292.054 757.022 293.693 757.022 314.318V345.188C757.022 348.056 757.022 350.378 756.886 352.154C756.886 353.93 756.613 356.525 756.203 359.94C755.793 363.354 755.247 366.223 754.427 368.545C752.925 373.052 749.783 379.745 745.276 383.16C740.905 386.575 733.665 389.443 724.924 389.443C710.308 389.443 699.928 385.755 694.054 378.243C688.181 370.73 685.312 359.257 685.312 343.959V309.538C685.312 302.981 682.99 297.928 680.668 295.742C676.434 291.918 672.063 291.644 670.697 291.781H723.285C721.509 291.781 720.28 291.781 716.865 293.01C712.767 294.649 708.123 299.157 708.123 309.538V349.149C708.123 373.325 717.275 384.799 733.802 383.706C749.1 382.614 755.247 370.32 755.247 343.412Z" fill="#A12256" fill-opacity="0.2"/>
<path d="M623.309 386.165H624.538C631.641 386.165 639.837 382.341 648.988 374.555C658.14 366.769 664.15 359.667 666.745 353.384L659.915 387.395H574C575.502 387.395 576.595 387.395 579.873 386.165C584.381 384.526 589.162 380.019 589.162 369.638V308.172C589.162 300.66 586.43 295.606 582.605 293.83C578.917 292.054 577.005 291.781 575.229 291.781H624.812C623.582 291.781 622.353 291.781 619.211 293.011C615.25 294.376 610.743 298.611 610.743 308.172V370.048C610.743 380.838 614.977 386.165 623.309 386.165Z" fill="#A12256" fill-opacity="0.2"/>
<path d="M544.152 436.781H574.475C566.416 438.557 559.723 444.294 554.26 453.718L539.371 480.763C537.596 484.178 536.64 489.095 536.64 495.788V517.233C536.64 523.38 539.235 528.16 542.65 529.936C546.337 531.712 548.25 532.258 550.299 532.395H501.536C503.311 532.395 505.634 531.848 508.912 530.072C512.326 528.297 514.922 523.789 514.922 517.779L515.058 499.613C515.058 492.92 513.692 487.32 511.097 483.085L492.111 451.943C485.555 441.425 477.359 436.781 473.125 436.781L521.751 436.918C513.966 437.054 509.868 444.294 514.102 452.079L529.673 478.715C532.815 484.315 535.957 484.042 539.235 477.895L552.484 454.128C557.538 444.977 554.533 438.011 544.152 436.781Z" fill="#A12256" fill-opacity="0.2"/>
<path d="M466.365 441.153L466.502 466.969C464.18 461.368 459.536 455.495 452.843 449.348C447.925 444.978 443.418 441.699 436.998 439.104C430.578 436.372 425.388 436.645 419.378 439.377C414.051 442.519 412.412 448.392 414.051 454.949C416.236 463.144 423.066 467.788 437.271 471.066C466.775 478.032 476.883 490.052 472.921 511.36C469.507 529.664 452.706 535.264 436.725 534.991C420.744 534.717 407.631 531.439 397.66 525.019V492.784C401.348 500.57 406.675 508.082 413.368 515.048C420.198 522.014 427.437 526.795 435.222 529.117C447.242 532.669 460.901 532.395 462.404 521.195C463.087 515.868 461.175 511.224 456.667 506.99C452.296 502.755 443.828 498.931 431.261 495.516C406.675 488.96 398.343 477.896 399.982 460.276C400.802 451.67 404.626 445.387 411.592 441.153C418.558 436.919 427.164 434.87 437.545 435.006C442.872 435.143 447.789 435.689 452.569 436.645C457.35 437.602 460.902 438.694 463.087 439.65L466.365 441.153Z" fill="#A12256" fill-opacity="0.2"/>
<path d="M298.167 436.781H381.214L385.585 464.099C380.804 456.86 376.433 451.533 372.472 448.118C364.96 441.835 358.13 438.694 351.847 438.694H351.027V514.638C351.027 521.194 353.623 526.248 356.354 528.57C357.72 529.663 359.359 530.482 361.135 531.165C364.96 532.395 366.189 532.395 367.691 532.395H312.645C314.148 532.395 315.377 532.395 319.065 531.165C323.846 529.526 329.173 525.019 329.173 514.638V438.694H327.944C322.207 438.694 315.241 442.108 307.045 448.801C304.996 450.44 302.811 452.626 300.489 455.221C298.167 457.816 296.255 460.138 294.889 461.914L292.84 464.646L298.167 436.781Z" fill="#A12256" fill-opacity="0.2"/>
<path d="M275.486 441.153L275.623 466.969C273.301 461.368 268.657 455.495 261.964 449.348C257.046 444.978 252.539 441.699 246.119 439.104C239.7 436.372 234.509 436.645 228.499 439.377C223.172 442.519 221.533 448.392 223.172 454.949C225.358 463.144 232.187 467.788 246.392 471.066C275.896 478.032 286.004 490.052 282.043 511.36C278.628 529.664 261.827 535.264 245.846 534.991C229.865 534.717 216.752 531.439 206.781 525.019V492.784C210.469 500.57 215.796 508.082 222.489 515.048C229.319 522.014 236.558 526.795 244.344 529.117C256.364 532.669 270.023 532.395 271.525 521.195C272.208 515.868 270.296 511.224 265.788 506.99C261.417 502.755 252.949 498.931 240.382 495.516C215.796 488.96 207.464 477.896 209.103 460.276C209.923 451.67 213.747 445.387 220.713 441.153C227.68 436.919 236.285 434.87 246.666 435.006C251.993 435.143 256.91 435.689 261.691 436.645C266.471 437.602 270.023 438.694 272.208 439.65L275.486 441.153Z" fill="#A12256" fill-opacity="0.2"/>
<path d="M181.247 488.412V457.952C181.247 449.211 178.242 442.791 174.007 440.196C170.046 437.601 167.451 436.918 165.266 436.781H197.911C195.998 437.054 183.022 438.693 183.022 459.318V490.188C183.022 493.056 183.022 495.378 182.886 497.154C182.886 498.93 182.613 501.525 182.203 504.94C181.793 508.354 181.247 511.223 180.427 513.545C178.925 518.052 175.783 524.745 171.276 528.16C166.905 531.575 159.665 534.443 150.924 534.443C136.308 534.443 125.928 530.755 120.054 523.243C114.181 515.73 111.312 504.257 111.312 488.959V454.538C111.312 447.981 108.99 442.928 106.668 440.742C102.434 436.918 98.0632 436.644 96.6973 436.781H149.285C147.509 436.781 146.28 436.781 142.865 438.01C138.767 439.649 134.123 444.157 134.123 454.538V494.149C134.123 518.325 143.275 529.799 159.802 528.706C175.1 527.614 181.247 515.32 181.247 488.412Z" fill="#A12256" fill-opacity="0.2"/>
<path d="M49.3091 531.165H50.5384C57.6411 531.165 65.8366 527.341 74.9881 519.555C84.1397 511.769 90.1496 504.667 92.7449 498.384L85.9153 532.395H0C1.50249 532.395 2.59522 532.395 5.87339 531.165C10.3809 529.526 15.1615 525.019 15.1615 514.638V453.172C15.1615 445.66 12.4297 440.606 8.60519 438.83C4.91725 437.054 3.00499 436.781 1.22931 436.781H50.8116C49.5823 436.781 48.353 436.781 45.2114 438.011C41.2503 439.376 36.7428 443.611 36.7428 453.172V515.048C36.7428 525.838 40.9771 531.165 49.3091 531.165Z" fill="#A12256" fill-opacity="0.2"/>
<path d="M1118.15 581.781H1148.48C1140.42 583.557 1133.72 589.294 1128.26 598.718L1113.37 625.763C1111.6 629.178 1110.64 634.095 1110.64 640.788V662.233C1110.64 668.38 1113.23 673.16 1116.65 674.936C1120.34 676.712 1122.25 677.258 1124.3 677.395H1075.54C1077.31 677.395 1079.63 676.848 1082.91 675.072C1086.33 673.297 1088.92 668.789 1088.92 662.779L1089.06 644.613C1089.06 637.92 1087.69 632.32 1085.1 628.085L1066.11 596.943C1059.55 586.425 1051.36 581.781 1047.12 581.781L1095.75 581.918C1087.97 582.054 1083.87 589.294 1088.1 597.079L1103.67 623.715C1106.82 629.315 1109.96 629.042 1113.23 622.895L1126.48 599.128C1131.54 589.977 1128.53 583.011 1118.15 581.781Z" fill="#A12256" fill-opacity="0.2"/>
<path d="M1040.37 586.153L1040.5 611.969C1038.18 606.368 1033.54 600.495 1026.84 594.348C1021.93 589.978 1017.42 586.699 1011 584.104C1004.58 581.372 999.388 581.645 993.378 584.377C988.051 587.519 986.412 593.392 988.051 599.949C990.236 608.144 997.066 612.788 1011.27 616.066C1040.77 623.032 1050.88 635.052 1046.92 656.36C1043.51 674.664 1026.71 680.264 1010.72 679.991C994.744 679.717 981.631 676.439 971.66 670.019V637.784C975.348 645.57 980.675 653.082 987.368 660.048C994.198 667.014 1001.44 671.795 1009.22 674.117C1021.24 677.669 1034.9 677.395 1036.4 666.195C1037.09 660.868 1035.17 656.224 1030.67 651.99C1026.3 647.755 1017.83 643.931 1005.26 640.516C980.675 633.96 972.343 622.896 973.982 605.276C974.802 596.67 978.626 590.387 985.592 586.153C992.558 581.919 1001.16 579.87 1011.54 580.006C1016.87 580.143 1021.79 580.689 1026.57 581.645C1031.35 582.602 1034.9 583.694 1037.09 584.65L1040.37 586.153Z" fill="#A12256" fill-opacity="0.2"/>
<path d="M872.167 581.781H955.214L959.585 609.099C954.804 601.86 950.433 596.533 946.472 593.118C938.96 586.835 932.13 583.694 925.847 583.694H925.027V659.638C925.027 666.194 927.623 671.248 930.354 673.57C931.72 674.663 933.359 675.482 935.135 676.165C938.96 677.395 940.189 677.395 941.691 677.395H886.645C888.148 677.395 889.377 677.395 893.065 676.165C897.846 674.526 903.173 670.019 903.173 659.638V583.694H901.944C896.207 583.694 889.241 587.108 881.045 593.801C878.996 595.44 876.811 597.626 874.489 600.221C872.167 602.816 870.255 605.138 868.889 606.914L866.84 609.646L872.167 581.781Z" fill="#A12256" fill-opacity="0.2"/>
<path d="M849.486 586.153L849.623 611.969C847.301 606.368 842.657 600.495 835.964 594.348C831.046 589.978 826.539 586.699 820.119 584.104C813.7 581.372 808.509 581.645 802.499 584.377C797.172 587.519 795.533 593.392 797.172 599.949C799.358 608.144 806.187 612.788 820.392 616.066C849.896 623.032 860.004 635.052 856.043 656.36C852.628 674.664 835.827 680.264 819.846 679.991C803.865 679.717 790.752 676.439 780.781 670.019V637.784C784.469 645.57 789.796 653.082 796.489 660.048C803.319 667.014 810.558 671.795 818.344 674.117C830.364 677.669 844.023 677.395 845.525 666.195C846.208 660.868 844.296 656.224 839.788 651.99C835.417 647.755 826.949 643.931 814.382 640.516C789.796 633.96 781.464 622.896 783.103 605.276C783.923 596.67 787.747 590.387 794.713 586.153C801.68 581.919 810.285 579.87 820.666 580.006C825.993 580.143 830.91 580.689 835.691 581.645C840.471 582.602 844.023 583.694 846.208 584.65L849.486 586.153Z" fill="#A12256" fill-opacity="0.2"/>
<path d="M755.247 633.412V602.952C755.247 594.211 752.242 587.791 748.007 585.196C744.046 582.601 741.451 581.918 739.266 581.781H771.911C769.998 582.054 757.022 583.693 757.022 604.318V635.188C757.022 638.056 757.022 640.378 756.886 642.154C756.886 643.93 756.613 646.525 756.203 649.94C755.793 653.354 755.247 656.223 754.427 658.545C752.925 663.052 749.783 669.745 745.276 673.16C740.905 676.575 733.665 679.443 724.924 679.443C710.308 679.443 699.928 675.755 694.054 668.243C688.181 660.73 685.312 649.257 685.312 633.959V599.538C685.312 592.981 682.99 587.928 680.668 585.742C676.434 581.918 672.063 581.644 670.697 581.781H723.285C721.509 581.781 720.28 581.781 716.865 583.01C712.767 584.649 708.123 589.157 708.123 599.538V639.149C708.123 663.325 717.275 674.799 733.802 673.706C749.1 672.614 755.247 660.32 755.247 633.412Z" fill="#A12256" fill-opacity="0.2"/>
<path d="M623.309 676.165H624.538C631.641 676.165 639.837 672.341 648.988 664.555C658.14 656.769 664.15 649.667 666.745 643.384L659.915 677.395H574C575.502 677.395 576.595 677.395 579.873 676.165C584.381 674.526 589.162 670.019 589.162 659.638V598.172C589.162 590.66 586.43 585.606 582.605 583.83C578.917 582.054 577.005 581.781 575.229 581.781H624.812C623.582 581.781 622.353 581.781 619.211 583.011C615.25 584.376 610.743 588.611 610.743 598.172V660.048C610.743 670.838 614.977 676.165 623.309 676.165Z" fill="#A12256" fill-opacity="0.2"/>
<path d="M544.152 726.781H574.475C566.416 728.557 559.723 734.294 554.26 743.718L539.371 770.763C537.596 774.178 536.64 779.095 536.64 785.788V807.233C536.64 813.38 539.235 818.16 542.65 819.936C546.337 821.712 548.25 822.258 550.299 822.395H501.536C503.311 822.395 505.634 821.848 508.912 820.072C512.326 818.297 514.922 813.789 514.922 807.779L515.058 789.613C515.058 782.92 513.692 777.32 511.097 773.085L492.111 741.943C485.555 731.425 477.359 726.781 473.125 726.781L521.751 726.918C513.966 727.054 509.868 734.294 514.102 742.079L529.673 768.715C532.815 774.315 535.957 774.042 539.235 767.895L552.484 744.128C557.538 734.977 554.533 728.011 544.152 726.781Z" fill="#A12256" fill-opacity="0.2"/>
<path d="M466.365 731.153L466.502 756.969C464.18 751.368 459.536 745.495 452.843 739.348C447.925 734.978 443.418 731.699 436.998 729.104C430.578 726.372 425.388 726.645 419.378 729.377C414.051 732.519 412.412 738.392 414.051 744.949C416.236 753.144 423.066 757.788 437.271 761.066C466.775 768.032 476.883 780.052 472.921 801.36C469.507 819.664 452.706 825.264 436.725 824.991C420.744 824.717 407.631 821.439 397.66 815.019V782.784C401.348 790.57 406.675 798.082 413.368 805.048C420.198 812.014 427.437 816.795 435.222 819.117C447.242 822.669 460.901 822.395 462.404 811.195C463.087 805.868 461.175 801.224 456.667 796.99C452.296 792.755 443.828 788.931 431.261 785.516C406.675 778.96 398.343 767.896 399.982 750.276C400.802 741.67 404.626 735.387 411.592 731.153C418.558 726.919 427.164 724.87 437.545 725.006C442.872 725.143 447.789 725.689 452.569 726.645C457.35 727.602 460.902 728.694 463.087 729.65L466.365 731.153Z" fill="#A12256" fill-opacity="0.2"/>
<path d="M298.167 726.781H381.214L385.585 754.099C380.804 746.86 376.433 741.533 372.472 738.118C364.96 731.835 358.13 728.694 351.847 728.694H351.027V804.638C351.027 811.194 353.623 816.248 356.354 818.57C357.72 819.663 359.359 820.482 361.135 821.165C364.96 822.395 366.189 822.395 367.691 822.395H312.645C314.148 822.395 315.377 822.395 319.065 821.165C323.846 819.526 329.173 815.019 329.173 804.638V728.694H327.944C322.207 728.694 315.241 732.108 307.045 738.801C304.996 740.44 302.811 742.626 300.489 745.221C298.167 747.816 296.255 750.138 294.889 751.914L292.84 754.646L298.167 726.781Z" fill="#A12256" fill-opacity="0.2"/>
<path d="M275.486 731.153L275.623 756.969C273.301 751.368 268.657 745.495 261.964 739.348C257.046 734.978 252.539 731.699 246.119 729.104C239.7 726.372 234.509 726.645 228.499 729.377C223.172 732.519 221.533 738.392 223.172 744.949C225.358 753.144 232.187 757.788 246.392 761.066C275.896 768.032 286.004 780.052 282.043 801.36C278.628 819.664 261.827 825.264 245.846 824.991C229.865 824.717 216.752 821.439 206.781 815.019V782.784C210.469 790.57 215.796 798.082 222.489 805.048C229.319 812.014 236.558 816.795 244.344 819.117C256.364 822.669 270.023 822.395 271.525 811.195C272.208 805.868 270.296 801.224 265.788 796.99C261.417 792.755 252.949 788.931 240.382 785.516C215.796 778.96 207.464 767.896 209.103 750.276C209.923 741.67 213.747 735.387 220.713 731.153C227.68 726.919 236.285 724.87 246.666 725.006C251.993 725.143 256.91 725.689 261.691 726.645C266.471 727.602 270.023 728.694 272.208 729.65L275.486 731.153Z" fill="#A12256" fill-opacity="0.2"/>
<path d="M181.247 778.412V747.952C181.247 739.211 178.242 732.791 174.007 730.196C170.046 727.601 167.451 726.918 165.266 726.781H197.911C195.998 727.054 183.022 728.693 183.022 749.318V780.188C183.022 783.056 183.022 785.378 182.886 787.154C182.886 788.93 182.613 791.525 182.203 794.94C181.793 798.354 181.247 801.223 180.427 803.545C178.925 808.052 175.783 814.745 171.276 818.16C166.905 821.575 159.665 824.443 150.924 824.443C136.308 824.443 125.928 820.755 120.054 813.243C114.181 805.73 111.312 794.257 111.312 778.959V744.538C111.312 737.981 108.99 732.928 106.668 730.742C102.434 726.918 98.0632 726.644 96.6973 726.781H149.285C147.509 726.781 146.28 726.781 142.865 728.01C138.767 729.649 134.123 734.157 134.123 744.538V784.149C134.123 808.325 143.275 819.799 159.802 818.706C175.1 817.614 181.247 805.32 181.247 778.412Z" fill="#A12256" fill-opacity="0.2"/>
<path d="M49.3091 821.165H50.5384C57.6411 821.165 65.8366 817.341 74.9881 809.555C84.1397 801.769 90.1496 794.667 92.7449 788.384L85.9153 822.395H0C1.50249 822.395 2.59522 822.395 5.87339 821.165C10.3809 819.526 15.1615 815.019 15.1615 804.638V743.172C15.1615 735.66 12.4297 730.606 8.60519 728.83C4.91725 727.054 3.00499 726.781 1.22931 726.781H50.8116C49.5823 726.781 48.353 726.781 45.2114 728.011C41.2503 729.376 36.7428 733.611 36.7428 743.172V805.048C36.7428 815.838 40.9771 821.165 49.3091 821.165Z" fill="#A12256" fill-opacity="0.2"/>
<path d="M1118.15 871.781H1148.48C1140.42 873.557 1133.72 879.294 1128.26 888.718L1113.37 915.763C1111.6 919.178 1110.64 924.095 1110.64 930.788V952.233C1110.64 958.38 1113.23 963.16 1116.65 964.936C1120.34 966.712 1122.25 967.258 1124.3 967.395H1075.54C1077.31 967.395 1079.63 966.848 1082.91 965.072C1086.33 963.297 1088.92 958.789 1088.92 952.779L1089.06 934.613C1089.06 927.92 1087.69 922.32 1085.1 918.085L1066.11 886.943C1059.55 876.425 1051.36 871.781 1047.12 871.781L1095.75 871.918C1087.97 872.054 1083.87 879.294 1088.1 887.079L1103.67 913.715C1106.82 919.315 1109.96 919.042 1113.23 912.895L1126.48 889.128C1131.54 879.977 1128.53 873.011 1118.15 871.781Z" fill="#A12256" fill-opacity="0.2"/>
<path d="M1040.37 876.153L1040.5 901.969C1038.18 896.368 1033.54 890.495 1026.84 884.348C1021.93 879.978 1017.42 876.699 1011 874.104C1004.58 871.372 999.388 871.645 993.378 874.377C988.051 877.519 986.412 883.392 988.051 889.949C990.236 898.144 997.066 902.788 1011.27 906.066C1040.77 913.032 1050.88 925.052 1046.92 946.36C1043.51 964.664 1026.71 970.264 1010.72 969.991C994.744 969.717 981.631 966.439 971.66 960.019V927.784C975.348 935.57 980.675 943.082 987.368 950.048C994.198 957.014 1001.44 961.795 1009.22 964.117C1021.24 967.669 1034.9 967.395 1036.4 956.195C1037.09 950.868 1035.17 946.224 1030.67 941.99C1026.3 937.755 1017.83 933.931 1005.26 930.516C980.675 923.96 972.343 912.896 973.982 895.276C974.802 886.67 978.626 880.387 985.592 876.153C992.558 871.919 1001.16 869.87 1011.54 870.006C1016.87 870.143 1021.79 870.689 1026.57 871.645C1031.35 872.602 1034.9 873.694 1037.09 874.65L1040.37 876.153Z" fill="#A12256" fill-opacity="0.2"/>
<path d="M872.167 871.781H955.214L959.585 899.099C954.804 891.86 950.433 886.533 946.472 883.118C938.96 876.835 932.13 873.694 925.847 873.694H925.027V949.638C925.027 956.194 927.623 961.248 930.354 963.57C931.72 964.663 933.359 965.482 935.135 966.165C938.96 967.395 940.189 967.395 941.691 967.395H886.645C888.148 967.395 889.377 967.395 893.065 966.165C897.846 964.526 903.173 960.019 903.173 949.638V873.694H901.944C896.207 873.694 889.241 877.108 881.045 883.801C878.996 885.44 876.811 887.626 874.489 890.221C872.167 892.816 870.255 895.138 868.889 896.914L866.84 899.646L872.167 871.781Z" fill="#A12256" fill-opacity="0.2"/>
<path d="M849.486 876.153L849.623 901.969C847.301 896.368 842.657 890.495 835.964 884.348C831.046 879.978 826.539 876.699 820.119 874.104C813.7 871.372 808.509 871.645 802.499 874.377C797.172 877.519 795.533 883.392 797.172 889.949C799.358 898.144 806.187 902.788 820.392 906.066C849.896 913.032 860.004 925.052 856.043 946.36C852.628 964.664 835.827 970.264 819.846 969.991C803.865 969.717 790.752 966.439 780.781 960.019V927.784C784.469 935.57 789.796 943.082 796.489 950.048C803.319 957.014 810.558 961.795 818.344 964.117C830.364 967.669 844.023 967.395 845.525 956.195C846.208 950.868 844.296 946.224 839.788 941.99C835.417 937.755 826.949 933.931 814.382 930.516C789.796 923.96 781.464 912.896 783.103 895.276C783.923 886.67 787.747 880.387 794.713 876.153C801.68 871.919 810.285 869.87 820.666 870.006C825.993 870.143 830.91 870.689 835.691 871.645C840.471 872.602 844.023 873.694 846.208 874.65L849.486 876.153Z" fill="#A12256" fill-opacity="0.2"/>
<path d="M755.247 923.412V892.952C755.247 884.211 752.242 877.791 748.007 875.196C744.046 872.601 741.451 871.918 739.266 871.781H771.911C769.998 872.054 757.022 873.693 757.022 894.318V925.188C757.022 928.056 757.022 930.378 756.886 932.154C756.886 933.93 756.613 936.525 756.203 939.94C755.793 943.354 755.247 946.223 754.427 948.545C752.925 953.052 749.783 959.745 745.276 963.16C740.905 966.575 733.665 969.443 724.924 969.443C710.308 969.443 699.928 965.755 694.054 958.243C688.181 950.73 685.312 939.257 685.312 923.959V889.538C685.312 882.981 682.99 877.928 680.668 875.742C676.434 871.918 672.063 871.644 670.697 871.781H723.285C721.509 871.781 720.28 871.781 716.865 873.01C712.767 874.649 708.123 879.157 708.123 889.538V929.149C708.123 953.325 717.275 964.799 733.802 963.706C749.1 962.614 755.247 950.32 755.247 923.412Z" fill="#A12256" fill-opacity="0.2"/>
<path d="M623.309 966.165H624.538C631.641 966.165 639.837 962.341 648.988 954.555C658.14 946.769 664.15 939.667 666.745 933.384L659.915 967.395H574C575.502 967.395 576.595 967.395 579.873 966.165C584.381 964.526 589.162 960.019 589.162 949.638V888.172C589.162 880.66 586.43 875.606 582.605 873.83C578.917 872.054 577.005 871.781 575.229 871.781H624.812C623.582 871.781 622.353 871.781 619.211 873.011C615.25 874.376 610.743 878.611 610.743 888.172V950.048C610.743 960.838 614.977 966.165 623.309 966.165Z" fill="#A12256" fill-opacity="0.2"/>
</svg>
