<svg width="575" height="1260" viewBox="0 0 575 1260" fill="none" xmlns="http://www.w3.org/2000/svg">
<path d="M544.627 146.781H574.95C566.891 148.557 560.198 154.294 554.734 163.718L539.846 190.763C538.07 194.178 537.114 199.095 537.114 205.788V227.233C537.114 233.38 539.709 238.16 543.124 239.936C546.812 241.712 548.724 242.258 550.773 242.395H502.01C503.786 242.395 506.108 241.848 509.386 240.072C512.801 238.297 515.396 233.789 515.396 227.779L515.533 209.613C515.533 202.92 514.167 197.32 511.572 193.085L492.586 161.943C486.029 151.425 477.834 146.781 473.6 146.781L522.226 146.918C514.44 147.054 510.342 154.294 514.577 162.079L530.148 188.715C533.29 194.315 536.431 194.042 539.709 187.895L552.959 164.128C558.013 154.977 555.007 148.011 544.627 146.781Z" fill="#55142E" fill-opacity="0.3"/>
<path d="M466.84 151.153L466.976 176.969C464.654 171.368 460.01 165.495 453.317 159.348C448.4 154.978 443.893 151.699 437.473 149.104C431.053 146.372 425.863 146.645 419.853 149.377C414.526 152.519 412.887 158.392 414.526 164.949C416.711 173.144 423.541 177.788 437.746 181.066C467.249 188.032 477.357 200.052 473.396 221.36C469.981 239.664 453.181 245.264 437.2 244.991C421.219 244.717 408.106 241.439 398.135 235.019V202.784C401.823 210.57 407.15 218.082 413.843 225.048C420.672 232.014 427.911 236.795 435.697 239.117C447.717 242.669 461.376 242.395 462.879 231.195C463.562 225.868 461.649 221.224 457.142 216.99C452.771 212.755 444.302 208.931 431.736 205.516C407.15 198.96 398.818 187.896 400.457 170.276C401.276 161.67 405.101 155.387 412.067 151.153C419.033 146.919 427.638 144.87 438.019 145.006C443.346 145.143 448.263 145.689 453.044 146.645C457.825 147.602 461.376 148.694 463.562 149.65L466.84 151.153Z" fill="#55142E" fill-opacity="0.3"/>
<path d="M298.641 146.781H381.688L386.059 174.099C381.279 166.86 376.908 161.533 372.947 158.118C365.434 151.835 358.605 148.694 352.321 148.694H351.502V224.638C351.502 231.194 354.097 236.248 356.829 238.57C358.195 239.663 359.834 240.482 361.61 241.165C365.434 242.395 366.663 242.395 368.166 242.395H313.12C314.623 242.395 315.852 242.395 319.54 241.165C324.32 239.526 329.647 235.019 329.647 224.638V148.694H328.418C322.681 148.694 315.715 152.108 307.52 158.801C305.471 160.44 303.286 162.626 300.964 165.221C298.641 167.816 296.729 170.138 295.363 171.914L293.314 174.646L298.641 146.781Z" fill="#55142E" fill-opacity="0.3"/>
<path d="M275.961 151.153L276.097 176.969C273.775 171.368 269.131 165.495 262.438 159.348C257.521 154.978 253.014 151.699 246.594 149.104C240.174 146.372 234.984 146.645 228.974 149.377C223.647 152.519 222.008 158.392 223.647 164.949C225.832 173.144 232.662 177.788 246.867 181.066C276.371 188.032 286.478 200.052 282.517 221.36C279.102 239.664 262.302 245.264 246.321 244.991C230.34 244.717 217.227 241.439 207.256 235.019V202.784C210.944 210.57 216.271 218.082 222.964 225.048C229.793 232.014 237.033 236.795 244.818 239.117C256.838 242.669 270.497 242.395 272 231.195C272.683 225.868 270.77 221.224 266.263 216.99C261.892 212.755 253.423 208.931 240.857 205.516C216.271 198.96 207.939 187.896 209.578 170.276C210.397 161.67 214.222 155.387 221.188 151.153C228.154 146.919 236.759 144.87 247.14 145.006C252.467 145.143 257.385 145.689 262.165 146.645C266.946 147.602 270.497 148.694 272.683 149.65L275.961 151.153Z" fill="#55142E" fill-opacity="0.3"/>
<path d="M181.721 198.412V167.952C181.721 159.211 178.716 152.791 174.482 150.196C170.521 147.601 167.926 146.918 165.74 146.781H198.385C196.473 147.054 183.497 148.693 183.497 169.318V200.188C183.497 203.056 183.497 205.378 183.36 207.154C183.36 208.93 183.087 211.525 182.677 214.94C182.268 218.354 181.721 221.223 180.902 223.545C179.399 228.052 176.258 234.745 171.75 238.16C167.379 241.575 160.14 244.443 151.398 244.443C136.783 244.443 126.402 240.755 120.529 233.243C114.655 225.73 111.787 214.257 111.787 198.959V164.538C111.787 157.981 109.465 152.928 107.143 150.742C102.909 146.918 98.5378 146.644 97.1719 146.781H149.759C147.983 146.781 146.754 146.781 143.339 148.01C139.242 149.649 134.598 154.157 134.598 164.538V204.149C134.598 228.325 143.749 239.799 160.277 238.706C175.575 237.614 181.721 225.32 181.721 198.412Z" fill="#55142E" fill-opacity="0.3"/>
<path d="M49.7837 241.165H51.013C58.1157 241.165 66.3112 237.341 75.4627 229.555C84.6143 221.769 90.6243 214.667 93.2195 208.384L86.39 242.395H0.474609C1.9771 242.395 3.06983 242.395 6.348 241.165C10.8555 239.526 15.6361 235.019 15.6361 224.638V163.172C15.6361 155.66 12.9043 150.606 9.0798 148.83C5.39186 147.054 3.4796 146.781 1.70392 146.781H51.2862C50.0569 146.781 48.8276 146.781 45.686 148.011C41.7249 149.376 37.2174 153.611 37.2174 163.172V225.048C37.2174 235.838 41.4517 241.165 49.7837 241.165Z" fill="#55142E" fill-opacity="0.3"/>
<path d="M544.627 436.781H574.95C566.891 438.557 560.198 444.294 554.734 453.718L539.846 480.763C538.07 484.178 537.114 489.095 537.114 495.788V517.233C537.114 523.38 539.709 528.16 543.124 529.936C546.812 531.712 548.724 532.258 550.773 532.395H502.01C503.786 532.395 506.108 531.848 509.386 530.072C512.801 528.297 515.396 523.789 515.396 517.779L515.533 499.613C515.533 492.92 514.167 487.32 511.572 483.085L492.586 451.943C486.029 441.425 477.834 436.781 473.6 436.781L522.226 436.918C514.44 437.054 510.342 444.294 514.577 452.079L530.148 478.715C533.29 484.315 536.431 484.042 539.709 477.895L552.959 454.128C558.013 444.977 555.007 438.011 544.627 436.781Z" fill="#55142E" fill-opacity="0.3"/>
<path d="M466.84 441.153L466.976 466.969C464.654 461.368 460.01 455.495 453.317 449.348C448.4 444.978 443.893 441.699 437.473 439.104C431.053 436.372 425.863 436.645 419.853 439.377C414.526 442.519 412.887 448.392 414.526 454.949C416.711 463.144 423.541 467.788 437.746 471.066C467.249 478.032 477.357 490.052 473.396 511.36C469.981 529.664 453.181 535.264 437.2 534.991C421.219 534.717 408.106 531.439 398.135 525.019V492.784C401.823 500.57 407.15 508.082 413.843 515.048C420.672 522.014 427.911 526.795 435.697 529.117C447.717 532.669 461.376 532.395 462.879 521.195C463.562 515.868 461.649 511.224 457.142 506.99C452.771 502.755 444.302 498.931 431.736 495.516C407.15 488.96 398.818 477.896 400.457 460.276C401.276 451.67 405.101 445.387 412.067 441.153C419.033 436.919 427.638 434.87 438.019 435.006C443.346 435.143 448.263 435.689 453.044 436.645C457.825 437.602 461.376 438.694 463.562 439.65L466.84 441.153Z" fill="#55142E" fill-opacity="0.3"/>
<path d="M298.641 436.781H381.688L386.059 464.099C381.279 456.86 376.908 451.533 372.947 448.118C365.434 441.835 358.605 438.694 352.321 438.694H351.502V514.638C351.502 521.194 354.097 526.248 356.829 528.57C358.195 529.663 359.834 530.482 361.61 531.165C365.434 532.395 366.663 532.395 368.166 532.395H313.12C314.623 532.395 315.852 532.395 319.54 531.165C324.32 529.526 329.647 525.019 329.647 514.638V438.694H328.418C322.681 438.694 315.715 442.108 307.52 448.801C305.471 450.44 303.286 452.626 300.964 455.221C298.641 457.816 296.729 460.138 295.363 461.914L293.314 464.646L298.641 436.781Z" fill="#55142E" fill-opacity="0.3"/>
<path d="M275.961 441.153L276.097 466.969C273.775 461.368 269.131 455.495 262.438 449.348C257.521 444.978 253.014 441.699 246.594 439.104C240.174 436.372 234.984 436.645 228.974 439.377C223.647 442.519 222.008 448.392 223.647 454.949C225.832 463.144 232.662 467.788 246.867 471.066C276.371 478.032 286.478 490.052 282.517 511.36C279.102 529.664 262.302 535.264 246.321 534.991C230.34 534.717 217.227 531.439 207.256 525.019V492.784C210.944 500.57 216.271 508.082 222.964 515.048C229.793 522.014 237.033 526.795 244.818 529.117C256.838 532.669 270.497 532.395 272 521.195C272.683 515.868 270.77 511.224 266.263 506.99C261.892 502.755 253.423 498.931 240.857 495.516C216.271 488.96 207.939 477.896 209.578 460.276C210.397 451.67 214.222 445.387 221.188 441.153C228.154 436.919 236.759 434.87 247.14 435.006C252.467 435.143 257.385 435.689 262.165 436.645C266.946 437.602 270.497 438.694 272.683 439.65L275.961 441.153Z" fill="#55142E" fill-opacity="0.3"/>
<path d="M181.721 488.412V457.952C181.721 449.211 178.716 442.791 174.482 440.196C170.521 437.601 167.926 436.918 165.74 436.781H198.385C196.473 437.054 183.497 438.693 183.497 459.318V490.188C183.497 493.056 183.497 495.378 183.36 497.154C183.36 498.93 183.087 501.525 182.677 504.94C182.268 508.354 181.721 511.223 180.902 513.545C179.399 518.052 176.258 524.745 171.75 528.16C167.379 531.575 160.14 534.443 151.398 534.443C136.783 534.443 126.402 530.755 120.529 523.243C114.655 515.73 111.787 504.257 111.787 488.959V454.538C111.787 447.981 109.465 442.928 107.143 440.742C102.909 436.918 98.5378 436.644 97.1719 436.781H149.759C147.983 436.781 146.754 436.781 143.339 438.01C139.242 439.649 134.598 444.157 134.598 454.538V494.149C134.598 518.325 143.749 529.799 160.277 528.706C175.575 527.614 181.721 515.32 181.721 488.412Z" fill="#55142E" fill-opacity="0.3"/>
<path d="M49.7837 531.165H51.013C58.1157 531.165 66.3112 527.341 75.4627 519.555C84.6143 511.769 90.6243 504.667 93.2195 498.384L86.39 532.395H0.474609C1.9771 532.395 3.06983 532.395 6.348 531.165C10.8555 529.526 15.6361 525.019 15.6361 514.638V453.172C15.6361 445.66 12.9043 440.606 9.0798 438.83C5.39186 437.054 3.4796 436.781 1.70392 436.781H51.2862C50.0569 436.781 48.8276 436.781 45.686 438.011C41.7249 439.376 37.2174 443.611 37.2174 453.172V515.048C37.2174 525.838 41.4517 531.165 49.7837 531.165Z" fill="#55142E" fill-opacity="0.3"/>
<path d="M544.627 726.781H574.95C566.891 728.557 560.198 734.294 554.734 743.718L539.846 770.763C538.07 774.178 537.114 779.095 537.114 785.788V807.233C537.114 813.38 539.709 818.16 543.124 819.936C546.812 821.712 548.724 822.258 550.773 822.395H502.01C503.786 822.395 506.108 821.848 509.386 820.072C512.801 818.297 515.396 813.789 515.396 807.779L515.533 789.613C515.533 782.92 514.167 777.32 511.572 773.085L492.586 741.943C486.029 731.425 477.834 726.781 473.6 726.781L522.226 726.918C514.44 727.054 510.342 734.294 514.577 742.079L530.148 768.715C533.29 774.315 536.431 774.042 539.709 767.895L552.959 744.128C558.013 734.977 555.007 728.011 544.627 726.781Z" fill="#55142E" fill-opacity="0.3"/>
<path d="M466.84 731.153L466.976 756.969C464.654 751.368 460.01 745.495 453.317 739.348C448.4 734.978 443.893 731.699 437.473 729.104C431.053 726.372 425.863 726.645 419.853 729.377C414.526 732.519 412.887 738.392 414.526 744.949C416.711 753.144 423.541 757.788 437.746 761.066C467.249 768.032 477.357 780.052 473.396 801.36C469.981 819.664 453.181 825.264 437.2 824.991C421.219 824.717 408.106 821.439 398.135 815.019V782.784C401.823 790.57 407.15 798.082 413.843 805.048C420.672 812.014 427.911 816.795 435.697 819.117C447.717 822.669 461.376 822.395 462.879 811.195C463.562 805.868 461.649 801.224 457.142 796.99C452.771 792.755 444.302 788.931 431.736 785.516C407.15 778.96 398.818 767.896 400.457 750.276C401.276 741.67 405.101 735.387 412.067 731.153C419.033 726.919 427.638 724.87 438.019 725.006C443.346 725.143 448.263 725.689 453.044 726.645C457.825 727.602 461.376 728.694 463.562 729.65L466.84 731.153Z" fill="#55142E" fill-opacity="0.3"/>
<path d="M298.641 726.781H381.688L386.059 754.099C381.279 746.86 376.908 741.533 372.947 738.118C365.434 731.835 358.605 728.694 352.321 728.694H351.502V804.638C351.502 811.194 354.097 816.248 356.829 818.57C358.195 819.663 359.834 820.482 361.61 821.165C365.434 822.395 366.663 822.395 368.166 822.395H313.12C314.623 822.395 315.852 822.395 319.54 821.165C324.32 819.526 329.647 815.019 329.647 804.638V728.694H328.418C322.681 728.694 315.715 732.108 307.52 738.801C305.471 740.44 303.286 742.626 300.964 745.221C298.641 747.816 296.729 750.138 295.363 751.914L293.314 754.646L298.641 726.781Z" fill="#55142E" fill-opacity="0.3"/>
<path d="M275.961 731.153L276.097 756.969C273.775 751.368 269.131 745.495 262.438 739.348C257.521 734.978 253.014 731.699 246.594 729.104C240.174 726.372 234.984 726.645 228.974 729.377C223.647 732.519 222.008 738.392 223.647 744.949C225.832 753.144 232.662 757.788 246.867 761.066C276.371 768.032 286.478 780.052 282.517 801.36C279.102 819.664 262.302 825.264 246.321 824.991C230.34 824.717 217.227 821.439 207.256 815.019V782.784C210.944 790.57 216.271 798.082 222.964 805.048C229.793 812.014 237.033 816.795 244.818 819.117C256.838 822.669 270.497 822.395 272 811.195C272.683 805.868 270.77 801.224 266.263 796.99C261.892 792.755 253.423 788.931 240.857 785.516C216.271 778.96 207.939 767.896 209.578 750.276C210.397 741.67 214.222 735.387 221.188 731.153C228.154 726.919 236.759 724.87 247.14 725.006C252.467 725.143 257.385 725.689 262.165 726.645C266.946 727.602 270.497 728.694 272.683 729.65L275.961 731.153Z" fill="#55142E" fill-opacity="0.3"/>
<path d="M181.721 778.412V747.952C181.721 739.211 178.716 732.791 174.482 730.196C170.521 727.601 167.926 726.918 165.74 726.781H198.385C196.473 727.054 183.497 728.693 183.497 749.318V780.188C183.497 783.056 183.497 785.378 183.36 787.154C183.36 788.93 183.087 791.525 182.677 794.94C182.268 798.354 181.721 801.223 180.902 803.545C179.399 808.052 176.258 814.745 171.75 818.16C167.379 821.575 160.14 824.443 151.398 824.443C136.783 824.443 126.402 820.755 120.529 813.243C114.655 805.73 111.787 794.257 111.787 778.959V744.538C111.787 737.981 109.465 732.928 107.143 730.742C102.909 726.918 98.5378 726.644 97.1719 726.781H149.759C147.983 726.781 146.754 726.781 143.339 728.01C139.242 729.649 134.598 734.157 134.598 744.538V784.149C134.598 808.325 143.749 819.799 160.277 818.706C175.575 817.614 181.721 805.32 181.721 778.412Z" fill="#55142E" fill-opacity="0.3"/>
<path d="M49.7837 821.165H51.013C58.1157 821.165 66.3112 817.341 75.4627 809.555C84.6143 801.769 90.6243 794.667 93.2195 788.384L86.39 822.395H0.474609C1.9771 822.395 3.06983 822.395 6.348 821.165C10.8555 819.526 15.6361 815.019 15.6361 804.638V743.172C15.6361 735.66 12.9043 730.606 9.0798 728.83C5.39186 727.054 3.4796 726.781 1.70392 726.781H51.2862C50.0569 726.781 48.8276 726.781 45.686 728.011C41.7249 729.376 37.2174 733.611 37.2174 743.172V805.048C37.2174 815.838 41.4517 821.165 49.7837 821.165Z" fill="#55142E" fill-opacity="0.3"/>
<path d="M544.627 1016.78H574.95C566.891 1018.56 560.198 1024.29 554.734 1033.72L539.846 1060.76C538.07 1064.18 537.114 1069.1 537.114 1075.79V1097.23C537.114 1103.38 539.709 1108.16 543.124 1109.94C546.812 1111.71 548.724 1112.26 550.773 1112.39H502.01C503.786 1112.39 506.108 1111.85 509.386 1110.07C512.801 1108.3 515.396 1103.79 515.396 1097.78L515.533 1079.61C515.533 1072.92 514.167 1067.32 511.572 1063.09L492.586 1031.94C486.029 1021.43 477.834 1016.78 473.6 1016.78L522.226 1016.92C514.44 1017.05 510.342 1024.29 514.577 1032.08L530.148 1058.71C533.29 1064.31 536.431 1064.04 539.709 1057.89L552.959 1034.13C558.013 1024.98 555.007 1018.01 544.627 1016.78Z" fill="#55142E" fill-opacity="0.3"/>
<path d="M466.84 1021.15L466.976 1046.97C464.654 1041.37 460.01 1035.49 453.317 1029.35C448.4 1024.98 443.893 1021.7 437.473 1019.1C431.053 1016.37 425.863 1016.65 419.853 1019.38C414.526 1022.52 412.887 1028.39 414.526 1034.95C416.711 1043.14 423.541 1047.79 437.746 1051.07C467.249 1058.03 477.357 1070.05 473.396 1091.36C469.981 1109.66 453.181 1115.26 437.2 1114.99C421.219 1114.72 408.106 1111.44 398.135 1105.02V1072.78C401.823 1080.57 407.15 1088.08 413.843 1095.05C420.672 1102.01 427.911 1106.8 435.697 1109.12C447.717 1112.67 461.376 1112.4 462.879 1101.19C463.562 1095.87 461.649 1091.22 457.142 1086.99C452.771 1082.76 444.302 1078.93 431.736 1075.52C407.15 1068.96 398.818 1057.9 400.457 1040.28C401.276 1031.67 405.101 1025.39 412.067 1021.15C419.033 1016.92 427.638 1014.87 438.019 1015.01C443.346 1015.14 448.263 1015.69 453.044 1016.65C457.825 1017.6 461.376 1018.69 463.562 1019.65L466.84 1021.15Z" fill="#55142E" fill-opacity="0.3"/>
<path d="M298.641 1016.78H381.688L386.059 1044.1C381.279 1036.86 376.908 1031.53 372.947 1028.12C365.434 1021.84 358.605 1018.69 352.321 1018.69H351.502V1094.64C351.502 1101.19 354.097 1106.25 356.829 1108.57C358.195 1109.66 359.834 1110.48 361.61 1111.17C365.434 1112.39 366.663 1112.39 368.166 1112.39H313.12C314.623 1112.39 315.852 1112.39 319.54 1111.17C324.32 1109.53 329.647 1105.02 329.647 1094.64V1018.69H328.418C322.681 1018.69 315.715 1022.11 307.52 1028.8C305.471 1030.44 303.286 1032.63 300.964 1035.22C298.641 1037.82 296.729 1040.14 295.363 1041.91L293.314 1044.65L298.641 1016.78Z" fill="#55142E" fill-opacity="0.3"/>
<path d="M275.961 1021.15L276.097 1046.97C273.775 1041.37 269.131 1035.49 262.438 1029.35C257.521 1024.98 253.014 1021.7 246.594 1019.1C240.174 1016.37 234.984 1016.65 228.974 1019.38C223.647 1022.52 222.008 1028.39 223.647 1034.95C225.832 1043.14 232.662 1047.79 246.867 1051.07C276.371 1058.03 286.478 1070.05 282.517 1091.36C279.102 1109.66 262.302 1115.26 246.321 1114.99C230.34 1114.72 217.227 1111.44 207.256 1105.02V1072.78C210.944 1080.57 216.271 1088.08 222.964 1095.05C229.793 1102.01 237.033 1106.8 244.818 1109.12C256.838 1112.67 270.497 1112.4 272 1101.19C272.683 1095.87 270.77 1091.22 266.263 1086.99C261.892 1082.76 253.423 1078.93 240.857 1075.52C216.271 1068.96 207.939 1057.9 209.578 1040.28C210.397 1031.67 214.222 1025.39 221.188 1021.15C228.154 1016.92 236.759 1014.87 247.14 1015.01C252.467 1015.14 257.385 1015.69 262.165 1016.65C266.946 1017.6 270.497 1018.69 272.683 1019.65L275.961 1021.15Z" fill="#55142E" fill-opacity="0.3"/>
<path d="M181.721 1068.41V1037.95C181.721 1029.21 178.716 1022.79 174.482 1020.2C170.521 1017.6 167.926 1016.92 165.74 1016.78H198.385C196.473 1017.05 183.497 1018.69 183.497 1039.32V1070.19C183.497 1073.06 183.497 1075.38 183.36 1077.15C183.36 1078.93 183.087 1081.52 182.677 1084.94C182.268 1088.35 181.721 1091.22 180.902 1093.54C179.399 1098.05 176.258 1104.75 171.75 1108.16C167.379 1111.57 160.14 1114.44 151.398 1114.44C136.783 1114.44 126.402 1110.76 120.529 1103.24C114.655 1095.73 111.787 1084.26 111.787 1068.96V1034.54C111.787 1027.98 109.465 1022.93 107.143 1020.74C102.909 1016.92 98.5378 1016.64 97.1719 1016.78H149.759C147.983 1016.78 146.754 1016.78 143.339 1018.01C139.242 1019.65 134.598 1024.16 134.598 1034.54V1074.15C134.598 1098.33 143.749 1109.8 160.277 1108.71C175.575 1107.61 181.721 1095.32 181.721 1068.41Z" fill="#55142E" fill-opacity="0.3"/>
<path d="M49.7837 1111.17H51.013C58.1157 1111.17 66.3112 1107.34 75.4627 1099.56C84.6143 1091.77 90.6243 1084.67 93.2195 1078.38L86.39 1112.39H0.474609C1.9771 1112.39 3.06983 1112.39 6.348 1111.17C10.8555 1109.53 15.6361 1105.02 15.6361 1094.64V1033.17C15.6361 1025.66 12.9043 1020.61 9.0798 1018.83C5.39186 1017.05 3.4796 1016.78 1.70392 1016.78H51.2862C50.0569 1016.78 48.8276 1016.78 45.686 1018.01C41.7249 1019.38 37.2174 1023.61 37.2174 1033.17V1095.05C37.2174 1105.84 41.4517 1111.17 49.7837 1111.17Z" fill="#55142E" fill-opacity="0.3"/>
<path d="M544.152 1.78125H574.475C566.416 3.55693 559.723 9.29372 554.26 18.7185L539.371 45.7634C537.596 49.1781 536.64 54.0954 536.64 60.7883V82.233C536.64 88.3796 539.235 93.1602 542.65 94.9359C546.337 96.7116 548.25 97.2579 550.299 97.3945H501.536C503.311 97.3945 505.634 96.8482 508.912 95.0725C512.326 93.2968 514.922 88.7893 514.922 82.7793L515.058 64.6128C515.058 57.9199 513.692 52.3197 511.097 48.0854L492.111 16.9428C485.555 6.42533 477.359 1.78125 473.125 1.78125L521.751 1.91784C513.966 2.05444 509.868 9.29372 514.102 17.0794L529.673 43.7145C532.815 49.3147 535.957 49.0415 539.235 42.895L552.484 19.1282C557.538 9.97667 554.533 3.01056 544.152 1.78125Z" fill="#A12256" fill-opacity="0.2"/>
<path d="M466.365 6.15297L466.502 31.9686C464.18 26.3683 459.536 20.495 452.843 14.3484C447.925 9.9775 443.418 6.69934 436.998 4.10412C430.578 1.37232 425.388 1.64549 419.378 4.37729C414.051 7.51887 412.412 13.3923 414.051 19.9486C416.236 28.144 423.066 32.7881 437.271 36.0663C466.775 43.0324 476.883 55.0523 472.921 76.3604C469.507 94.6635 452.706 100.264 436.725 99.9906C420.744 99.7174 407.631 96.4392 397.66 90.0195V57.7841C401.348 65.5698 406.675 73.0823 413.368 80.0484C420.198 87.0145 427.437 91.7951 435.222 94.1172C447.242 97.6685 460.901 97.3953 462.404 86.1949C463.087 80.8679 461.175 76.2238 456.667 71.9895C452.296 67.7552 443.828 63.9307 431.261 60.5159C406.675 53.9596 398.343 42.8958 399.982 25.2756C400.802 16.6704 404.626 10.3873 411.592 6.15297C418.558 1.91866 427.164 -0.130186 437.545 0.00640253C442.872 0.142999 447.789 0.689362 452.569 1.64549C457.35 2.60163 460.902 3.69434 463.087 4.65048L466.365 6.15297Z" fill="#A12256" fill-opacity="0.2"/>
<path d="M298.167 1.78125H381.214L385.585 29.0993C380.804 21.86 376.433 16.533 372.472 13.1183C364.96 6.8351 358.13 3.69352 351.847 3.69352H351.027V79.6378C351.027 86.1941 353.623 91.2479 356.354 93.57C357.72 94.6627 359.359 95.4823 361.135 96.1652C364.96 97.3945 366.189 97.3945 367.691 97.3945H312.645C314.148 97.3945 315.377 97.3945 319.065 96.1652C323.846 94.5261 329.173 90.0186 329.173 79.6378V3.69352H327.944C322.207 3.69352 315.241 7.10828 307.045 13.8012C304.996 15.4403 302.811 17.6257 300.489 20.221C298.167 22.8162 296.255 25.1382 294.889 26.9139L292.84 29.6457L298.167 1.78125Z" fill="#A12256" fill-opacity="0.2"/>
<path d="M275.486 6.15297L275.623 31.9686C273.301 26.3683 268.657 20.495 261.964 14.3484C257.046 9.9775 252.539 6.69934 246.119 4.10412C239.7 1.37232 234.509 1.64549 228.499 4.37729C223.172 7.51887 221.533 13.3923 223.172 19.9486C225.358 28.144 232.187 32.7881 246.392 36.0663C275.896 43.0324 286.004 55.0523 282.043 76.3604C278.628 94.6635 261.827 100.264 245.846 99.9906C229.865 99.7174 216.752 96.4392 206.781 90.0195V57.7841C210.469 65.5698 215.796 73.0823 222.489 80.0484C229.319 87.0145 236.558 91.7951 244.344 94.1172C256.364 97.6685 270.023 97.3953 271.525 86.1949C272.208 80.8679 270.296 76.2238 265.788 71.9895C261.417 67.7552 252.949 63.9307 240.382 60.5159C215.796 53.9596 207.464 42.8958 209.103 25.2756C209.923 16.6704 213.747 10.3873 220.713 6.15297C227.68 1.91866 236.285 -0.130186 246.666 0.00640253C251.993 0.142999 256.91 0.689362 261.691 1.64549C266.471 2.60163 270.023 3.69434 272.208 4.65048L275.486 6.15297Z" fill="#A12256" fill-opacity="0.2"/>
<path d="M181.247 53.4121V22.9525C181.247 14.2107 178.242 7.79095 174.007 5.19573C170.046 2.60052 167.451 1.91756 165.266 1.78097H197.911C195.998 2.05416 183.022 3.69324 183.022 24.3184V55.1878C183.022 58.0562 183.022 60.3782 182.886 62.1539C182.886 63.9296 182.613 66.5248 182.203 69.9396C181.793 73.3543 181.247 76.2227 180.427 78.5448C178.925 83.0523 175.783 89.7452 171.276 93.1599C166.905 96.5747 159.665 99.4431 150.924 99.4431C136.308 99.4431 125.928 95.7552 120.054 88.2427C114.181 80.7302 111.312 69.2566 111.312 53.9585V19.5377C111.312 12.9814 108.99 7.92754 106.668 5.7421C102.434 1.91756 98.0632 1.64438 96.6973 1.78097H149.285C147.509 1.78097 146.28 1.78097 142.865 3.01028C138.767 4.64937 134.123 9.15685 134.123 19.5377V59.1489C134.123 83.3254 143.275 94.799 159.802 93.7063C175.1 92.6136 181.247 80.3204 181.247 53.4121Z" fill="#A12256" fill-opacity="0.2"/>
<path d="M49.3091 96.1652H50.5384C57.6411 96.1652 65.8366 92.3407 74.9881 84.555C84.1397 76.7694 90.1496 69.6667 92.7449 63.3835L85.9153 97.3945H0C1.50249 97.3945 2.59522 97.3945 5.87339 96.1652C10.3809 94.5261 15.1615 90.0186 15.1615 79.6378V18.1721C15.1615 10.6596 12.4297 5.60578 8.60519 3.8301C4.91725 2.05444 3.00499 1.78125 1.22931 1.78125H50.8116C49.5823 1.78125 48.353 1.78125 45.2114 3.01056C41.2503 4.37647 36.7428 8.61077 36.7428 18.1721V80.0475C36.7428 90.8382 40.9771 96.1652 49.3091 96.1652Z" fill="#A12256" fill-opacity="0.2"/>
<path d="M544.152 291.781H574.475C566.416 293.557 559.723 299.294 554.26 308.718L539.371 335.763C537.596 339.178 536.64 344.095 536.64 350.788V372.233C536.64 378.38 539.235 383.16 542.65 384.936C546.337 386.712 548.25 387.258 550.299 387.395H501.536C503.311 387.395 505.634 386.848 508.912 385.072C512.326 383.297 514.922 378.789 514.922 372.779L515.058 354.613C515.058 347.92 513.692 342.32 511.097 338.085L492.111 306.943C485.555 296.425 477.359 291.781 473.125 291.781L521.751 291.918C513.966 292.054 509.868 299.294 514.102 307.079L529.673 333.715C532.815 339.315 535.957 339.042 539.235 332.895L552.484 309.128C557.538 299.977 554.533 293.011 544.152 291.781Z" fill="#A12256" fill-opacity="0.2"/>
<path d="M466.365 296.153L466.502 321.969C464.18 316.368 459.536 310.495 452.843 304.348C447.925 299.978 443.418 296.699 436.998 294.104C430.578 291.372 425.388 291.645 419.378 294.377C414.051 297.519 412.412 303.392 414.051 309.949C416.236 318.144 423.066 322.788 437.271 326.066C466.775 333.032 476.883 345.052 472.921 366.36C469.507 384.664 452.706 390.264 436.725 389.991C420.744 389.717 407.631 386.439 397.66 380.019V347.784C401.348 355.57 406.675 363.082 413.368 370.048C420.198 377.014 427.437 381.795 435.222 384.117C447.242 387.669 460.901 387.395 462.404 376.195C463.087 370.868 461.175 366.224 456.667 361.99C452.296 357.755 443.828 353.931 431.261 350.516C406.675 343.96 398.343 332.896 399.982 315.276C400.802 306.67 404.626 300.387 411.592 296.153C418.558 291.919 427.164 289.87 437.545 290.006C442.872 290.143 447.789 290.689 452.569 291.645C457.35 292.602 460.902 293.694 463.087 294.65L466.365 296.153Z" fill="#A12256" fill-opacity="0.2"/>
<path d="M298.167 291.781H381.214L385.585 319.099C380.804 311.86 376.433 306.533 372.472 303.118C364.96 296.835 358.13 293.694 351.847 293.694H351.027V369.638C351.027 376.194 353.623 381.248 356.354 383.57C357.72 384.663 359.359 385.482 361.135 386.165C364.96 387.395 366.189 387.395 367.691 387.395H312.645C314.148 387.395 315.377 387.395 319.065 386.165C323.846 384.526 329.173 380.019 329.173 369.638V293.694H327.944C322.207 293.694 315.241 297.108 307.045 303.801C304.996 305.44 302.811 307.626 300.489 310.221C298.167 312.816 296.255 315.138 294.889 316.914L292.84 319.646L298.167 291.781Z" fill="#A12256" fill-opacity="0.2"/>
<path d="M275.486 296.153L275.623 321.969C273.301 316.368 268.657 310.495 261.964 304.348C257.046 299.978 252.539 296.699 246.119 294.104C239.7 291.372 234.509 291.645 228.499 294.377C223.172 297.519 221.533 303.392 223.172 309.949C225.358 318.144 232.187 322.788 246.392 326.066C275.896 333.032 286.004 345.052 282.043 366.36C278.628 384.664 261.827 390.264 245.846 389.991C229.865 389.717 216.752 386.439 206.781 380.019V347.784C210.469 355.57 215.796 363.082 222.489 370.048C229.319 377.014 236.558 381.795 244.344 384.117C256.364 387.669 270.023 387.395 271.525 376.195C272.208 370.868 270.296 366.224 265.788 361.99C261.417 357.755 252.949 353.931 240.382 350.516C215.796 343.96 207.464 332.896 209.103 315.276C209.923 306.67 213.747 300.387 220.713 296.153C227.68 291.919 236.285 289.87 246.666 290.006C251.993 290.143 256.91 290.689 261.691 291.645C266.471 292.602 270.023 293.694 272.208 294.65L275.486 296.153Z" fill="#A12256" fill-opacity="0.2"/>
<path d="M181.247 343.412V312.952C181.247 304.211 178.242 297.791 174.007 295.196C170.046 292.601 167.451 291.918 165.266 291.781H197.911C195.998 292.054 183.022 293.693 183.022 314.318V345.188C183.022 348.056 183.022 350.378 182.886 352.154C182.886 353.93 182.613 356.525 182.203 359.94C181.793 363.354 181.247 366.223 180.427 368.545C178.925 373.052 175.783 379.745 171.276 383.16C166.905 386.575 159.665 389.443 150.924 389.443C136.308 389.443 125.928 385.755 120.054 378.243C114.181 370.73 111.312 359.257 111.312 343.959V309.538C111.312 302.981 108.99 297.928 106.668 295.742C102.434 291.918 98.0632 291.644 96.6973 291.781H149.285C147.509 291.781 146.28 291.781 142.865 293.01C138.767 294.649 134.123 299.157 134.123 309.538V349.149C134.123 373.325 143.275 384.799 159.802 383.706C175.1 382.614 181.247 370.32 181.247 343.412Z" fill="#A12256" fill-opacity="0.2"/>
<path d="M49.3091 386.165H50.5384C57.6411 386.165 65.8366 382.341 74.9881 374.555C84.1397 366.769 90.1496 359.667 92.7449 353.384L85.9153 387.395H0C1.50249 387.395 2.59522 387.395 5.87339 386.165C10.3809 384.526 15.1615 380.019 15.1615 369.638V308.172C15.1615 300.66 12.4297 295.606 8.60519 293.83C4.91725 292.054 3.00499 291.781 1.22931 291.781H50.8116C49.5823 291.781 48.353 291.781 45.2114 293.011C41.2503 294.376 36.7428 298.611 36.7428 308.172V370.048C36.7428 380.838 40.9771 386.165 49.3091 386.165Z" fill="#A12256" fill-opacity="0.2"/>
<path d="M544.152 581.781H574.475C566.416 583.557 559.723 589.294 554.26 598.718L539.371 625.763C537.596 629.178 536.64 634.095 536.64 640.788V662.233C536.64 668.38 539.235 673.16 542.65 674.936C546.337 676.712 548.25 677.258 550.299 677.395H501.536C503.311 677.395 505.634 676.848 508.912 675.072C512.326 673.297 514.922 668.789 514.922 662.779L515.058 644.613C515.058 637.92 513.692 632.32 511.097 628.085L492.111 596.943C485.555 586.425 477.359 581.781 473.125 581.781L521.751 581.918C513.966 582.054 509.868 589.294 514.102 597.079L529.673 623.715C532.815 629.315 535.957 629.042 539.235 622.895L552.484 599.128C557.538 589.977 554.533 583.011 544.152 581.781Z" fill="#A12256" fill-opacity="0.2"/>
<path d="M466.365 586.153L466.502 611.969C464.18 606.368 459.536 600.495 452.843 594.348C447.925 589.978 443.418 586.699 436.998 584.104C430.578 581.372 425.388 581.645 419.378 584.377C414.051 587.519 412.412 593.392 414.051 599.949C416.236 608.144 423.066 612.788 437.271 616.066C466.775 623.032 476.883 635.052 472.921 656.36C469.507 674.664 452.706 680.264 436.725 679.991C420.744 679.717 407.631 676.439 397.66 670.019V637.784C401.348 645.57 406.675 653.082 413.368 660.048C420.198 667.014 427.437 671.795 435.222 674.117C447.242 677.669 460.901 677.395 462.404 666.195C463.087 660.868 461.175 656.224 456.667 651.99C452.296 647.755 443.828 643.931 431.261 640.516C406.675 633.96 398.343 622.896 399.982 605.276C400.802 596.67 404.626 590.387 411.592 586.153C418.558 581.919 427.164 579.87 437.545 580.006C442.872 580.143 447.789 580.689 452.569 581.645C457.35 582.602 460.902 583.694 463.087 584.65L466.365 586.153Z" fill="#A12256" fill-opacity="0.2"/>
<path d="M298.167 581.781H381.214L385.585 609.099C380.804 601.86 376.433 596.533 372.472 593.118C364.96 586.835 358.13 583.694 351.847 583.694H351.027V659.638C351.027 666.194 353.623 671.248 356.354 673.57C357.72 674.663 359.359 675.482 361.135 676.165C364.96 677.395 366.189 677.395 367.691 677.395H312.645C314.148 677.395 315.377 677.395 319.065 676.165C323.846 674.526 329.173 670.019 329.173 659.638V583.694H327.944C322.207 583.694 315.241 587.108 307.045 593.801C304.996 595.44 302.811 597.626 300.489 600.221C298.167 602.816 296.255 605.138 294.889 606.914L292.84 609.646L298.167 581.781Z" fill="#A12256" fill-opacity="0.2"/>
<path d="M275.486 586.153L275.623 611.969C273.301 606.368 268.657 600.495 261.964 594.348C257.046 589.978 252.539 586.699 246.119 584.104C239.7 581.372 234.509 581.645 228.499 584.377C223.172 587.519 221.533 593.392 223.172 599.949C225.358 608.144 232.187 612.788 246.392 616.066C275.896 623.032 286.004 635.052 282.043 656.36C278.628 674.664 261.827 680.264 245.846 679.991C229.865 679.717 216.752 676.439 206.781 670.019V637.784C210.469 645.57 215.796 653.082 222.489 660.048C229.319 667.014 236.558 671.795 244.344 674.117C256.364 677.669 270.023 677.395 271.525 666.195C272.208 660.868 270.296 656.224 265.788 651.99C261.417 647.755 252.949 643.931 240.382 640.516C215.796 633.96 207.464 622.896 209.103 605.276C209.923 596.67 213.747 590.387 220.713 586.153C227.68 581.919 236.285 579.87 246.666 580.006C251.993 580.143 256.91 580.689 261.691 581.645C266.471 582.602 270.023 583.694 272.208 584.65L275.486 586.153Z" fill="#A12256" fill-opacity="0.2"/>
<path d="M181.247 633.412V602.952C181.247 594.211 178.242 587.791 174.007 585.196C170.046 582.601 167.451 581.918 165.266 581.781H197.911C195.998 582.054 183.022 583.693 183.022 604.318V635.188C183.022 638.056 183.022 640.378 182.886 642.154C182.886 643.93 182.613 646.525 182.203 649.94C181.793 653.354 181.247 656.223 180.427 658.545C178.925 663.052 175.783 669.745 171.276 673.16C166.905 676.575 159.665 679.443 150.924 679.443C136.308 679.443 125.928 675.755 120.054 668.243C114.181 660.73 111.312 649.257 111.312 633.959V599.538C111.312 592.981 108.99 587.928 106.668 585.742C102.434 581.918 98.0632 581.644 96.6973 581.781H149.285C147.509 581.781 146.28 581.781 142.865 583.01C138.767 584.649 134.123 589.157 134.123 599.538V639.149C134.123 663.325 143.275 674.799 159.802 673.706C175.1 672.614 181.247 660.32 181.247 633.412Z" fill="#A12256" fill-opacity="0.2"/>
<path d="M49.3091 676.165H50.5384C57.6411 676.165 65.8366 672.341 74.9881 664.555C84.1397 656.769 90.1496 649.667 92.7449 643.384L85.9153 677.395H0C1.50249 677.395 2.59522 677.395 5.87339 676.165C10.3809 674.526 15.1615 670.019 15.1615 659.638V598.172C15.1615 590.66 12.4297 585.606 8.60519 583.83C4.91725 582.054 3.00499 581.781 1.22931 581.781H50.8116C49.5823 581.781 48.353 581.781 45.2114 583.011C41.2503 584.376 36.7428 588.611 36.7428 598.172V660.048C36.7428 670.838 40.9771 676.165 49.3091 676.165Z" fill="#A12256" fill-opacity="0.2"/>
<path d="M544.152 871.781H574.475C566.416 873.557 559.723 879.294 554.26 888.718L539.371 915.763C537.596 919.178 536.64 924.095 536.64 930.788V952.233C536.64 958.38 539.235 963.16 542.65 964.936C546.337 966.712 548.25 967.258 550.299 967.395H501.536C503.311 967.395 505.634 966.848 508.912 965.072C512.326 963.297 514.922 958.789 514.922 952.779L515.058 934.613C515.058 927.92 513.692 922.32 511.097 918.085L492.111 886.943C485.555 876.425 477.359 871.781 473.125 871.781L521.751 871.918C513.966 872.054 509.868 879.294 514.102 887.079L529.673 913.715C532.815 919.315 535.957 919.042 539.235 912.895L552.484 889.128C557.538 879.977 554.533 873.011 544.152 871.781Z" fill="#A12256" fill-opacity="0.2"/>
<path d="M466.365 876.153L466.502 901.969C464.18 896.368 459.536 890.495 452.843 884.348C447.925 879.978 443.418 876.699 436.998 874.104C430.578 871.372 425.388 871.645 419.378 874.377C414.051 877.519 412.412 883.392 414.051 889.949C416.236 898.144 423.066 902.788 437.271 906.066C466.775 913.032 476.883 925.052 472.921 946.36C469.507 964.664 452.706 970.264 436.725 969.991C420.744 969.717 407.631 966.439 397.66 960.019V927.784C401.348 935.57 406.675 943.082 413.368 950.048C420.198 957.014 427.437 961.795 435.222 964.117C447.242 967.669 460.901 967.395 462.404 956.195C463.087 950.868 461.175 946.224 456.667 941.99C452.296 937.755 443.828 933.931 431.261 930.516C406.675 923.96 398.343 912.896 399.982 895.276C400.802 886.67 404.626 880.387 411.592 876.153C418.558 871.919 427.164 869.87 437.545 870.006C442.872 870.143 447.789 870.689 452.569 871.645C457.35 872.602 460.902 873.694 463.087 874.65L466.365 876.153Z" fill="#A12256" fill-opacity="0.2"/>
<path d="M298.167 871.781H381.214L385.585 899.099C380.804 891.86 376.433 886.533 372.472 883.118C364.96 876.835 358.13 873.694 351.847 873.694H351.027V949.638C351.027 956.194 353.623 961.248 356.354 963.57C357.72 964.663 359.359 965.482 361.135 966.165C364.96 967.395 366.189 967.395 367.691 967.395H312.645C314.148 967.395 315.377 967.395 319.065 966.165C323.846 964.526 329.173 960.019 329.173 949.638V873.694H327.944C322.207 873.694 315.241 877.108 307.045 883.801C304.996 885.44 302.811 887.626 300.489 890.221C298.167 892.816 296.255 895.138 294.889 896.914L292.84 899.646L298.167 871.781Z" fill="#A12256" fill-opacity="0.2"/>
<path d="M275.486 876.153L275.623 901.969C273.301 896.368 268.657 890.495 261.964 884.348C257.046 879.978 252.539 876.699 246.119 874.104C239.7 871.372 234.509 871.645 228.499 874.377C223.172 877.519 221.533 883.392 223.172 889.949C225.358 898.144 232.187 902.788 246.392 906.066C275.896 913.032 286.004 925.052 282.043 946.36C278.628 964.664 261.827 970.264 245.846 969.991C229.865 969.717 216.752 966.439 206.781 960.019V927.784C210.469 935.57 215.796 943.082 222.489 950.048C229.319 957.014 236.558 961.795 244.344 964.117C256.364 967.669 270.023 967.395 271.525 956.195C272.208 950.868 270.296 946.224 265.788 941.99C261.417 937.755 252.949 933.931 240.382 930.516C215.796 923.96 207.464 912.896 209.103 895.276C209.923 886.67 213.747 880.387 220.713 876.153C227.68 871.919 236.285 869.87 246.666 870.006C251.993 870.143 256.91 870.689 261.691 871.645C266.471 872.602 270.023 873.694 272.208 874.65L275.486 876.153Z" fill="#A12256" fill-opacity="0.2"/>
<path d="M181.247 923.412V892.952C181.247 884.211 178.242 877.791 174.007 875.196C170.046 872.601 167.451 871.918 165.266 871.781H197.911C195.998 872.054 183.022 873.693 183.022 894.318V925.188C183.022 928.056 183.022 930.378 182.886 932.154C182.886 933.93 182.613 936.525 182.203 939.94C181.793 943.354 181.247 946.223 180.427 948.545C178.925 953.052 175.783 959.745 171.276 963.16C166.905 966.575 159.665 969.443 150.924 969.443C136.308 969.443 125.928 965.755 120.054 958.243C114.181 950.73 111.312 939.257 111.312 923.959V889.538C111.312 882.981 108.99 877.928 106.668 875.742C102.434 871.918 98.0632 871.644 96.6973 871.781H149.285C147.509 871.781 146.28 871.781 142.865 873.01C138.767 874.649 134.123 879.157 134.123 889.538V929.149C134.123 953.325 143.275 964.799 159.802 963.706C175.1 962.614 181.247 950.32 181.247 923.412Z" fill="#A12256" fill-opacity="0.2"/>
<path d="M49.3091 966.165H50.5384C57.6411 966.165 65.8366 962.341 74.9881 954.555C84.1397 946.769 90.1496 939.667 92.7449 933.384L85.9153 967.395H0C1.50249 967.395 2.59522 967.395 5.87339 966.165C10.3809 964.526 15.1615 960.019 15.1615 949.638V888.172C15.1615 880.66 12.4297 875.606 8.60519 873.83C4.91725 872.054 3.00499 871.781 1.22931 871.781H50.8116C49.5823 871.781 48.353 871.781 45.2114 873.011C41.2503 874.376 36.7428 878.611 36.7428 888.172V950.048C36.7428 960.838 40.9771 966.165 49.3091 966.165Z" fill="#A12256" fill-opacity="0.2"/>
<path d="M544.152 1161.78H574.475C566.416 1163.56 559.723 1169.29 554.26 1178.72L539.371 1205.76C537.596 1209.18 536.64 1214.1 536.64 1220.79V1242.23C536.64 1248.38 539.235 1253.16 542.65 1254.94C546.337 1256.71 548.25 1257.26 550.299 1257.39H501.536C503.311 1257.39 505.634 1256.85 508.912 1255.07C512.326 1253.3 514.922 1248.79 514.922 1242.78L515.058 1224.61C515.058 1217.92 513.692 1212.32 511.097 1208.09L492.111 1176.94C485.555 1166.43 477.359 1161.78 473.125 1161.78L521.751 1161.92C513.966 1162.05 509.868 1169.29 514.102 1177.08L529.673 1203.71C532.815 1209.31 535.957 1209.04 539.235 1202.89L552.484 1179.13C557.538 1169.98 554.533 1163.01 544.152 1161.78Z" fill="#A12256" fill-opacity="0.2"/>
<path d="M466.365 1166.15L466.502 1191.97C464.18 1186.37 459.536 1180.49 452.843 1174.35C447.925 1169.98 443.418 1166.7 436.998 1164.1C430.578 1161.37 425.388 1161.65 419.378 1164.38C414.051 1167.52 412.412 1173.39 414.051 1179.95C416.236 1188.14 423.066 1192.79 437.271 1196.07C466.775 1203.03 476.883 1215.05 472.921 1236.36C469.507 1254.66 452.706 1260.26 436.725 1259.99C420.744 1259.72 407.631 1256.44 397.66 1250.02V1217.78C401.348 1225.57 406.675 1233.08 413.368 1240.05C420.198 1247.01 427.437 1251.8 435.222 1254.12C447.242 1257.67 460.901 1257.4 462.404 1246.19C463.087 1240.87 461.175 1236.22 456.667 1231.99C452.296 1227.76 443.828 1223.93 431.261 1220.52C406.675 1213.96 398.343 1202.9 399.982 1185.28C400.802 1176.67 404.626 1170.39 411.592 1166.15C418.558 1161.92 427.164 1159.87 437.545 1160.01C442.872 1160.14 447.789 1160.69 452.569 1161.65C457.35 1162.6 460.902 1163.69 463.087 1164.65L466.365 1166.15Z" fill="#A12256" fill-opacity="0.2"/>
<path d="M298.167 1161.78H381.214L385.585 1189.1C380.804 1181.86 376.433 1176.53 372.472 1173.12C364.96 1166.84 358.13 1163.69 351.847 1163.69H351.027V1239.64C351.027 1246.19 353.623 1251.25 356.354 1253.57C357.72 1254.66 359.359 1255.48 361.135 1256.17C364.96 1257.39 366.189 1257.39 367.691 1257.39H312.645C314.148 1257.39 315.377 1257.39 319.065 1256.17C323.846 1254.53 329.173 1250.02 329.173 1239.64V1163.69H327.944C322.207 1163.69 315.241 1167.11 307.045 1173.8C304.996 1175.44 302.811 1177.63 300.489 1180.22C298.167 1182.82 296.255 1185.14 294.889 1186.91L292.84 1189.65L298.167 1161.78Z" fill="#A12256" fill-opacity="0.2"/>
<path d="M275.486 1166.15L275.623 1191.97C273.301 1186.37 268.657 1180.49 261.964 1174.35C257.046 1169.98 252.539 1166.7 246.119 1164.1C239.7 1161.37 234.509 1161.65 228.499 1164.38C223.172 1167.52 221.533 1173.39 223.172 1179.95C225.358 1188.14 232.187 1192.79 246.392 1196.07C275.896 1203.03 286.004 1215.05 282.043 1236.36C278.628 1254.66 261.827 1260.26 245.846 1259.99C229.865 1259.72 216.752 1256.44 206.781 1250.02V1217.78C210.469 1225.57 215.796 1233.08 222.489 1240.05C229.319 1247.01 236.558 1251.8 244.344 1254.12C256.364 1257.67 270.023 1257.4 271.525 1246.19C272.208 1240.87 270.296 1236.22 265.788 1231.99C261.417 1227.76 252.949 1223.93 240.382 1220.52C215.796 1213.96 207.464 1202.9 209.103 1185.28C209.923 1176.67 213.747 1170.39 220.713 1166.15C227.68 1161.92 236.285 1159.87 246.666 1160.01C251.993 1160.14 256.91 1160.69 261.691 1161.65C266.471 1162.6 270.023 1163.69 272.208 1164.65L275.486 1166.15Z" fill="#A12256" fill-opacity="0.2"/>
<path d="M181.247 1213.41V1182.95C181.247 1174.21 178.242 1167.79 174.007 1165.2C170.046 1162.6 167.451 1161.92 165.266 1161.78H197.911C195.998 1162.05 183.022 1163.69 183.022 1184.32V1215.19C183.022 1218.06 183.022 1220.38 182.886 1222.15C182.886 1223.93 182.613 1226.52 182.203 1229.94C181.793 1233.35 181.247 1236.22 180.427 1238.54C178.925 1243.05 175.783 1249.75 171.276 1253.16C166.905 1256.57 159.665 1259.44 150.924 1259.44C136.308 1259.44 125.928 1255.76 120.054 1248.24C114.181 1240.73 111.312 1229.26 111.312 1213.96V1179.54C111.312 1172.98 108.99 1167.93 106.668 1165.74C102.434 1161.92 98.0632 1161.64 96.6973 1161.78H149.285C147.509 1161.78 146.28 1161.78 142.865 1163.01C138.767 1164.65 134.123 1169.16 134.123 1179.54V1219.15C134.123 1243.33 143.275 1254.8 159.802 1253.71C175.1 1252.61 181.247 1240.32 181.247 1213.41Z" fill="#A12256" fill-opacity="0.2"/>
<path d="M49.3091 1256.17H50.5384C57.6411 1256.17 65.8366 1252.34 74.9881 1244.56C84.1397 1236.77 90.1496 1229.67 92.7449 1223.38L85.9153 1257.39H0C1.50249 1257.39 2.59522 1257.39 5.87339 1256.17C10.3809 1254.53 15.1615 1250.02 15.1615 1239.64V1178.17C15.1615 1170.66 12.4297 1165.61 8.60519 1163.83C4.91725 1162.05 3.00499 1161.78 1.22931 1161.78H50.8116C49.5823 1161.78 48.353 1161.78 45.2114 1163.01C41.2503 1164.38 36.7428 1168.61 36.7428 1178.17V1240.05C36.7428 1250.84 40.9771 1256.17 49.3091 1256.17Z" fill="#A12256" fill-opacity="0.2"/>
</svg>
