<svg width="654" height="1260" viewBox="0 0 654 1260" fill="none" xmlns="http://www.w3.org/2000/svg">
<path d="M623.677 146.763H653.675C645.702 148.519 639.081 154.195 633.676 163.519L618.947 190.274C617.19 193.652 616.245 198.517 616.245 205.138V226.353C616.245 232.434 618.812 237.163 622.19 238.92C625.839 240.676 627.73 241.217 629.757 241.352H581.517C583.273 241.352 585.571 240.812 588.814 239.055C592.192 237.298 594.759 232.839 594.759 226.893L594.894 208.921C594.894 202.3 593.543 196.76 590.976 192.571L572.193 161.762C565.707 151.357 557.599 146.763 553.41 146.763L601.516 146.898C593.813 147.033 589.76 154.195 593.948 161.897L609.353 188.247C612.461 193.787 615.569 193.517 618.812 187.436L631.919 163.924C636.919 154.87 633.946 147.979 623.677 146.763Z" fill="#55142E" fill-opacity="0.3"/>
<path d="M540.217 164.059V223.785C540.217 231.217 543.325 236.487 547.244 238.649C551.163 240.676 553.73 241.352 555.352 241.352H502.246C503.868 241.352 506.435 240.676 510.354 238.649C514.273 236.487 517.381 231.217 517.381 223.785V177.572C517.381 170.815 516.975 167.302 516.165 167.167C514.948 167.032 513.867 168.518 511.705 174.058L482.788 245L443.601 173.383C439.682 165.681 437.52 164.735 437.25 170.545V172.167L436.98 218.921C436.98 227.434 440.628 233.785 444.412 236.623C446.304 237.974 448.466 239.055 451.033 239.866C456.033 241.487 457.519 241.352 458.735 241.352H413.873C415.089 241.352 416.711 241.487 421.44 239.866C428.197 237.704 434.818 232.028 435.223 218.651V168.653C435.223 151.492 421.035 147.573 417.657 146.898L417.116 146.763H454.546L485.085 202.435C488.193 207.976 489.95 211.083 490.625 211.624C491.842 212.84 493.328 211.894 494.814 208.786C495.355 207.84 495.896 206.489 496.571 204.868L520.759 146.763H556.027C555.217 146.763 540.352 147.709 540.217 164.059Z" fill="#55142E" fill-opacity="0.3"/>
<path d="M361.856 145.546C377.395 145.546 389.692 151.627 396.583 160.95C403.61 170.274 406.988 181.76 406.853 194.192C406.448 218.785 390.367 242.973 357.667 242.568C342.127 242.432 329.29 235.541 322.128 225.812C314.966 216.083 311.183 204.462 311.588 193.111C311.723 178.922 316.588 167.437 325.912 158.653C335.371 149.87 347.397 145.411 361.856 145.546ZM381.584 190.949C379.963 178.382 376.314 167.842 370.774 159.059C365.234 150.275 358.613 146.627 351.181 147.843C345.1 148.789 340.776 153.518 337.938 161.761C335.235 170.004 334.695 180.409 336.452 193.111C338.208 205.678 341.857 216.488 347.127 225.541C352.532 234.595 358.748 239.46 365.909 240C373.071 240.676 378.071 236.487 380.638 227.704C383.341 218.785 383.611 206.488 381.584 190.949Z" fill="#55142E" fill-opacity="0.3"/>
<path d="M295.11 192.165C295.11 202.3 293.083 211.218 288.895 218.65C280.787 233.649 267.274 240.676 250.653 241.352H244.573H194.846C196.873 241.352 199.035 241.082 203.494 239.46C207.953 237.838 211.196 233.109 211.196 226.488V161.626C211.196 155.005 207.953 150.276 203.494 148.654C199.035 147.033 196.873 146.762 194.846 146.762H244.032C278.084 145.817 295.11 160.951 295.11 192.165ZM250.924 239.595C264.031 237.974 272.409 220.947 272.004 191.219C271.733 163.924 262.139 149.735 243.357 148.519C242.411 148.384 240.924 148.384 238.627 148.384C236.465 148.384 234.979 148.384 234.033 148.519V224.731C234.033 234.731 237.681 239.73 244.978 239.73C248.491 239.73 250.518 239.73 250.924 239.595Z" fill="#55142E" fill-opacity="0.3"/>
<path d="M141.483 145.546C157.022 145.546 169.319 151.627 176.21 160.95C183.237 170.274 186.615 181.76 186.48 194.192C186.075 218.785 169.994 242.973 137.294 242.568C121.754 242.432 108.917 235.541 101.755 225.812C94.5933 216.083 90.8097 204.462 91.2151 193.111C91.3502 178.922 96.2148 167.437 105.539 158.653C114.998 149.87 127.024 145.411 141.483 145.546ZM161.211 190.949C159.59 178.382 155.941 167.842 150.401 159.059C144.861 150.275 138.239 146.627 130.807 147.843C124.727 148.789 120.403 153.518 117.565 161.761C114.862 170.004 114.322 180.409 116.079 193.111C117.835 205.678 121.484 216.488 126.754 225.541C132.159 234.595 138.375 239.46 145.536 240C152.698 240.676 157.698 236.487 160.265 227.704C162.968 218.785 163.238 206.488 161.211 190.949Z" fill="#55142E" fill-opacity="0.3"/>
<path d="M67.9692 151.087L68.1043 176.626C65.8071 171.086 61.2128 165.275 54.5916 159.195C49.727 154.871 45.2677 151.628 38.9167 149.06C32.5658 146.358 27.4309 146.628 21.4853 149.33C16.2153 152.438 14.5938 158.249 16.2153 164.735C18.3774 172.843 25.1337 177.437 39.187 180.68C68.3746 187.572 78.374 199.463 74.4553 220.543C71.0771 238.65 54.4564 244.19 38.6465 243.92C22.8366 243.649 9.86431 240.406 0 234.055V202.165C3.64845 209.868 8.91842 217.3 15.5397 224.191C22.2961 231.083 29.4578 235.812 37.1601 238.109C49.0513 241.623 62.5641 241.352 64.0505 230.272C64.7261 225.002 62.8343 220.408 58.3751 216.219C54.051 212.03 45.6731 208.246 33.2414 204.868C8.91842 198.382 0.675638 187.436 2.29717 170.005C3.10794 161.492 6.89151 155.276 13.783 151.087C20.6745 146.898 29.1876 144.871 39.4573 145.006C44.7272 145.141 49.5918 145.682 54.3213 146.628C59.0508 147.574 62.5641 148.655 64.7261 149.601L67.9692 151.087Z" fill="#55142E" fill-opacity="0.3"/>
<path d="M623.677 436.763H653.675C645.702 438.519 639.081 444.195 633.676 453.519L618.947 480.274C617.19 483.652 616.245 488.517 616.245 495.138V516.353C616.245 522.434 618.812 527.163 622.19 528.92C625.839 530.676 627.73 531.217 629.757 531.352H581.517C583.273 531.352 585.571 530.812 588.814 529.055C592.192 527.298 594.759 522.839 594.759 516.893L594.894 498.921C594.894 492.3 593.543 486.76 590.976 482.571L572.193 451.762C565.707 441.357 557.599 436.763 553.41 436.763L601.516 436.898C593.813 437.033 589.76 444.195 593.948 451.897L609.353 478.247C612.461 483.787 615.569 483.517 618.812 477.436L631.919 453.924C636.919 444.87 633.946 437.979 623.677 436.763Z" fill="#55142E" fill-opacity="0.3"/>
<path d="M540.217 454.059V513.785C540.217 521.217 543.325 526.487 547.244 528.649C551.163 530.676 553.73 531.352 555.352 531.352H502.246C503.868 531.352 506.435 530.676 510.354 528.649C514.273 526.487 517.381 521.217 517.381 513.785V467.572C517.381 460.815 516.975 457.302 516.165 457.167C514.948 457.032 513.867 458.518 511.705 464.058L482.788 535L443.601 463.383C439.682 455.681 437.52 454.735 437.25 460.545V462.167L436.98 508.921C436.98 517.434 440.628 523.785 444.412 526.623C446.304 527.974 448.466 529.055 451.033 529.866C456.033 531.487 457.519 531.352 458.735 531.352H413.873C415.089 531.352 416.711 531.487 421.44 529.866C428.197 527.704 434.818 522.028 435.223 508.651V458.653C435.223 441.492 421.035 437.573 417.657 436.898L417.116 436.763H454.546L485.085 492.435C488.193 497.976 489.95 501.083 490.625 501.624C491.842 502.84 493.328 501.894 494.814 498.786C495.355 497.84 495.896 496.489 496.571 494.868L520.759 436.763H556.027C555.217 436.763 540.352 437.709 540.217 454.059Z" fill="#55142E" fill-opacity="0.3"/>
<path d="M361.856 435.546C377.395 435.546 389.692 441.627 396.583 450.95C403.61 460.274 406.988 471.76 406.853 484.192C406.448 508.785 390.367 532.973 357.667 532.568C342.127 532.432 329.29 525.541 322.128 515.812C314.966 506.083 311.183 494.462 311.588 483.111C311.723 468.922 316.588 457.437 325.912 448.653C335.371 439.87 347.397 435.411 361.856 435.546ZM381.584 480.949C379.963 468.382 376.314 457.842 370.774 449.059C365.234 440.275 358.613 436.627 351.181 437.843C345.1 438.789 340.776 443.518 337.938 451.761C335.235 460.004 334.695 470.409 336.452 483.111C338.208 495.678 341.857 506.488 347.127 515.541C352.532 524.595 358.748 529.46 365.909 530C373.071 530.676 378.071 526.487 380.638 517.704C383.341 508.785 383.611 496.488 381.584 480.949Z" fill="#55142E" fill-opacity="0.3"/>
<path d="M295.11 482.165C295.11 492.3 293.083 501.218 288.895 508.65C280.787 523.649 267.274 530.676 250.653 531.352H244.573H194.846C196.873 531.352 199.035 531.082 203.494 529.46C207.953 527.838 211.196 523.109 211.196 516.488V451.626C211.196 445.005 207.953 440.276 203.494 438.654C199.035 437.033 196.873 436.762 194.846 436.762H244.032C278.084 435.817 295.11 450.951 295.11 482.165ZM250.924 529.595C264.031 527.974 272.409 510.947 272.004 481.219C271.733 453.924 262.139 439.735 243.357 438.519C242.411 438.384 240.924 438.384 238.627 438.384C236.465 438.384 234.979 438.384 234.033 438.519V514.731C234.033 524.731 237.681 529.73 244.978 529.73C248.491 529.73 250.518 529.73 250.924 529.595Z" fill="#55142E" fill-opacity="0.3"/>
<path d="M141.483 435.546C157.022 435.546 169.319 441.627 176.21 450.95C183.237 460.274 186.615 471.76 186.48 484.192C186.075 508.785 169.994 532.973 137.294 532.568C121.754 532.432 108.917 525.541 101.755 515.812C94.5933 506.083 90.8097 494.462 91.2151 483.111C91.3502 468.922 96.2148 457.437 105.539 448.653C114.998 439.87 127.024 435.411 141.483 435.546ZM161.211 480.949C159.59 468.382 155.941 457.842 150.401 449.059C144.861 440.275 138.239 436.627 130.807 437.843C124.727 438.789 120.403 443.518 117.565 451.761C114.862 460.004 114.322 470.409 116.079 483.111C117.835 495.678 121.484 506.488 126.754 515.541C132.159 524.595 138.375 529.46 145.536 530C152.698 530.676 157.698 526.487 160.265 517.704C162.968 508.785 163.238 496.488 161.211 480.949Z" fill="#55142E" fill-opacity="0.3"/>
<path d="M67.9692 441.087L68.1043 466.626C65.8071 461.086 61.2128 455.275 54.5916 449.195C49.727 444.871 45.2677 441.628 38.9167 439.06C32.5658 436.358 27.4309 436.628 21.4853 439.33C16.2153 442.438 14.5938 448.249 16.2153 454.735C18.3774 462.843 25.1337 467.437 39.187 470.68C68.3746 477.572 78.374 489.463 74.4553 510.543C71.0771 528.65 54.4564 534.19 38.6465 533.92C22.8366 533.649 9.86431 530.406 0 524.055V492.165C3.64845 499.868 8.91842 507.3 15.5397 514.191C22.2961 521.083 29.4578 525.812 37.1601 528.109C49.0513 531.623 62.5641 531.352 64.0505 520.272C64.7261 515.002 62.8343 510.408 58.3751 506.219C54.051 502.03 45.6731 498.246 33.2414 494.868C8.91842 488.382 0.675638 477.436 2.29717 460.005C3.10794 451.492 6.89151 445.276 13.783 441.087C20.6745 436.898 29.1876 434.871 39.4573 435.006C44.7272 435.141 49.5918 435.682 54.3213 436.628C59.0508 437.574 62.5641 438.655 64.7261 439.601L67.9692 441.087Z" fill="#55142E" fill-opacity="0.3"/>
<path d="M623.677 726.763H653.675C645.702 728.519 639.081 734.195 633.676 743.519L618.947 770.274C617.19 773.652 616.245 778.517 616.245 785.138V806.353C616.245 812.434 618.812 817.163 622.19 818.92C625.839 820.676 627.73 821.217 629.757 821.352H581.517C583.273 821.352 585.571 820.812 588.814 819.055C592.192 817.298 594.759 812.839 594.759 806.893L594.894 788.921C594.894 782.3 593.543 776.76 590.976 772.571L572.193 741.762C565.707 731.357 557.599 726.763 553.41 726.763L601.516 726.898C593.813 727.033 589.76 734.195 593.948 741.897L609.353 768.247C612.461 773.787 615.569 773.517 618.812 767.436L631.919 743.924C636.919 734.87 633.946 727.979 623.677 726.763Z" fill="#55142E" fill-opacity="0.3"/>
<path d="M540.217 744.059V803.785C540.217 811.217 543.325 816.487 547.244 818.649C551.163 820.676 553.73 821.352 555.352 821.352H502.246C503.868 821.352 506.435 820.676 510.354 818.649C514.273 816.487 517.381 811.217 517.381 803.785V757.572C517.381 750.815 516.975 747.302 516.165 747.167C514.948 747.032 513.867 748.518 511.705 754.058L482.788 825L443.601 753.383C439.682 745.681 437.52 744.735 437.25 750.545V752.167L436.98 798.921C436.98 807.434 440.628 813.785 444.412 816.623C446.304 817.974 448.466 819.055 451.033 819.866C456.033 821.487 457.519 821.352 458.735 821.352H413.873C415.089 821.352 416.711 821.487 421.44 819.866C428.197 817.704 434.818 812.028 435.223 798.651V748.653C435.223 731.492 421.035 727.573 417.657 726.898L417.116 726.763H454.546L485.085 782.435C488.193 787.976 489.95 791.083 490.625 791.624C491.842 792.84 493.328 791.894 494.814 788.786C495.355 787.84 495.896 786.489 496.571 784.868L520.759 726.763H556.027C555.217 726.763 540.352 727.709 540.217 744.059Z" fill="#55142E" fill-opacity="0.3"/>
<path d="M361.856 725.546C377.395 725.546 389.692 731.627 396.583 740.95C403.61 750.274 406.988 761.76 406.853 774.192C406.448 798.785 390.367 822.973 357.667 822.568C342.127 822.432 329.29 815.541 322.128 805.812C314.966 796.083 311.183 784.462 311.588 773.111C311.723 758.922 316.588 747.437 325.912 738.653C335.371 729.87 347.397 725.411 361.856 725.546ZM381.584 770.949C379.963 758.382 376.314 747.842 370.774 739.059C365.234 730.275 358.613 726.627 351.181 727.843C345.1 728.789 340.776 733.518 337.938 741.761C335.235 750.004 334.695 760.409 336.452 773.111C338.208 785.678 341.857 796.488 347.127 805.541C352.532 814.595 358.748 819.46 365.909 820C373.071 820.676 378.071 816.487 380.638 807.704C383.341 798.785 383.611 786.488 381.584 770.949Z" fill="#55142E" fill-opacity="0.3"/>
<path d="M295.11 772.165C295.11 782.3 293.083 791.218 288.895 798.65C280.787 813.649 267.274 820.676 250.653 821.352H244.573H194.846C196.873 821.352 199.035 821.082 203.494 819.46C207.953 817.838 211.196 813.109 211.196 806.488V741.626C211.196 735.005 207.953 730.276 203.494 728.654C199.035 727.033 196.873 726.762 194.846 726.762H244.032C278.084 725.817 295.11 740.951 295.11 772.165ZM250.924 819.595C264.031 817.974 272.409 800.947 272.004 771.219C271.733 743.924 262.139 729.735 243.357 728.519C242.411 728.384 240.924 728.384 238.627 728.384C236.465 728.384 234.979 728.384 234.033 728.519V804.731C234.033 814.731 237.681 819.73 244.978 819.73C248.491 819.73 250.518 819.73 250.924 819.595Z" fill="#55142E" fill-opacity="0.3"/>
<path d="M141.483 725.546C157.022 725.546 169.319 731.627 176.21 740.95C183.237 750.274 186.615 761.76 186.48 774.192C186.075 798.785 169.994 822.973 137.294 822.568C121.754 822.432 108.917 815.541 101.755 805.812C94.5933 796.083 90.8097 784.462 91.2151 773.111C91.3502 758.922 96.2148 747.437 105.539 738.653C114.998 729.87 127.024 725.411 141.483 725.546ZM161.211 770.949C159.59 758.382 155.941 747.842 150.401 739.059C144.861 730.275 138.239 726.627 130.807 727.843C124.727 728.789 120.403 733.518 117.565 741.761C114.862 750.004 114.322 760.409 116.079 773.111C117.835 785.678 121.484 796.488 126.754 805.541C132.159 814.595 138.375 819.46 145.536 820C152.698 820.676 157.698 816.487 160.265 807.704C162.968 798.785 163.238 786.488 161.211 770.949Z" fill="#55142E" fill-opacity="0.3"/>
<path d="M67.9692 731.087L68.1043 756.626C65.8071 751.086 61.2128 745.275 54.5916 739.195C49.727 734.871 45.2677 731.628 38.9167 729.06C32.5658 726.358 27.4309 726.628 21.4853 729.33C16.2153 732.438 14.5938 738.249 16.2153 744.735C18.3774 752.843 25.1337 757.437 39.187 760.68C68.3746 767.572 78.374 779.463 74.4553 800.543C71.0771 818.65 54.4564 824.19 38.6465 823.92C22.8366 823.649 9.86431 820.406 0 814.055V782.165C3.64845 789.868 8.91842 797.3 15.5397 804.191C22.2961 811.083 29.4578 815.812 37.1601 818.109C49.0513 821.623 62.5641 821.352 64.0505 810.272C64.7261 805.002 62.8343 800.408 58.3751 796.219C54.051 792.03 45.6731 788.246 33.2414 784.868C8.91842 778.382 0.675638 767.436 2.29717 750.005C3.10794 741.492 6.89151 735.276 13.783 731.087C20.6745 726.898 29.1876 724.871 39.4573 725.006C44.7272 725.141 49.5918 725.682 54.3213 726.628C59.0508 727.574 62.5641 728.655 64.7261 729.601L67.9692 731.087Z" fill="#55142E" fill-opacity="0.3"/>
<path d="M623.677 1016.76H653.675C645.702 1018.52 639.081 1024.19 633.676 1033.52L618.947 1060.27C617.19 1063.65 616.245 1068.52 616.245 1075.14V1096.35C616.245 1102.43 618.812 1107.16 622.19 1108.92C625.839 1110.68 627.73 1111.22 629.757 1111.35H581.517C583.273 1111.35 585.571 1110.81 588.814 1109.05C592.192 1107.3 594.759 1102.84 594.759 1096.89L594.894 1078.92C594.894 1072.3 593.543 1066.76 590.976 1062.57L572.193 1031.76C565.707 1021.36 557.599 1016.76 553.41 1016.76L601.516 1016.9C593.813 1017.03 589.76 1024.19 593.948 1031.9L609.353 1058.25C612.461 1063.79 615.569 1063.52 618.812 1057.44L631.919 1033.92C636.919 1024.87 633.946 1017.98 623.677 1016.76Z" fill="#55142E" fill-opacity="0.3"/>
<path d="M540.217 1034.06V1093.79C540.217 1101.22 543.325 1106.49 547.244 1108.65C551.163 1110.68 553.73 1111.35 555.352 1111.35H502.246C503.868 1111.35 506.435 1110.68 510.354 1108.65C514.273 1106.49 517.381 1101.22 517.381 1093.79V1047.57C517.381 1040.82 516.975 1037.3 516.165 1037.17C514.948 1037.03 513.867 1038.52 511.705 1044.06L482.788 1115L443.601 1043.38C439.682 1035.68 437.52 1034.73 437.25 1040.55V1042.17L436.98 1088.92C436.98 1097.43 440.628 1103.78 444.412 1106.62C446.304 1107.97 448.466 1109.05 451.033 1109.87C456.033 1111.49 457.519 1111.35 458.735 1111.35H413.873C415.089 1111.35 416.711 1111.49 421.44 1109.87C428.197 1107.7 434.818 1102.03 435.223 1088.65V1038.65C435.223 1021.49 421.035 1017.57 417.657 1016.9L417.116 1016.76H454.546L485.085 1072.44C488.193 1077.98 489.95 1081.08 490.625 1081.62C491.842 1082.84 493.328 1081.89 494.814 1078.79C495.355 1077.84 495.896 1076.49 496.571 1074.87L520.759 1016.76H556.027C555.217 1016.76 540.352 1017.71 540.217 1034.06Z" fill="#55142E" fill-opacity="0.3"/>
<path d="M361.856 1015.55C377.395 1015.55 389.692 1021.63 396.583 1030.95C403.61 1040.27 406.988 1051.76 406.853 1064.19C406.448 1088.79 390.367 1112.97 357.667 1112.57C342.127 1112.43 329.29 1105.54 322.128 1095.81C314.966 1086.08 311.183 1074.46 311.588 1063.11C311.723 1048.92 316.588 1037.44 325.912 1028.65C335.371 1019.87 347.397 1015.41 361.856 1015.55ZM381.584 1060.95C379.963 1048.38 376.314 1037.84 370.774 1029.06C365.234 1020.28 358.613 1016.63 351.181 1017.84C345.1 1018.79 340.776 1023.52 337.938 1031.76C335.235 1040 334.695 1050.41 336.452 1063.11C338.208 1075.68 341.857 1086.49 347.127 1095.54C352.532 1104.6 358.748 1109.46 365.909 1110C373.071 1110.68 378.071 1106.49 380.638 1097.7C383.341 1088.79 383.611 1076.49 381.584 1060.95Z" fill="#55142E" fill-opacity="0.3"/>
<path d="M295.11 1062.17C295.11 1072.3 293.083 1081.22 288.895 1088.65C280.787 1103.65 267.274 1110.68 250.653 1111.35H244.573H194.846C196.873 1111.35 199.035 1111.08 203.494 1109.46C207.953 1107.84 211.196 1103.11 211.196 1096.49V1031.63C211.196 1025.01 207.953 1020.28 203.494 1018.65C199.035 1017.03 196.873 1016.76 194.846 1016.76H244.032C278.084 1015.82 295.11 1030.95 295.11 1062.17ZM250.924 1109.6C264.031 1107.97 272.409 1090.95 272.004 1061.22C271.733 1033.92 262.139 1019.74 243.357 1018.52C242.411 1018.38 240.924 1018.38 238.627 1018.38C236.465 1018.38 234.979 1018.38 234.033 1018.52V1094.73C234.033 1104.73 237.681 1109.73 244.978 1109.73C248.491 1109.73 250.518 1109.73 250.924 1109.6Z" fill="#55142E" fill-opacity="0.3"/>
<path d="M141.483 1015.55C157.022 1015.55 169.319 1021.63 176.21 1030.95C183.237 1040.27 186.615 1051.76 186.48 1064.19C186.075 1088.79 169.994 1112.97 137.294 1112.57C121.754 1112.43 108.917 1105.54 101.755 1095.81C94.5933 1086.08 90.8097 1074.46 91.2151 1063.11C91.3502 1048.92 96.2148 1037.44 105.539 1028.65C114.998 1019.87 127.024 1015.41 141.483 1015.55ZM161.211 1060.95C159.59 1048.38 155.941 1037.84 150.401 1029.06C144.861 1020.28 138.239 1016.63 130.807 1017.84C124.727 1018.79 120.403 1023.52 117.565 1031.76C114.862 1040 114.322 1050.41 116.079 1063.11C117.835 1075.68 121.484 1086.49 126.754 1095.54C132.159 1104.6 138.375 1109.46 145.536 1110C152.698 1110.68 157.698 1106.49 160.265 1097.7C162.968 1088.79 163.238 1076.49 161.211 1060.95Z" fill="#55142E" fill-opacity="0.3"/>
<path d="M67.9692 1021.09L68.1043 1046.63C65.8071 1041.09 61.2128 1035.28 54.5916 1029.19C49.727 1024.87 45.2677 1021.63 38.9167 1019.06C32.5658 1016.36 27.4309 1016.63 21.4853 1019.33C16.2153 1022.44 14.5938 1028.25 16.2153 1034.73C18.3774 1042.84 25.1337 1047.44 39.187 1050.68C68.3746 1057.57 78.374 1069.46 74.4553 1090.54C71.0771 1108.65 54.4564 1114.19 38.6465 1113.92C22.8366 1113.65 9.86431 1110.41 0 1104.06V1072.17C3.64845 1079.87 8.91842 1087.3 15.5397 1094.19C22.2961 1101.08 29.4578 1105.81 37.1601 1108.11C49.0513 1111.62 62.5641 1111.35 64.0505 1100.27C64.7261 1095 62.8343 1090.41 58.3751 1086.22C54.051 1082.03 45.6731 1078.25 33.2414 1074.87C8.91842 1068.38 0.675638 1057.44 2.29717 1040C3.10794 1031.49 6.89151 1025.28 13.783 1021.09C20.6745 1016.9 29.1876 1014.87 39.4573 1015.01C44.7272 1015.14 49.5918 1015.68 54.3213 1016.63C59.0508 1017.57 62.5641 1018.65 64.7261 1019.6L67.9692 1021.09Z" fill="#55142E" fill-opacity="0.3"/>
<path d="M624.003 1.7627H654.001C646.029 3.51936 639.407 9.19471 634.002 18.5185L619.273 45.2738C617.517 48.652 616.571 53.5166 616.571 60.1378V81.3529C616.571 87.4336 619.138 92.1631 622.516 93.9197C626.165 95.6764 628.057 96.2169 630.083 96.352H581.843C583.6 96.352 585.897 95.8115 589.14 94.0549C592.518 92.2982 595.085 87.839 595.085 81.8934L595.221 63.9214C595.221 57.3002 593.869 51.7599 591.302 47.571L572.519 16.7619C566.033 6.35704 557.925 1.7627 553.736 1.7627L601.842 1.89782C594.14 2.03296 590.086 9.19472 594.275 16.897L609.679 43.2469C612.787 48.7871 615.895 48.5169 619.138 42.4361L632.246 18.9239C637.245 9.87035 634.272 2.97884 624.003 1.7627Z" fill="#A12256" fill-opacity="0.2"/>
<path d="M540.544 19.059V78.7854C540.544 86.2174 543.651 91.4874 547.57 93.6495C551.489 95.6764 554.056 96.352 555.678 96.352H502.573C504.194 96.352 506.762 95.6764 510.68 93.6495C514.599 91.4874 517.707 86.2174 517.707 78.7854V32.5718C517.707 25.8154 517.302 22.3021 516.491 22.167C515.275 22.0318 514.194 23.5182 512.032 29.0585L483.114 100L443.927 28.3828C440.009 20.6806 437.847 19.7347 437.576 25.5452V27.1667L437.306 73.9208C437.306 82.4339 440.954 88.7849 444.738 91.6226C446.63 92.9738 448.792 94.0549 451.359 94.8656C456.359 96.4872 457.845 96.352 459.062 96.352H414.199C415.415 96.352 417.037 96.4872 421.766 94.8656C428.523 92.7036 435.144 87.0282 435.549 73.6506V23.6534C435.549 6.49217 421.361 2.57347 417.983 1.89782L417.442 1.7627H454.873L485.411 57.4353C488.519 62.9755 490.276 66.0834 490.952 66.6239C492.168 67.8401 493.654 66.8942 495.141 63.7863C495.681 62.8404 496.222 61.4891 496.897 59.8676L521.085 1.7627H556.353C555.543 1.7627 540.679 2.70859 540.544 19.059Z" fill="#A12256" fill-opacity="0.2"/>
<path d="M362.182 0.54595C377.721 0.54595 390.018 6.62669 396.91 15.9505C403.936 25.2743 407.314 36.7602 407.179 49.1919C406.774 73.7851 390.694 97.9729 357.993 97.5676C342.453 97.4324 329.616 90.5409 322.454 80.8117C315.292 71.0826 311.509 59.4616 311.914 48.1109C312.049 33.9225 316.914 22.4366 326.238 13.6533C335.697 4.87003 347.723 0.410824 362.182 0.54595ZM381.91 45.9488C380.289 33.382 376.64 22.842 371.1 14.0587C365.56 5.27542 358.939 1.62697 351.507 2.84312C345.426 3.78901 341.102 8.51848 338.264 16.7613C335.562 25.004 335.021 35.4089 336.778 48.1109C338.534 60.6777 342.183 71.4879 347.453 80.5415C352.858 89.595 359.074 94.4596 366.236 95.0001C373.397 95.6758 378.397 91.4868 380.964 82.7035C383.667 73.7851 383.937 61.4885 381.91 45.9488Z" fill="#A12256" fill-opacity="0.2"/>
<path d="M295.437 47.1653C295.437 57.2999 293.41 66.2183 289.221 73.6503C281.113 88.6495 267.6 95.6761 250.98 96.3518H244.899H195.172C197.199 96.3518 199.361 96.0815 203.82 94.46C208.279 92.8384 211.522 88.109 211.522 81.4877V16.6265C211.522 10.0052 208.279 5.27576 203.82 3.65422C199.361 2.0327 197.199 1.76243 195.172 1.76243H244.358C278.41 0.816544 295.437 15.9508 295.437 47.1653ZM251.25 94.5951C264.357 92.9736 272.735 75.9475 272.33 46.2194C272.059 18.9236 262.465 4.73524 243.683 3.51909C242.737 3.38397 241.25 3.38397 238.953 3.38397C236.791 3.38397 235.305 3.38397 234.359 3.51909V79.7311C234.359 89.7305 238.007 94.7302 245.304 94.7302C248.818 94.7302 250.844 94.7302 251.25 94.5951Z" fill="#A12256" fill-opacity="0.2"/>
<path d="M141.809 0.54595C157.348 0.54595 169.645 6.62669 176.536 15.9505C183.563 25.2743 186.941 36.7602 186.806 49.1919C186.401 73.7851 170.321 97.9729 137.62 97.5676C122.08 97.4324 109.243 90.5409 102.081 80.8117C94.9194 71.0826 91.1359 59.4616 91.5412 48.1109C91.6764 33.9225 96.5409 22.4366 105.865 13.6533C115.324 4.87003 127.35 0.410824 141.809 0.54595ZM161.537 45.9488C159.916 33.382 156.267 22.842 150.727 14.0587C145.187 5.27542 138.566 1.62697 131.134 2.84312C125.053 3.78901 120.729 8.51848 117.891 16.7613C115.189 25.004 114.648 35.4089 116.405 48.1109C118.161 60.6777 121.81 71.4879 127.08 80.5415C132.485 89.595 138.701 94.4596 145.863 95.0001C153.024 95.6758 158.024 91.4868 160.591 82.7035C163.294 73.7851 163.564 61.4885 161.537 45.9488Z" fill="#A12256" fill-opacity="0.2"/>
<path d="M68.2954 6.08708L68.4305 31.6262C66.1333 26.086 61.539 20.2755 54.9177 14.1947C50.0531 9.87065 45.5939 6.62759 39.2429 4.06017C32.8919 1.35762 27.7571 1.62787 21.8115 4.33042C16.5415 7.43835 14.92 13.2488 16.5415 19.735C18.7035 27.8426 25.4599 32.437 39.5132 35.68C68.7007 42.5715 78.7002 54.4628 74.7815 75.5427C71.4033 93.6498 54.7826 99.19 38.9727 98.9197C23.1627 98.6495 10.1905 95.4064 0.326172 89.0554V57.1653C3.97462 64.8676 9.24459 72.2996 15.8658 79.1911C22.6222 86.0826 29.784 90.8121 37.4863 93.1093C49.3775 96.6226 62.8903 96.3523 64.3767 85.2719C65.0523 80.0019 63.1605 75.4075 58.7013 71.2186C54.3772 67.0296 45.9993 63.2461 33.5676 59.8679C9.24459 53.3817 1.00181 42.4364 2.62334 25.0049C3.43411 16.4919 7.21768 10.276 14.1092 6.08708C21.0007 1.89812 29.5137 -0.128792 39.7834 0.00633396C45.0534 0.141468 49.918 0.681979 54.6475 1.62787C59.3769 2.57377 62.8903 3.65478 65.0523 4.60068L68.2954 6.08708Z" fill="#A12256" fill-opacity="0.2"/>
<path d="M624.003 291.763H654.001C646.029 293.519 639.407 299.195 634.002 308.519L619.273 335.274C617.517 338.652 616.571 343.517 616.571 350.138V371.353C616.571 377.434 619.138 382.163 622.516 383.92C626.165 385.676 628.057 386.217 630.083 386.352H581.843C583.6 386.352 585.897 385.812 589.14 384.055C592.518 382.298 595.085 377.839 595.085 371.893L595.221 353.921C595.221 347.3 593.869 341.76 591.302 337.571L572.519 306.762C566.033 296.357 557.925 291.763 553.736 291.763L601.842 291.898C594.14 292.033 590.086 299.195 594.275 306.897L609.679 333.247C612.787 338.787 615.895 338.517 619.138 332.436L632.246 308.924C637.245 299.87 634.272 292.979 624.003 291.763Z" fill="#A12256" fill-opacity="0.2"/>
<path d="M540.544 309.059V368.785C540.544 376.217 543.651 381.487 547.57 383.649C551.489 385.676 554.056 386.352 555.678 386.352H502.573C504.194 386.352 506.762 385.676 510.68 383.649C514.599 381.487 517.707 376.217 517.707 368.785V322.572C517.707 315.815 517.302 312.302 516.491 312.167C515.275 312.032 514.194 313.518 512.032 319.058L483.114 390L443.927 318.383C440.009 310.681 437.847 309.735 437.576 315.545V317.167L437.306 363.921C437.306 372.434 440.954 378.785 444.738 381.623C446.63 382.974 448.792 384.055 451.359 384.866C456.359 386.487 457.845 386.352 459.062 386.352H414.199C415.415 386.352 417.037 386.487 421.766 384.866C428.523 382.704 435.144 377.028 435.549 363.651V313.653C435.549 296.492 421.361 292.573 417.983 291.898L417.442 291.763H454.873L485.411 347.435C488.519 352.976 490.276 356.083 490.952 356.624C492.168 357.84 493.654 356.894 495.141 353.786C495.681 352.84 496.222 351.489 496.897 349.868L521.085 291.763H556.353C555.543 291.763 540.679 292.709 540.544 309.059Z" fill="#A12256" fill-opacity="0.2"/>
<path d="M362.182 290.546C377.721 290.546 390.018 296.627 396.91 305.95C403.936 315.274 407.314 326.76 407.179 339.192C406.774 363.785 390.694 387.973 357.993 387.568C342.453 387.432 329.616 380.541 322.454 370.812C315.292 361.083 311.509 349.462 311.914 338.111C312.049 323.922 316.914 312.437 326.238 303.653C335.697 294.87 347.723 290.411 362.182 290.546ZM381.91 335.949C380.289 323.382 376.64 312.842 371.1 304.059C365.56 295.275 358.939 291.627 351.507 292.843C345.426 293.789 341.102 298.518 338.264 306.761C335.562 315.004 335.021 325.409 336.778 338.111C338.534 350.678 342.183 361.488 347.453 370.541C352.858 379.595 359.074 384.46 366.236 385C373.397 385.676 378.397 381.487 380.964 372.704C383.667 363.785 383.937 351.488 381.91 335.949Z" fill="#A12256" fill-opacity="0.2"/>
<path d="M295.437 337.165C295.437 347.3 293.41 356.218 289.221 363.65C281.113 378.649 267.6 385.676 250.98 386.352H244.899H195.172C197.199 386.352 199.361 386.082 203.82 384.46C208.279 382.838 211.522 378.109 211.522 371.488V306.626C211.522 300.005 208.279 295.276 203.82 293.654C199.361 292.033 197.199 291.762 195.172 291.762H244.358C278.41 290.817 295.437 305.951 295.437 337.165ZM251.25 384.595C264.357 382.974 272.735 365.947 272.33 336.219C272.059 308.924 262.465 294.735 243.683 293.519C242.737 293.384 241.25 293.384 238.953 293.384C236.791 293.384 235.305 293.384 234.359 293.519V369.731C234.359 379.731 238.007 384.73 245.304 384.73C248.818 384.73 250.844 384.73 251.25 384.595Z" fill="#A12256" fill-opacity="0.2"/>
<path d="M141.809 290.546C157.348 290.546 169.645 296.627 176.536 305.95C183.563 315.274 186.941 326.76 186.806 339.192C186.401 363.785 170.321 387.973 137.62 387.568C122.08 387.432 109.243 380.541 102.081 370.812C94.9194 361.083 91.1359 349.462 91.5412 338.111C91.6764 323.922 96.5409 312.437 105.865 303.653C115.324 294.87 127.35 290.411 141.809 290.546ZM161.537 335.949C159.916 323.382 156.267 312.842 150.727 304.059C145.187 295.275 138.566 291.627 131.134 292.843C125.053 293.789 120.729 298.518 117.891 306.761C115.189 315.004 114.648 325.409 116.405 338.111C118.161 350.678 121.81 361.488 127.08 370.541C132.485 379.595 138.701 384.46 145.863 385C153.024 385.676 158.024 381.487 160.591 372.704C163.294 363.785 163.564 351.488 161.537 335.949Z" fill="#A12256" fill-opacity="0.2"/>
<path d="M68.2954 296.087L68.4305 321.626C66.1333 316.086 61.539 310.275 54.9177 304.195C50.0531 299.871 45.5939 296.628 39.2429 294.06C32.8919 291.358 27.7571 291.628 21.8115 294.33C16.5415 297.438 14.92 303.249 16.5415 309.735C18.7035 317.843 25.4599 322.437 39.5132 325.68C68.7007 332.572 78.7002 344.463 74.7815 365.543C71.4033 383.65 54.7826 389.19 38.9727 388.92C23.1627 388.649 10.1905 385.406 0.326172 379.055V347.165C3.97462 354.868 9.24459 362.3 15.8658 369.191C22.6222 376.083 29.784 380.812 37.4863 383.109C49.3775 386.623 62.8903 386.352 64.3767 375.272C65.0523 370.002 63.1605 365.408 58.7013 361.219C54.3772 357.03 45.9993 353.246 33.5676 349.868C9.24459 343.382 1.00181 332.436 2.62334 315.005C3.43411 306.492 7.21768 300.276 14.1092 296.087C21.0007 291.898 29.5137 289.871 39.7834 290.006C45.0534 290.141 49.918 290.682 54.6475 291.628C59.3769 292.574 62.8903 293.655 65.0523 294.601L68.2954 296.087Z" fill="#A12256" fill-opacity="0.2"/>
<path d="M624.003 581.763H654.001C646.029 583.519 639.407 589.195 634.002 598.519L619.273 625.274C617.517 628.652 616.571 633.517 616.571 640.138V661.353C616.571 667.434 619.138 672.163 622.516 673.92C626.165 675.676 628.057 676.217 630.083 676.352H581.843C583.6 676.352 585.897 675.812 589.14 674.055C592.518 672.298 595.085 667.839 595.085 661.893L595.221 643.921C595.221 637.3 593.869 631.76 591.302 627.571L572.519 596.762C566.033 586.357 557.925 581.763 553.736 581.763L601.842 581.898C594.14 582.033 590.086 589.195 594.275 596.897L609.679 623.247C612.787 628.787 615.895 628.517 619.138 622.436L632.246 598.924C637.245 589.87 634.272 582.979 624.003 581.763Z" fill="#A12256" fill-opacity="0.2"/>
<path d="M540.544 599.059V658.785C540.544 666.217 543.651 671.487 547.57 673.649C551.489 675.676 554.056 676.352 555.678 676.352H502.573C504.194 676.352 506.762 675.676 510.68 673.649C514.599 671.487 517.707 666.217 517.707 658.785V612.572C517.707 605.815 517.302 602.302 516.491 602.167C515.275 602.032 514.194 603.518 512.032 609.058L483.114 680L443.927 608.383C440.009 600.681 437.847 599.735 437.576 605.545V607.167L437.306 653.921C437.306 662.434 440.954 668.785 444.738 671.623C446.63 672.974 448.792 674.055 451.359 674.866C456.359 676.487 457.845 676.352 459.062 676.352H414.199C415.415 676.352 417.037 676.487 421.766 674.866C428.523 672.704 435.144 667.028 435.549 653.651V603.653C435.549 586.492 421.361 582.573 417.983 581.898L417.442 581.763H454.873L485.411 637.435C488.519 642.976 490.276 646.083 490.952 646.624C492.168 647.84 493.654 646.894 495.141 643.786C495.681 642.84 496.222 641.489 496.897 639.868L521.085 581.763H556.353C555.543 581.763 540.679 582.709 540.544 599.059Z" fill="#A12256" fill-opacity="0.2"/>
<path d="M362.182 580.546C377.721 580.546 390.018 586.627 396.91 595.95C403.936 605.274 407.314 616.76 407.179 629.192C406.774 653.785 390.694 677.973 357.993 677.568C342.453 677.432 329.616 670.541 322.454 660.812C315.292 651.083 311.509 639.462 311.914 628.111C312.049 613.922 316.914 602.437 326.238 593.653C335.697 584.87 347.723 580.411 362.182 580.546ZM381.91 625.949C380.289 613.382 376.64 602.842 371.1 594.059C365.56 585.275 358.939 581.627 351.507 582.843C345.426 583.789 341.102 588.518 338.264 596.761C335.562 605.004 335.021 615.409 336.778 628.111C338.534 640.678 342.183 651.488 347.453 660.541C352.858 669.595 359.074 674.46 366.236 675C373.397 675.676 378.397 671.487 380.964 662.704C383.667 653.785 383.937 641.488 381.91 625.949Z" fill="#A12256" fill-opacity="0.2"/>
<path d="M295.437 627.165C295.437 637.3 293.41 646.218 289.221 653.65C281.113 668.649 267.6 675.676 250.98 676.352H244.899H195.172C197.199 676.352 199.361 676.082 203.82 674.46C208.279 672.838 211.522 668.109 211.522 661.488V596.626C211.522 590.005 208.279 585.276 203.82 583.654C199.361 582.033 197.199 581.762 195.172 581.762H244.358C278.41 580.817 295.437 595.951 295.437 627.165ZM251.25 674.595C264.357 672.974 272.735 655.947 272.33 626.219C272.059 598.924 262.465 584.735 243.683 583.519C242.737 583.384 241.25 583.384 238.953 583.384C236.791 583.384 235.305 583.384 234.359 583.519V659.731C234.359 669.731 238.007 674.73 245.304 674.73C248.818 674.73 250.844 674.73 251.25 674.595Z" fill="#A12256" fill-opacity="0.2"/>
<path d="M141.809 580.546C157.348 580.546 169.645 586.627 176.536 595.95C183.563 605.274 186.941 616.76 186.806 629.192C186.401 653.785 170.321 677.973 137.62 677.568C122.08 677.432 109.243 670.541 102.081 660.812C94.9194 651.083 91.1359 639.462 91.5412 628.111C91.6764 613.922 96.5409 602.437 105.865 593.653C115.324 584.87 127.35 580.411 141.809 580.546ZM161.537 625.949C159.916 613.382 156.267 602.842 150.727 594.059C145.187 585.275 138.566 581.627 131.134 582.843C125.053 583.789 120.729 588.518 117.891 596.761C115.189 605.004 114.648 615.409 116.405 628.111C118.161 640.678 121.81 651.488 127.08 660.541C132.485 669.595 138.701 674.46 145.863 675C153.024 675.676 158.024 671.487 160.591 662.704C163.294 653.785 163.564 641.488 161.537 625.949Z" fill="#A12256" fill-opacity="0.2"/>
<path d="M68.2954 586.087L68.4305 611.626C66.1333 606.086 61.539 600.275 54.9177 594.195C50.0531 589.871 45.5939 586.628 39.2429 584.06C32.8919 581.358 27.7571 581.628 21.8115 584.33C16.5415 587.438 14.92 593.249 16.5415 599.735C18.7035 607.843 25.4599 612.437 39.5132 615.68C68.7007 622.572 78.7002 634.463 74.7815 655.543C71.4033 673.65 54.7826 679.19 38.9727 678.92C23.1627 678.649 10.1905 675.406 0.326172 669.055V637.165C3.97462 644.868 9.24459 652.3 15.8658 659.191C22.6222 666.083 29.784 670.812 37.4863 673.109C49.3775 676.623 62.8903 676.352 64.3767 665.272C65.0523 660.002 63.1605 655.408 58.7013 651.219C54.3772 647.03 45.9993 643.246 33.5676 639.868C9.24459 633.382 1.00181 622.436 2.62334 605.005C3.43411 596.492 7.21768 590.276 14.1092 586.087C21.0007 581.898 29.5137 579.871 39.7834 580.006C45.0534 580.141 49.918 580.682 54.6475 581.628C59.3769 582.574 62.8903 583.655 65.0523 584.601L68.2954 586.087Z" fill="#A12256" fill-opacity="0.2"/>
<path d="M624.003 871.763H654.001C646.029 873.519 639.407 879.195 634.002 888.519L619.273 915.274C617.517 918.652 616.571 923.517 616.571 930.138V951.353C616.571 957.434 619.138 962.163 622.516 963.92C626.165 965.676 628.057 966.217 630.083 966.352H581.843C583.6 966.352 585.897 965.812 589.14 964.055C592.518 962.298 595.085 957.839 595.085 951.893L595.221 933.921C595.221 927.3 593.869 921.76 591.302 917.571L572.519 886.762C566.033 876.357 557.925 871.763 553.736 871.763L601.842 871.898C594.14 872.033 590.086 879.195 594.275 886.897L609.679 913.247C612.787 918.787 615.895 918.517 619.138 912.436L632.246 888.924C637.245 879.87 634.272 872.979 624.003 871.763Z" fill="#A12256" fill-opacity="0.2"/>
<path d="M540.544 889.059V948.785C540.544 956.217 543.651 961.487 547.57 963.649C551.489 965.676 554.056 966.352 555.678 966.352H502.573C504.194 966.352 506.762 965.676 510.68 963.649C514.599 961.487 517.707 956.217 517.707 948.785V902.572C517.707 895.815 517.302 892.302 516.491 892.167C515.275 892.032 514.194 893.518 512.032 899.058L483.114 970L443.927 898.383C440.009 890.681 437.847 889.735 437.576 895.545V897.167L437.306 943.921C437.306 952.434 440.954 958.785 444.738 961.623C446.63 962.974 448.792 964.055 451.359 964.866C456.359 966.487 457.845 966.352 459.062 966.352H414.199C415.415 966.352 417.037 966.487 421.766 964.866C428.523 962.704 435.144 957.028 435.549 943.651V893.653C435.549 876.492 421.361 872.573 417.983 871.898L417.442 871.763H454.873L485.411 927.435C488.519 932.976 490.276 936.083 490.952 936.624C492.168 937.84 493.654 936.894 495.141 933.786C495.681 932.84 496.222 931.489 496.897 929.868L521.085 871.763H556.353C555.543 871.763 540.679 872.709 540.544 889.059Z" fill="#A12256" fill-opacity="0.2"/>
<path d="M362.182 870.546C377.721 870.546 390.018 876.627 396.91 885.95C403.936 895.274 407.314 906.76 407.179 919.192C406.774 943.785 390.694 967.973 357.993 967.568C342.453 967.432 329.616 960.541 322.454 950.812C315.292 941.083 311.509 929.462 311.914 918.111C312.049 903.922 316.914 892.437 326.238 883.653C335.697 874.87 347.723 870.411 362.182 870.546ZM381.91 915.949C380.289 903.382 376.64 892.842 371.1 884.059C365.56 875.275 358.939 871.627 351.507 872.843C345.426 873.789 341.102 878.518 338.264 886.761C335.562 895.004 335.021 905.409 336.778 918.111C338.534 930.678 342.183 941.488 347.453 950.541C352.858 959.595 359.074 964.46 366.236 965C373.397 965.676 378.397 961.487 380.964 952.704C383.667 943.785 383.937 931.488 381.91 915.949Z" fill="#A12256" fill-opacity="0.2"/>
<path d="M295.437 917.165C295.437 927.3 293.41 936.218 289.221 943.65C281.113 958.649 267.6 965.676 250.98 966.352H244.899H195.172C197.199 966.352 199.361 966.082 203.82 964.46C208.279 962.838 211.522 958.109 211.522 951.488V886.626C211.522 880.005 208.279 875.276 203.82 873.654C199.361 872.033 197.199 871.762 195.172 871.762H244.358C278.41 870.817 295.437 885.951 295.437 917.165ZM251.25 964.595C264.357 962.974 272.735 945.947 272.33 916.219C272.059 888.924 262.465 874.735 243.683 873.519C242.737 873.384 241.25 873.384 238.953 873.384C236.791 873.384 235.305 873.384 234.359 873.519V949.731C234.359 959.731 238.007 964.73 245.304 964.73C248.818 964.73 250.844 964.73 251.25 964.595Z" fill="#A12256" fill-opacity="0.2"/>
<path d="M141.809 870.546C157.348 870.546 169.645 876.627 176.536 885.95C183.563 895.274 186.941 906.76 186.806 919.192C186.401 943.785 170.321 967.973 137.62 967.568C122.08 967.432 109.243 960.541 102.081 950.812C94.9194 941.083 91.1359 929.462 91.5412 918.111C91.6764 903.922 96.5409 892.437 105.865 883.653C115.324 874.87 127.35 870.411 141.809 870.546ZM161.537 915.949C159.916 903.382 156.267 892.842 150.727 884.059C145.187 875.275 138.566 871.627 131.134 872.843C125.053 873.789 120.729 878.518 117.891 886.761C115.189 895.004 114.648 905.409 116.405 918.111C118.161 930.678 121.81 941.488 127.08 950.541C132.485 959.595 138.701 964.46 145.863 965C153.024 965.676 158.024 961.487 160.591 952.704C163.294 943.785 163.564 931.488 161.537 915.949Z" fill="#A12256" fill-opacity="0.2"/>
<path d="M68.2954 876.087L68.4305 901.626C66.1333 896.086 61.539 890.275 54.9177 884.195C50.0531 879.871 45.5939 876.628 39.2429 874.06C32.8919 871.358 27.7571 871.628 21.8115 874.33C16.5415 877.438 14.92 883.249 16.5415 889.735C18.7035 897.843 25.4599 902.437 39.5132 905.68C68.7007 912.572 78.7002 924.463 74.7815 945.543C71.4033 963.65 54.7826 969.19 38.9727 968.92C23.1627 968.649 10.1905 965.406 0.326172 959.055V927.165C3.97462 934.868 9.24459 942.3 15.8658 949.191C22.6222 956.083 29.784 960.812 37.4863 963.109C49.3775 966.623 62.8903 966.352 64.3767 955.272C65.0523 950.002 63.1605 945.408 58.7013 941.219C54.3772 937.03 45.9993 933.246 33.5676 929.868C9.24459 923.382 1.00181 912.436 2.62334 895.005C3.43411 886.492 7.21768 880.276 14.1092 876.087C21.0007 871.898 29.5137 869.871 39.7834 870.006C45.0534 870.141 49.918 870.682 54.6475 871.628C59.3769 872.574 62.8903 873.655 65.0523 874.601L68.2954 876.087Z" fill="#A12256" fill-opacity="0.2"/>
<path d="M624.003 1161.76H654.001C646.029 1163.52 639.407 1169.19 634.002 1178.52L619.273 1205.27C617.517 1208.65 616.571 1213.52 616.571 1220.14V1241.35C616.571 1247.43 619.138 1252.16 622.516 1253.92C626.165 1255.68 628.057 1256.22 630.083 1256.35H581.843C583.6 1256.35 585.897 1255.81 589.14 1254.05C592.518 1252.3 595.085 1247.84 595.085 1241.89L595.221 1223.92C595.221 1217.3 593.869 1211.76 591.302 1207.57L572.519 1176.76C566.033 1166.36 557.925 1161.76 553.736 1161.76L601.842 1161.9C594.14 1162.03 590.086 1169.19 594.275 1176.9L609.679 1203.25C612.787 1208.79 615.895 1208.52 619.138 1202.44L632.246 1178.92C637.245 1169.87 634.272 1162.98 624.003 1161.76Z" fill="#A12256" fill-opacity="0.2"/>
<path d="M540.544 1179.06V1238.79C540.544 1246.22 543.651 1251.49 547.57 1253.65C551.489 1255.68 554.056 1256.35 555.678 1256.35H502.573C504.194 1256.35 506.762 1255.68 510.68 1253.65C514.599 1251.49 517.707 1246.22 517.707 1238.79V1192.57C517.707 1185.82 517.302 1182.3 516.491 1182.17C515.275 1182.03 514.194 1183.52 512.032 1189.06L483.114 1260L443.927 1188.38C440.009 1180.68 437.847 1179.73 437.576 1185.55V1187.17L437.306 1233.92C437.306 1242.43 440.954 1248.78 444.738 1251.62C446.63 1252.97 448.792 1254.05 451.359 1254.87C456.359 1256.49 457.845 1256.35 459.062 1256.35H414.199C415.415 1256.35 417.037 1256.49 421.766 1254.87C428.523 1252.7 435.144 1247.03 435.549 1233.65V1183.65C435.549 1166.49 421.361 1162.57 417.983 1161.9L417.442 1161.76H454.873L485.411 1217.44C488.519 1222.98 490.276 1226.08 490.952 1226.62C492.168 1227.84 493.654 1226.89 495.141 1223.79C495.681 1222.84 496.222 1221.49 496.897 1219.87L521.085 1161.76H556.353C555.543 1161.76 540.679 1162.71 540.544 1179.06Z" fill="#A12256" fill-opacity="0.2"/>
<path d="M362.182 1160.55C377.721 1160.55 390.018 1166.63 396.91 1175.95C403.936 1185.27 407.314 1196.76 407.179 1209.19C406.774 1233.79 390.694 1257.97 357.993 1257.57C342.453 1257.43 329.616 1250.54 322.454 1240.81C315.292 1231.08 311.509 1219.46 311.914 1208.11C312.049 1193.92 316.914 1182.44 326.238 1173.65C335.697 1164.87 347.723 1160.41 362.182 1160.55ZM381.91 1205.95C380.289 1193.38 376.64 1182.84 371.1 1174.06C365.56 1165.28 358.939 1161.63 351.507 1162.84C345.426 1163.79 341.102 1168.52 338.264 1176.76C335.562 1185 335.021 1195.41 336.778 1208.11C338.534 1220.68 342.183 1231.49 347.453 1240.54C352.858 1249.6 359.074 1254.46 366.236 1255C373.397 1255.68 378.397 1251.49 380.964 1242.7C383.667 1233.79 383.937 1221.49 381.91 1205.95Z" fill="#A12256" fill-opacity="0.2"/>
<path d="M295.437 1207.17C295.437 1217.3 293.41 1226.22 289.221 1233.65C281.113 1248.65 267.6 1255.68 250.98 1256.35H244.899H195.172C197.199 1256.35 199.361 1256.08 203.82 1254.46C208.279 1252.84 211.522 1248.11 211.522 1241.49V1176.63C211.522 1170.01 208.279 1165.28 203.82 1163.65C199.361 1162.03 197.199 1161.76 195.172 1161.76H244.358C278.41 1160.82 295.437 1175.95 295.437 1207.17ZM251.25 1254.6C264.357 1252.97 272.735 1235.95 272.33 1206.22C272.059 1178.92 262.465 1164.74 243.683 1163.52C242.737 1163.38 241.25 1163.38 238.953 1163.38C236.791 1163.38 235.305 1163.38 234.359 1163.52V1239.73C234.359 1249.73 238.007 1254.73 245.304 1254.73C248.818 1254.73 250.844 1254.73 251.25 1254.6Z" fill="#A12256" fill-opacity="0.2"/>
<path d="M141.809 1160.55C157.348 1160.55 169.645 1166.63 176.536 1175.95C183.563 1185.27 186.941 1196.76 186.806 1209.19C186.401 1233.79 170.321 1257.97 137.62 1257.57C122.08 1257.43 109.243 1250.54 102.081 1240.81C94.9194 1231.08 91.1359 1219.46 91.5412 1208.11C91.6764 1193.92 96.5409 1182.44 105.865 1173.65C115.324 1164.87 127.35 1160.41 141.809 1160.55ZM161.537 1205.95C159.916 1193.38 156.267 1182.84 150.727 1174.06C145.187 1165.28 138.566 1161.63 131.134 1162.84C125.053 1163.79 120.729 1168.52 117.891 1176.76C115.189 1185 114.648 1195.41 116.405 1208.11C118.161 1220.68 121.81 1231.49 127.08 1240.54C132.485 1249.6 138.701 1254.46 145.863 1255C153.024 1255.68 158.024 1251.49 160.591 1242.7C163.294 1233.79 163.564 1221.49 161.537 1205.95Z" fill="#A12256" fill-opacity="0.2"/>
<path d="M68.2954 1166.09L68.4305 1191.63C66.1333 1186.09 61.539 1180.28 54.9177 1174.19C50.0531 1169.87 45.5939 1166.63 39.2429 1164.06C32.8919 1161.36 27.7571 1161.63 21.8115 1164.33C16.5415 1167.44 14.92 1173.25 16.5415 1179.73C18.7035 1187.84 25.4599 1192.44 39.5132 1195.68C68.7007 1202.57 78.7002 1214.46 74.7815 1235.54C71.4033 1253.65 54.7826 1259.19 38.9727 1258.92C23.1627 1258.65 10.1905 1255.41 0.326172 1249.06V1217.17C3.97462 1224.87 9.24459 1232.3 15.8658 1239.19C22.6222 1246.08 29.784 1250.81 37.4863 1253.11C49.3775 1256.62 62.8903 1256.35 64.3767 1245.27C65.0523 1240 63.1605 1235.41 58.7013 1231.22C54.3772 1227.03 45.9993 1223.25 33.5676 1219.87C9.24459 1213.38 1.00181 1202.44 2.62334 1185C3.43411 1176.49 7.21768 1170.28 14.1092 1166.09C21.0007 1161.9 29.5137 1159.87 39.7834 1160.01C45.0534 1160.14 49.918 1160.68 54.6475 1161.63C59.3769 1162.57 62.8903 1163.65 65.0523 1164.6L68.2954 1166.09Z" fill="#A12256" fill-opacity="0.2"/>
</svg>
