<svg width="1308" height="970" viewBox="0 0 1308 970" fill="none" xmlns="http://www.w3.org/2000/svg">
<path d="M623.677 1.7627H653.675C645.702 3.51936 639.081 9.19471 633.676 18.5185L618.947 45.2738C617.19 48.652 616.245 53.5166 616.245 60.1378V81.3529C616.245 87.4336 618.812 92.1631 622.19 93.9197C625.839 95.6764 627.73 96.2169 629.757 96.352H581.517C583.273 96.352 585.571 95.8115 588.814 94.0549C592.192 92.2982 594.759 87.839 594.759 81.8934L594.894 63.9214C594.894 57.3002 593.543 51.7599 590.976 47.571L572.193 16.7619C565.707 6.35704 557.599 1.7627 553.41 1.7627L601.516 1.89782C593.813 2.03296 589.76 9.19472 593.948 16.897L609.353 43.2469C612.461 48.7871 615.569 48.5169 618.812 42.4361L631.919 18.9239C636.919 9.87035 633.946 2.97884 623.677 1.7627Z" fill="#55142E" fill-opacity="0.3"/>
<path d="M540.217 19.059V78.7854C540.217 86.2174 543.325 91.4874 547.244 93.6495C551.163 95.6764 553.73 96.352 555.352 96.352H502.246C503.868 96.352 506.435 95.6764 510.354 93.6495C514.273 91.4874 517.381 86.2174 517.381 78.7854V32.5718C517.381 25.8154 516.975 22.3021 516.165 22.167C514.948 22.0318 513.867 23.5182 511.705 29.0585L482.788 100L443.601 28.3828C439.682 20.6806 437.52 19.7347 437.25 25.5452V27.1667L436.98 73.9208C436.98 82.4339 440.628 88.7849 444.412 91.6226C446.304 92.9738 448.466 94.0549 451.033 94.8656C456.033 96.4872 457.519 96.352 458.735 96.352H413.873C415.089 96.352 416.711 96.4872 421.44 94.8656C428.197 92.7036 434.818 87.0282 435.223 73.6506V23.6534C435.223 6.49217 421.035 2.57347 417.657 1.89782L417.116 1.7627H454.546L485.085 57.4353C488.193 62.9755 489.95 66.0834 490.625 66.6239C491.842 67.8401 493.328 66.8942 494.814 63.7863C495.355 62.8404 495.896 61.4891 496.571 59.8676L520.759 1.7627H556.027C555.217 1.7627 540.352 2.70859 540.217 19.059Z" fill="#55142E" fill-opacity="0.3"/>
<path d="M361.856 0.54595C377.395 0.54595 389.692 6.62669 396.583 15.9505C403.61 25.2743 406.988 36.7602 406.853 49.1919C406.448 73.7851 390.367 97.9729 357.667 97.5676C342.127 97.4324 329.29 90.5409 322.128 80.8117C314.966 71.0826 311.183 59.4616 311.588 48.1109C311.723 33.9225 316.588 22.4366 325.912 13.6533C335.371 4.87003 347.397 0.410824 361.856 0.54595ZM381.584 45.9488C379.963 33.382 376.314 22.842 370.774 14.0587C365.234 5.27542 358.613 1.62697 351.181 2.84312C345.1 3.78901 340.776 8.51848 337.938 16.7613C335.235 25.004 334.695 35.4089 336.452 48.1109C338.208 60.6777 341.857 71.4879 347.127 80.5415C352.532 89.595 358.748 94.4596 365.909 95.0001C373.071 95.6758 378.071 91.4868 380.638 82.7035C383.341 73.7851 383.611 61.4885 381.584 45.9488Z" fill="#55142E" fill-opacity="0.3"/>
<path d="M295.11 47.1653C295.11 57.2999 293.083 66.2183 288.895 73.6503C280.787 88.6495 267.274 95.6761 250.653 96.3518H244.573H194.846C196.873 96.3518 199.035 96.0815 203.494 94.46C207.953 92.8384 211.196 88.109 211.196 81.4877V16.6265C211.196 10.0052 207.953 5.27576 203.494 3.65422C199.035 2.0327 196.873 1.76243 194.846 1.76243H244.032C278.084 0.816544 295.11 15.9508 295.11 47.1653ZM250.924 94.5951C264.031 92.9736 272.409 75.9475 272.004 46.2194C271.733 18.9236 262.139 4.73524 243.357 3.51909C242.411 3.38397 240.924 3.38397 238.627 3.38397C236.465 3.38397 234.979 3.38397 234.033 3.51909V79.7311C234.033 89.7305 237.681 94.7302 244.978 94.7302C248.491 94.7302 250.518 94.7302 250.924 94.5951Z" fill="#55142E" fill-opacity="0.3"/>
<path d="M141.483 0.54595C157.022 0.54595 169.319 6.62669 176.21 15.9505C183.237 25.2743 186.615 36.7602 186.48 49.1919C186.075 73.7851 169.994 97.9729 137.294 97.5676C121.754 97.4324 108.917 90.5409 101.755 80.8117C94.5933 71.0826 90.8097 59.4616 91.2151 48.1109C91.3502 33.9225 96.2148 22.4366 105.539 13.6533C114.998 4.87003 127.024 0.410824 141.483 0.54595ZM161.211 45.9488C159.59 33.382 155.941 22.842 150.401 14.0587C144.861 5.27542 138.239 1.62697 130.807 2.84312C124.727 3.78901 120.403 8.51848 117.565 16.7613C114.862 25.004 114.322 35.4089 116.079 48.1109C117.835 60.6777 121.484 71.4879 126.754 80.5415C132.159 89.595 138.375 94.4596 145.536 95.0001C152.698 95.6758 157.698 91.4868 160.265 82.7035C162.968 73.7851 163.238 61.4885 161.211 45.9488Z" fill="#55142E" fill-opacity="0.3"/>
<path d="M67.9692 6.08708L68.1043 31.6262C65.8071 26.086 61.2128 20.2755 54.5916 14.1947C49.727 9.87065 45.2677 6.62759 38.9167 4.06017C32.5658 1.35762 27.4309 1.62787 21.4853 4.33042C16.2153 7.43835 14.5938 13.2488 16.2153 19.735C18.3774 27.8426 25.1337 32.437 39.187 35.68C68.3746 42.5715 78.374 54.4628 74.4553 75.5427C71.0771 93.6498 54.4564 99.19 38.6465 98.9197C22.8366 98.6495 9.86431 95.4064 0 89.0554V57.1653C3.64845 64.8676 8.91842 72.2996 15.5397 79.1911C22.2961 86.0826 29.4578 90.8121 37.1601 93.1093C49.0513 96.6226 62.5641 96.3523 64.0505 85.2719C64.7261 80.0019 62.8343 75.4075 58.3751 71.2186C54.051 67.0296 45.6731 63.2461 33.2414 59.8679C8.91842 53.3817 0.675638 42.4364 2.29717 25.0049C3.10794 16.4919 6.89151 10.276 13.783 6.08708C20.6745 1.89812 29.1876 -0.128792 39.4573 0.00633396C44.7272 0.141468 49.5918 0.681979 54.3213 1.62787C59.0508 2.57377 62.5641 3.65478 64.7261 4.60068L67.9692 6.08708Z" fill="#55142E" fill-opacity="0.3"/>
<path d="M1277.35 146.763H1307.35C1299.38 148.519 1292.75 154.195 1287.35 163.519L1272.62 190.274C1270.86 193.652 1269.92 198.517 1269.92 205.138V226.353C1269.92 232.434 1272.49 237.163 1275.86 238.92C1279.51 240.676 1281.4 241.217 1283.43 241.352H1235.19C1236.95 241.352 1239.24 240.812 1242.49 239.055C1245.87 237.298 1248.43 232.839 1248.43 226.893L1248.57 208.921C1248.57 202.3 1247.22 196.76 1244.65 192.571L1225.87 161.762C1219.38 151.357 1211.27 146.763 1207.08 146.763L1255.19 146.898C1247.49 147.033 1243.43 154.195 1247.62 161.897L1263.03 188.247C1266.13 193.787 1269.24 193.517 1272.49 187.436L1285.59 163.924C1290.59 154.87 1287.62 147.979 1277.35 146.763Z" fill="#55142E" fill-opacity="0.3"/>
<path d="M1193.89 164.059V223.785C1193.89 231.217 1197 236.487 1200.92 238.649C1204.84 240.676 1207.4 241.352 1209.03 241.352H1155.92C1157.54 241.352 1160.11 240.676 1164.03 238.649C1167.95 236.487 1171.05 231.217 1171.05 223.785V177.572C1171.05 170.815 1170.65 167.302 1169.84 167.167C1168.62 167.032 1167.54 168.518 1165.38 174.058L1136.46 245L1097.27 173.383C1093.36 165.681 1091.19 164.735 1090.92 170.545V172.167L1090.65 218.921C1090.65 227.434 1094.3 233.785 1098.09 236.623C1099.98 237.974 1102.14 239.055 1104.71 239.866C1109.71 241.487 1111.19 241.352 1112.41 241.352H1067.55C1068.76 241.352 1070.38 241.487 1075.11 239.866C1081.87 237.704 1088.49 232.028 1088.9 218.651V168.653C1088.9 151.492 1074.71 147.573 1071.33 146.898L1070.79 146.763H1108.22L1138.76 202.435C1141.87 207.976 1143.62 211.083 1144.3 211.624C1145.52 212.84 1147 211.894 1148.49 208.786C1149.03 207.84 1149.57 206.489 1150.24 204.868L1174.43 146.763H1209.7C1208.89 146.763 1194.03 147.709 1193.89 164.059Z" fill="#55142E" fill-opacity="0.3"/>
<path d="M1015.53 145.546C1031.07 145.546 1043.37 151.627 1050.26 160.95C1057.28 170.274 1060.66 181.76 1060.53 194.192C1060.12 218.785 1044.04 242.973 1011.34 242.568C995.801 242.432 982.964 235.541 975.802 225.812C968.64 216.083 964.857 204.462 965.262 193.111C965.397 178.922 970.262 167.437 979.585 158.653C989.044 149.87 1001.07 145.411 1015.53 145.546ZM1035.26 190.949C1033.64 178.382 1029.99 167.842 1024.45 159.059C1018.91 150.275 1012.29 146.627 1004.85 147.843C998.774 148.789 994.45 153.518 991.612 161.761C988.909 170.004 988.369 180.409 990.125 193.111C991.882 205.678 995.531 216.488 1000.8 225.541C1006.21 234.595 1012.42 239.46 1019.58 240C1026.75 240.676 1031.74 236.487 1034.31 227.704C1037.01 218.785 1037.28 206.488 1035.26 190.949Z" fill="#55142E" fill-opacity="0.3"/>
<path d="M948.784 192.165C948.784 202.3 946.757 211.218 942.568 218.65C934.461 233.649 920.948 240.676 904.327 241.352H898.246H848.52C850.546 241.352 852.709 241.082 857.168 239.46C861.627 237.838 864.87 233.109 864.87 226.488V161.626C864.87 155.005 861.627 150.276 857.168 148.654C852.709 147.033 850.546 146.762 848.52 146.762H897.706C931.758 145.817 948.784 160.951 948.784 192.165ZM904.598 239.595C917.705 237.974 926.083 220.947 925.677 191.219C925.407 163.924 915.813 149.735 897.03 148.519C896.084 148.384 894.598 148.384 892.301 148.384C890.139 148.384 888.652 148.384 887.707 148.519V224.731C887.707 234.731 891.355 239.73 898.652 239.73C902.165 239.73 904.192 239.73 904.598 239.595Z" fill="#55142E" fill-opacity="0.3"/>
<path d="M795.156 145.546C810.696 145.546 822.993 151.627 829.884 160.95C836.911 170.274 840.289 181.76 840.154 194.192C839.748 218.785 823.668 242.973 790.967 242.568C775.428 242.432 762.591 235.541 755.429 225.812C748.267 216.083 744.484 204.462 744.889 193.111C745.024 178.922 749.889 167.437 759.212 158.653C768.671 149.87 780.698 145.411 795.156 145.546ZM814.885 190.949C813.263 178.382 809.615 167.842 804.075 159.059C798.535 150.275 791.913 146.627 784.481 147.843C778.401 148.789 774.076 153.518 771.239 161.761C768.536 170.004 767.996 180.409 769.752 193.111C771.509 205.678 775.157 216.488 780.427 225.541C785.833 234.595 792.048 239.46 799.21 240C806.372 240.676 811.372 236.487 813.939 227.704C816.642 218.785 816.912 206.488 814.885 190.949Z" fill="#55142E" fill-opacity="0.3"/>
<path d="M721.643 151.087L721.778 176.626C719.481 171.086 714.887 165.275 708.265 159.195C703.401 154.871 698.942 151.628 692.591 149.06C686.24 146.358 681.105 146.628 675.159 149.33C669.889 152.438 668.268 158.249 669.889 164.735C672.051 172.843 678.808 177.437 692.861 180.68C722.048 187.572 732.048 199.463 728.129 220.543C724.751 238.65 708.13 244.19 692.32 243.92C676.51 243.649 663.538 240.406 653.674 234.055V202.165C657.322 209.868 662.592 217.3 669.214 224.191C675.97 231.083 683.132 235.812 690.834 238.109C702.725 241.623 716.238 241.352 717.724 230.272C718.4 225.002 716.508 220.408 712.049 216.219C707.725 212.03 699.347 208.246 686.915 204.868C662.592 198.382 654.349 187.436 655.971 170.005C656.782 161.492 660.565 155.276 667.457 151.087C674.348 146.898 682.861 144.871 693.131 145.006C698.401 145.141 703.266 145.682 707.995 146.628C712.725 147.574 716.238 148.655 718.4 149.601L721.643 151.087Z" fill="#55142E" fill-opacity="0.3"/>
<path d="M623.677 291.763H653.675C645.702 293.519 639.081 299.195 633.676 308.519L618.947 335.274C617.19 338.652 616.245 343.517 616.245 350.138V371.353C616.245 377.434 618.812 382.163 622.19 383.92C625.839 385.676 627.73 386.217 629.757 386.352H581.517C583.273 386.352 585.571 385.812 588.814 384.055C592.192 382.298 594.759 377.839 594.759 371.893L594.894 353.921C594.894 347.3 593.543 341.76 590.976 337.571L572.193 306.762C565.707 296.357 557.599 291.763 553.41 291.763L601.516 291.898C593.813 292.033 589.76 299.195 593.948 306.897L609.353 333.247C612.461 338.787 615.569 338.517 618.812 332.436L631.919 308.924C636.919 299.87 633.946 292.979 623.677 291.763Z" fill="#55142E" fill-opacity="0.3"/>
<path d="M540.217 309.059V368.785C540.217 376.217 543.325 381.487 547.244 383.649C551.163 385.676 553.73 386.352 555.352 386.352H502.246C503.868 386.352 506.435 385.676 510.354 383.649C514.273 381.487 517.381 376.217 517.381 368.785V322.572C517.381 315.815 516.975 312.302 516.165 312.167C514.948 312.032 513.867 313.518 511.705 319.058L482.788 390L443.601 318.383C439.682 310.681 437.52 309.735 437.25 315.545V317.167L436.98 363.921C436.98 372.434 440.628 378.785 444.412 381.623C446.304 382.974 448.466 384.055 451.033 384.866C456.033 386.487 457.519 386.352 458.735 386.352H413.873C415.089 386.352 416.711 386.487 421.44 384.866C428.197 382.704 434.818 377.028 435.223 363.651V313.653C435.223 296.492 421.035 292.573 417.657 291.898L417.116 291.763H454.546L485.085 347.435C488.193 352.976 489.95 356.083 490.625 356.624C491.842 357.84 493.328 356.894 494.814 353.786C495.355 352.84 495.896 351.489 496.571 349.868L520.759 291.763H556.027C555.217 291.763 540.352 292.709 540.217 309.059Z" fill="#55142E" fill-opacity="0.3"/>
<path d="M361.856 290.546C377.395 290.546 389.692 296.627 396.583 305.95C403.61 315.274 406.988 326.76 406.853 339.192C406.448 363.785 390.367 387.973 357.667 387.568C342.127 387.432 329.29 380.541 322.128 370.812C314.966 361.083 311.183 349.462 311.588 338.111C311.723 323.922 316.588 312.437 325.912 303.653C335.371 294.87 347.397 290.411 361.856 290.546ZM381.584 335.949C379.963 323.382 376.314 312.842 370.774 304.059C365.234 295.275 358.613 291.627 351.181 292.843C345.1 293.789 340.776 298.518 337.938 306.761C335.235 315.004 334.695 325.409 336.452 338.111C338.208 350.678 341.857 361.488 347.127 370.541C352.532 379.595 358.748 384.46 365.909 385C373.071 385.676 378.071 381.487 380.638 372.704C383.341 363.785 383.611 351.488 381.584 335.949Z" fill="#55142E" fill-opacity="0.3"/>
<path d="M295.11 337.165C295.11 347.3 293.083 356.218 288.895 363.65C280.787 378.649 267.274 385.676 250.653 386.352H244.573H194.846C196.873 386.352 199.035 386.082 203.494 384.46C207.953 382.838 211.196 378.109 211.196 371.488V306.626C211.196 300.005 207.953 295.276 203.494 293.654C199.035 292.033 196.873 291.762 194.846 291.762H244.032C278.084 290.817 295.11 305.951 295.11 337.165ZM250.924 384.595C264.031 382.974 272.409 365.947 272.004 336.219C271.733 308.924 262.139 294.735 243.357 293.519C242.411 293.384 240.924 293.384 238.627 293.384C236.465 293.384 234.979 293.384 234.033 293.519V369.731C234.033 379.731 237.681 384.73 244.978 384.73C248.491 384.73 250.518 384.73 250.924 384.595Z" fill="#55142E" fill-opacity="0.3"/>
<path d="M141.483 290.546C157.022 290.546 169.319 296.627 176.21 305.95C183.237 315.274 186.615 326.76 186.48 339.192C186.075 363.785 169.994 387.973 137.294 387.568C121.754 387.432 108.917 380.541 101.755 370.812C94.5933 361.083 90.8097 349.462 91.2151 338.111C91.3502 323.922 96.2148 312.437 105.539 303.653C114.998 294.87 127.024 290.411 141.483 290.546ZM161.211 335.949C159.59 323.382 155.941 312.842 150.401 304.059C144.861 295.275 138.239 291.627 130.807 292.843C124.727 293.789 120.403 298.518 117.565 306.761C114.862 315.004 114.322 325.409 116.079 338.111C117.835 350.678 121.484 361.488 126.754 370.541C132.159 379.595 138.375 384.46 145.536 385C152.698 385.676 157.698 381.487 160.265 372.704C162.968 363.785 163.238 351.488 161.211 335.949Z" fill="#55142E" fill-opacity="0.3"/>
<path d="M67.9692 296.087L68.1043 321.626C65.8071 316.086 61.2128 310.275 54.5916 304.195C49.727 299.871 45.2677 296.628 38.9167 294.06C32.5658 291.358 27.4309 291.628 21.4853 294.33C16.2153 297.438 14.5938 303.249 16.2153 309.735C18.3774 317.843 25.1337 322.437 39.187 325.68C68.3746 332.572 78.374 344.463 74.4553 365.543C71.0771 383.65 54.4564 389.19 38.6465 388.92C22.8366 388.649 9.86431 385.406 0 379.055V347.165C3.64845 354.868 8.91842 362.3 15.5397 369.191C22.2961 376.083 29.4578 380.812 37.1601 383.109C49.0513 386.623 62.5641 386.352 64.0505 375.272C64.7261 370.002 62.8343 365.408 58.3751 361.219C54.051 357.03 45.6731 353.246 33.2414 349.868C8.91842 343.382 0.675638 332.436 2.29717 315.005C3.10794 306.492 6.89151 300.276 13.783 296.087C20.6745 291.898 29.1876 289.871 39.4573 290.006C44.7272 290.141 49.5918 290.682 54.3213 291.628C59.0508 292.574 62.5641 293.655 64.7261 294.601L67.9692 296.087Z" fill="#55142E" fill-opacity="0.3"/>
<path d="M1277.35 436.763H1307.35C1299.38 438.519 1292.75 444.195 1287.35 453.519L1272.62 480.274C1270.86 483.652 1269.92 488.517 1269.92 495.138V516.353C1269.92 522.434 1272.49 527.163 1275.86 528.92C1279.51 530.676 1281.4 531.217 1283.43 531.352H1235.19C1236.95 531.352 1239.24 530.812 1242.49 529.055C1245.87 527.298 1248.43 522.839 1248.43 516.893L1248.57 498.921C1248.57 492.3 1247.22 486.76 1244.65 482.571L1225.87 451.762C1219.38 441.357 1211.27 436.763 1207.08 436.763L1255.19 436.898C1247.49 437.033 1243.43 444.195 1247.62 451.897L1263.03 478.247C1266.13 483.787 1269.24 483.517 1272.49 477.436L1285.59 453.924C1290.59 444.87 1287.62 437.979 1277.35 436.763Z" fill="#55142E" fill-opacity="0.3"/>
<path d="M1193.89 454.059V513.785C1193.89 521.217 1197 526.487 1200.92 528.649C1204.84 530.676 1207.4 531.352 1209.03 531.352H1155.92C1157.54 531.352 1160.11 530.676 1164.03 528.649C1167.95 526.487 1171.05 521.217 1171.05 513.785V467.572C1171.05 460.815 1170.65 457.302 1169.84 457.167C1168.62 457.032 1167.54 458.518 1165.38 464.058L1136.46 535L1097.27 463.383C1093.36 455.681 1091.19 454.735 1090.92 460.545V462.167L1090.65 508.921C1090.65 517.434 1094.3 523.785 1098.09 526.623C1099.98 527.974 1102.14 529.055 1104.71 529.866C1109.71 531.487 1111.19 531.352 1112.41 531.352H1067.55C1068.76 531.352 1070.38 531.487 1075.11 529.866C1081.87 527.704 1088.49 522.028 1088.9 508.651V458.653C1088.9 441.492 1074.71 437.573 1071.33 436.898L1070.79 436.763H1108.22L1138.76 492.435C1141.87 497.976 1143.62 501.083 1144.3 501.624C1145.52 502.84 1147 501.894 1148.49 498.786C1149.03 497.84 1149.57 496.489 1150.24 494.868L1174.43 436.763H1209.7C1208.89 436.763 1194.03 437.709 1193.89 454.059Z" fill="#55142E" fill-opacity="0.3"/>
<path d="M1015.53 435.546C1031.07 435.546 1043.37 441.627 1050.26 450.95C1057.28 460.274 1060.66 471.76 1060.53 484.192C1060.12 508.785 1044.04 532.973 1011.34 532.568C995.801 532.432 982.964 525.541 975.802 515.812C968.64 506.083 964.857 494.462 965.262 483.111C965.397 468.922 970.262 457.437 979.585 448.653C989.044 439.87 1001.07 435.411 1015.53 435.546ZM1035.26 480.949C1033.64 468.382 1029.99 457.842 1024.45 449.059C1018.91 440.275 1012.29 436.627 1004.85 437.843C998.774 438.789 994.45 443.518 991.612 451.761C988.909 460.004 988.369 470.409 990.125 483.111C991.882 495.678 995.531 506.488 1000.8 515.541C1006.21 524.595 1012.42 529.46 1019.58 530C1026.75 530.676 1031.74 526.487 1034.31 517.704C1037.01 508.785 1037.28 496.488 1035.26 480.949Z" fill="#55142E" fill-opacity="0.3"/>
<path d="M948.784 482.165C948.784 492.3 946.757 501.218 942.568 508.65C934.461 523.649 920.948 530.676 904.327 531.352H898.246H848.52C850.546 531.352 852.709 531.082 857.168 529.46C861.627 527.838 864.87 523.109 864.87 516.488V451.626C864.87 445.005 861.627 440.276 857.168 438.654C852.709 437.033 850.546 436.762 848.52 436.762H897.706C931.758 435.817 948.784 450.951 948.784 482.165ZM904.598 529.595C917.705 527.974 926.083 510.947 925.677 481.219C925.407 453.924 915.813 439.735 897.03 438.519C896.084 438.384 894.598 438.384 892.301 438.384C890.139 438.384 888.652 438.384 887.707 438.519V514.731C887.707 524.731 891.355 529.73 898.652 529.73C902.165 529.73 904.192 529.73 904.598 529.595Z" fill="#55142E" fill-opacity="0.3"/>
<path d="M795.156 435.546C810.696 435.546 822.993 441.627 829.884 450.95C836.911 460.274 840.289 471.76 840.154 484.192C839.748 508.785 823.668 532.973 790.967 532.568C775.428 532.432 762.591 525.541 755.429 515.812C748.267 506.083 744.484 494.462 744.889 483.111C745.024 468.922 749.889 457.437 759.212 448.653C768.671 439.87 780.698 435.411 795.156 435.546ZM814.885 480.949C813.263 468.382 809.615 457.842 804.075 449.059C798.535 440.275 791.913 436.627 784.481 437.843C778.401 438.789 774.076 443.518 771.239 451.761C768.536 460.004 767.996 470.409 769.752 483.111C771.509 495.678 775.157 506.488 780.427 515.541C785.833 524.595 792.048 529.46 799.21 530C806.372 530.676 811.372 526.487 813.939 517.704C816.642 508.785 816.912 496.488 814.885 480.949Z" fill="#55142E" fill-opacity="0.3"/>
<path d="M721.643 441.087L721.778 466.626C719.481 461.086 714.887 455.275 708.265 449.195C703.401 444.871 698.942 441.628 692.591 439.06C686.24 436.358 681.105 436.628 675.159 439.33C669.889 442.438 668.268 448.249 669.889 454.735C672.051 462.843 678.808 467.437 692.861 470.68C722.048 477.572 732.048 489.463 728.129 510.543C724.751 528.65 708.13 534.19 692.32 533.92C676.51 533.649 663.538 530.406 653.674 524.055V492.165C657.322 499.868 662.592 507.3 669.214 514.191C675.97 521.083 683.132 525.812 690.834 528.109C702.725 531.623 716.238 531.352 717.724 520.272C718.4 515.002 716.508 510.408 712.049 506.219C707.725 502.03 699.347 498.246 686.915 494.868C662.592 488.382 654.349 477.436 655.971 460.005C656.782 451.492 660.565 445.276 667.457 441.087C674.348 436.898 682.861 434.871 693.131 435.006C698.401 435.141 703.266 435.682 707.995 436.628C712.725 437.574 716.238 438.655 718.4 439.601L721.643 441.087Z" fill="#55142E" fill-opacity="0.3"/>
<path d="M623.677 581.763H653.675C645.702 583.519 639.081 589.195 633.676 598.519L618.947 625.274C617.19 628.652 616.245 633.517 616.245 640.138V661.353C616.245 667.434 618.812 672.163 622.19 673.92C625.839 675.676 627.73 676.217 629.757 676.352H581.517C583.273 676.352 585.571 675.812 588.814 674.055C592.192 672.298 594.759 667.839 594.759 661.893L594.894 643.921C594.894 637.3 593.543 631.76 590.976 627.571L572.193 596.762C565.707 586.357 557.599 581.763 553.41 581.763L601.516 581.898C593.813 582.033 589.76 589.195 593.948 596.897L609.353 623.247C612.461 628.787 615.569 628.517 618.812 622.436L631.919 598.924C636.919 589.87 633.946 582.979 623.677 581.763Z" fill="#55142E" fill-opacity="0.3"/>
<path d="M540.217 599.059V658.785C540.217 666.217 543.325 671.487 547.244 673.649C551.163 675.676 553.73 676.352 555.352 676.352H502.246C503.868 676.352 506.435 675.676 510.354 673.649C514.273 671.487 517.381 666.217 517.381 658.785V612.572C517.381 605.815 516.975 602.302 516.165 602.167C514.948 602.032 513.867 603.518 511.705 609.058L482.788 680L443.601 608.383C439.682 600.681 437.52 599.735 437.25 605.545V607.167L436.98 653.921C436.98 662.434 440.628 668.785 444.412 671.623C446.304 672.974 448.466 674.055 451.033 674.866C456.033 676.487 457.519 676.352 458.735 676.352H413.873C415.089 676.352 416.711 676.487 421.44 674.866C428.197 672.704 434.818 667.028 435.223 653.651V603.653C435.223 586.492 421.035 582.573 417.657 581.898L417.116 581.763H454.546L485.085 637.435C488.193 642.976 489.95 646.083 490.625 646.624C491.842 647.84 493.328 646.894 494.814 643.786C495.355 642.84 495.896 641.489 496.571 639.868L520.759 581.763H556.027C555.217 581.763 540.352 582.709 540.217 599.059Z" fill="#55142E" fill-opacity="0.3"/>
<path d="M361.856 580.546C377.395 580.546 389.692 586.627 396.583 595.95C403.61 605.274 406.988 616.76 406.853 629.192C406.448 653.785 390.367 677.973 357.667 677.568C342.127 677.432 329.29 670.541 322.128 660.812C314.966 651.083 311.183 639.462 311.588 628.111C311.723 613.922 316.588 602.437 325.912 593.653C335.371 584.87 347.397 580.411 361.856 580.546ZM381.584 625.949C379.963 613.382 376.314 602.842 370.774 594.059C365.234 585.275 358.613 581.627 351.181 582.843C345.1 583.789 340.776 588.518 337.938 596.761C335.235 605.004 334.695 615.409 336.452 628.111C338.208 640.678 341.857 651.488 347.127 660.541C352.532 669.595 358.748 674.46 365.909 675C373.071 675.676 378.071 671.487 380.638 662.704C383.341 653.785 383.611 641.488 381.584 625.949Z" fill="#55142E" fill-opacity="0.3"/>
<path d="M295.11 627.165C295.11 637.3 293.083 646.218 288.895 653.65C280.787 668.649 267.274 675.676 250.653 676.352H244.573H194.846C196.873 676.352 199.035 676.082 203.494 674.46C207.953 672.838 211.196 668.109 211.196 661.488V596.626C211.196 590.005 207.953 585.276 203.494 583.654C199.035 582.033 196.873 581.762 194.846 581.762H244.032C278.084 580.817 295.11 595.951 295.11 627.165ZM250.924 674.595C264.031 672.974 272.409 655.947 272.004 626.219C271.733 598.924 262.139 584.735 243.357 583.519C242.411 583.384 240.924 583.384 238.627 583.384C236.465 583.384 234.979 583.384 234.033 583.519V659.731C234.033 669.731 237.681 674.73 244.978 674.73C248.491 674.73 250.518 674.73 250.924 674.595Z" fill="#55142E" fill-opacity="0.3"/>
<path d="M141.483 580.546C157.022 580.546 169.319 586.627 176.21 595.95C183.237 605.274 186.615 616.76 186.48 629.192C186.075 653.785 169.994 677.973 137.294 677.568C121.754 677.432 108.917 670.541 101.755 660.812C94.5933 651.083 90.8097 639.462 91.2151 628.111C91.3502 613.922 96.2148 602.437 105.539 593.653C114.998 584.87 127.024 580.411 141.483 580.546ZM161.211 625.949C159.59 613.382 155.941 602.842 150.401 594.059C144.861 585.275 138.239 581.627 130.807 582.843C124.727 583.789 120.403 588.518 117.565 596.761C114.862 605.004 114.322 615.409 116.079 628.111C117.835 640.678 121.484 651.488 126.754 660.541C132.159 669.595 138.375 674.46 145.536 675C152.698 675.676 157.698 671.487 160.265 662.704C162.968 653.785 163.238 641.488 161.211 625.949Z" fill="#55142E" fill-opacity="0.3"/>
<path d="M67.9692 586.087L68.1043 611.626C65.8071 606.086 61.2128 600.275 54.5916 594.195C49.727 589.871 45.2677 586.628 38.9167 584.06C32.5658 581.358 27.4309 581.628 21.4853 584.33C16.2153 587.438 14.5938 593.249 16.2153 599.735C18.3774 607.843 25.1337 612.437 39.187 615.68C68.3746 622.572 78.374 634.463 74.4553 655.543C71.0771 673.65 54.4564 679.19 38.6465 678.92C22.8366 678.649 9.86431 675.406 0 669.055V637.165C3.64845 644.868 8.91842 652.3 15.5397 659.191C22.2961 666.083 29.4578 670.812 37.1601 673.109C49.0513 676.623 62.5641 676.352 64.0505 665.272C64.7261 660.002 62.8343 655.408 58.3751 651.219C54.051 647.03 45.6731 643.246 33.2414 639.868C8.91842 633.382 0.675638 622.436 2.29717 605.005C3.10794 596.492 6.89151 590.276 13.783 586.087C20.6745 581.898 29.1876 579.871 39.4573 580.006C44.7272 580.141 49.5918 580.682 54.3213 581.628C59.0508 582.574 62.5641 583.655 64.7261 584.601L67.9692 586.087Z" fill="#55142E" fill-opacity="0.3"/>
<path d="M1277.35 726.763H1307.35C1299.38 728.519 1292.75 734.195 1287.35 743.519L1272.62 770.274C1270.86 773.652 1269.92 778.517 1269.92 785.138V806.353C1269.92 812.434 1272.49 817.163 1275.86 818.92C1279.51 820.676 1281.4 821.217 1283.43 821.352H1235.19C1236.95 821.352 1239.24 820.812 1242.49 819.055C1245.87 817.298 1248.43 812.839 1248.43 806.893L1248.57 788.921C1248.57 782.3 1247.22 776.76 1244.65 772.571L1225.87 741.762C1219.38 731.357 1211.27 726.763 1207.08 726.763L1255.19 726.898C1247.49 727.033 1243.43 734.195 1247.62 741.897L1263.03 768.247C1266.13 773.787 1269.24 773.517 1272.49 767.436L1285.59 743.924C1290.59 734.87 1287.62 727.979 1277.35 726.763Z" fill="#55142E" fill-opacity="0.3"/>
<path d="M1193.89 744.059V803.785C1193.89 811.217 1197 816.487 1200.92 818.649C1204.84 820.676 1207.4 821.352 1209.03 821.352H1155.92C1157.54 821.352 1160.11 820.676 1164.03 818.649C1167.95 816.487 1171.05 811.217 1171.05 803.785V757.572C1171.05 750.815 1170.65 747.302 1169.84 747.167C1168.62 747.032 1167.54 748.518 1165.38 754.058L1136.46 825L1097.27 753.383C1093.36 745.681 1091.19 744.735 1090.92 750.545V752.167L1090.65 798.921C1090.65 807.434 1094.3 813.785 1098.09 816.623C1099.98 817.974 1102.14 819.055 1104.71 819.866C1109.71 821.487 1111.19 821.352 1112.41 821.352H1067.55C1068.76 821.352 1070.38 821.487 1075.11 819.866C1081.87 817.704 1088.49 812.028 1088.9 798.651V748.653C1088.9 731.492 1074.71 727.573 1071.33 726.898L1070.79 726.763H1108.22L1138.76 782.435C1141.87 787.976 1143.62 791.083 1144.3 791.624C1145.52 792.84 1147 791.894 1148.49 788.786C1149.03 787.84 1149.57 786.489 1150.24 784.868L1174.43 726.763H1209.7C1208.89 726.763 1194.03 727.709 1193.89 744.059Z" fill="#55142E" fill-opacity="0.3"/>
<path d="M1015.53 725.546C1031.07 725.546 1043.37 731.627 1050.26 740.95C1057.28 750.274 1060.66 761.76 1060.53 774.192C1060.12 798.785 1044.04 822.973 1011.34 822.568C995.801 822.432 982.964 815.541 975.802 805.812C968.64 796.083 964.857 784.462 965.262 773.111C965.397 758.922 970.262 747.437 979.585 738.653C989.044 729.87 1001.07 725.411 1015.53 725.546ZM1035.26 770.949C1033.64 758.382 1029.99 747.842 1024.45 739.059C1018.91 730.275 1012.29 726.627 1004.85 727.843C998.774 728.789 994.45 733.518 991.612 741.761C988.909 750.004 988.369 760.409 990.125 773.111C991.882 785.678 995.531 796.488 1000.8 805.541C1006.21 814.595 1012.42 819.46 1019.58 820C1026.75 820.676 1031.74 816.487 1034.31 807.704C1037.01 798.785 1037.28 786.488 1035.26 770.949Z" fill="#55142E" fill-opacity="0.3"/>
<path d="M948.784 772.165C948.784 782.3 946.757 791.218 942.568 798.65C934.461 813.649 920.948 820.676 904.327 821.352H898.246H848.52C850.546 821.352 852.709 821.082 857.168 819.46C861.627 817.838 864.87 813.109 864.87 806.488V741.626C864.87 735.005 861.627 730.276 857.168 728.654C852.709 727.033 850.546 726.762 848.52 726.762H897.706C931.758 725.817 948.784 740.951 948.784 772.165ZM904.598 819.595C917.705 817.974 926.083 800.947 925.677 771.219C925.407 743.924 915.813 729.735 897.03 728.519C896.084 728.384 894.598 728.384 892.301 728.384C890.139 728.384 888.652 728.384 887.707 728.519V804.731C887.707 814.731 891.355 819.73 898.652 819.73C902.165 819.73 904.192 819.73 904.598 819.595Z" fill="#55142E" fill-opacity="0.3"/>
<path d="M795.156 725.546C810.696 725.546 822.993 731.627 829.884 740.95C836.911 750.274 840.289 761.76 840.154 774.192C839.748 798.785 823.668 822.973 790.967 822.568C775.428 822.432 762.591 815.541 755.429 805.812C748.267 796.083 744.484 784.462 744.889 773.111C745.024 758.922 749.889 747.437 759.212 738.653C768.671 729.87 780.698 725.411 795.156 725.546ZM814.885 770.949C813.263 758.382 809.615 747.842 804.075 739.059C798.535 730.275 791.913 726.627 784.481 727.843C778.401 728.789 774.076 733.518 771.239 741.761C768.536 750.004 767.996 760.409 769.752 773.111C771.509 785.678 775.157 796.488 780.427 805.541C785.833 814.595 792.048 819.46 799.21 820C806.372 820.676 811.372 816.487 813.939 807.704C816.642 798.785 816.912 786.488 814.885 770.949Z" fill="#55142E" fill-opacity="0.3"/>
<path d="M721.643 731.087L721.778 756.626C719.481 751.086 714.887 745.275 708.265 739.195C703.401 734.871 698.942 731.628 692.591 729.06C686.24 726.358 681.105 726.628 675.159 729.33C669.889 732.438 668.268 738.249 669.889 744.735C672.051 752.843 678.808 757.437 692.861 760.68C722.048 767.572 732.048 779.463 728.129 800.543C724.751 818.65 708.13 824.19 692.32 823.92C676.51 823.649 663.538 820.406 653.674 814.055V782.165C657.322 789.868 662.592 797.3 669.214 804.191C675.97 811.083 683.132 815.812 690.834 818.109C702.725 821.623 716.238 821.352 717.724 810.272C718.4 805.002 716.508 800.408 712.049 796.219C707.725 792.03 699.347 788.246 686.915 784.868C662.592 778.382 654.349 767.436 655.971 750.005C656.782 741.492 660.565 735.276 667.457 731.087C674.348 726.898 682.861 724.871 693.131 725.006C698.401 725.141 703.266 725.682 707.995 726.628C712.725 727.574 716.238 728.655 718.4 729.601L721.643 731.087Z" fill="#55142E" fill-opacity="0.3"/>
<path d="M623.677 871.763H653.675C645.702 873.519 639.081 879.195 633.676 888.519L618.947 915.274C617.19 918.652 616.245 923.517 616.245 930.138V951.353C616.245 957.434 618.812 962.163 622.19 963.92C625.839 965.676 627.73 966.217 629.757 966.352H581.517C583.273 966.352 585.571 965.812 588.814 964.055C592.192 962.298 594.759 957.839 594.759 951.893L594.894 933.921C594.894 927.3 593.543 921.76 590.976 917.571L572.193 886.762C565.707 876.357 557.599 871.763 553.41 871.763L601.516 871.898C593.813 872.033 589.76 879.195 593.948 886.897L609.353 913.247C612.461 918.787 615.569 918.517 618.812 912.436L631.919 888.924C636.919 879.87 633.946 872.979 623.677 871.763Z" fill="#55142E" fill-opacity="0.3"/>
<path d="M540.217 889.059V948.785C540.217 956.217 543.325 961.487 547.244 963.649C551.163 965.676 553.73 966.352 555.352 966.352H502.246C503.868 966.352 506.435 965.676 510.354 963.649C514.273 961.487 517.381 956.217 517.381 948.785V902.572C517.381 895.815 516.975 892.302 516.165 892.167C514.948 892.032 513.867 893.518 511.705 899.058L482.788 970L443.601 898.383C439.682 890.681 437.52 889.735 437.25 895.545V897.167L436.98 943.921C436.98 952.434 440.628 958.785 444.412 961.623C446.304 962.974 448.466 964.055 451.033 964.866C456.033 966.487 457.519 966.352 458.735 966.352H413.873C415.089 966.352 416.711 966.487 421.44 964.866C428.197 962.704 434.818 957.028 435.223 943.651V893.653C435.223 876.492 421.035 872.573 417.657 871.898L417.116 871.763H454.546L485.085 927.435C488.193 932.976 489.95 936.083 490.625 936.624C491.842 937.84 493.328 936.894 494.814 933.786C495.355 932.84 495.896 931.489 496.571 929.868L520.759 871.763H556.027C555.217 871.763 540.352 872.709 540.217 889.059Z" fill="#55142E" fill-opacity="0.3"/>
<path d="M361.856 870.546C377.395 870.546 389.692 876.627 396.583 885.95C403.61 895.274 406.988 906.76 406.853 919.192C406.448 943.785 390.367 967.973 357.667 967.568C342.127 967.432 329.29 960.541 322.128 950.812C314.966 941.083 311.183 929.462 311.588 918.111C311.723 903.922 316.588 892.437 325.912 883.653C335.371 874.87 347.397 870.411 361.856 870.546ZM381.584 915.949C379.963 903.382 376.314 892.842 370.774 884.059C365.234 875.275 358.613 871.627 351.181 872.843C345.1 873.789 340.776 878.518 337.938 886.761C335.235 895.004 334.695 905.409 336.452 918.111C338.208 930.678 341.857 941.488 347.127 950.541C352.532 959.595 358.748 964.46 365.909 965C373.071 965.676 378.071 961.487 380.638 952.704C383.341 943.785 383.611 931.488 381.584 915.949Z" fill="#55142E" fill-opacity="0.3"/>
<path d="M295.11 917.165C295.11 927.3 293.083 936.218 288.895 943.65C280.787 958.649 267.274 965.676 250.653 966.352H244.573H194.846C196.873 966.352 199.035 966.082 203.494 964.46C207.953 962.838 211.196 958.109 211.196 951.488V886.626C211.196 880.005 207.953 875.276 203.494 873.654C199.035 872.033 196.873 871.762 194.846 871.762H244.032C278.084 870.817 295.11 885.951 295.11 917.165ZM250.924 964.595C264.031 962.974 272.409 945.947 272.004 916.219C271.733 888.924 262.139 874.735 243.357 873.519C242.411 873.384 240.924 873.384 238.627 873.384C236.465 873.384 234.979 873.384 234.033 873.519V949.731C234.033 959.731 237.681 964.73 244.978 964.73C248.491 964.73 250.518 964.73 250.924 964.595Z" fill="#55142E" fill-opacity="0.3"/>
<path d="M141.483 870.546C157.022 870.546 169.319 876.627 176.21 885.95C183.237 895.274 186.615 906.76 186.48 919.192C186.075 943.785 169.994 967.973 137.294 967.568C121.754 967.432 108.917 960.541 101.755 950.812C94.5933 941.083 90.8097 929.462 91.2151 918.111C91.3502 903.922 96.2148 892.437 105.539 883.653C114.998 874.87 127.024 870.411 141.483 870.546ZM161.211 915.949C159.59 903.382 155.941 892.842 150.401 884.059C144.861 875.275 138.239 871.627 130.807 872.843C124.727 873.789 120.403 878.518 117.565 886.761C114.862 895.004 114.322 905.409 116.079 918.111C117.835 930.678 121.484 941.488 126.754 950.541C132.159 959.595 138.375 964.46 145.536 965C152.698 965.676 157.698 961.487 160.265 952.704C162.968 943.785 163.238 931.488 161.211 915.949Z" fill="#55142E" fill-opacity="0.3"/>
<path d="M67.9692 876.087L68.1043 901.626C65.8071 896.086 61.2128 890.275 54.5916 884.195C49.727 879.871 45.2677 876.628 38.9167 874.06C32.5658 871.358 27.4309 871.628 21.4853 874.33C16.2153 877.438 14.5938 883.249 16.2153 889.735C18.3774 897.843 25.1337 902.437 39.187 905.68C68.3746 912.572 78.374 924.463 74.4553 945.543C71.0771 963.65 54.4564 969.19 38.6465 968.92C22.8366 968.649 9.86431 965.406 0 959.055V927.165C3.64845 934.868 8.91842 942.3 15.5397 949.191C22.2961 956.083 29.4578 960.812 37.1601 963.109C49.0513 966.623 62.5641 966.352 64.0505 955.272C64.7261 950.002 62.8343 945.408 58.3751 941.219C54.051 937.03 45.6731 933.246 33.2414 929.868C8.91842 923.382 0.675638 912.436 2.29717 895.005C3.10794 886.492 6.89151 880.276 13.783 876.087C20.6745 871.898 29.1876 869.871 39.4573 870.006C44.7272 870.141 49.5918 870.682 54.3213 871.628C59.0508 872.574 62.5641 873.655 64.7261 874.601L67.9692 876.087Z" fill="#55142E" fill-opacity="0.3"/>
<path d="M1277.68 1.7627H1307.67C1299.7 3.51936 1293.08 9.19471 1287.68 18.5185L1272.95 45.2738C1271.19 48.652 1270.24 53.5166 1270.24 60.1378V81.3529C1270.24 87.4336 1272.81 92.1631 1276.19 93.9197C1279.84 95.6764 1281.73 96.2169 1283.76 96.352H1235.52C1237.27 96.352 1239.57 95.8115 1242.81 94.0549C1246.19 92.2982 1248.76 87.839 1248.76 81.8934L1248.89 63.9214C1248.89 57.3002 1247.54 51.7599 1244.98 47.571L1226.19 16.7619C1219.71 6.35704 1211.6 1.7627 1207.41 1.7627L1255.52 1.89782C1247.81 2.03296 1243.76 9.19472 1247.95 16.897L1263.35 43.2469C1266.46 48.7871 1269.57 48.5169 1272.81 42.4361L1285.92 18.9239C1290.92 9.87035 1287.95 2.97884 1277.68 1.7627Z" fill="#A12256" fill-opacity="0.2"/>
<path d="M1194.22 19.059V78.7854C1194.22 86.2174 1197.33 91.4874 1201.24 93.6495C1205.16 95.6764 1207.73 96.352 1209.35 96.352H1156.25C1157.87 96.352 1160.44 95.6764 1164.35 93.6495C1168.27 91.4874 1171.38 86.2174 1171.38 78.7854V32.5718C1171.38 25.8154 1170.98 22.3021 1170.16 22.167C1168.95 22.0318 1167.87 23.5182 1165.71 29.0585L1136.79 100L1097.6 28.3828C1093.68 20.6806 1091.52 19.7347 1091.25 25.5452V27.1667L1090.98 73.9208C1090.98 82.4339 1094.63 88.7849 1098.41 91.6226C1100.3 92.9738 1102.47 94.0549 1105.03 94.8656C1110.03 96.4872 1111.52 96.352 1112.74 96.352H1067.87C1069.09 96.352 1070.71 96.4872 1075.44 94.8656C1082.2 92.7036 1088.82 87.0282 1089.22 73.6506V23.6534C1089.22 6.49217 1075.03 2.57347 1071.66 1.89782L1071.12 1.7627H1108.55L1139.09 57.4353C1142.19 62.9755 1143.95 66.0834 1144.63 66.6239C1145.84 67.8401 1147.33 66.8942 1148.81 63.7863C1149.35 62.8404 1149.9 61.4891 1150.57 59.8676L1174.76 1.7627H1210.03C1209.22 1.7627 1194.35 2.70859 1194.22 19.059Z" fill="#A12256" fill-opacity="0.2"/>
<path d="M1015.86 0.54595C1031.4 0.54595 1043.69 6.62669 1050.58 15.9505C1057.61 25.2743 1060.99 36.7602 1060.85 49.1919C1060.45 73.7851 1044.37 97.9729 1011.67 97.5676C996.127 97.4324 983.29 90.5409 976.128 80.8117C968.966 71.0826 965.183 59.4616 965.588 48.1109C965.723 33.9225 970.588 22.4366 979.912 13.6533C989.371 4.87003 1001.4 0.410824 1015.86 0.54595ZM1035.58 45.9488C1033.96 33.382 1030.31 22.842 1024.77 14.0587C1019.23 5.27542 1012.61 1.62697 1005.18 2.84312C999.1 3.78901 994.776 8.51848 991.938 16.7613C989.235 25.004 988.695 35.4089 990.452 48.1109C992.208 60.6777 995.857 71.4879 1001.13 80.5415C1006.53 89.595 1012.75 94.4596 1019.91 95.0001C1027.07 95.6758 1032.07 91.4868 1034.64 82.7035C1037.34 73.7851 1037.61 61.4885 1035.58 45.9488Z" fill="#A12256" fill-opacity="0.2"/>
<path d="M949.11 47.1653C949.11 57.2999 947.083 66.2183 942.895 73.6503C934.787 88.6495 921.274 95.6761 904.653 96.3518H898.573H848.846C850.873 96.3518 853.035 96.0815 857.494 94.46C861.953 92.8384 865.196 88.109 865.196 81.4877V16.6265C865.196 10.0052 861.953 5.27576 857.494 3.65422C853.035 2.0327 850.873 1.76243 848.846 1.76243H898.032C932.084 0.816544 949.11 15.9508 949.11 47.1653ZM904.924 94.5951C918.031 92.9736 926.409 75.9475 926.004 46.2194C925.733 18.9236 916.139 4.73524 897.357 3.51909C896.411 3.38397 894.924 3.38397 892.627 3.38397C890.465 3.38397 888.979 3.38397 888.033 3.51909V79.7311C888.033 89.7305 891.681 94.7302 898.978 94.7302C902.491 94.7302 904.518 94.7302 904.924 94.5951Z" fill="#A12256" fill-opacity="0.2"/>
<path d="M795.483 0.54595C811.022 0.54595 823.319 6.62669 830.21 15.9505C837.237 25.2743 840.615 36.7602 840.48 49.1919C840.075 73.7851 823.994 97.9729 791.294 97.5676C775.754 97.4324 762.917 90.5409 755.755 80.8117C748.593 71.0826 744.81 59.4616 745.215 48.1109C745.35 33.9225 750.215 22.4366 759.539 13.6533C768.998 4.87003 781.024 0.410824 795.483 0.54595ZM815.211 45.9488C813.59 33.382 809.941 22.842 804.401 14.0587C798.861 5.27542 792.239 1.62697 784.807 2.84312C778.727 3.78901 774.403 8.51848 771.565 16.7613C768.862 25.004 768.322 35.4089 770.079 48.1109C771.835 60.6777 775.484 71.4879 780.754 80.5415C786.159 89.595 792.375 94.4596 799.536 95.0001C806.698 95.6758 811.698 91.4868 814.265 82.7035C816.968 73.7851 817.238 61.4885 815.211 45.9488Z" fill="#A12256" fill-opacity="0.2"/>
<path d="M721.969 6.08708L722.104 31.6262C719.807 26.086 715.213 20.2755 708.592 14.1947C703.727 9.87065 699.268 6.62759 692.917 4.06017C686.566 1.35762 681.431 1.62787 675.485 4.33042C670.215 7.43835 668.594 13.2488 670.215 19.735C672.377 27.8426 679.134 32.437 693.187 35.68C722.375 42.5715 732.374 54.4628 728.455 75.5427C725.077 93.6498 708.456 99.19 692.646 98.9197C676.837 98.6495 663.864 95.4064 654 89.0554V57.1653C657.648 64.8676 662.918 72.2996 669.54 79.1911C676.296 86.0826 683.458 90.8121 691.16 93.1093C703.051 96.6226 716.564 96.3523 718.05 85.2719C718.726 80.0019 716.834 75.4075 712.375 71.2186C708.051 67.0296 699.673 63.2461 687.241 59.8679C662.918 53.3817 654.676 42.4364 656.297 25.0049C657.108 16.4919 660.892 10.276 667.783 6.08708C674.675 1.89812 683.188 -0.128792 693.457 0.00633396C698.727 0.141468 703.592 0.681979 708.321 1.62787C713.051 2.57377 716.564 3.65478 718.726 4.60068L721.969 6.08708Z" fill="#A12256" fill-opacity="0.2"/>
<path d="M623.677 146.763H653.675C645.702 148.519 639.081 154.195 633.676 163.519L618.947 190.274C617.19 193.652 616.245 198.517 616.245 205.138V226.353C616.245 232.434 618.812 237.163 622.19 238.92C625.839 240.676 627.73 241.217 629.757 241.352H581.517C583.273 241.352 585.571 240.812 588.814 239.055C592.192 237.298 594.759 232.839 594.759 226.893L594.894 208.921C594.894 202.3 593.543 196.76 590.976 192.571L572.193 161.762C565.707 151.357 557.599 146.763 553.41 146.763L601.516 146.898C593.813 147.033 589.76 154.195 593.948 161.897L609.353 188.247C612.461 193.787 615.569 193.517 618.812 187.436L631.919 163.924C636.919 154.87 633.946 147.979 623.677 146.763Z" fill="#A12256" fill-opacity="0.2"/>
<path d="M540.217 164.059V223.785C540.217 231.217 543.325 236.487 547.244 238.649C551.163 240.676 553.73 241.352 555.352 241.352H502.246C503.868 241.352 506.435 240.676 510.354 238.649C514.273 236.487 517.381 231.217 517.381 223.785V177.572C517.381 170.815 516.975 167.302 516.165 167.167C514.948 167.032 513.867 168.518 511.705 174.058L482.788 245L443.601 173.383C439.682 165.681 437.52 164.735 437.25 170.545V172.167L436.98 218.921C436.98 227.434 440.628 233.785 444.412 236.623C446.304 237.974 448.466 239.055 451.033 239.866C456.033 241.487 457.519 241.352 458.735 241.352H413.873C415.089 241.352 416.711 241.487 421.44 239.866C428.197 237.704 434.818 232.028 435.223 218.651V168.653C435.223 151.492 421.035 147.573 417.657 146.898L417.116 146.763H454.546L485.085 202.435C488.193 207.976 489.95 211.083 490.625 211.624C491.842 212.84 493.328 211.894 494.814 208.786C495.355 207.84 495.896 206.489 496.571 204.868L520.759 146.763H556.027C555.217 146.763 540.352 147.709 540.217 164.059Z" fill="#A12256" fill-opacity="0.2"/>
<path d="M361.856 145.546C377.395 145.546 389.692 151.627 396.583 160.95C403.61 170.274 406.988 181.76 406.853 194.192C406.448 218.785 390.367 242.973 357.667 242.568C342.127 242.432 329.29 235.541 322.128 225.812C314.966 216.083 311.183 204.462 311.588 193.111C311.723 178.922 316.588 167.437 325.912 158.653C335.371 149.87 347.397 145.411 361.856 145.546ZM381.584 190.949C379.963 178.382 376.314 167.842 370.774 159.059C365.234 150.275 358.613 146.627 351.181 147.843C345.1 148.789 340.776 153.518 337.938 161.761C335.235 170.004 334.695 180.409 336.452 193.111C338.208 205.678 341.857 216.488 347.127 225.541C352.532 234.595 358.748 239.46 365.909 240C373.071 240.676 378.071 236.487 380.638 227.704C383.341 218.785 383.611 206.488 381.584 190.949Z" fill="#A12256" fill-opacity="0.2"/>
<path d="M295.11 192.165C295.11 202.3 293.083 211.218 288.895 218.65C280.787 233.649 267.274 240.676 250.653 241.352H244.573H194.846C196.873 241.352 199.035 241.082 203.494 239.46C207.953 237.838 211.196 233.109 211.196 226.488V161.626C211.196 155.005 207.953 150.276 203.494 148.654C199.035 147.033 196.873 146.762 194.846 146.762H244.032C278.084 145.817 295.11 160.951 295.11 192.165ZM250.924 239.595C264.031 237.974 272.409 220.947 272.004 191.219C271.733 163.924 262.139 149.735 243.357 148.519C242.411 148.384 240.924 148.384 238.627 148.384C236.465 148.384 234.979 148.384 234.033 148.519V224.731C234.033 234.731 237.681 239.73 244.978 239.73C248.491 239.73 250.518 239.73 250.924 239.595Z" fill="#A12256" fill-opacity="0.2"/>
<path d="M141.483 145.546C157.022 145.546 169.319 151.627 176.21 160.95C183.237 170.274 186.615 181.76 186.48 194.192C186.075 218.785 169.994 242.973 137.294 242.568C121.754 242.432 108.917 235.541 101.755 225.812C94.5933 216.083 90.8097 204.462 91.2151 193.111C91.3502 178.922 96.2148 167.437 105.539 158.653C114.998 149.87 127.024 145.411 141.483 145.546ZM161.211 190.949C159.59 178.382 155.941 167.842 150.401 159.059C144.861 150.275 138.239 146.627 130.807 147.843C124.727 148.789 120.403 153.518 117.565 161.761C114.862 170.004 114.322 180.409 116.079 193.111C117.835 205.678 121.484 216.488 126.754 225.541C132.159 234.595 138.375 239.46 145.536 240C152.698 240.676 157.698 236.487 160.265 227.704C162.968 218.785 163.238 206.488 161.211 190.949Z" fill="#A12256" fill-opacity="0.2"/>
<path d="M67.9692 151.087L68.1043 176.626C65.8071 171.086 61.2128 165.275 54.5916 159.195C49.727 154.871 45.2677 151.628 38.9167 149.06C32.5658 146.358 27.4309 146.628 21.4853 149.33C16.2153 152.438 14.5938 158.249 16.2153 164.735C18.3774 172.843 25.1337 177.437 39.187 180.68C68.3746 187.572 78.374 199.463 74.4553 220.543C71.0771 238.65 54.4564 244.19 38.6465 243.92C22.8366 243.649 9.86431 240.406 0 234.055V202.165C3.64845 209.868 8.91842 217.3 15.5397 224.191C22.2961 231.083 29.4578 235.812 37.1601 238.109C49.0513 241.623 62.5641 241.352 64.0505 230.272C64.7261 225.002 62.8343 220.408 58.3751 216.219C54.051 212.03 45.6731 208.246 33.2414 204.868C8.91842 198.382 0.675638 187.436 2.29717 170.005C3.10794 161.492 6.89151 155.276 13.783 151.087C20.6745 146.898 29.1876 144.871 39.4573 145.006C44.7272 145.141 49.5918 145.682 54.3213 146.628C59.0508 147.574 62.5641 148.655 64.7261 149.601L67.9692 151.087Z" fill="#A12256" fill-opacity="0.2"/>
<path d="M1277.68 291.763H1307.67C1299.7 293.519 1293.08 299.195 1287.68 308.519L1272.95 335.274C1271.19 338.652 1270.24 343.517 1270.24 350.138V371.353C1270.24 377.434 1272.81 382.163 1276.19 383.92C1279.84 385.676 1281.73 386.217 1283.76 386.352H1235.52C1237.27 386.352 1239.57 385.812 1242.81 384.055C1246.19 382.298 1248.76 377.839 1248.76 371.893L1248.89 353.921C1248.89 347.3 1247.54 341.76 1244.98 337.571L1226.19 306.762C1219.71 296.357 1211.6 291.763 1207.41 291.763L1255.52 291.898C1247.81 292.033 1243.76 299.195 1247.95 306.897L1263.35 333.247C1266.46 338.787 1269.57 338.517 1272.81 332.436L1285.92 308.924C1290.92 299.87 1287.95 292.979 1277.68 291.763Z" fill="#A12256" fill-opacity="0.2"/>
<path d="M1194.22 309.059V368.785C1194.22 376.217 1197.33 381.487 1201.24 383.649C1205.16 385.676 1207.73 386.352 1209.35 386.352H1156.25C1157.87 386.352 1160.44 385.676 1164.35 383.649C1168.27 381.487 1171.38 376.217 1171.38 368.785V322.572C1171.38 315.815 1170.98 312.302 1170.16 312.167C1168.95 312.032 1167.87 313.518 1165.71 319.058L1136.79 390L1097.6 318.383C1093.68 310.681 1091.52 309.735 1091.25 315.545V317.167L1090.98 363.921C1090.98 372.434 1094.63 378.785 1098.41 381.623C1100.3 382.974 1102.47 384.055 1105.03 384.866C1110.03 386.487 1111.52 386.352 1112.74 386.352H1067.87C1069.09 386.352 1070.71 386.487 1075.44 384.866C1082.2 382.704 1088.82 377.028 1089.22 363.651V313.653C1089.22 296.492 1075.03 292.573 1071.66 291.898L1071.12 291.763H1108.55L1139.09 347.435C1142.19 352.976 1143.95 356.083 1144.63 356.624C1145.84 357.84 1147.33 356.894 1148.81 353.786C1149.35 352.84 1149.9 351.489 1150.57 349.868L1174.76 291.763H1210.03C1209.22 291.763 1194.35 292.709 1194.22 309.059Z" fill="#A12256" fill-opacity="0.2"/>
<path d="M1015.86 290.546C1031.4 290.546 1043.69 296.627 1050.58 305.95C1057.61 315.274 1060.99 326.76 1060.85 339.192C1060.45 363.785 1044.37 387.973 1011.67 387.568C996.127 387.432 983.29 380.541 976.128 370.812C968.966 361.083 965.183 349.462 965.588 338.111C965.723 323.922 970.588 312.437 979.912 303.653C989.371 294.87 1001.4 290.411 1015.86 290.546ZM1035.58 335.949C1033.96 323.382 1030.31 312.842 1024.77 304.059C1019.23 295.275 1012.61 291.627 1005.18 292.843C999.1 293.789 994.776 298.518 991.938 306.761C989.235 315.004 988.695 325.409 990.452 338.111C992.208 350.678 995.857 361.488 1001.13 370.541C1006.53 379.595 1012.75 384.46 1019.91 385C1027.07 385.676 1032.07 381.487 1034.64 372.704C1037.34 363.785 1037.61 351.488 1035.58 335.949Z" fill="#A12256" fill-opacity="0.2"/>
<path d="M949.11 337.165C949.11 347.3 947.083 356.218 942.895 363.65C934.787 378.649 921.274 385.676 904.653 386.352H898.573H848.846C850.873 386.352 853.035 386.082 857.494 384.46C861.953 382.838 865.196 378.109 865.196 371.488V306.626C865.196 300.005 861.953 295.276 857.494 293.654C853.035 292.033 850.873 291.762 848.846 291.762H898.032C932.084 290.817 949.11 305.951 949.11 337.165ZM904.924 384.595C918.031 382.974 926.409 365.947 926.004 336.219C925.733 308.924 916.139 294.735 897.357 293.519C896.411 293.384 894.924 293.384 892.627 293.384C890.465 293.384 888.979 293.384 888.033 293.519V369.731C888.033 379.731 891.681 384.73 898.978 384.73C902.491 384.73 904.518 384.73 904.924 384.595Z" fill="#A12256" fill-opacity="0.2"/>
<path d="M795.483 290.546C811.022 290.546 823.319 296.627 830.21 305.95C837.237 315.274 840.615 326.76 840.48 339.192C840.075 363.785 823.994 387.973 791.294 387.568C775.754 387.432 762.917 380.541 755.755 370.812C748.593 361.083 744.81 349.462 745.215 338.111C745.35 323.922 750.215 312.437 759.539 303.653C768.998 294.87 781.024 290.411 795.483 290.546ZM815.211 335.949C813.59 323.382 809.941 312.842 804.401 304.059C798.861 295.275 792.239 291.627 784.807 292.843C778.727 293.789 774.403 298.518 771.565 306.761C768.862 315.004 768.322 325.409 770.079 338.111C771.835 350.678 775.484 361.488 780.754 370.541C786.159 379.595 792.375 384.46 799.536 385C806.698 385.676 811.698 381.487 814.265 372.704C816.968 363.785 817.238 351.488 815.211 335.949Z" fill="#A12256" fill-opacity="0.2"/>
<path d="M721.969 296.087L722.104 321.626C719.807 316.086 715.213 310.275 708.592 304.195C703.727 299.871 699.268 296.628 692.917 294.06C686.566 291.358 681.431 291.628 675.485 294.33C670.215 297.438 668.594 303.249 670.215 309.735C672.377 317.843 679.134 322.437 693.187 325.68C722.375 332.572 732.374 344.463 728.455 365.543C725.077 383.65 708.456 389.19 692.646 388.92C676.837 388.649 663.864 385.406 654 379.055V347.165C657.648 354.868 662.918 362.3 669.54 369.191C676.296 376.083 683.458 380.812 691.16 383.109C703.051 386.623 716.564 386.352 718.05 375.272C718.726 370.002 716.834 365.408 712.375 361.219C708.051 357.03 699.673 353.246 687.241 349.868C662.918 343.382 654.676 332.436 656.297 315.005C657.108 306.492 660.892 300.276 667.783 296.087C674.675 291.898 683.188 289.871 693.457 290.006C698.727 290.141 703.592 290.682 708.321 291.628C713.051 292.574 716.564 293.655 718.726 294.601L721.969 296.087Z" fill="#A12256" fill-opacity="0.2"/>
<path d="M623.677 436.763H653.675C645.702 438.519 639.081 444.195 633.676 453.519L618.947 480.274C617.19 483.652 616.245 488.517 616.245 495.138V516.353C616.245 522.434 618.812 527.163 622.19 528.92C625.839 530.676 627.73 531.217 629.757 531.352H581.517C583.273 531.352 585.571 530.812 588.814 529.055C592.192 527.298 594.759 522.839 594.759 516.893L594.894 498.921C594.894 492.3 593.543 486.76 590.976 482.571L572.193 451.762C565.707 441.357 557.599 436.763 553.41 436.763L601.516 436.898C593.813 437.033 589.76 444.195 593.948 451.897L609.353 478.247C612.461 483.787 615.569 483.517 618.812 477.436L631.919 453.924C636.919 444.87 633.946 437.979 623.677 436.763Z" fill="#A12256" fill-opacity="0.2"/>
<path d="M540.217 454.059V513.785C540.217 521.217 543.325 526.487 547.244 528.649C551.163 530.676 553.73 531.352 555.352 531.352H502.246C503.868 531.352 506.435 530.676 510.354 528.649C514.273 526.487 517.381 521.217 517.381 513.785V467.572C517.381 460.815 516.975 457.302 516.165 457.167C514.948 457.032 513.867 458.518 511.705 464.058L482.788 535L443.601 463.383C439.682 455.681 437.52 454.735 437.25 460.545V462.167L436.98 508.921C436.98 517.434 440.628 523.785 444.412 526.623C446.304 527.974 448.466 529.055 451.033 529.866C456.033 531.487 457.519 531.352 458.735 531.352H413.873C415.089 531.352 416.711 531.487 421.44 529.866C428.197 527.704 434.818 522.028 435.223 508.651V458.653C435.223 441.492 421.035 437.573 417.657 436.898L417.116 436.763H454.546L485.085 492.435C488.193 497.976 489.95 501.083 490.625 501.624C491.842 502.84 493.328 501.894 494.814 498.786C495.355 497.84 495.896 496.489 496.571 494.868L520.759 436.763H556.027C555.217 436.763 540.352 437.709 540.217 454.059Z" fill="#A12256" fill-opacity="0.2"/>
<path d="M361.856 435.546C377.395 435.546 389.692 441.627 396.583 450.95C403.61 460.274 406.988 471.76 406.853 484.192C406.448 508.785 390.367 532.973 357.667 532.568C342.127 532.432 329.29 525.541 322.128 515.812C314.966 506.083 311.183 494.462 311.588 483.111C311.723 468.922 316.588 457.437 325.912 448.653C335.371 439.87 347.397 435.411 361.856 435.546ZM381.584 480.949C379.963 468.382 376.314 457.842 370.774 449.059C365.234 440.275 358.613 436.627 351.181 437.843C345.1 438.789 340.776 443.518 337.938 451.761C335.235 460.004 334.695 470.409 336.452 483.111C338.208 495.678 341.857 506.488 347.127 515.541C352.532 524.595 358.748 529.46 365.909 530C373.071 530.676 378.071 526.487 380.638 517.704C383.341 508.785 383.611 496.488 381.584 480.949Z" fill="#A12256" fill-opacity="0.2"/>
<path d="M295.11 482.165C295.11 492.3 293.083 501.218 288.895 508.65C280.787 523.649 267.274 530.676 250.653 531.352H244.573H194.846C196.873 531.352 199.035 531.082 203.494 529.46C207.953 527.838 211.196 523.109 211.196 516.488V451.626C211.196 445.005 207.953 440.276 203.494 438.654C199.035 437.033 196.873 436.762 194.846 436.762H244.032C278.084 435.817 295.11 450.951 295.11 482.165ZM250.924 529.595C264.031 527.974 272.409 510.947 272.004 481.219C271.733 453.924 262.139 439.735 243.357 438.519C242.411 438.384 240.924 438.384 238.627 438.384C236.465 438.384 234.979 438.384 234.033 438.519V514.731C234.033 524.731 237.681 529.73 244.978 529.73C248.491 529.73 250.518 529.73 250.924 529.595Z" fill="#A12256" fill-opacity="0.2"/>
<path d="M141.483 435.546C157.022 435.546 169.319 441.627 176.21 450.95C183.237 460.274 186.615 471.76 186.48 484.192C186.075 508.785 169.994 532.973 137.294 532.568C121.754 532.432 108.917 525.541 101.755 515.812C94.5933 506.083 90.8097 494.462 91.2151 483.111C91.3502 468.922 96.2148 457.437 105.539 448.653C114.998 439.87 127.024 435.411 141.483 435.546ZM161.211 480.949C159.59 468.382 155.941 457.842 150.401 449.059C144.861 440.275 138.239 436.627 130.807 437.843C124.727 438.789 120.403 443.518 117.565 451.761C114.862 460.004 114.322 470.409 116.079 483.111C117.835 495.678 121.484 506.488 126.754 515.541C132.159 524.595 138.375 529.46 145.536 530C152.698 530.676 157.698 526.487 160.265 517.704C162.968 508.785 163.238 496.488 161.211 480.949Z" fill="#A12256" fill-opacity="0.2"/>
<path d="M67.9692 441.087L68.1043 466.626C65.8071 461.086 61.2128 455.275 54.5916 449.195C49.727 444.871 45.2677 441.628 38.9167 439.06C32.5658 436.358 27.4309 436.628 21.4853 439.33C16.2153 442.438 14.5938 448.249 16.2153 454.735C18.3774 462.843 25.1337 467.437 39.187 470.68C68.3746 477.572 78.374 489.463 74.4553 510.543C71.0771 528.65 54.4564 534.19 38.6465 533.92C22.8366 533.649 9.86431 530.406 0 524.055V492.165C3.64845 499.868 8.91842 507.3 15.5397 514.191C22.2961 521.083 29.4578 525.812 37.1601 528.109C49.0513 531.623 62.5641 531.352 64.0505 520.272C64.7261 515.002 62.8343 510.408 58.3751 506.219C54.051 502.03 45.6731 498.246 33.2414 494.868C8.91842 488.382 0.675638 477.436 2.29717 460.005C3.10794 451.492 6.89151 445.276 13.783 441.087C20.6745 436.898 29.1876 434.871 39.4573 435.006C44.7272 435.141 49.5918 435.682 54.3213 436.628C59.0508 437.574 62.5641 438.655 64.7261 439.601L67.9692 441.087Z" fill="#A12256" fill-opacity="0.2"/>
<path d="M1277.68 581.763H1307.67C1299.7 583.519 1293.08 589.195 1287.68 598.519L1272.95 625.274C1271.19 628.652 1270.24 633.517 1270.24 640.138V661.353C1270.24 667.434 1272.81 672.163 1276.19 673.92C1279.84 675.676 1281.73 676.217 1283.76 676.352H1235.52C1237.27 676.352 1239.57 675.812 1242.81 674.055C1246.19 672.298 1248.76 667.839 1248.76 661.893L1248.89 643.921C1248.89 637.3 1247.54 631.76 1244.98 627.571L1226.19 596.762C1219.71 586.357 1211.6 581.763 1207.41 581.763L1255.52 581.898C1247.81 582.033 1243.76 589.195 1247.95 596.897L1263.35 623.247C1266.46 628.787 1269.57 628.517 1272.81 622.436L1285.92 598.924C1290.92 589.87 1287.95 582.979 1277.68 581.763Z" fill="#A12256" fill-opacity="0.2"/>
<path d="M1194.22 599.059V658.785C1194.22 666.217 1197.33 671.487 1201.24 673.649C1205.16 675.676 1207.73 676.352 1209.35 676.352H1156.25C1157.87 676.352 1160.44 675.676 1164.35 673.649C1168.27 671.487 1171.38 666.217 1171.38 658.785V612.572C1171.38 605.815 1170.98 602.302 1170.16 602.167C1168.95 602.032 1167.87 603.518 1165.71 609.058L1136.79 680L1097.6 608.383C1093.68 600.681 1091.52 599.735 1091.25 605.545V607.167L1090.98 653.921C1090.98 662.434 1094.63 668.785 1098.41 671.623C1100.3 672.974 1102.47 674.055 1105.03 674.866C1110.03 676.487 1111.52 676.352 1112.74 676.352H1067.87C1069.09 676.352 1070.71 676.487 1075.44 674.866C1082.2 672.704 1088.82 667.028 1089.22 653.651V603.653C1089.22 586.492 1075.03 582.573 1071.66 581.898L1071.12 581.763H1108.55L1139.09 637.435C1142.19 642.976 1143.95 646.083 1144.63 646.624C1145.84 647.84 1147.33 646.894 1148.81 643.786C1149.35 642.84 1149.9 641.489 1150.57 639.868L1174.76 581.763H1210.03C1209.22 581.763 1194.35 582.709 1194.22 599.059Z" fill="#A12256" fill-opacity="0.2"/>
<path d="M1015.86 580.546C1031.4 580.546 1043.69 586.627 1050.58 595.95C1057.61 605.274 1060.99 616.76 1060.85 629.192C1060.45 653.785 1044.37 677.973 1011.67 677.568C996.127 677.432 983.29 670.541 976.128 660.812C968.966 651.083 965.183 639.462 965.588 628.111C965.723 613.922 970.588 602.437 979.912 593.653C989.371 584.87 1001.4 580.411 1015.86 580.546ZM1035.58 625.949C1033.96 613.382 1030.31 602.842 1024.77 594.059C1019.23 585.275 1012.61 581.627 1005.18 582.843C999.1 583.789 994.776 588.518 991.938 596.761C989.235 605.004 988.695 615.409 990.452 628.111C992.208 640.678 995.857 651.488 1001.13 660.541C1006.53 669.595 1012.75 674.46 1019.91 675C1027.07 675.676 1032.07 671.487 1034.64 662.704C1037.34 653.785 1037.61 641.488 1035.58 625.949Z" fill="#A12256" fill-opacity="0.2"/>
<path d="M949.11 627.165C949.11 637.3 947.083 646.218 942.895 653.65C934.787 668.649 921.274 675.676 904.653 676.352H898.573H848.846C850.873 676.352 853.035 676.082 857.494 674.46C861.953 672.838 865.196 668.109 865.196 661.488V596.626C865.196 590.005 861.953 585.276 857.494 583.654C853.035 582.033 850.873 581.762 848.846 581.762H898.032C932.084 580.817 949.11 595.951 949.11 627.165ZM904.924 674.595C918.031 672.974 926.409 655.947 926.004 626.219C925.733 598.924 916.139 584.735 897.357 583.519C896.411 583.384 894.924 583.384 892.627 583.384C890.465 583.384 888.979 583.384 888.033 583.519V659.731C888.033 669.731 891.681 674.73 898.978 674.73C902.491 674.73 904.518 674.73 904.924 674.595Z" fill="#A12256" fill-opacity="0.2"/>
<path d="M795.483 580.546C811.022 580.546 823.319 586.627 830.21 595.95C837.237 605.274 840.615 616.76 840.48 629.192C840.075 653.785 823.994 677.973 791.294 677.568C775.754 677.432 762.917 670.541 755.755 660.812C748.593 651.083 744.81 639.462 745.215 628.111C745.35 613.922 750.215 602.437 759.539 593.653C768.998 584.87 781.024 580.411 795.483 580.546ZM815.211 625.949C813.59 613.382 809.941 602.842 804.401 594.059C798.861 585.275 792.239 581.627 784.807 582.843C778.727 583.789 774.403 588.518 771.565 596.761C768.862 605.004 768.322 615.409 770.079 628.111C771.835 640.678 775.484 651.488 780.754 660.541C786.159 669.595 792.375 674.46 799.536 675C806.698 675.676 811.698 671.487 814.265 662.704C816.968 653.785 817.238 641.488 815.211 625.949Z" fill="#A12256" fill-opacity="0.2"/>
<path d="M721.969 586.087L722.104 611.626C719.807 606.086 715.213 600.275 708.592 594.195C703.727 589.871 699.268 586.628 692.917 584.06C686.566 581.358 681.431 581.628 675.485 584.33C670.215 587.438 668.594 593.249 670.215 599.735C672.377 607.843 679.134 612.437 693.187 615.68C722.375 622.572 732.374 634.463 728.455 655.543C725.077 673.65 708.456 679.19 692.646 678.92C676.837 678.649 663.864 675.406 654 669.055V637.165C657.648 644.868 662.918 652.3 669.54 659.191C676.296 666.083 683.458 670.812 691.16 673.109C703.051 676.623 716.564 676.352 718.05 665.272C718.726 660.002 716.834 655.408 712.375 651.219C708.051 647.03 699.673 643.246 687.241 639.868C662.918 633.382 654.676 622.436 656.297 605.005C657.108 596.492 660.892 590.276 667.783 586.087C674.675 581.898 683.188 579.871 693.457 580.006C698.727 580.141 703.592 580.682 708.321 581.628C713.051 582.574 716.564 583.655 718.726 584.601L721.969 586.087Z" fill="#A12256" fill-opacity="0.2"/>
<path d="M623.677 726.763H653.675C645.702 728.519 639.081 734.195 633.676 743.519L618.947 770.274C617.19 773.652 616.245 778.517 616.245 785.138V806.353C616.245 812.434 618.812 817.163 622.19 818.92C625.839 820.676 627.73 821.217 629.757 821.352H581.517C583.273 821.352 585.571 820.812 588.814 819.055C592.192 817.298 594.759 812.839 594.759 806.893L594.894 788.921C594.894 782.3 593.543 776.76 590.976 772.571L572.193 741.762C565.707 731.357 557.599 726.763 553.41 726.763L601.516 726.898C593.813 727.033 589.76 734.195 593.948 741.897L609.353 768.247C612.461 773.787 615.569 773.517 618.812 767.436L631.919 743.924C636.919 734.87 633.946 727.979 623.677 726.763Z" fill="#A12256" fill-opacity="0.2"/>
<path d="M540.217 744.059V803.785C540.217 811.217 543.325 816.487 547.244 818.649C551.163 820.676 553.73 821.352 555.352 821.352H502.246C503.868 821.352 506.435 820.676 510.354 818.649C514.273 816.487 517.381 811.217 517.381 803.785V757.572C517.381 750.815 516.975 747.302 516.165 747.167C514.948 747.032 513.867 748.518 511.705 754.058L482.788 825L443.601 753.383C439.682 745.681 437.52 744.735 437.25 750.545V752.167L436.98 798.921C436.98 807.434 440.628 813.785 444.412 816.623C446.304 817.974 448.466 819.055 451.033 819.866C456.033 821.487 457.519 821.352 458.735 821.352H413.873C415.089 821.352 416.711 821.487 421.44 819.866C428.197 817.704 434.818 812.028 435.223 798.651V748.653C435.223 731.492 421.035 727.573 417.657 726.898L417.116 726.763H454.546L485.085 782.435C488.193 787.976 489.95 791.083 490.625 791.624C491.842 792.84 493.328 791.894 494.814 788.786C495.355 787.84 495.896 786.489 496.571 784.868L520.759 726.763H556.027C555.217 726.763 540.352 727.709 540.217 744.059Z" fill="#A12256" fill-opacity="0.2"/>
<path d="M361.856 725.546C377.395 725.546 389.692 731.627 396.583 740.95C403.61 750.274 406.988 761.76 406.853 774.192C406.448 798.785 390.367 822.973 357.667 822.568C342.127 822.432 329.29 815.541 322.128 805.812C314.966 796.083 311.183 784.462 311.588 773.111C311.723 758.922 316.588 747.437 325.912 738.653C335.371 729.87 347.397 725.411 361.856 725.546ZM381.584 770.949C379.963 758.382 376.314 747.842 370.774 739.059C365.234 730.275 358.613 726.627 351.181 727.843C345.1 728.789 340.776 733.518 337.938 741.761C335.235 750.004 334.695 760.409 336.452 773.111C338.208 785.678 341.857 796.488 347.127 805.541C352.532 814.595 358.748 819.46 365.909 820C373.071 820.676 378.071 816.487 380.638 807.704C383.341 798.785 383.611 786.488 381.584 770.949Z" fill="#A12256" fill-opacity="0.2"/>
<path d="M295.11 772.165C295.11 782.3 293.083 791.218 288.895 798.65C280.787 813.649 267.274 820.676 250.653 821.352H244.573H194.846C196.873 821.352 199.035 821.082 203.494 819.46C207.953 817.838 211.196 813.109 211.196 806.488V741.626C211.196 735.005 207.953 730.276 203.494 728.654C199.035 727.033 196.873 726.762 194.846 726.762H244.032C278.084 725.817 295.11 740.951 295.11 772.165ZM250.924 819.595C264.031 817.974 272.409 800.947 272.004 771.219C271.733 743.924 262.139 729.735 243.357 728.519C242.411 728.384 240.924 728.384 238.627 728.384C236.465 728.384 234.979 728.384 234.033 728.519V804.731C234.033 814.731 237.681 819.73 244.978 819.73C248.491 819.73 250.518 819.73 250.924 819.595Z" fill="#A12256" fill-opacity="0.2"/>
<path d="M141.483 725.546C157.022 725.546 169.319 731.627 176.21 740.95C183.237 750.274 186.615 761.76 186.48 774.192C186.075 798.785 169.994 822.973 137.294 822.568C121.754 822.432 108.917 815.541 101.755 805.812C94.5933 796.083 90.8097 784.462 91.2151 773.111C91.3502 758.922 96.2148 747.437 105.539 738.653C114.998 729.87 127.024 725.411 141.483 725.546ZM161.211 770.949C159.59 758.382 155.941 747.842 150.401 739.059C144.861 730.275 138.239 726.627 130.807 727.843C124.727 728.789 120.403 733.518 117.565 741.761C114.862 750.004 114.322 760.409 116.079 773.111C117.835 785.678 121.484 796.488 126.754 805.541C132.159 814.595 138.375 819.46 145.536 820C152.698 820.676 157.698 816.487 160.265 807.704C162.968 798.785 163.238 786.488 161.211 770.949Z" fill="#A12256" fill-opacity="0.2"/>
<path d="M67.9692 731.087L68.1043 756.626C65.8071 751.086 61.2128 745.275 54.5916 739.195C49.727 734.871 45.2677 731.628 38.9167 729.06C32.5658 726.358 27.4309 726.628 21.4853 729.33C16.2153 732.438 14.5938 738.249 16.2153 744.735C18.3774 752.843 25.1337 757.437 39.187 760.68C68.3746 767.572 78.374 779.463 74.4553 800.543C71.0771 818.65 54.4564 824.19 38.6465 823.92C22.8366 823.649 9.86431 820.406 0 814.055V782.165C3.64845 789.868 8.91842 797.3 15.5397 804.191C22.2961 811.083 29.4578 815.812 37.1601 818.109C49.0513 821.623 62.5641 821.352 64.0505 810.272C64.7261 805.002 62.8343 800.408 58.3751 796.219C54.051 792.03 45.6731 788.246 33.2414 784.868C8.91842 778.382 0.675638 767.436 2.29717 750.005C3.10794 741.492 6.89151 735.276 13.783 731.087C20.6745 726.898 29.1876 724.871 39.4573 725.006C44.7272 725.141 49.5918 725.682 54.3213 726.628C59.0508 727.574 62.5641 728.655 64.7261 729.601L67.9692 731.087Z" fill="#A12256" fill-opacity="0.2"/>
<path d="M1277.68 871.763H1307.67C1299.7 873.519 1293.08 879.195 1287.68 888.519L1272.95 915.274C1271.19 918.652 1270.24 923.517 1270.24 930.138V951.353C1270.24 957.434 1272.81 962.163 1276.19 963.92C1279.84 965.676 1281.73 966.217 1283.76 966.352H1235.52C1237.27 966.352 1239.57 965.812 1242.81 964.055C1246.19 962.298 1248.76 957.839 1248.76 951.893L1248.89 933.921C1248.89 927.3 1247.54 921.76 1244.98 917.571L1226.19 886.762C1219.71 876.357 1211.6 871.763 1207.41 871.763L1255.52 871.898C1247.81 872.033 1243.76 879.195 1247.95 886.897L1263.35 913.247C1266.46 918.787 1269.57 918.517 1272.81 912.436L1285.92 888.924C1290.92 879.87 1287.95 872.979 1277.68 871.763Z" fill="#A12256" fill-opacity="0.2"/>
<path d="M1194.22 889.059V948.785C1194.22 956.217 1197.33 961.487 1201.24 963.649C1205.16 965.676 1207.73 966.352 1209.35 966.352H1156.25C1157.87 966.352 1160.44 965.676 1164.35 963.649C1168.27 961.487 1171.38 956.217 1171.38 948.785V902.572C1171.38 895.815 1170.98 892.302 1170.16 892.167C1168.95 892.032 1167.87 893.518 1165.71 899.058L1136.79 970L1097.6 898.383C1093.68 890.681 1091.52 889.735 1091.25 895.545V897.167L1090.98 943.921C1090.98 952.434 1094.63 958.785 1098.41 961.623C1100.3 962.974 1102.47 964.055 1105.03 964.866C1110.03 966.487 1111.52 966.352 1112.74 966.352H1067.87C1069.09 966.352 1070.71 966.487 1075.44 964.866C1082.2 962.704 1088.82 957.028 1089.22 943.651V893.653C1089.22 876.492 1075.03 872.573 1071.66 871.898L1071.12 871.763H1108.55L1139.09 927.435C1142.19 932.976 1143.95 936.083 1144.63 936.624C1145.84 937.84 1147.33 936.894 1148.81 933.786C1149.35 932.84 1149.9 931.489 1150.57 929.868L1174.76 871.763H1210.03C1209.22 871.763 1194.35 872.709 1194.22 889.059Z" fill="#A12256" fill-opacity="0.2"/>
<path d="M1015.86 870.546C1031.4 870.546 1043.69 876.627 1050.58 885.95C1057.61 895.274 1060.99 906.76 1060.85 919.192C1060.45 943.785 1044.37 967.973 1011.67 967.568C996.127 967.432 983.29 960.541 976.128 950.812C968.966 941.083 965.183 929.462 965.588 918.111C965.723 903.922 970.588 892.437 979.912 883.653C989.371 874.87 1001.4 870.411 1015.86 870.546ZM1035.58 915.949C1033.96 903.382 1030.31 892.842 1024.77 884.059C1019.23 875.275 1012.61 871.627 1005.18 872.843C999.1 873.789 994.776 878.518 991.938 886.761C989.235 895.004 988.695 905.409 990.452 918.111C992.208 930.678 995.857 941.488 1001.13 950.541C1006.53 959.595 1012.75 964.46 1019.91 965C1027.07 965.676 1032.07 961.487 1034.64 952.704C1037.34 943.785 1037.61 931.488 1035.58 915.949Z" fill="#A12256" fill-opacity="0.2"/>
<path d="M949.11 917.165C949.11 927.3 947.083 936.218 942.895 943.65C934.787 958.649 921.274 965.676 904.653 966.352H898.573H848.846C850.873 966.352 853.035 966.082 857.494 964.46C861.953 962.838 865.196 958.109 865.196 951.488V886.626C865.196 880.005 861.953 875.276 857.494 873.654C853.035 872.033 850.873 871.762 848.846 871.762H898.032C932.084 870.817 949.11 885.951 949.11 917.165ZM904.924 964.595C918.031 962.974 926.409 945.947 926.004 916.219C925.733 888.924 916.139 874.735 897.357 873.519C896.411 873.384 894.924 873.384 892.627 873.384C890.465 873.384 888.979 873.384 888.033 873.519V949.731C888.033 959.731 891.681 964.73 898.978 964.73C902.491 964.73 904.518 964.73 904.924 964.595Z" fill="#A12256" fill-opacity="0.2"/>
<path d="M795.483 870.546C811.022 870.546 823.319 876.627 830.21 885.95C837.237 895.274 840.615 906.76 840.48 919.192C840.075 943.785 823.994 967.973 791.294 967.568C775.754 967.432 762.917 960.541 755.755 950.812C748.593 941.083 744.81 929.462 745.215 918.111C745.35 903.922 750.215 892.437 759.539 883.653C768.998 874.87 781.024 870.411 795.483 870.546ZM815.211 915.949C813.59 903.382 809.941 892.842 804.401 884.059C798.861 875.275 792.239 871.627 784.807 872.843C778.727 873.789 774.403 878.518 771.565 886.761C768.862 895.004 768.322 905.409 770.079 918.111C771.835 930.678 775.484 941.488 780.754 950.541C786.159 959.595 792.375 964.46 799.536 965C806.698 965.676 811.698 961.487 814.265 952.704C816.968 943.785 817.238 931.488 815.211 915.949Z" fill="#A12256" fill-opacity="0.2"/>
<path d="M721.969 876.087L722.104 901.626C719.807 896.086 715.213 890.275 708.592 884.195C703.727 879.871 699.268 876.628 692.917 874.06C686.566 871.358 681.431 871.628 675.485 874.33C670.215 877.438 668.594 883.249 670.215 889.735C672.377 897.843 679.134 902.437 693.187 905.68C722.375 912.572 732.374 924.463 728.455 945.543C725.077 963.65 708.456 969.19 692.646 968.92C676.837 968.649 663.864 965.406 654 959.055V927.165C657.648 934.868 662.918 942.3 669.54 949.191C676.296 956.083 683.458 960.812 691.16 963.109C703.051 966.623 716.564 966.352 718.05 955.272C718.726 950.002 716.834 945.408 712.375 941.219C708.051 937.03 699.673 933.246 687.241 929.868C662.918 923.382 654.676 912.436 656.297 895.005C657.108 886.492 660.892 880.276 667.783 876.087C674.675 871.898 683.188 869.871 693.457 870.006C698.727 870.141 703.592 870.682 708.321 871.628C713.051 872.574 716.564 873.655 718.726 874.601L721.969 876.087Z" fill="#A12256" fill-opacity="0.2"/>
</svg>
