<svg width="56" height="56" viewBox="0 0 56 56" fill="none" xmlns="http://www.w3.org/2000/svg">
<path d="M18.2 4.6665H37.8C45.2667 4.6665 51.3333 10.7332 51.3333 18.1998V37.7998C51.3333 41.3891 49.9075 44.8314 47.3695 47.3694C44.8315 49.9073 41.3893 51.3332 37.8 51.3332H18.2C10.7333 51.3332 4.66667 45.2665 4.66667 37.7998V18.1998C4.66667 14.6106 6.0925 11.1683 8.63049 8.63033C11.1685 6.09233 14.6107 4.6665 18.2 4.6665ZM17.7333 9.33317C15.5055 9.33317 13.3689 10.2182 11.7936 11.7935C10.2183 13.3688 9.33334 15.5054 9.33334 17.7332V38.2665C9.33334 42.9098 13.09 46.6665 17.7333 46.6665H38.2667C40.4945 46.6665 42.6311 45.7815 44.2064 44.2062C45.7817 42.6309 46.6667 40.4943 46.6667 38.2665V17.7332C46.6667 13.0898 42.91 9.33317 38.2667 9.33317H17.7333ZM40.25 12.8332C41.0236 12.8332 41.7654 13.1405 42.3124 13.6874C42.8594 14.2344 43.1667 14.9763 43.1667 15.7498C43.1667 16.5234 42.8594 17.2653 42.3124 17.8122C41.7654 18.3592 41.0236 18.6665 40.25 18.6665C39.4765 18.6665 38.7346 18.3592 38.1876 17.8122C37.6406 17.2653 37.3333 16.5234 37.3333 15.7498C37.3333 14.9763 37.6406 14.2344 38.1876 13.6874C38.7346 13.1405 39.4765 12.8332 40.25 12.8332ZM28 16.3332C31.0942 16.3332 34.0617 17.5623 36.2496 19.7503C38.4375 21.9382 39.6667 24.9056 39.6667 27.9998C39.6667 31.094 38.4375 34.0615 36.2496 36.2494C34.0617 38.4373 31.0942 39.6665 28 39.6665C24.9058 39.6665 21.9384 38.4373 19.7504 36.2494C17.5625 34.0615 16.3333 31.094 16.3333 27.9998C16.3333 24.9056 17.5625 21.9382 19.7504 19.7503C21.9384 17.5623 24.9058 16.3332 28 16.3332ZM28 20.9998C26.1435 20.9998 24.363 21.7373 23.0503 23.0501C21.7375 24.3628 21 26.1433 21 27.9998C21 29.8564 21.7375 31.6368 23.0503 32.9496C24.363 34.2623 26.1435 34.9998 28 34.9998C29.8565 34.9998 31.637 34.2623 32.9498 32.9496C34.2625 31.6368 35 29.8564 35 27.9998C35 26.1433 34.2625 24.3628 32.9498 23.0501C31.637 21.7373 29.8565 20.9998 28 20.9998Z" fill="white"/>
</svg>
