<svg width="56" height="56" viewBox="0 0 56 56" fill="none" xmlns="http://www.w3.org/2000/svg">
<path d="M23.3334 35.0003L35.4434 28.0003L23.3334 21.0003V35.0003ZM50.3067 16.7303C50.61 17.827 50.82 19.297 50.96 21.1637C51.1234 23.0303 51.1934 24.6403 51.1934 26.0403L51.3334 28.0003C51.3334 33.1103 50.96 36.867 50.3067 39.2703C49.7234 41.3703 48.37 42.7237 46.27 43.307C45.1734 43.6103 43.1667 43.8203 40.0867 43.9603C37.0534 44.1237 34.2767 44.1937 31.71 44.1937L28 44.3337C18.2234 44.3337 12.1334 43.9603 9.73002 43.307C7.63002 42.7237 6.27669 41.3703 5.69335 39.2703C5.39002 38.1737 5.18002 36.7037 5.04002 34.837C4.87669 32.9703 4.80669 31.3603 4.80669 29.9603L4.66669 28.0003C4.66669 22.8903 5.04002 19.1337 5.69335 16.7303C6.27669 14.6303 7.63002 13.277 9.73002 12.6937C10.8267 12.3903 12.8334 12.1803 15.9134 12.0403C18.9467 11.877 21.7234 11.807 24.29 11.807L28 11.667C37.7767 11.667 43.8667 12.0403 46.27 12.6937C48.37 13.277 49.7234 14.6303 50.3067 16.7303Z" fill="white"/>
</svg>
