<svg width="40" height="40" viewBox="0 0 40 40" fill="none" xmlns="http://www.w3.org/2000/svg">
<g clip-path="url(#clip0_929_1917)">
<path d="M28.8888 13.7112C27.6979 12.9616 26.7165 11.9222 26.0364 10.6902C25.3563 9.45826 24.9997 8.07396 24.9999 6.66675H4.35549C4.15609 6.66982 3.95802 6.69972 3.7666 6.75564L19.8222 22.7445L28.8888 13.7112Z" fill="white"/>
<path d="M33.3334 14.9999C32.5815 14.9934 31.834 14.885 31.1112 14.6777L21.4334 24.3221C21.0171 24.736 20.4538 24.9683 19.8668 24.9683C19.2797 24.9683 18.7164 24.736 18.3001 24.3221L2.22231 8.33325C2.17302 8.51441 2.14689 8.70108 2.14453 8.88881V31.111C2.14453 31.7004 2.37866 32.2656 2.79541 32.6824C3.21215 33.0991 3.77738 33.3333 4.36675 33.3333H35.4779C36.0672 33.3333 36.6325 33.0991 37.0492 32.6824C37.466 32.2656 37.7001 31.7004 37.7001 31.111V13.7666C36.3878 14.5764 34.8754 15.0036 33.3334 14.9999ZM5.88898 31.111H4.34453V29.5221L12.4223 21.511L13.989 23.0777L5.88898 31.111ZM35.4556 31.111H33.9001L25.8001 23.0777L27.3668 21.511L35.4445 29.5221L35.4556 31.111Z" fill="white"/>
<path d="M33.3334 12.2222C36.4016 12.2222 38.8889 9.73489 38.8889 6.66664C38.8889 3.59839 36.4016 1.11108 33.3334 1.11108C30.2651 1.11108 27.7778 3.59839 27.7778 6.66664C27.7778 9.73489 30.2651 12.2222 33.3334 12.2222Z" fill="#E6347C"/>
</g>
<defs>
<clipPath id="clip0_929_1917">
<rect width="40" height="40" fill="white"/>
</clipPath>
</defs>
</svg>
