<svg width="618" height="978" viewBox="0 0 618 978" fill="none" xmlns="http://www.w3.org/2000/svg">
<path d="M216.051 116.444C232.907 106.419 251.941 100.635 271.52 99.5882C296.468 97.9918 321.444 102.245 344.46 112.011C370.879 123.083 391.362 144.394 417.804 155.579C445.756 167.716 476.716 171.136 506.64 165.391C517.351 163.186 527.745 159.647 537.578 154.859C591.158 128.731 608.539 73.8433 609.416 70.9178C615.902 48.8419 616.753 25.49 611.889 3C611.889 3 603.682 81.7648 517.207 106.857C507.944 109.535 497.286 109.468 487.775 109.49C459.752 109.351 431.91 104.981 405.19 96.5276C382.458 89.5063 358.872 81.5848 334.971 80.7746C315.606 80.0851 296.222 81.4429 277.142 84.8254C260.597 87.6878 244.342 92.0336 228.575 97.8103C209.958 88.9435 193.76 75.7001 181.365 59.2102C168.969 42.7203 160.743 23.4736 157.39 3.11253C152.525 25.5635 153.368 48.8773 159.84 70.9178C165.72 88.1117 174.621 104.116 186.125 118.177C184.933 118.919 183.696 119.594 182.505 120.427L178.93 122.678C173.286 126.323 169.239 129.226 166.946 130.824C118.964 164.58 93.4441 210.534 90.3637 270.845C82.2019 386.315 137.334 462.964 305.809 503.832C398.715 526.336 460.951 553.904 494.678 586.625C528.36 618.296 543.671 655.053 540.614 696.896C538.23 729.662 524.02 759.03 495.645 776.763C466.415 795.127 426.932 801.518 393.071 796.319C373.988 793.595 355.676 786.944 339.288 776.786C326.765 768.887 315.028 759.772 302.257 752.233C297.289 749.266 292.129 746.634 286.81 744.357C258.884 732.238 227.959 728.819 198.064 734.545C187.328 736.738 176.91 740.277 167.058 745.077C124.675 765.736 104.979 804.353 98.1433 821.074L97.8735 820.579C93.7573 812.495 86.9269 806.12 78.5819 802.575C72.2047 799.883 65.3963 798.358 58.4808 798.075C47.6017 797.224 36.7679 800.209 27.8571 806.514C8.94773 820.241 1.95508 839.505 3.12427 862.144C3.75383 874.701 8.74536 885.931 15.3783 896.373C21.5615 906.095 28.2843 915.502 34.7823 925.043C44.7878 939.739 52.9047 955.289 56.1874 973C56.6146 975.25 57.6039 975.498 59.4926 974.26C64.9113 970.682 70.1952 966.879 75.8388 963.728C86.2132 958.307 97.2163 954.188 108.599 951.463C120.65 948.178 132.792 945.162 144.686 941.337C156.564 937.781 167.171 930.884 175.242 921.465C187.856 906.387 193.814 889.307 190.194 869.526C188.912 862.498 186.001 855.869 181.695 850.172C177.759 844.998 172.959 840.544 167.508 837.007C158.784 831.313 149.385 827.69 138.75 828.703C133.053 829.28 127.503 830.865 122.359 833.384C124.18 831.268 126.136 829.153 128.182 827.083C144.701 810.785 165.125 799.007 187.496 792.876C199.894 789.51 212.672 787.748 225.517 787.633C279.48 786.44 298.794 808.742 361.143 815.92C376.648 818.012 392.322 818.547 407.933 817.518C446.449 814.773 484.627 799.515 517.275 779.464C565.256 749.826 593.857 701.801 600.984 637.417C620.388 494.335 547.898 415.66 344.662 370.697C235.41 347.18 182.302 305.299 169.037 238.867C159.84 189.065 176.164 140.973 216.051 116.444Z" fill="#1C0912" stroke="#1F0812" stroke-width="5.51" stroke-linecap="round" stroke-linejoin="round"/>
</svg>
