<svg width="92" height="24" viewBox="0 0 92 24" fill="#fff" xmlns="http://www.w3.org/2000/svg">
<g clip-path="url(#clip0_812_2766)">
<path d="M11.8393 6.561C11.4494 9.07427 9.49107 9.07426 7.59808 9.07426H6.52198L7.27787 4.37257C7.29928 4.23477 7.37046 4.10911 7.47842 4.01849C7.58638 3.92787 7.72394 3.87833 7.86602 3.8789H8.35833C9.64791 3.8789 10.8656 3.8789 11.493 4.60125C11.8676 5.03936 11.9809 5.67836 11.8393 6.561ZM11.0159 0H3.87528C3.63881 0.000223205 3.41017 0.0832076 3.23048 0.234031C3.0508 0.384855 2.93185 0.593623 2.89503 0.822796L8.14969e-07 18.7854C-0.0132405 18.8688 -0.00786672 18.9541 0.015751 19.0353C0.0393686 19.1165 0.0806674 19.1917 0.136795 19.2557C0.192923 19.3197 0.262543 19.371 0.340847 19.406C0.41915 19.441 0.504272 19.459 0.590334 19.4586H4.00599C4.24226 19.4589 4.47088 19.3764 4.65061 19.2259C4.83034 19.0754 4.94937 18.8669 4.98624 18.6379L5.76391 13.7931C5.80096 13.5624 5.92117 13.3525 6.10268 13.2015C6.28418 13.0505 6.51491 12.9684 6.75288 12.9703H9.00312C13.7084 12.9703 16.4226 10.737 17.1305 6.31095C17.4508 4.37471 17.1436 2.85521 16.22 1.78878C15.2049 0.619768 13.4056 0 11.0159 0Z" fill="#fff"/>
<path d="M27.5931 13.0086C27.4607 13.9133 26.9951 14.739 26.2842 15.3297C25.5734 15.9204 24.6666 16.2351 23.7353 16.2143C22.7419 16.2143 21.949 15.9023 21.4393 15.3103C20.9295 14.7183 20.7422 13.8913 20.9121 12.9509C21.0422 12.048 21.5028 11.2223 22.2079 10.6281C22.913 10.0339 23.8144 9.7117 24.7438 9.72172C25.7154 9.72172 26.5039 10.038 27.0246 10.6364C27.5452 11.2348 27.7434 12.0811 27.5931 13.0086ZM32.3593 6.47969H28.9393C28.7978 6.48007 28.6609 6.53 28.5535 6.62049C28.4461 6.71099 28.3751 6.83611 28.3534 6.97336L28.2009 7.91156L27.9613 7.57176C27.2206 6.51815 25.5651 6.16553 23.9226 6.16553C20.1453 6.16553 16.917 8.97372 16.2984 12.9103C15.9716 14.8765 16.4356 16.7572 17.5727 18.0651C18.614 19.2683 20.104 19.7748 21.8793 19.7748C22.7593 19.7833 23.632 19.6173 24.445 19.2867C25.2581 18.9562 25.9947 18.468 26.6107 17.8514L26.4582 18.7832C26.4446 18.8666 26.4497 18.9519 26.473 19.0332C26.4964 19.1145 26.5374 19.1898 26.5933 19.2541C26.6493 19.3183 26.7187 19.3698 26.7969 19.4051C26.8752 19.4404 26.9603 19.4586 27.0464 19.4585H30.1265C30.363 19.4583 30.5917 19.3753 30.7713 19.2245C30.951 19.0736 31.07 18.8649 31.1068 18.6357L32.954 7.15502C32.9681 7.07102 32.9632 6.98501 32.9396 6.90308C32.916 6.82115 32.8744 6.7453 32.8177 6.68088C32.761 6.61646 32.6905 6.56506 32.6113 6.53029C32.5321 6.49552 32.4461 6.47825 32.3593 6.47969Z" fill="#fff"/>
<path d="M50.5703 6.47998H47.1329C46.9709 6.48065 46.8116 6.51991 46.6685 6.59436C46.5255 6.66882 46.403 6.77624 46.3116 6.90741L41.5737 13.7569L39.5653 7.17455C39.5032 6.97372 39.3769 6.7978 39.2051 6.67274C39.0333 6.54768 38.8251 6.4801 38.6112 6.47998H35.2347C35.14 6.48014 35.0466 6.50244 34.9624 6.54501C34.8782 6.58759 34.8055 6.64922 34.7504 6.72482C34.6952 6.80042 34.6592 6.88781 34.6454 6.97976C34.6315 7.07172 34.6401 7.16559 34.6705 7.25362L38.4565 18.153L34.8971 23.0812C34.8341 23.1688 34.7968 23.2716 34.7893 23.3785C34.7817 23.4854 34.8042 23.5923 34.8543 23.6875C34.9044 23.7827 34.9802 23.8626 35.0734 23.9185C35.1666 23.9744 35.2736 24.0041 35.3829 24.0045H38.8138C38.9751 24.0038 39.1338 23.9646 39.2762 23.8901C39.4185 23.8156 39.5402 23.7081 39.6306 23.577L51.0583 7.39254C51.1192 7.30509 51.1546 7.20303 51.1609 7.0973C51.1672 6.99157 51.144 6.88616 51.0939 6.79237C51.0437 6.69859 50.9685 6.61996 50.8763 6.56493C50.784 6.5099 50.6783 6.48053 50.5703 6.47998Z" fill="#fff"/>
<path d="M62.7691 6.561C62.3791 9.07426 60.423 9.07426 58.5278 9.07426H57.4517L58.2098 4.37257C58.2307 4.23495 58.3015 4.10932 58.4091 4.01867C58.5167 3.92801 58.6539 3.8784 58.7958 3.8789H59.2902C60.5777 3.8789 61.7954 3.8789 62.4249 4.60125C62.7996 5.03936 62.9128 5.67836 62.7691 6.561ZM61.9457 0H54.805C54.5685 0.000223205 54.3399 0.0832076 54.1602 0.234031C53.9805 0.384855 53.8616 0.593623 53.8248 0.822796L50.9363 18.7854C50.9231 18.8686 50.9284 18.9537 50.9519 19.0348C50.9754 19.1158 51.0165 19.1909 51.0724 19.2549C51.1283 19.3188 51.1976 19.3702 51.2756 19.4053C51.3537 19.4405 51.4386 19.4587 51.5244 19.4586H55.1884C55.3536 19.4585 55.5132 19.4005 55.6386 19.2951C55.7641 19.1897 55.847 19.0438 55.8724 18.8837L56.6937 13.7931C56.7296 13.5639 56.848 13.3549 57.0274 13.204C57.2068 13.053 57.4354 12.9701 57.6717 12.9703H59.9307C64.6359 12.9703 67.3501 10.737 68.0603 6.31095C68.3805 4.37471 68.0712 2.85521 67.1476 1.78878C66.1346 0.619768 64.3353 0 61.9457 0Z" fill="#fff"/>
<path d="M78.523 13.0086C78.3902 13.9131 77.9244 14.7386 77.2137 15.3292C76.5029 15.9198 75.5963 16.2346 74.6651 16.2143C73.674 16.2143 72.8789 15.9023 72.3692 15.3103C71.8594 14.7183 71.6677 13.8913 71.8311 12.9509C71.9616 12.0482 72.4223 11.2228 73.1273 10.6286C73.8323 10.0345 74.7335 9.71216 75.6628 9.72172C76.6344 9.72172 77.4229 10.038 77.9436 10.6364C78.4642 11.2348 78.6733 12.0811 78.523 13.0086ZM83.2892 6.47969H79.8714C79.7307 6.48072 79.595 6.53103 79.4888 6.62155C79.3825 6.71206 79.3127 6.83683 79.292 6.97336L79.1395 7.91156L78.8999 7.57176C78.1592 6.51815 76.5037 6.16553 74.8612 6.16553C71.0839 6.16553 67.8578 8.97372 67.237 12.9103C66.9124 14.8765 67.3742 16.7572 68.5113 18.0651C69.5547 19.2683 71.0425 19.7748 72.8179 19.7748C73.6979 19.7833 74.5706 19.6173 75.3836 19.2867C76.1967 18.9562 76.9333 18.468 77.5493 17.8514L77.3968 18.7832C77.3836 18.8667 77.389 18.952 77.4126 19.0333C77.4362 19.1146 77.4774 19.19 77.5335 19.2541C77.5896 19.3183 77.6592 19.3698 77.7375 19.4051C77.8158 19.4403 77.901 19.4586 77.9871 19.4585H81.0651C81.3016 19.4583 81.5302 19.3753 81.7099 19.2245C81.8896 19.0736 82.0086 18.8649 82.0454 18.6357L83.8926 7.15502C83.9064 7.07035 83.901 6.98373 83.8768 6.90134C83.8526 6.81895 83.8102 6.7428 83.7526 6.67832C83.695 6.61384 83.6236 6.56261 83.5435 6.52828C83.4634 6.49394 83.3766 6.47735 83.2892 6.47969Z" fill="#fff"/>
<path d="M87.3192 0.493678L84.3893 18.7854C84.3757 18.8685 84.3807 18.9535 84.4039 19.0346C84.4272 19.1156 84.468 19.1908 84.5238 19.2548C84.5795 19.3188 84.6487 19.3702 84.7267 19.4054C84.8046 19.4406 84.8895 19.4587 84.9753 19.4586H87.9226C88.1588 19.4589 88.3875 19.3764 88.5672 19.2259C88.7469 19.0754 88.866 18.8669 88.9028 18.6379L91.7913 0.68602C91.8066 0.601999 91.8029 0.51571 91.7805 0.433236C91.7581 0.350763 91.7176 0.274115 91.6617 0.208698C91.6058 0.143281 91.536 0.0906879 91.4571 0.0546285C91.3783 0.018569 91.2923 -7.88243e-05 91.2053 2.50434e-07H87.9051C87.7637 0.00081354 87.6271 0.0508947 87.5198 0.141313C87.4125 0.231732 87.3414 0.356609 87.3192 0.493678Z" fill="#fff"/>
</g>
<defs>
<clipPath id="clip0_812_2766">
<rect width="91.8" height="24" fill="#fff"/>
</clipPath>
</defs>
</svg>
