<svg width="92" height="24" viewBox="0 0 92 24" fill="none" xmlns="http://www.w3.org/2000/svg">
<g clip-path="url(#clip0_880_5284)">
<path d="M11.8392 6.561C11.4493 9.07427 9.49098 9.07426 7.59799 9.07426H6.52189L7.27778 4.37257C7.29919 4.23477 7.37037 4.10911 7.47833 4.01849C7.58629 3.92787 7.72385 3.87833 7.86593 3.8789H8.35824C9.64782 3.8789 10.8655 3.8789 11.4929 4.60125C11.8676 5.03936 11.9808 5.67836 11.8392 6.561ZM11.0158 0H3.87519C3.63872 0.000223205 3.41008 0.0832076 3.23039 0.234031C3.0507 0.384855 2.93176 0.593623 2.89494 0.822796L-9.07378e-05 18.7854C-0.013332 18.8688 -0.00795827 18.9541 0.0156594 19.0353C0.0392771 19.1165 0.0805759 19.1917 0.136704 19.2557C0.192832 19.3197 0.262452 19.371 0.340755 19.406C0.419059 19.441 0.504181 19.459 0.590242 19.4586H4.00589C4.24217 19.4589 4.47078 19.3764 4.65052 19.2259C4.83025 19.0754 4.94928 18.8669 4.98615 18.6379L5.76382 13.7931C5.80087 13.5624 5.92108 13.3525 6.10259 13.2015C6.28409 13.0505 6.51482 12.9684 6.75279 12.9703H9.00303C13.7083 12.9703 16.4225 10.737 17.1305 6.31095C17.4507 4.37471 17.1435 2.85521 16.2199 1.78878C15.2048 0.619768 13.4055 0 11.0158 0Z" fill="#253B80"/>
<path d="M27.5931 13.0087C27.4608 13.9134 26.9951 14.7391 26.2843 15.3298C25.5734 15.9205 24.6666 16.2352 23.7353 16.2144C22.742 16.2144 21.949 15.9024 21.4393 15.3104C20.9296 14.7185 20.7422 13.8914 20.9121 12.951C21.0422 12.0481 21.5028 11.2224 22.2079 10.6282C22.913 10.034 23.8144 9.71183 24.7439 9.72184C25.7154 9.72184 26.504 10.0381 27.0246 10.6365C27.5452 11.2349 27.7435 12.0812 27.5931 13.0087ZM32.3594 6.47981H28.9394C28.7978 6.48019 28.661 6.53012 28.5536 6.62061C28.4462 6.71111 28.3752 6.83623 28.3534 6.97349L28.2009 7.91169L27.9613 7.57188C27.2206 6.51828 25.5651 6.16565 23.9226 6.16565C20.1454 6.16565 16.9171 8.97384 16.2984 12.9104C15.9717 14.8766 16.4356 16.7573 17.5727 18.0652C18.614 19.2684 20.104 19.7749 21.8793 19.7749C22.7594 19.7834 23.6321 19.6174 24.4451 19.2869C25.2581 18.9563 25.9947 18.4681 26.6107 17.8515L26.4582 18.7833C26.4447 18.8667 26.4497 18.952 26.4731 19.0333C26.4964 19.1146 26.5374 19.19 26.5934 19.2542C26.6493 19.3184 26.7188 19.3699 26.797 19.4052C26.8752 19.4405 26.9603 19.4587 27.0464 19.4586H30.1266C30.363 19.4584 30.5917 19.3754 30.7714 19.2246C30.9511 19.0738 31.07 18.865 31.1068 18.6358L32.9541 7.15514C32.9681 7.07114 32.9632 6.98513 32.9396 6.9032C32.9161 6.82127 32.8745 6.74542 32.8177 6.681C32.761 6.61659 32.6906 6.56518 32.6114 6.53041C32.5321 6.49565 32.4461 6.47837 32.3594 6.47981Z" fill="#253B80"/>
<path d="M50.5704 6.47974H47.1329C46.971 6.48041 46.8117 6.51966 46.6686 6.59412C46.5256 6.66857 46.4031 6.776 46.3117 6.90716L41.5738 13.7567L39.5654 7.1743C39.5032 6.97348 39.377 6.79755 39.2052 6.67249C39.0334 6.54743 38.8252 6.47986 38.6112 6.47974H35.2348C35.14 6.4799 35.0467 6.50219 34.9625 6.54477C34.8782 6.58734 34.8056 6.64898 34.7504 6.72458C34.6953 6.80018 34.6593 6.88757 34.6454 6.97952C34.6315 7.07147 34.6402 7.16535 34.6706 7.25338L38.4566 18.1528L34.8971 23.081C34.8342 23.1685 34.7969 23.2714 34.7893 23.3783C34.7818 23.4852 34.8043 23.592 34.8544 23.6873C34.9045 23.7825 34.9803 23.8624 35.0735 23.9183C35.1667 23.9742 35.2737 24.0039 35.3829 24.0042H38.8138C38.9752 24.0036 39.1339 23.9643 39.2763 23.8898C39.4186 23.8153 39.5403 23.7079 39.6307 23.5768L51.0583 7.39229C51.1192 7.30484 51.1547 7.20278 51.161 7.09706C51.1672 6.99133 51.1441 6.88592 51.0939 6.79213C51.0438 6.69834 50.9685 6.61972 50.8763 6.56468C50.7841 6.50965 50.6783 6.48029 50.5704 6.47974Z" fill="#253B80"/>
<path d="M62.7691 6.561C62.3792 9.07426 60.423 9.07426 58.5279 9.07426H57.4518L58.2098 4.37257C58.2308 4.23495 58.3015 4.10932 58.4091 4.01867C58.5167 3.92801 58.654 3.8784 58.7958 3.8789H59.2903C60.5777 3.8789 61.7954 3.8789 62.425 4.60125C62.7996 5.03936 62.9129 5.67836 62.7691 6.561ZM61.9457 0H54.8051C54.5686 0.000223205 54.34 0.0832076 54.1603 0.234031C53.9806 0.384855 53.8616 0.593623 53.8248 0.822796L50.9363 18.7854C50.9231 18.8686 50.9285 18.9537 50.9519 19.0348C50.9754 19.1158 51.0165 19.1909 51.0724 19.2549C51.1283 19.3188 51.1977 19.3702 51.2757 19.4053C51.3537 19.4405 51.4386 19.4587 51.5245 19.4586H55.1885C55.3536 19.4585 55.5133 19.4005 55.6387 19.2951C55.7641 19.1897 55.847 19.0438 55.8725 18.8837L56.6937 13.7931C56.7296 13.5639 56.848 13.3549 57.0274 13.204C57.2069 13.053 57.4354 12.9701 57.6718 12.9703H59.9307C64.636 12.9703 67.3502 10.737 68.0603 6.31095C68.3806 4.37471 68.0712 2.85521 67.1476 1.78878C66.1347 0.619768 64.3354 0 61.9457 0Z" fill="#179BD7"/>
<path d="M78.523 13.0087C78.3901 13.9132 77.9244 14.7387 77.2136 15.3293C76.5029 15.9199 75.5963 16.2348 74.6651 16.2144C73.674 16.2144 72.8789 15.9024 72.3691 15.3104C71.8594 14.7185 71.6677 13.8914 71.8311 12.951C71.9616 12.0483 72.4223 11.2229 73.1273 10.6288C73.8323 10.0346 74.7335 9.71228 75.6628 9.72184C76.6343 9.72184 77.4229 10.0381 77.9435 10.6365C78.4642 11.2349 78.6733 12.0812 78.523 13.0087ZM83.2892 6.47981H79.8714C79.7307 6.48084 79.595 6.53115 79.4887 6.62167C79.3825 6.71218 79.3127 6.83695 79.2919 6.97349L79.1394 7.91169L78.8998 7.57188C78.1592 6.51828 76.5036 6.16565 74.8612 6.16565C71.0839 6.16565 67.8578 8.97384 67.2369 12.9104C66.9124 14.8766 67.3742 16.7573 68.5113 18.0652C69.5547 19.2684 71.0425 19.7749 72.8179 19.7749C73.6979 19.7834 74.5706 19.6174 75.3836 19.2869C76.1966 18.9563 76.9332 18.4681 77.5492 17.8515L77.3968 18.7833C77.3836 18.8668 77.3889 18.9522 77.4125 19.0335C77.4361 19.1148 77.4774 19.1901 77.5335 19.2542C77.5896 19.3184 77.6592 19.3699 77.7375 19.4052C77.8158 19.4405 77.9009 19.4587 77.9871 19.4586H81.0651C81.3016 19.4584 81.5302 19.3754 81.7099 19.2246C81.8896 19.0738 82.0085 18.865 82.0454 18.6358L83.8926 7.15514C83.9064 7.07047 83.901 6.98386 83.8768 6.90146C83.8526 6.81907 83.8102 6.74292 83.7526 6.67844C83.695 6.61396 83.6236 6.56273 83.5435 6.5284C83.4634 6.49407 83.3766 6.47748 83.2892 6.47981Z" fill="#179BD7"/>
<path d="M87.3191 0.493678L84.3893 18.7854C84.3757 18.8685 84.3807 18.9535 84.4039 19.0346C84.4271 19.1156 84.468 19.1908 84.5237 19.2548C84.5795 19.3188 84.6487 19.3702 84.7267 19.4054C84.8046 19.4406 84.8894 19.4587 84.9752 19.4586H87.9225C88.1588 19.4589 88.3874 19.3764 88.5672 19.2259C88.7469 19.0754 88.8659 18.8669 88.9028 18.6379L91.7913 0.68602C91.8066 0.601999 91.8029 0.51571 91.7805 0.433236C91.7581 0.350763 91.7175 0.274115 91.6617 0.208698C91.6058 0.143281 91.536 0.0906879 91.4571 0.0546285C91.3783 0.018569 91.2923 -7.88243e-05 91.2053 2.50434e-07H87.9051C87.7637 0.00081354 87.6271 0.0508947 87.5198 0.141313C87.4124 0.231732 87.3413 0.356609 87.3191 0.493678Z" fill="#179BD7"/>
</g>
<defs>
<clipPath id="clip0_880_5284">
<rect width="91.8" height="24" fill="white"/>
</clipPath>
</defs>
</svg>
