<svg width="200" height="59" viewBox="0 0 200 59" fill="none" xmlns="http://www.w3.org/2000/svg">
<path d="M8.12458 0.6H191.875C196.108 0.6 199.4 3.57465 199.4 7.06452V51.8064C199.4 55.2963 196.108 58.271 191.875 58.271H8.12458C3.89238 58.271 0.6 55.2963 0.6 51.8064V7.06452C0.6 3.57465 3.89238 0.6 8.12458 0.6Z" fill="#1F0812" stroke="#A6A6A6" stroke-width="1.2"/>
<path d="M45.2103 6.45166C32.856 6.45166 22.7352 15.9776 21.7734 28.0836L34.3786 33.2953C35.4467 32.5648 36.737 32.1368 38.1251 32.1368C38.2495 32.1368 38.3734 32.1411 38.4962 32.148L44.1018 24.0229C44.1018 23.9841 44.1013 23.9464 44.1013 23.9081C44.1013 19.0175 48.0796 15.0387 52.9707 15.0387C57.8612 15.0387 61.8395 19.0175 61.8395 23.9081C61.8395 28.7987 57.8612 32.778 52.9707 32.778C52.9031 32.778 52.8362 32.7764 52.7692 32.7748L44.7744 38.4793C44.7786 38.583 44.7823 38.6888 44.7823 38.794C44.7823 42.4655 41.7961 45.4512 38.1251 45.4512C34.9028 45.4512 32.2085 43.1514 31.5982 40.1056L22.5837 36.3788C25.3748 46.2503 34.444 53.4875 45.2103 53.4875C58.1993 53.4875 68.7285 42.9578 68.7285 29.9704C68.7285 16.9808 58.1988 6.45166 45.2103 6.45166Z" fill="white"/>
<path d="M36.51 42.1366L33.6211 40.943C34.1331 42.009 35.0188 42.9016 36.1948 43.3918C38.7371 44.4508 41.668 43.2445 42.7276 40.7001C43.2406 39.4699 43.2438 38.1115 42.735 36.8781C42.2273 35.6442 41.2693 34.6819 40.0375 34.1683C38.8152 33.6596 37.5058 33.6782 36.3553 34.1125L39.3394 35.3465C41.2145 36.128 42.1013 38.2811 41.3198 40.1562C40.5399 42.0318 38.3851 42.9186 36.51 42.1366Z" fill="white"/>
<path d="M58.88 23.908C58.88 20.6496 56.2292 17.9983 52.9703 17.9983C49.7118 17.9983 47.0605 20.6496 47.0605 23.908C47.0605 27.167 49.7118 29.8172 52.9703 29.8172C56.2292 29.8167 58.88 27.1664 58.88 23.908ZM48.5406 23.8979C48.5406 21.446 50.5284 19.4587 52.9804 19.4587C55.4323 19.4587 57.4201 21.446 57.4201 23.8979C57.4201 26.3498 55.4323 28.3371 52.9804 28.3371C50.5284 28.3371 48.5406 26.3493 48.5406 23.8979Z" fill="white"/>
<path d="M93.845 22.5429L92.2692 25.3127C91.0555 24.4648 89.4106 23.9544 87.9746 23.9544C86.3334 23.9544 85.318 24.6338 85.318 25.8508C85.318 27.3293 87.1219 27.6732 89.8029 28.6355C92.6849 29.6547 94.3415 30.8524 94.3415 33.492C94.3415 37.1035 91.5015 39.1317 87.4196 39.1317C85.4302 39.1317 83.0303 38.6181 81.1855 37.4958L82.335 34.4251C83.8337 35.2167 85.6263 35.6861 87.2245 35.6861C89.3787 35.6861 90.4026 34.8913 90.4026 33.7164C90.4026 32.3719 88.8412 31.9678 86.3207 31.1331C83.4482 30.1741 81.4577 28.9157 81.4577 25.9943C81.4577 22.6997 84.0963 20.8076 87.8927 20.8076C90.5387 20.8076 92.6653 21.646 93.845 22.5429Z" fill="white"/>
<path d="M106.162 24.2935V38.828H102.452V24.2935H97.0664V21.1111H111.532V24.2935H106.162Z" fill="white"/>
<path d="M119.354 24.2839V28.276H126.454V31.4584H119.354V35.6164H127.592V38.828H115.645V21.1111H127.592V24.2839H119.354Z" fill="white"/>
<path d="M135.873 35.3883L134.7 38.8285H130.811L137.453 21.1116H141.188L148.019 38.828H143.998L142.8 35.3877L135.873 35.3883ZM139.3 25.3376L136.88 32.4313H141.769L139.3 25.3376Z" fill="white"/>
<path d="M167.062 27.9592L162.213 38.3118H160.12L155.35 28.0517V38.828H151.797V21.1111H155.342L161.296 33.9002L167.039 21.1111H170.615V38.828H167.062L167.062 27.9592Z" fill="white"/>
<path d="M177.787 23.3463C177.787 24.8689 176.646 25.8179 175.337 25.8179C174.022 25.8179 172.879 24.8689 172.879 23.3463C172.879 21.8242 174.022 20.8816 175.337 20.8816C176.647 20.8816 177.787 21.8242 177.787 23.3463ZM173.291 23.3463C173.291 24.6201 174.209 25.4202 175.337 25.4202C176.461 25.4202 177.374 24.6201 177.374 23.3463C177.374 22.0687 176.461 21.2809 175.337 21.2809C174.212 21.2809 173.291 22.0783 173.291 23.3463ZM175.371 22.0868C176.006 22.0868 176.22 22.4228 176.22 22.7859C176.22 23.1187 176.022 23.342 175.782 23.4558L176.352 24.5228H175.885L175.405 23.577H174.91V24.5228H174.522V22.0868H175.371ZM174.914 23.2203H175.347C175.627 23.2203 175.792 23.0443 175.792 22.8231C175.792 22.5999 175.674 22.4563 175.346 22.4563H174.913V23.2203H174.914Z" fill="white"/>
</svg>
