<svg width="200" height="59" viewBox="0 0 200 59" fill="none" xmlns="http://www.w3.org/2000/svg">
<path d="M8.12458 0.6H191.875C196.108 0.6 199.4 3.57465 199.4 7.06452V51.8064C199.4 55.2963 196.108 58.271 191.875 58.271H8.12458C3.89238 58.271 0.6 55.2963 0.6 51.8064V7.06452C0.6 3.57465 3.89238 0.6 8.12458 0.6Z" fill="#1F0812" stroke="#A6A6A6" stroke-width="1.2"/>
<path d="M43.7613 28.5095C43.7207 23.6494 47.7274 21.2872 47.9034 21.1786C45.6293 17.8661 42.11 17.4045 40.8782 17.3638C37.9273 17.0516 35.0577 19.1422 33.5552 19.1422C32.0256 19.1422 29.6974 17.4045 27.2068 17.4453C23.9988 17.4996 20.9803 19.3595 19.3424 22.2647C15.9449 28.1701 18.4761 36.8586 21.7383 41.6373C23.3761 43.9723 25.2712 46.5924 27.7753 46.4974C30.2118 46.4024 31.1323 44.9362 34.0696 44.9362C36.9933 44.9362 37.8461 46.4974 40.3909 46.4431C43.0169 46.4024 44.6547 44.0945 46.2384 41.7323C48.1199 39.0579 48.878 36.4106 48.905 36.2749C48.8373 36.2477 43.8155 34.3199 43.7613 28.5095Z" fill="white"/>
<path d="M38.9554 14.2278C40.2684 12.5852 41.1618 10.3452 40.9182 8.06445C39.0231 8.14591 36.6408 9.3813 35.2736 10.9968C34.0689 12.4223 32.9861 14.7437 33.2568 16.9294C35.3955 17.0923 37.5883 15.8434 38.9554 14.2278Z" fill="white"/>
<path d="M79.1178 46.1581H75.7067L73.8388 40.2662H67.3415L65.5683 46.1581H62.252L68.6816 26.1067H72.6611L79.1178 46.1581ZM73.2838 37.7954L71.5918 32.5687C71.4158 32.0257 71.0774 30.7768 70.5901 28.7947H70.5224C70.3194 29.65 70.0081 30.9125 69.5749 32.5687L67.91 37.7954H73.2838Z" fill="white"/>
<path d="M95.6458 38.7592C95.6458 41.2164 94.9825 43.1577 93.6424 44.5832C92.4513 45.8593 90.9623 46.4838 89.2026 46.4838C87.294 46.4838 85.9269 45.805 85.0877 44.4338V52.0227H81.8796V36.4513C81.8796 34.9037 81.839 33.3289 81.7578 31.6998H84.5733L84.7493 33.9941H84.8034C85.8728 32.27 87.4971 31.4011 89.6628 31.4011C91.3684 31.4011 92.7761 32.0799 93.9131 33.4239C95.0772 34.7815 95.6458 36.5463 95.6458 38.7592ZM92.3836 38.8678C92.3836 37.4559 92.0722 36.302 91.4361 35.3924C90.7457 34.4421 89.8117 33.9669 88.6476 33.9669C87.8625 33.9669 87.1451 34.2385 86.4954 34.7543C85.8592 35.2838 85.4261 35.9626 85.2366 36.8179C85.1418 37.2115 85.0877 37.5374 85.0877 37.7953V40.2118C85.0877 41.2571 85.4125 42.1531 86.0487 42.8726C86.6849 43.5922 87.5241 43.9587 88.5529 43.9587C89.7576 43.9587 90.6916 43.4835 91.3684 42.5604C92.0452 41.6237 92.3836 40.4019 92.3836 38.8678Z" fill="white"/>
<path d="M112.214 38.7592C112.214 41.2164 111.551 43.1577 110.211 44.5832C109.02 45.8593 107.531 46.4838 105.771 46.4838C103.862 46.4838 102.495 45.805 101.656 44.4338V52.0227H98.448V36.4513C98.448 34.9037 98.4074 33.3289 98.3262 31.6998H101.142L101.318 33.9941H101.372C102.441 32.27 104.065 31.4011 106.231 31.4011C107.937 31.4011 109.344 32.0799 110.482 33.4239C111.646 34.7815 112.214 36.5463 112.214 38.7592ZM108.952 38.8678C108.952 37.4559 108.641 36.302 108.004 35.3924C107.314 34.4421 106.38 33.9669 105.216 33.9669C104.431 33.9669 103.714 34.2385 103.064 34.7543C102.428 35.2838 102.008 35.9626 101.805 36.8179C101.71 37.2115 101.656 37.5374 101.656 37.7953V40.2118C101.656 41.2571 101.981 42.1531 102.617 42.8726C103.253 43.5922 104.093 43.9587 105.121 43.9587C106.326 43.9587 107.273 43.4835 107.937 42.5604C108.627 41.6237 108.952 40.4019 108.952 38.8678Z" fill="white"/>
<path d="M130.758 40.5377C130.758 42.2482 130.163 43.6329 128.985 44.7054C127.686 45.8729 125.872 46.4567 123.544 46.4567C121.392 46.4567 119.673 46.0358 118.373 45.2077L119.118 42.5333C120.525 43.3614 122.068 43.7823 123.747 43.7823C124.952 43.7823 125.899 43.5107 126.562 42.9677C127.239 42.4247 127.578 41.6916 127.578 40.782C127.578 39.9675 127.293 39.2887 126.752 38.7321C126.197 38.1755 125.276 37.6596 123.99 37.1844C120.458 35.8676 118.711 33.9534 118.711 31.4419C118.711 29.7992 119.334 28.4552 120.566 27.3963C121.798 26.351 123.436 25.8215 125.479 25.8215C127.293 25.8215 128.809 26.1338 130.014 26.7718L129.202 29.3784C128.065 28.7675 126.792 28.4552 125.358 28.4552C124.234 28.4552 123.341 28.7403 122.705 29.2834C122.177 29.7857 121.906 30.383 121.906 31.1025C121.906 31.8899 122.217 32.5551 122.826 33.0574C123.354 33.5326 124.329 34.0484 125.737 34.605C127.456 35.2974 128.715 36.112 129.527 37.0487C130.352 37.9854 130.758 39.1529 130.758 40.5377Z" fill="white"/>
<path d="M141.371 34.1164H137.838V41.135C137.838 42.9134 138.461 43.8094 139.706 43.8094C140.275 43.8094 140.748 43.7551 141.127 43.6601L141.222 46.1037C140.586 46.3345 139.76 46.4567 138.731 46.4567C137.459 46.4567 136.484 46.063 135.767 45.2892C135.05 44.5154 134.698 43.2121 134.698 41.393V34.1028H132.6V31.6999H134.698V29.0526L137.838 28.1023V31.6999H141.371V34.1164Z" fill="white"/>
<path d="M157.261 38.8136C157.261 41.04 156.624 42.8592 155.366 44.2846C154.039 45.7508 152.279 46.4839 150.087 46.4839C147.975 46.4839 146.283 45.7779 145.024 44.3796C143.765 42.9813 143.143 41.2029 143.143 39.0579C143.143 36.8179 143.792 34.9852 145.078 33.5598C146.378 32.1343 148.124 31.4148 150.317 31.4148C152.428 31.4148 154.134 32.1207 155.42 33.5326C156.652 34.8902 157.261 36.655 157.261 38.8136ZM153.944 38.8815C153.944 37.551 153.66 36.4243 153.092 35.4739C152.415 34.32 151.454 33.7498 150.208 33.7498C148.922 33.7498 147.934 34.32 147.271 35.4739C146.689 36.4243 146.418 37.5782 146.418 38.9493C146.418 40.2798 146.703 41.4201 147.271 42.3569C147.961 43.5108 148.936 44.081 150.181 44.081C151.4 44.081 152.361 43.4972 153.064 42.3297C153.647 41.3523 153.944 40.2119 153.944 38.8815Z" fill="white"/>
<path d="M167.684 34.5235C167.373 34.4692 167.034 34.4421 166.669 34.4421C165.545 34.4421 164.666 34.8629 164.056 35.7182C163.529 36.4649 163.258 37.4288 163.258 38.5691V46.158H160.05V36.2477C160.05 34.5779 160.023 33.0574 159.955 31.6998H162.743L162.865 34.4692H162.96C163.298 33.5189 163.826 32.7451 164.557 32.1749C165.275 31.6591 166.046 31.4011 166.872 31.4011C167.17 31.4011 167.44 31.4283 167.671 31.4554L167.684 34.5235Z" fill="white"/>
<path d="M182.004 38.2433C182.004 38.8134 181.964 39.3022 181.882 39.6959H172.272C172.312 41.1213 172.773 42.221 173.666 42.9676C174.478 43.6328 175.52 43.9722 176.806 43.9722C178.228 43.9722 179.527 43.7414 180.691 43.2934L181.192 45.5199C179.825 46.1172 178.214 46.4159 176.36 46.4159C174.126 46.4159 172.367 45.7507 171.094 44.4338C169.822 43.117 169.186 41.3385 169.186 39.1257C169.186 36.9536 169.781 35.1344 170.972 33.6818C172.218 32.1342 173.896 31.3604 176.008 31.3604C178.079 31.3604 179.662 32.1342 180.718 33.6818C181.571 34.9308 182.004 36.4377 182.004 38.2433ZM178.945 37.4151C178.972 36.4648 178.755 35.6367 178.322 34.9444C177.767 34.0484 176.915 33.6004 175.778 33.6004C174.735 33.6004 173.883 34.0348 173.233 34.9036C172.705 35.596 172.38 36.4377 172.285 37.4016L178.945 37.4151Z" fill="white"/>
<path d="M71.7409 18.9388H70.0625L69.142 16.0471H65.9475L65.0677 18.9388H63.4434L66.5972 9.08276H68.5464L71.7409 18.9388ZM68.8578 14.8253L68.0321 12.2459C67.9508 11.988 67.7884 11.3635 67.5312 10.386H67.5042C67.3959 10.8069 67.2605 11.4178 67.0304 12.2459L66.2182 14.8253H68.8578Z" fill="white"/>
<path d="M79.6465 11.8252L76.9664 18.9389H75.4368L72.8379 11.8252H74.5299L75.7346 15.5857C75.9376 16.2102 76.1136 16.8075 76.249 17.3777H76.2896C76.4114 16.8618 76.5874 16.2645 76.8039 15.5857L77.9951 11.8252H79.6465Z" fill="white"/>
<path d="M85.3582 18.9388L85.2364 18.1242H85.1958C84.7085 18.7759 84.0181 19.1017 83.1247 19.1017C81.8524 19.1017 80.959 18.2057 80.959 17.011C80.959 15.2597 82.475 14.3502 85.101 14.3502V14.2144C85.101 13.2777 84.6002 12.8161 83.6256 12.8161C82.9217 12.8161 82.3126 12.9926 81.7711 13.3455L81.4463 12.3138C82.096 11.9065 82.9217 11.7029 83.8828 11.7029C85.7372 11.7029 86.6712 12.6803 86.6712 14.6488V17.2689C86.6712 17.9885 86.6982 18.5451 86.7795 18.9659L85.3582 18.9388ZM85.1416 15.3955C83.3955 15.3955 82.5156 15.8163 82.5156 16.8345C82.5156 17.5812 82.9623 17.9477 83.5985 17.9477C84.3971 17.9477 85.1416 17.3368 85.1416 16.4951V15.3955Z" fill="white"/>
<path d="M90.1781 10.6575C89.6502 10.6575 89.2441 10.2503 89.2441 9.70724C89.2441 9.1642 89.6638 8.77051 90.2052 8.77051C90.7466 8.77051 91.1798 9.1642 91.1663 9.70724C91.1663 10.2774 90.7602 10.6575 90.1781 10.6575ZM89.4201 11.8251H90.9903V18.9252H89.4201V11.8251Z" fill="white"/>
<path d="M93.791 8.56689H95.3612V18.9252H93.791V8.56689Z" fill="white"/>
<path d="M102.048 18.9389L101.926 18.1244H101.885C101.398 18.776 100.708 19.1018 99.8142 19.1018C98.5418 19.1018 97.6484 18.2058 97.6484 17.0112C97.6484 15.2599 99.1645 14.3503 101.79 14.3503V14.2145C101.79 13.2778 101.29 12.8162 100.315 12.8162C99.6112 12.8162 99.002 12.9927 98.4606 13.3457L98.1357 12.3004C98.7855 11.8931 99.6112 11.6895 100.572 11.6895C102.427 11.6895 103.361 12.6669 103.361 14.6354V17.2555C103.361 17.975 103.388 18.5316 103.455 18.9525H102.048V18.9389ZM101.831 15.3956C100.085 15.3956 99.2051 15.8165 99.2051 16.8347C99.2051 17.5813 99.6518 17.9479 100.288 17.9479C101.087 17.9479 101.831 17.337 101.831 16.4953V15.3956Z" fill="white"/>
<path d="M109.75 19.1017C108.748 19.1017 108.004 18.6808 107.517 17.8391H107.49L107.395 18.9388H106.055C106.095 18.3686 106.109 17.7305 106.109 17.0246V8.56689H107.693V12.8704H107.72C108.193 12.083 108.938 11.6893 109.98 11.6893C111.686 11.6893 112.877 13.1555 112.877 15.2869C112.877 17.4862 111.55 19.1017 109.75 19.1017ZM109.425 12.9247C108.518 12.9247 107.693 13.7121 107.693 14.8117V16.0607C107.693 17.0382 108.437 17.8391 109.398 17.8391C110.576 17.8391 111.28 16.8753 111.28 15.3412C111.28 13.9022 110.549 12.9247 109.425 12.9247Z" fill="white"/>
<path d="M115.205 8.56689H116.775V18.9252H115.205V8.56689Z" fill="white"/>
<path d="M125.344 15.762H120.62C120.647 17.106 121.54 17.8662 122.853 17.8662C123.557 17.8662 124.193 17.744 124.762 17.5268L125.005 18.6265C124.342 18.9251 123.557 19.0609 122.636 19.0609C120.417 19.0609 119.104 17.6626 119.104 15.4769C119.104 13.3048 120.444 11.6621 122.46 11.6621C124.261 11.6621 125.411 13.0061 125.411 15.0425C125.411 15.3276 125.398 15.5719 125.344 15.762ZM123.909 14.6352C123.909 13.5356 123.354 12.7617 122.352 12.7617C121.445 12.7617 120.741 13.5491 120.633 14.6352H123.909Z" fill="white"/>
<path d="M134.886 19.1018C132.815 19.1018 131.475 17.5542 131.475 15.4499C131.475 13.2507 132.842 11.6895 135.008 11.6895C137.051 11.6895 138.419 13.1692 138.419 15.3278C138.419 17.5406 137.011 19.1018 134.886 19.1018ZM134.953 12.8434C133.816 12.8434 133.085 13.9159 133.085 15.3956C133.085 16.8618 133.83 17.9207 134.94 17.9207C136.05 17.9207 136.794 16.7804 136.794 15.3549C136.781 13.9159 136.063 12.8434 134.953 12.8434Z" fill="white"/>
<path d="M146.879 18.9388H145.309V14.8525C145.309 13.59 144.822 12.9655 143.874 12.9655C142.94 12.9655 142.304 13.7664 142.304 14.7032V18.9252H140.734V13.8615C140.734 13.237 140.72 12.5582 140.68 11.8251H142.06L142.128 12.9248H142.169C142.588 12.1645 143.455 11.6758 144.416 11.6758C145.905 11.6758 146.879 12.8161 146.879 14.676V18.9388Z" fill="white"/>
<path d="M157.18 13.0198H155.447V16.4681C155.447 17.3505 155.758 17.7849 156.367 17.7849C156.638 17.7849 156.882 17.7578 157.071 17.717L157.112 18.9117C156.801 19.0339 156.394 19.0882 155.894 19.0882C154.648 19.0882 153.917 18.3958 153.917 16.6038V13.0198H152.889V11.8387H153.917V10.5355L155.461 10.0603V11.8252H157.193V13.0198" fill="white"/>
<path d="M165.518 18.9388H163.948V14.8796C163.948 13.6035 163.461 12.9654 162.513 12.9654C161.701 12.9654 160.943 13.522 160.943 14.6488V18.9252H159.373V8.56689H160.943V12.8297H160.97C161.471 12.0559 162.175 11.6757 163.095 11.6757C164.598 11.6757 165.518 12.8433 165.518 14.7031V18.9388Z" fill="white"/>
<path d="M173.558 15.762H168.834C168.861 17.106 169.755 17.8662 171.068 17.8662C171.772 17.8662 172.408 17.744 172.976 17.5268L173.22 18.6265C172.557 18.9251 171.772 19.0609 170.851 19.0609C168.631 19.0609 167.318 17.6626 167.318 15.4769C167.318 13.3048 168.658 11.6621 170.675 11.6621C172.476 11.6621 173.626 13.0061 173.626 15.0425C173.626 15.3276 173.613 15.5719 173.558 15.762ZM172.124 14.6352C172.124 13.5356 171.569 12.7617 170.567 12.7617C169.66 12.7617 168.943 13.5491 168.848 14.6352H172.124Z" fill="white"/>
</svg>
