<svg width="200" height="60" viewBox="0 0 200 60" fill="none" xmlns="http://www.w3.org/2000/svg">
<path d="M192.593 59.2593H7.40741C3.33333 59.2593 0 55.9259 0 51.8519V7.40741C0 3.33333 3.33333 0 7.40741 0H192.593C196.667 0 200 3.33333 200 7.40741V51.8519C200 55.9259 196.667 59.2593 192.593 59.2593Z" fill="#1F0812"/>
<path d="M192.593 1.18519C194.243 1.18519 195.825 1.84074 196.992 3.00763C198.159 4.17452 198.815 5.75717 198.815 7.40741V51.8519C198.815 53.5021 198.159 55.0847 196.992 56.2516C195.825 57.4185 194.243 58.0741 192.593 58.0741H7.40741C5.75717 58.0741 4.17452 57.4185 3.00763 56.2516C1.84074 55.0847 1.18519 53.5021 1.18519 51.8519V7.40741C1.18519 5.75717 1.84074 4.17452 3.00763 3.00763C4.17452 1.84074 5.75717 1.18519 7.40741 1.18519H192.593ZM192.593 0H7.40741C3.33333 0 0 3.33333 0 7.40741V51.8519C0 55.9259 3.33333 59.2593 7.40741 59.2593H192.593C196.667 59.2593 200 55.9259 200 51.8519V7.40741C200 3.33333 196.667 0 192.593 0Z" fill="#A6A6A6"/>
<path d="M70.2532 15.1705C70.2532 16.4149 69.8828 17.4075 69.1421 18.1335C68.3124 19.0075 67.2309 19.452 65.8828 19.452C64.5939 19.452 63.4976 19.0075 62.6087 18.1186C61.7198 17.2298 61.2754 16.1186 61.2754 14.8149C61.2754 13.5112 61.7198 12.4001 62.6087 11.5112C63.4976 10.6223 64.5939 10.1631 65.8828 10.1631C66.5347 10.1631 67.1569 10.2816 67.7347 10.5038C68.3124 10.7409 68.7865 11.0668 69.1569 11.4816L68.3421 12.2964C68.0754 11.9705 67.7198 11.7038 67.2754 11.526C66.8363 11.335 66.3617 11.2391 65.8828 11.2446C64.9198 11.2446 64.0902 11.5853 63.4235 12.252C62.7569 12.9335 62.4309 13.7779 62.4309 14.8001C62.4309 15.8223 62.7569 16.6668 63.4235 17.3483C64.0902 18.0149 64.905 18.3557 65.8828 18.3557C66.7717 18.3557 67.4976 18.1038 68.0902 17.6149C68.6828 17.126 69.0235 16.4298 69.1124 15.5705H65.8828V14.5038H70.1939C70.2235 14.7409 70.2532 14.9631 70.2532 15.1705ZM77.0828 10.3705V11.4668H73.0384V14.2816H76.6828V15.3483H73.0384V18.1631H77.0828V19.2594H71.8976V10.3705H77.0828ZM81.8976 11.4668V19.2594H80.7569V11.4668H78.268V10.3705H84.3717V11.4668H81.8976ZM89.9421 19.2594H88.8013V10.3705H89.9421V19.2594ZM95.0087 11.4668V19.2594H93.868V11.4668H91.3791V10.3705H97.4828V11.4668H95.0087ZM110.357 14.8149C110.357 16.1335 109.912 17.2298 109.038 18.1186C108.149 19.0075 107.068 19.452 105.779 19.452C104.49 19.452 103.409 19.0075 102.52 18.1186C101.646 17.2298 101.201 16.1335 101.201 14.8149C101.201 13.4964 101.646 12.4001 102.52 11.5112C103.394 10.6223 104.475 10.1631 105.779 10.1631C107.068 10.1631 108.149 10.6075 109.038 11.5112C109.927 12.4149 110.357 13.5112 110.357 14.8149ZM102.387 14.8149C102.387 15.8372 102.712 16.6964 103.349 17.3631C104.001 18.0298 104.816 18.3705 105.779 18.3705C106.742 18.3705 107.557 18.0298 108.194 17.3631C108.846 16.6964 109.172 15.852 109.172 14.8149C109.172 13.7779 108.846 12.9335 108.194 12.2668C107.542 11.6001 106.742 11.2594 105.779 11.2594C104.816 11.2594 104.001 11.6001 103.349 12.2668C102.712 12.9335 102.387 13.7927 102.387 14.8149ZM113.098 19.2594H111.957V10.3705H113.349L117.675 17.289H117.72L117.675 15.5705V10.3705H118.816V19.2594H117.631L113.112 12.0149H113.068L113.112 13.7335V19.2594H113.098Z" fill="white"/>
<path fill-rule="evenodd" clip-rule="evenodd" d="M65.8825 10.3112C64.6328 10.3112 63.5742 10.7549 62.7132 11.6159C61.8536 12.4756 61.4232 13.5483 61.4232 14.8149C61.4232 16.0814 61.8536 17.1542 62.7132 18.0138C63.5733 18.874 64.6315 19.3038 65.8825 19.3038C67.1944 19.3038 68.2355 18.873 69.0343 18.0314L69.0362 18.0295L69.0381 18.0276C69.7446 17.3352 70.1047 16.3839 70.1047 15.1704C70.1047 15.0104 70.086 14.84 70.0628 14.6519H66.0307V15.4223H69.2764L69.2595 15.5857C69.1673 16.4769 68.8116 17.2115 68.1842 17.7292C67.5621 18.2424 66.8018 18.5038 65.8825 18.5038C64.8659 18.5038 64.0133 18.1477 63.3185 17.453L63.3179 17.4524L63.3173 17.4518C62.6212 16.7402 62.2825 15.8574 62.2825 14.8001C62.2825 13.7427 62.6212 12.86 63.3173 12.1483L63.3179 12.1477L63.3185 12.1472C64.0133 11.4524 64.8806 11.0966 65.8817 11.0964C66.3804 11.0908 66.8747 11.1906 67.3322 11.3893C67.7417 11.5534 68.0812 11.7903 68.3492 12.0794L68.9507 11.4779C68.6122 11.1301 68.1895 10.8508 67.6797 10.6415C67.1193 10.4262 66.5156 10.3112 65.8825 10.3112ZM62.5037 11.4064C63.4204 10.4897 64.5544 10.0149 65.8825 10.0149C66.5525 10.0149 67.1928 10.1368 67.7875 10.3655L67.7891 10.3661L67.7906 10.3667C68.3866 10.6112 68.88 10.9494 69.2671 11.3829L69.3603 11.4873L68.3308 12.5169L68.2271 12.3902C67.9767 12.0841 67.6418 11.8322 67.2201 11.6636L67.218 11.6627L67.216 11.6619C66.796 11.4791 66.3422 11.3874 65.8842 11.3927L65.8834 11.3927H65.8825C64.9583 11.3927 64.1668 11.7182 63.5286 12.3561C62.8918 13.0073 62.5788 13.8133 62.5788 14.8001C62.5788 15.7869 62.8918 16.5928 63.5286 17.244C64.167 17.8822 64.9439 18.2075 65.8825 18.2075C66.741 18.2075 67.4325 17.9652 67.9956 17.5006C68.5161 17.0712 68.8347 16.4695 68.9444 15.7186H65.7344V14.3556H70.3244L70.3406 14.4854C70.3426 14.501 70.3445 14.5167 70.3465 14.5323C70.3739 14.7501 70.401 14.9664 70.401 15.1704C70.401 16.4448 70.021 17.4781 69.2474 18.2373C68.3871 19.1426 67.2659 19.6001 65.8825 19.6001C64.5557 19.6001 63.4213 19.141 62.5037 18.2234C61.5855 17.3052 61.127 16.1557 61.127 14.8149C61.127 13.474 61.5855 12.3246 62.5037 11.4064ZM105.779 10.3112C104.514 10.3112 103.471 10.7549 102.625 11.6151C101.779 12.4751 101.349 13.5336 101.349 14.8149C101.349 16.0959 101.779 17.1542 102.625 18.0141C103.485 18.8744 104.529 19.3038 105.779 19.3038C107.029 19.3038 108.072 18.8745 108.933 18.0143C109.778 17.1543 110.208 16.0959 110.208 14.8149C110.208 13.5478 109.793 12.4895 108.932 11.6151C108.072 10.7405 107.029 10.3112 105.779 10.3112ZM102.414 11.4073C103.316 10.4897 104.436 10.0149 105.779 10.0149C107.106 10.0149 108.226 10.4745 109.144 11.4073C110.061 12.3403 110.505 13.4746 110.505 14.8149C110.505 16.1707 110.046 17.3048 109.144 18.2225L109.143 18.2234C108.226 19.1406 107.106 19.6001 105.779 19.6001C104.451 19.6001 103.332 19.1406 102.415 18.2234L102.414 18.2225C101.511 17.3048 101.053 16.1707 101.053 14.8149C101.053 13.4591 101.511 12.325 102.414 11.4073ZM71.7492 10.2223H77.2307V11.6149H73.1862V14.1334H76.8307V15.4964H73.1862V18.0149H77.2307V19.4075H71.7492V10.2223ZM72.0455 10.5186V19.1112H76.9344V18.3112H72.8899V15.2001H76.5344V14.4297H72.8899V11.3186H76.9344V10.5186H72.0455ZM78.1195 10.2223H84.5195V11.6149H82.0455V19.4075H80.6084V11.6149H78.1195V10.2223ZM78.4158 10.5186V11.3186H80.9047V19.1112H81.7492V11.3186H84.2232V10.5186H78.4158ZM88.6529 10.2223H90.0899V19.4075H88.6529V10.2223ZM88.9492 10.5186V19.1112H89.7936V10.5186H88.9492ZM91.2307 10.2223H97.6307V11.6149H95.1566V19.4075H93.7195V11.6149H91.2307V10.2223ZM91.527 10.5186V11.3186H94.0158V19.1112H94.8603V11.3186H97.3344V10.5186H91.527ZM111.808 10.2223H113.431L117.559 16.8244L117.527 15.5724V10.2223H118.964V19.4075H117.548L113.228 12.4805L113.26 13.7315V19.4075H111.808V10.2223ZM112.105 10.5186V19.1112H112.964V13.7334L112.916 11.8667H113.194L117.713 19.1112H118.668V10.5186H117.823V15.5704L117.872 17.4371H117.593L113.267 10.5186H112.105ZM103.243 12.1632C103.924 11.4673 104.777 11.1112 105.779 11.1112C106.781 11.1112 107.62 11.4678 108.3 12.1632C108.981 12.8605 109.32 13.7436 109.32 14.8149C109.32 15.8859 108.982 16.7687 108.3 17.4659C107.634 18.1628 106.78 18.5186 105.779 18.5186C104.777 18.5186 103.924 18.1625 103.243 17.4666L103.243 17.466L103.242 17.4654C102.576 16.7682 102.238 15.8709 102.238 14.8149C102.238 13.7588 102.576 12.8616 103.242 12.1644L103.243 12.1638L103.243 12.1632ZM103.456 12.3698C102.848 13.0058 102.534 13.8268 102.534 14.8149C102.534 15.8029 102.848 16.624 103.456 17.26C104.079 17.8971 104.855 18.2223 105.779 18.2223C106.703 18.2223 107.479 17.8968 108.087 17.2607L108.087 17.2601L108.088 17.2595C108.71 16.6235 109.023 15.8176 109.023 14.8149C109.023 13.8122 108.71 13.0063 108.088 12.3703C107.464 11.7323 106.702 11.4075 105.779 11.4075C104.855 11.4075 104.079 11.7327 103.456 12.3698Z" fill="white"/>
<path d="M100.949 32.2222C97.4674 32.2222 94.623 34.8741 94.623 38.5185C94.623 42.1482 97.4674 44.8148 100.949 44.8148C104.43 44.8148 107.275 42.1482 107.275 38.5185C107.275 34.8741 104.43 32.2222 100.949 32.2222ZM100.949 42.3408C99.0378 42.3408 97.3934 40.7704 97.3934 38.5185C97.3934 36.2519 99.0378 34.6963 100.949 34.6963C102.86 34.6963 104.504 36.2519 104.504 38.5185C104.504 40.7704 102.845 42.3408 100.949 42.3408ZM87.1415 32.2222C83.66 32.2222 80.8156 34.8741 80.8156 38.5185C80.8156 42.1482 83.66 44.8148 87.1415 44.8148C90.623 44.8148 93.4674 42.1482 93.4674 38.5185C93.4674 34.8741 90.623 32.2222 87.1415 32.2222ZM87.1415 42.3408C85.2304 42.3408 83.586 40.7704 83.586 38.5185C83.586 36.2519 85.2304 34.6963 87.1415 34.6963C89.0526 34.6963 90.6971 36.2519 90.6971 38.5185C90.6971 40.7704 89.0526 42.3408 87.1415 42.3408ZM70.7267 34.163V36.8296H77.1267C76.9341 38.3259 76.4304 39.4371 75.6749 40.1926C74.7415 41.1259 73.2897 42.1482 70.7415 42.1482C66.8008 42.1482 63.7193 38.9778 63.7193 35.0371C63.7193 31.0963 66.8008 27.9259 70.7415 27.9259C72.86 27.9259 74.4156 28.7556 75.5563 29.8371L77.4378 27.9556C75.8378 26.4297 73.7193 25.2593 70.7267 25.2593C65.3341 25.2593 60.8008 29.6445 60.8008 35.0519C60.8008 40.4445 65.3341 44.8445 70.7267 44.8445C73.6452 44.8445 75.8378 43.8963 77.5563 42.1037C79.3193 40.3408 79.8674 37.8519 79.8674 35.8519C79.8674 35.2297 79.823 34.6519 79.7193 34.1778H70.7267V34.163ZM137.853 36.2371C137.334 34.8296 135.734 32.2222 132.46 32.2222C129.216 32.2222 126.519 34.7704 126.519 38.5185C126.519 42.0445 129.186 44.8148 132.771 44.8148C135.66 44.8148 137.334 43.0519 138.016 42.0296L135.867 40.5926C135.156 41.6445 134.179 42.3408 132.771 42.3408C131.364 42.3408 130.356 41.7037 129.719 40.4297L138.149 36.9482L137.853 36.2371ZM129.26 38.3408C129.186 35.9111 131.142 34.6667 132.549 34.6667C133.645 34.6667 134.579 35.2148 134.89 36L129.26 38.3408ZM122.416 44.4445H125.186V25.9259H122.416V44.4445ZM117.882 33.6297H117.779C117.156 32.8889 115.971 32.2222 114.46 32.2222C111.304 32.2222 108.416 34.9926 108.416 38.5482C108.416 42.0741 111.304 44.8296 114.46 44.8296C115.956 44.8296 117.156 44.163 117.779 43.3926H117.867V44.2963C117.867 46.7111 116.579 48 114.504 48C112.816 48 111.764 46.7852 111.334 45.763L108.919 46.7704C109.616 48.4445 111.453 50.4889 114.504 50.4889C117.749 50.4889 120.49 48.5778 120.49 43.9259V32.6074H117.867V33.6297H117.882ZM114.697 42.3408C112.786 42.3408 111.186 40.7408 111.186 38.5482C111.186 36.3259 112.786 34.7111 114.697 34.7111C116.579 34.7111 118.06 36.3408 118.06 38.5482C118.075 40.7408 116.593 42.3408 114.697 42.3408ZM150.83 25.9259H144.208V44.4445H146.979V37.4222H150.845C153.912 37.4222 156.919 35.2 156.919 31.6741C156.904 28.1482 153.882 25.9259 150.83 25.9259ZM150.89 34.8445H146.964V28.4889H150.89C152.964 28.4889 154.134 30.2074 154.134 31.6593C154.134 33.1111 152.964 34.8445 150.89 34.8445ZM167.986 32.1926C165.986 32.1926 163.912 33.0815 163.053 35.0222L165.512 36.0445C166.03 35.0222 167.008 34.6815 168.03 34.6815C169.453 34.6815 170.919 35.5408 170.934 37.0667V37.2593C170.43 36.9778 169.364 36.5482 168.045 36.5482C165.393 36.5482 162.712 38 162.712 40.7111C162.712 43.1852 164.875 44.7852 167.304 44.7852C169.156 44.7852 170.193 43.9556 170.83 42.9778H170.919V44.4H173.586V37.3037C173.601 34.0296 171.142 32.1926 167.986 32.1926ZM167.645 42.3408C166.742 42.3408 165.482 41.8815 165.482 40.7704C165.482 39.3482 167.053 38.8 168.416 38.8C169.63 38.8 170.208 39.0667 170.934 39.4222C170.831 40.2241 170.442 40.9616 169.837 41.4981C169.232 42.0347 168.454 42.3341 167.645 42.3408ZM183.319 32.5926L180.149 40.6222H180.06L176.771 32.5926H173.793L178.727 43.8222L175.912 50.0593H178.801L186.401 32.5926H183.319ZM158.43 44.4445H161.201V25.9259H158.43V44.4445Z" fill="white"/>
<path d="M30.6957 28.7703L14.918 45.511V45.5258C15.0887 46.16 15.4037 46.7461 15.8383 47.2385C16.2729 47.7308 16.8154 48.1161 17.4235 48.3642C18.0315 48.6123 18.6887 48.7165 19.3437 48.6688C19.9987 48.621 20.6338 48.4225 21.1994 48.0888L21.2439 48.0592L38.992 37.8221L30.6957 28.7703Z" fill="#EA4335"/>
<path d="M46.651 25.9258L46.6361 25.911L38.9769 21.4666L30.3398 29.1554L39.0065 37.8221L46.6361 33.4221C47.311 33.0568 47.8748 32.5162 48.2682 31.8574C48.6617 31.1985 48.8701 30.4457 48.8716 29.6784C48.8732 28.911 48.6677 28.1574 48.2769 27.497C47.886 26.8366 47.3244 26.2938 46.651 25.9258Z" fill="#FBBC04"/>
<path d="M14.9177 13.748C14.8288 14.1036 14.7695 14.4592 14.7695 14.8443V44.4295C14.7695 44.8147 14.814 45.1703 14.9177 45.5258L31.2288 29.2147L14.9177 13.748Z" fill="#4285F4"/>
<path d="M30.8143 29.6297L38.9772 21.4667L21.2439 11.1852C20.677 10.8463 20.0394 10.6431 19.3809 10.5916C18.7224 10.5402 18.0609 10.6418 17.4482 10.8886C16.8356 11.1354 16.2883 11.5206 15.8494 12.0141C15.4104 12.5077 15.0916 13.0961 14.918 13.7334L30.8143 29.6297Z" fill="#34A853"/>
</svg>
