<svg width="72" height="72" viewBox="0 0 72 72" fill="none" xmlns="http://www.w3.org/2000/svg">
<circle cx="36" cy="36" r="36" fill="#E6347C"/>
<path d="M32.5 41.25L41.5825 36L32.5 30.75V41.25ZM52.73 27.5475C52.9575 28.37 53.115 29.4725 53.22 30.8725C53.3425 32.2725 53.395 33.48 53.395 34.53L53.5 36C53.5 39.8325 53.22 42.65 52.73 44.4525C52.2925 46.0275 51.2775 47.0425 49.7025 47.48C48.88 47.7075 47.375 47.865 45.065 47.97C42.79 48.0925 40.7075 48.145 38.7825 48.145L36 48.25C28.6675 48.25 24.1 47.97 22.2975 47.48C20.7225 47.0425 19.7075 46.0275 19.27 44.4525C19.0425 43.63 18.885 42.5275 18.78 41.1275C18.6575 39.7275 18.605 38.52 18.605 37.47L18.5 36C18.5 32.1675 18.78 29.35 19.27 27.5475C19.7075 25.9725 20.7225 24.9575 22.2975 24.52C23.12 24.2925 24.625 24.135 26.935 24.03C29.21 23.9075 31.2925 23.855 33.2175 23.855L36 23.75C43.3325 23.75 47.9 24.03 49.7025 24.52C51.2775 24.9575 52.2925 25.9725 52.73 27.5475Z" fill="white"/>
</svg>
