<svg width="72" height="72" viewBox="0 0 72 72" fill="none" xmlns="http://www.w3.org/2000/svg">
<circle cx="36" cy="36" r="36" fill="#E6347C"/>
<path d="M28.65 18.5H43.35C48.95 18.5 53.5 23.05 53.5 28.65V43.35C53.5 46.0419 52.4306 48.6236 50.5271 50.5271C48.6236 52.4306 46.0419 53.5 43.35 53.5H28.65C23.05 53.5 18.5 48.95 18.5 43.35V28.65C18.5 25.9581 19.5694 23.3764 21.4729 21.4729C23.3764 19.5694 25.9581 18.5 28.65 18.5ZM28.3 22C26.6291 22 25.0267 22.6637 23.8452 23.8452C22.6637 25.0267 22 26.6291 22 28.3V43.7C22 47.1825 24.8175 50 28.3 50H43.7C45.3709 50 46.9733 49.3363 48.1548 48.1548C49.3363 46.9733 50 45.3709 50 43.7V28.3C50 24.8175 47.1825 22 43.7 22H28.3ZM45.1875 24.625C45.7677 24.625 46.3241 24.8555 46.7343 25.2657C47.1445 25.6759 47.375 26.2323 47.375 26.8125C47.375 27.3927 47.1445 27.9491 46.7343 28.3593C46.3241 28.7695 45.7677 29 45.1875 29C44.6073 29 44.0509 28.7695 43.6407 28.3593C43.2305 27.9491 43 27.3927 43 26.8125C43 26.2323 43.2305 25.6759 43.6407 25.2657C44.0509 24.8555 44.6073 24.625 45.1875 24.625ZM36 27.25C38.3206 27.25 40.5462 28.1719 42.1872 29.8128C43.8281 31.4538 44.75 33.6794 44.75 36C44.75 38.3206 43.8281 40.5462 42.1872 42.1872C40.5462 43.8281 38.3206 44.75 36 44.75C33.6794 44.75 31.4538 43.8281 29.8128 42.1872C28.1719 40.5462 27.25 38.3206 27.25 36C27.25 33.6794 28.1719 31.4538 29.8128 29.8128C31.4538 28.1719 33.6794 27.25 36 27.25ZM36 30.75C34.6076 30.75 33.2723 31.3031 32.2877 32.2877C31.3031 33.2723 30.75 34.6076 30.75 36C30.75 37.3924 31.3031 38.7277 32.2877 39.7123C33.2723 40.6969 34.6076 41.25 36 41.25C37.3924 41.25 38.7277 40.6969 39.7123 39.7123C40.6969 38.7277 41.25 37.3924 41.25 36C41.25 34.6076 40.6969 33.2723 39.7123 32.2877C38.7277 31.3031 37.3924 30.75 36 30.75Z" fill="white"/>
</svg>
